M48
; DRILL file {KiCad 7.0.10} date Thu Mar  7 20:26:14 2024
; FORMAT={-:-/ absolute / inch / decimal}
; #@! TF.CreationDate,2024-03-07T20:26:14+01:00
; #@! TF.GenerationSoftware,Kicad,Pcbnew,7.0.10
; #@! TF.FileFunction,Plated,1,2,PTH
FMAT,2
INCH
; #@! TA.AperFunction,Plated,PTH,ComponentDrill
T1C0.0276
; #@! TA.AperFunction,Plated,PTH,ComponentDrill
T2C0.0315
; #@! TA.AperFunction,Plated,PTH,ComponentDrill
T3C0.0350
; #@! TA.AperFunction,Plated,PTH,ComponentDrill
T4C0.0354
; #@! TA.AperFunction,Plated,PTH,ComponentDrill
T5C0.0394
; #@! TA.AperFunction,Plated,PTH,ComponentDrill
T6C0.0433
; #@! TA.AperFunction,Plated,PTH,ComponentDrill
T7C0.0902
; #@! TA.AperFunction,Plated,PTH,ComponentDrill
T8C0.1024
%
G90
G05
T1
X5.83Y-3.0858
X5.83Y-3.1842
X5.83Y-3.3558
X5.83Y-3.4542
T2
X3.7213Y-3.2516
X3.7213Y-3.4484
X3.8Y-2.72
X3.8Y-3.12
X3.8Y-3.2516
X3.8Y-3.4484
X3.8787Y-3.2516
X3.8787Y-3.4484
X4.1384Y-3.435
X4.1403Y-3.075
X4.2369Y-3.435
X4.2387Y-3.075
X4.46Y-2.61
X4.46Y-2.8
X4.46Y-2.99
X4.46Y-3.18
X4.46Y-3.37
X4.46Y-3.56
X4.86Y-2.61
X4.86Y-2.8
X4.86Y-2.99
X4.86Y-3.18
X4.86Y-3.37
X4.86Y-3.56
X5.01Y-3.435
X5.07Y-2.855
X5.07Y-2.955
X5.07Y-3.055
X5.382Y-2.955
X5.41Y-3.435
X5.5154Y-2.2404
X5.5154Y-2.3404
X5.5154Y-2.4404
X5.5154Y-2.5404
X5.638Y-2.955
X5.8154Y-2.2404
X5.8154Y-2.3404
X5.8154Y-2.4404
X5.8154Y-2.5404
X6.06Y-3.1735
X6.06Y-3.3657
X6.24Y-2.23
X6.24Y-2.33
X6.24Y-2.43
X6.24Y-2.53
X6.24Y-2.63
X6.24Y-2.73
X6.24Y-2.83
X6.24Y-2.93
X6.24Y-3.03
X6.24Y-3.13
X6.24Y-3.23
X6.24Y-3.33
X6.24Y-3.43
X6.24Y-3.53
X6.24Y-3.63
X6.24Y-3.73
X6.24Y-3.83
X6.24Y-3.93
X6.24Y-4.03
X6.24Y-4.13
X6.84Y-2.23
X6.84Y-2.33
X6.84Y-2.43
X6.84Y-2.53
X6.84Y-2.63
X6.84Y-2.73
X6.84Y-2.83
X6.84Y-2.93
X6.84Y-3.03
X6.84Y-3.13
X6.84Y-3.23
X6.84Y-3.33
X6.84Y-3.43
X6.84Y-3.53
X6.84Y-3.63
X6.84Y-3.73
X6.84Y-3.83
X6.84Y-3.93
X6.84Y-4.03
X6.84Y-4.13
X7.05Y-3.0531
X7.05Y-3.1516
T3
X4.6981Y-3.83
X4.6981Y-3.928
X4.7788Y-3.928
X4.8812Y-3.928
X4.9619Y-3.83
X4.9619Y-3.928
T4
X3.8Y-2.4348
X3.8Y-2.5348
X5.56Y-3.435
X5.66Y-3.435
T5
X4.067Y-2.5496
X4.067Y-2.7268
X4.323Y-2.5496
X4.323Y-2.7268
X4.3704Y-2.26
X4.3704Y-2.36
X4.4704Y-2.26
X4.4704Y-2.36
X4.5704Y-2.26
X4.5704Y-2.36
X4.6704Y-2.26
X4.6704Y-2.36
X4.8952Y-2.2602
X4.8952Y-2.3602
X4.9952Y-2.2602
X4.9952Y-2.3602
X5.0952Y-2.2602
X5.0952Y-2.3602
X5.1952Y-2.2602
X5.1952Y-2.3602
X5.2952Y-2.2602
X5.2952Y-2.3602
X6.1Y-2.33
X6.1Y-2.43
X6.1Y-2.53
X6.1Y-2.63
X6.1Y-2.73
X6.1Y-2.83
X6.1Y-2.93
X6.1Y-3.6292
X6.1Y-3.7292
X6.1Y-3.8292
X6.1Y-3.9292
X6.1Y-4.0292
X6.1Y-4.1292
X6.98Y-2.23
X6.98Y-2.33
X6.98Y-2.43
X6.98Y-2.53
X6.98Y-2.63
X6.98Y-2.73
X6.98Y-2.83
X6.98Y-3.33
X6.98Y-3.43
X6.98Y-3.53
X6.98Y-3.63
X6.98Y-3.73
X6.98Y-3.83
X6.98Y-3.93
X6.98Y-4.03
T6
X3.79Y-3.68
X3.79Y-3.78
X3.79Y-3.88
T7
X4.5639Y-4.0461
X4.83Y-4.078
X5.0961Y-4.0461
T8
X5.3981Y-3.9207
X5.595Y-4.0979
X5.7919Y-3.9207
T2
G00X4.0376Y-3.7328
M15
G01X4.1242Y-3.7328
M16
G05
G00X4.0376Y-3.969
M15
G01X4.1242Y-3.969
M16
G05
G00X4.2698Y-3.8844
M15
G01X4.2698Y-3.7781
M16
G05
M30
