%TF.GenerationSoftware,KiCad,Pcbnew,7.0.10*%
%TF.CreationDate,2024-04-03T21:11:51+02:00*%
%TF.ProjectId,avr-basic-sbc,6176722d-6261-4736-9963-2d7362632e6b,v0.1*%
%TF.SameCoordinates,Original*%
%TF.FileFunction,Copper,L1,Top*%
%TF.FilePolarity,Positive*%
%FSLAX46Y46*%
G04 Gerber Fmt 4.6, Leading zero omitted, Abs format (unit mm)*
G04 Created by KiCad (PCBNEW 7.0.10) date 2024-04-03 21:11:51*
%MOMM*%
%LPD*%
G01*
G04 APERTURE LIST*
%TA.AperFunction,ComponentPad*%
%ADD10C,1.600000*%
%TD*%
%TA.AperFunction,ComponentPad*%
%ADD11O,1.600000X1.600000*%
%TD*%
%TA.AperFunction,ComponentPad*%
%ADD12R,1.398000X1.398000*%
%TD*%
%TA.AperFunction,ComponentPad*%
%ADD13C,1.398000*%
%TD*%
%TA.AperFunction,ComponentPad*%
%ADD14C,3.306000*%
%TD*%
%TA.AperFunction,ComponentPad*%
%ADD15O,2.350000X4.700000*%
%TD*%
%TA.AperFunction,ComponentPad*%
%ADD16O,4.000000X2.000000*%
%TD*%
%TA.AperFunction,ComponentPad*%
%ADD17R,1.508000X1.508000*%
%TD*%
%TA.AperFunction,ComponentPad*%
%ADD18C,1.508000*%
%TD*%
%TA.AperFunction,ComponentPad*%
%ADD19R,2.000000X1.905000*%
%TD*%
%TA.AperFunction,ComponentPad*%
%ADD20O,2.000000X1.905000*%
%TD*%
%TA.AperFunction,ComponentPad*%
%ADD21R,1.800000X1.800000*%
%TD*%
%TA.AperFunction,ComponentPad*%
%ADD22C,1.800000*%
%TD*%
%TA.AperFunction,ComponentPad*%
%ADD23R,1.700000X1.700000*%
%TD*%
%TA.AperFunction,ComponentPad*%
%ADD24O,1.700000X1.700000*%
%TD*%
%TA.AperFunction,ComponentPad*%
%ADD25R,1.600000X1.600000*%
%TD*%
%TA.AperFunction,ComponentPad*%
%ADD26C,1.400000*%
%TD*%
%TA.AperFunction,ComponentPad*%
%ADD27C,1.308000*%
%TD*%
%TA.AperFunction,ComponentPad*%
%ADD28R,1.308000X1.308000*%
%TD*%
%TA.AperFunction,ComponentPad*%
%ADD29C,3.616000*%
%TD*%
%TA.AperFunction,ComponentPad*%
%ADD30C,1.500000*%
%TD*%
%TA.AperFunction,Conductor*%
%ADD31C,0.250000*%
%TD*%
%TA.AperFunction,Conductor*%
%ADD32C,0.500000*%
%TD*%
G04 APERTURE END LIST*
D10*
%TO.P,R7,1*%
%TO.N,Net-(R7-Pad1)*%
X123444000Y-66294000D03*
D11*
%TO.P,R7,2*%
%TO.N,Net-(BZ1-+)*%
X113284000Y-66294000D03*
%TD*%
D10*
%TO.P,R6,1*%
%TO.N,+5V*%
X113284000Y-90424000D03*
D11*
%TO.P,R6,2*%
%TO.N,Net-(U3-~{WP})*%
X123444000Y-90424000D03*
%TD*%
D12*
%TO.P,J2,1*%
%TO.N,Data*%
X123982000Y-99772000D03*
D13*
%TO.P,J2,2*%
%TO.N,unconnected-(J2-Pad2)*%
X121382000Y-99772000D03*
%TO.P,J2,3*%
%TO.N,GND*%
X126032000Y-99772000D03*
%TO.P,J2,4*%
%TO.N,+5V*%
X119332000Y-99772000D03*
%TO.P,J2,5*%
%TO.N,Clock*%
X126032000Y-97282000D03*
%TO.P,J2,6*%
%TO.N,unconnected-(J2-Pad6)*%
X119332000Y-97282000D03*
D14*
%TO.P,J2,S1*%
%TO.N,GND*%
X122682000Y-103582000D03*
%TO.P,J2,S2*%
X115922000Y-102772000D03*
%TO.P,J2,S3*%
X129442000Y-102772000D03*
%TD*%
D10*
%TO.P,R1,1*%
%TO.N,+5V*%
X113284000Y-71120000D03*
D11*
%TO.P,R1,2*%
%TO.N,RESET*%
X123444000Y-71120000D03*
%TD*%
D15*
%TO.P,J1,2*%
%TO.N,GND*%
X108454000Y-97312600D03*
D16*
%TO.P,J1,3*%
X103654000Y-100812600D03*
%TO.P,J1,4*%
%TO.N,/POWER IN*%
X103654000Y-94812600D03*
%TD*%
D17*
%TO.P,S1,1*%
%TO.N,unconnected-(S1-Pad1)*%
X103303000Y-64760500D03*
D18*
%TO.P,S1,2*%
%TO.N,RESET*%
X109803000Y-64760500D03*
%TO.P,S1,3*%
%TO.N,GND*%
X103303000Y-69260500D03*
%TO.P,S1,4*%
%TO.N,unconnected-(S1-Pad4)*%
X109803000Y-69260500D03*
%TD*%
D19*
%TO.P,U2,1,IN*%
%TO.N,/POWER IN 2*%
X96266000Y-98552000D03*
D20*
%TO.P,U2,2,GND*%
%TO.N,GND*%
X96266000Y-96012000D03*
%TO.P,U2,3,OUT*%
%TO.N,+5V*%
X96266000Y-93472000D03*
%TD*%
D21*
%TO.P,D2,1,K*%
%TO.N,GND*%
X143764000Y-87249000D03*
D22*
%TO.P,D2,2,A*%
%TO.N,Net-(D2-A)*%
X141224000Y-87249000D03*
%TD*%
D23*
%TO.P,J7,1,Pin_1*%
%TO.N,Net-(J7-Pin_1)*%
X154940000Y-92181600D03*
D24*
%TO.P,J7,2,Pin_2*%
%TO.N,Net-(J7-Pin_2)*%
X154940000Y-94721600D03*
%TO.P,J7,3,Pin_3*%
%TO.N,Net-(J7-Pin_3)*%
X154940000Y-97261600D03*
%TO.P,J7,4,Pin_4*%
%TO.N,Net-(J7-Pin_4)*%
X154940000Y-99801600D03*
%TO.P,J7,5,Pin_5*%
%TO.N,Net-(J7-Pin_5)*%
X154940000Y-102341600D03*
%TO.P,J7,6,Pin_6*%
%TO.N,Net-(J7-Pin_6)*%
X154940000Y-104881600D03*
%TD*%
D23*
%TO.P,J6,1,Pin_1*%
%TO.N,Net-(J6-Pin_1)*%
X177292000Y-102362000D03*
D24*
%TO.P,J6,2,Pin_2*%
%TO.N,Net-(J6-Pin_2)*%
X177292000Y-99822000D03*
%TO.P,J6,3,Pin_3*%
%TO.N,Net-(J6-Pin_3)*%
X177292000Y-97282000D03*
%TO.P,J6,4,Pin_4*%
%TO.N,Net-(J6-Pin_4)*%
X177292000Y-94742000D03*
%TO.P,J6,5,Pin_5*%
%TO.N,Net-(J6-Pin_5)*%
X177292000Y-92202000D03*
%TO.P,J6,6,Pin_6*%
%TO.N,Net-(J6-Pin_6)*%
X177292000Y-89662000D03*
%TO.P,J6,7,Pin_7*%
%TO.N,Net-(J6-Pin_7)*%
X177292000Y-87122000D03*
%TO.P,J6,8,Pin_8*%
%TO.N,Net-(J6-Pin_8)*%
X177292000Y-84582000D03*
%TD*%
D10*
%TO.P,R3,1*%
%TO.N,Net-(J3-Video)*%
X113284000Y-75946000D03*
D11*
%TO.P,R3,2*%
%TO.N,Video*%
X123444000Y-75946000D03*
%TD*%
D10*
%TO.P,R8,1*%
%TO.N,Net-(J7-Pin_5)*%
X137414000Y-87249000D03*
D11*
%TO.P,R8,2*%
%TO.N,Net-(D2-A)*%
X127254000Y-87249000D03*
%TD*%
D25*
%TO.P,C3,1*%
%TO.N,/POWER IN 2*%
X105164200Y-78105000D03*
D10*
%TO.P,C3,2*%
%TO.N,GND*%
X107664200Y-78105000D03*
%TD*%
D23*
%TO.P,J4,1,Pin_1*%
%TO.N,Net-(J4-Pin_1)*%
X154940000Y-59182000D03*
D24*
%TO.P,J4,2,Pin_2*%
%TO.N,Net-(J4-Pin_2)*%
X154940000Y-61722000D03*
%TO.P,J4,3,Pin_3*%
%TO.N,Net-(J4-Pin_3)*%
X154940000Y-64262000D03*
%TO.P,J4,4,Pin_4*%
%TO.N,~{CS}*%
X154940000Y-66802000D03*
%TO.P,J4,5,Pin_5*%
%TO.N,MOSI*%
X154940000Y-69342000D03*
%TO.P,J4,6,Pin_6*%
%TO.N,MISO*%
X154940000Y-71882000D03*
%TO.P,J4,7,Pin_7*%
%TO.N,SCK*%
X154940000Y-74422000D03*
%TD*%
D25*
%TO.P,C4,1*%
%TO.N,+5V*%
X105116600Y-87249000D03*
D10*
%TO.P,C4,2*%
%TO.N,GND*%
X107616600Y-87249000D03*
%TD*%
D25*
%TO.P,U3,1,~{CS}*%
%TO.N,~{CS}*%
X140091000Y-56906000D03*
D11*
%TO.P,U3,2,MISO*%
%TO.N,MISO*%
X140091000Y-59446000D03*
%TO.P,U3,3,~{WP}*%
%TO.N,Net-(U3-~{WP})*%
X140091000Y-61986000D03*
%TO.P,U3,4,GND*%
%TO.N,GND*%
X140091000Y-64526000D03*
%TO.P,U3,5,MOSI*%
%TO.N,MOSI*%
X147711000Y-64526000D03*
%TO.P,U3,6,SCK*%
%TO.N,SCK*%
X147711000Y-61986000D03*
%TO.P,U3,7,~{HOLD}*%
%TO.N,Net-(U3-~{HOLD})*%
X147711000Y-59446000D03*
%TO.P,U3,8,VCC*%
%TO.N,+5V*%
X147711000Y-56906000D03*
%TD*%
D26*
%TO.P,C2,1*%
%TO.N,Net-(U1-XTAL1)*%
X148082000Y-87737000D03*
%TO.P,C2,2*%
%TO.N,GND*%
X148082000Y-85237000D03*
%TD*%
D10*
%TO.P,R2,1*%
%TO.N,+5V*%
X96520000Y-79248000D03*
D11*
%TO.P,R2,2*%
%TO.N,Net-(D1-A)*%
X96520000Y-69088000D03*
%TD*%
D21*
%TO.P,D1,1,K*%
%TO.N,GND*%
X96520000Y-61844000D03*
D22*
%TO.P,D1,2,A*%
%TO.N,Net-(D1-A)*%
X96520000Y-64384000D03*
%TD*%
D27*
%TO.P,BZ1,1,+*%
%TO.N,Net-(BZ1-+)*%
X136704000Y-75057000D03*
%TO.P,BZ1,2,-*%
%TO.N,GND*%
X143204000Y-75057000D03*
%TD*%
D10*
%TO.P,R5,1*%
%TO.N,+5V*%
X113284000Y-85598000D03*
D11*
%TO.P,R5,2*%
%TO.N,Net-(U3-~{HOLD})*%
X123444000Y-85598000D03*
%TD*%
D25*
%TO.P,U1,1,PB0*%
%TO.N,Clock*%
X158496000Y-56642000D03*
D11*
%TO.P,U1,2,PB1*%
%TO.N,Net-(J4-Pin_1)*%
X158496000Y-59182000D03*
%TO.P,U1,3,PB2*%
%TO.N,Net-(J4-Pin_2)*%
X158496000Y-61722000D03*
%TO.P,U1,4,PB3*%
%TO.N,Net-(J4-Pin_3)*%
X158496000Y-64262000D03*
%TO.P,U1,5,PB4*%
%TO.N,~{CS}*%
X158496000Y-66802000D03*
%TO.P,U1,6,PB5*%
%TO.N,MOSI*%
X158496000Y-69342000D03*
%TO.P,U1,7,PB6*%
%TO.N,MISO*%
X158496000Y-71882000D03*
%TO.P,U1,8,PB7*%
%TO.N,SCK*%
X158496000Y-74422000D03*
%TO.P,U1,9,~{RESET}*%
%TO.N,RESET*%
X158496000Y-76962000D03*
%TO.P,U1,10,VCC*%
%TO.N,+5V*%
X158496000Y-79502000D03*
%TO.P,U1,11,GND*%
%TO.N,GND*%
X158496000Y-82042000D03*
%TO.P,U1,12,XTAL2*%
%TO.N,Net-(U1-XTAL2)*%
X158496000Y-84582000D03*
%TO.P,U1,13,XTAL1*%
%TO.N,Net-(U1-XTAL1)*%
X158496000Y-87122000D03*
%TO.P,U1,14,PD0*%
%TO.N,Data*%
X158496000Y-89662000D03*
%TO.P,U1,15,PD1*%
%TO.N,Net-(J7-Pin_1)*%
X158496000Y-92202000D03*
%TO.P,U1,16,PD2*%
%TO.N,Net-(J7-Pin_2)*%
X158496000Y-94742000D03*
%TO.P,U1,17,PD3*%
%TO.N,Net-(J7-Pin_3)*%
X158496000Y-97282000D03*
%TO.P,U1,18,PD4*%
%TO.N,Net-(J7-Pin_4)*%
X158496000Y-99822000D03*
%TO.P,U1,19,PD5*%
%TO.N,Sync*%
X158496000Y-102362000D03*
%TO.P,U1,20,PD6*%
%TO.N,Net-(J7-Pin_5)*%
X158496000Y-104902000D03*
%TO.P,U1,21,PD7*%
%TO.N,Net-(J7-Pin_6)*%
X173736000Y-104902000D03*
%TO.P,U1,22,PC0*%
%TO.N,Net-(J6-Pin_1)*%
X173736000Y-102362000D03*
%TO.P,U1,23,PC1*%
%TO.N,Net-(J6-Pin_2)*%
X173736000Y-99822000D03*
%TO.P,U1,24,PC2*%
%TO.N,Net-(J6-Pin_3)*%
X173736000Y-97282000D03*
%TO.P,U1,25,PC3*%
%TO.N,Net-(J6-Pin_4)*%
X173736000Y-94742000D03*
%TO.P,U1,26,PC4*%
%TO.N,Net-(J6-Pin_5)*%
X173736000Y-92202000D03*
%TO.P,U1,27,PC5*%
%TO.N,Net-(J6-Pin_6)*%
X173736000Y-89662000D03*
%TO.P,U1,28,PC6*%
%TO.N,Net-(J6-Pin_7)*%
X173736000Y-87122000D03*
%TO.P,U1,29,PC7*%
%TO.N,Net-(J6-Pin_8)*%
X173736000Y-84582000D03*
%TO.P,U1,30,AVCC*%
%TO.N,+5V*%
X173736000Y-82042000D03*
%TO.P,U1,31,GND*%
%TO.N,GND*%
X173736000Y-79502000D03*
%TO.P,U1,32,AREF*%
%TO.N,unconnected-(U1-AREF-Pad32)*%
X173736000Y-76962000D03*
%TO.P,U1,33,PA7*%
%TO.N,Video*%
X173736000Y-74422000D03*
%TO.P,U1,34,PA6*%
%TO.N,Net-(J5-Pin_7)*%
X173736000Y-71882000D03*
%TO.P,U1,35,PA5*%
%TO.N,Net-(J5-Pin_6)*%
X173736000Y-69342000D03*
%TO.P,U1,36,PA4*%
%TO.N,Net-(J5-Pin_5)*%
X173736000Y-66802000D03*
%TO.P,U1,37,PA3*%
%TO.N,Net-(J5-Pin_4)*%
X173736000Y-64262000D03*
%TO.P,U1,38,PA2*%
%TO.N,Net-(J5-Pin_3)*%
X173736000Y-61722000D03*
%TO.P,U1,39,PA1*%
%TO.N,Net-(J5-Pin_2)*%
X173736000Y-59182000D03*
%TO.P,U1,40,PA0*%
%TO.N,Net-(J5-Pin_1)*%
X173736000Y-56642000D03*
%TD*%
D23*
%TO.P,J9,1,Pin_1*%
%TO.N,+5V*%
X111008000Y-59944000D03*
D24*
%TO.P,J9,2,Pin_2*%
%TO.N,GND*%
X111008000Y-57404000D03*
%TO.P,J9,3,Pin_3*%
%TO.N,+5V*%
X113548000Y-59944000D03*
%TO.P,J9,4,Pin_4*%
%TO.N,GND*%
X113548000Y-57404000D03*
%TO.P,J9,5,Pin_5*%
%TO.N,+5V*%
X116088000Y-59944000D03*
%TO.P,J9,6,Pin_6*%
%TO.N,GND*%
X116088000Y-57404000D03*
%TO.P,J9,7,Pin_7*%
%TO.N,+5V*%
X118628000Y-59944000D03*
%TO.P,J9,8,Pin_8*%
%TO.N,GND*%
X118628000Y-57404000D03*
%TD*%
D10*
%TO.P,R4,1*%
%TO.N,Net-(J3-Video)*%
X113284000Y-80772000D03*
D11*
%TO.P,R4,2*%
%TO.N,Sync*%
X123444000Y-80772000D03*
%TD*%
D26*
%TO.P,C1,1*%
%TO.N,Net-(U1-XTAL2)*%
X148082000Y-78379000D03*
%TO.P,C1,2*%
%TO.N,GND*%
X148082000Y-80879000D03*
%TD*%
D28*
%TO.P,S2,1*%
%TO.N,unconnected-(S2-Pad1)*%
X94520000Y-82590000D03*
D27*
%TO.P,S2,2*%
%TO.N,unconnected-(S2-Pad2)*%
X96520000Y-82590000D03*
%TO.P,S2,3*%
%TO.N,unconnected-(S2-Pad3)*%
X98520000Y-82590000D03*
%TO.P,S2,4*%
%TO.N,unconnected-(S2-Pad4)*%
X94520000Y-87590000D03*
%TO.P,S2,5*%
%TO.N,/POWER IN*%
X96520000Y-87590000D03*
%TO.P,S2,6*%
%TO.N,/POWER IN 2*%
X98520000Y-87590000D03*
%TD*%
D25*
%TO.P,C5,1*%
%TO.N,+5V*%
X179070000Y-80049400D03*
D10*
%TO.P,C5,2*%
%TO.N,GND*%
X179070000Y-77549400D03*
%TD*%
D29*
%TO.P,J3,1,Shield*%
%TO.N,GND*%
X142113000Y-104087000D03*
%TO.P,J3,2,Video*%
%TO.N,Net-(J3-Video)*%
X137113000Y-99587000D03*
X147113000Y-99587000D03*
%TD*%
D23*
%TO.P,J5,1,Pin_1*%
%TO.N,Net-(J5-Pin_1)*%
X177292000Y-56642000D03*
D24*
%TO.P,J5,2,Pin_2*%
%TO.N,Net-(J5-Pin_2)*%
X177292000Y-59182000D03*
%TO.P,J5,3,Pin_3*%
%TO.N,Net-(J5-Pin_3)*%
X177292000Y-61722000D03*
%TO.P,J5,4,Pin_4*%
%TO.N,Net-(J5-Pin_4)*%
X177292000Y-64262000D03*
%TO.P,J5,5,Pin_5*%
%TO.N,Net-(J5-Pin_5)*%
X177292000Y-66802000D03*
%TO.P,J5,6,Pin_6*%
%TO.N,Net-(J5-Pin_6)*%
X177292000Y-69342000D03*
%TO.P,J5,7,Pin_7*%
%TO.N,Net-(J5-Pin_7)*%
X177292000Y-71882000D03*
%TD*%
D28*
%TO.P,S3,1*%
%TO.N,Net-(J7-Pin_6)*%
X128778000Y-75057000D03*
D27*
%TO.P,S3,2*%
%TO.N,Net-(R7-Pad1)*%
X128778000Y-77597000D03*
%TO.P,S3,3*%
%TO.N,unconnected-(S3-Pad3)*%
X128778000Y-72517000D03*
%TD*%
D23*
%TO.P,J8,1,Pin_1*%
%TO.N,MOSI*%
X124338000Y-59949000D03*
D24*
%TO.P,J8,2,Pin_2*%
%TO.N,unconnected-(J8-Pin_2-Pad2)*%
X124338000Y-57409000D03*
%TO.P,J8,3,Pin_3*%
%TO.N,unconnected-(J8-Pin_3-Pad3)*%
X126878000Y-59949000D03*
%TO.P,J8,4,Pin_4*%
%TO.N,GND*%
X126878000Y-57409000D03*
%TO.P,J8,5,Pin_5*%
%TO.N,RESET*%
X129418000Y-59949000D03*
%TO.P,J8,6,Pin_6*%
%TO.N,GND*%
X129418000Y-57409000D03*
%TO.P,J8,7,Pin_7*%
%TO.N,SCK*%
X131958000Y-59949000D03*
%TO.P,J8,8,Pin_8*%
%TO.N,GND*%
X131958000Y-57409000D03*
%TO.P,J8,9,Pin_9*%
%TO.N,MISO*%
X134498000Y-59949000D03*
%TO.P,J8,10,Pin_10*%
%TO.N,GND*%
X134498000Y-57409000D03*
%TD*%
D30*
%TO.P,Y1,1,1*%
%TO.N,Net-(U1-XTAL2)*%
X153924000Y-80608000D03*
%TO.P,Y1,2,2*%
%TO.N,Net-(U1-XTAL1)*%
X153924000Y-85488000D03*
%TD*%
D31*
%TO.N,Net-(BZ1-+)*%
X136704000Y-75057000D02*
X126760700Y-65113700D01*
X113284000Y-66294000D02*
X114410900Y-66294000D01*
X115591200Y-65113700D02*
X114410900Y-66294000D01*
X126760700Y-65113700D02*
X115591200Y-65113700D01*
%TO.N,Net-(U1-XTAL2)*%
X150311000Y-80608000D02*
X148082000Y-78379000D01*
X154522000Y-80608000D02*
X153924000Y-80608000D01*
X153924000Y-80608000D02*
X150311000Y-80608000D01*
X158496000Y-84582000D02*
X154522000Y-80608000D01*
%TO.N,Net-(U1-XTAL1)*%
X148082000Y-87737000D02*
X150331000Y-85488000D01*
X156862000Y-85488000D02*
X158496000Y-87122000D01*
X150331000Y-85488000D02*
X153924000Y-85488000D01*
X153924000Y-85488000D02*
X156862000Y-85488000D01*
D32*
%TO.N,/POWER IN*%
X103654000Y-94812600D02*
X103654000Y-94724000D01*
%TO.N,+5V*%
X147711000Y-57033000D02*
X152654000Y-61976000D01*
X122916000Y-55656000D02*
X146461000Y-55656000D01*
X113284000Y-85598000D02*
X106768000Y-85598000D01*
X156972000Y-79502000D02*
X158496000Y-79502000D01*
X116088000Y-59944000D02*
X118628000Y-59944000D01*
X152654000Y-61976000D02*
X152654000Y-75184000D01*
X96266000Y-93472000D02*
X98893600Y-93472000D01*
X173736000Y-82042000D02*
X161036000Y-82042000D01*
X105916400Y-86449200D02*
X105116600Y-87249000D01*
X113284000Y-85598000D02*
X113284000Y-90424000D01*
X105916800Y-86449200D02*
X105916400Y-86449200D01*
X152654000Y-75184000D02*
X156972000Y-79502000D01*
X111008000Y-59944000D02*
X113548000Y-59944000D01*
X147711000Y-56906000D02*
X147711000Y-57033000D01*
X113548000Y-59944000D02*
X116088000Y-59944000D01*
X105117000Y-87249000D02*
X97115600Y-79248000D01*
X146461000Y-55656000D02*
X147711000Y-56906000D01*
X105916800Y-86449200D02*
X105117000Y-87249000D01*
X118628000Y-59944000D02*
X122916000Y-55656000D01*
X161036000Y-82042000D02*
X158496000Y-79502000D01*
X179070000Y-80049400D02*
X175729000Y-80049400D01*
X175729000Y-80049400D02*
X173736000Y-82042000D01*
X97115600Y-79248000D02*
X96520000Y-79248000D01*
X98893600Y-93472000D02*
X105117000Y-87249000D01*
X106768000Y-85598000D02*
X105916800Y-86449200D01*
D31*
%TO.N,Net-(D1-A)*%
X96520000Y-64511000D02*
X96520000Y-64384000D01*
X96520000Y-69088000D02*
X96520000Y-64511000D01*
X96520000Y-64511000D02*
X96647000Y-64384000D01*
D32*
%TO.N,/POWER IN 2*%
X96266000Y-98552000D02*
X94488000Y-96774000D01*
X94488000Y-96774000D02*
X94488000Y-91622000D01*
X94488000Y-91622000D02*
X98520000Y-87590000D01*
D31*
%TO.N,Data*%
X150116500Y-99655800D02*
X143514500Y-106257800D01*
X129441900Y-106257800D02*
X123982000Y-100797900D01*
X155256300Y-89662000D02*
X150116500Y-94801800D01*
X123982000Y-99772000D02*
X123982000Y-100797900D01*
X143514500Y-106257800D02*
X129441900Y-106257800D01*
X158496000Y-89662000D02*
X155256300Y-89662000D01*
X150116500Y-94801800D02*
X150116500Y-99655800D01*
%TO.N,Net-(J4-Pin_1)*%
X154940000Y-59182000D02*
X158496000Y-59182000D01*
%TO.N,Net-(J4-Pin_2)*%
X154940000Y-61722000D02*
X158496000Y-61722000D01*
%TO.N,Net-(J4-Pin_3)*%
X154940000Y-64262000D02*
X158496000Y-64262000D01*
%TO.N,~{CS}*%
X154940000Y-66802000D02*
X158496000Y-66802000D01*
%TO.N,MOSI*%
X130175000Y-65786000D02*
X146451000Y-65786000D01*
X154940000Y-69342000D02*
X158496000Y-69342000D01*
X124338000Y-59949000D02*
X130175000Y-65786000D01*
X146451000Y-65786000D02*
X147711000Y-64526000D01*
%TO.N,MISO*%
X154940000Y-71882000D02*
X158496000Y-71882000D01*
X134498000Y-59949000D02*
X139588000Y-59949000D01*
X139588000Y-59949000D02*
X140091000Y-59446000D01*
%TO.N,SCK*%
X146451000Y-63246000D02*
X147711000Y-61986000D01*
X131958000Y-59949000D02*
X135255000Y-63246000D01*
X154940000Y-74422000D02*
X158496000Y-74422000D01*
X135255000Y-63246000D02*
X146451000Y-63246000D01*
%TO.N,Net-(J5-Pin_1)*%
X173736000Y-56642000D02*
X177292000Y-56642000D01*
%TO.N,Net-(J5-Pin_2)*%
X173736000Y-59182000D02*
X177292000Y-59182000D01*
%TO.N,Net-(J5-Pin_3)*%
X173736000Y-61722000D02*
X177292000Y-61722000D01*
%TO.N,Net-(J5-Pin_4)*%
X173736000Y-64262000D02*
X177292000Y-64262000D01*
%TO.N,Net-(J5-Pin_5)*%
X173736000Y-66802000D02*
X177292000Y-66802000D01*
%TO.N,Net-(J5-Pin_6)*%
X173736000Y-69342000D02*
X177292000Y-69342000D01*
%TO.N,Net-(J5-Pin_7)*%
X173736000Y-71882000D02*
X177292000Y-71882000D01*
%TO.N,Net-(J6-Pin_1)*%
X173736000Y-102362000D02*
X177292000Y-102362000D01*
%TO.N,Net-(J6-Pin_2)*%
X173736000Y-99822000D02*
X177292000Y-99822000D01*
%TO.N,Net-(J6-Pin_3)*%
X173736000Y-97282000D02*
X177292000Y-97282000D01*
%TO.N,Net-(J6-Pin_4)*%
X173736000Y-94742000D02*
X177292000Y-94742000D01*
%TO.N,Net-(J6-Pin_5)*%
X173736000Y-92202000D02*
X177292000Y-92202000D01*
%TO.N,Net-(J6-Pin_6)*%
X173736000Y-89662000D02*
X177292000Y-89662000D01*
%TO.N,Net-(J6-Pin_7)*%
X173736000Y-87122000D02*
X177292000Y-87122000D01*
%TO.N,Net-(J6-Pin_8)*%
X173736000Y-84582000D02*
X177292000Y-84582000D01*
%TO.N,Net-(J7-Pin_1)*%
X154940000Y-92181600D02*
X158476000Y-92181600D01*
X158476000Y-92181600D02*
X158496000Y-92202000D01*
%TO.N,Net-(J7-Pin_2)*%
X154940000Y-94721600D02*
X158476000Y-94721600D01*
X158476000Y-94721600D02*
X158496000Y-94742000D01*
%TO.N,Net-(J7-Pin_3)*%
X158476000Y-97261600D02*
X158496000Y-97282000D01*
X154940000Y-97261600D02*
X158476000Y-97261600D01*
%TO.N,Net-(J7-Pin_4)*%
X158476000Y-99801600D02*
X158496000Y-99822000D01*
X154940000Y-99801600D02*
X158476000Y-99801600D01*
%TO.N,Net-(J7-Pin_5)*%
X154940000Y-102341600D02*
X154940000Y-102342000D01*
X154940000Y-102342000D02*
X157500000Y-104902000D01*
X157500000Y-104902000D02*
X158496000Y-104902000D01*
%TO.N,Net-(J7-Pin_6)*%
X173736000Y-104902000D02*
X171704000Y-106934000D01*
X154940000Y-104882000D02*
X154940000Y-104881600D01*
X171704000Y-106934000D02*
X156992000Y-106934000D01*
X156992000Y-106934000D02*
X154940000Y-104882000D01*
%TO.N,RESET*%
X120904000Y-68580000D02*
X123444000Y-71120000D01*
X109803000Y-66115000D02*
X112268000Y-68580000D01*
X109803000Y-64760500D02*
X109803000Y-66115000D01*
X112268000Y-68580000D02*
X120904000Y-68580000D01*
%TO.N,Net-(U3-~{HOLD})*%
X147711000Y-59446000D02*
X147711000Y-60572900D01*
X128275300Y-85598000D02*
X148860400Y-65012900D01*
X148860400Y-61488800D02*
X147944500Y-60572900D01*
X148860400Y-65012900D02*
X148860400Y-61488800D01*
X147944500Y-60572900D02*
X147711000Y-60572900D01*
X123444000Y-85598000D02*
X128275300Y-85598000D01*
%TO.N,Net-(R7-Pad1)*%
X128778000Y-77597000D02*
X126416900Y-75235900D01*
X126416900Y-69266900D02*
X123444000Y-66294000D01*
X126416900Y-75235900D02*
X126416900Y-69266900D01*
%TO.N,Net-(D2-A)*%
X127254000Y-87249000D02*
X128380900Y-87249000D01*
X129509200Y-88377300D02*
X128380900Y-87249000D01*
X141224000Y-87249000D02*
X140095700Y-88377300D01*
X140095700Y-88377300D02*
X129509200Y-88377300D01*
%TO.N,Net-(J3-Video)*%
X135401000Y-99587000D02*
X137113000Y-99587000D01*
X120396000Y-87884000D02*
X123698000Y-87884000D01*
X113284000Y-80772000D02*
X120396000Y-87884000D01*
X123698000Y-87884000D02*
X135401000Y-99587000D01*
X113284000Y-75946000D02*
X113284000Y-80772000D01*
X137113000Y-99587000D02*
X147113000Y-99587000D01*
%TD*%
%TA.AperFunction,Conductor*%
%TO.N,GND*%
G36*
X110604809Y-55899685D02*
G01*
X110650564Y-55952489D01*
X110660508Y-56021647D01*
X110631483Y-56085203D01*
X110572705Y-56122977D01*
X110569864Y-56123775D01*
X110544513Y-56130567D01*
X110544507Y-56130570D01*
X110330422Y-56230399D01*
X110330420Y-56230400D01*
X110136926Y-56365886D01*
X110136920Y-56365891D01*
X109969891Y-56532920D01*
X109969886Y-56532926D01*
X109834400Y-56726420D01*
X109834399Y-56726422D01*
X109734570Y-56940507D01*
X109734567Y-56940513D01*
X109677364Y-57153999D01*
X109677364Y-57154000D01*
X110574314Y-57154000D01*
X110548507Y-57194156D01*
X110508000Y-57332111D01*
X110508000Y-57475889D01*
X110548507Y-57613844D01*
X110574314Y-57654000D01*
X109677364Y-57654000D01*
X109734567Y-57867486D01*
X109734570Y-57867492D01*
X109834399Y-58081578D01*
X109969894Y-58275082D01*
X110091946Y-58397134D01*
X110125431Y-58458457D01*
X110120447Y-58528149D01*
X110078575Y-58584082D01*
X110047598Y-58600997D01*
X109915671Y-58650202D01*
X109915664Y-58650206D01*
X109800455Y-58736452D01*
X109800452Y-58736455D01*
X109714206Y-58851664D01*
X109714202Y-58851671D01*
X109663908Y-58986517D01*
X109657501Y-59046116D01*
X109657500Y-59046135D01*
X109657500Y-60841870D01*
X109657501Y-60841876D01*
X109663908Y-60901483D01*
X109714202Y-61036328D01*
X109714206Y-61036335D01*
X109800452Y-61151544D01*
X109800455Y-61151547D01*
X109915664Y-61237793D01*
X109915671Y-61237797D01*
X110050517Y-61288091D01*
X110050516Y-61288091D01*
X110057444Y-61288835D01*
X110110127Y-61294500D01*
X111905872Y-61294499D01*
X111965483Y-61288091D01*
X112100331Y-61237796D01*
X112215546Y-61151546D01*
X112301796Y-61036331D01*
X112350810Y-60904916D01*
X112392681Y-60848984D01*
X112458145Y-60824566D01*
X112526418Y-60839417D01*
X112554673Y-60860569D01*
X112676599Y-60982495D01*
X112760631Y-61041335D01*
X112870165Y-61118032D01*
X112870167Y-61118033D01*
X112870170Y-61118035D01*
X113084337Y-61217903D01*
X113084343Y-61217904D01*
X113084344Y-61217905D01*
X113102990Y-61222901D01*
X113312592Y-61279063D01*
X113489034Y-61294500D01*
X113547999Y-61299659D01*
X113548000Y-61299659D01*
X113548001Y-61299659D01*
X113606966Y-61294500D01*
X113783408Y-61279063D01*
X114011663Y-61217903D01*
X114225830Y-61118035D01*
X114419401Y-60982495D01*
X114586495Y-60815401D01*
X114634127Y-60747376D01*
X114688704Y-60703751D01*
X114735701Y-60694500D01*
X114900299Y-60694500D01*
X114967338Y-60714185D01*
X115001873Y-60747376D01*
X115049505Y-60815401D01*
X115216599Y-60982495D01*
X115300631Y-61041335D01*
X115410165Y-61118032D01*
X115410167Y-61118033D01*
X115410170Y-61118035D01*
X115624337Y-61217903D01*
X115624343Y-61217904D01*
X115624344Y-61217905D01*
X115642990Y-61222901D01*
X115852592Y-61279063D01*
X116029034Y-61294500D01*
X116087999Y-61299659D01*
X116088000Y-61299659D01*
X116088001Y-61299659D01*
X116146966Y-61294500D01*
X116323408Y-61279063D01*
X116551663Y-61217903D01*
X116765830Y-61118035D01*
X116959401Y-60982495D01*
X117126495Y-60815401D01*
X117174127Y-60747376D01*
X117228704Y-60703751D01*
X117275701Y-60694500D01*
X117440299Y-60694500D01*
X117507338Y-60714185D01*
X117541873Y-60747376D01*
X117589505Y-60815401D01*
X117756599Y-60982495D01*
X117840631Y-61041335D01*
X117950165Y-61118032D01*
X117950167Y-61118033D01*
X117950170Y-61118035D01*
X118164337Y-61217903D01*
X118164343Y-61217904D01*
X118164344Y-61217905D01*
X118182990Y-61222901D01*
X118392592Y-61279063D01*
X118569034Y-61294500D01*
X118627999Y-61299659D01*
X118628000Y-61299659D01*
X118628001Y-61299659D01*
X118686966Y-61294500D01*
X118863408Y-61279063D01*
X119091663Y-61217903D01*
X119305830Y-61118035D01*
X119499401Y-60982495D01*
X119666495Y-60815401D01*
X119802035Y-60621830D01*
X119901903Y-60407663D01*
X119963063Y-60179408D01*
X119983659Y-59944000D01*
X119965022Y-59730985D01*
X119978788Y-59662486D01*
X120000866Y-59632500D01*
X122895417Y-56737949D01*
X122956739Y-56704466D01*
X123026431Y-56709450D01*
X123082364Y-56751322D01*
X123106781Y-56816786D01*
X123095480Y-56878036D01*
X123064096Y-56945339D01*
X123064094Y-56945344D01*
X123002938Y-57173586D01*
X123002936Y-57173596D01*
X122982341Y-57408999D01*
X122982341Y-57409000D01*
X123002936Y-57644403D01*
X123002938Y-57644413D01*
X123064094Y-57872655D01*
X123064096Y-57872659D01*
X123064097Y-57872663D01*
X123153108Y-58063547D01*
X123163965Y-58086830D01*
X123163967Y-58086834D01*
X123264633Y-58230599D01*
X123299501Y-58280396D01*
X123299506Y-58280402D01*
X123421430Y-58402326D01*
X123454915Y-58463649D01*
X123449931Y-58533341D01*
X123408059Y-58589274D01*
X123377083Y-58606189D01*
X123245669Y-58655203D01*
X123245664Y-58655206D01*
X123130455Y-58741452D01*
X123130452Y-58741455D01*
X123044206Y-58856664D01*
X123044202Y-58856671D01*
X122993908Y-58991517D01*
X122987501Y-59051116D01*
X122987500Y-59051135D01*
X122987500Y-60846870D01*
X122987501Y-60846876D01*
X122993908Y-60906483D01*
X123044202Y-61041328D01*
X123044206Y-61041335D01*
X123130452Y-61156544D01*
X123130455Y-61156547D01*
X123245664Y-61242793D01*
X123245671Y-61242797D01*
X123380517Y-61293091D01*
X123380516Y-61293091D01*
X123387444Y-61293835D01*
X123440127Y-61299500D01*
X124752547Y-61299499D01*
X124819586Y-61319184D01*
X124840228Y-61335818D01*
X129674194Y-66169784D01*
X129684019Y-66182048D01*
X129684240Y-66181866D01*
X129689210Y-66187874D01*
X129738239Y-66233915D01*
X129741036Y-66236626D01*
X129760530Y-66256120D01*
X129763695Y-66258575D01*
X129772571Y-66266156D01*
X129804418Y-66296062D01*
X129804422Y-66296064D01*
X129821973Y-66305713D01*
X129838231Y-66316392D01*
X129854064Y-66328674D01*
X129889410Y-66343968D01*
X129894155Y-66346022D01*
X129904635Y-66351155D01*
X129942908Y-66372197D01*
X129962312Y-66377179D01*
X129980710Y-66383478D01*
X129999105Y-66391438D01*
X130042254Y-66398271D01*
X130053680Y-66400638D01*
X130095981Y-66411500D01*
X130116016Y-66411500D01*
X130135413Y-66413026D01*
X130155196Y-66416160D01*
X130198675Y-66412050D01*
X130210344Y-66411500D01*
X146277847Y-66411500D01*
X146344886Y-66431185D01*
X146390641Y-66483989D01*
X146400585Y-66553147D01*
X146371560Y-66616703D01*
X146365528Y-66623181D01*
X138056014Y-74932694D01*
X137994691Y-74966179D01*
X137924999Y-74961195D01*
X137869066Y-74919323D01*
X137844862Y-74856451D01*
X137843712Y-74844045D01*
X137843704Y-74843952D01*
X137821039Y-74764292D01*
X137785153Y-74638164D01*
X137785150Y-74638158D01*
X137689781Y-74446630D01*
X137560841Y-74275886D01*
X137402722Y-74131742D01*
X137402716Y-74131738D01*
X137402713Y-74131736D01*
X137220813Y-74019108D01*
X137220807Y-74019106D01*
X137021297Y-73941815D01*
X136810980Y-73902500D01*
X136597020Y-73902500D01*
X136565967Y-73908304D01*
X136523997Y-73916150D01*
X136454482Y-73909118D01*
X136413532Y-73881942D01*
X131846287Y-69314697D01*
X127261503Y-64729912D01*
X127251680Y-64717650D01*
X127251459Y-64717834D01*
X127246486Y-64711822D01*
X127197476Y-64665799D01*
X127194677Y-64663086D01*
X127175177Y-64643585D01*
X127175171Y-64643580D01*
X127171986Y-64641109D01*
X127163134Y-64633548D01*
X127131282Y-64603638D01*
X127131280Y-64603636D01*
X127131277Y-64603635D01*
X127113729Y-64593988D01*
X127097463Y-64583304D01*
X127081632Y-64571024D01*
X127041549Y-64553678D01*
X127031063Y-64548541D01*
X126992794Y-64527503D01*
X126992792Y-64527502D01*
X126973393Y-64522522D01*
X126954981Y-64516218D01*
X126936598Y-64508262D01*
X126936592Y-64508260D01*
X126893460Y-64501429D01*
X126882022Y-64499061D01*
X126839720Y-64488200D01*
X126839719Y-64488200D01*
X126819684Y-64488200D01*
X126800286Y-64486673D01*
X126792862Y-64485497D01*
X126780505Y-64483540D01*
X126780504Y-64483540D01*
X126737025Y-64487650D01*
X126725356Y-64488200D01*
X115673937Y-64488200D01*
X115658320Y-64486476D01*
X115658293Y-64486762D01*
X115650531Y-64486027D01*
X115583344Y-64488139D01*
X115579450Y-64488200D01*
X115551850Y-64488200D01*
X115548162Y-64488665D01*
X115547849Y-64488705D01*
X115536231Y-64489618D01*
X115492573Y-64490990D01*
X115492572Y-64490990D01*
X115473329Y-64496581D01*
X115454279Y-64500525D01*
X115434411Y-64503034D01*
X115434410Y-64503035D01*
X115393800Y-64519113D01*
X115382753Y-64522895D01*
X115340810Y-64535081D01*
X115340809Y-64535082D01*
X115323567Y-64545279D01*
X115306099Y-64553837D01*
X115287469Y-64561213D01*
X115287466Y-64561215D01*
X115252139Y-64586881D01*
X115242380Y-64593292D01*
X115204779Y-64615530D01*
X115190608Y-64629700D01*
X115175823Y-64642328D01*
X115159612Y-64654107D01*
X115131771Y-64687759D01*
X115123911Y-64696396D01*
X114412428Y-65407879D01*
X114351105Y-65441364D01*
X114281413Y-65436380D01*
X114237066Y-65407879D01*
X114123141Y-65293954D01*
X113936734Y-65163432D01*
X113936732Y-65163431D01*
X113730497Y-65067261D01*
X113730488Y-65067258D01*
X113510697Y-65008366D01*
X113510693Y-65008365D01*
X113510692Y-65008365D01*
X113510691Y-65008364D01*
X113510686Y-65008364D01*
X113284002Y-64988532D01*
X113283998Y-64988532D01*
X113057313Y-65008364D01*
X113057302Y-65008366D01*
X112837511Y-65067258D01*
X112837502Y-65067261D01*
X112631267Y-65163431D01*
X112631265Y-65163432D01*
X112444858Y-65293954D01*
X112283954Y-65454858D01*
X112153432Y-65641265D01*
X112153431Y-65641267D01*
X112057261Y-65847502D01*
X112057258Y-65847511D01*
X111998366Y-66067302D01*
X111998364Y-66067313D01*
X111978532Y-66293998D01*
X111978532Y-66294001D01*
X111998364Y-66520686D01*
X111998366Y-66520697D01*
X112057258Y-66740488D01*
X112057261Y-66740497D01*
X112153431Y-66946732D01*
X112153432Y-66946734D01*
X112283954Y-67133141D01*
X112444858Y-67294045D01*
X112444861Y-67294047D01*
X112631266Y-67424568D01*
X112837504Y-67520739D01*
X113057308Y-67579635D01*
X113214791Y-67593413D01*
X113283998Y-67599468D01*
X113284000Y-67599468D01*
X113284002Y-67599468D01*
X113340673Y-67594509D01*
X113510692Y-67579635D01*
X113730496Y-67520739D01*
X113936734Y-67424568D01*
X114123139Y-67294047D01*
X114284047Y-67133139D01*
X114398312Y-66969949D01*
X114452888Y-66926325D01*
X114495993Y-66917134D01*
X114509527Y-66916709D01*
X114528769Y-66911117D01*
X114547812Y-66907174D01*
X114567692Y-66904664D01*
X114608301Y-66888585D01*
X114619344Y-66884803D01*
X114661290Y-66872618D01*
X114678529Y-66862422D01*
X114696003Y-66853862D01*
X114714627Y-66846488D01*
X114714627Y-66846487D01*
X114714632Y-66846486D01*
X114749983Y-66820800D01*
X114759714Y-66814408D01*
X114797320Y-66792170D01*
X114811489Y-66777999D01*
X114826279Y-66765368D01*
X114842487Y-66753594D01*
X114870338Y-66719926D01*
X114878179Y-66711309D01*
X115813972Y-65775519D01*
X115875295Y-65742034D01*
X115901653Y-65739200D01*
X122084681Y-65739200D01*
X122151720Y-65758885D01*
X122197475Y-65811689D01*
X122207419Y-65880847D01*
X122204456Y-65895293D01*
X122158366Y-66067302D01*
X122158364Y-66067313D01*
X122138532Y-66293998D01*
X122138532Y-66294001D01*
X122158364Y-66520686D01*
X122158366Y-66520697D01*
X122217258Y-66740488D01*
X122217261Y-66740497D01*
X122313431Y-66946732D01*
X122313432Y-66946734D01*
X122443954Y-67133141D01*
X122604858Y-67294045D01*
X122604861Y-67294047D01*
X122791266Y-67424568D01*
X122997504Y-67520739D01*
X123217308Y-67579635D01*
X123374791Y-67593413D01*
X123443998Y-67599468D01*
X123444000Y-67599468D01*
X123444002Y-67599468D01*
X123500673Y-67594509D01*
X123670692Y-67579635D01*
X123739048Y-67561319D01*
X123808897Y-67562982D01*
X123858822Y-67593413D01*
X125755081Y-69489671D01*
X125788566Y-69550994D01*
X125791400Y-69577352D01*
X125791400Y-75153155D01*
X125789675Y-75168772D01*
X125789961Y-75168799D01*
X125789226Y-75176565D01*
X125791339Y-75243772D01*
X125791400Y-75247667D01*
X125791400Y-75275257D01*
X125791903Y-75279235D01*
X125792818Y-75290867D01*
X125794190Y-75334524D01*
X125795005Y-75337331D01*
X125799780Y-75353767D01*
X125803724Y-75372811D01*
X125804795Y-75381285D01*
X125806236Y-75392692D01*
X125822314Y-75433303D01*
X125826097Y-75444352D01*
X125835245Y-75475840D01*
X125838282Y-75486290D01*
X125848361Y-75503334D01*
X125848480Y-75503534D01*
X125857038Y-75521003D01*
X125864414Y-75539632D01*
X125890081Y-75574960D01*
X125896493Y-75584721D01*
X125918728Y-75622317D01*
X125918733Y-75622324D01*
X125932890Y-75636480D01*
X125945528Y-75651276D01*
X125954891Y-75664164D01*
X125957306Y-75667487D01*
X125986937Y-75692000D01*
X125990957Y-75695325D01*
X125999598Y-75703188D01*
X127600702Y-77304292D01*
X127634187Y-77365615D01*
X127636492Y-77403414D01*
X127618554Y-77596999D01*
X127618554Y-77597000D01*
X127638295Y-77810047D01*
X127638296Y-77810050D01*
X127696846Y-78015835D01*
X127696849Y-78015841D01*
X127771515Y-78165791D01*
X127792219Y-78207370D01*
X127921159Y-78378114D01*
X128079278Y-78522258D01*
X128079283Y-78522261D01*
X128079286Y-78522263D01*
X128261186Y-78634891D01*
X128261187Y-78634891D01*
X128261190Y-78634893D01*
X128460703Y-78712185D01*
X128671020Y-78751500D01*
X128671022Y-78751500D01*
X128884978Y-78751500D01*
X128884980Y-78751500D01*
X129095297Y-78712185D01*
X129294810Y-78634893D01*
X129476722Y-78522258D01*
X129634841Y-78378114D01*
X129763781Y-78207370D01*
X129859151Y-78015840D01*
X129859151Y-78015837D01*
X129859153Y-78015835D01*
X129898643Y-77877041D01*
X129917704Y-77810048D01*
X129937446Y-77597000D01*
X129917704Y-77383952D01*
X129900302Y-77322789D01*
X129859153Y-77178164D01*
X129859150Y-77178158D01*
X129814888Y-77089267D01*
X129763781Y-76986630D01*
X129634841Y-76815886D01*
X129476722Y-76671742D01*
X129476716Y-76671738D01*
X129476713Y-76671736D01*
X129294813Y-76559108D01*
X129294807Y-76559106D01*
X129095297Y-76481815D01*
X128964619Y-76457387D01*
X128902340Y-76425720D01*
X128867067Y-76365407D01*
X128870001Y-76295599D01*
X128910210Y-76238459D01*
X128974928Y-76212128D01*
X128987406Y-76211499D01*
X129479871Y-76211499D01*
X129479872Y-76211499D01*
X129539483Y-76205091D01*
X129674331Y-76154796D01*
X129789546Y-76068546D01*
X129875796Y-75953331D01*
X129926091Y-75818483D01*
X129932500Y-75758873D01*
X129932499Y-74355128D01*
X129926091Y-74295517D01*
X129918769Y-74275887D01*
X129875797Y-74160671D01*
X129875793Y-74160664D01*
X129789547Y-74045455D01*
X129789544Y-74045452D01*
X129674335Y-73959206D01*
X129674328Y-73959202D01*
X129539482Y-73908908D01*
X129539483Y-73908908D01*
X129479883Y-73902501D01*
X129479881Y-73902500D01*
X129479873Y-73902500D01*
X129479865Y-73902500D01*
X128987409Y-73902500D01*
X128920370Y-73882815D01*
X128874615Y-73830011D01*
X128864671Y-73760853D01*
X128893696Y-73697297D01*
X128952474Y-73659523D01*
X128964605Y-73656615D01*
X129095297Y-73632185D01*
X129294810Y-73554893D01*
X129476722Y-73442258D01*
X129634841Y-73298114D01*
X129763781Y-73127370D01*
X129859151Y-72935840D01*
X129859151Y-72935837D01*
X129859153Y-72935835D01*
X129917703Y-72730050D01*
X129917704Y-72730047D01*
X129918530Y-72721139D01*
X129937446Y-72517000D01*
X129917704Y-72303952D01*
X129887686Y-72198449D01*
X129859153Y-72098164D01*
X129859150Y-72098158D01*
X129789927Y-71959139D01*
X129763781Y-71906630D01*
X129634841Y-71735886D01*
X129476722Y-71591742D01*
X129476716Y-71591738D01*
X129476713Y-71591736D01*
X129294813Y-71479108D01*
X129294807Y-71479106D01*
X129095297Y-71401815D01*
X128884980Y-71362500D01*
X128671020Y-71362500D01*
X128460703Y-71401815D01*
X128373747Y-71435502D01*
X128261192Y-71479106D01*
X128261186Y-71479108D01*
X128079286Y-71591736D01*
X128079283Y-71591738D01*
X128079279Y-71591740D01*
X128079278Y-71591742D01*
X128009544Y-71655313D01*
X127921158Y-71735887D01*
X127792219Y-71906629D01*
X127696849Y-72098158D01*
X127696846Y-72098164D01*
X127638296Y-72303949D01*
X127638295Y-72303952D01*
X127618554Y-72516999D01*
X127618554Y-72517000D01*
X127638295Y-72730047D01*
X127638296Y-72730050D01*
X127696846Y-72935835D01*
X127696849Y-72935841D01*
X127762231Y-73067145D01*
X127792219Y-73127370D01*
X127921159Y-73298114D01*
X128079278Y-73442258D01*
X128079283Y-73442261D01*
X128079286Y-73442263D01*
X128261186Y-73554891D01*
X128261187Y-73554891D01*
X128261190Y-73554893D01*
X128460703Y-73632185D01*
X128591379Y-73656612D01*
X128653657Y-73688279D01*
X128688930Y-73748591D01*
X128685996Y-73818399D01*
X128645788Y-73875540D01*
X128581069Y-73901871D01*
X128568591Y-73902500D01*
X128076129Y-73902500D01*
X128076123Y-73902501D01*
X128016516Y-73908908D01*
X127881671Y-73959202D01*
X127881664Y-73959206D01*
X127766455Y-74045452D01*
X127766452Y-74045455D01*
X127680206Y-74160664D01*
X127680202Y-74160671D01*
X127629908Y-74295517D01*
X127623501Y-74355116D01*
X127623501Y-74355123D01*
X127623500Y-74355135D01*
X127623500Y-75258547D01*
X127603815Y-75325586D01*
X127551011Y-75371341D01*
X127481853Y-75381285D01*
X127418297Y-75352260D01*
X127411819Y-75346228D01*
X127078719Y-75013128D01*
X127045234Y-74951805D01*
X127042400Y-74925447D01*
X127042400Y-69349637D01*
X127044124Y-69334023D01*
X127043838Y-69333996D01*
X127044572Y-69326233D01*
X127042461Y-69259043D01*
X127042400Y-69255149D01*
X127042400Y-69227551D01*
X127042400Y-69227550D01*
X127041897Y-69223570D01*
X127040980Y-69211921D01*
X127040826Y-69207027D01*
X127039609Y-69168272D01*
X127034020Y-69149037D01*
X127030074Y-69129984D01*
X127027564Y-69110108D01*
X127011478Y-69069481D01*
X127007703Y-69058454D01*
X126995517Y-69016510D01*
X126985321Y-68999269D01*
X126976760Y-68981793D01*
X126974487Y-68976051D01*
X126969386Y-68963168D01*
X126943709Y-68927826D01*
X126937312Y-68918090D01*
X126915070Y-68880479D01*
X126915067Y-68880476D01*
X126915065Y-68880473D01*
X126900905Y-68866313D01*
X126888270Y-68851520D01*
X126878882Y-68838600D01*
X126876494Y-68835313D01*
X126876493Y-68835312D01*
X126842845Y-68807476D01*
X126834204Y-68799613D01*
X124743413Y-66708822D01*
X124709928Y-66647499D01*
X124711319Y-66589048D01*
X124713130Y-66582288D01*
X124729635Y-66520692D01*
X124748443Y-66305713D01*
X124749468Y-66294001D01*
X124749468Y-66293998D01*
X124739673Y-66182048D01*
X124729635Y-66067308D01*
X124683544Y-65895293D01*
X124685207Y-65825443D01*
X124724370Y-65767581D01*
X124788598Y-65740077D01*
X124803319Y-65739200D01*
X126450248Y-65739200D01*
X126517287Y-65758885D01*
X126537929Y-65775519D01*
X135526702Y-74764292D01*
X135560187Y-74825615D01*
X135562492Y-74863414D01*
X135544554Y-75056999D01*
X135544554Y-75057000D01*
X135564295Y-75270047D01*
X135564296Y-75270050D01*
X135622846Y-75475835D01*
X135622849Y-75475841D01*
X135695785Y-75622317D01*
X135718219Y-75667370D01*
X135847159Y-75838114D01*
X136005278Y-75982258D01*
X136005283Y-75982261D01*
X136005286Y-75982263D01*
X136187186Y-76094891D01*
X136187187Y-76094891D01*
X136187190Y-76094893D01*
X136386703Y-76172185D01*
X136517593Y-76196652D01*
X136579872Y-76228319D01*
X136615145Y-76288631D01*
X136612212Y-76358439D01*
X136582487Y-76406221D01*
X128052528Y-84936181D01*
X127991205Y-84969666D01*
X127964847Y-84972500D01*
X124658188Y-84972500D01*
X124591149Y-84952815D01*
X124556613Y-84919623D01*
X124444045Y-84758858D01*
X124283141Y-84597954D01*
X124096734Y-84467432D01*
X124096732Y-84467431D01*
X123890497Y-84371261D01*
X123890488Y-84371258D01*
X123670697Y-84312366D01*
X123670693Y-84312365D01*
X123670692Y-84312365D01*
X123670691Y-84312364D01*
X123670686Y-84312364D01*
X123444002Y-84292532D01*
X123443998Y-84292532D01*
X123217313Y-84312364D01*
X123217302Y-84312366D01*
X122997511Y-84371258D01*
X122997502Y-84371261D01*
X122791267Y-84467431D01*
X122791265Y-84467432D01*
X122604858Y-84597954D01*
X122443954Y-84758858D01*
X122313432Y-84945265D01*
X122313431Y-84945267D01*
X122217261Y-85151502D01*
X122217258Y-85151511D01*
X122158366Y-85371302D01*
X122158364Y-85371313D01*
X122138532Y-85597998D01*
X122138532Y-85598001D01*
X122158364Y-85824686D01*
X122158366Y-85824697D01*
X122217258Y-86044488D01*
X122217261Y-86044497D01*
X122313431Y-86250732D01*
X122313432Y-86250734D01*
X122443954Y-86437141D01*
X122604858Y-86598045D01*
X122604861Y-86598047D01*
X122791266Y-86728568D01*
X122997504Y-86824739D01*
X122997509Y-86824740D01*
X122997511Y-86824741D01*
X123050415Y-86838916D01*
X123217308Y-86883635D01*
X123379230Y-86897801D01*
X123443998Y-86903468D01*
X123444000Y-86903468D01*
X123444002Y-86903468D01*
X123500673Y-86898509D01*
X123670692Y-86883635D01*
X123890496Y-86824739D01*
X124096734Y-86728568D01*
X124283139Y-86598047D01*
X124444047Y-86437139D01*
X124539263Y-86301155D01*
X124556613Y-86276377D01*
X124611189Y-86232752D01*
X124658188Y-86223500D01*
X126146242Y-86223500D01*
X126213281Y-86243185D01*
X126259036Y-86295989D01*
X126268980Y-86365147D01*
X126247817Y-86418623D01*
X126123432Y-86596265D01*
X126123431Y-86596267D01*
X126027261Y-86802502D01*
X126027258Y-86802511D01*
X125968366Y-87022302D01*
X125968364Y-87022313D01*
X125948532Y-87248998D01*
X125948532Y-87249001D01*
X125968364Y-87475686D01*
X125968366Y-87475697D01*
X126027258Y-87695488D01*
X126027261Y-87695497D01*
X126123431Y-87901732D01*
X126123432Y-87901734D01*
X126253954Y-88088141D01*
X126414858Y-88249045D01*
X126419892Y-88252570D01*
X126601266Y-88379568D01*
X126807504Y-88475739D01*
X127027308Y-88534635D01*
X127189230Y-88548801D01*
X127253998Y-88554468D01*
X127254000Y-88554468D01*
X127254002Y-88554468D01*
X127313802Y-88549236D01*
X127480692Y-88534635D01*
X127700496Y-88475739D01*
X127906734Y-88379568D01*
X128093139Y-88249047D01*
X128145359Y-88196827D01*
X128207067Y-88135120D01*
X128268390Y-88101635D01*
X128338082Y-88106619D01*
X128382429Y-88135120D01*
X129008397Y-88761088D01*
X129018222Y-88773351D01*
X129018443Y-88773169D01*
X129023411Y-88779174D01*
X129072422Y-88825199D01*
X129075221Y-88827912D01*
X129094722Y-88847414D01*
X129094726Y-88847417D01*
X129094729Y-88847420D01*
X129097902Y-88849881D01*
X129106774Y-88857459D01*
X129138618Y-88887362D01*
X129156176Y-88897014D01*
X129172435Y-88907695D01*
X129188264Y-88919973D01*
X129228355Y-88937321D01*
X129238826Y-88942451D01*
X129261380Y-88954850D01*
X129277102Y-88963494D01*
X129277104Y-88963495D01*
X129277108Y-88963497D01*
X129296516Y-88968480D01*
X129314919Y-88974781D01*
X129333301Y-88982736D01*
X129333302Y-88982736D01*
X129333304Y-88982737D01*
X129376450Y-88989570D01*
X129387872Y-88991936D01*
X129430181Y-89002800D01*
X129450216Y-89002800D01*
X129469614Y-89004326D01*
X129489394Y-89007459D01*
X129489395Y-89007460D01*
X129489395Y-89007459D01*
X129489396Y-89007460D01*
X129532875Y-89003350D01*
X129544544Y-89002800D01*
X140012957Y-89002800D01*
X140028577Y-89004524D01*
X140028604Y-89004239D01*
X140036360Y-89004971D01*
X140036367Y-89004973D01*
X140103573Y-89002861D01*
X140107468Y-89002800D01*
X140135046Y-89002800D01*
X140135050Y-89002800D01*
X140139024Y-89002297D01*
X140150663Y-89001380D01*
X140194327Y-89000009D01*
X140213569Y-88994417D01*
X140232612Y-88990474D01*
X140252492Y-88987964D01*
X140293101Y-88971885D01*
X140304144Y-88968103D01*
X140346090Y-88955918D01*
X140363329Y-88945722D01*
X140380803Y-88937162D01*
X140399427Y-88929788D01*
X140399427Y-88929787D01*
X140399432Y-88929786D01*
X140434783Y-88904100D01*
X140444514Y-88897708D01*
X140482120Y-88875470D01*
X140496289Y-88861299D01*
X140511079Y-88848668D01*
X140527287Y-88836894D01*
X140555138Y-88803226D01*
X140562979Y-88794609D01*
X140725480Y-88632108D01*
X140786801Y-88598625D01*
X140853420Y-88602509D01*
X140879019Y-88611298D01*
X141107951Y-88649500D01*
X141107952Y-88649500D01*
X141340048Y-88649500D01*
X141340049Y-88649500D01*
X141568981Y-88611298D01*
X141788503Y-88535936D01*
X141992626Y-88425470D01*
X142006721Y-88414500D01*
X142064537Y-88369500D01*
X142175784Y-88282913D01*
X142184511Y-88273432D01*
X142244394Y-88237441D01*
X142314232Y-88239538D01*
X142371850Y-88279060D01*
X142391924Y-88314080D01*
X142420645Y-88391086D01*
X142420649Y-88391093D01*
X142506809Y-88506187D01*
X142506812Y-88506190D01*
X142621906Y-88592350D01*
X142621913Y-88592354D01*
X142756620Y-88642596D01*
X142756627Y-88642598D01*
X142816155Y-88648999D01*
X142816172Y-88649000D01*
X143514000Y-88649000D01*
X143514000Y-87623189D01*
X143566547Y-87659016D01*
X143696173Y-87699000D01*
X143797724Y-87699000D01*
X143898138Y-87683865D01*
X144014000Y-87628068D01*
X144014000Y-88649000D01*
X144711828Y-88649000D01*
X144711844Y-88648999D01*
X144771372Y-88642598D01*
X144771379Y-88642596D01*
X144906086Y-88592354D01*
X144906093Y-88592350D01*
X145021187Y-88506190D01*
X145021190Y-88506187D01*
X145107350Y-88391093D01*
X145107354Y-88391086D01*
X145157596Y-88256379D01*
X145157598Y-88256372D01*
X145163999Y-88196844D01*
X145164000Y-88196827D01*
X145164000Y-87499000D01*
X144139278Y-87499000D01*
X144187625Y-87415260D01*
X144217810Y-87283008D01*
X144207673Y-87147735D01*
X144158113Y-87021459D01*
X144140203Y-86999000D01*
X145164000Y-86999000D01*
X145164000Y-86301172D01*
X145163999Y-86301155D01*
X145157598Y-86241627D01*
X145157596Y-86241620D01*
X145107354Y-86106913D01*
X145107350Y-86106906D01*
X145021190Y-85991812D01*
X145021187Y-85991809D01*
X144906093Y-85905649D01*
X144906086Y-85905645D01*
X144771379Y-85855403D01*
X144771372Y-85855401D01*
X144711844Y-85849000D01*
X144014000Y-85849000D01*
X144014000Y-86874810D01*
X143961453Y-86838984D01*
X143831827Y-86799000D01*
X143730276Y-86799000D01*
X143629862Y-86814135D01*
X143514000Y-86869931D01*
X143514000Y-85849000D01*
X142816155Y-85849000D01*
X142756627Y-85855401D01*
X142756620Y-85855403D01*
X142621913Y-85905645D01*
X142621906Y-85905649D01*
X142506812Y-85991809D01*
X142506809Y-85991812D01*
X142420649Y-86106906D01*
X142420646Y-86106911D01*
X142391924Y-86183920D01*
X142350052Y-86239853D01*
X142284588Y-86264270D01*
X142216315Y-86249418D01*
X142184514Y-86224571D01*
X142175784Y-86215087D01*
X142175779Y-86215083D01*
X142175777Y-86215081D01*
X141992634Y-86072535D01*
X141992628Y-86072531D01*
X141788504Y-85962064D01*
X141788495Y-85962061D01*
X141568984Y-85886702D01*
X141381404Y-85855401D01*
X141340049Y-85848500D01*
X141107951Y-85848500D01*
X141086977Y-85852000D01*
X140879015Y-85886702D01*
X140659504Y-85962061D01*
X140659495Y-85962064D01*
X140455371Y-86072531D01*
X140455365Y-86072535D01*
X140272222Y-86215081D01*
X140272219Y-86215084D01*
X140272216Y-86215086D01*
X140272216Y-86215087D01*
X140247791Y-86241620D01*
X140115016Y-86385852D01*
X139988075Y-86580151D01*
X139894842Y-86792699D01*
X139837866Y-87017691D01*
X139837864Y-87017702D01*
X139818700Y-87248993D01*
X139818700Y-87249006D01*
X139837865Y-87480301D01*
X139867508Y-87597360D01*
X139864882Y-87667181D01*
X139824926Y-87724498D01*
X139760325Y-87751114D01*
X139747302Y-87751800D01*
X138787252Y-87751800D01*
X138720213Y-87732115D01*
X138674458Y-87679311D01*
X138664514Y-87610153D01*
X138667475Y-87595714D01*
X138699635Y-87475692D01*
X138718685Y-87257950D01*
X138719468Y-87249001D01*
X138719468Y-87248998D01*
X138704922Y-87082740D01*
X138699635Y-87022308D01*
X138640739Y-86802504D01*
X138544568Y-86596266D01*
X138437687Y-86443623D01*
X138414045Y-86409858D01*
X138253141Y-86248954D01*
X138066734Y-86118432D01*
X138066732Y-86118431D01*
X137860497Y-86022261D01*
X137860488Y-86022258D01*
X137640697Y-85963366D01*
X137640693Y-85963365D01*
X137640692Y-85963365D01*
X137640691Y-85963364D01*
X137640686Y-85963364D01*
X137414002Y-85943532D01*
X137413998Y-85943532D01*
X137187313Y-85963364D01*
X137187302Y-85963366D01*
X136967511Y-86022258D01*
X136967502Y-86022261D01*
X136761267Y-86118431D01*
X136761265Y-86118432D01*
X136574858Y-86248954D01*
X136413954Y-86409858D01*
X136283432Y-86596265D01*
X136283431Y-86596267D01*
X136187261Y-86802502D01*
X136187258Y-86802511D01*
X136128366Y-87022302D01*
X136128364Y-87022313D01*
X136108532Y-87248998D01*
X136108532Y-87249001D01*
X136128364Y-87475686D01*
X136128365Y-87475694D01*
X136134610Y-87499000D01*
X136160522Y-87595707D01*
X136158860Y-87665556D01*
X136119698Y-87723419D01*
X136055469Y-87750923D01*
X136040748Y-87751800D01*
X129819653Y-87751800D01*
X129752614Y-87732115D01*
X129731972Y-87715481D01*
X128881703Y-86865212D01*
X128871880Y-86852950D01*
X128871659Y-86853134D01*
X128866686Y-86847122D01*
X128817676Y-86801099D01*
X128814877Y-86798386D01*
X128795377Y-86778885D01*
X128795371Y-86778880D01*
X128792186Y-86776409D01*
X128783334Y-86768848D01*
X128751482Y-86738938D01*
X128751480Y-86738936D01*
X128751477Y-86738935D01*
X128733929Y-86729288D01*
X128717663Y-86718604D01*
X128701832Y-86706324D01*
X128661749Y-86688978D01*
X128651263Y-86683841D01*
X128612994Y-86662803D01*
X128612992Y-86662802D01*
X128593593Y-86657822D01*
X128575181Y-86651518D01*
X128556798Y-86643562D01*
X128556792Y-86643560D01*
X128513660Y-86636729D01*
X128502222Y-86634361D01*
X128459915Y-86623499D01*
X128452689Y-86622586D01*
X128388646Y-86594653D01*
X128366659Y-86570689D01*
X128277687Y-86443623D01*
X128258574Y-86416326D01*
X128236247Y-86350119D01*
X128253258Y-86282352D01*
X128304206Y-86234540D01*
X128356255Y-86221264D01*
X128373927Y-86220709D01*
X128393169Y-86215117D01*
X128412212Y-86211174D01*
X128432092Y-86208664D01*
X128472701Y-86192585D01*
X128483744Y-86188803D01*
X128525690Y-86176618D01*
X128542929Y-86166422D01*
X128560403Y-86157862D01*
X128579027Y-86150488D01*
X128579027Y-86150487D01*
X128579032Y-86150486D01*
X128614383Y-86124800D01*
X128624114Y-86118408D01*
X128661720Y-86096170D01*
X128675889Y-86081999D01*
X128690679Y-86069368D01*
X128706887Y-86057594D01*
X128734738Y-86023926D01*
X128742579Y-86015309D01*
X129520888Y-85237000D01*
X146876859Y-85237000D01*
X146897378Y-85458439D01*
X146958240Y-85672350D01*
X147057369Y-85871428D01*
X147073137Y-85892308D01*
X147073138Y-85892308D01*
X147728447Y-85237000D01*
X147728447Y-85236999D01*
X147073138Y-84581690D01*
X147073137Y-84581691D01*
X147057368Y-84602574D01*
X146958240Y-84801649D01*
X146897378Y-85015560D01*
X146876859Y-85236999D01*
X146876859Y-85237000D01*
X129520888Y-85237000D01*
X130527769Y-84230119D01*
X147428671Y-84230119D01*
X148082000Y-84883447D01*
X148082001Y-84883447D01*
X148735327Y-84230119D01*
X148619178Y-84158202D01*
X148619177Y-84158201D01*
X148411804Y-84077865D01*
X148193193Y-84037000D01*
X147970807Y-84037000D01*
X147752195Y-84077865D01*
X147544824Y-84158200D01*
X147544823Y-84158201D01*
X147428671Y-84230119D01*
X130527769Y-84230119D01*
X132872008Y-81885880D01*
X147428672Y-81885880D01*
X147544821Y-81957797D01*
X147544822Y-81957798D01*
X147752195Y-82038134D01*
X147970807Y-82079000D01*
X148193193Y-82079000D01*
X148411809Y-82038133D01*
X148619168Y-81957801D01*
X148619181Y-81957795D01*
X148735326Y-81885879D01*
X148082001Y-81232553D01*
X148082000Y-81232553D01*
X147428672Y-81885879D01*
X147428672Y-81885880D01*
X132872008Y-81885880D01*
X133878888Y-80879000D01*
X146876859Y-80879000D01*
X146897378Y-81100439D01*
X146958240Y-81314350D01*
X147057369Y-81513428D01*
X147073137Y-81534308D01*
X147073138Y-81534308D01*
X147728447Y-80879000D01*
X147728447Y-80878999D01*
X147073138Y-80223690D01*
X147073137Y-80223691D01*
X147057368Y-80244574D01*
X146958240Y-80443649D01*
X146897378Y-80657560D01*
X146876859Y-80878999D01*
X146876859Y-80879000D01*
X133878888Y-80879000D01*
X139700888Y-75057000D01*
X142045056Y-75057000D01*
X142064788Y-75269954D01*
X142064789Y-75269956D01*
X142123315Y-75475654D01*
X142123321Y-75475669D01*
X142218642Y-75667099D01*
X142218647Y-75667107D01*
X142227980Y-75679465D01*
X142806046Y-75101399D01*
X142818835Y-75182148D01*
X142876359Y-75295045D01*
X142965955Y-75384641D01*
X143078852Y-75442165D01*
X143159599Y-75454953D01*
X142584086Y-76030465D01*
X142687413Y-76094443D01*
X142687414Y-76094444D01*
X142886837Y-76171700D01*
X143097068Y-76211000D01*
X143310932Y-76211000D01*
X143521162Y-76171700D01*
X143720585Y-76094444D01*
X143720589Y-76094442D01*
X143823911Y-76030466D01*
X143823911Y-76030465D01*
X143248401Y-75454953D01*
X143329148Y-75442165D01*
X143442045Y-75384641D01*
X143531641Y-75295045D01*
X143589165Y-75182148D01*
X143601953Y-75101400D01*
X144180018Y-75679464D01*
X144180019Y-75679464D01*
X144189352Y-75667107D01*
X144189355Y-75667102D01*
X144284678Y-75475669D01*
X144284684Y-75475654D01*
X144343210Y-75269956D01*
X144343211Y-75269954D01*
X144362944Y-75057000D01*
X144362944Y-75056999D01*
X144343211Y-74844045D01*
X144343210Y-74844043D01*
X144284684Y-74638345D01*
X144284678Y-74638330D01*
X144189357Y-74446901D01*
X144189355Y-74446898D01*
X144180018Y-74434534D01*
X143601953Y-75012599D01*
X143589165Y-74931852D01*
X143531641Y-74818955D01*
X143442045Y-74729359D01*
X143329148Y-74671835D01*
X143248400Y-74659046D01*
X143823912Y-74083533D01*
X143720586Y-74019556D01*
X143720585Y-74019555D01*
X143521162Y-73942299D01*
X143310932Y-73903000D01*
X143097068Y-73903000D01*
X142886837Y-73942299D01*
X142687416Y-74019554D01*
X142687410Y-74019557D01*
X142584087Y-74083532D01*
X142584086Y-74083533D01*
X143159600Y-74659046D01*
X143078852Y-74671835D01*
X142965955Y-74729359D01*
X142876359Y-74818955D01*
X142818835Y-74931852D01*
X142806046Y-75012599D01*
X142227980Y-74434533D01*
X142218646Y-74446893D01*
X142123321Y-74638330D01*
X142123315Y-74638345D01*
X142064789Y-74844043D01*
X142064788Y-74844045D01*
X142045056Y-75056999D01*
X142045056Y-75057000D01*
X139700888Y-75057000D01*
X149244186Y-65513702D01*
X149256448Y-65503880D01*
X149256265Y-65503659D01*
X149262268Y-65498691D01*
X149262277Y-65498686D01*
X149308334Y-65449639D01*
X149310982Y-65446906D01*
X149330520Y-65427370D01*
X149332970Y-65424210D01*
X149340554Y-65415329D01*
X149370462Y-65383482D01*
X149380114Y-65365923D01*
X149390789Y-65349672D01*
X149403074Y-65333836D01*
X149420430Y-65293725D01*
X149425561Y-65283254D01*
X149446594Y-65244998D01*
X149446594Y-65244997D01*
X149446597Y-65244992D01*
X149451580Y-65225580D01*
X149457877Y-65207191D01*
X149465838Y-65188795D01*
X149472670Y-65145648D01*
X149475039Y-65134216D01*
X149485899Y-65091922D01*
X149485900Y-65091917D01*
X149485900Y-65071883D01*
X149487427Y-65052482D01*
X149490560Y-65032704D01*
X149486450Y-64989224D01*
X149485900Y-64977555D01*
X149485900Y-61571537D01*
X149487624Y-61555923D01*
X149487338Y-61555896D01*
X149488072Y-61548133D01*
X149485961Y-61480944D01*
X149485900Y-61477050D01*
X149485900Y-61449451D01*
X149485900Y-61449450D01*
X149485397Y-61445470D01*
X149484480Y-61433821D01*
X149483109Y-61390173D01*
X149477522Y-61370944D01*
X149473574Y-61351884D01*
X149471545Y-61335818D01*
X149471064Y-61332008D01*
X149454985Y-61291397D01*
X149451204Y-61280352D01*
X149439019Y-61238412D01*
X149428818Y-61221163D01*
X149420260Y-61203694D01*
X149412886Y-61185068D01*
X149412883Y-61185064D01*
X149412883Y-61185063D01*
X149387216Y-61149735D01*
X149380803Y-61139972D01*
X149358572Y-61102383D01*
X149358570Y-61102379D01*
X149358566Y-61102375D01*
X149358563Y-61102371D01*
X149344405Y-61088213D01*
X149331770Y-61073420D01*
X149319993Y-61057212D01*
X149286345Y-61029376D01*
X149277704Y-61021513D01*
X148713869Y-60457678D01*
X148680384Y-60396355D01*
X148685368Y-60326663D01*
X148708761Y-60290281D01*
X148707570Y-60289282D01*
X148711039Y-60285146D01*
X148711047Y-60285139D01*
X148841568Y-60098734D01*
X148937739Y-59892496D01*
X148996635Y-59672692D01*
X148997005Y-59668458D01*
X149022453Y-59603392D01*
X149079042Y-59562411D01*
X149148804Y-59558529D01*
X149208214Y-59591582D01*
X151867181Y-62250548D01*
X151900666Y-62311871D01*
X151903500Y-62338229D01*
X151903500Y-75120294D01*
X151902191Y-75138263D01*
X151898710Y-75162025D01*
X151903028Y-75211368D01*
X151903500Y-75222176D01*
X151903500Y-75227711D01*
X151907098Y-75258495D01*
X151907464Y-75262083D01*
X151914000Y-75336791D01*
X151915461Y-75343867D01*
X151915403Y-75343878D01*
X151917034Y-75351237D01*
X151917092Y-75351224D01*
X151918757Y-75358249D01*
X151918758Y-75358254D01*
X151918759Y-75358255D01*
X151928362Y-75384641D01*
X151944400Y-75428705D01*
X151945582Y-75432107D01*
X151969182Y-75503326D01*
X151972236Y-75509874D01*
X151972182Y-75509898D01*
X151975470Y-75516688D01*
X151975521Y-75516663D01*
X151978761Y-75523114D01*
X152019979Y-75585784D01*
X152021889Y-75588782D01*
X152051310Y-75636480D01*
X152061289Y-75652658D01*
X152065766Y-75658319D01*
X152065719Y-75658356D01*
X152070482Y-75664202D01*
X152070528Y-75664164D01*
X152075173Y-75669699D01*
X152129708Y-75721150D01*
X152132296Y-75723664D01*
X156396267Y-79987634D01*
X156408048Y-80001266D01*
X156422390Y-80020530D01*
X156460343Y-80052376D01*
X156468319Y-80059686D01*
X156472219Y-80063587D01*
X156496544Y-80082821D01*
X156499340Y-80085099D01*
X156501774Y-80087141D01*
X156556786Y-80133302D01*
X156556794Y-80133306D01*
X156562824Y-80137273D01*
X156562790Y-80137323D01*
X156569137Y-80141366D01*
X156569169Y-80141316D01*
X156575321Y-80145110D01*
X156575322Y-80145110D01*
X156575323Y-80145111D01*
X156595419Y-80154482D01*
X156643294Y-80176806D01*
X156646510Y-80178362D01*
X156713567Y-80212040D01*
X156713576Y-80212042D01*
X156720355Y-80214510D01*
X156720334Y-80214567D01*
X156727451Y-80217040D01*
X156727470Y-80216984D01*
X156734324Y-80219255D01*
X156734325Y-80219255D01*
X156734327Y-80219256D01*
X156807848Y-80234436D01*
X156811209Y-80235181D01*
X156884279Y-80252500D01*
X156884285Y-80252500D01*
X156891452Y-80253338D01*
X156891445Y-80253397D01*
X156898946Y-80254163D01*
X156898952Y-80254104D01*
X156906141Y-80254733D01*
X156906143Y-80254732D01*
X156906144Y-80254733D01*
X156981111Y-80252552D01*
X156984717Y-80252500D01*
X157369337Y-80252500D01*
X157436376Y-80272185D01*
X157470912Y-80305377D01*
X157495954Y-80341141D01*
X157656858Y-80502045D01*
X157656861Y-80502047D01*
X157843266Y-80632568D01*
X157901865Y-80659893D01*
X157954305Y-80706065D01*
X157973457Y-80773258D01*
X157953242Y-80840139D01*
X157901867Y-80884657D01*
X157843515Y-80911867D01*
X157657179Y-81042342D01*
X157496342Y-81203179D01*
X157365865Y-81389517D01*
X157269734Y-81595673D01*
X157269730Y-81595682D01*
X157217127Y-81791999D01*
X157217128Y-81792000D01*
X158180314Y-81792000D01*
X158168359Y-81803955D01*
X158110835Y-81916852D01*
X158091014Y-82042000D01*
X158110835Y-82167148D01*
X158168359Y-82280045D01*
X158180314Y-82292000D01*
X157192684Y-82292000D01*
X157191824Y-82292628D01*
X157122078Y-82296776D01*
X157062207Y-82263616D01*
X155173303Y-80374712D01*
X155141209Y-80319124D01*
X155123371Y-80252552D01*
X155103575Y-80178670D01*
X155011102Y-79980362D01*
X155011100Y-79980359D01*
X155011099Y-79980357D01*
X154885599Y-79801124D01*
X154810937Y-79726462D01*
X154730877Y-79646402D01*
X154551639Y-79520898D01*
X154551640Y-79520898D01*
X154551638Y-79520897D01*
X154430648Y-79464479D01*
X154353330Y-79428425D01*
X154353326Y-79428424D01*
X154353322Y-79428422D01*
X154141977Y-79371793D01*
X153924002Y-79352723D01*
X153923998Y-79352723D01*
X153788779Y-79364553D01*
X153706023Y-79371793D01*
X153706020Y-79371793D01*
X153494677Y-79428422D01*
X153494668Y-79428426D01*
X153296361Y-79520898D01*
X153296357Y-79520900D01*
X153117121Y-79646402D01*
X152962402Y-79801121D01*
X152872425Y-79929623D01*
X152817848Y-79973248D01*
X152770850Y-79982500D01*
X150621452Y-79982500D01*
X150554413Y-79962815D01*
X150533771Y-79946181D01*
X149300892Y-78713302D01*
X149267407Y-78651979D01*
X149266736Y-78606258D01*
X149266586Y-78606245D01*
X149266715Y-78604846D01*
X149266686Y-78602826D01*
X149267110Y-78600551D01*
X149267115Y-78600536D01*
X149287643Y-78379000D01*
X149286941Y-78371429D01*
X149267115Y-78157464D01*
X149267114Y-78157462D01*
X149256424Y-78119892D01*
X149206229Y-77943472D01*
X149173827Y-77878400D01*
X149107061Y-77744316D01*
X149107056Y-77744308D01*
X148972979Y-77566761D01*
X148808562Y-77416876D01*
X148808560Y-77416874D01*
X148619404Y-77299754D01*
X148619398Y-77299752D01*
X148411940Y-77219382D01*
X148193243Y-77178500D01*
X147970757Y-77178500D01*
X147752060Y-77219382D01*
X147646106Y-77260429D01*
X147544601Y-77299752D01*
X147544595Y-77299754D01*
X147355439Y-77416874D01*
X147355437Y-77416876D01*
X147191020Y-77566761D01*
X147056943Y-77744308D01*
X147056938Y-77744316D01*
X146957775Y-77943461D01*
X146957769Y-77943476D01*
X146896885Y-78157462D01*
X146896884Y-78157464D01*
X146876357Y-78378999D01*
X146876357Y-78379000D01*
X146896884Y-78600535D01*
X146896885Y-78600537D01*
X146957769Y-78814523D01*
X146957775Y-78814538D01*
X147056938Y-79013683D01*
X147056943Y-79013691D01*
X147191020Y-79191238D01*
X147355437Y-79341123D01*
X147355439Y-79341125D01*
X147544595Y-79458245D01*
X147544597Y-79458246D01*
X147544599Y-79458247D01*
X147687587Y-79513641D01*
X147742988Y-79556213D01*
X147766579Y-79621979D01*
X147750868Y-79690060D01*
X147700844Y-79738839D01*
X147687587Y-79744893D01*
X147544833Y-79800196D01*
X147544823Y-79800201D01*
X147428671Y-79872119D01*
X148082000Y-80525447D01*
X148085553Y-80529000D01*
X148052995Y-80529000D01*
X147966784Y-80543386D01*
X147864053Y-80598981D01*
X147784940Y-80684921D01*
X147738018Y-80791892D01*
X147728372Y-80908302D01*
X147757047Y-81021538D01*
X147820936Y-81119327D01*
X147913115Y-81191072D01*
X148023595Y-81229000D01*
X148111005Y-81229000D01*
X148197216Y-81214614D01*
X148299947Y-81159019D01*
X148379060Y-81073079D01*
X148425982Y-80966108D01*
X148433380Y-80876827D01*
X149090861Y-81534308D01*
X149106631Y-81513425D01*
X149106633Y-81513422D01*
X149205759Y-81314350D01*
X149266621Y-81100439D01*
X149287141Y-80879000D01*
X149276928Y-80768794D01*
X149290342Y-80700224D01*
X149338699Y-80649792D01*
X149406645Y-80633509D01*
X149472608Y-80656546D01*
X149488080Y-80669671D01*
X149810197Y-80991788D01*
X149820022Y-81004051D01*
X149820243Y-81003869D01*
X149825211Y-81009874D01*
X149874222Y-81055899D01*
X149877021Y-81058612D01*
X149896522Y-81078114D01*
X149896526Y-81078117D01*
X149896529Y-81078120D01*
X149899702Y-81080581D01*
X149908574Y-81088159D01*
X149940418Y-81118062D01*
X149957976Y-81127714D01*
X149974233Y-81138393D01*
X149990064Y-81150673D01*
X150019803Y-81163542D01*
X150030152Y-81168021D01*
X150040641Y-81173160D01*
X150064457Y-81186252D01*
X150078908Y-81194197D01*
X150091523Y-81197435D01*
X150098305Y-81199177D01*
X150116719Y-81205481D01*
X150135104Y-81213438D01*
X150178261Y-81220273D01*
X150189656Y-81222632D01*
X150231981Y-81233500D01*
X150252016Y-81233500D01*
X150271413Y-81235026D01*
X150291196Y-81238160D01*
X150334675Y-81234050D01*
X150346344Y-81233500D01*
X152770851Y-81233500D01*
X152837890Y-81253185D01*
X152872423Y-81286374D01*
X152962402Y-81414877D01*
X153117123Y-81569598D01*
X153296361Y-81695102D01*
X153494670Y-81787575D01*
X153494676Y-81787576D01*
X153494677Y-81787577D01*
X153511184Y-81792000D01*
X153706023Y-81844207D01*
X153888926Y-81860208D01*
X153923998Y-81863277D01*
X153924000Y-81863277D01*
X153924002Y-81863277D01*
X153952254Y-81860805D01*
X154141977Y-81844207D01*
X154353330Y-81787575D01*
X154551639Y-81695102D01*
X154568082Y-81683587D01*
X154634284Y-81661258D01*
X154702052Y-81678265D01*
X154726889Y-81697479D01*
X157196586Y-84167176D01*
X157230071Y-84228499D01*
X157228681Y-84286948D01*
X157210365Y-84355307D01*
X157210364Y-84355313D01*
X157190532Y-84581999D01*
X157190532Y-84582001D01*
X157205739Y-84755819D01*
X157191972Y-84824319D01*
X157143357Y-84874502D01*
X157075328Y-84890435D01*
X157045759Y-84883450D01*
X157045386Y-84884738D01*
X157037892Y-84882560D01*
X156994760Y-84875729D01*
X156983322Y-84873361D01*
X156941020Y-84862500D01*
X156941019Y-84862500D01*
X156920984Y-84862500D01*
X156901586Y-84860973D01*
X156882821Y-84858001D01*
X156881805Y-84857840D01*
X156881804Y-84857840D01*
X156838325Y-84861950D01*
X156826656Y-84862500D01*
X155077150Y-84862500D01*
X155010111Y-84842815D01*
X154975575Y-84809623D01*
X154885599Y-84681124D01*
X154885596Y-84681121D01*
X154730877Y-84526402D01*
X154551639Y-84400898D01*
X154551640Y-84400898D01*
X154551638Y-84400897D01*
X154435179Y-84346592D01*
X154353330Y-84308425D01*
X154353326Y-84308424D01*
X154353322Y-84308422D01*
X154141977Y-84251793D01*
X153924002Y-84232723D01*
X153923998Y-84232723D01*
X153778682Y-84245436D01*
X153706023Y-84251793D01*
X153706020Y-84251793D01*
X153494677Y-84308422D01*
X153494668Y-84308426D01*
X153296361Y-84400898D01*
X153296357Y-84400900D01*
X153117121Y-84526402D01*
X152962402Y-84681121D01*
X152872425Y-84809623D01*
X152817848Y-84853248D01*
X152770850Y-84862500D01*
X150413737Y-84862500D01*
X150398120Y-84860776D01*
X150398093Y-84861062D01*
X150390331Y-84860327D01*
X150323144Y-84862439D01*
X150319250Y-84862500D01*
X150291650Y-84862500D01*
X150287962Y-84862965D01*
X150287649Y-84863005D01*
X150276031Y-84863918D01*
X150232377Y-84865290D01*
X150232367Y-84865292D01*
X150213134Y-84870879D01*
X150194094Y-84874822D01*
X150174217Y-84877334D01*
X150174210Y-84877335D01*
X150174208Y-84877336D01*
X150174206Y-84877336D01*
X150174205Y-84877337D01*
X150133584Y-84893419D01*
X150122537Y-84897201D01*
X150080611Y-84909382D01*
X150080608Y-84909383D01*
X150063363Y-84919581D01*
X150045901Y-84928135D01*
X150027272Y-84935511D01*
X150027267Y-84935514D01*
X149991926Y-84961189D01*
X149982168Y-84967599D01*
X149944580Y-84989828D01*
X149930408Y-85004000D01*
X149915623Y-85016628D01*
X149899412Y-85028407D01*
X149871571Y-85062059D01*
X149863711Y-85070696D01*
X149488081Y-85446326D01*
X149426758Y-85479811D01*
X149357066Y-85474827D01*
X149301133Y-85432955D01*
X149276716Y-85367491D01*
X149276929Y-85347204D01*
X149287141Y-85237000D01*
X149287141Y-85236999D01*
X149266621Y-85015560D01*
X149205759Y-84801649D01*
X149106635Y-84602580D01*
X149106630Y-84602572D01*
X149090860Y-84581690D01*
X148432987Y-85239564D01*
X148435628Y-85207698D01*
X148406953Y-85094462D01*
X148343064Y-84996673D01*
X148250885Y-84924928D01*
X148140405Y-84887000D01*
X148052995Y-84887000D01*
X147966784Y-84901386D01*
X147864053Y-84956981D01*
X147784940Y-85042921D01*
X147738018Y-85149892D01*
X147728372Y-85266302D01*
X147757047Y-85379538D01*
X147820936Y-85477327D01*
X147913115Y-85549072D01*
X148023595Y-85587000D01*
X148085553Y-85587000D01*
X148082000Y-85590553D01*
X147428672Y-86243879D01*
X147428672Y-86243880D01*
X147544821Y-86315797D01*
X147544822Y-86315798D01*
X147687587Y-86371105D01*
X147742988Y-86413678D01*
X147766579Y-86479445D01*
X147750868Y-86547525D01*
X147700844Y-86596304D01*
X147687587Y-86602359D01*
X147544601Y-86657751D01*
X147544595Y-86657754D01*
X147355439Y-86774874D01*
X147355437Y-86774876D01*
X147191020Y-86924761D01*
X147056943Y-87102308D01*
X147056938Y-87102316D01*
X146957775Y-87301461D01*
X146957769Y-87301476D01*
X146896885Y-87515462D01*
X146896884Y-87515464D01*
X146876357Y-87736999D01*
X146876357Y-87737000D01*
X146896884Y-87958535D01*
X146896885Y-87958537D01*
X146957769Y-88172523D01*
X146957775Y-88172538D01*
X147056938Y-88371683D01*
X147056943Y-88371691D01*
X147191020Y-88549238D01*
X147355437Y-88699123D01*
X147355439Y-88699125D01*
X147544595Y-88816245D01*
X147544596Y-88816245D01*
X147544599Y-88816247D01*
X147752060Y-88896618D01*
X147970757Y-88937500D01*
X147970759Y-88937500D01*
X148193241Y-88937500D01*
X148193243Y-88937500D01*
X148411940Y-88896618D01*
X148619401Y-88816247D01*
X148808562Y-88699124D01*
X148967242Y-88554468D01*
X148972979Y-88549238D01*
X148983025Y-88535936D01*
X149107058Y-88371689D01*
X149206229Y-88172528D01*
X149267115Y-87958536D01*
X149287643Y-87737000D01*
X149267115Y-87515464D01*
X149267112Y-87515454D01*
X149266685Y-87513167D01*
X149266798Y-87512046D01*
X149266586Y-87509755D01*
X149267034Y-87509713D01*
X149273713Y-87443651D01*
X149300889Y-87402699D01*
X150553772Y-86149819D01*
X150615095Y-86116334D01*
X150641453Y-86113500D01*
X152770851Y-86113500D01*
X152837890Y-86133185D01*
X152872423Y-86166374D01*
X152962402Y-86294877D01*
X153117123Y-86449598D01*
X153296361Y-86575102D01*
X153494670Y-86667575D01*
X153706023Y-86724207D01*
X153874404Y-86738938D01*
X153923998Y-86743277D01*
X153924000Y-86743277D01*
X153924002Y-86743277D01*
X153952254Y-86740805D01*
X154141977Y-86724207D01*
X154353330Y-86667575D01*
X154551639Y-86575102D01*
X154730877Y-86449598D01*
X154885598Y-86294877D01*
X154975575Y-86166375D01*
X155030151Y-86122752D01*
X155077149Y-86113500D01*
X156551548Y-86113500D01*
X156618587Y-86133185D01*
X156639229Y-86149819D01*
X157196586Y-86707177D01*
X157230071Y-86768500D01*
X157228680Y-86826949D01*
X157210367Y-86895296D01*
X157210364Y-86895313D01*
X157190532Y-87121999D01*
X157190532Y-87122001D01*
X157210364Y-87348686D01*
X157210366Y-87348697D01*
X157269258Y-87568488D01*
X157269261Y-87568497D01*
X157365431Y-87774732D01*
X157365432Y-87774734D01*
X157495954Y-87961141D01*
X157656858Y-88122045D01*
X157656861Y-88122047D01*
X157843266Y-88252568D01*
X157900078Y-88279060D01*
X157901275Y-88279618D01*
X157953714Y-88325791D01*
X157972866Y-88392984D01*
X157952650Y-88459865D01*
X157901275Y-88504381D01*
X157890301Y-88509499D01*
X157843267Y-88531431D01*
X157843265Y-88531432D01*
X157656858Y-88661954D01*
X157495954Y-88822858D01*
X157383387Y-88983623D01*
X157328811Y-89027248D01*
X157281812Y-89036500D01*
X155339043Y-89036500D01*
X155323422Y-89034775D01*
X155323396Y-89035061D01*
X155315634Y-89034327D01*
X155315633Y-89034327D01*
X155253409Y-89036282D01*
X155248427Y-89036439D01*
X155244532Y-89036500D01*
X155216947Y-89036500D01*
X155212961Y-89037003D01*
X155201333Y-89037918D01*
X155157673Y-89039290D01*
X155138429Y-89044881D01*
X155119379Y-89048825D01*
X155099511Y-89051334D01*
X155099510Y-89051334D01*
X155058899Y-89067413D01*
X155047854Y-89071194D01*
X155005914Y-89083379D01*
X155005910Y-89083381D01*
X154988666Y-89093579D01*
X154971205Y-89102133D01*
X154952574Y-89109510D01*
X154952562Y-89109517D01*
X154917233Y-89135185D01*
X154907473Y-89141596D01*
X154869880Y-89163829D01*
X154855714Y-89177995D01*
X154840924Y-89190627D01*
X154824714Y-89202404D01*
X154824711Y-89202407D01*
X154796873Y-89236058D01*
X154789011Y-89244697D01*
X149732708Y-94300999D01*
X149720451Y-94310820D01*
X149720634Y-94311041D01*
X149714622Y-94316014D01*
X149668598Y-94365023D01*
X149665891Y-94367816D01*
X149646389Y-94387317D01*
X149646375Y-94387334D01*
X149643907Y-94390515D01*
X149636343Y-94399370D01*
X149606437Y-94431218D01*
X149606436Y-94431220D01*
X149596784Y-94448776D01*
X149586110Y-94465026D01*
X149573831Y-94480858D01*
X149573824Y-94480868D01*
X149556475Y-94520958D01*
X149551338Y-94531444D01*
X149530303Y-94569706D01*
X149525322Y-94589107D01*
X149519021Y-94607510D01*
X149511062Y-94625902D01*
X149511061Y-94625905D01*
X149504228Y-94669043D01*
X149501860Y-94680474D01*
X149491001Y-94722771D01*
X149491000Y-94722782D01*
X149491000Y-94742816D01*
X149489473Y-94762215D01*
X149486340Y-94781994D01*
X149486340Y-94781995D01*
X149490450Y-94825474D01*
X149491000Y-94837143D01*
X149491000Y-98659551D01*
X149471315Y-98726590D01*
X149418511Y-98772345D01*
X149349353Y-98782289D01*
X149285797Y-98753264D01*
X149253245Y-98704860D01*
X149252225Y-98705282D01*
X149252148Y-98705321D01*
X149252145Y-98705315D01*
X149251899Y-98705418D01*
X149250353Y-98701684D01*
X149250352Y-98701680D01*
X149246615Y-98694102D01*
X149116514Y-98430283D01*
X149116505Y-98430268D01*
X149069787Y-98360349D01*
X148948386Y-98178659D01*
X148858838Y-98076549D01*
X148748858Y-97951141D01*
X148521339Y-97751612D01*
X148269729Y-97583492D01*
X148269722Y-97583488D01*
X147998322Y-97449648D01*
X147998312Y-97449644D01*
X147711779Y-97352380D01*
X147711773Y-97352378D01*
X147711766Y-97352376D01*
X147414966Y-97293339D01*
X147113000Y-97273547D01*
X146811034Y-97293339D01*
X146811028Y-97293340D01*
X146811023Y-97293341D01*
X146514239Y-97352375D01*
X146514225Y-97352378D01*
X146227684Y-97449646D01*
X146227663Y-97449655D01*
X145956283Y-97583485D01*
X145956268Y-97583494D01*
X145704657Y-97751615D01*
X145477141Y-97951141D01*
X145277615Y-98178657D01*
X145109494Y-98430268D01*
X145109485Y-98430283D01*
X144975655Y-98701663D01*
X144975646Y-98701684D01*
X144916013Y-98877359D01*
X144875824Y-98934513D01*
X144811115Y-98960866D01*
X144798594Y-98961500D01*
X139427406Y-98961500D01*
X139360367Y-98941815D01*
X139314612Y-98889011D01*
X139309987Y-98877359D01*
X139299949Y-98847789D01*
X139250352Y-98701680D01*
X139246615Y-98694102D01*
X139116514Y-98430283D01*
X139116505Y-98430268D01*
X139069787Y-98360349D01*
X138948386Y-98178659D01*
X138858838Y-98076549D01*
X138748858Y-97951141D01*
X138521339Y-97751612D01*
X138269729Y-97583492D01*
X138269722Y-97583488D01*
X137998322Y-97449648D01*
X137998312Y-97449644D01*
X137711779Y-97352380D01*
X137711773Y-97352378D01*
X137711766Y-97352376D01*
X137414966Y-97293339D01*
X137113000Y-97273547D01*
X136811034Y-97293339D01*
X136811028Y-97293340D01*
X136811023Y-97293341D01*
X136514239Y-97352375D01*
X136514225Y-97352378D01*
X136227684Y-97449646D01*
X136227663Y-97449655D01*
X135956283Y-97583485D01*
X135956268Y-97583494D01*
X135704657Y-97751615D01*
X135477141Y-97951141D01*
X135277614Y-98178657D01*
X135201193Y-98293029D01*
X135147580Y-98337834D01*
X135078255Y-98346541D01*
X135015228Y-98316386D01*
X135010410Y-98311819D01*
X124198803Y-87500212D01*
X124188980Y-87487950D01*
X124188759Y-87488134D01*
X124183786Y-87482122D01*
X124134776Y-87436099D01*
X124131977Y-87433386D01*
X124112477Y-87413885D01*
X124112471Y-87413880D01*
X124109286Y-87411409D01*
X124100434Y-87403848D01*
X124068582Y-87373938D01*
X124068580Y-87373936D01*
X124068577Y-87373935D01*
X124051029Y-87364288D01*
X124034763Y-87353604D01*
X124030458Y-87350265D01*
X124018936Y-87341327D01*
X124018935Y-87341326D01*
X124018932Y-87341324D01*
X123978849Y-87323978D01*
X123968363Y-87318841D01*
X123930094Y-87297803D01*
X123930092Y-87297802D01*
X123910693Y-87292822D01*
X123892281Y-87286518D01*
X123873898Y-87278562D01*
X123873892Y-87278560D01*
X123830760Y-87271729D01*
X123819322Y-87269361D01*
X123777020Y-87258500D01*
X123777019Y-87258500D01*
X123756984Y-87258500D01*
X123737586Y-87256973D01*
X123730162Y-87255797D01*
X123717805Y-87253840D01*
X123717804Y-87253840D01*
X123674325Y-87257950D01*
X123662656Y-87258500D01*
X120706452Y-87258500D01*
X120639413Y-87238815D01*
X120618771Y-87222181D01*
X114583413Y-81186822D01*
X114549928Y-81125499D01*
X114551319Y-81067048D01*
X114563513Y-81021538D01*
X114569635Y-80998692D01*
X114589468Y-80772001D01*
X122138532Y-80772001D01*
X122158364Y-80998686D01*
X122158366Y-80998697D01*
X122217258Y-81218488D01*
X122217261Y-81218497D01*
X122313431Y-81424732D01*
X122313432Y-81424734D01*
X122443954Y-81611141D01*
X122604858Y-81772045D01*
X122604861Y-81772047D01*
X122791266Y-81902568D01*
X122997504Y-81998739D01*
X123217308Y-82057635D01*
X123362504Y-82070338D01*
X123443998Y-82077468D01*
X123444000Y-82077468D01*
X123444002Y-82077468D01*
X123500673Y-82072509D01*
X123670692Y-82057635D01*
X123890496Y-81998739D01*
X124096734Y-81902568D01*
X124283139Y-81772047D01*
X124444047Y-81611139D01*
X124574568Y-81424734D01*
X124670739Y-81218496D01*
X124729635Y-80998692D01*
X124749468Y-80772000D01*
X124729635Y-80545308D01*
X124670739Y-80325504D01*
X124574568Y-80119266D01*
X124444047Y-79932861D01*
X124444045Y-79932858D01*
X124283141Y-79771954D01*
X124096734Y-79641432D01*
X124096732Y-79641431D01*
X123890497Y-79545261D01*
X123890488Y-79545258D01*
X123670697Y-79486366D01*
X123670693Y-79486365D01*
X123670692Y-79486365D01*
X123670691Y-79486364D01*
X123670686Y-79486364D01*
X123444002Y-79466532D01*
X123443998Y-79466532D01*
X123217313Y-79486364D01*
X123217302Y-79486366D01*
X122997511Y-79545258D01*
X122997502Y-79545261D01*
X122791267Y-79641431D01*
X122791265Y-79641432D01*
X122604858Y-79771954D01*
X122443954Y-79932858D01*
X122313432Y-80119265D01*
X122313431Y-80119267D01*
X122217261Y-80325502D01*
X122217258Y-80325511D01*
X122158366Y-80545302D01*
X122158364Y-80545313D01*
X122138532Y-80771998D01*
X122138532Y-80772001D01*
X114589468Y-80772001D01*
X114589468Y-80772000D01*
X114569635Y-80545308D01*
X114510739Y-80325504D01*
X114414568Y-80119266D01*
X114284047Y-79932861D01*
X114284045Y-79932858D01*
X114123140Y-79771953D01*
X113962377Y-79659386D01*
X113918752Y-79604809D01*
X113909500Y-79557811D01*
X113909500Y-77160188D01*
X113929185Y-77093149D01*
X113962377Y-77058613D01*
X114065181Y-76986629D01*
X114123139Y-76946047D01*
X114284047Y-76785139D01*
X114414568Y-76598734D01*
X114510739Y-76392496D01*
X114569635Y-76172692D01*
X114589468Y-75946001D01*
X122138532Y-75946001D01*
X122158364Y-76172686D01*
X122158366Y-76172697D01*
X122217258Y-76392488D01*
X122217261Y-76392497D01*
X122313431Y-76598732D01*
X122313432Y-76598734D01*
X122443954Y-76785141D01*
X122604858Y-76946045D01*
X122606870Y-76947454D01*
X122791266Y-77076568D01*
X122997504Y-77172739D01*
X122997509Y-77172740D01*
X122997511Y-77172741D01*
X123017750Y-77178164D01*
X123217308Y-77231635D01*
X123379230Y-77245801D01*
X123443998Y-77251468D01*
X123444000Y-77251468D01*
X123444002Y-77251468D01*
X123500673Y-77246509D01*
X123670692Y-77231635D01*
X123890496Y-77172739D01*
X124096734Y-77076568D01*
X124283139Y-76946047D01*
X124444047Y-76785139D01*
X124574568Y-76598734D01*
X124670739Y-76392496D01*
X124729635Y-76172692D01*
X124749468Y-75946000D01*
X124729635Y-75719308D01*
X124670739Y-75499504D01*
X124574568Y-75293266D01*
X124444047Y-75106861D01*
X124444045Y-75106858D01*
X124283141Y-74945954D01*
X124096734Y-74815432D01*
X124096732Y-74815431D01*
X123890497Y-74719261D01*
X123890488Y-74719258D01*
X123670697Y-74660366D01*
X123670693Y-74660365D01*
X123670692Y-74660365D01*
X123670691Y-74660364D01*
X123670686Y-74660364D01*
X123444002Y-74640532D01*
X123443998Y-74640532D01*
X123217313Y-74660364D01*
X123217302Y-74660366D01*
X122997511Y-74719258D01*
X122997502Y-74719261D01*
X122791267Y-74815431D01*
X122791265Y-74815432D01*
X122604858Y-74945954D01*
X122443954Y-75106858D01*
X122313432Y-75293265D01*
X122313431Y-75293267D01*
X122217261Y-75499502D01*
X122217258Y-75499511D01*
X122158366Y-75719302D01*
X122158364Y-75719313D01*
X122138532Y-75945998D01*
X122138532Y-75946001D01*
X114589468Y-75946001D01*
X114589468Y-75946000D01*
X114569635Y-75719308D01*
X114510739Y-75499504D01*
X114414568Y-75293266D01*
X114284047Y-75106861D01*
X114284045Y-75106858D01*
X114123141Y-74945954D01*
X113936734Y-74815432D01*
X113936732Y-74815431D01*
X113730497Y-74719261D01*
X113730488Y-74719258D01*
X113510697Y-74660366D01*
X113510693Y-74660365D01*
X113510692Y-74660365D01*
X113510691Y-74660364D01*
X113510686Y-74660364D01*
X113284002Y-74640532D01*
X113283998Y-74640532D01*
X113057313Y-74660364D01*
X113057302Y-74660366D01*
X112837511Y-74719258D01*
X112837502Y-74719261D01*
X112631267Y-74815431D01*
X112631265Y-74815432D01*
X112444858Y-74945954D01*
X112283954Y-75106858D01*
X112153432Y-75293265D01*
X112153431Y-75293267D01*
X112057261Y-75499502D01*
X112057258Y-75499511D01*
X111998366Y-75719302D01*
X111998364Y-75719313D01*
X111978532Y-75945998D01*
X111978532Y-75946001D01*
X111998364Y-76172686D01*
X111998366Y-76172697D01*
X112057258Y-76392488D01*
X112057261Y-76392497D01*
X112153431Y-76598732D01*
X112153432Y-76598734D01*
X112283954Y-76785141D01*
X112444858Y-76946045D01*
X112605623Y-77058613D01*
X112649248Y-77113189D01*
X112658500Y-77160188D01*
X112658500Y-79557811D01*
X112638815Y-79624850D01*
X112605623Y-79659386D01*
X112444859Y-79771953D01*
X112283954Y-79932858D01*
X112153432Y-80119265D01*
X112153431Y-80119267D01*
X112057261Y-80325502D01*
X112057258Y-80325511D01*
X111998366Y-80545302D01*
X111998364Y-80545313D01*
X111978532Y-80771998D01*
X111978532Y-80772001D01*
X111998364Y-80998686D01*
X111998366Y-80998697D01*
X112057258Y-81218488D01*
X112057261Y-81218497D01*
X112153431Y-81424732D01*
X112153432Y-81424734D01*
X112283954Y-81611141D01*
X112444858Y-81772045D01*
X112444861Y-81772047D01*
X112631266Y-81902568D01*
X112837504Y-81998739D01*
X113057308Y-82057635D01*
X113202504Y-82070338D01*
X113283998Y-82077468D01*
X113284000Y-82077468D01*
X113284002Y-82077468D01*
X113340673Y-82072509D01*
X113510692Y-82057635D01*
X113579048Y-82039319D01*
X113648897Y-82040982D01*
X113698822Y-82071413D01*
X119895197Y-88267788D01*
X119905022Y-88280051D01*
X119905243Y-88279869D01*
X119910211Y-88285874D01*
X119910213Y-88285876D01*
X119910214Y-88285877D01*
X119955097Y-88328025D01*
X119959222Y-88331899D01*
X119962021Y-88334612D01*
X119981522Y-88354114D01*
X119981526Y-88354117D01*
X119981529Y-88354120D01*
X119984702Y-88356581D01*
X119993574Y-88364159D01*
X120025418Y-88394062D01*
X120042976Y-88403714D01*
X120059233Y-88414393D01*
X120075064Y-88426673D01*
X120094910Y-88435261D01*
X120115152Y-88444021D01*
X120125641Y-88449160D01*
X120145114Y-88459865D01*
X120163908Y-88470197D01*
X120176523Y-88473435D01*
X120183305Y-88475177D01*
X120201719Y-88481481D01*
X120220104Y-88489438D01*
X120263261Y-88496273D01*
X120274656Y-88498632D01*
X120316981Y-88509500D01*
X120337016Y-88509500D01*
X120356413Y-88511026D01*
X120376196Y-88514160D01*
X120419675Y-88510050D01*
X120431344Y-88509500D01*
X123387548Y-88509500D01*
X123454587Y-88529185D01*
X123475229Y-88545819D01*
X123885886Y-88956476D01*
X123919371Y-89017799D01*
X123914387Y-89087491D01*
X123872515Y-89143424D01*
X123807051Y-89167841D01*
X123766112Y-89163932D01*
X123670697Y-89138366D01*
X123670693Y-89138365D01*
X123670692Y-89138365D01*
X123670691Y-89138364D01*
X123670686Y-89138364D01*
X123444002Y-89118532D01*
X123443998Y-89118532D01*
X123217313Y-89138364D01*
X123217302Y-89138366D01*
X122997511Y-89197258D01*
X122997502Y-89197261D01*
X122791267Y-89293431D01*
X122791265Y-89293432D01*
X122604858Y-89423954D01*
X122443954Y-89584858D01*
X122313432Y-89771265D01*
X122313431Y-89771267D01*
X122217261Y-89977502D01*
X122217258Y-89977511D01*
X122158366Y-90197302D01*
X122158364Y-90197313D01*
X122138532Y-90423998D01*
X122138532Y-90424001D01*
X122158364Y-90650686D01*
X122158366Y-90650697D01*
X122217258Y-90870488D01*
X122217261Y-90870497D01*
X122313431Y-91076732D01*
X122313432Y-91076734D01*
X122443954Y-91263141D01*
X122604858Y-91424045D01*
X122604861Y-91424047D01*
X122791266Y-91554568D01*
X122997504Y-91650739D01*
X123217308Y-91709635D01*
X123379230Y-91723801D01*
X123443998Y-91729468D01*
X123444000Y-91729468D01*
X123444002Y-91729468D01*
X123500673Y-91724509D01*
X123670692Y-91709635D01*
X123890496Y-91650739D01*
X124096734Y-91554568D01*
X124283139Y-91424047D01*
X124444047Y-91263139D01*
X124574568Y-91076734D01*
X124670739Y-90870496D01*
X124729635Y-90650692D01*
X124749468Y-90424000D01*
X124729635Y-90197308D01*
X124704067Y-90101886D01*
X124705730Y-90032038D01*
X124744892Y-89974175D01*
X124809121Y-89946671D01*
X124878023Y-89958257D01*
X124911522Y-89982112D01*
X129854409Y-94925000D01*
X134792980Y-99863571D01*
X134826465Y-99924894D01*
X134826916Y-99927061D01*
X134878374Y-100185758D01*
X134878379Y-100185778D01*
X134975644Y-100472312D01*
X134975648Y-100472322D01*
X135109488Y-100743722D01*
X135109492Y-100743729D01*
X135277612Y-100995339D01*
X135477141Y-101222858D01*
X135704660Y-101422387D01*
X135956270Y-101590507D01*
X135956277Y-101590511D01*
X136227677Y-101724351D01*
X136227687Y-101724355D01*
X136432367Y-101793834D01*
X136514234Y-101821624D01*
X136811034Y-101880661D01*
X137113000Y-101900453D01*
X137414966Y-101880661D01*
X137711766Y-101821624D01*
X137904813Y-101756093D01*
X137998312Y-101724355D01*
X137998322Y-101724351D01*
X138269727Y-101590509D01*
X138521341Y-101422386D01*
X138748858Y-101222858D01*
X138948386Y-100995341D01*
X139116509Y-100743727D01*
X139250352Y-100472320D01*
X139255637Y-100456752D01*
X139309987Y-100296642D01*
X139350175Y-100239487D01*
X139414884Y-100213134D01*
X139427406Y-100212500D01*
X144798594Y-100212500D01*
X144865633Y-100232185D01*
X144911388Y-100284989D01*
X144916013Y-100296642D01*
X144975644Y-100472312D01*
X144975648Y-100472322D01*
X145109488Y-100743722D01*
X145109492Y-100743729D01*
X145277612Y-100995339D01*
X145477141Y-101222858D01*
X145704660Y-101422387D01*
X145956270Y-101590507D01*
X145956277Y-101590511D01*
X146227677Y-101724351D01*
X146227687Y-101724355D01*
X146432367Y-101793834D01*
X146514234Y-101821624D01*
X146746997Y-101867923D01*
X146808908Y-101900308D01*
X146843482Y-101961023D01*
X146839743Y-102030793D01*
X146810487Y-102077221D01*
X144632629Y-104255078D01*
X144571306Y-104288563D01*
X144501614Y-104283579D01*
X144445681Y-104241707D01*
X144421264Y-104176243D01*
X144421214Y-104159286D01*
X144425952Y-104087005D01*
X144425952Y-104086992D01*
X144406165Y-103785115D01*
X144406161Y-103785088D01*
X144347140Y-103488369D01*
X144347137Y-103488355D01*
X144249890Y-103201876D01*
X144249881Y-103201855D01*
X144116079Y-102930531D01*
X144116074Y-102930524D01*
X143947989Y-102678965D01*
X143913694Y-102639859D01*
X143913693Y-102639858D01*
X143192025Y-103361525D01*
X143112662Y-103248184D01*
X142951816Y-103087338D01*
X142838472Y-103007973D01*
X143560140Y-102286305D01*
X143560140Y-102286304D01*
X143521034Y-102252009D01*
X143269475Y-102083925D01*
X143269468Y-102083920D01*
X142998144Y-101950118D01*
X142998123Y-101950109D01*
X142711644Y-101852862D01*
X142711630Y-101852859D01*
X142414911Y-101793838D01*
X142414884Y-101793834D01*
X142113007Y-101774048D01*
X142112993Y-101774048D01*
X141811115Y-101793834D01*
X141811088Y-101793838D01*
X141514369Y-101852859D01*
X141514355Y-101852862D01*
X141227876Y-101950109D01*
X141227855Y-101950118D01*
X140956531Y-102083920D01*
X140704958Y-102252016D01*
X140665859Y-102286304D01*
X140665859Y-102286306D01*
X141387527Y-103007973D01*
X141274184Y-103087338D01*
X141113338Y-103248184D01*
X141033974Y-103361527D01*
X140312306Y-102639859D01*
X140312304Y-102639859D01*
X140278016Y-102678958D01*
X140109920Y-102930531D01*
X139976118Y-103201855D01*
X139976109Y-103201876D01*
X139878862Y-103488355D01*
X139878859Y-103488369D01*
X139819838Y-103785088D01*
X139819834Y-103785115D01*
X139800048Y-104086992D01*
X139800048Y-104087007D01*
X139819834Y-104388884D01*
X139819838Y-104388911D01*
X139878859Y-104685630D01*
X139878862Y-104685644D01*
X139976109Y-104972123D01*
X139976118Y-104972144D01*
X140109920Y-105243468D01*
X140109925Y-105243475D01*
X140240843Y-105439410D01*
X140261721Y-105506087D01*
X140243236Y-105573467D01*
X140191257Y-105620157D01*
X140137741Y-105632300D01*
X129752352Y-105632300D01*
X129685313Y-105612615D01*
X129664671Y-105595981D01*
X129205371Y-105136681D01*
X129171886Y-105075358D01*
X129176870Y-105005666D01*
X129218742Y-104949733D01*
X129284206Y-104925316D01*
X129293052Y-104925000D01*
X129589270Y-104925000D01*
X129881063Y-104884893D01*
X129881069Y-104884892D01*
X130164685Y-104805426D01*
X130434827Y-104688088D01*
X130686493Y-104535046D01*
X130686502Y-104535040D01*
X130777473Y-104461026D01*
X130058040Y-103741593D01*
X130216686Y-103621790D01*
X130359644Y-103464973D01*
X130408928Y-103385375D01*
X131133160Y-104109607D01*
X131285863Y-103893278D01*
X131421370Y-103631760D01*
X131520003Y-103354235D01*
X131520008Y-103354218D01*
X131579930Y-103065854D01*
X131579931Y-103065852D01*
X131600030Y-102772000D01*
X131579931Y-102478147D01*
X131579930Y-102478145D01*
X131520008Y-102189781D01*
X131520003Y-102189764D01*
X131421370Y-101912239D01*
X131285863Y-101650720D01*
X131285859Y-101650714D01*
X131133161Y-101434391D01*
X130408928Y-102158623D01*
X130359644Y-102079027D01*
X130216686Y-101922210D01*
X130058040Y-101802406D01*
X130777474Y-101082972D01*
X130686493Y-101008953D01*
X130434827Y-100855911D01*
X130164685Y-100738573D01*
X129881069Y-100659107D01*
X129881063Y-100659106D01*
X129589270Y-100619000D01*
X129294730Y-100619000D01*
X129002936Y-100659106D01*
X129002930Y-100659107D01*
X128719314Y-100738573D01*
X128449172Y-100855911D01*
X128197503Y-101008955D01*
X128197499Y-101008958D01*
X128106524Y-101082971D01*
X128106524Y-101082972D01*
X128825959Y-101802406D01*
X128667314Y-101922210D01*
X128524356Y-102079027D01*
X128475071Y-102158623D01*
X127750838Y-101434390D01*
X127598133Y-101650726D01*
X127462629Y-101912239D01*
X127363996Y-102189764D01*
X127363991Y-102189781D01*
X127304069Y-102478145D01*
X127304068Y-102478147D01*
X127283969Y-102772000D01*
X127293935Y-102917710D01*
X127278871Y-102985936D01*
X127229312Y-103035187D01*
X127160993Y-103049827D01*
X127095605Y-103025207D01*
X127082543Y-103013852D01*
X125054026Y-100985335D01*
X125020541Y-100924012D01*
X125025525Y-100854320D01*
X125042441Y-100823343D01*
X125107861Y-100735954D01*
X125163795Y-100694083D01*
X125233486Y-100689099D01*
X125290666Y-100718628D01*
X125306348Y-100732924D01*
X125495266Y-100849897D01*
X125495272Y-100849900D01*
X125702473Y-100930169D01*
X125920899Y-100971000D01*
X126143101Y-100971000D01*
X126361525Y-100930169D01*
X126361535Y-100930166D01*
X126568729Y-100849899D01*
X126568731Y-100849898D01*
X126684601Y-100778153D01*
X126115837Y-100209389D01*
X126164647Y-100202033D01*
X126285509Y-100143829D01*
X126383844Y-100052587D01*
X126450917Y-99936413D01*
X126469323Y-99855770D01*
X127040147Y-100426594D01*
X127055776Y-100405898D01*
X127055783Y-100405886D01*
X127154817Y-100206999D01*
X127154825Y-100206979D01*
X127215633Y-99993261D01*
X127215634Y-99993259D01*
X127236137Y-99772000D01*
X127236137Y-99771999D01*
X127215634Y-99550740D01*
X127215633Y-99550738D01*
X127154825Y-99337020D01*
X127154819Y-99337005D01*
X127055781Y-99138110D01*
X127055776Y-99138103D01*
X127040146Y-99117404D01*
X126471785Y-99685766D01*
X126470743Y-99671860D01*
X126421734Y-99546987D01*
X126338095Y-99442108D01*
X126227259Y-99366541D01*
X126117700Y-99332746D01*
X126684601Y-98765845D01*
X126684600Y-98765844D01*
X126568733Y-98694102D01*
X126568727Y-98694099D01*
X126436552Y-98642895D01*
X126381151Y-98600322D01*
X126357560Y-98534555D01*
X126373271Y-98466475D01*
X126423295Y-98417696D01*
X126436548Y-98411642D01*
X126568954Y-98360349D01*
X126757957Y-98243323D01*
X126922239Y-98093560D01*
X127056205Y-97916161D01*
X127155292Y-97717166D01*
X127216128Y-97503352D01*
X127236639Y-97282000D01*
X127216128Y-97060648D01*
X127155292Y-96846834D01*
X127149650Y-96835504D01*
X127091802Y-96719328D01*
X127056205Y-96647839D01*
X126991382Y-96562000D01*
X126922237Y-96470437D01*
X126757958Y-96320678D01*
X126757957Y-96320677D01*
X126568954Y-96203651D01*
X126568952Y-96203650D01*
X126568951Y-96203649D01*
X126361668Y-96123348D01*
X126361667Y-96123347D01*
X126361665Y-96123347D01*
X126143150Y-96082500D01*
X125920850Y-96082500D01*
X125702335Y-96123347D01*
X125702333Y-96123347D01*
X125702331Y-96123348D01*
X125495048Y-96203649D01*
X125495047Y-96203650D01*
X125306041Y-96320678D01*
X125141762Y-96470437D01*
X125007795Y-96647838D01*
X124908712Y-96846823D01*
X124908707Y-96846836D01*
X124847871Y-97060648D01*
X124827361Y-97281999D01*
X124827361Y-97282000D01*
X124847871Y-97503351D01*
X124908707Y-97717163D01*
X124908712Y-97717176D01*
X125007795Y-97916161D01*
X125141762Y-98093562D01*
X125235110Y-98178659D01*
X125306043Y-98243323D01*
X125495046Y-98360349D01*
X125627447Y-98411641D01*
X125682848Y-98454214D01*
X125706439Y-98519981D01*
X125690728Y-98588061D01*
X125640704Y-98636840D01*
X125627447Y-98642894D01*
X125495281Y-98694095D01*
X125495266Y-98694102D01*
X125306346Y-98811076D01*
X125306344Y-98811078D01*
X125290663Y-98825373D01*
X125227858Y-98855989D01*
X125158471Y-98847789D01*
X125107861Y-98808046D01*
X125046882Y-98726590D01*
X125038546Y-98715454D01*
X125038544Y-98715453D01*
X125038544Y-98715452D01*
X124923335Y-98629206D01*
X124923328Y-98629202D01*
X124788482Y-98578908D01*
X124788483Y-98578908D01*
X124728883Y-98572501D01*
X124728881Y-98572500D01*
X124728873Y-98572500D01*
X124728864Y-98572500D01*
X123235129Y-98572500D01*
X123235123Y-98572501D01*
X123175516Y-98578908D01*
X123040671Y-98629202D01*
X123040664Y-98629206D01*
X122925455Y-98715452D01*
X122925452Y-98715455D01*
X122839206Y-98830664D01*
X122839202Y-98830671D01*
X122788908Y-98965517D01*
X122782501Y-99025116D01*
X122782500Y-99025135D01*
X122782500Y-99422193D01*
X122762815Y-99489232D01*
X122710011Y-99534987D01*
X122640853Y-99544931D01*
X122577297Y-99515906D01*
X122539523Y-99457128D01*
X122539234Y-99456128D01*
X122520138Y-99389012D01*
X122505292Y-99336834D01*
X122500395Y-99327000D01*
X122435414Y-99196500D01*
X122406205Y-99137839D01*
X122289171Y-98982861D01*
X122272237Y-98960437D01*
X122107958Y-98810678D01*
X122107957Y-98810677D01*
X121918954Y-98693651D01*
X121918952Y-98693650D01*
X121918951Y-98693649D01*
X121711668Y-98613348D01*
X121711667Y-98613347D01*
X121711665Y-98613347D01*
X121493150Y-98572500D01*
X121270850Y-98572500D01*
X121052335Y-98613347D01*
X121052333Y-98613347D01*
X121052331Y-98613348D01*
X120845048Y-98693649D01*
X120845047Y-98693650D01*
X120656041Y-98810678D01*
X120491762Y-98960437D01*
X120455954Y-99007856D01*
X120399845Y-99049492D01*
X120330133Y-99054183D01*
X120268951Y-99020441D01*
X120258046Y-99007856D01*
X120222237Y-98960437D01*
X120057958Y-98810678D01*
X120057957Y-98810677D01*
X119868954Y-98693651D01*
X119868952Y-98693650D01*
X119868951Y-98693649D01*
X119764635Y-98653237D01*
X119737244Y-98642626D01*
X119681844Y-98600054D01*
X119658253Y-98534287D01*
X119673964Y-98466207D01*
X119723988Y-98417428D01*
X119737241Y-98411374D01*
X119868954Y-98360349D01*
X120057957Y-98243323D01*
X120222239Y-98093560D01*
X120356205Y-97916161D01*
X120455292Y-97717166D01*
X120516128Y-97503352D01*
X120536639Y-97282000D01*
X120516128Y-97060648D01*
X120455292Y-96846834D01*
X120449650Y-96835504D01*
X120391802Y-96719328D01*
X120356205Y-96647839D01*
X120291382Y-96562000D01*
X120222237Y-96470437D01*
X120057958Y-96320678D01*
X120057957Y-96320677D01*
X119868954Y-96203651D01*
X119868952Y-96203650D01*
X119868951Y-96203649D01*
X119661668Y-96123348D01*
X119661667Y-96123347D01*
X119661665Y-96123347D01*
X119443150Y-96082500D01*
X119220850Y-96082500D01*
X119002335Y-96123347D01*
X119002333Y-96123347D01*
X119002331Y-96123348D01*
X118795048Y-96203649D01*
X118795047Y-96203650D01*
X118606041Y-96320678D01*
X118441762Y-96470437D01*
X118307795Y-96647838D01*
X118208712Y-96846823D01*
X118208707Y-96846836D01*
X118147871Y-97060648D01*
X118127361Y-97281999D01*
X118127361Y-97282000D01*
X118147871Y-97503351D01*
X118208707Y-97717163D01*
X118208712Y-97717176D01*
X118307795Y-97916161D01*
X118441762Y-98093562D01*
X118535110Y-98178659D01*
X118606043Y-98243323D01*
X118795046Y-98360349D01*
X118795047Y-98360349D01*
X118795048Y-98360350D01*
X118926754Y-98411373D01*
X118982156Y-98453946D01*
X119005746Y-98519713D01*
X118990035Y-98587793D01*
X118940011Y-98636572D01*
X118926754Y-98642627D01*
X118795048Y-98693649D01*
X118795047Y-98693650D01*
X118606041Y-98810678D01*
X118441762Y-98960437D01*
X118307795Y-99137838D01*
X118208712Y-99336823D01*
X118208707Y-99336836D01*
X118147871Y-99550648D01*
X118127361Y-99771999D01*
X118127361Y-99772000D01*
X118147871Y-99993351D01*
X118208707Y-100207163D01*
X118208712Y-100207176D01*
X118307795Y-100406161D01*
X118441762Y-100583562D01*
X118562244Y-100693395D01*
X118606043Y-100733323D01*
X118795046Y-100850349D01*
X118795047Y-100850349D01*
X118795048Y-100850350D01*
X118805296Y-100854320D01*
X119002335Y-100930653D01*
X119220850Y-100971500D01*
X119220853Y-100971500D01*
X119443147Y-100971500D01*
X119443150Y-100971500D01*
X119661665Y-100930653D01*
X119868954Y-100850349D01*
X120057957Y-100733323D01*
X120222239Y-100583560D01*
X120258047Y-100536142D01*
X120314154Y-100494508D01*
X120383866Y-100489815D01*
X120445048Y-100523557D01*
X120455946Y-100536134D01*
X120491761Y-100583560D01*
X120656043Y-100733323D01*
X120845046Y-100850349D01*
X120845047Y-100850349D01*
X120845048Y-100850350D01*
X120855296Y-100854320D01*
X121052335Y-100930653D01*
X121270850Y-100971500D01*
X121270853Y-100971500D01*
X121493147Y-100971500D01*
X121493150Y-100971500D01*
X121711665Y-100930653D01*
X121918954Y-100850349D01*
X122107957Y-100733323D01*
X122272239Y-100583560D01*
X122406205Y-100406161D01*
X122505292Y-100207166D01*
X122539235Y-100087868D01*
X122576513Y-100028778D01*
X122639822Y-99999220D01*
X122709062Y-100008582D01*
X122762249Y-100053891D01*
X122782496Y-100120763D01*
X122782500Y-100121805D01*
X122782500Y-100518870D01*
X122782501Y-100518876D01*
X122788908Y-100578483D01*
X122839202Y-100713328D01*
X122839206Y-100713335D01*
X122925452Y-100828544D01*
X122925455Y-100828547D01*
X123040664Y-100914793D01*
X123040671Y-100914797D01*
X123065378Y-100924012D01*
X123175517Y-100965091D01*
X123235127Y-100971500D01*
X123288698Y-100971499D01*
X123355736Y-100991182D01*
X123399404Y-101041578D01*
X123399411Y-101041575D01*
X123399430Y-101041608D01*
X123401491Y-101043986D01*
X123402497Y-101046247D01*
X123403378Y-101048284D01*
X123413580Y-101065534D01*
X123422138Y-101083003D01*
X123429514Y-101101632D01*
X123455181Y-101136960D01*
X123461593Y-101146721D01*
X123483828Y-101184317D01*
X123483833Y-101184324D01*
X123497990Y-101198480D01*
X123510628Y-101213276D01*
X123522405Y-101229486D01*
X123522406Y-101229487D01*
X123556057Y-101257325D01*
X123564698Y-101265188D01*
X123727222Y-101427712D01*
X123760707Y-101489035D01*
X123755723Y-101558727D01*
X123713851Y-101614660D01*
X123648387Y-101639077D01*
X123590140Y-101629127D01*
X123404685Y-101548573D01*
X123121069Y-101469107D01*
X123121063Y-101469106D01*
X122829270Y-101429000D01*
X122534730Y-101429000D01*
X122242936Y-101469106D01*
X122242930Y-101469107D01*
X121959314Y-101548573D01*
X121689172Y-101665911D01*
X121437503Y-101818955D01*
X121437499Y-101818958D01*
X121346524Y-101892971D01*
X121346524Y-101892972D01*
X122065959Y-102612406D01*
X121907314Y-102732210D01*
X121764356Y-102889027D01*
X121715071Y-102968623D01*
X120990838Y-102244390D01*
X120838133Y-102460726D01*
X120702629Y-102722239D01*
X120603996Y-102999764D01*
X120603991Y-102999781D01*
X120544069Y-103288145D01*
X120544068Y-103288147D01*
X120523969Y-103582000D01*
X120544068Y-103875852D01*
X120544069Y-103875854D01*
X120603991Y-104164218D01*
X120603996Y-104164235D01*
X120702629Y-104441760D01*
X120838136Y-104703279D01*
X120838140Y-104703285D01*
X120990838Y-104919608D01*
X121715071Y-104195375D01*
X121764356Y-104274973D01*
X121907314Y-104431790D01*
X122065958Y-104551592D01*
X121346524Y-105271026D01*
X121437506Y-105345046D01*
X121689172Y-105498088D01*
X121959314Y-105615426D01*
X122242930Y-105694892D01*
X122242936Y-105694893D01*
X122534730Y-105735000D01*
X122829270Y-105735000D01*
X123121063Y-105694893D01*
X123121069Y-105694892D01*
X123404685Y-105615426D01*
X123674827Y-105498088D01*
X123926493Y-105345046D01*
X123926502Y-105345040D01*
X124017473Y-105271026D01*
X123298040Y-104551593D01*
X123456686Y-104431790D01*
X123599644Y-104274973D01*
X123648928Y-104195375D01*
X124373160Y-104919607D01*
X124525863Y-104703278D01*
X124661370Y-104441760D01*
X124760003Y-104164235D01*
X124760008Y-104164218D01*
X124819930Y-103875854D01*
X124819931Y-103875852D01*
X124840030Y-103582000D01*
X124819931Y-103288147D01*
X124819930Y-103288145D01*
X124760008Y-102999781D01*
X124760003Y-102999764D01*
X124661370Y-102722237D01*
X124661369Y-102722235D01*
X124642154Y-102685152D01*
X124628788Y-102616572D01*
X124654622Y-102551654D01*
X124711452Y-102511007D01*
X124781235Y-102507538D01*
X124839932Y-102540422D01*
X128767829Y-106468319D01*
X128801314Y-106529642D01*
X128796330Y-106599334D01*
X128754458Y-106655267D01*
X128688994Y-106679684D01*
X128680148Y-106680000D01*
X101651362Y-106680000D01*
X101584323Y-106660315D01*
X101563681Y-106643681D01*
X97692000Y-102772000D01*
X113763969Y-102772000D01*
X113784068Y-103065852D01*
X113784069Y-103065854D01*
X113843991Y-103354218D01*
X113843996Y-103354235D01*
X113942629Y-103631760D01*
X114078136Y-103893279D01*
X114078140Y-103893285D01*
X114230838Y-104109608D01*
X114955071Y-103385375D01*
X115004356Y-103464973D01*
X115147314Y-103621790D01*
X115305958Y-103741592D01*
X114586524Y-104461026D01*
X114677506Y-104535046D01*
X114929172Y-104688088D01*
X115199314Y-104805426D01*
X115482930Y-104884892D01*
X115482936Y-104884893D01*
X115774730Y-104925000D01*
X116069270Y-104925000D01*
X116361063Y-104884893D01*
X116361069Y-104884892D01*
X116644685Y-104805426D01*
X116914827Y-104688088D01*
X117166493Y-104535046D01*
X117166502Y-104535040D01*
X117257473Y-104461026D01*
X116538040Y-103741593D01*
X116696686Y-103621790D01*
X116839644Y-103464973D01*
X116888928Y-103385375D01*
X117613160Y-104109607D01*
X117765863Y-103893278D01*
X117901370Y-103631760D01*
X118000003Y-103354235D01*
X118000008Y-103354218D01*
X118059930Y-103065854D01*
X118059931Y-103065852D01*
X118080030Y-102772000D01*
X118059931Y-102478147D01*
X118059930Y-102478145D01*
X118000008Y-102189781D01*
X118000003Y-102189764D01*
X117901370Y-101912239D01*
X117765863Y-101650720D01*
X117765859Y-101650714D01*
X117613161Y-101434391D01*
X116888928Y-102158623D01*
X116839644Y-102079027D01*
X116696686Y-101922210D01*
X116538040Y-101802406D01*
X117257474Y-101082972D01*
X117166493Y-101008953D01*
X116914827Y-100855911D01*
X116644685Y-100738573D01*
X116361069Y-100659107D01*
X116361063Y-100659106D01*
X116069270Y-100619000D01*
X115774730Y-100619000D01*
X115482936Y-100659106D01*
X115482930Y-100659107D01*
X115199314Y-100738573D01*
X114929172Y-100855911D01*
X114677503Y-101008955D01*
X114677499Y-101008958D01*
X114586524Y-101082971D01*
X114586524Y-101082972D01*
X115305959Y-101802406D01*
X115147314Y-101922210D01*
X115004356Y-102079027D01*
X114955071Y-102158623D01*
X114230838Y-101434390D01*
X114078133Y-101650726D01*
X113942629Y-101912239D01*
X113843996Y-102189764D01*
X113843991Y-102189781D01*
X113784069Y-102478145D01*
X113784068Y-102478147D01*
X113763969Y-102772000D01*
X97692000Y-102772000D01*
X95482599Y-100562599D01*
X101174976Y-100562599D01*
X101174978Y-100562600D01*
X102238314Y-100562600D01*
X102226359Y-100574555D01*
X102168835Y-100687452D01*
X102149014Y-100812600D01*
X102168835Y-100937748D01*
X102226359Y-101050645D01*
X102238314Y-101062600D01*
X101174977Y-101062600D01*
X101194916Y-101182092D01*
X101275630Y-101417203D01*
X101275635Y-101417214D01*
X101393942Y-101635828D01*
X101393948Y-101635837D01*
X101546626Y-101831997D01*
X101546635Y-101832007D01*
X101729522Y-102000367D01*
X101729521Y-102000367D01*
X101937632Y-102136332D01*
X102165282Y-102236187D01*
X102406261Y-102297212D01*
X102406269Y-102297214D01*
X102591945Y-102312599D01*
X102591961Y-102312600D01*
X103404000Y-102312600D01*
X103404000Y-101212600D01*
X103904000Y-101212600D01*
X103904000Y-102312600D01*
X104716039Y-102312600D01*
X104716054Y-102312599D01*
X104901730Y-102297214D01*
X104901738Y-102297212D01*
X105142717Y-102236187D01*
X105370367Y-102136332D01*
X105578478Y-102000367D01*
X105761364Y-101832007D01*
X105761373Y-101831997D01*
X105914051Y-101635837D01*
X105914057Y-101635828D01*
X106032364Y-101417214D01*
X106032369Y-101417203D01*
X106113083Y-101182092D01*
X106133023Y-101062600D01*
X105069686Y-101062600D01*
X105081641Y-101050645D01*
X105139165Y-100937748D01*
X105158986Y-100812600D01*
X105139165Y-100687452D01*
X105081641Y-100574555D01*
X105069686Y-100562600D01*
X106133022Y-100562600D01*
X106133023Y-100562599D01*
X106113083Y-100443107D01*
X106032369Y-100207996D01*
X106032364Y-100207985D01*
X105914057Y-99989371D01*
X105914051Y-99989362D01*
X105761373Y-99793202D01*
X105761364Y-99793192D01*
X105578477Y-99624832D01*
X105578478Y-99624832D01*
X105370367Y-99488867D01*
X105142717Y-99389012D01*
X104901738Y-99327987D01*
X104901730Y-99327985D01*
X104716054Y-99312600D01*
X103904000Y-99312600D01*
X103904000Y-100412600D01*
X103404000Y-100412600D01*
X103404000Y-99312600D01*
X102591945Y-99312600D01*
X102406269Y-99327985D01*
X102406261Y-99327987D01*
X102165282Y-99389012D01*
X101937632Y-99488867D01*
X101729521Y-99624832D01*
X101546635Y-99793192D01*
X101546626Y-99793202D01*
X101393948Y-99989362D01*
X101393942Y-99989371D01*
X101275635Y-100207985D01*
X101275630Y-100207996D01*
X101194916Y-100443107D01*
X101174976Y-100562599D01*
X95482599Y-100562599D01*
X95136680Y-100216680D01*
X95103195Y-100155357D01*
X95108179Y-100085665D01*
X95150051Y-100029732D01*
X95215515Y-100005315D01*
X95224333Y-100004999D01*
X97313872Y-100004999D01*
X97373483Y-99998591D01*
X97508331Y-99948296D01*
X97623546Y-99862046D01*
X97709796Y-99746831D01*
X97760091Y-99611983D01*
X97766500Y-99552373D01*
X97766499Y-98551805D01*
X106779000Y-98551805D01*
X106793759Y-98744038D01*
X106793759Y-98744043D01*
X106852361Y-98994465D01*
X106948503Y-99233015D01*
X107079936Y-99454093D01*
X107243574Y-99652516D01*
X107435583Y-99823635D01*
X107651465Y-99963437D01*
X107886156Y-100068648D01*
X108134150Y-100136798D01*
X108134156Y-100136800D01*
X108203999Y-100144863D01*
X108204000Y-100144863D01*
X108204000Y-98978286D01*
X108215955Y-98990241D01*
X108328852Y-99047765D01*
X108454000Y-99067586D01*
X108579148Y-99047765D01*
X108692045Y-98990241D01*
X108704000Y-98978286D01*
X108704000Y-100145323D01*
X108899151Y-100107476D01*
X108899153Y-100107476D01*
X109141201Y-100020543D01*
X109367158Y-99897671D01*
X109571695Y-99741759D01*
X109750046Y-99556442D01*
X109750049Y-99556438D01*
X109898016Y-99346074D01*
X110012137Y-99115587D01*
X110012138Y-99115584D01*
X110089737Y-98870381D01*
X110129000Y-98616192D01*
X110129000Y-97562600D01*
X108854000Y-97562600D01*
X108854000Y-97062600D01*
X110129000Y-97062600D01*
X110129000Y-96073400D01*
X110128999Y-96073394D01*
X110114240Y-95881161D01*
X110114240Y-95881156D01*
X110055638Y-95630734D01*
X109959496Y-95392184D01*
X109828063Y-95171106D01*
X109664425Y-94972683D01*
X109472416Y-94801564D01*
X109256534Y-94661762D01*
X109021843Y-94556551D01*
X108773846Y-94488400D01*
X108773844Y-94488399D01*
X108704000Y-94480336D01*
X108704000Y-95646914D01*
X108692045Y-95634959D01*
X108579148Y-95577435D01*
X108454000Y-95557614D01*
X108328852Y-95577435D01*
X108215955Y-95634959D01*
X108204000Y-95646914D01*
X108204000Y-94479875D01*
X108008846Y-94517723D01*
X107766798Y-94604656D01*
X107540841Y-94727528D01*
X107336304Y-94883440D01*
X107157953Y-95068757D01*
X107157950Y-95068761D01*
X107009983Y-95279125D01*
X106895862Y-95509612D01*
X106895861Y-95509615D01*
X106818262Y-95754818D01*
X106779000Y-96009007D01*
X106779000Y-97062600D01*
X108054000Y-97062600D01*
X108054000Y-97562600D01*
X106779000Y-97562600D01*
X106779000Y-98551805D01*
X97766499Y-98551805D01*
X97766499Y-97551628D01*
X97760091Y-97492017D01*
X97744288Y-97449648D01*
X97709797Y-97357171D01*
X97709793Y-97357164D01*
X97623547Y-97241955D01*
X97623544Y-97241952D01*
X97508335Y-97155706D01*
X97508326Y-97155701D01*
X97477196Y-97144091D01*
X97421262Y-97102221D01*
X97396844Y-97036757D01*
X97411695Y-96968484D01*
X97422675Y-96951746D01*
X97533653Y-96809162D01*
X97533655Y-96809159D01*
X97648215Y-96597468D01*
X97648221Y-96597454D01*
X97726380Y-96369791D01*
X97744367Y-96262000D01*
X96760852Y-96262000D01*
X96809559Y-96124953D01*
X96819877Y-95974114D01*
X96789116Y-95826085D01*
X96755910Y-95762000D01*
X97744366Y-95762000D01*
X97744366Y-95761999D01*
X97726380Y-95654208D01*
X97648221Y-95426545D01*
X97648215Y-95426531D01*
X97533655Y-95214840D01*
X97533649Y-95214831D01*
X97385806Y-95024883D01*
X97385797Y-95024873D01*
X97290272Y-94936935D01*
X101153500Y-94936935D01*
X101167143Y-95018694D01*
X101194429Y-95182216D01*
X101275169Y-95417402D01*
X101275172Y-95417411D01*
X101393524Y-95636106D01*
X101393526Y-95636109D01*
X101546262Y-95832344D01*
X101690367Y-95965002D01*
X101729217Y-96000766D01*
X101937393Y-96136773D01*
X102165118Y-96236663D01*
X102286555Y-96267415D01*
X102406179Y-96297708D01*
X102406181Y-96297708D01*
X102406186Y-96297709D01*
X102559589Y-96310419D01*
X102591933Y-96313100D01*
X102591937Y-96313100D01*
X104716063Y-96313100D01*
X104716067Y-96313100D01*
X104778677Y-96307911D01*
X104901813Y-96297709D01*
X104901816Y-96297708D01*
X104901821Y-96297708D01*
X105142881Y-96236663D01*
X105370607Y-96136773D01*
X105578785Y-96000764D01*
X105761738Y-95832344D01*
X105914474Y-95636109D01*
X106032828Y-95417410D01*
X106113571Y-95182214D01*
X106154500Y-94936935D01*
X106154500Y-94688265D01*
X106113571Y-94442986D01*
X106032828Y-94207790D01*
X105914474Y-93989091D01*
X105761738Y-93792856D01*
X105578785Y-93624436D01*
X105578782Y-93624433D01*
X105370606Y-93488426D01*
X105142881Y-93388536D01*
X104901824Y-93327492D01*
X104901813Y-93327490D01*
X104716077Y-93312100D01*
X104716067Y-93312100D01*
X102591933Y-93312100D01*
X102591922Y-93312100D01*
X102406186Y-93327490D01*
X102406175Y-93327492D01*
X102165118Y-93388536D01*
X101937393Y-93488426D01*
X101729217Y-93624433D01*
X101546261Y-93792857D01*
X101393524Y-93989093D01*
X101275172Y-94207788D01*
X101275169Y-94207797D01*
X101194429Y-94442983D01*
X101155744Y-94674818D01*
X101153500Y-94688265D01*
X101153500Y-94936935D01*
X97290272Y-94936935D01*
X97208710Y-94861851D01*
X97208704Y-94861847D01*
X97184611Y-94846106D01*
X97139255Y-94792959D01*
X97129832Y-94723728D01*
X97159335Y-94660392D01*
X97184608Y-94638493D01*
X97209010Y-94622551D01*
X97386171Y-94459463D01*
X97479078Y-94340095D01*
X97533373Y-94270338D01*
X97590083Y-94229525D01*
X97631226Y-94222500D01*
X98829884Y-94222500D01*
X98847859Y-94223810D01*
X98849884Y-94224106D01*
X98871599Y-94227288D01*
X98920961Y-94222970D01*
X98931764Y-94222500D01*
X98937304Y-94222500D01*
X98937309Y-94222500D01*
X98968115Y-94218898D01*
X98971626Y-94218539D01*
X99046374Y-94212003D01*
X99046379Y-94212001D01*
X99046382Y-94212001D01*
X99053452Y-94210542D01*
X99053464Y-94210600D01*
X99060844Y-94208963D01*
X99060831Y-94208905D01*
X99067846Y-94207242D01*
X99067855Y-94207241D01*
X99138352Y-94181581D01*
X99141668Y-94180428D01*
X99212912Y-94156824D01*
X99212922Y-94156817D01*
X99219461Y-94153770D01*
X99219486Y-94153824D01*
X99226291Y-94150529D01*
X99226265Y-94150477D01*
X99232717Y-94147237D01*
X99295399Y-94106009D01*
X99298365Y-94104119D01*
X99362236Y-94064727D01*
X99362243Y-94064719D01*
X99367902Y-94060246D01*
X99367939Y-94060293D01*
X99373799Y-94055520D01*
X99373761Y-94055474D01*
X99379290Y-94050834D01*
X99379290Y-94050833D01*
X99379296Y-94050830D01*
X99430810Y-93996227D01*
X99433253Y-93993713D01*
X103655973Y-89771265D01*
X104841500Y-88585815D01*
X104902824Y-88552332D01*
X104929178Y-88549499D01*
X105964471Y-88549499D01*
X105964472Y-88549499D01*
X106024083Y-88543091D01*
X106158931Y-88492796D01*
X106274146Y-88406546D01*
X106360396Y-88291331D01*
X106410691Y-88156483D01*
X106417100Y-88096873D01*
X106417099Y-88096845D01*
X106417278Y-88093547D01*
X106418783Y-88093627D01*
X106436712Y-88032326D01*
X106489468Y-87986514D01*
X106533065Y-87978981D01*
X107218646Y-87293400D01*
X107231435Y-87374148D01*
X107288959Y-87487045D01*
X107378555Y-87576641D01*
X107491452Y-87634165D01*
X107572199Y-87646953D01*
X106891126Y-88328025D01*
X106964113Y-88379132D01*
X106964121Y-88379136D01*
X107170268Y-88475264D01*
X107170282Y-88475269D01*
X107389989Y-88534139D01*
X107390000Y-88534141D01*
X107616598Y-88553966D01*
X107616602Y-88553966D01*
X107843199Y-88534141D01*
X107843210Y-88534139D01*
X108062917Y-88475269D01*
X108062931Y-88475264D01*
X108269078Y-88379136D01*
X108342071Y-88328024D01*
X107661000Y-87646953D01*
X107741748Y-87634165D01*
X107854645Y-87576641D01*
X107944241Y-87487045D01*
X108001765Y-87374148D01*
X108014553Y-87293400D01*
X108695624Y-87974471D01*
X108746736Y-87901478D01*
X108842864Y-87695331D01*
X108842869Y-87695317D01*
X108901739Y-87475610D01*
X108901741Y-87475599D01*
X108921566Y-87249002D01*
X108921566Y-87248997D01*
X108901741Y-87022400D01*
X108901739Y-87022389D01*
X108842869Y-86802682D01*
X108842865Y-86802673D01*
X108746733Y-86596516D01*
X108746729Y-86596510D01*
X108709698Y-86543624D01*
X108687370Y-86477418D01*
X108704380Y-86409651D01*
X108755327Y-86361837D01*
X108811272Y-86348500D01*
X112157337Y-86348500D01*
X112224376Y-86368185D01*
X112258912Y-86401377D01*
X112283954Y-86437141D01*
X112444859Y-86598046D01*
X112480621Y-86623086D01*
X112524247Y-86677662D01*
X112533500Y-86724662D01*
X112533500Y-89297336D01*
X112513815Y-89364375D01*
X112480625Y-89398910D01*
X112444863Y-89423951D01*
X112283951Y-89584862D01*
X112153432Y-89771265D01*
X112153431Y-89771267D01*
X112057261Y-89977502D01*
X112057258Y-89977511D01*
X111998366Y-90197302D01*
X111998364Y-90197313D01*
X111978532Y-90423998D01*
X111978532Y-90424001D01*
X111998364Y-90650686D01*
X111998366Y-90650697D01*
X112057258Y-90870488D01*
X112057261Y-90870497D01*
X112153431Y-91076732D01*
X112153432Y-91076734D01*
X112283954Y-91263141D01*
X112444858Y-91424045D01*
X112444861Y-91424047D01*
X112631266Y-91554568D01*
X112837504Y-91650739D01*
X113057308Y-91709635D01*
X113219230Y-91723801D01*
X113283998Y-91729468D01*
X113284000Y-91729468D01*
X113284002Y-91729468D01*
X113340673Y-91724509D01*
X113510692Y-91709635D01*
X113730496Y-91650739D01*
X113936734Y-91554568D01*
X114123139Y-91424047D01*
X114284047Y-91263139D01*
X114414568Y-91076734D01*
X114510739Y-90870496D01*
X114569635Y-90650692D01*
X114589468Y-90424000D01*
X114569635Y-90197308D01*
X114510739Y-89977504D01*
X114414568Y-89771266D01*
X114284047Y-89584861D01*
X114123139Y-89423953D01*
X114118373Y-89420615D01*
X114087375Y-89398910D01*
X114043751Y-89344332D01*
X114034500Y-89297336D01*
X114034500Y-86724662D01*
X114054185Y-86657623D01*
X114087379Y-86623086D01*
X114093443Y-86618840D01*
X114123139Y-86598047D01*
X114284047Y-86437139D01*
X114414568Y-86250734D01*
X114510739Y-86044496D01*
X114569635Y-85824692D01*
X114589468Y-85598000D01*
X114588816Y-85590553D01*
X114576817Y-85453396D01*
X114569635Y-85371308D01*
X114510739Y-85151504D01*
X114414568Y-84945266D01*
X114284047Y-84758861D01*
X114284045Y-84758858D01*
X114123141Y-84597954D01*
X113936734Y-84467432D01*
X113936732Y-84467431D01*
X113730497Y-84371261D01*
X113730488Y-84371258D01*
X113510697Y-84312366D01*
X113510693Y-84312365D01*
X113510692Y-84312365D01*
X113510691Y-84312364D01*
X113510686Y-84312364D01*
X113284002Y-84292532D01*
X113283998Y-84292532D01*
X113057313Y-84312364D01*
X113057302Y-84312366D01*
X112837511Y-84371258D01*
X112837502Y-84371261D01*
X112631267Y-84467431D01*
X112631265Y-84467432D01*
X112444858Y-84597954D01*
X112283954Y-84758858D01*
X112258912Y-84794623D01*
X112204335Y-84838248D01*
X112157337Y-84847500D01*
X106831705Y-84847500D01*
X106813735Y-84846191D01*
X106789972Y-84842710D01*
X106742843Y-84846834D01*
X106740630Y-84847028D01*
X106729824Y-84847500D01*
X106724284Y-84847500D01*
X106693501Y-84851098D01*
X106689916Y-84851464D01*
X106615199Y-84858001D01*
X106608132Y-84859460D01*
X106608120Y-84859404D01*
X106600763Y-84861035D01*
X106600777Y-84861092D01*
X106593740Y-84862760D01*
X106523231Y-84888421D01*
X106519854Y-84889595D01*
X106496904Y-84897201D01*
X106448668Y-84913185D01*
X106442126Y-84916236D01*
X106442101Y-84916183D01*
X106435308Y-84919471D01*
X106435334Y-84919523D01*
X106428880Y-84922764D01*
X106366221Y-84963975D01*
X106363181Y-84965912D01*
X106299348Y-85005285D01*
X106293683Y-85009765D01*
X106293647Y-85009719D01*
X106287798Y-85014484D01*
X106287835Y-85014528D01*
X106282305Y-85019168D01*
X106230833Y-85073724D01*
X106228321Y-85076310D01*
X105454750Y-85849880D01*
X105451105Y-85853126D01*
X105448865Y-85855365D01*
X105445650Y-85857984D01*
X105444040Y-85859418D01*
X105442129Y-85860931D01*
X105442091Y-85860883D01*
X105436198Y-85865684D01*
X105436235Y-85865728D01*
X105430705Y-85870367D01*
X105393696Y-85909595D01*
X105333373Y-85944849D01*
X105303503Y-85948500D01*
X104929189Y-85948500D01*
X104862150Y-85928815D01*
X104841510Y-85912183D01*
X104828324Y-85898998D01*
X97881849Y-78952870D01*
X103863700Y-78952870D01*
X103863701Y-78952876D01*
X103870108Y-79012483D01*
X103920402Y-79147328D01*
X103920406Y-79147335D01*
X104006652Y-79262544D01*
X104006655Y-79262547D01*
X104121864Y-79348793D01*
X104121871Y-79348797D01*
X104256717Y-79399091D01*
X104256716Y-79399091D01*
X104263644Y-79399835D01*
X104316327Y-79405500D01*
X106012072Y-79405499D01*
X106071683Y-79399091D01*
X106206531Y-79348796D01*
X106321746Y-79262546D01*
X106407996Y-79147331D01*
X106458291Y-79012483D01*
X106464700Y-78952873D01*
X106464699Y-78952845D01*
X106464878Y-78949547D01*
X106466383Y-78949627D01*
X106484312Y-78888326D01*
X106537068Y-78842514D01*
X106580665Y-78834981D01*
X107266246Y-78149400D01*
X107279035Y-78230148D01*
X107336559Y-78343045D01*
X107426155Y-78432641D01*
X107539052Y-78490165D01*
X107619799Y-78502953D01*
X106938726Y-79184025D01*
X107011713Y-79235132D01*
X107011721Y-79235136D01*
X107217868Y-79331264D01*
X107217882Y-79331269D01*
X107437589Y-79390139D01*
X107437600Y-79390141D01*
X107664198Y-79409966D01*
X107664202Y-79409966D01*
X107890799Y-79390141D01*
X107890810Y-79390139D01*
X108110517Y-79331269D01*
X108110531Y-79331264D01*
X108316678Y-79235136D01*
X108389671Y-79184024D01*
X107708600Y-78502953D01*
X107789348Y-78490165D01*
X107902245Y-78432641D01*
X107991841Y-78343045D01*
X108049365Y-78230148D01*
X108062153Y-78149400D01*
X108743224Y-78830471D01*
X108794336Y-78757478D01*
X108890464Y-78551331D01*
X108890469Y-78551317D01*
X108949339Y-78331610D01*
X108949341Y-78331599D01*
X108969166Y-78105002D01*
X108969166Y-78104997D01*
X108949341Y-77878400D01*
X108949339Y-77878389D01*
X108890469Y-77658682D01*
X108890464Y-77658668D01*
X108794336Y-77452521D01*
X108794332Y-77452513D01*
X108743225Y-77379526D01*
X108062153Y-78060598D01*
X108049365Y-77979852D01*
X107991841Y-77866955D01*
X107902245Y-77777359D01*
X107789348Y-77719835D01*
X107708601Y-77707046D01*
X108389672Y-77025974D01*
X108316678Y-76974863D01*
X108110531Y-76878735D01*
X108110517Y-76878730D01*
X107890810Y-76819860D01*
X107890799Y-76819858D01*
X107664202Y-76800034D01*
X107664198Y-76800034D01*
X107437600Y-76819858D01*
X107437589Y-76819860D01*
X107217882Y-76878730D01*
X107217873Y-76878734D01*
X107011716Y-76974866D01*
X107011712Y-76974868D01*
X106938726Y-77025973D01*
X106938726Y-77025974D01*
X107619799Y-77707046D01*
X107539052Y-77719835D01*
X107426155Y-77777359D01*
X107336559Y-77866955D01*
X107279035Y-77979852D01*
X107266246Y-78060598D01*
X106579999Y-77374351D01*
X106531005Y-77364505D01*
X106480822Y-77315889D01*
X106466181Y-77260366D01*
X106465100Y-77260423D01*
X106465054Y-77260429D01*
X106465053Y-77260426D01*
X106464876Y-77260436D01*
X106464699Y-77257135D01*
X106464699Y-77257128D01*
X106458291Y-77197517D01*
X106457668Y-77195847D01*
X106407997Y-77062671D01*
X106407993Y-77062664D01*
X106321747Y-76947455D01*
X106321744Y-76947452D01*
X106206535Y-76861206D01*
X106206528Y-76861202D01*
X106071682Y-76810908D01*
X106071683Y-76810908D01*
X106012083Y-76804501D01*
X106012081Y-76804500D01*
X106012073Y-76804500D01*
X106012064Y-76804500D01*
X104316329Y-76804500D01*
X104316323Y-76804501D01*
X104256716Y-76810908D01*
X104121871Y-76861202D01*
X104121864Y-76861206D01*
X104006655Y-76947452D01*
X104006652Y-76947455D01*
X103920406Y-77062664D01*
X103920402Y-77062671D01*
X103870108Y-77197517D01*
X103864308Y-77251468D01*
X103863701Y-77257123D01*
X103863700Y-77257135D01*
X103863700Y-78952870D01*
X97881849Y-78952870D01*
X97775484Y-78846510D01*
X97749729Y-78806083D01*
X97749027Y-78806411D01*
X97725197Y-78755308D01*
X97650568Y-78595266D01*
X97520047Y-78408861D01*
X97520045Y-78408858D01*
X97359141Y-78247954D01*
X97172734Y-78117432D01*
X97172732Y-78117431D01*
X96966497Y-78021261D01*
X96966488Y-78021258D01*
X96746697Y-77962366D01*
X96746693Y-77962365D01*
X96746692Y-77962365D01*
X96746691Y-77962364D01*
X96746686Y-77962364D01*
X96520002Y-77942532D01*
X96519998Y-77942532D01*
X96293313Y-77962364D01*
X96293302Y-77962366D01*
X96073511Y-78021258D01*
X96073502Y-78021261D01*
X95867267Y-78117431D01*
X95867265Y-78117432D01*
X95680858Y-78247954D01*
X95519954Y-78408858D01*
X95389432Y-78595265D01*
X95389431Y-78595267D01*
X95293261Y-78801502D01*
X95293258Y-78801511D01*
X95234366Y-79021302D01*
X95234364Y-79021313D01*
X95214532Y-79247998D01*
X95214532Y-79248001D01*
X95234364Y-79474686D01*
X95234366Y-79474697D01*
X95293258Y-79694488D01*
X95293261Y-79694497D01*
X95389431Y-79900732D01*
X95389432Y-79900734D01*
X95519954Y-80087141D01*
X95680858Y-80248045D01*
X95687295Y-80252552D01*
X95867266Y-80378568D01*
X96073504Y-80474739D01*
X96293308Y-80533635D01*
X96455230Y-80547801D01*
X96519998Y-80553468D01*
X96520000Y-80553468D01*
X96520002Y-80553468D01*
X96576673Y-80548509D01*
X96746692Y-80533635D01*
X96966496Y-80474739D01*
X97102296Y-80411413D01*
X97171371Y-80400922D01*
X97235155Y-80429441D01*
X97242378Y-80436113D01*
X97351573Y-80545302D01*
X98117809Y-81311500D01*
X98124662Y-81318352D01*
X98158149Y-81379674D01*
X98153166Y-81449366D01*
X98111296Y-81505300D01*
X98081777Y-81521661D01*
X98003201Y-81552101D01*
X98003186Y-81552108D01*
X97821286Y-81664736D01*
X97821283Y-81664738D01*
X97821279Y-81664740D01*
X97821278Y-81664742D01*
X97785367Y-81697479D01*
X97663157Y-81808887D01*
X97618954Y-81867422D01*
X97562844Y-81909058D01*
X97493132Y-81913749D01*
X97431951Y-81880007D01*
X97421046Y-81867422D01*
X97376842Y-81808887D01*
X97353464Y-81787575D01*
X97218722Y-81664742D01*
X97218716Y-81664738D01*
X97218713Y-81664736D01*
X97036813Y-81552108D01*
X97036807Y-81552106D01*
X96837297Y-81474815D01*
X96626980Y-81435500D01*
X96413020Y-81435500D01*
X96202703Y-81474815D01*
X96103032Y-81513428D01*
X96003192Y-81552106D01*
X96003186Y-81552108D01*
X95821286Y-81664736D01*
X95821277Y-81664743D01*
X95788405Y-81694709D01*
X95725601Y-81725325D01*
X95656214Y-81717125D01*
X95605603Y-81677382D01*
X95531546Y-81578454D01*
X95508709Y-81561358D01*
X95416335Y-81492206D01*
X95416328Y-81492202D01*
X95281482Y-81441908D01*
X95281483Y-81441908D01*
X95221883Y-81435501D01*
X95221881Y-81435500D01*
X95221873Y-81435500D01*
X95221865Y-81435500D01*
X94104000Y-81435500D01*
X94036961Y-81415815D01*
X93991206Y-81363011D01*
X93980000Y-81311500D01*
X93980000Y-71120001D01*
X111978532Y-71120001D01*
X111998364Y-71346686D01*
X111998366Y-71346697D01*
X112057258Y-71566488D01*
X112057261Y-71566497D01*
X112153431Y-71772732D01*
X112153432Y-71772734D01*
X112283954Y-71959141D01*
X112444858Y-72120045D01*
X112444861Y-72120047D01*
X112631266Y-72250568D01*
X112837504Y-72346739D01*
X113057308Y-72405635D01*
X113219230Y-72419801D01*
X113283998Y-72425468D01*
X113284000Y-72425468D01*
X113284002Y-72425468D01*
X113340673Y-72420509D01*
X113510692Y-72405635D01*
X113730496Y-72346739D01*
X113936734Y-72250568D01*
X114123139Y-72120047D01*
X114284047Y-71959139D01*
X114414568Y-71772734D01*
X114510739Y-71566496D01*
X114569635Y-71346692D01*
X114589468Y-71120000D01*
X114569635Y-70893308D01*
X114516996Y-70696855D01*
X114510741Y-70673511D01*
X114510738Y-70673502D01*
X114482059Y-70612000D01*
X114414568Y-70467266D01*
X114284047Y-70280861D01*
X114284045Y-70280858D01*
X114123141Y-70119954D01*
X113936734Y-69989432D01*
X113936732Y-69989431D01*
X113730497Y-69893261D01*
X113730488Y-69893258D01*
X113510697Y-69834366D01*
X113510693Y-69834365D01*
X113510692Y-69834365D01*
X113510691Y-69834364D01*
X113510686Y-69834364D01*
X113284002Y-69814532D01*
X113283998Y-69814532D01*
X113057313Y-69834364D01*
X113057302Y-69834366D01*
X112837511Y-69893258D01*
X112837502Y-69893261D01*
X112631267Y-69989431D01*
X112631265Y-69989432D01*
X112444858Y-70119954D01*
X112283954Y-70280858D01*
X112153432Y-70467265D01*
X112153431Y-70467267D01*
X112057261Y-70673502D01*
X112057258Y-70673511D01*
X111998366Y-70893302D01*
X111998364Y-70893313D01*
X111978532Y-71119998D01*
X111978532Y-71120001D01*
X93980000Y-71120001D01*
X93980000Y-63551362D01*
X93999685Y-63484323D01*
X94016319Y-63463681D01*
X94908319Y-62571681D01*
X94969642Y-62538196D01*
X95039334Y-62543180D01*
X95095267Y-62585052D01*
X95119684Y-62650516D01*
X95120000Y-62659362D01*
X95120000Y-62791844D01*
X95126401Y-62851372D01*
X95126403Y-62851379D01*
X95176645Y-62986086D01*
X95176649Y-62986093D01*
X95262809Y-63101187D01*
X95262812Y-63101190D01*
X95377906Y-63187350D01*
X95377913Y-63187354D01*
X95458270Y-63217325D01*
X95514204Y-63259196D01*
X95538621Y-63324660D01*
X95523770Y-63392933D01*
X95506168Y-63417489D01*
X95411021Y-63520847D01*
X95411019Y-63520848D01*
X95411016Y-63520853D01*
X95284075Y-63715151D01*
X95190842Y-63927699D01*
X95133866Y-64152691D01*
X95133864Y-64152702D01*
X95114700Y-64383993D01*
X95114700Y-64384006D01*
X95133864Y-64615297D01*
X95133866Y-64615308D01*
X95190842Y-64840300D01*
X95284075Y-65052848D01*
X95411016Y-65247147D01*
X95411019Y-65247151D01*
X95411021Y-65247153D01*
X95568216Y-65417913D01*
X95568219Y-65417915D01*
X95568222Y-65417918D01*
X95751365Y-65560464D01*
X95751372Y-65560468D01*
X95751374Y-65560470D01*
X95768906Y-65569958D01*
X95829517Y-65602759D01*
X95879108Y-65651978D01*
X95894500Y-65711814D01*
X95894500Y-67873811D01*
X95874815Y-67940850D01*
X95841623Y-67975386D01*
X95680859Y-68087953D01*
X95519954Y-68248858D01*
X95389432Y-68435265D01*
X95389431Y-68435267D01*
X95293261Y-68641502D01*
X95293258Y-68641511D01*
X95234366Y-68861302D01*
X95234364Y-68861313D01*
X95214532Y-69087998D01*
X95214532Y-69088001D01*
X95234364Y-69314686D01*
X95234366Y-69314697D01*
X95293258Y-69534488D01*
X95293261Y-69534497D01*
X95389431Y-69740732D01*
X95389432Y-69740734D01*
X95519954Y-69927141D01*
X95680858Y-70088045D01*
X95680861Y-70088047D01*
X95867266Y-70218568D01*
X96073504Y-70314739D01*
X96293308Y-70373635D01*
X96455230Y-70387801D01*
X96519998Y-70393468D01*
X96520000Y-70393468D01*
X96520002Y-70393468D01*
X96576673Y-70388509D01*
X96746692Y-70373635D01*
X96966496Y-70314739D01*
X97172734Y-70218568D01*
X97359139Y-70088047D01*
X97520047Y-69927139D01*
X97650568Y-69740734D01*
X97746739Y-69534496D01*
X97805635Y-69314692D01*
X97810376Y-69260500D01*
X102044210Y-69260500D01*
X102063333Y-69479082D01*
X102063335Y-69479092D01*
X102120121Y-69691024D01*
X102120125Y-69691033D01*
X102212854Y-69889892D01*
X102257003Y-69952943D01*
X102819923Y-69390023D01*
X102843507Y-69470344D01*
X102921239Y-69591298D01*
X103029900Y-69685452D01*
X103160685Y-69745180D01*
X103170466Y-69746586D01*
X102610555Y-70306496D01*
X102673601Y-70350642D01*
X102673605Y-70350644D01*
X102872466Y-70443374D01*
X102872475Y-70443378D01*
X103084407Y-70500164D01*
X103084417Y-70500166D01*
X103302999Y-70519290D01*
X103303001Y-70519290D01*
X103521582Y-70500166D01*
X103521592Y-70500164D01*
X103733524Y-70443378D01*
X103733533Y-70443374D01*
X103932392Y-70350645D01*
X103995443Y-70306495D01*
X103435534Y-69746586D01*
X103445315Y-69745180D01*
X103576100Y-69685452D01*
X103684761Y-69591298D01*
X103762493Y-69470344D01*
X103786076Y-69390023D01*
X104348995Y-69952942D01*
X104393145Y-69889892D01*
X104485874Y-69691033D01*
X104485878Y-69691024D01*
X104542664Y-69479092D01*
X104542666Y-69479082D01*
X104561790Y-69260502D01*
X108543708Y-69260502D01*
X108562838Y-69479168D01*
X108562839Y-69479175D01*
X108577661Y-69534488D01*
X108619653Y-69691203D01*
X108619654Y-69691206D01*
X108619655Y-69691208D01*
X108712419Y-69890142D01*
X108712423Y-69890150D01*
X108838322Y-70069952D01*
X108838327Y-70069958D01*
X108993541Y-70225172D01*
X108993547Y-70225177D01*
X109173349Y-70351076D01*
X109173351Y-70351077D01*
X109173354Y-70351079D01*
X109372297Y-70443847D01*
X109584326Y-70500661D01*
X109740521Y-70514326D01*
X109802998Y-70519792D01*
X109803000Y-70519792D01*
X109803002Y-70519792D01*
X109857668Y-70515009D01*
X110021674Y-70500661D01*
X110233703Y-70443847D01*
X110432646Y-70351079D01*
X110612457Y-70225174D01*
X110767674Y-70069957D01*
X110893579Y-69890146D01*
X110986347Y-69691203D01*
X111043161Y-69479174D01*
X111057509Y-69315168D01*
X111062292Y-69260502D01*
X111062292Y-69260497D01*
X111054042Y-69166197D01*
X111043161Y-69041826D01*
X110986347Y-68829797D01*
X110893579Y-68630854D01*
X110893577Y-68630851D01*
X110893576Y-68630849D01*
X110767677Y-68451047D01*
X110767672Y-68451041D01*
X110612458Y-68295827D01*
X110612452Y-68295822D01*
X110432650Y-68169923D01*
X110432642Y-68169919D01*
X110233708Y-68077155D01*
X110233706Y-68077154D01*
X110233703Y-68077153D01*
X110053023Y-68028739D01*
X110021675Y-68020339D01*
X110021668Y-68020338D01*
X109803002Y-68001208D01*
X109802998Y-68001208D01*
X109584331Y-68020338D01*
X109584324Y-68020339D01*
X109475109Y-68049604D01*
X109372297Y-68077153D01*
X109372295Y-68077153D01*
X109372291Y-68077155D01*
X109173357Y-68169919D01*
X109173349Y-68169923D01*
X108993547Y-68295822D01*
X108993541Y-68295827D01*
X108838327Y-68451041D01*
X108838322Y-68451047D01*
X108712423Y-68630849D01*
X108712419Y-68630857D01*
X108619655Y-68829791D01*
X108619653Y-68829795D01*
X108619653Y-68829797D01*
X108606647Y-68878335D01*
X108562839Y-69041824D01*
X108562838Y-69041831D01*
X108543708Y-69260497D01*
X108543708Y-69260502D01*
X104561790Y-69260502D01*
X104561790Y-69260500D01*
X104561790Y-69260499D01*
X104542666Y-69041917D01*
X104542664Y-69041907D01*
X104485878Y-68829975D01*
X104485874Y-68829966D01*
X104393144Y-68631105D01*
X104393142Y-68631101D01*
X104348996Y-68568055D01*
X103786076Y-69130975D01*
X103762493Y-69050656D01*
X103684761Y-68929702D01*
X103576100Y-68835548D01*
X103445315Y-68775820D01*
X103435533Y-68774413D01*
X103995443Y-68214503D01*
X103932392Y-68170354D01*
X103733533Y-68077625D01*
X103733524Y-68077621D01*
X103521592Y-68020835D01*
X103521582Y-68020833D01*
X103303001Y-68001710D01*
X103302999Y-68001710D01*
X103084417Y-68020833D01*
X103084407Y-68020835D01*
X102872475Y-68077621D01*
X102872466Y-68077624D01*
X102673606Y-68170355D01*
X102673604Y-68170356D01*
X102610556Y-68214503D01*
X102610555Y-68214503D01*
X103170466Y-68774413D01*
X103160685Y-68775820D01*
X103029900Y-68835548D01*
X102921239Y-68929702D01*
X102843507Y-69050656D01*
X102819923Y-69130975D01*
X102257003Y-68568055D01*
X102257003Y-68568056D01*
X102212856Y-68631104D01*
X102212855Y-68631106D01*
X102120124Y-68829966D01*
X102120121Y-68829975D01*
X102063335Y-69041907D01*
X102063333Y-69041917D01*
X102044210Y-69260499D01*
X102044210Y-69260500D01*
X97810376Y-69260500D01*
X97825468Y-69088000D01*
X97822368Y-69052572D01*
X97814547Y-68963169D01*
X97805635Y-68861308D01*
X97746739Y-68641504D01*
X97650568Y-68435266D01*
X97520047Y-68248861D01*
X97520045Y-68248858D01*
X97359140Y-68087953D01*
X97198377Y-67975386D01*
X97154752Y-67920809D01*
X97145500Y-67873811D01*
X97145500Y-65711814D01*
X97165185Y-65644775D01*
X97210483Y-65602759D01*
X97254389Y-65578998D01*
X97285115Y-65562370D01*
X102048500Y-65562370D01*
X102048501Y-65562376D01*
X102054908Y-65621983D01*
X102105202Y-65756828D01*
X102105206Y-65756835D01*
X102191452Y-65872044D01*
X102191455Y-65872047D01*
X102306664Y-65958293D01*
X102306671Y-65958297D01*
X102441517Y-66008591D01*
X102441516Y-66008591D01*
X102448444Y-66009335D01*
X102501127Y-66015000D01*
X104104872Y-66014999D01*
X104164483Y-66008591D01*
X104299331Y-65958296D01*
X104414546Y-65872046D01*
X104500796Y-65756831D01*
X104551091Y-65621983D01*
X104557500Y-65562373D01*
X104557500Y-64760502D01*
X108543708Y-64760502D01*
X108562838Y-64979168D01*
X108562839Y-64979175D01*
X108570661Y-65008365D01*
X108619653Y-65191203D01*
X108619654Y-65191206D01*
X108619655Y-65191208D01*
X108712419Y-65390142D01*
X108712423Y-65390150D01*
X108838322Y-65569952D01*
X108838327Y-65569958D01*
X108993541Y-65725172D01*
X108993547Y-65725177D01*
X109124623Y-65816957D01*
X109168248Y-65871534D01*
X109177500Y-65918532D01*
X109177500Y-66032255D01*
X109175775Y-66047872D01*
X109176061Y-66047899D01*
X109175326Y-66055665D01*
X109177439Y-66122872D01*
X109177500Y-66126767D01*
X109177500Y-66154357D01*
X109178003Y-66158335D01*
X109178918Y-66169967D01*
X109180290Y-66213624D01*
X109180291Y-66213627D01*
X109185880Y-66232867D01*
X109189824Y-66251911D01*
X109190666Y-66258570D01*
X109192336Y-66271792D01*
X109208414Y-66312403D01*
X109212197Y-66323452D01*
X109221511Y-66355511D01*
X109224382Y-66365390D01*
X109232788Y-66379605D01*
X109234580Y-66382634D01*
X109243136Y-66400100D01*
X109247868Y-66412050D01*
X109250514Y-66418732D01*
X109276181Y-66454060D01*
X109282593Y-66463821D01*
X109304828Y-66501417D01*
X109304833Y-66501424D01*
X109318990Y-66515580D01*
X109331628Y-66530376D01*
X109343405Y-66546586D01*
X109343406Y-66546587D01*
X109377057Y-66574425D01*
X109385698Y-66582288D01*
X111767197Y-68963788D01*
X111777022Y-68976051D01*
X111777243Y-68975869D01*
X111782211Y-68981874D01*
X111782213Y-68981876D01*
X111782214Y-68981877D01*
X111819092Y-69016508D01*
X111831222Y-69027899D01*
X111834021Y-69030612D01*
X111853522Y-69050114D01*
X111853526Y-69050117D01*
X111853529Y-69050120D01*
X111856702Y-69052581D01*
X111865574Y-69060159D01*
X111897418Y-69090062D01*
X111914976Y-69099714D01*
X111931235Y-69110395D01*
X111947064Y-69122673D01*
X111987155Y-69140021D01*
X111997626Y-69145151D01*
X112004711Y-69149046D01*
X112035902Y-69166194D01*
X112035904Y-69166195D01*
X112035908Y-69166197D01*
X112055316Y-69171180D01*
X112073719Y-69177481D01*
X112092101Y-69185436D01*
X112092102Y-69185436D01*
X112092104Y-69185437D01*
X112135250Y-69192270D01*
X112146672Y-69194636D01*
X112188981Y-69205500D01*
X112209016Y-69205500D01*
X112228414Y-69207026D01*
X112248194Y-69210159D01*
X112248195Y-69210160D01*
X112248195Y-69210159D01*
X112248196Y-69210160D01*
X112291675Y-69206050D01*
X112303344Y-69205500D01*
X120593548Y-69205500D01*
X120660587Y-69225185D01*
X120681229Y-69241819D01*
X122144586Y-70705177D01*
X122178071Y-70766500D01*
X122176680Y-70824949D01*
X122158367Y-70893296D01*
X122158364Y-70893313D01*
X122138532Y-71119999D01*
X122138532Y-71120001D01*
X122158364Y-71346686D01*
X122158366Y-71346697D01*
X122217258Y-71566488D01*
X122217261Y-71566497D01*
X122313431Y-71772732D01*
X122313432Y-71772734D01*
X122443954Y-71959141D01*
X122604858Y-72120045D01*
X122604861Y-72120047D01*
X122791266Y-72250568D01*
X122997504Y-72346739D01*
X123217308Y-72405635D01*
X123379230Y-72419801D01*
X123443998Y-72425468D01*
X123444000Y-72425468D01*
X123444002Y-72425468D01*
X123500673Y-72420509D01*
X123670692Y-72405635D01*
X123890496Y-72346739D01*
X124096734Y-72250568D01*
X124283139Y-72120047D01*
X124444047Y-71959139D01*
X124574568Y-71772734D01*
X124670739Y-71566496D01*
X124729635Y-71346692D01*
X124749468Y-71120000D01*
X124729635Y-70893308D01*
X124676996Y-70696855D01*
X124670741Y-70673511D01*
X124670738Y-70673502D01*
X124642059Y-70612000D01*
X124574568Y-70467266D01*
X124444047Y-70280861D01*
X124444045Y-70280858D01*
X124283141Y-70119954D01*
X124096734Y-69989432D01*
X124096732Y-69989431D01*
X123890497Y-69893261D01*
X123890488Y-69893258D01*
X123670697Y-69834366D01*
X123670693Y-69834365D01*
X123670692Y-69834365D01*
X123670691Y-69834364D01*
X123670686Y-69834364D01*
X123444002Y-69814532D01*
X123443999Y-69814532D01*
X123217313Y-69834364D01*
X123217296Y-69834367D01*
X123148949Y-69852680D01*
X123079099Y-69851016D01*
X123029177Y-69820586D01*
X121404803Y-68196212D01*
X121394980Y-68183950D01*
X121394759Y-68184134D01*
X121389786Y-68178122D01*
X121340776Y-68132099D01*
X121337977Y-68129386D01*
X121318477Y-68109885D01*
X121318471Y-68109880D01*
X121315286Y-68107409D01*
X121306434Y-68099848D01*
X121274582Y-68069938D01*
X121274580Y-68069936D01*
X121274577Y-68069935D01*
X121257029Y-68060288D01*
X121240763Y-68049604D01*
X121224932Y-68037324D01*
X121184849Y-68019978D01*
X121174363Y-68014841D01*
X121136094Y-67993803D01*
X121136092Y-67993802D01*
X121116693Y-67988822D01*
X121098281Y-67982518D01*
X121079898Y-67974562D01*
X121079892Y-67974560D01*
X121036760Y-67967729D01*
X121025322Y-67965361D01*
X120983020Y-67954500D01*
X120983019Y-67954500D01*
X120962984Y-67954500D01*
X120943586Y-67952973D01*
X120936162Y-67951797D01*
X120923805Y-67949840D01*
X120923804Y-67949840D01*
X120880325Y-67953950D01*
X120868656Y-67954500D01*
X112578453Y-67954500D01*
X112511414Y-67934815D01*
X112490772Y-67918181D01*
X110531861Y-65959270D01*
X110498376Y-65897947D01*
X110503360Y-65828255D01*
X110545232Y-65772322D01*
X110548419Y-65770014D01*
X110591173Y-65740077D01*
X110612457Y-65725174D01*
X110767674Y-65569957D01*
X110893579Y-65390146D01*
X110986347Y-65191203D01*
X111043161Y-64979174D01*
X111062292Y-64760500D01*
X111061609Y-64752697D01*
X111052725Y-64651148D01*
X111043161Y-64541826D01*
X110986347Y-64329797D01*
X110893579Y-64130854D01*
X110893577Y-64130851D01*
X110893576Y-64130849D01*
X110767677Y-63951047D01*
X110767672Y-63951041D01*
X110612458Y-63795827D01*
X110612452Y-63795822D01*
X110432650Y-63669923D01*
X110432642Y-63669919D01*
X110233708Y-63577155D01*
X110233706Y-63577154D01*
X110233703Y-63577153D01*
X110039084Y-63525004D01*
X110021675Y-63520339D01*
X110021668Y-63520338D01*
X109803002Y-63501208D01*
X109802998Y-63501208D01*
X109584331Y-63520338D01*
X109584324Y-63520339D01*
X109468549Y-63551362D01*
X109372297Y-63577153D01*
X109372295Y-63577153D01*
X109372291Y-63577155D01*
X109173357Y-63669919D01*
X109173349Y-63669923D01*
X108993547Y-63795822D01*
X108993541Y-63795827D01*
X108838327Y-63951041D01*
X108838322Y-63951047D01*
X108712423Y-64130849D01*
X108712419Y-64130857D01*
X108619655Y-64329791D01*
X108619653Y-64329795D01*
X108619653Y-64329797D01*
X108600614Y-64400852D01*
X108562839Y-64541824D01*
X108562838Y-64541831D01*
X108543708Y-64760497D01*
X108543708Y-64760502D01*
X104557500Y-64760502D01*
X104557499Y-63958628D01*
X104551091Y-63899017D01*
X104541836Y-63874204D01*
X104500797Y-63764171D01*
X104500793Y-63764164D01*
X104414547Y-63648955D01*
X104414544Y-63648952D01*
X104299335Y-63562706D01*
X104299328Y-63562702D01*
X104164482Y-63512408D01*
X104164483Y-63512408D01*
X104104883Y-63506001D01*
X104104881Y-63506000D01*
X104104873Y-63506000D01*
X104104864Y-63506000D01*
X102501129Y-63506000D01*
X102501123Y-63506001D01*
X102441516Y-63512408D01*
X102306671Y-63562702D01*
X102306664Y-63562706D01*
X102191455Y-63648952D01*
X102191452Y-63648955D01*
X102105206Y-63764164D01*
X102105202Y-63764171D01*
X102054908Y-63899017D01*
X102049315Y-63951043D01*
X102048501Y-63958623D01*
X102048500Y-63958635D01*
X102048500Y-65562370D01*
X97285115Y-65562370D01*
X97288626Y-65560470D01*
X97296297Y-65554500D01*
X97410270Y-65465791D01*
X97471784Y-65417913D01*
X97628979Y-65247153D01*
X97755924Y-65052849D01*
X97849157Y-64840300D01*
X97906134Y-64615305D01*
X97907607Y-64597530D01*
X97925300Y-64384006D01*
X97925300Y-64383993D01*
X97906135Y-64152702D01*
X97906133Y-64152691D01*
X97849157Y-63927699D01*
X97755924Y-63715151D01*
X97628981Y-63520849D01*
X97533832Y-63417489D01*
X97502910Y-63354835D01*
X97510770Y-63285409D01*
X97554918Y-63231253D01*
X97581730Y-63217325D01*
X97662084Y-63187355D01*
X97662093Y-63187350D01*
X97777187Y-63101190D01*
X97777190Y-63101187D01*
X97863350Y-62986093D01*
X97863354Y-62986086D01*
X97913596Y-62851379D01*
X97913598Y-62851372D01*
X97919999Y-62791844D01*
X97920000Y-62791827D01*
X97920000Y-62094000D01*
X96895278Y-62094000D01*
X96943625Y-62010260D01*
X96973810Y-61878008D01*
X96963673Y-61742735D01*
X96914113Y-61616459D01*
X96896203Y-61594000D01*
X97920000Y-61594000D01*
X97920000Y-60896172D01*
X97919999Y-60896155D01*
X97913598Y-60836627D01*
X97913596Y-60836620D01*
X97863354Y-60701913D01*
X97863350Y-60701906D01*
X97777190Y-60586812D01*
X97777187Y-60586809D01*
X97662093Y-60500649D01*
X97662086Y-60500645D01*
X97527379Y-60450403D01*
X97527372Y-60450401D01*
X97467844Y-60444000D01*
X97335362Y-60444000D01*
X97268323Y-60424315D01*
X97222568Y-60371511D01*
X97212624Y-60302353D01*
X97241649Y-60238797D01*
X97247681Y-60232319D01*
X101563681Y-55916319D01*
X101625004Y-55882834D01*
X101651362Y-55880000D01*
X110537770Y-55880000D01*
X110604809Y-55899685D01*
G37*
%TD.AperFunction*%
%TA.AperFunction,Conductor*%
G36*
X178776060Y-59408621D02*
G01*
X178814929Y-59434929D01*
X182843681Y-63463681D01*
X182877166Y-63525004D01*
X182880000Y-63551362D01*
X182880000Y-99008637D01*
X182860315Y-99075676D01*
X182843681Y-99096318D01*
X178854180Y-103085818D01*
X178792857Y-103119303D01*
X178723165Y-103114319D01*
X178667232Y-103072447D01*
X178642815Y-103006983D01*
X178642499Y-102998160D01*
X178642499Y-101464128D01*
X178636091Y-101404517D01*
X178598265Y-101303101D01*
X178585797Y-101269671D01*
X178585793Y-101269664D01*
X178499547Y-101154455D01*
X178499544Y-101154452D01*
X178384335Y-101068206D01*
X178384328Y-101068202D01*
X178252917Y-101019189D01*
X178196983Y-100977318D01*
X178172566Y-100911853D01*
X178187418Y-100843580D01*
X178208563Y-100815332D01*
X178330495Y-100693401D01*
X178466035Y-100499830D01*
X178565903Y-100285663D01*
X178627063Y-100057408D01*
X178647659Y-99822000D01*
X178645590Y-99798357D01*
X178639493Y-99728665D01*
X178627063Y-99586592D01*
X178565903Y-99358337D01*
X178466035Y-99144171D01*
X178465652Y-99143623D01*
X178330494Y-98950597D01*
X178163402Y-98783506D01*
X178163396Y-98783501D01*
X177977842Y-98653575D01*
X177934217Y-98598998D01*
X177927023Y-98529500D01*
X177958546Y-98467145D01*
X177977842Y-98450425D01*
X178033614Y-98411373D01*
X178163401Y-98320495D01*
X178330495Y-98153401D01*
X178466035Y-97959830D01*
X178565903Y-97745663D01*
X178627063Y-97517408D01*
X178647659Y-97282000D01*
X178646919Y-97273547D01*
X178631152Y-97093334D01*
X178627063Y-97046592D01*
X178565903Y-96818337D01*
X178466035Y-96604171D01*
X178465652Y-96603623D01*
X178330494Y-96410597D01*
X178163402Y-96243506D01*
X178163396Y-96243501D01*
X177977842Y-96113575D01*
X177934217Y-96058998D01*
X177927023Y-95989500D01*
X177958546Y-95927145D01*
X177977842Y-95910425D01*
X178089353Y-95832344D01*
X178163401Y-95780495D01*
X178330495Y-95613401D01*
X178466035Y-95419830D01*
X178565903Y-95205663D01*
X178627063Y-94977408D01*
X178647659Y-94742000D01*
X178627063Y-94506592D01*
X178565903Y-94278337D01*
X178466035Y-94064171D01*
X178465652Y-94063623D01*
X178330494Y-93870597D01*
X178163402Y-93703506D01*
X178163396Y-93703501D01*
X177977842Y-93573575D01*
X177934217Y-93518998D01*
X177927023Y-93449500D01*
X177958546Y-93387145D01*
X177977842Y-93370425D01*
X178031909Y-93332567D01*
X178163401Y-93240495D01*
X178330495Y-93073401D01*
X178466035Y-92879830D01*
X178565903Y-92665663D01*
X178627063Y-92437408D01*
X178647659Y-92202000D01*
X178627063Y-91966592D01*
X178565903Y-91738337D01*
X178466035Y-91524171D01*
X178465652Y-91523623D01*
X178330494Y-91330597D01*
X178163402Y-91163506D01*
X178163396Y-91163501D01*
X177977842Y-91033575D01*
X177934217Y-90978998D01*
X177927023Y-90909500D01*
X177958546Y-90847145D01*
X177977842Y-90830425D01*
X178052548Y-90778115D01*
X178163401Y-90700495D01*
X178330495Y-90533401D01*
X178466035Y-90339830D01*
X178565903Y-90125663D01*
X178627063Y-89897408D01*
X178647659Y-89662000D01*
X178627063Y-89426592D01*
X178565903Y-89198337D01*
X178466035Y-88984171D01*
X178465652Y-88983623D01*
X178330494Y-88790597D01*
X178163402Y-88623506D01*
X178163396Y-88623501D01*
X177977842Y-88493575D01*
X177934217Y-88438998D01*
X177927023Y-88369500D01*
X177958546Y-88307145D01*
X177977842Y-88290425D01*
X178012367Y-88266250D01*
X178163401Y-88160495D01*
X178330495Y-87993401D01*
X178466035Y-87799830D01*
X178565903Y-87585663D01*
X178627063Y-87357408D01*
X178647659Y-87122000D01*
X178627063Y-86886592D01*
X178574113Y-86688978D01*
X178565905Y-86658344D01*
X178565904Y-86658343D01*
X178565903Y-86658337D01*
X178466035Y-86444171D01*
X178465652Y-86443623D01*
X178330494Y-86250597D01*
X178163402Y-86083506D01*
X178163396Y-86083501D01*
X177977842Y-85953575D01*
X177934217Y-85898998D01*
X177927023Y-85829500D01*
X177958546Y-85767145D01*
X177977842Y-85750425D01*
X178089344Y-85672350D01*
X178163401Y-85620495D01*
X178330495Y-85453401D01*
X178466035Y-85259830D01*
X178565903Y-85045663D01*
X178627063Y-84817408D01*
X178647659Y-84582000D01*
X178627063Y-84346592D01*
X178565903Y-84118337D01*
X178466035Y-83904171D01*
X178465652Y-83903623D01*
X178330494Y-83710597D01*
X178163402Y-83543506D01*
X178163395Y-83543501D01*
X177969834Y-83407967D01*
X177969830Y-83407965D01*
X177969828Y-83407964D01*
X177755663Y-83308097D01*
X177755659Y-83308096D01*
X177755655Y-83308094D01*
X177527413Y-83246938D01*
X177527403Y-83246936D01*
X177292001Y-83226341D01*
X177291999Y-83226341D01*
X177056596Y-83246936D01*
X177056586Y-83246938D01*
X176828344Y-83308094D01*
X176828335Y-83308098D01*
X176614171Y-83407964D01*
X176614169Y-83407965D01*
X176420597Y-83543505D01*
X176253505Y-83710597D01*
X176118348Y-83903623D01*
X176063771Y-83947248D01*
X176016773Y-83956500D01*
X174950188Y-83956500D01*
X174883149Y-83936815D01*
X174848613Y-83903623D01*
X174736045Y-83742858D01*
X174575141Y-83581954D01*
X174388734Y-83451432D01*
X174388728Y-83451429D01*
X174330725Y-83424382D01*
X174278285Y-83378210D01*
X174259133Y-83311017D01*
X174279348Y-83244135D01*
X174330725Y-83199618D01*
X174331319Y-83199341D01*
X174388734Y-83172568D01*
X174575139Y-83042047D01*
X174736047Y-82881139D01*
X174866568Y-82694734D01*
X174962739Y-82488496D01*
X175021635Y-82268692D01*
X175041468Y-82042000D01*
X175041233Y-82039319D01*
X175029269Y-81902567D01*
X175026882Y-81875285D01*
X175040648Y-81806786D01*
X175062738Y-81776788D01*
X175114212Y-81725325D01*
X175546431Y-81293193D01*
X176003507Y-80836210D01*
X176064833Y-80802731D01*
X176091179Y-80799900D01*
X177647649Y-80799900D01*
X177714688Y-80819585D01*
X177760443Y-80872389D01*
X177770939Y-80910648D01*
X177775908Y-80956883D01*
X177826202Y-81091728D01*
X177826206Y-81091735D01*
X177912452Y-81206944D01*
X177912455Y-81206947D01*
X178027664Y-81293193D01*
X178027671Y-81293197D01*
X178162517Y-81343491D01*
X178162516Y-81343491D01*
X178169444Y-81344235D01*
X178222127Y-81349900D01*
X179917872Y-81349899D01*
X179977483Y-81343491D01*
X180112331Y-81293196D01*
X180227546Y-81206946D01*
X180313796Y-81091731D01*
X180364091Y-80956883D01*
X180370500Y-80897273D01*
X180370499Y-79201528D01*
X180364091Y-79141917D01*
X180331927Y-79055682D01*
X180313797Y-79007071D01*
X180313793Y-79007064D01*
X180227547Y-78891855D01*
X180227544Y-78891852D01*
X180112335Y-78805606D01*
X180112328Y-78805602D01*
X179977482Y-78755308D01*
X179977483Y-78755308D01*
X179917883Y-78748901D01*
X179917881Y-78748900D01*
X179917873Y-78748900D01*
X179917864Y-78748900D01*
X179914548Y-78748722D01*
X179914627Y-78747247D01*
X179853215Y-78729215D01*
X179807460Y-78676411D01*
X179799969Y-78632922D01*
X179114400Y-77947353D01*
X179195148Y-77934565D01*
X179308045Y-77877041D01*
X179397641Y-77787445D01*
X179455165Y-77674548D01*
X179467953Y-77593800D01*
X180149024Y-78274871D01*
X180200136Y-78201878D01*
X180296264Y-77995731D01*
X180296269Y-77995717D01*
X180355139Y-77776010D01*
X180355141Y-77775999D01*
X180374966Y-77549402D01*
X180374966Y-77549397D01*
X180355141Y-77322800D01*
X180355139Y-77322789D01*
X180296269Y-77103082D01*
X180296264Y-77103068D01*
X180200136Y-76896921D01*
X180200132Y-76896913D01*
X180149025Y-76823926D01*
X179467953Y-77504998D01*
X179455165Y-77424252D01*
X179397641Y-77311355D01*
X179308045Y-77221759D01*
X179195148Y-77164235D01*
X179114401Y-77151446D01*
X179795472Y-76470374D01*
X179722478Y-76419263D01*
X179516331Y-76323135D01*
X179516317Y-76323130D01*
X179296610Y-76264260D01*
X179296599Y-76264258D01*
X179070002Y-76244434D01*
X179069998Y-76244434D01*
X178843400Y-76264258D01*
X178843389Y-76264260D01*
X178623682Y-76323130D01*
X178623673Y-76323134D01*
X178417516Y-76419266D01*
X178417512Y-76419268D01*
X178344526Y-76470373D01*
X178344526Y-76470374D01*
X179025599Y-77151446D01*
X178944852Y-77164235D01*
X178831955Y-77221759D01*
X178742359Y-77311355D01*
X178684835Y-77424252D01*
X178672046Y-77504998D01*
X177990974Y-76823926D01*
X177990973Y-76823926D01*
X177939868Y-76896912D01*
X177939866Y-76896916D01*
X177843734Y-77103073D01*
X177843730Y-77103082D01*
X177784860Y-77322789D01*
X177784858Y-77322800D01*
X177765034Y-77549397D01*
X177765034Y-77549402D01*
X177784858Y-77775999D01*
X177784860Y-77776010D01*
X177843730Y-77995717D01*
X177843735Y-77995731D01*
X177939863Y-78201878D01*
X177990974Y-78274872D01*
X178672046Y-77593800D01*
X178684835Y-77674548D01*
X178742359Y-77787445D01*
X178831955Y-77877041D01*
X178944852Y-77934565D01*
X179025599Y-77947353D01*
X178339352Y-78633599D01*
X178329506Y-78682594D01*
X178280890Y-78732777D01*
X178225367Y-78747449D01*
X178225423Y-78748499D01*
X178225429Y-78748546D01*
X178225426Y-78748546D01*
X178225436Y-78748724D01*
X178222123Y-78748901D01*
X178162516Y-78755308D01*
X178027671Y-78805602D01*
X178027664Y-78805606D01*
X177912455Y-78891852D01*
X177912452Y-78891855D01*
X177826206Y-79007064D01*
X177826202Y-79007071D01*
X177775910Y-79141913D01*
X177775909Y-79141917D01*
X177770937Y-79188157D01*
X177744201Y-79252706D01*
X177686809Y-79292554D01*
X177647649Y-79298900D01*
X175792750Y-79298900D01*
X175774767Y-79297589D01*
X175751053Y-79294113D01*
X175751051Y-79294113D01*
X175751050Y-79294113D01*
X175701663Y-79298429D01*
X175690868Y-79298900D01*
X175685283Y-79298900D01*
X175654541Y-79302493D01*
X175650944Y-79302860D01*
X175576281Y-79309384D01*
X175569207Y-79310845D01*
X175569196Y-79310792D01*
X175561753Y-79312442D01*
X175561766Y-79312495D01*
X175554746Y-79314158D01*
X175484305Y-79339795D01*
X175480891Y-79340981D01*
X175409736Y-79364553D01*
X175403189Y-79367605D01*
X175403166Y-79367556D01*
X175396308Y-79370876D01*
X175396332Y-79370924D01*
X175389879Y-79374164D01*
X175327255Y-79415352D01*
X175324206Y-79417295D01*
X175260398Y-79456644D01*
X175254737Y-79461120D01*
X175254704Y-79461079D01*
X175248803Y-79465886D01*
X175248837Y-79465927D01*
X175243306Y-79470568D01*
X175243304Y-79470570D01*
X175243302Y-79470572D01*
X175237778Y-79475208D01*
X175236465Y-79473644D01*
X175184898Y-79503761D01*
X175115091Y-79500785D01*
X175057976Y-79460541D01*
X175031685Y-79395806D01*
X175031535Y-79394210D01*
X175021141Y-79275400D01*
X175021139Y-79275389D01*
X174962269Y-79055682D01*
X174962265Y-79055673D01*
X174866134Y-78849517D01*
X174735657Y-78663179D01*
X174574820Y-78502342D01*
X174388482Y-78371865D01*
X174330133Y-78344657D01*
X174277694Y-78298484D01*
X174258542Y-78231291D01*
X174278758Y-78164410D01*
X174330129Y-78119895D01*
X174388734Y-78092568D01*
X174575139Y-77962047D01*
X174736047Y-77801139D01*
X174866568Y-77614734D01*
X174962739Y-77408496D01*
X175021635Y-77188692D01*
X175041468Y-76962000D01*
X175040195Y-76947455D01*
X175028685Y-76815887D01*
X175021635Y-76735308D01*
X174962739Y-76515504D01*
X174866568Y-76309266D01*
X174736047Y-76122861D01*
X174736045Y-76122858D01*
X174575141Y-75961954D01*
X174388734Y-75831432D01*
X174388728Y-75831429D01*
X174330725Y-75804382D01*
X174278285Y-75758210D01*
X174259133Y-75691017D01*
X174279348Y-75624135D01*
X174330725Y-75579618D01*
X174388734Y-75552568D01*
X174575139Y-75422047D01*
X174736047Y-75261139D01*
X174866568Y-75074734D01*
X174962739Y-74868496D01*
X175021635Y-74648692D01*
X175041468Y-74422000D01*
X175021635Y-74195308D01*
X174962739Y-73975504D01*
X174866568Y-73769266D01*
X174736047Y-73582861D01*
X174736045Y-73582858D01*
X174575141Y-73421954D01*
X174388734Y-73291432D01*
X174388728Y-73291429D01*
X174330725Y-73264382D01*
X174278285Y-73218210D01*
X174259133Y-73151017D01*
X174279348Y-73084135D01*
X174330725Y-73039618D01*
X174388734Y-73012568D01*
X174575139Y-72882047D01*
X174736047Y-72721139D01*
X174848613Y-72560377D01*
X174903189Y-72516752D01*
X174950188Y-72507500D01*
X176016773Y-72507500D01*
X176083812Y-72527185D01*
X176118348Y-72560377D01*
X176253500Y-72753395D01*
X176253505Y-72753401D01*
X176420599Y-72920495D01*
X176517384Y-72988265D01*
X176614165Y-73056032D01*
X176614167Y-73056033D01*
X176614170Y-73056035D01*
X176828337Y-73155903D01*
X177056592Y-73217063D01*
X177244918Y-73233539D01*
X177291999Y-73237659D01*
X177292000Y-73237659D01*
X177292001Y-73237659D01*
X177331234Y-73234226D01*
X177527408Y-73217063D01*
X177755663Y-73155903D01*
X177969830Y-73056035D01*
X178163401Y-72920495D01*
X178330495Y-72753401D01*
X178466035Y-72559830D01*
X178565903Y-72345663D01*
X178627063Y-72117408D01*
X178647659Y-71882000D01*
X178627063Y-71646592D01*
X178565903Y-71418337D01*
X178466035Y-71204171D01*
X178465652Y-71203623D01*
X178330494Y-71010597D01*
X178163402Y-70843506D01*
X178163396Y-70843501D01*
X177977842Y-70713575D01*
X177934217Y-70658998D01*
X177927023Y-70589500D01*
X177958546Y-70527145D01*
X177977842Y-70510425D01*
X178073595Y-70443378D01*
X178163401Y-70380495D01*
X178330495Y-70213401D01*
X178466035Y-70019830D01*
X178565903Y-69805663D01*
X178627063Y-69577408D01*
X178647659Y-69342000D01*
X178646279Y-69326232D01*
X178640529Y-69260502D01*
X178627063Y-69106592D01*
X178565903Y-68878337D01*
X178466035Y-68664171D01*
X178465652Y-68663623D01*
X178330494Y-68470597D01*
X178163402Y-68303506D01*
X178163396Y-68303501D01*
X177977842Y-68173575D01*
X177934217Y-68118998D01*
X177927023Y-68049500D01*
X177958546Y-67987145D01*
X177977842Y-67970425D01*
X178052454Y-67918181D01*
X178163401Y-67840495D01*
X178330495Y-67673401D01*
X178466035Y-67479830D01*
X178565903Y-67265663D01*
X178627063Y-67037408D01*
X178647659Y-66802000D01*
X178627063Y-66566592D01*
X178565903Y-66338337D01*
X178466035Y-66124171D01*
X178465652Y-66123623D01*
X178330494Y-65930597D01*
X178163402Y-65763506D01*
X178163396Y-65763501D01*
X177977842Y-65633575D01*
X177934217Y-65578998D01*
X177927023Y-65509500D01*
X177958546Y-65447145D01*
X177977842Y-65430425D01*
X178031909Y-65392567D01*
X178163401Y-65300495D01*
X178330495Y-65133401D01*
X178466035Y-64939830D01*
X178565903Y-64725663D01*
X178627063Y-64497408D01*
X178647659Y-64262000D01*
X178627063Y-64026592D01*
X178565903Y-63798337D01*
X178466035Y-63584171D01*
X178465652Y-63583623D01*
X178330494Y-63390597D01*
X178163402Y-63223506D01*
X178163396Y-63223501D01*
X177977842Y-63093575D01*
X177934217Y-63038998D01*
X177927023Y-62969500D01*
X177958546Y-62907145D01*
X177977842Y-62890425D01*
X178118654Y-62791827D01*
X178163401Y-62760495D01*
X178330495Y-62593401D01*
X178466035Y-62399830D01*
X178565903Y-62185663D01*
X178627063Y-61957408D01*
X178647659Y-61722000D01*
X178627063Y-61486592D01*
X178575593Y-61294500D01*
X178565905Y-61258344D01*
X178565904Y-61258343D01*
X178565903Y-61258337D01*
X178466035Y-61044171D01*
X178465652Y-61043623D01*
X178330494Y-60850597D01*
X178163402Y-60683506D01*
X178163396Y-60683501D01*
X177977842Y-60553575D01*
X177934217Y-60498998D01*
X177927023Y-60429500D01*
X177958546Y-60367145D01*
X177977842Y-60350425D01*
X178000026Y-60334891D01*
X178163401Y-60220495D01*
X178330495Y-60053401D01*
X178466035Y-59859830D01*
X178565903Y-59645663D01*
X178607473Y-59490516D01*
X178643837Y-59430857D01*
X178706684Y-59400327D01*
X178776060Y-59408621D01*
G37*
%TD.AperFunction*%
%TA.AperFunction,Conductor*%
G36*
X172528782Y-55899685D02*
G01*
X172574537Y-55952489D01*
X172584481Y-56021647D01*
X172574126Y-56056401D01*
X172557675Y-56091681D01*
X172509261Y-56195502D01*
X172509258Y-56195511D01*
X172450366Y-56415302D01*
X172450364Y-56415313D01*
X172430532Y-56641998D01*
X172430532Y-56642001D01*
X172450364Y-56868686D01*
X172450366Y-56868697D01*
X172509258Y-57088488D01*
X172509261Y-57088497D01*
X172605431Y-57294732D01*
X172605432Y-57294734D01*
X172735954Y-57481141D01*
X172896858Y-57642045D01*
X172896861Y-57642047D01*
X173083266Y-57772568D01*
X173141275Y-57799618D01*
X173193714Y-57845791D01*
X173212866Y-57912984D01*
X173192650Y-57979865D01*
X173141275Y-58024381D01*
X173124272Y-58032310D01*
X173083267Y-58051431D01*
X173083265Y-58051432D01*
X172896858Y-58181954D01*
X172735954Y-58342858D01*
X172605432Y-58529265D01*
X172605431Y-58529267D01*
X172509261Y-58735502D01*
X172509258Y-58735511D01*
X172450366Y-58955302D01*
X172450364Y-58955313D01*
X172430532Y-59181998D01*
X172430532Y-59182001D01*
X172450364Y-59408686D01*
X172450366Y-59408697D01*
X172509258Y-59628488D01*
X172509261Y-59628497D01*
X172605431Y-59834732D01*
X172605432Y-59834734D01*
X172735954Y-60021141D01*
X172896858Y-60182045D01*
X172896861Y-60182047D01*
X173083266Y-60312568D01*
X173113493Y-60326663D01*
X173141275Y-60339618D01*
X173193714Y-60385791D01*
X173212866Y-60452984D01*
X173192650Y-60519865D01*
X173141275Y-60564381D01*
X173124272Y-60572310D01*
X173083267Y-60591431D01*
X173083265Y-60591432D01*
X172896858Y-60721954D01*
X172735954Y-60882858D01*
X172605432Y-61069265D01*
X172605431Y-61069267D01*
X172509261Y-61275502D01*
X172509258Y-61275511D01*
X172450366Y-61495302D01*
X172450364Y-61495313D01*
X172430532Y-61721998D01*
X172430532Y-61722001D01*
X172450364Y-61948686D01*
X172450366Y-61948697D01*
X172509258Y-62168488D01*
X172509261Y-62168497D01*
X172605431Y-62374732D01*
X172605432Y-62374734D01*
X172735954Y-62561141D01*
X172896858Y-62722045D01*
X172896861Y-62722047D01*
X173083266Y-62852568D01*
X173141275Y-62879618D01*
X173193714Y-62925791D01*
X173212866Y-62992984D01*
X173192650Y-63059865D01*
X173141275Y-63104382D01*
X173083267Y-63131431D01*
X173083265Y-63131432D01*
X172896858Y-63261954D01*
X172735954Y-63422858D01*
X172605432Y-63609265D01*
X172605431Y-63609267D01*
X172509261Y-63815502D01*
X172509258Y-63815511D01*
X172450366Y-64035302D01*
X172450364Y-64035313D01*
X172430532Y-64261998D01*
X172430532Y-64262001D01*
X172450364Y-64488686D01*
X172450366Y-64488697D01*
X172509258Y-64708488D01*
X172509261Y-64708497D01*
X172605431Y-64914732D01*
X172605432Y-64914734D01*
X172735954Y-65101141D01*
X172896858Y-65262045D01*
X172896861Y-65262047D01*
X173083266Y-65392568D01*
X173137629Y-65417918D01*
X173141275Y-65419618D01*
X173193714Y-65465791D01*
X173212866Y-65532984D01*
X173192650Y-65599865D01*
X173141275Y-65644382D01*
X173083267Y-65671431D01*
X173083265Y-65671432D01*
X172896858Y-65801954D01*
X172735954Y-65962858D01*
X172605432Y-66149265D01*
X172605431Y-66149267D01*
X172509261Y-66355502D01*
X172509258Y-66355511D01*
X172450366Y-66575302D01*
X172450364Y-66575313D01*
X172430532Y-66801998D01*
X172430532Y-66802001D01*
X172450364Y-67028686D01*
X172450366Y-67028697D01*
X172509258Y-67248488D01*
X172509261Y-67248497D01*
X172605431Y-67454732D01*
X172605432Y-67454734D01*
X172735954Y-67641141D01*
X172896858Y-67802045D01*
X172896861Y-67802047D01*
X173083266Y-67932568D01*
X173136587Y-67957432D01*
X173141275Y-67959618D01*
X173193714Y-68005791D01*
X173212866Y-68072984D01*
X173192650Y-68139865D01*
X173141275Y-68184381D01*
X173124272Y-68192310D01*
X173083267Y-68211431D01*
X173083265Y-68211432D01*
X172896858Y-68341954D01*
X172735954Y-68502858D01*
X172605432Y-68689265D01*
X172605431Y-68689267D01*
X172509261Y-68895502D01*
X172509258Y-68895511D01*
X172450366Y-69115302D01*
X172450364Y-69115313D01*
X172430532Y-69341998D01*
X172430532Y-69342001D01*
X172450364Y-69568686D01*
X172450366Y-69568697D01*
X172509258Y-69788488D01*
X172509261Y-69788497D01*
X172605431Y-69994732D01*
X172605432Y-69994734D01*
X172735954Y-70181141D01*
X172896858Y-70342045D01*
X172941971Y-70373633D01*
X173083266Y-70472568D01*
X173141275Y-70499618D01*
X173193714Y-70545791D01*
X173212866Y-70612984D01*
X173192650Y-70679865D01*
X173141275Y-70724382D01*
X173083267Y-70751431D01*
X173083265Y-70751432D01*
X172896858Y-70881954D01*
X172735954Y-71042858D01*
X172605432Y-71229265D01*
X172605431Y-71229267D01*
X172509261Y-71435502D01*
X172509258Y-71435511D01*
X172450366Y-71655302D01*
X172450364Y-71655313D01*
X172430532Y-71881998D01*
X172430532Y-71882001D01*
X172450364Y-72108686D01*
X172450366Y-72108697D01*
X172509258Y-72328488D01*
X172509261Y-72328497D01*
X172605431Y-72534732D01*
X172605432Y-72534734D01*
X172735954Y-72721141D01*
X172896858Y-72882045D01*
X172896861Y-72882047D01*
X173083266Y-73012568D01*
X173141275Y-73039618D01*
X173193714Y-73085791D01*
X173212866Y-73152984D01*
X173192650Y-73219865D01*
X173141275Y-73264382D01*
X173083267Y-73291431D01*
X173083265Y-73291432D01*
X172896858Y-73421954D01*
X172735954Y-73582858D01*
X172605432Y-73769265D01*
X172605431Y-73769267D01*
X172509261Y-73975502D01*
X172509258Y-73975511D01*
X172450366Y-74195302D01*
X172450364Y-74195313D01*
X172430532Y-74421998D01*
X172430532Y-74422001D01*
X172450364Y-74648686D01*
X172450366Y-74648697D01*
X172509258Y-74868488D01*
X172509261Y-74868497D01*
X172605431Y-75074732D01*
X172605432Y-75074734D01*
X172735954Y-75261141D01*
X172896858Y-75422045D01*
X172896861Y-75422047D01*
X173083266Y-75552568D01*
X173141275Y-75579618D01*
X173193714Y-75625791D01*
X173212866Y-75692984D01*
X173192650Y-75759865D01*
X173141275Y-75804382D01*
X173083267Y-75831431D01*
X173083265Y-75831432D01*
X172896858Y-75961954D01*
X172735954Y-76122858D01*
X172605432Y-76309265D01*
X172605431Y-76309267D01*
X172509261Y-76515502D01*
X172509258Y-76515511D01*
X172450366Y-76735302D01*
X172450364Y-76735313D01*
X172430532Y-76961998D01*
X172430532Y-76962001D01*
X172450364Y-77188686D01*
X172450366Y-77188697D01*
X172509258Y-77408488D01*
X172509261Y-77408497D01*
X172605431Y-77614732D01*
X172605432Y-77614734D01*
X172735954Y-77801141D01*
X172896858Y-77962045D01*
X172922289Y-77979852D01*
X173083266Y-78092568D01*
X173141865Y-78119893D01*
X173194305Y-78166065D01*
X173213457Y-78233258D01*
X173193242Y-78300139D01*
X173141867Y-78344657D01*
X173083515Y-78371867D01*
X172897179Y-78502342D01*
X172736342Y-78663179D01*
X172605865Y-78849517D01*
X172509734Y-79055673D01*
X172509730Y-79055682D01*
X172457127Y-79251999D01*
X172457128Y-79252000D01*
X173420314Y-79252000D01*
X173408359Y-79263955D01*
X173350835Y-79376852D01*
X173331014Y-79502000D01*
X173350835Y-79627148D01*
X173408359Y-79740045D01*
X173420314Y-79752000D01*
X172457128Y-79752000D01*
X172509730Y-79948317D01*
X172509734Y-79948326D01*
X172605865Y-80154482D01*
X172736342Y-80340820D01*
X172897179Y-80501657D01*
X173083518Y-80632134D01*
X173083520Y-80632135D01*
X173141865Y-80659342D01*
X173194305Y-80705514D01*
X173213457Y-80772707D01*
X173193242Y-80839589D01*
X173141867Y-80884105D01*
X173089978Y-80908302D01*
X173083264Y-80911433D01*
X172896858Y-81041954D01*
X172735954Y-81202858D01*
X172710912Y-81238623D01*
X172656335Y-81282248D01*
X172609337Y-81291500D01*
X161398229Y-81291500D01*
X161331190Y-81271815D01*
X161310548Y-81255181D01*
X159822716Y-79767348D01*
X159789231Y-79706025D01*
X159786869Y-79668863D01*
X159801468Y-79502000D01*
X159798308Y-79465886D01*
X159792177Y-79395806D01*
X159781635Y-79275308D01*
X159722739Y-79055504D01*
X159626568Y-78849266D01*
X159496047Y-78662861D01*
X159496045Y-78662858D01*
X159335141Y-78501954D01*
X159148734Y-78371432D01*
X159148728Y-78371429D01*
X159090725Y-78344382D01*
X159038285Y-78298210D01*
X159019133Y-78231017D01*
X159039348Y-78164135D01*
X159090725Y-78119618D01*
X159095415Y-78117431D01*
X159148734Y-78092568D01*
X159335139Y-77962047D01*
X159496047Y-77801139D01*
X159626568Y-77614734D01*
X159722739Y-77408496D01*
X159781635Y-77188692D01*
X159801468Y-76962000D01*
X159800195Y-76947455D01*
X159788685Y-76815887D01*
X159781635Y-76735308D01*
X159722739Y-76515504D01*
X159626568Y-76309266D01*
X159496047Y-76122861D01*
X159496045Y-76122858D01*
X159335141Y-75961954D01*
X159148734Y-75831432D01*
X159148728Y-75831429D01*
X159090725Y-75804382D01*
X159038285Y-75758210D01*
X159019133Y-75691017D01*
X159039348Y-75624135D01*
X159090725Y-75579618D01*
X159148734Y-75552568D01*
X159335139Y-75422047D01*
X159496047Y-75261139D01*
X159626568Y-75074734D01*
X159722739Y-74868496D01*
X159781635Y-74648692D01*
X159801468Y-74422000D01*
X159781635Y-74195308D01*
X159722739Y-73975504D01*
X159626568Y-73769266D01*
X159496047Y-73582861D01*
X159496045Y-73582858D01*
X159335141Y-73421954D01*
X159148734Y-73291432D01*
X159148728Y-73291429D01*
X159090725Y-73264382D01*
X159038285Y-73218210D01*
X159019133Y-73151017D01*
X159039348Y-73084135D01*
X159090725Y-73039618D01*
X159148734Y-73012568D01*
X159335139Y-72882047D01*
X159496047Y-72721139D01*
X159626568Y-72534734D01*
X159722739Y-72328496D01*
X159781635Y-72108692D01*
X159801468Y-71882000D01*
X159781635Y-71655308D01*
X159722739Y-71435504D01*
X159626568Y-71229266D01*
X159496047Y-71042861D01*
X159496045Y-71042858D01*
X159335141Y-70881954D01*
X159148734Y-70751432D01*
X159148728Y-70751429D01*
X159090725Y-70724382D01*
X159038285Y-70678210D01*
X159019133Y-70611017D01*
X159039348Y-70544135D01*
X159090725Y-70499618D01*
X159148734Y-70472568D01*
X159335139Y-70342047D01*
X159496047Y-70181139D01*
X159626568Y-69994734D01*
X159722739Y-69788496D01*
X159781635Y-69568692D01*
X159801468Y-69342000D01*
X159800088Y-69326232D01*
X159794040Y-69257102D01*
X159781635Y-69115308D01*
X159730134Y-68923104D01*
X159722741Y-68895511D01*
X159722738Y-68895502D01*
X159692096Y-68829791D01*
X159626568Y-68689266D01*
X159496047Y-68502861D01*
X159496045Y-68502858D01*
X159335141Y-68341954D01*
X159148734Y-68211432D01*
X159148728Y-68211429D01*
X159116095Y-68196212D01*
X159090724Y-68184381D01*
X159038285Y-68138210D01*
X159019133Y-68071017D01*
X159039348Y-68004135D01*
X159090725Y-67959618D01*
X159095413Y-67957432D01*
X159148734Y-67932568D01*
X159335139Y-67802047D01*
X159496047Y-67641139D01*
X159626568Y-67454734D01*
X159722739Y-67248496D01*
X159781635Y-67028692D01*
X159801468Y-66802000D01*
X159799369Y-66778013D01*
X159785823Y-66623181D01*
X159781635Y-66575308D01*
X159722739Y-66355504D01*
X159626568Y-66149266D01*
X159496047Y-65962861D01*
X159496045Y-65962858D01*
X159335141Y-65801954D01*
X159148734Y-65671432D01*
X159148728Y-65671429D01*
X159090725Y-65644382D01*
X159038285Y-65598210D01*
X159019133Y-65531017D01*
X159039348Y-65464135D01*
X159090725Y-65419618D01*
X159094371Y-65417918D01*
X159148734Y-65392568D01*
X159335139Y-65262047D01*
X159496047Y-65101139D01*
X159626568Y-64914734D01*
X159722739Y-64708496D01*
X159781635Y-64488692D01*
X159801468Y-64262000D01*
X159781635Y-64035308D01*
X159722739Y-63815504D01*
X159626568Y-63609266D01*
X159496047Y-63422861D01*
X159496045Y-63422858D01*
X159335141Y-63261954D01*
X159148734Y-63131432D01*
X159148728Y-63131429D01*
X159090725Y-63104382D01*
X159038285Y-63058210D01*
X159019133Y-62991017D01*
X159039348Y-62924135D01*
X159090725Y-62879618D01*
X159148734Y-62852568D01*
X159335139Y-62722047D01*
X159496047Y-62561139D01*
X159626568Y-62374734D01*
X159722739Y-62168496D01*
X159781635Y-61948692D01*
X159801468Y-61722000D01*
X159781635Y-61495308D01*
X159722739Y-61275504D01*
X159626568Y-61069266D01*
X159505367Y-60896172D01*
X159496045Y-60882858D01*
X159335141Y-60721954D01*
X159148734Y-60591432D01*
X159148728Y-60591429D01*
X159121038Y-60578517D01*
X159090724Y-60564381D01*
X159038285Y-60518210D01*
X159019133Y-60451017D01*
X159039348Y-60384135D01*
X159090725Y-60339618D01*
X159148734Y-60312568D01*
X159335139Y-60182047D01*
X159496047Y-60021139D01*
X159626568Y-59834734D01*
X159722739Y-59628496D01*
X159781635Y-59408692D01*
X159801468Y-59182000D01*
X159781635Y-58955308D01*
X159733394Y-58775269D01*
X159722741Y-58735511D01*
X159722738Y-58735502D01*
X159626568Y-58529266D01*
X159496047Y-58342861D01*
X159496045Y-58342858D01*
X159335143Y-58181956D01*
X159310536Y-58164726D01*
X159266912Y-58110149D01*
X159259719Y-58040650D01*
X159291241Y-57978296D01*
X159351471Y-57942882D01*
X159368404Y-57939861D01*
X159403483Y-57936091D01*
X159538331Y-57885796D01*
X159653546Y-57799546D01*
X159739796Y-57684331D01*
X159790091Y-57549483D01*
X159796500Y-57489873D01*
X159796499Y-56003999D01*
X159816184Y-55936961D01*
X159868987Y-55891206D01*
X159920499Y-55880000D01*
X172461743Y-55880000D01*
X172528782Y-55899685D01*
G37*
%TD.AperFunction*%
%TA.AperFunction,Conductor*%
G36*
X130772855Y-60615546D02*
G01*
X130789575Y-60634842D01*
X130916004Y-60815402D01*
X130919505Y-60820401D01*
X131086599Y-60987495D01*
X131166758Y-61043623D01*
X131280165Y-61123032D01*
X131280167Y-61123033D01*
X131280170Y-61123035D01*
X131494337Y-61222903D01*
X131722592Y-61284063D01*
X131899034Y-61299500D01*
X131957999Y-61304659D01*
X131958000Y-61304659D01*
X131958001Y-61304659D01*
X132016966Y-61299500D01*
X132193408Y-61284063D01*
X132293873Y-61257143D01*
X132363722Y-61258806D01*
X132413646Y-61289236D01*
X133603262Y-62478853D01*
X134754197Y-63629788D01*
X134764022Y-63642051D01*
X134764243Y-63641869D01*
X134769211Y-63647874D01*
X134818222Y-63693899D01*
X134821021Y-63696612D01*
X134840522Y-63716114D01*
X134840526Y-63716117D01*
X134840529Y-63716120D01*
X134843702Y-63718581D01*
X134852574Y-63726159D01*
X134884418Y-63756062D01*
X134901976Y-63765714D01*
X134918235Y-63776395D01*
X134934064Y-63788673D01*
X134974155Y-63806021D01*
X134984626Y-63811151D01*
X134992544Y-63815504D01*
X135022902Y-63832194D01*
X135022904Y-63832195D01*
X135022908Y-63832197D01*
X135042316Y-63837180D01*
X135060719Y-63843481D01*
X135079101Y-63851436D01*
X135079102Y-63851436D01*
X135079104Y-63851437D01*
X135122250Y-63858270D01*
X135133672Y-63860636D01*
X135175981Y-63871500D01*
X135196016Y-63871500D01*
X135215414Y-63873026D01*
X135235194Y-63876159D01*
X135235195Y-63876160D01*
X135235195Y-63876159D01*
X135235196Y-63876160D01*
X135278675Y-63872050D01*
X135290344Y-63871500D01*
X138767166Y-63871500D01*
X138834205Y-63891185D01*
X138879960Y-63943989D01*
X138889904Y-64013147D01*
X138879548Y-64047905D01*
X138864733Y-64079673D01*
X138864730Y-64079682D01*
X138812127Y-64275999D01*
X138812128Y-64276000D01*
X139775314Y-64276000D01*
X139763359Y-64287955D01*
X139705835Y-64400852D01*
X139686014Y-64526000D01*
X139705835Y-64651148D01*
X139763359Y-64764045D01*
X139775314Y-64776000D01*
X138812128Y-64776000D01*
X138864730Y-64972317D01*
X138864733Y-64972326D01*
X138870221Y-64984093D01*
X138880714Y-65053170D01*
X138852196Y-65116955D01*
X138793720Y-65155196D01*
X138757840Y-65160500D01*
X130485452Y-65160500D01*
X130418413Y-65140815D01*
X130397771Y-65124181D01*
X126789931Y-61516340D01*
X126756446Y-61455017D01*
X126761430Y-61385325D01*
X126803302Y-61329392D01*
X126868766Y-61304975D01*
X126877612Y-61304659D01*
X126878001Y-61304659D01*
X126936966Y-61299500D01*
X127113408Y-61284063D01*
X127341663Y-61222903D01*
X127555830Y-61123035D01*
X127749401Y-60987495D01*
X127916495Y-60820401D01*
X128046425Y-60634842D01*
X128101002Y-60591217D01*
X128170500Y-60584023D01*
X128232855Y-60615546D01*
X128249575Y-60634842D01*
X128376004Y-60815402D01*
X128379505Y-60820401D01*
X128546599Y-60987495D01*
X128626758Y-61043623D01*
X128740165Y-61123032D01*
X128740167Y-61123033D01*
X128740170Y-61123035D01*
X128954337Y-61222903D01*
X129182592Y-61284063D01*
X129359034Y-61299500D01*
X129417999Y-61304659D01*
X129418000Y-61304659D01*
X129418001Y-61304659D01*
X129476966Y-61299500D01*
X129653408Y-61284063D01*
X129881663Y-61222903D01*
X130095830Y-61123035D01*
X130289401Y-60987495D01*
X130456495Y-60820401D01*
X130586425Y-60634842D01*
X130641002Y-60591217D01*
X130710500Y-60584023D01*
X130772855Y-60615546D01*
G37*
%TD.AperFunction*%
%TA.AperFunction,Conductor*%
G36*
X146383875Y-63873224D02*
G01*
X146383902Y-63872939D01*
X146397281Y-63874204D01*
X146462170Y-63900111D01*
X146502751Y-63956988D01*
X146506141Y-64026775D01*
X146497993Y-64050055D01*
X146484260Y-64079506D01*
X146484258Y-64079511D01*
X146425366Y-64299302D01*
X146425364Y-64299313D01*
X146405532Y-64525998D01*
X146405532Y-64526000D01*
X146421498Y-64708497D01*
X146425365Y-64752691D01*
X146425366Y-64752697D01*
X146443680Y-64821048D01*
X146442017Y-64890897D01*
X146411586Y-64940821D01*
X146228226Y-65124182D01*
X146166906Y-65157666D01*
X146140547Y-65160500D01*
X141424160Y-65160500D01*
X141357121Y-65140815D01*
X141311366Y-65088011D01*
X141301422Y-65018853D01*
X141311779Y-64984093D01*
X141317266Y-64972326D01*
X141317269Y-64972317D01*
X141369872Y-64776000D01*
X140406686Y-64776000D01*
X140418641Y-64764045D01*
X140476165Y-64651148D01*
X140495986Y-64526000D01*
X140476165Y-64400852D01*
X140418641Y-64287955D01*
X140406686Y-64276000D01*
X141369872Y-64276000D01*
X141369872Y-64275999D01*
X141317269Y-64079682D01*
X141317266Y-64079673D01*
X141302452Y-64047905D01*
X141291960Y-63978828D01*
X141320479Y-63915044D01*
X141378956Y-63876804D01*
X141414834Y-63871500D01*
X146368257Y-63871500D01*
X146383875Y-63873224D01*
G37*
%TD.AperFunction*%
%TA.AperFunction,Conductor*%
G36*
X138733539Y-56426185D02*
G01*
X138779294Y-56478989D01*
X138790500Y-56530500D01*
X138790500Y-57753870D01*
X138790501Y-57753876D01*
X138796908Y-57813483D01*
X138847202Y-57948328D01*
X138847206Y-57948335D01*
X138933452Y-58063544D01*
X138933455Y-58063547D01*
X139048664Y-58149793D01*
X139048671Y-58149797D01*
X139077148Y-58160418D01*
X139183517Y-58200091D01*
X139218596Y-58203862D01*
X139283144Y-58230599D01*
X139322993Y-58287991D01*
X139325488Y-58357816D01*
X139289836Y-58417905D01*
X139276464Y-58428725D01*
X139251858Y-58445954D01*
X139090954Y-58606858D01*
X138960432Y-58793265D01*
X138960431Y-58793267D01*
X138864261Y-58999502D01*
X138864258Y-58999511D01*
X138805366Y-59219302D01*
X138805062Y-59221030D01*
X138804717Y-59221725D01*
X138803964Y-59224537D01*
X138803398Y-59224385D01*
X138774036Y-59283633D01*
X138714090Y-59319525D01*
X138682945Y-59323500D01*
X135773227Y-59323500D01*
X135706188Y-59303815D01*
X135671652Y-59270623D01*
X135536494Y-59077597D01*
X135369402Y-58910506D01*
X135369401Y-58910505D01*
X135183405Y-58780269D01*
X135139781Y-58725692D01*
X135132588Y-58656193D01*
X135164110Y-58593839D01*
X135183405Y-58577119D01*
X135369082Y-58447105D01*
X135536105Y-58280082D01*
X135671600Y-58086578D01*
X135771429Y-57872492D01*
X135771432Y-57872486D01*
X135828636Y-57659000D01*
X134931686Y-57659000D01*
X134957493Y-57618844D01*
X134998000Y-57480889D01*
X134998000Y-57337111D01*
X134957493Y-57199156D01*
X134931686Y-57159000D01*
X135828636Y-57159000D01*
X135828635Y-57158999D01*
X135771432Y-56945513D01*
X135771429Y-56945507D01*
X135671600Y-56731422D01*
X135671599Y-56731420D01*
X135580714Y-56601623D01*
X135558387Y-56535417D01*
X135575397Y-56467650D01*
X135626345Y-56419837D01*
X135682289Y-56406500D01*
X138666500Y-56406500D01*
X138733539Y-56426185D01*
G37*
%TD.AperFunction*%
%TA.AperFunction,Conductor*%
G36*
X128958507Y-57199156D02*
G01*
X128918000Y-57337111D01*
X128918000Y-57480889D01*
X128958507Y-57618844D01*
X128984314Y-57659000D01*
X127311686Y-57659000D01*
X127337493Y-57618844D01*
X127378000Y-57480889D01*
X127378000Y-57337111D01*
X127337493Y-57199156D01*
X127311686Y-57159000D01*
X128984314Y-57159000D01*
X128958507Y-57199156D01*
G37*
%TD.AperFunction*%
%TA.AperFunction,Conductor*%
G36*
X131498507Y-57199156D02*
G01*
X131458000Y-57337111D01*
X131458000Y-57480889D01*
X131498507Y-57618844D01*
X131524314Y-57659000D01*
X129851686Y-57659000D01*
X129877493Y-57618844D01*
X129918000Y-57480889D01*
X129918000Y-57337111D01*
X129877493Y-57199156D01*
X129851686Y-57159000D01*
X131524314Y-57159000D01*
X131498507Y-57199156D01*
G37*
%TD.AperFunction*%
%TA.AperFunction,Conductor*%
G36*
X134038507Y-57199156D02*
G01*
X133998000Y-57337111D01*
X133998000Y-57480889D01*
X134038507Y-57618844D01*
X134064314Y-57659000D01*
X132391686Y-57659000D01*
X132417493Y-57618844D01*
X132458000Y-57480889D01*
X132458000Y-57337111D01*
X132417493Y-57199156D01*
X132391686Y-57159000D01*
X134064314Y-57159000D01*
X134038507Y-57199156D01*
G37*
%TD.AperFunction*%
%TA.AperFunction,Conductor*%
G36*
X113088507Y-57194156D02*
G01*
X113048000Y-57332111D01*
X113048000Y-57475889D01*
X113088507Y-57613844D01*
X113114314Y-57654000D01*
X111441686Y-57654000D01*
X111467493Y-57613844D01*
X111508000Y-57475889D01*
X111508000Y-57332111D01*
X111467493Y-57194156D01*
X111441686Y-57154000D01*
X113114314Y-57154000D01*
X113088507Y-57194156D01*
G37*
%TD.AperFunction*%
%TA.AperFunction,Conductor*%
G36*
X115628507Y-57194156D02*
G01*
X115588000Y-57332111D01*
X115588000Y-57475889D01*
X115628507Y-57613844D01*
X115654314Y-57654000D01*
X113981686Y-57654000D01*
X114007493Y-57613844D01*
X114048000Y-57475889D01*
X114048000Y-57332111D01*
X114007493Y-57194156D01*
X113981686Y-57154000D01*
X115654314Y-57154000D01*
X115628507Y-57194156D01*
G37*
%TD.AperFunction*%
%TA.AperFunction,Conductor*%
G36*
X118168507Y-57194156D02*
G01*
X118128000Y-57332111D01*
X118128000Y-57475889D01*
X118168507Y-57613844D01*
X118194314Y-57654000D01*
X116521686Y-57654000D01*
X116547493Y-57613844D01*
X116588000Y-57475889D01*
X116588000Y-57332111D01*
X116547493Y-57194156D01*
X116521686Y-57154000D01*
X118194314Y-57154000D01*
X118168507Y-57194156D01*
G37*
%TD.AperFunction*%
%TD*%
M02*
