M48
; DRILL file {KiCad 7.0.10} date Fri Apr  5 15:44:46 2024
; FORMAT={-:-/ absolute / inch / decimal}
; #@! TF.CreationDate,2024-04-05T15:44:46+02:00
; #@! TF.GenerationSoftware,Kicad,Pcbnew,7.0.10
; #@! TF.FileFunction,Plated,1,2,PTH
FMAT,2
INCH
; #@! TA.AperFunction,Plated,PTH,ComponentDrill
T1C0.0276
; #@! TA.AperFunction,Plated,PTH,ComponentDrill
T2C0.0315
; #@! TA.AperFunction,Plated,PTH,ComponentDrill
T3C0.0350
; #@! TA.AperFunction,Plated,PTH,ComponentDrill
T4C0.0354
; #@! TA.AperFunction,Plated,PTH,ComponentDrill
T5C0.0394
; #@! TA.AperFunction,Plated,PTH,ComponentDrill
T6C0.0433
; #@! TA.AperFunction,Plated,PTH,ComponentDrill
T7C0.0902
; #@! TA.AperFunction,Plated,PTH,ComponentDrill
T8C0.1024
%
G90
G05
T1
X2.2308Y-0.9858
X2.2308Y-1.0842
X2.2308Y-1.2558
X2.2308Y-1.3542
T2
X0.122Y-1.1516
X0.122Y-1.3484
X0.2008Y-0.62
X0.2008Y-1.02
X0.2008Y-1.1516
X0.2008Y-1.3484
X0.2795Y-1.1516
X0.2795Y-1.3484
X0.5392Y-1.335
X0.5411Y-0.975
X0.6377Y-1.335
X0.6395Y-0.975
X0.8608Y-0.51
X0.8608Y-0.7
X0.8608Y-0.89
X0.8608Y-1.08
X0.8608Y-1.27
X0.8608Y-1.46
X1.2608Y-0.51
X1.2608Y-0.7
X1.2608Y-0.89
X1.2608Y-1.08
X1.2608Y-1.27
X1.2608Y-1.46
X1.4108Y-1.335
X1.4708Y-0.755
X1.4708Y-0.855
X1.4708Y-0.955
X1.7828Y-0.855
X1.8108Y-1.335
X1.92Y-0.13
X1.92Y-0.23
X1.92Y-0.33
X1.92Y-0.43
X2.0387Y-0.855
X2.22Y-0.13
X2.22Y-0.23
X2.22Y-0.33
X2.22Y-0.43
X2.4608Y-1.0735
X2.4608Y-1.2657
X2.64Y-0.13
X2.64Y-0.23
X2.64Y-0.33
X2.64Y-0.43
X2.64Y-0.53
X2.64Y-0.63
X2.64Y-0.73
X2.64Y-0.83
X2.64Y-0.93
X2.64Y-1.03
X2.64Y-1.13
X2.64Y-1.23
X2.64Y-1.33
X2.64Y-1.43
X2.64Y-1.53
X2.64Y-1.63
X2.64Y-1.73
X2.64Y-1.83
X2.64Y-1.93
X2.64Y-2.03
X3.24Y-0.13
X3.24Y-0.23
X3.24Y-0.33
X3.24Y-0.43
X3.24Y-0.53
X3.24Y-0.63
X3.24Y-0.73
X3.24Y-0.83
X3.24Y-0.93
X3.24Y-1.03
X3.24Y-1.13
X3.24Y-1.23
X3.24Y-1.33
X3.24Y-1.43
X3.24Y-1.53
X3.24Y-1.63
X3.24Y-1.73
X3.24Y-1.83
X3.24Y-1.93
X3.24Y-2.03
X3.4508Y-0.94
X3.4508Y-1.0384
T3
X1.0989Y-1.73
X1.0989Y-1.828
X1.1796Y-1.828
X1.282Y-1.828
X1.3627Y-1.73
X1.3627Y-1.828
T4
X0.2008Y-0.3386
X0.2008Y-0.4386
X1.9608Y-1.335
X2.0608Y-1.335
T5
X0.4678Y-0.4496
X0.4678Y-0.6268
X0.7237Y-0.4496
X0.7237Y-0.6268
X0.77Y-0.16
X0.77Y-0.26
X0.87Y-0.16
X0.87Y-0.26
X0.97Y-0.16
X0.97Y-0.26
X1.07Y-0.16
X1.07Y-0.26
X1.3Y-0.16
X1.3Y-0.26
X1.4Y-0.16
X1.4Y-0.26
X1.5Y-0.16
X1.5Y-0.26
X1.6Y-0.16
X1.6Y-0.26
X1.7Y-0.16
X1.7Y-0.26
X2.5Y-0.23
X2.5Y-0.33
X2.5Y-0.43
X2.5Y-0.53
X2.5Y-0.63
X2.5Y-0.73
X2.5Y-0.83
X2.5Y-1.53
X2.5Y-1.63
X2.5Y-1.73
X2.5Y-1.83
X2.5Y-1.93
X2.5Y-2.03
X3.38Y-0.13
X3.38Y-0.23
X3.38Y-0.33
X3.38Y-0.43
X3.38Y-0.53
X3.38Y-0.63
X3.38Y-0.73
X3.38Y-1.23
X3.38Y-1.33
X3.38Y-1.43
X3.38Y-1.53
X3.38Y-1.63
X3.38Y-1.73
X3.38Y-1.83
X3.38Y-1.93
T6
X0.1908Y-1.58
X0.1908Y-1.68
X0.1908Y-1.78
T7
X0.9646Y-1.9461
X1.2308Y-1.978
X1.4969Y-1.9461
T8
X1.7989Y-1.8207
X1.9958Y-1.9979
X2.1926Y-1.8207
T2
G00X0.4383Y-1.6328
M15
G01X0.525Y-1.6328
M16
G05
G00X0.4383Y-1.869
M15
G01X0.525Y-1.869
M16
G05
G00X0.6706Y-1.7844
M15
G01X0.6706Y-1.6781
M16
G05
M30
