%TF.GenerationSoftware,KiCad,Pcbnew,7.0.10*%
%TF.CreationDate,2024-03-07T20:25:43+01:00*%
%TF.ProjectId,avr-basic-sbc,6176722d-6261-4736-9963-2d7362632e6b,v0.1*%
%TF.SameCoordinates,Original*%
%TF.FileFunction,Soldermask,Top*%
%TF.FilePolarity,Negative*%
%FSLAX46Y46*%
G04 Gerber Fmt 4.6, Leading zero omitted, Abs format (unit mm)*
G04 Created by KiCad (PCBNEW 7.0.10) date 2024-03-07 20:25:43*
%MOMM*%
%LPD*%
G01*
G04 APERTURE LIST*
G04 Aperture macros list*
%AMRoundRect*
0 Rectangle with rounded corners*
0 $1 Rounding radius*
0 $2 $3 $4 $5 $6 $7 $8 $9 X,Y pos of 4 corners*
0 Add a 4 corners polygon primitive as box body*
4,1,4,$2,$3,$4,$5,$6,$7,$8,$9,$2,$3,0*
0 Add four circle primitives for the rounded corners*
1,1,$1+$1,$2,$3*
1,1,$1+$1,$4,$5*
1,1,$1+$1,$6,$7*
1,1,$1+$1,$8,$9*
0 Add four rect primitives between the rounded corners*
20,1,$1+$1,$2,$3,$4,$5,0*
20,1,$1+$1,$4,$5,$6,$7,0*
20,1,$1+$1,$6,$7,$8,$9,0*
20,1,$1+$1,$8,$9,$2,$3,0*%
G04 Aperture macros list end*
%ADD10C,3.200000*%
%ADD11C,1.600000*%
%ADD12O,1.600000X1.600000*%
%ADD13RoundRect,0.102000X-0.699000X-0.699000X0.699000X-0.699000X0.699000X0.699000X-0.699000X0.699000X0*%
%ADD14C,1.602000*%
%ADD15C,3.510000*%
%ADD16O,2.554000X4.904000*%
%ADD17O,4.204000X2.204000*%
%ADD18RoundRect,0.102000X-0.754000X-0.754000X0.754000X-0.754000X0.754000X0.754000X-0.754000X0.754000X0*%
%ADD19C,1.712000*%
%ADD20R,2.000000X1.905000*%
%ADD21O,2.000000X1.905000*%
%ADD22R,1.800000X1.800000*%
%ADD23C,1.800000*%
%ADD24R,1.700000X1.700000*%
%ADD25O,1.700000X1.700000*%
%ADD26R,1.600000X1.600000*%
%ADD27C,1.400000*%
%ADD28C,1.512000*%
%ADD29RoundRect,0.102000X-0.654000X-0.654000X0.654000X-0.654000X0.654000X0.654000X-0.654000X0.654000X0*%
%ADD30C,3.820000*%
%ADD31RoundRect,0.102000X0.654000X-0.654000X0.654000X0.654000X-0.654000X0.654000X-0.654000X-0.654000X0*%
%ADD32C,1.500000*%
G04 APERTURE END LIST*
D10*
%TO.C,MH1*%
X94430000Y-104800000D03*
%TD*%
D11*
%TO.C,R7*%
X123444000Y-66294000D03*
D12*
X113284000Y-66294000D03*
%TD*%
D11*
%TO.C,R6*%
X113284000Y-90424000D03*
D12*
X123444000Y-90424000D03*
%TD*%
D13*
%TO.C,J2*%
X123982000Y-99772000D03*
D14*
X121382000Y-99772000D03*
X126032000Y-99772000D03*
X119332000Y-99772000D03*
X126032000Y-97282000D03*
X119332000Y-97282000D03*
D15*
X122682000Y-103582000D03*
X115922000Y-102772000D03*
X129442000Y-102772000D03*
%TD*%
D11*
%TO.C,R1*%
X113284000Y-71120000D03*
D12*
X123444000Y-71120000D03*
%TD*%
D16*
%TO.C,J1*%
X108454000Y-97312600D03*
D17*
X103654000Y-100812600D03*
X103654000Y-94812600D03*
%TD*%
D18*
%TO.C,S1*%
X103303000Y-64760500D03*
D19*
X109803000Y-64760500D03*
X103303000Y-69260500D03*
X109803000Y-69260500D03*
%TD*%
D10*
%TO.C,MH2*%
X182430000Y-56800000D03*
%TD*%
D20*
%TO.C,U2*%
X96266000Y-98552000D03*
D21*
X96266000Y-96012000D03*
X96266000Y-93472000D03*
%TD*%
D22*
%TO.C,D2*%
X143764000Y-87249000D03*
D23*
X141224000Y-87249000D03*
%TD*%
D24*
%TO.C,J7*%
X154940000Y-92181600D03*
D25*
X154940000Y-94721600D03*
X154940000Y-97261600D03*
X154940000Y-99801600D03*
X154940000Y-102341600D03*
X154940000Y-104881600D03*
%TD*%
D24*
%TO.C,J6*%
X177292000Y-102362000D03*
D25*
X177292000Y-99822000D03*
X177292000Y-97282000D03*
X177292000Y-94742000D03*
X177292000Y-92202000D03*
X177292000Y-89662000D03*
X177292000Y-87122000D03*
X177292000Y-84582000D03*
%TD*%
D11*
%TO.C,R3*%
X113284000Y-75946000D03*
D12*
X123444000Y-75946000D03*
%TD*%
D11*
%TO.C,R8*%
X137414000Y-87249000D03*
D12*
X127254000Y-87249000D03*
%TD*%
D26*
%TO.C,C3*%
X105164200Y-78105000D03*
D11*
X107664200Y-78105000D03*
%TD*%
D10*
%TO.C,MH3*%
X94430000Y-56800000D03*
%TD*%
D24*
%TO.C,J4*%
X154940000Y-59182000D03*
D25*
X154940000Y-61722000D03*
X154940000Y-64262000D03*
X154940000Y-66802000D03*
X154940000Y-69342000D03*
X154940000Y-71882000D03*
X154940000Y-74422000D03*
%TD*%
D26*
%TO.C,C4*%
X105116600Y-87249000D03*
D11*
X107616600Y-87249000D03*
%TD*%
D26*
%TO.C,U3*%
X140091000Y-56906000D03*
D12*
X140091000Y-59446000D03*
X140091000Y-61986000D03*
X140091000Y-64526000D03*
X147711000Y-64526000D03*
X147711000Y-61986000D03*
X147711000Y-59446000D03*
X147711000Y-56906000D03*
%TD*%
D27*
%TO.C,C2*%
X148082000Y-87737000D03*
X148082000Y-85237000D03*
%TD*%
D11*
%TO.C,R2*%
X96520000Y-79248000D03*
D12*
X96520000Y-69088000D03*
%TD*%
D22*
%TO.C,D1*%
X96520000Y-61844000D03*
D23*
X96520000Y-64384000D03*
%TD*%
D28*
%TO.C,BZ1*%
X136704000Y-75057000D03*
X143204000Y-75057000D03*
%TD*%
D11*
%TO.C,R5*%
X113284000Y-85598000D03*
D12*
X123444000Y-85598000D03*
%TD*%
D26*
%TO.C,U1*%
X158496000Y-56642000D03*
D12*
X158496000Y-59182000D03*
X158496000Y-61722000D03*
X158496000Y-64262000D03*
X158496000Y-66802000D03*
X158496000Y-69342000D03*
X158496000Y-71882000D03*
X158496000Y-74422000D03*
X158496000Y-76962000D03*
X158496000Y-79502000D03*
X158496000Y-82042000D03*
X158496000Y-84582000D03*
X158496000Y-87122000D03*
X158496000Y-89662000D03*
X158496000Y-92202000D03*
X158496000Y-94742000D03*
X158496000Y-97282000D03*
X158496000Y-99822000D03*
X158496000Y-102362000D03*
X158496000Y-104902000D03*
X173736000Y-104902000D03*
X173736000Y-102362000D03*
X173736000Y-99822000D03*
X173736000Y-97282000D03*
X173736000Y-94742000D03*
X173736000Y-92202000D03*
X173736000Y-89662000D03*
X173736000Y-87122000D03*
X173736000Y-84582000D03*
X173736000Y-82042000D03*
X173736000Y-79502000D03*
X173736000Y-76962000D03*
X173736000Y-74422000D03*
X173736000Y-71882000D03*
X173736000Y-69342000D03*
X173736000Y-66802000D03*
X173736000Y-64262000D03*
X173736000Y-61722000D03*
X173736000Y-59182000D03*
X173736000Y-56642000D03*
%TD*%
D24*
%TO.C,J9*%
X111008000Y-59944000D03*
D25*
X111008000Y-57404000D03*
X113548000Y-59944000D03*
X113548000Y-57404000D03*
X116088000Y-59944000D03*
X116088000Y-57404000D03*
X118628000Y-59944000D03*
X118628000Y-57404000D03*
%TD*%
D11*
%TO.C,R4*%
X113284000Y-80772000D03*
D12*
X123444000Y-80772000D03*
%TD*%
D27*
%TO.C,C1*%
X148082000Y-78379000D03*
X148082000Y-80879000D03*
%TD*%
D29*
%TO.C,S2*%
X94520000Y-82590000D03*
D28*
X96520000Y-82590000D03*
X98520000Y-82590000D03*
X94520000Y-87590000D03*
X96520000Y-87590000D03*
X98520000Y-87590000D03*
%TD*%
D26*
%TO.C,C5*%
X179070000Y-80049400D03*
D11*
X179070000Y-77549400D03*
%TD*%
D30*
%TO.C,J3*%
X137113000Y-99587000D03*
X147113000Y-99587000D03*
X142113000Y-104087000D03*
%TD*%
D24*
%TO.C,J5*%
X177292000Y-56642000D03*
D25*
X177292000Y-59182000D03*
X177292000Y-61722000D03*
X177292000Y-64262000D03*
X177292000Y-66802000D03*
X177292000Y-69342000D03*
X177292000Y-71882000D03*
%TD*%
D10*
%TO.C,MH4*%
X182430000Y-104800000D03*
%TD*%
D31*
%TO.C,S3*%
X128778000Y-75057000D03*
D28*
X128778000Y-77597000D03*
X128778000Y-72517000D03*
%TD*%
D24*
%TO.C,J8*%
X124338000Y-59949000D03*
D25*
X124338000Y-57409000D03*
X126878000Y-59949000D03*
X126878000Y-57409000D03*
X129418000Y-59949000D03*
X129418000Y-57409000D03*
X131958000Y-59949000D03*
X131958000Y-57409000D03*
X134498000Y-59949000D03*
X134498000Y-57409000D03*
%TD*%
D32*
%TO.C,Y1*%
X153924000Y-80608000D03*
X153924000Y-85488000D03*
%TD*%
M02*
