%TF.GenerationSoftware,KiCad,Pcbnew,7.0.10*%
%TF.CreationDate,2024-04-09T23:56:02+02:00*%
%TF.ProjectId,avr-basic-sbc,6176722d-6261-4736-9963-2d7362632e6b,v0.1*%
%TF.SameCoordinates,Original*%
%TF.FileFunction,Copper,L2,Bot*%
%TF.FilePolarity,Positive*%
%FSLAX46Y46*%
G04 Gerber Fmt 4.6, Leading zero omitted, Abs format (unit mm)*
G04 Created by KiCad (PCBNEW 7.0.10) date 2024-04-09 23:56:02*
%MOMM*%
%LPD*%
G01*
G04 APERTURE LIST*
%TA.AperFunction,ComponentPad*%
%ADD10C,1.600000*%
%TD*%
%TA.AperFunction,ComponentPad*%
%ADD11O,1.600000X1.600000*%
%TD*%
%TA.AperFunction,ComponentPad*%
%ADD12R,1.398000X1.398000*%
%TD*%
%TA.AperFunction,ComponentPad*%
%ADD13C,1.398000*%
%TD*%
%TA.AperFunction,ComponentPad*%
%ADD14C,3.306000*%
%TD*%
%TA.AperFunction,ComponentPad*%
%ADD15O,2.350000X4.700000*%
%TD*%
%TA.AperFunction,ComponentPad*%
%ADD16O,4.000000X2.000000*%
%TD*%
%TA.AperFunction,ComponentPad*%
%ADD17R,1.508000X1.508000*%
%TD*%
%TA.AperFunction,ComponentPad*%
%ADD18C,1.508000*%
%TD*%
%TA.AperFunction,ComponentPad*%
%ADD19R,2.000000X1.905000*%
%TD*%
%TA.AperFunction,ComponentPad*%
%ADD20O,2.000000X1.905000*%
%TD*%
%TA.AperFunction,ComponentPad*%
%ADD21R,1.800000X1.800000*%
%TD*%
%TA.AperFunction,ComponentPad*%
%ADD22C,1.800000*%
%TD*%
%TA.AperFunction,ComponentPad*%
%ADD23R,1.700000X1.700000*%
%TD*%
%TA.AperFunction,ComponentPad*%
%ADD24O,1.700000X1.700000*%
%TD*%
%TA.AperFunction,ComponentPad*%
%ADD25R,1.600000X1.600000*%
%TD*%
%TA.AperFunction,ComponentPad*%
%ADD26C,1.400000*%
%TD*%
%TA.AperFunction,ComponentPad*%
%ADD27C,1.308000*%
%TD*%
%TA.AperFunction,ComponentPad*%
%ADD28R,1.308000X1.308000*%
%TD*%
%TA.AperFunction,ComponentPad*%
%ADD29C,3.616000*%
%TD*%
%TA.AperFunction,ComponentPad*%
%ADD30C,1.500000*%
%TD*%
%TA.AperFunction,Conductor*%
%ADD31C,0.250000*%
%TD*%
%TA.AperFunction,Conductor*%
%ADD32C,0.500000*%
%TD*%
G04 APERTURE END LIST*
D10*
%TO.P,R7,1*%
%TO.N,Net-(R7-Pad1)*%
X32024000Y-12954000D03*
D11*
%TO.P,R7,2*%
%TO.N,Net-(BZ1-+)*%
X21864000Y-12954000D03*
%TD*%
D10*
%TO.P,R6,1*%
%TO.N,+5V*%
X21864000Y-37084000D03*
D11*
%TO.P,R6,2*%
%TO.N,Net-(U3-~{WP})*%
X32024000Y-37084000D03*
%TD*%
D12*
%TO.P,J2,1*%
%TO.N,Data*%
X30300000Y-46432000D03*
D13*
%TO.P,J2,2*%
%TO.N,unconnected-(J2-Pad2)*%
X27700000Y-46432000D03*
%TO.P,J2,3*%
%TO.N,GND*%
X32350000Y-46432000D03*
%TO.P,J2,4*%
%TO.N,+5V*%
X25650000Y-46432000D03*
%TO.P,J2,5*%
%TO.N,Clock*%
X32350000Y-43942000D03*
%TO.P,J2,6*%
%TO.N,unconnected-(J2-Pad6)*%
X25650000Y-43942000D03*
D14*
%TO.P,J2,S1*%
%TO.N,GND*%
X29000000Y-50242000D03*
%TO.P,J2,S2*%
X22240000Y-49432000D03*
%TO.P,J2,S3*%
X35760000Y-49432000D03*
%TD*%
D10*
%TO.P,R1,1*%
%TO.N,+5V*%
X21864000Y-17780000D03*
D11*
%TO.P,R1,2*%
%TO.N,RESET*%
X32024000Y-17780000D03*
%TD*%
D15*
%TO.P,J1,2*%
%TO.N,GND*%
X17034000Y-43972600D03*
D16*
%TO.P,J1,3*%
X12234000Y-47472600D03*
%TO.P,J1,4*%
%TO.N,/POWER IN*%
X12234000Y-41472600D03*
%TD*%
D17*
%TO.P,S1,1*%
%TO.N,unconnected-(S1-Pad1)*%
X11883000Y-11420500D03*
D18*
%TO.P,S1,2*%
%TO.N,RESET*%
X18383000Y-11420500D03*
%TO.P,S1,3*%
%TO.N,GND*%
X11883000Y-15920500D03*
%TO.P,S1,4*%
%TO.N,unconnected-(S1-Pad4)*%
X18383000Y-15920500D03*
%TD*%
D19*
%TO.P,U2,1,IN*%
%TO.N,/POWER IN 2*%
X4846000Y-45212000D03*
D20*
%TO.P,U2,2,GND*%
%TO.N,GND*%
X4846000Y-42672000D03*
%TO.P,U2,3,OUT*%
%TO.N,+5V*%
X4846000Y-40132000D03*
%TD*%
D21*
%TO.P,D2,1,K*%
%TO.N,GND*%
X52344000Y-33909000D03*
D22*
%TO.P,D2,2,A*%
%TO.N,Net-(D2-A)*%
X49804000Y-33909000D03*
%TD*%
D23*
%TO.P,J7,1,Pin_1*%
%TO.N,Net-(J7-Pin_1)*%
X63500000Y-38862000D03*
D24*
%TO.P,J7,2,Pin_2*%
%TO.N,Net-(J7-Pin_2)*%
X63500000Y-41402000D03*
%TO.P,J7,3,Pin_3*%
%TO.N,Net-(J7-Pin_3)*%
X63500000Y-43942000D03*
%TO.P,J7,4,Pin_4*%
%TO.N,Net-(J7-Pin_4)*%
X63500000Y-46482000D03*
%TO.P,J7,5,Pin_5*%
%TO.N,Net-(J7-Pin_5)*%
X63500000Y-49022000D03*
%TO.P,J7,6,Pin_6*%
%TO.N,Net-(J7-Pin_6)*%
X63500000Y-51562000D03*
%TD*%
D23*
%TO.P,J6,1,Pin_1*%
%TO.N,Net-(J6-Pin_1)*%
X85852000Y-49022000D03*
D24*
%TO.P,J6,2,Pin_2*%
%TO.N,Net-(J6-Pin_2)*%
X85852000Y-46482000D03*
%TO.P,J6,3,Pin_3*%
%TO.N,Net-(J6-Pin_3)*%
X85852000Y-43942000D03*
%TO.P,J6,4,Pin_4*%
%TO.N,Net-(J6-Pin_4)*%
X85852000Y-41402000D03*
%TO.P,J6,5,Pin_5*%
%TO.N,Net-(J6-Pin_5)*%
X85852000Y-38862000D03*
%TO.P,J6,6,Pin_6*%
%TO.N,Net-(J6-Pin_6)*%
X85852000Y-36322000D03*
%TO.P,J6,7,Pin_7*%
%TO.N,Net-(J6-Pin_7)*%
X85852000Y-33782000D03*
%TO.P,J6,8,Pin_8*%
%TO.N,Net-(J6-Pin_8)*%
X85852000Y-31242000D03*
%TD*%
D10*
%TO.P,R3,1*%
%TO.N,Net-(J3-Video)*%
X21864000Y-22606000D03*
D11*
%TO.P,R3,2*%
%TO.N,Video*%
X32024000Y-22606000D03*
%TD*%
D10*
%TO.P,R8,1*%
%TO.N,Net-(J7-Pin_5)*%
X45994000Y-33909000D03*
D11*
%TO.P,R8,2*%
%TO.N,Net-(D2-A)*%
X35834000Y-33909000D03*
%TD*%
D25*
%TO.P,C3,1*%
%TO.N,/POWER IN 2*%
X13744200Y-24765000D03*
D10*
%TO.P,C3,2*%
%TO.N,GND*%
X16244200Y-24765000D03*
%TD*%
D23*
%TO.P,J4,1,Pin_1*%
%TO.N,Net-(J4-Pin_1)*%
X63500000Y-5842000D03*
D24*
%TO.P,J4,2,Pin_2*%
%TO.N,Net-(J4-Pin_2)*%
X63500000Y-8382000D03*
%TO.P,J4,3,Pin_3*%
%TO.N,Net-(J4-Pin_3)*%
X63500000Y-10922000D03*
%TO.P,J4,4,Pin_4*%
%TO.N,~{CS}*%
X63500000Y-13462000D03*
%TO.P,J4,5,Pin_5*%
%TO.N,MOSI*%
X63500000Y-16002000D03*
%TO.P,J4,6,Pin_6*%
%TO.N,MISO*%
X63500000Y-18542000D03*
%TO.P,J4,7,Pin_7*%
%TO.N,SCK*%
X63500000Y-21082000D03*
%TD*%
D25*
%TO.P,C4,1*%
%TO.N,+5V*%
X13696600Y-33909000D03*
D10*
%TO.P,C4,2*%
%TO.N,GND*%
X16196600Y-33909000D03*
%TD*%
D25*
%TO.P,U3,1,~{CS}*%
%TO.N,~{CS}*%
X48768000Y-3302000D03*
D11*
%TO.P,U3,2,MISO*%
%TO.N,MISO*%
X48768000Y-5842000D03*
%TO.P,U3,3,~{WP}*%
%TO.N,Net-(U3-~{WP})*%
X48768000Y-8382000D03*
%TO.P,U3,4,GND*%
%TO.N,GND*%
X48768000Y-10922000D03*
%TO.P,U3,5,MOSI*%
%TO.N,MOSI*%
X56388000Y-10922000D03*
%TO.P,U3,6,SCK*%
%TO.N,SCK*%
X56388000Y-8382000D03*
%TO.P,U3,7,~{HOLD}*%
%TO.N,Net-(U3-~{HOLD})*%
X56388000Y-5842000D03*
%TO.P,U3,8,VCC*%
%TO.N,+5V*%
X56388000Y-3302000D03*
%TD*%
D26*
%TO.P,C2,1*%
%TO.N,Net-(U1-XTAL1)*%
X56662000Y-34397000D03*
%TO.P,C2,2*%
%TO.N,GND*%
X56662000Y-31897000D03*
%TD*%
D10*
%TO.P,R2,1*%
%TO.N,+5V*%
X5100000Y-25908000D03*
D11*
%TO.P,R2,2*%
%TO.N,Net-(D1-A)*%
X5100000Y-15748000D03*
%TD*%
D21*
%TO.P,D1,1,K*%
%TO.N,GND*%
X5100000Y-8600000D03*
D22*
%TO.P,D1,2,A*%
%TO.N,Net-(D1-A)*%
X5100000Y-11140000D03*
%TD*%
D27*
%TO.P,BZ1,1,+*%
%TO.N,Net-(BZ1-+)*%
X45284000Y-21717000D03*
%TO.P,BZ1,2,-*%
%TO.N,GND*%
X51784000Y-21717000D03*
%TD*%
D10*
%TO.P,R5,1*%
%TO.N,+5V*%
X21864000Y-32258000D03*
D11*
%TO.P,R5,2*%
%TO.N,Net-(U3-~{HOLD})*%
X32024000Y-32258000D03*
%TD*%
D25*
%TO.P,U1,1,PB0*%
%TO.N,Clock*%
X67056000Y-3302000D03*
D11*
%TO.P,U1,2,PB1*%
%TO.N,Net-(J4-Pin_1)*%
X67056000Y-5842000D03*
%TO.P,U1,3,PB2*%
%TO.N,Net-(J4-Pin_2)*%
X67056000Y-8382000D03*
%TO.P,U1,4,PB3*%
%TO.N,Net-(J4-Pin_3)*%
X67056000Y-10922000D03*
%TO.P,U1,5,PB4*%
%TO.N,~{CS}*%
X67056000Y-13462000D03*
%TO.P,U1,6,PB5*%
%TO.N,MOSI*%
X67056000Y-16002000D03*
%TO.P,U1,7,PB6*%
%TO.N,MISO*%
X67056000Y-18542000D03*
%TO.P,U1,8,PB7*%
%TO.N,SCK*%
X67056000Y-21082000D03*
%TO.P,U1,9,~{RESET}*%
%TO.N,RESET*%
X67056000Y-23622000D03*
%TO.P,U1,10,VCC*%
%TO.N,+5V*%
X67056000Y-26162000D03*
%TO.P,U1,11,GND*%
%TO.N,GND*%
X67056000Y-28702000D03*
%TO.P,U1,12,XTAL2*%
%TO.N,Net-(U1-XTAL2)*%
X67056000Y-31242000D03*
%TO.P,U1,13,XTAL1*%
%TO.N,Net-(U1-XTAL1)*%
X67056000Y-33782000D03*
%TO.P,U1,14,PD0*%
%TO.N,Data*%
X67056000Y-36322000D03*
%TO.P,U1,15,PD1*%
%TO.N,Net-(J7-Pin_1)*%
X67056000Y-38862000D03*
%TO.P,U1,16,PD2*%
%TO.N,Net-(J7-Pin_2)*%
X67056000Y-41402000D03*
%TO.P,U1,17,PD3*%
%TO.N,Net-(J7-Pin_3)*%
X67056000Y-43942000D03*
%TO.P,U1,18,PD4*%
%TO.N,Net-(J7-Pin_4)*%
X67056000Y-46482000D03*
%TO.P,U1,19,PD5*%
%TO.N,Sync*%
X67056000Y-49022000D03*
%TO.P,U1,20,PD6*%
%TO.N,Net-(J7-Pin_5)*%
X67056000Y-51562000D03*
%TO.P,U1,21,PD7*%
%TO.N,Net-(J7-Pin_6)*%
X82296000Y-51562000D03*
%TO.P,U1,22,PC0*%
%TO.N,Net-(J6-Pin_1)*%
X82296000Y-49022000D03*
%TO.P,U1,23,PC1*%
%TO.N,Net-(J6-Pin_2)*%
X82296000Y-46482000D03*
%TO.P,U1,24,PC2*%
%TO.N,Net-(J6-Pin_3)*%
X82296000Y-43942000D03*
%TO.P,U1,25,PC3*%
%TO.N,Net-(J6-Pin_4)*%
X82296000Y-41402000D03*
%TO.P,U1,26,PC4*%
%TO.N,Net-(J6-Pin_5)*%
X82296000Y-38862000D03*
%TO.P,U1,27,PC5*%
%TO.N,Net-(J6-Pin_6)*%
X82296000Y-36322000D03*
%TO.P,U1,28,PC6*%
%TO.N,Net-(J6-Pin_7)*%
X82296000Y-33782000D03*
%TO.P,U1,29,PC7*%
%TO.N,Net-(J6-Pin_8)*%
X82296000Y-31242000D03*
%TO.P,U1,30,AVCC*%
%TO.N,+5V*%
X82296000Y-28702000D03*
%TO.P,U1,31,GND*%
%TO.N,GND*%
X82296000Y-26162000D03*
%TO.P,U1,32,AREF*%
%TO.N,unconnected-(U1-AREF-Pad32)*%
X82296000Y-23622000D03*
%TO.P,U1,33,PA7*%
%TO.N,Video*%
X82296000Y-21082000D03*
%TO.P,U1,34,PA6*%
%TO.N,Net-(J5-Pin_7)*%
X82296000Y-18542000D03*
%TO.P,U1,35,PA5*%
%TO.N,Net-(J5-Pin_6)*%
X82296000Y-16002000D03*
%TO.P,U1,36,PA4*%
%TO.N,Net-(J5-Pin_5)*%
X82296000Y-13462000D03*
%TO.P,U1,37,PA3*%
%TO.N,Net-(J5-Pin_4)*%
X82296000Y-10922000D03*
%TO.P,U1,38,PA2*%
%TO.N,Net-(J5-Pin_3)*%
X82296000Y-8382000D03*
%TO.P,U1,39,PA1*%
%TO.N,Net-(J5-Pin_2)*%
X82296000Y-5842000D03*
%TO.P,U1,40,PA0*%
%TO.N,Net-(J5-Pin_1)*%
X82296000Y-3302000D03*
%TD*%
D23*
%TO.P,J9,1,Pin_1*%
%TO.N,+5V*%
X19558000Y-6604000D03*
D24*
%TO.P,J9,2,Pin_2*%
%TO.N,GND*%
X19558000Y-4064000D03*
%TO.P,J9,3,Pin_3*%
%TO.N,+5V*%
X22098000Y-6604000D03*
%TO.P,J9,4,Pin_4*%
%TO.N,GND*%
X22098000Y-4064000D03*
%TO.P,J9,5,Pin_5*%
%TO.N,+5V*%
X24638000Y-6604000D03*
%TO.P,J9,6,Pin_6*%
%TO.N,GND*%
X24638000Y-4064000D03*
%TO.P,J9,7,Pin_7*%
%TO.N,+5V*%
X27178000Y-6604000D03*
%TO.P,J9,8,Pin_8*%
%TO.N,GND*%
X27178000Y-4064000D03*
%TD*%
D10*
%TO.P,R4,1*%
%TO.N,Net-(J3-Video)*%
X21864000Y-27432000D03*
D11*
%TO.P,R4,2*%
%TO.N,Sync*%
X32024000Y-27432000D03*
%TD*%
D26*
%TO.P,C1,1*%
%TO.N,Net-(U1-XTAL2)*%
X56662000Y-25039000D03*
%TO.P,C1,2*%
%TO.N,GND*%
X56662000Y-27539000D03*
%TD*%
D28*
%TO.P,S2,1*%
%TO.N,unconnected-(S2-Pad1)*%
X3100000Y-29250000D03*
D27*
%TO.P,S2,2*%
%TO.N,unconnected-(S2-Pad2)*%
X5100000Y-29250000D03*
%TO.P,S2,3*%
%TO.N,unconnected-(S2-Pad3)*%
X7100000Y-29250000D03*
%TO.P,S2,4*%
%TO.N,unconnected-(S2-Pad4)*%
X3100000Y-34250000D03*
%TO.P,S2,5*%
%TO.N,/POWER IN*%
X5100000Y-34250000D03*
%TO.P,S2,6*%
%TO.N,/POWER IN 2*%
X7100000Y-34250000D03*
%TD*%
D25*
%TO.P,C5,1*%
%TO.N,+5V*%
X87650000Y-26376000D03*
D10*
%TO.P,C5,2*%
%TO.N,GND*%
X87650000Y-23876000D03*
%TD*%
D29*
%TO.P,J3,1,Shield*%
%TO.N,GND*%
X47000000Y-50600000D03*
%TO.P,J3,2,Video*%
%TO.N,Net-(J3-Video)*%
X42000000Y-46100000D03*
X52000000Y-46100000D03*
%TD*%
D23*
%TO.P,J5,1,Pin_1*%
%TO.N,Net-(J5-Pin_1)*%
X85852000Y-3302000D03*
D24*
%TO.P,J5,2,Pin_2*%
%TO.N,Net-(J5-Pin_2)*%
X85852000Y-5842000D03*
%TO.P,J5,3,Pin_3*%
%TO.N,Net-(J5-Pin_3)*%
X85852000Y-8382000D03*
%TO.P,J5,4,Pin_4*%
%TO.N,Net-(J5-Pin_4)*%
X85852000Y-10922000D03*
%TO.P,J5,5,Pin_5*%
%TO.N,Net-(J5-Pin_5)*%
X85852000Y-13462000D03*
%TO.P,J5,6,Pin_6*%
%TO.N,Net-(J5-Pin_6)*%
X85852000Y-16002000D03*
%TO.P,J5,7,Pin_7*%
%TO.N,Net-(J5-Pin_7)*%
X85852000Y-18542000D03*
%TD*%
D28*
%TO.P,S3,1*%
%TO.N,Net-(J7-Pin_6)*%
X37358000Y-21717000D03*
D27*
%TO.P,S3,2*%
%TO.N,Net-(R7-Pad1)*%
X37358000Y-24257000D03*
%TO.P,S3,3*%
%TO.N,unconnected-(S3-Pad3)*%
X37358000Y-19177000D03*
%TD*%
D23*
%TO.P,J8,1,Pin_1*%
%TO.N,MOSI*%
X33020000Y-6604000D03*
D24*
%TO.P,J8,2,Pin_2*%
%TO.N,unconnected-(J8-Pin_2-Pad2)*%
X33020000Y-4064000D03*
%TO.P,J8,3,Pin_3*%
%TO.N,unconnected-(J8-Pin_3-Pad3)*%
X35560000Y-6604000D03*
%TO.P,J8,4,Pin_4*%
%TO.N,GND*%
X35560000Y-4064000D03*
%TO.P,J8,5,Pin_5*%
%TO.N,RESET*%
X38100000Y-6604000D03*
%TO.P,J8,6,Pin_6*%
%TO.N,GND*%
X38100000Y-4064000D03*
%TO.P,J8,7,Pin_7*%
%TO.N,SCK*%
X40640000Y-6604000D03*
%TO.P,J8,8,Pin_8*%
%TO.N,GND*%
X40640000Y-4064000D03*
%TO.P,J8,9,Pin_9*%
%TO.N,MISO*%
X43180000Y-6604000D03*
%TO.P,J8,10,Pin_10*%
%TO.N,GND*%
X43180000Y-4064000D03*
%TD*%
D30*
%TO.P,Y1,1,1*%
%TO.N,Net-(U1-XTAL2)*%
X62504000Y-27268000D03*
%TO.P,Y1,2,2*%
%TO.N,Net-(U1-XTAL1)*%
X62504000Y-32148000D03*
%TD*%
D31*
%TO.N,GND*%
X28478000Y-2794000D02*
X27208000Y-4064000D01*
X34183000Y-2794000D02*
X28478000Y-2794000D01*
X35458000Y-4069000D02*
X34183000Y-2794000D01*
D32*
%TO.N,/POWER IN*%
X12234000Y-41472600D02*
X12234000Y-41384000D01*
X12234000Y-41384000D02*
X5100000Y-34250000D01*
%TO.N,+5V*%
X25650000Y-46328000D02*
X25650000Y-46432000D01*
X21864000Y-37084000D02*
X21864000Y-42542000D01*
X19766500Y-6812500D02*
X19766500Y-15682500D01*
X21864000Y-42542000D02*
X25650000Y-46328000D01*
X19588000Y-6604000D02*
X19558000Y-6604000D01*
X20612100Y-19031900D02*
X21864000Y-17780000D01*
X19766500Y-15682500D02*
X21864000Y-17780000D01*
X19558000Y-6604000D02*
X19766500Y-6812500D01*
X21864000Y-32258000D02*
X20612100Y-31006100D01*
X20612100Y-31006100D02*
X20612100Y-19031900D01*
%TO.N,/POWER IN 2*%
X13744200Y-26185200D02*
X13744200Y-24765000D01*
X13744000Y-27605800D02*
X13744000Y-26185400D01*
X13744000Y-26185400D02*
X13744000Y-24765000D01*
X13744000Y-26185400D02*
X13744200Y-26185200D01*
X7100000Y-34250000D02*
X13744000Y-27605800D01*
D31*
%TO.N,Clock*%
X64679100Y-2032000D02*
X27178000Y-2032000D01*
X25908000Y-37500000D02*
X32350000Y-43942000D01*
X27178000Y-2032000D02*
X25908000Y-3302000D01*
X25908000Y-3302000D02*
X25908000Y-37500000D01*
X67076000Y-3302000D02*
X65949100Y-3302000D01*
X65949100Y-3302000D02*
X64679100Y-2032000D01*
%TO.N,~{CS}*%
X62230000Y-12172000D02*
X62230000Y-9906000D01*
X62230000Y-9906000D02*
X56896000Y-4572000D01*
X63520000Y-13462000D02*
X62230000Y-12172000D01*
X56896000Y-4572000D02*
X49677000Y-4572000D01*
X49677000Y-4572000D02*
X48671000Y-3566000D01*
%TO.N,MOSI*%
X56388000Y-10922000D02*
X56291000Y-11019000D01*
X56291000Y-11019000D02*
X56291000Y-11186000D01*
X61468000Y-16002000D02*
X56388000Y-10922000D01*
X63520000Y-16002000D02*
X61468000Y-16002000D01*
%TO.N,MISO*%
X62000400Y-18542000D02*
X49564400Y-6106000D01*
X63520000Y-18542000D02*
X62000400Y-18542000D01*
X49564400Y-6106000D02*
X48671000Y-6106000D01*
%TO.N,SCK*%
X63036650Y-14732000D02*
X63965600Y-14732000D01*
X63965600Y-14732000D02*
X65532000Y-16298400D01*
X56950650Y-8646000D02*
X63036650Y-14732000D01*
X65532000Y-19538000D02*
X67076000Y-21082000D01*
X56291000Y-8646000D02*
X56950650Y-8646000D01*
X65532000Y-16298400D02*
X65532000Y-19538000D01*
%TO.N,Net-(J7-Pin_5)*%
X62343100Y-49001600D02*
X62341000Y-49001600D01*
X63520000Y-49001600D02*
X62343100Y-49001600D01*
X47248400Y-33909000D02*
X45994000Y-33909000D01*
X62341000Y-49001600D02*
X47248400Y-33909000D01*
%TO.N,Net-(J7-Pin_6)*%
X30889700Y-22112100D02*
X31545100Y-21456700D01*
X39878000Y-32512000D02*
X35444300Y-32512000D01*
X36377100Y-21717000D02*
X37358000Y-21717000D01*
X63479600Y-51541600D02*
X48006000Y-36068000D01*
X35444300Y-32512000D02*
X30889700Y-27957400D01*
X30889700Y-27957400D02*
X30889700Y-22112100D01*
X31545100Y-21456700D02*
X36116800Y-21456700D01*
X43434000Y-36068000D02*
X39878000Y-32512000D01*
X63520000Y-51541600D02*
X63479600Y-51541600D01*
X36116800Y-21456700D02*
X36377100Y-21717000D01*
X48006000Y-36068000D02*
X43434000Y-36068000D01*
%TO.N,RESET*%
X37998000Y-11806000D02*
X49814000Y-23622000D01*
X49814000Y-23622000D02*
X67076000Y-23622000D01*
X32024000Y-17780000D02*
X37998000Y-11806000D01*
X37998000Y-11806000D02*
X37998000Y-6609000D01*
%TO.N,Video*%
X39390000Y-29972000D02*
X82804000Y-29972000D01*
X82804000Y-29972000D02*
X83820000Y-28956000D01*
X83820000Y-28956000D02*
X83820000Y-22606000D01*
X32024000Y-22606000D02*
X39390000Y-29972000D01*
X83820000Y-22606000D02*
X82296000Y-21082000D01*
%TO.N,Sync*%
X65786000Y-47752000D02*
X61730500Y-47752000D01*
X61730500Y-47752000D02*
X45415400Y-31436900D01*
X45415400Y-31436900D02*
X37155800Y-31436900D01*
X37155800Y-31436900D02*
X33150900Y-27432000D01*
X67076000Y-49022000D02*
X67056000Y-49022000D01*
X33150900Y-27432000D02*
X32024000Y-27432000D01*
X67056000Y-49022000D02*
X65786000Y-47752000D01*
%TO.N,Net-(U3-~{WP})*%
X32024000Y-35957100D02*
X32024000Y-37084000D01*
X48671000Y-8646000D02*
X48768000Y-8549000D01*
X43700050Y-2864200D02*
X42599800Y-2864200D01*
X30428800Y-16162200D02*
X30428800Y-34361900D01*
X30428800Y-34361900D02*
X32024000Y-35957100D01*
X42599800Y-2864200D02*
X41910000Y-3554000D01*
X41910000Y-4826000D02*
X41397000Y-5339000D01*
X41910000Y-3554000D02*
X41910000Y-4826000D01*
X41397000Y-5339000D02*
X37567100Y-5339000D01*
X48768000Y-8549000D02*
X48768000Y-7932150D01*
X36830000Y-9761000D02*
X30428800Y-16162200D01*
X48768000Y-7932150D02*
X43700050Y-2864200D01*
X36830000Y-6076100D02*
X36830000Y-9761000D01*
X37567100Y-5339000D02*
X36830000Y-6076100D01*
%TD*%
%TA.AperFunction,Conductor*%
%TO.N,GND*%
G36*
X26093085Y-2019685D02*
G01*
X26138840Y-2072489D01*
X26148784Y-2141647D01*
X26119759Y-2205203D01*
X26113727Y-2211681D01*
X25524208Y-2801199D01*
X25511951Y-2811020D01*
X25512134Y-2811241D01*
X25506122Y-2816214D01*
X25461086Y-2864170D01*
X25400844Y-2899563D01*
X25331030Y-2896767D01*
X25318292Y-2891665D01*
X25101492Y-2790570D01*
X25101486Y-2790567D01*
X24888000Y-2733364D01*
X24888000Y-3628498D01*
X24780315Y-3579320D01*
X24673763Y-3564000D01*
X24602237Y-3564000D01*
X24495685Y-3579320D01*
X24388000Y-3628498D01*
X24388000Y-2733364D01*
X24387999Y-2733364D01*
X24174513Y-2790567D01*
X24174507Y-2790570D01*
X23960422Y-2890399D01*
X23960420Y-2890400D01*
X23766926Y-3025886D01*
X23766920Y-3025891D01*
X23599891Y-3192920D01*
X23599890Y-3192922D01*
X23469575Y-3379031D01*
X23414998Y-3422655D01*
X23345499Y-3429848D01*
X23283145Y-3398326D01*
X23266425Y-3379031D01*
X23136109Y-3192922D01*
X23136108Y-3192920D01*
X22969082Y-3025894D01*
X22775578Y-2890399D01*
X22561492Y-2790570D01*
X22561486Y-2790567D01*
X22348000Y-2733364D01*
X22348000Y-3628498D01*
X22240315Y-3579320D01*
X22133763Y-3564000D01*
X22062237Y-3564000D01*
X21955685Y-3579320D01*
X21848000Y-3628498D01*
X21848000Y-2733364D01*
X21847999Y-2733364D01*
X21634513Y-2790567D01*
X21634507Y-2790570D01*
X21420422Y-2890399D01*
X21420420Y-2890400D01*
X21226926Y-3025886D01*
X21226920Y-3025891D01*
X21059891Y-3192920D01*
X21059890Y-3192922D01*
X20929575Y-3379031D01*
X20874998Y-3422655D01*
X20805499Y-3429848D01*
X20743145Y-3398326D01*
X20726425Y-3379031D01*
X20596109Y-3192922D01*
X20596108Y-3192920D01*
X20429082Y-3025894D01*
X20235578Y-2890399D01*
X20021492Y-2790570D01*
X20021486Y-2790567D01*
X19808000Y-2733364D01*
X19808000Y-3628498D01*
X19700315Y-3579320D01*
X19593763Y-3564000D01*
X19522237Y-3564000D01*
X19415685Y-3579320D01*
X19308000Y-3628498D01*
X19308000Y-2733364D01*
X19307999Y-2733364D01*
X19094513Y-2790567D01*
X19094507Y-2790570D01*
X18880422Y-2890399D01*
X18880420Y-2890400D01*
X18686926Y-3025886D01*
X18686920Y-3025891D01*
X18519891Y-3192920D01*
X18519886Y-3192926D01*
X18384400Y-3386420D01*
X18384399Y-3386422D01*
X18284570Y-3600507D01*
X18284567Y-3600513D01*
X18227364Y-3813999D01*
X18227364Y-3814000D01*
X19124314Y-3814000D01*
X19098507Y-3854156D01*
X19058000Y-3992111D01*
X19058000Y-4135889D01*
X19098507Y-4273844D01*
X19124314Y-4314000D01*
X18227364Y-4314000D01*
X18284567Y-4527486D01*
X18284570Y-4527492D01*
X18384399Y-4741578D01*
X18519894Y-4935082D01*
X18641946Y-5057134D01*
X18675431Y-5118457D01*
X18670447Y-5188149D01*
X18628575Y-5244082D01*
X18597598Y-5260997D01*
X18465671Y-5310202D01*
X18465664Y-5310206D01*
X18350455Y-5396452D01*
X18350452Y-5396455D01*
X18264206Y-5511664D01*
X18264202Y-5511671D01*
X18213908Y-5646517D01*
X18207501Y-5706116D01*
X18207500Y-5706135D01*
X18207500Y-7501870D01*
X18207501Y-7501876D01*
X18213908Y-7561483D01*
X18264202Y-7696328D01*
X18264206Y-7696335D01*
X18350452Y-7811544D01*
X18350455Y-7811547D01*
X18465664Y-7897793D01*
X18465671Y-7897797D01*
X18465674Y-7897798D01*
X18600517Y-7948091D01*
X18660127Y-7954500D01*
X18892000Y-7954499D01*
X18959039Y-7974183D01*
X19004794Y-8026987D01*
X19016000Y-8078499D01*
X19016000Y-10136844D01*
X18996315Y-10203883D01*
X18943511Y-10249638D01*
X18874353Y-10259582D01*
X18839598Y-10249227D01*
X18813709Y-10237155D01*
X18813704Y-10237153D01*
X18813703Y-10237153D01*
X18638080Y-10190094D01*
X18601675Y-10180339D01*
X18601668Y-10180338D01*
X18383002Y-10161208D01*
X18382998Y-10161208D01*
X18164331Y-10180338D01*
X18164324Y-10180339D01*
X18076460Y-10203883D01*
X17952297Y-10237153D01*
X17952295Y-10237153D01*
X17952291Y-10237155D01*
X17753357Y-10329919D01*
X17753349Y-10329923D01*
X17573547Y-10455822D01*
X17573541Y-10455827D01*
X17418327Y-10611041D01*
X17418322Y-10611047D01*
X17292423Y-10790849D01*
X17292419Y-10790857D01*
X17199655Y-10989791D01*
X17142839Y-11201824D01*
X17142838Y-11201831D01*
X17123708Y-11420497D01*
X17123708Y-11420502D01*
X17142838Y-11639168D01*
X17142839Y-11639175D01*
X17150661Y-11668365D01*
X17199653Y-11851203D01*
X17199654Y-11851206D01*
X17199655Y-11851208D01*
X17292419Y-12050142D01*
X17292423Y-12050150D01*
X17418322Y-12229952D01*
X17418327Y-12229958D01*
X17573541Y-12385172D01*
X17573547Y-12385177D01*
X17753349Y-12511076D01*
X17753351Y-12511077D01*
X17753354Y-12511079D01*
X17952297Y-12603847D01*
X18164326Y-12660661D01*
X18320521Y-12674326D01*
X18382998Y-12679792D01*
X18383000Y-12679792D01*
X18383002Y-12679792D01*
X18437797Y-12674998D01*
X18601674Y-12660661D01*
X18813703Y-12603847D01*
X18839596Y-12591772D01*
X18908672Y-12581281D01*
X18972456Y-12609800D01*
X19010696Y-12668277D01*
X19016000Y-12704155D01*
X19016000Y-14636844D01*
X18996315Y-14703883D01*
X18943511Y-14749638D01*
X18874353Y-14759582D01*
X18839598Y-14749227D01*
X18813709Y-14737155D01*
X18813704Y-14737153D01*
X18813703Y-14737153D01*
X18633023Y-14688739D01*
X18601675Y-14680339D01*
X18601668Y-14680338D01*
X18383002Y-14661208D01*
X18382998Y-14661208D01*
X18164331Y-14680338D01*
X18164324Y-14680339D01*
X18041902Y-14713142D01*
X17952297Y-14737153D01*
X17952295Y-14737153D01*
X17952291Y-14737155D01*
X17753357Y-14829919D01*
X17753349Y-14829923D01*
X17573547Y-14955822D01*
X17573541Y-14955827D01*
X17418327Y-15111041D01*
X17418322Y-15111047D01*
X17292423Y-15290849D01*
X17292419Y-15290857D01*
X17199655Y-15489791D01*
X17199653Y-15489795D01*
X17199653Y-15489797D01*
X17191211Y-15521302D01*
X17142839Y-15701824D01*
X17142838Y-15701831D01*
X17123708Y-15920497D01*
X17123708Y-15920502D01*
X17142831Y-16139092D01*
X17142839Y-16139174D01*
X17199653Y-16351203D01*
X17199654Y-16351206D01*
X17199655Y-16351208D01*
X17292419Y-16550142D01*
X17292423Y-16550150D01*
X17418322Y-16729952D01*
X17418327Y-16729958D01*
X17573541Y-16885172D01*
X17573547Y-16885177D01*
X17753349Y-17011076D01*
X17753351Y-17011077D01*
X17753354Y-17011079D01*
X17952297Y-17103847D01*
X18164326Y-17160661D01*
X18320521Y-17174326D01*
X18382998Y-17179792D01*
X18383000Y-17179792D01*
X18383002Y-17179792D01*
X18437668Y-17175009D01*
X18601674Y-17160661D01*
X18813703Y-17103847D01*
X19012646Y-17011079D01*
X19192457Y-16885174D01*
X19347674Y-16729957D01*
X19429673Y-16612849D01*
X19484246Y-16569227D01*
X19553744Y-16562033D01*
X19616099Y-16593555D01*
X19618926Y-16596294D01*
X20537282Y-17514650D01*
X20570767Y-17575973D01*
X20573129Y-17613137D01*
X20558532Y-17779996D01*
X20558532Y-17780003D01*
X20573129Y-17946861D01*
X20559362Y-18015360D01*
X20537282Y-18045348D01*
X20126458Y-18456172D01*
X20112829Y-18467951D01*
X20093569Y-18482290D01*
X20061732Y-18520231D01*
X20054446Y-18528184D01*
X20050507Y-18532124D01*
X20031276Y-18556445D01*
X20029002Y-18559237D01*
X19980794Y-18616690D01*
X19976829Y-18622719D01*
X19976782Y-18622688D01*
X19972730Y-18629047D01*
X19972779Y-18629077D01*
X19968989Y-18635221D01*
X19937292Y-18703194D01*
X19935723Y-18706436D01*
X19902057Y-18773472D01*
X19899588Y-18780257D01*
X19899532Y-18780236D01*
X19897060Y-18787350D01*
X19897115Y-18787369D01*
X19894843Y-18794225D01*
X19879673Y-18867688D01*
X19878893Y-18871204D01*
X19861599Y-18944179D01*
X19860761Y-18951354D01*
X19860701Y-18951347D01*
X19859935Y-18958845D01*
X19859995Y-18958851D01*
X19859365Y-18966040D01*
X19861548Y-19041028D01*
X19861600Y-19044635D01*
X19861600Y-30942394D01*
X19860291Y-30960363D01*
X19856810Y-30984125D01*
X19861128Y-31033468D01*
X19861600Y-31044276D01*
X19861600Y-31049811D01*
X19865198Y-31080595D01*
X19865564Y-31084183D01*
X19872100Y-31158891D01*
X19873561Y-31165967D01*
X19873503Y-31165978D01*
X19875134Y-31173337D01*
X19875192Y-31173324D01*
X19876857Y-31180349D01*
X19876858Y-31180354D01*
X19876859Y-31180355D01*
X19899295Y-31242001D01*
X19902500Y-31250805D01*
X19903682Y-31254207D01*
X19927282Y-31325426D01*
X19930336Y-31331974D01*
X19930282Y-31331998D01*
X19933570Y-31338788D01*
X19933621Y-31338763D01*
X19936861Y-31345214D01*
X19978079Y-31407884D01*
X19979989Y-31410882D01*
X20011072Y-31461274D01*
X20019389Y-31474758D01*
X20023866Y-31480419D01*
X20023819Y-31480456D01*
X20028582Y-31486302D01*
X20028628Y-31486264D01*
X20033273Y-31491799D01*
X20087807Y-31543249D01*
X20090395Y-31545763D01*
X20537282Y-31992650D01*
X20570767Y-32053973D01*
X20573129Y-32091137D01*
X20558532Y-32257996D01*
X20558532Y-32258001D01*
X20578364Y-32484686D01*
X20578366Y-32484697D01*
X20637258Y-32704488D01*
X20637261Y-32704497D01*
X20733431Y-32910732D01*
X20733432Y-32910734D01*
X20863954Y-33097141D01*
X21024858Y-33258045D01*
X21024861Y-33258047D01*
X21211266Y-33388568D01*
X21417504Y-33484739D01*
X21637308Y-33543635D01*
X21772320Y-33555447D01*
X21863998Y-33563468D01*
X21864000Y-33563468D01*
X21864002Y-33563468D01*
X21920673Y-33558509D01*
X22090692Y-33543635D01*
X22310496Y-33484739D01*
X22516734Y-33388568D01*
X22703139Y-33258047D01*
X22864047Y-33097139D01*
X22994568Y-32910734D01*
X23090739Y-32704496D01*
X23149635Y-32484692D01*
X23169468Y-32258000D01*
X23168816Y-32250553D01*
X23159844Y-32147997D01*
X23149635Y-32031308D01*
X23090739Y-31811504D01*
X22994568Y-31605266D01*
X22864047Y-31418861D01*
X22864045Y-31418858D01*
X22703141Y-31257954D01*
X22516734Y-31127432D01*
X22516732Y-31127431D01*
X22310497Y-31031261D01*
X22310488Y-31031258D01*
X22090697Y-30972366D01*
X22090693Y-30972365D01*
X22090692Y-30972365D01*
X22090691Y-30972364D01*
X22090686Y-30972364D01*
X21864002Y-30952532D01*
X21863997Y-30952532D01*
X21697137Y-30967129D01*
X21628637Y-30953362D01*
X21598650Y-30931282D01*
X21398919Y-30731551D01*
X21365434Y-30670228D01*
X21362600Y-30643870D01*
X21362600Y-28805627D01*
X21382285Y-28738588D01*
X21435089Y-28692833D01*
X21504247Y-28682889D01*
X21518683Y-28685849D01*
X21637308Y-28717635D01*
X21799230Y-28731801D01*
X21863998Y-28737468D01*
X21864000Y-28737468D01*
X21864002Y-28737468D01*
X21920673Y-28732509D01*
X22090692Y-28717635D01*
X22310496Y-28658739D01*
X22516734Y-28562568D01*
X22703139Y-28432047D01*
X22864047Y-28271139D01*
X22994568Y-28084734D01*
X23090739Y-27878496D01*
X23149635Y-27658692D01*
X23169468Y-27432000D01*
X23168272Y-27418335D01*
X23159612Y-27319342D01*
X23149635Y-27205308D01*
X23090739Y-26985504D01*
X22994568Y-26779266D01*
X22864047Y-26592861D01*
X22864045Y-26592858D01*
X22703141Y-26431954D01*
X22516734Y-26301432D01*
X22516732Y-26301431D01*
X22310497Y-26205261D01*
X22310488Y-26205258D01*
X22090697Y-26146366D01*
X22090693Y-26146365D01*
X22090692Y-26146365D01*
X22090691Y-26146364D01*
X22090686Y-26146364D01*
X21864002Y-26126532D01*
X21863998Y-26126532D01*
X21637313Y-26146364D01*
X21637302Y-26146366D01*
X21518693Y-26178147D01*
X21448843Y-26176484D01*
X21390981Y-26137321D01*
X21363477Y-26073092D01*
X21362600Y-26058372D01*
X21362600Y-23979627D01*
X21382285Y-23912588D01*
X21435089Y-23866833D01*
X21504247Y-23856889D01*
X21518683Y-23859849D01*
X21637308Y-23891635D01*
X21794791Y-23905413D01*
X21863998Y-23911468D01*
X21864000Y-23911468D01*
X21864002Y-23911468D01*
X21920673Y-23906509D01*
X22090692Y-23891635D01*
X22310496Y-23832739D01*
X22516734Y-23736568D01*
X22703139Y-23606047D01*
X22864047Y-23445139D01*
X22994568Y-23258734D01*
X23090739Y-23052496D01*
X23149635Y-22832692D01*
X23169468Y-22606000D01*
X23168143Y-22590860D01*
X23160029Y-22498112D01*
X23149635Y-22379308D01*
X23099757Y-22193159D01*
X23090741Y-22159511D01*
X23090738Y-22159502D01*
X22994568Y-21953266D01*
X22864047Y-21766861D01*
X22864045Y-21766858D01*
X22703141Y-21605954D01*
X22516734Y-21475432D01*
X22516732Y-21475431D01*
X22310497Y-21379261D01*
X22310488Y-21379258D01*
X22090697Y-21320366D01*
X22090693Y-21320365D01*
X22090692Y-21320365D01*
X22090691Y-21320364D01*
X22090686Y-21320364D01*
X21864002Y-21300532D01*
X21863998Y-21300532D01*
X21637313Y-21320364D01*
X21637302Y-21320366D01*
X21518693Y-21352147D01*
X21448843Y-21350484D01*
X21390981Y-21311321D01*
X21363477Y-21247092D01*
X21362600Y-21232372D01*
X21362600Y-19394129D01*
X21382285Y-19327090D01*
X21398915Y-19306452D01*
X21598652Y-19106714D01*
X21659973Y-19073231D01*
X21697135Y-19070869D01*
X21840366Y-19083400D01*
X21863999Y-19085468D01*
X21864000Y-19085468D01*
X21864002Y-19085468D01*
X21920673Y-19080509D01*
X22090692Y-19065635D01*
X22310496Y-19006739D01*
X22516734Y-18910568D01*
X22703139Y-18780047D01*
X22864047Y-18619139D01*
X22994568Y-18432734D01*
X23090739Y-18226496D01*
X23149635Y-18006692D01*
X23169468Y-17780000D01*
X23149635Y-17553308D01*
X23093904Y-17345317D01*
X23090741Y-17333511D01*
X23090738Y-17333502D01*
X23062059Y-17272000D01*
X22994568Y-17127266D01*
X22864047Y-16940861D01*
X22864045Y-16940858D01*
X22703141Y-16779954D01*
X22516734Y-16649432D01*
X22516732Y-16649431D01*
X22310497Y-16553261D01*
X22310488Y-16553258D01*
X22090697Y-16494366D01*
X22090693Y-16494365D01*
X22090692Y-16494365D01*
X22090691Y-16494364D01*
X22090686Y-16494364D01*
X21864002Y-16474532D01*
X21863997Y-16474532D01*
X21697137Y-16489129D01*
X21628637Y-16475362D01*
X21598650Y-16453282D01*
X20553319Y-15407951D01*
X20519834Y-15346628D01*
X20517000Y-15320270D01*
X20517000Y-13690914D01*
X20536685Y-13623875D01*
X20589489Y-13578120D01*
X20658647Y-13568176D01*
X20722203Y-13597201D01*
X20742572Y-13619788D01*
X20790815Y-13688686D01*
X20863954Y-13793141D01*
X21024858Y-13954045D01*
X21024861Y-13954047D01*
X21211266Y-14084568D01*
X21417504Y-14180739D01*
X21637308Y-14239635D01*
X21799230Y-14253801D01*
X21863998Y-14259468D01*
X21864000Y-14259468D01*
X21864002Y-14259468D01*
X21920673Y-14254509D01*
X22090692Y-14239635D01*
X22310496Y-14180739D01*
X22516734Y-14084568D01*
X22703139Y-13954047D01*
X22864047Y-13793139D01*
X22994568Y-13606734D01*
X23090739Y-13400496D01*
X23149635Y-13180692D01*
X23169468Y-12954000D01*
X23149635Y-12727308D01*
X23097315Y-12532046D01*
X23090741Y-12507511D01*
X23090738Y-12507502D01*
X23074255Y-12472154D01*
X22994568Y-12301266D01*
X22864047Y-12114861D01*
X22864045Y-12114858D01*
X22703141Y-11953954D01*
X22516734Y-11823432D01*
X22516732Y-11823431D01*
X22310497Y-11727261D01*
X22310488Y-11727258D01*
X22090697Y-11668366D01*
X22090693Y-11668365D01*
X22090692Y-11668365D01*
X22090691Y-11668364D01*
X22090686Y-11668364D01*
X21864002Y-11648532D01*
X21863998Y-11648532D01*
X21637313Y-11668364D01*
X21637302Y-11668366D01*
X21417511Y-11727258D01*
X21417502Y-11727261D01*
X21211267Y-11823431D01*
X21211265Y-11823432D01*
X21024858Y-11953954D01*
X20863954Y-12114858D01*
X20742575Y-12288208D01*
X20687999Y-12331833D01*
X20618500Y-12339027D01*
X20556145Y-12307504D01*
X20520731Y-12247275D01*
X20517000Y-12217085D01*
X20517000Y-8033620D01*
X20536685Y-7966581D01*
X20589489Y-7920826D01*
X20597668Y-7917438D01*
X20650326Y-7897798D01*
X20650326Y-7897797D01*
X20650331Y-7897796D01*
X20765546Y-7811546D01*
X20851796Y-7696331D01*
X20900810Y-7564916D01*
X20942681Y-7508984D01*
X21008145Y-7484566D01*
X21076418Y-7499417D01*
X21104673Y-7520569D01*
X21226599Y-7642495D01*
X21314679Y-7704169D01*
X21420165Y-7778032D01*
X21420167Y-7778033D01*
X21420170Y-7778035D01*
X21634337Y-7877903D01*
X21862592Y-7939063D01*
X22039034Y-7954500D01*
X22097999Y-7959659D01*
X22098000Y-7959659D01*
X22098001Y-7959659D01*
X22156966Y-7954500D01*
X22333408Y-7939063D01*
X22561663Y-7877903D01*
X22775830Y-7778035D01*
X22969401Y-7642495D01*
X23136495Y-7475401D01*
X23266425Y-7289842D01*
X23321002Y-7246217D01*
X23390500Y-7239023D01*
X23452855Y-7270546D01*
X23469575Y-7289842D01*
X23599500Y-7475395D01*
X23599505Y-7475401D01*
X23766599Y-7642495D01*
X23854679Y-7704169D01*
X23960165Y-7778032D01*
X23960167Y-7778033D01*
X23960170Y-7778035D01*
X24174337Y-7877903D01*
X24402592Y-7939063D01*
X24579034Y-7954500D01*
X24637999Y-7959659D01*
X24638000Y-7959659D01*
X24638001Y-7959659D01*
X24696966Y-7954500D01*
X24873408Y-7939063D01*
X25101663Y-7877903D01*
X25106094Y-7875837D01*
X25175171Y-7865344D01*
X25238955Y-7893863D01*
X25277196Y-7952339D01*
X25282500Y-7988218D01*
X25282500Y-37417255D01*
X25280775Y-37432872D01*
X25281061Y-37432899D01*
X25280326Y-37440665D01*
X25282439Y-37507872D01*
X25282500Y-37511767D01*
X25282500Y-37539357D01*
X25283003Y-37543335D01*
X25283918Y-37554967D01*
X25285290Y-37598624D01*
X25285291Y-37598627D01*
X25290880Y-37617867D01*
X25294824Y-37636911D01*
X25297040Y-37654452D01*
X25297336Y-37656792D01*
X25313414Y-37697403D01*
X25317197Y-37708452D01*
X25329381Y-37750388D01*
X25339580Y-37767634D01*
X25348138Y-37785103D01*
X25355514Y-37803732D01*
X25381181Y-37839060D01*
X25387593Y-37848821D01*
X25409828Y-37886417D01*
X25409833Y-37886424D01*
X25423990Y-37900580D01*
X25436628Y-37915376D01*
X25448405Y-37931586D01*
X25448406Y-37931587D01*
X25482057Y-37959425D01*
X25490698Y-37967288D01*
X31131968Y-43608558D01*
X31165453Y-43669881D01*
X31166115Y-43714913D01*
X31166401Y-43714940D01*
X31166155Y-43717594D01*
X31166176Y-43719022D01*
X31165872Y-43720647D01*
X31145361Y-43941999D01*
X31145361Y-43942000D01*
X31165871Y-44163351D01*
X31226707Y-44377163D01*
X31226712Y-44377176D01*
X31325795Y-44576161D01*
X31459762Y-44753562D01*
X31525403Y-44813401D01*
X31624043Y-44903323D01*
X31813046Y-45020349D01*
X31945447Y-45071641D01*
X32000848Y-45114214D01*
X32024439Y-45179981D01*
X32008728Y-45248061D01*
X31958704Y-45296840D01*
X31945447Y-45302894D01*
X31813281Y-45354095D01*
X31813266Y-45354102D01*
X31624346Y-45471076D01*
X31624344Y-45471078D01*
X31608663Y-45485373D01*
X31545858Y-45515989D01*
X31476471Y-45507789D01*
X31425861Y-45468046D01*
X31377944Y-45404038D01*
X31356546Y-45375454D01*
X31356544Y-45375453D01*
X31356544Y-45375452D01*
X31241335Y-45289206D01*
X31241328Y-45289202D01*
X31106482Y-45238908D01*
X31106483Y-45238908D01*
X31046883Y-45232501D01*
X31046881Y-45232500D01*
X31046873Y-45232500D01*
X31046864Y-45232500D01*
X29553129Y-45232500D01*
X29553123Y-45232501D01*
X29493516Y-45238908D01*
X29358671Y-45289202D01*
X29358664Y-45289206D01*
X29243455Y-45375452D01*
X29243452Y-45375455D01*
X29157206Y-45490664D01*
X29157202Y-45490671D01*
X29106908Y-45625517D01*
X29100501Y-45685116D01*
X29100500Y-45685135D01*
X29100500Y-46082193D01*
X29080815Y-46149232D01*
X29028011Y-46194987D01*
X28958853Y-46204931D01*
X28895297Y-46175906D01*
X28857523Y-46117128D01*
X28857234Y-46116128D01*
X28856655Y-46114093D01*
X28823292Y-45996834D01*
X28818395Y-45987000D01*
X28739854Y-45829267D01*
X28724205Y-45797839D01*
X28607171Y-45642861D01*
X28590237Y-45620437D01*
X28425958Y-45470678D01*
X28425957Y-45470677D01*
X28236954Y-45353651D01*
X28236952Y-45353650D01*
X28236951Y-45353649D01*
X28029668Y-45273348D01*
X28029667Y-45273347D01*
X28029665Y-45273347D01*
X27811150Y-45232500D01*
X27588850Y-45232500D01*
X27370335Y-45273347D01*
X27370333Y-45273347D01*
X27370331Y-45273348D01*
X27163048Y-45353649D01*
X27163047Y-45353650D01*
X26974041Y-45470678D01*
X26809762Y-45620437D01*
X26773954Y-45667856D01*
X26717845Y-45709492D01*
X26648133Y-45714183D01*
X26586951Y-45680441D01*
X26576046Y-45667856D01*
X26540237Y-45620437D01*
X26375958Y-45470678D01*
X26375957Y-45470677D01*
X26186954Y-45353651D01*
X26186952Y-45353650D01*
X26186951Y-45353649D01*
X26082635Y-45313237D01*
X26055244Y-45302626D01*
X25999844Y-45260054D01*
X25976253Y-45194287D01*
X25991964Y-45126207D01*
X26041988Y-45077428D01*
X26055241Y-45071374D01*
X26186954Y-45020349D01*
X26375957Y-44903323D01*
X26540239Y-44753560D01*
X26674205Y-44576161D01*
X26773292Y-44377166D01*
X26834128Y-44163352D01*
X26854639Y-43942000D01*
X26850556Y-43897942D01*
X26834128Y-43720648D01*
X26807905Y-43628484D01*
X26773292Y-43506834D01*
X26767650Y-43495504D01*
X26724997Y-43409845D01*
X26674205Y-43307839D01*
X26609382Y-43222000D01*
X26540237Y-43130437D01*
X26375958Y-42980678D01*
X26375957Y-42980677D01*
X26186954Y-42863651D01*
X26186952Y-42863650D01*
X26186951Y-42863649D01*
X25979668Y-42783348D01*
X25979667Y-42783347D01*
X25979665Y-42783347D01*
X25761150Y-42742500D01*
X25538850Y-42742500D01*
X25320335Y-42783347D01*
X25320333Y-42783347D01*
X25320331Y-42783348D01*
X25113048Y-42863649D01*
X25113047Y-42863650D01*
X24924041Y-42980678D01*
X24759762Y-43130437D01*
X24625795Y-43307838D01*
X24526712Y-43506823D01*
X24526707Y-43506836D01*
X24465871Y-43720649D01*
X24459557Y-43788797D01*
X24433771Y-43853735D01*
X24376970Y-43894422D01*
X24307189Y-43897942D01*
X24248405Y-43865037D01*
X22650819Y-42267451D01*
X22617334Y-42206128D01*
X22614500Y-42179770D01*
X22614500Y-38210662D01*
X22634185Y-38143623D01*
X22667379Y-38109086D01*
X22703140Y-38084046D01*
X22864045Y-37923141D01*
X22864047Y-37923139D01*
X22994568Y-37736734D01*
X23090739Y-37530496D01*
X23149635Y-37310692D01*
X23169468Y-37084000D01*
X23149635Y-36857308D01*
X23090739Y-36637504D01*
X22994568Y-36431266D01*
X22864047Y-36244861D01*
X22864045Y-36244858D01*
X22703141Y-36083954D01*
X22516734Y-35953432D01*
X22516732Y-35953431D01*
X22310497Y-35857261D01*
X22310488Y-35857258D01*
X22090697Y-35798366D01*
X22090693Y-35798365D01*
X22090692Y-35798365D01*
X22090691Y-35798364D01*
X22090686Y-35798364D01*
X21864002Y-35778532D01*
X21863998Y-35778532D01*
X21637313Y-35798364D01*
X21637302Y-35798366D01*
X21417511Y-35857258D01*
X21417502Y-35857261D01*
X21211267Y-35953431D01*
X21211265Y-35953432D01*
X21024858Y-36083954D01*
X20863954Y-36244858D01*
X20733432Y-36431265D01*
X20733431Y-36431267D01*
X20637261Y-36637502D01*
X20637258Y-36637511D01*
X20578366Y-36857302D01*
X20578364Y-36857313D01*
X20558532Y-37083998D01*
X20558532Y-37084001D01*
X20578364Y-37310686D01*
X20578366Y-37310697D01*
X20637258Y-37530488D01*
X20637261Y-37530497D01*
X20733431Y-37736732D01*
X20733432Y-37736734D01*
X20863954Y-37923141D01*
X21024859Y-38084046D01*
X21060621Y-38109086D01*
X21104247Y-38163662D01*
X21113500Y-38210662D01*
X21113500Y-42478294D01*
X21112191Y-42496263D01*
X21108710Y-42520025D01*
X21113028Y-42569368D01*
X21113500Y-42580176D01*
X21113500Y-42585711D01*
X21117098Y-42616495D01*
X21117464Y-42620083D01*
X21124000Y-42694791D01*
X21125461Y-42701867D01*
X21125403Y-42701878D01*
X21127034Y-42709237D01*
X21127092Y-42709224D01*
X21128757Y-42716249D01*
X21128758Y-42716254D01*
X21128759Y-42716255D01*
X21153554Y-42784382D01*
X21154400Y-42786705D01*
X21155582Y-42790107D01*
X21179182Y-42861326D01*
X21182236Y-42867874D01*
X21182182Y-42867898D01*
X21185470Y-42874688D01*
X21185521Y-42874663D01*
X21188761Y-42881114D01*
X21229979Y-42943784D01*
X21231889Y-42946782D01*
X21248123Y-42973100D01*
X21271289Y-43010658D01*
X21275766Y-43016319D01*
X21275719Y-43016356D01*
X21280482Y-43022202D01*
X21280528Y-43022164D01*
X21285173Y-43027699D01*
X21339708Y-43079150D01*
X21342296Y-43081664D01*
X24425169Y-46164536D01*
X24458654Y-46225859D01*
X24460959Y-46263657D01*
X24445361Y-46431997D01*
X24445361Y-46432000D01*
X24465871Y-46653351D01*
X24526707Y-46867163D01*
X24526712Y-46867176D01*
X24625795Y-47066161D01*
X24759762Y-47243562D01*
X24880244Y-47353395D01*
X24924043Y-47393323D01*
X25113046Y-47510349D01*
X25113047Y-47510349D01*
X25113048Y-47510350D01*
X25127403Y-47515911D01*
X25320335Y-47590653D01*
X25538850Y-47631500D01*
X25538853Y-47631500D01*
X25761147Y-47631500D01*
X25761150Y-47631500D01*
X25979665Y-47590653D01*
X26186954Y-47510349D01*
X26375957Y-47393323D01*
X26540239Y-47243560D01*
X26576047Y-47196142D01*
X26632154Y-47154508D01*
X26701866Y-47149815D01*
X26763048Y-47183557D01*
X26773946Y-47196134D01*
X26809761Y-47243560D01*
X26974043Y-47393323D01*
X27163046Y-47510349D01*
X27163047Y-47510349D01*
X27163048Y-47510350D01*
X27177403Y-47515911D01*
X27370335Y-47590653D01*
X27588850Y-47631500D01*
X27588853Y-47631500D01*
X27811147Y-47631500D01*
X27811150Y-47631500D01*
X28029665Y-47590653D01*
X28236954Y-47510349D01*
X28425957Y-47393323D01*
X28590239Y-47243560D01*
X28724205Y-47066161D01*
X28823292Y-46867166D01*
X28857235Y-46747868D01*
X28894513Y-46688778D01*
X28957822Y-46659220D01*
X29027062Y-46668582D01*
X29080249Y-46713891D01*
X29100496Y-46780763D01*
X29100500Y-46781805D01*
X29100500Y-47178870D01*
X29100501Y-47178876D01*
X29106908Y-47238483D01*
X29157202Y-47373328D01*
X29157206Y-47373335D01*
X29243452Y-47488544D01*
X29243455Y-47488547D01*
X29358664Y-47574793D01*
X29358671Y-47574797D01*
X29493517Y-47625091D01*
X29493516Y-47625091D01*
X29500444Y-47625835D01*
X29553127Y-47631500D01*
X31046872Y-47631499D01*
X31106483Y-47625091D01*
X31241331Y-47574796D01*
X31356546Y-47488546D01*
X31425860Y-47395953D01*
X31481794Y-47354083D01*
X31551486Y-47349099D01*
X31608666Y-47378628D01*
X31624348Y-47392924D01*
X31813266Y-47509897D01*
X31813272Y-47509900D01*
X32020473Y-47590169D01*
X32238899Y-47631000D01*
X32461101Y-47631000D01*
X32679525Y-47590169D01*
X32679535Y-47590166D01*
X32886729Y-47509899D01*
X32886731Y-47509898D01*
X33002601Y-47438153D01*
X32433837Y-46869389D01*
X32482647Y-46862033D01*
X32603509Y-46803829D01*
X32701844Y-46712587D01*
X32768917Y-46596413D01*
X32787323Y-46515770D01*
X33358147Y-47086594D01*
X33373776Y-47065898D01*
X33373783Y-47065886D01*
X33472817Y-46866999D01*
X33472825Y-46866979D01*
X33533633Y-46653261D01*
X33533634Y-46653259D01*
X33554137Y-46432000D01*
X33554137Y-46431999D01*
X33533634Y-46210740D01*
X33533633Y-46210738D01*
X33502125Y-46100000D01*
X39686547Y-46100000D01*
X39706339Y-46401966D01*
X39765376Y-46698766D01*
X39765378Y-46698773D01*
X39765380Y-46698779D01*
X39862644Y-46985312D01*
X39862648Y-46985322D01*
X39996488Y-47256722D01*
X39996492Y-47256729D01*
X40164612Y-47508339D01*
X40364141Y-47735858D01*
X40591660Y-47935387D01*
X40843270Y-48103507D01*
X40843277Y-48103511D01*
X41114677Y-48237351D01*
X41114687Y-48237355D01*
X41286971Y-48295837D01*
X41401234Y-48334624D01*
X41698034Y-48393661D01*
X42000000Y-48413453D01*
X42301966Y-48393661D01*
X42598766Y-48334624D01*
X42791813Y-48269093D01*
X42885312Y-48237355D01*
X42885322Y-48237351D01*
X43104821Y-48129106D01*
X43156727Y-48103509D01*
X43408341Y-47935386D01*
X43635858Y-47735858D01*
X43835386Y-47508341D01*
X44003509Y-47256727D01*
X44137352Y-46985320D01*
X44150814Y-46945664D01*
X44187544Y-46837459D01*
X44234624Y-46698766D01*
X44293661Y-46401966D01*
X44313453Y-46100000D01*
X49686547Y-46100000D01*
X49706339Y-46401966D01*
X49765376Y-46698766D01*
X49765378Y-46698773D01*
X49765380Y-46698779D01*
X49862644Y-46985312D01*
X49862648Y-46985322D01*
X49996488Y-47256722D01*
X49996492Y-47256729D01*
X50164612Y-47508339D01*
X50364141Y-47735858D01*
X50591660Y-47935387D01*
X50843270Y-48103507D01*
X50843277Y-48103511D01*
X51114677Y-48237351D01*
X51114687Y-48237355D01*
X51286971Y-48295837D01*
X51401234Y-48334624D01*
X51698034Y-48393661D01*
X52000000Y-48413453D01*
X52301966Y-48393661D01*
X52598766Y-48334624D01*
X52791813Y-48269093D01*
X52885312Y-48237355D01*
X52885322Y-48237351D01*
X53104821Y-48129106D01*
X53156727Y-48103509D01*
X53408341Y-47935386D01*
X53635858Y-47735858D01*
X53835386Y-47508341D01*
X54003509Y-47256727D01*
X54137352Y-46985320D01*
X54150814Y-46945664D01*
X54187544Y-46837459D01*
X54234624Y-46698766D01*
X54293661Y-46401966D01*
X54313453Y-46100000D01*
X54293661Y-45798034D01*
X54234624Y-45501234D01*
X54137352Y-45214680D01*
X54136516Y-45212984D01*
X54003514Y-44943283D01*
X54003505Y-44943268D01*
X53976813Y-44903321D01*
X53835386Y-44691659D01*
X53750383Y-44594732D01*
X53635858Y-44464141D01*
X53408339Y-44264612D01*
X53156729Y-44096492D01*
X53156722Y-44096488D01*
X52885322Y-43962648D01*
X52885312Y-43962644D01*
X52598779Y-43865380D01*
X52598773Y-43865378D01*
X52598766Y-43865376D01*
X52301966Y-43806339D01*
X52000000Y-43786547D01*
X51698034Y-43806339D01*
X51698028Y-43806340D01*
X51698023Y-43806341D01*
X51401239Y-43865375D01*
X51401225Y-43865378D01*
X51114684Y-43962646D01*
X51114663Y-43962655D01*
X50843283Y-44096485D01*
X50843268Y-44096494D01*
X50591657Y-44264615D01*
X50364141Y-44464141D01*
X50164615Y-44691657D01*
X49996494Y-44943268D01*
X49996485Y-44943283D01*
X49862655Y-45214663D01*
X49862646Y-45214684D01*
X49765378Y-45501225D01*
X49765375Y-45501239D01*
X49710443Y-45777404D01*
X49706339Y-45798034D01*
X49686547Y-46100000D01*
X44313453Y-46100000D01*
X44293661Y-45798034D01*
X44234624Y-45501234D01*
X44137352Y-45214680D01*
X44136516Y-45212984D01*
X44003514Y-44943283D01*
X44003505Y-44943268D01*
X43976813Y-44903321D01*
X43835386Y-44691659D01*
X43750383Y-44594732D01*
X43635858Y-44464141D01*
X43408339Y-44264612D01*
X43156729Y-44096492D01*
X43156722Y-44096488D01*
X42885322Y-43962648D01*
X42885312Y-43962644D01*
X42598779Y-43865380D01*
X42598773Y-43865378D01*
X42598766Y-43865376D01*
X42301966Y-43806339D01*
X42000000Y-43786547D01*
X41698034Y-43806339D01*
X41698028Y-43806340D01*
X41698023Y-43806341D01*
X41401239Y-43865375D01*
X41401225Y-43865378D01*
X41114684Y-43962646D01*
X41114663Y-43962655D01*
X40843283Y-44096485D01*
X40843268Y-44096494D01*
X40591657Y-44264615D01*
X40364141Y-44464141D01*
X40164615Y-44691657D01*
X39996494Y-44943268D01*
X39996485Y-44943283D01*
X39862655Y-45214663D01*
X39862646Y-45214684D01*
X39765378Y-45501225D01*
X39765375Y-45501239D01*
X39710443Y-45777404D01*
X39706339Y-45798034D01*
X39686547Y-46100000D01*
X33502125Y-46100000D01*
X33472825Y-45997020D01*
X33472819Y-45997005D01*
X33373781Y-45798110D01*
X33373776Y-45798103D01*
X33358146Y-45777404D01*
X32789785Y-46345766D01*
X32788743Y-46331860D01*
X32739734Y-46206987D01*
X32656095Y-46102108D01*
X32545259Y-46026541D01*
X32435700Y-45992746D01*
X33002601Y-45425845D01*
X33002600Y-45425844D01*
X32886733Y-45354102D01*
X32886727Y-45354099D01*
X32754552Y-45302895D01*
X32699151Y-45260322D01*
X32675560Y-45194555D01*
X32691271Y-45126475D01*
X32741295Y-45077696D01*
X32754548Y-45071642D01*
X32886954Y-45020349D01*
X33075957Y-44903323D01*
X33240239Y-44753560D01*
X33374205Y-44576161D01*
X33473292Y-44377166D01*
X33534128Y-44163352D01*
X33554639Y-43942000D01*
X33550556Y-43897942D01*
X33534128Y-43720648D01*
X33507905Y-43628484D01*
X33473292Y-43506834D01*
X33467650Y-43495504D01*
X33424997Y-43409845D01*
X33374205Y-43307839D01*
X33309382Y-43222000D01*
X33240237Y-43130437D01*
X33075958Y-42980678D01*
X33075957Y-42980677D01*
X32886954Y-42863651D01*
X32886952Y-42863650D01*
X32886951Y-42863649D01*
X32679668Y-42783348D01*
X32679667Y-42783347D01*
X32679665Y-42783347D01*
X32461150Y-42742500D01*
X32238850Y-42742500D01*
X32187648Y-42752070D01*
X32131427Y-42762580D01*
X32061912Y-42755548D01*
X32020962Y-42728372D01*
X26569819Y-37277228D01*
X26536334Y-37215905D01*
X26533500Y-37189547D01*
X26533500Y-7988218D01*
X26553185Y-7921179D01*
X26605989Y-7875424D01*
X26675147Y-7865480D01*
X26709906Y-7875837D01*
X26714330Y-7877900D01*
X26714332Y-7877900D01*
X26714337Y-7877903D01*
X26942592Y-7939063D01*
X27119034Y-7954500D01*
X27177999Y-7959659D01*
X27178000Y-7959659D01*
X27178001Y-7959659D01*
X27236966Y-7954500D01*
X27413408Y-7939063D01*
X27641663Y-7877903D01*
X27855830Y-7778035D01*
X28049401Y-7642495D01*
X28216495Y-7475401D01*
X28352035Y-7281830D01*
X28451903Y-7067663D01*
X28513063Y-6839408D01*
X28533659Y-6604000D01*
X28513063Y-6368592D01*
X28451903Y-6140337D01*
X28352035Y-5926171D01*
X28346425Y-5918158D01*
X28216494Y-5732597D01*
X28049402Y-5565506D01*
X28049401Y-5565505D01*
X27863405Y-5435269D01*
X27819781Y-5380692D01*
X27812588Y-5311193D01*
X27844110Y-5248839D01*
X27863405Y-5232119D01*
X28049082Y-5102105D01*
X28216105Y-4935082D01*
X28351600Y-4741578D01*
X28451429Y-4527492D01*
X28451432Y-4527486D01*
X28508636Y-4314000D01*
X27611686Y-4314000D01*
X27637493Y-4273844D01*
X27678000Y-4135889D01*
X27678000Y-3992111D01*
X27637493Y-3854156D01*
X27611686Y-3814000D01*
X28508636Y-3814000D01*
X28508635Y-3813999D01*
X28451432Y-3600513D01*
X28451429Y-3600507D01*
X28351600Y-3386422D01*
X28351599Y-3386420D01*
X28216113Y-3192926D01*
X28216108Y-3192920D01*
X28049082Y-3025894D01*
X27855576Y-2890398D01*
X27852963Y-2888890D01*
X27852040Y-2887923D01*
X27851144Y-2887295D01*
X27851270Y-2887114D01*
X27804745Y-2838325D01*
X27791519Y-2769719D01*
X27817484Y-2704853D01*
X27874396Y-2664322D01*
X27914958Y-2657500D01*
X32282038Y-2657500D01*
X32349077Y-2677185D01*
X32394832Y-2729989D01*
X32404776Y-2799147D01*
X32375751Y-2862703D01*
X32346564Y-2886801D01*
X32346605Y-2886860D01*
X32345869Y-2887375D01*
X32344037Y-2888888D01*
X32342166Y-2889968D01*
X32148597Y-3025505D01*
X31981505Y-3192597D01*
X31845965Y-3386169D01*
X31845964Y-3386171D01*
X31746098Y-3600335D01*
X31746094Y-3600344D01*
X31684938Y-3828586D01*
X31684936Y-3828596D01*
X31664341Y-4063999D01*
X31664341Y-4064000D01*
X31684936Y-4299403D01*
X31684938Y-4299413D01*
X31746094Y-4527655D01*
X31746096Y-4527659D01*
X31746097Y-4527663D01*
X31833330Y-4714735D01*
X31845965Y-4741830D01*
X31845967Y-4741834D01*
X31916074Y-4841956D01*
X31981501Y-4935396D01*
X31981506Y-4935402D01*
X32103430Y-5057326D01*
X32136915Y-5118649D01*
X32131931Y-5188341D01*
X32090059Y-5244274D01*
X32059083Y-5261189D01*
X31927669Y-5310203D01*
X31927664Y-5310206D01*
X31812455Y-5396452D01*
X31812452Y-5396455D01*
X31726206Y-5511664D01*
X31726202Y-5511671D01*
X31675908Y-5646517D01*
X31669501Y-5706116D01*
X31669500Y-5706135D01*
X31669500Y-7501870D01*
X31669501Y-7501876D01*
X31675908Y-7561483D01*
X31726202Y-7696328D01*
X31726206Y-7696335D01*
X31812452Y-7811544D01*
X31812455Y-7811547D01*
X31927664Y-7897793D01*
X31927671Y-7897797D01*
X32062517Y-7948091D01*
X32062516Y-7948091D01*
X32069444Y-7948835D01*
X32122127Y-7954500D01*
X33917872Y-7954499D01*
X33977483Y-7948091D01*
X34112331Y-7897796D01*
X34227546Y-7811546D01*
X34313796Y-7696331D01*
X34362810Y-7564916D01*
X34404681Y-7508984D01*
X34470145Y-7484566D01*
X34538418Y-7499417D01*
X34566673Y-7520569D01*
X34688599Y-7642495D01*
X34776679Y-7704169D01*
X34882165Y-7778032D01*
X34882167Y-7778033D01*
X34882170Y-7778035D01*
X35096337Y-7877903D01*
X35324592Y-7939063D01*
X35501034Y-7954500D01*
X35559999Y-7959659D01*
X35560000Y-7959659D01*
X35560001Y-7959659D01*
X35618966Y-7954500D01*
X35795408Y-7939063D01*
X36023663Y-7877903D01*
X36028094Y-7875837D01*
X36097171Y-7865344D01*
X36160955Y-7893863D01*
X36199196Y-7952339D01*
X36204500Y-7988218D01*
X36204500Y-9450547D01*
X36184815Y-9517586D01*
X36168181Y-9538228D01*
X33359476Y-12346932D01*
X33298153Y-12380417D01*
X33228461Y-12375433D01*
X33172528Y-12333561D01*
X33159414Y-12311658D01*
X33154569Y-12301268D01*
X33154567Y-12301265D01*
X33149182Y-12293575D01*
X33024047Y-12114861D01*
X33024045Y-12114858D01*
X32863141Y-11953954D01*
X32676734Y-11823432D01*
X32676732Y-11823431D01*
X32470497Y-11727261D01*
X32470488Y-11727258D01*
X32250697Y-11668366D01*
X32250693Y-11668365D01*
X32250692Y-11668365D01*
X32250691Y-11668364D01*
X32250686Y-11668364D01*
X32024002Y-11648532D01*
X32023998Y-11648532D01*
X31797313Y-11668364D01*
X31797302Y-11668366D01*
X31577511Y-11727258D01*
X31577502Y-11727261D01*
X31371267Y-11823431D01*
X31371265Y-11823432D01*
X31184858Y-11953954D01*
X31023954Y-12114858D01*
X30893432Y-12301265D01*
X30893431Y-12301267D01*
X30797261Y-12507502D01*
X30797258Y-12507511D01*
X30738366Y-12727302D01*
X30738364Y-12727313D01*
X30718532Y-12953998D01*
X30718532Y-12954001D01*
X30738364Y-13180686D01*
X30738366Y-13180697D01*
X30797258Y-13400488D01*
X30797261Y-13400497D01*
X30893431Y-13606732D01*
X30893432Y-13606734D01*
X31023954Y-13793141D01*
X31184858Y-13954045D01*
X31371265Y-14084567D01*
X31371268Y-14084569D01*
X31381658Y-14089414D01*
X31434096Y-14135587D01*
X31453247Y-14202781D01*
X31433030Y-14269662D01*
X31416932Y-14289476D01*
X30045008Y-15661399D01*
X30032751Y-15671220D01*
X30032934Y-15671441D01*
X30026922Y-15676414D01*
X29980898Y-15725423D01*
X29978191Y-15728216D01*
X29958689Y-15747717D01*
X29958675Y-15747734D01*
X29956207Y-15750915D01*
X29948643Y-15759770D01*
X29918737Y-15791618D01*
X29918736Y-15791620D01*
X29909084Y-15809176D01*
X29898410Y-15825426D01*
X29886129Y-15841261D01*
X29886124Y-15841268D01*
X29868775Y-15881358D01*
X29863638Y-15891844D01*
X29842603Y-15930106D01*
X29837622Y-15949507D01*
X29831321Y-15967910D01*
X29823362Y-15986302D01*
X29823361Y-15986305D01*
X29816528Y-16029443D01*
X29814160Y-16040874D01*
X29803301Y-16083171D01*
X29803300Y-16083182D01*
X29803300Y-16103216D01*
X29801773Y-16122615D01*
X29798640Y-16142394D01*
X29798640Y-16142395D01*
X29802750Y-16185874D01*
X29803300Y-16197543D01*
X29803300Y-34279155D01*
X29801575Y-34294772D01*
X29801861Y-34294799D01*
X29801126Y-34302565D01*
X29803239Y-34369772D01*
X29803300Y-34373667D01*
X29803300Y-34401257D01*
X29803803Y-34405235D01*
X29804718Y-34416867D01*
X29806090Y-34460524D01*
X29806091Y-34460527D01*
X29811680Y-34479767D01*
X29815624Y-34498811D01*
X29818136Y-34518692D01*
X29834214Y-34559303D01*
X29837997Y-34570352D01*
X29840175Y-34577849D01*
X29850182Y-34612290D01*
X29855416Y-34621141D01*
X29860380Y-34629534D01*
X29868936Y-34647000D01*
X29876314Y-34665632D01*
X29901981Y-34700960D01*
X29908393Y-34710721D01*
X29930628Y-34748317D01*
X29930633Y-34748324D01*
X29944790Y-34762480D01*
X29957427Y-34777275D01*
X29969206Y-34793487D01*
X30001853Y-34820495D01*
X30002857Y-34821325D01*
X30011498Y-34829188D01*
X31137880Y-35955571D01*
X31171365Y-36016894D01*
X31166381Y-36086586D01*
X31137880Y-36130933D01*
X31023954Y-36244858D01*
X30893432Y-36431265D01*
X30893431Y-36431267D01*
X30797261Y-36637502D01*
X30797258Y-36637511D01*
X30738366Y-36857302D01*
X30738364Y-36857313D01*
X30718532Y-37083998D01*
X30718532Y-37084001D01*
X30738364Y-37310686D01*
X30738366Y-37310697D01*
X30797258Y-37530488D01*
X30797261Y-37530497D01*
X30893431Y-37736732D01*
X30893432Y-37736734D01*
X31023954Y-37923141D01*
X31184858Y-38084045D01*
X31184861Y-38084047D01*
X31371266Y-38214568D01*
X31577504Y-38310739D01*
X31797308Y-38369635D01*
X31959230Y-38383801D01*
X32023998Y-38389468D01*
X32024000Y-38389468D01*
X32024002Y-38389468D01*
X32080673Y-38384509D01*
X32250692Y-38369635D01*
X32470496Y-38310739D01*
X32676734Y-38214568D01*
X32863139Y-38084047D01*
X33024047Y-37923139D01*
X33154568Y-37736734D01*
X33250739Y-37530496D01*
X33309635Y-37310692D01*
X33329468Y-37084000D01*
X33309635Y-36857308D01*
X33250739Y-36637504D01*
X33154568Y-36431266D01*
X33024047Y-36244861D01*
X33024045Y-36244858D01*
X32863140Y-36083953D01*
X32699950Y-35969687D01*
X32656325Y-35915110D01*
X32647134Y-35872005D01*
X32646709Y-35858473D01*
X32646672Y-35858344D01*
X32641120Y-35839237D01*
X32637174Y-35820184D01*
X32634664Y-35800308D01*
X32618578Y-35759681D01*
X32614803Y-35748654D01*
X32602617Y-35706710D01*
X32592421Y-35689469D01*
X32583860Y-35671993D01*
X32576486Y-35653369D01*
X32576485Y-35653367D01*
X32569804Y-35644171D01*
X32550809Y-35618026D01*
X32544412Y-35608290D01*
X32522170Y-35570679D01*
X32522167Y-35570676D01*
X32522165Y-35570673D01*
X32508005Y-35556513D01*
X32495370Y-35541720D01*
X32483593Y-35525512D01*
X32449945Y-35497676D01*
X32441304Y-35489813D01*
X31090619Y-34139128D01*
X31057134Y-34077805D01*
X31054300Y-34051447D01*
X31054300Y-33404828D01*
X31073985Y-33337789D01*
X31126789Y-33292034D01*
X31195947Y-33282090D01*
X31249421Y-33303252D01*
X31371266Y-33388568D01*
X31577504Y-33484739D01*
X31797308Y-33543635D01*
X31932320Y-33555447D01*
X32023998Y-33563468D01*
X32024000Y-33563468D01*
X32024002Y-33563468D01*
X32080673Y-33558509D01*
X32250692Y-33543635D01*
X32470496Y-33484739D01*
X32676734Y-33388568D01*
X32863139Y-33258047D01*
X33024047Y-33097139D01*
X33154568Y-32910734D01*
X33250739Y-32704496D01*
X33309635Y-32484692D01*
X33329468Y-32258000D01*
X33328816Y-32250553D01*
X33319844Y-32147997D01*
X33309635Y-32031308D01*
X33250739Y-31811504D01*
X33154568Y-31605266D01*
X33024047Y-31418861D01*
X33024045Y-31418858D01*
X32863141Y-31257954D01*
X32676734Y-31127432D01*
X32676732Y-31127431D01*
X32470497Y-31031261D01*
X32470488Y-31031258D01*
X32250697Y-30972366D01*
X32250693Y-30972365D01*
X32250692Y-30972365D01*
X32250691Y-30972364D01*
X32250686Y-30972364D01*
X32024002Y-30952532D01*
X32023998Y-30952532D01*
X31797313Y-30972364D01*
X31797302Y-30972366D01*
X31577511Y-31031258D01*
X31577502Y-31031261D01*
X31371270Y-31127430D01*
X31371266Y-31127432D01*
X31249421Y-31212747D01*
X31183216Y-31235074D01*
X31115449Y-31218062D01*
X31067637Y-31167114D01*
X31054300Y-31111171D01*
X31054300Y-29305952D01*
X31073985Y-29238913D01*
X31126789Y-29193158D01*
X31195947Y-29183214D01*
X31259503Y-29212239D01*
X31265980Y-29218270D01*
X33078967Y-31031258D01*
X34888079Y-32840370D01*
X34921564Y-32901693D01*
X34916580Y-32971385D01*
X34888081Y-33015731D01*
X34833952Y-33069861D01*
X34703432Y-33256265D01*
X34703431Y-33256267D01*
X34607261Y-33462502D01*
X34607258Y-33462511D01*
X34548366Y-33682302D01*
X34548364Y-33682313D01*
X34528532Y-33908998D01*
X34528532Y-33909001D01*
X34548364Y-34135686D01*
X34548366Y-34135697D01*
X34607258Y-34355488D01*
X34607261Y-34355497D01*
X34703431Y-34561732D01*
X34703432Y-34561734D01*
X34833954Y-34748141D01*
X34994858Y-34909045D01*
X34999892Y-34912570D01*
X35181266Y-35039568D01*
X35387504Y-35135739D01*
X35607308Y-35194635D01*
X35769230Y-35208801D01*
X35833998Y-35214468D01*
X35834000Y-35214468D01*
X35834002Y-35214468D01*
X35893802Y-35209236D01*
X36060692Y-35194635D01*
X36280496Y-35135739D01*
X36486734Y-35039568D01*
X36673139Y-34909047D01*
X36834047Y-34748139D01*
X36964568Y-34561734D01*
X37060739Y-34355496D01*
X37119635Y-34135692D01*
X37139468Y-33909000D01*
X37119635Y-33682308D01*
X37060739Y-33462504D01*
X36991444Y-33313902D01*
X36980953Y-33244828D01*
X37009472Y-33181044D01*
X37067949Y-33142804D01*
X37103827Y-33137500D01*
X39567548Y-33137500D01*
X39634587Y-33157185D01*
X39655229Y-33173819D01*
X42933197Y-36451788D01*
X42943022Y-36464051D01*
X42943243Y-36463869D01*
X42948211Y-36469874D01*
X42997222Y-36515899D01*
X43000021Y-36518612D01*
X43019522Y-36538114D01*
X43019526Y-36538117D01*
X43019529Y-36538120D01*
X43022702Y-36540581D01*
X43031574Y-36548159D01*
X43063418Y-36578062D01*
X43080976Y-36587714D01*
X43097235Y-36598395D01*
X43113064Y-36610673D01*
X43153155Y-36628021D01*
X43163626Y-36633151D01*
X43171544Y-36637504D01*
X43201902Y-36654194D01*
X43201904Y-36654195D01*
X43201908Y-36654197D01*
X43221316Y-36659180D01*
X43239719Y-36665481D01*
X43258101Y-36673436D01*
X43258102Y-36673436D01*
X43258104Y-36673437D01*
X43301250Y-36680270D01*
X43312672Y-36682636D01*
X43354981Y-36693500D01*
X43375016Y-36693500D01*
X43394414Y-36695026D01*
X43414194Y-36698159D01*
X43414195Y-36698160D01*
X43414195Y-36698159D01*
X43414196Y-36698160D01*
X43457675Y-36694050D01*
X43469344Y-36693500D01*
X47695548Y-36693500D01*
X47762587Y-36713185D01*
X47783229Y-36729819D01*
X62159761Y-51106352D01*
X62193246Y-51167675D01*
X62191855Y-51226124D01*
X62164937Y-51326589D01*
X62164937Y-51326590D01*
X62144341Y-51561999D01*
X62144341Y-51562000D01*
X62164936Y-51797403D01*
X62164938Y-51797413D01*
X62226094Y-52025655D01*
X62226096Y-52025659D01*
X62226097Y-52025663D01*
X62236112Y-52047140D01*
X62325965Y-52239830D01*
X62325967Y-52239834D01*
X62406532Y-52354892D01*
X62461505Y-52433401D01*
X62628599Y-52600495D01*
X62725384Y-52668265D01*
X62822165Y-52736032D01*
X62822167Y-52736033D01*
X62822170Y-52736035D01*
X62870520Y-52758581D01*
X62881322Y-52763618D01*
X62933761Y-52809791D01*
X62952913Y-52876984D01*
X62932697Y-52943865D01*
X62879532Y-52989200D01*
X62828917Y-53000000D01*
X47861083Y-53000000D01*
X47794044Y-52980315D01*
X47748289Y-52927511D01*
X47738345Y-52858353D01*
X47767370Y-52794797D01*
X47821225Y-52758581D01*
X47885118Y-52736891D01*
X47885144Y-52736881D01*
X48156468Y-52603079D01*
X48156475Y-52603074D01*
X48408028Y-52434993D01*
X48408039Y-52434985D01*
X48447139Y-52400694D01*
X48447139Y-52400693D01*
X47725472Y-51679025D01*
X47838816Y-51599662D01*
X47999662Y-51438816D01*
X48079026Y-51325472D01*
X48800693Y-52047139D01*
X48800694Y-52047139D01*
X48834985Y-52008039D01*
X48834993Y-52008028D01*
X49003074Y-51756475D01*
X49003079Y-51756468D01*
X49136881Y-51485144D01*
X49136890Y-51485123D01*
X49234137Y-51198644D01*
X49234140Y-51198630D01*
X49293161Y-50901911D01*
X49293165Y-50901884D01*
X49312952Y-50600007D01*
X49312952Y-50599992D01*
X49293165Y-50298115D01*
X49293161Y-50298088D01*
X49234140Y-50001369D01*
X49234137Y-50001355D01*
X49136890Y-49714876D01*
X49136881Y-49714855D01*
X49003079Y-49443531D01*
X49003074Y-49443524D01*
X48834989Y-49191965D01*
X48800694Y-49152859D01*
X48800693Y-49152858D01*
X48079025Y-49874526D01*
X47999662Y-49761184D01*
X47838816Y-49600338D01*
X47725472Y-49520973D01*
X48447140Y-48799305D01*
X48447140Y-48799304D01*
X48408034Y-48765009D01*
X48156475Y-48596925D01*
X48156468Y-48596920D01*
X47885144Y-48463118D01*
X47885123Y-48463109D01*
X47598644Y-48365862D01*
X47598630Y-48365859D01*
X47301911Y-48306838D01*
X47301884Y-48306834D01*
X47000007Y-48287048D01*
X46999993Y-48287048D01*
X46698115Y-48306834D01*
X46698088Y-48306838D01*
X46401369Y-48365859D01*
X46401355Y-48365862D01*
X46114876Y-48463109D01*
X46114855Y-48463118D01*
X45843531Y-48596920D01*
X45591958Y-48765016D01*
X45552859Y-48799304D01*
X45552859Y-48799306D01*
X46274527Y-49520973D01*
X46161184Y-49600338D01*
X46000338Y-49761184D01*
X45920974Y-49874527D01*
X45199306Y-49152859D01*
X45199304Y-49152859D01*
X45165016Y-49191958D01*
X44996920Y-49443531D01*
X44863118Y-49714855D01*
X44863109Y-49714876D01*
X44765862Y-50001355D01*
X44765859Y-50001369D01*
X44706838Y-50298088D01*
X44706834Y-50298115D01*
X44687048Y-50599992D01*
X44687048Y-50600007D01*
X44706834Y-50901884D01*
X44706838Y-50901911D01*
X44765859Y-51198630D01*
X44765862Y-51198644D01*
X44863109Y-51485123D01*
X44863118Y-51485144D01*
X44996920Y-51756468D01*
X44996925Y-51756475D01*
X45165009Y-52008034D01*
X45199305Y-52047140D01*
X45920973Y-51325471D01*
X46000338Y-51438816D01*
X46161184Y-51599662D01*
X46274526Y-51679025D01*
X45552858Y-52400693D01*
X45552859Y-52400694D01*
X45591965Y-52434989D01*
X45843524Y-52603074D01*
X45843531Y-52603079D01*
X46114855Y-52736881D01*
X46114881Y-52736891D01*
X46178775Y-52758581D01*
X46235930Y-52798770D01*
X46262283Y-52863479D01*
X46249469Y-52932163D01*
X46201555Y-52983016D01*
X46138917Y-53000000D01*
X10051362Y-53000000D01*
X9984323Y-52980315D01*
X9963681Y-52963681D01*
X6432000Y-49432000D01*
X20081969Y-49432000D01*
X20102068Y-49725852D01*
X20102069Y-49725854D01*
X20161991Y-50014218D01*
X20161996Y-50014235D01*
X20260629Y-50291760D01*
X20396136Y-50553279D01*
X20396140Y-50553285D01*
X20548838Y-50769608D01*
X21273071Y-50045375D01*
X21322356Y-50124973D01*
X21465314Y-50281790D01*
X21623958Y-50401592D01*
X20904524Y-51121026D01*
X20995506Y-51195046D01*
X21247172Y-51348088D01*
X21517314Y-51465426D01*
X21800930Y-51544892D01*
X21800936Y-51544893D01*
X22092730Y-51585000D01*
X22387270Y-51585000D01*
X22679063Y-51544893D01*
X22679069Y-51544892D01*
X22962685Y-51465426D01*
X23232827Y-51348088D01*
X23484493Y-51195046D01*
X23484502Y-51195040D01*
X23575473Y-51121026D01*
X22856040Y-50401593D01*
X23014686Y-50281790D01*
X23157644Y-50124973D01*
X23206928Y-50045375D01*
X23931160Y-50769607D01*
X24083863Y-50553278D01*
X24219370Y-50291760D01*
X24237055Y-50242000D01*
X26841969Y-50242000D01*
X26862068Y-50535852D01*
X26862069Y-50535854D01*
X26921991Y-50824218D01*
X26921996Y-50824235D01*
X27020629Y-51101760D01*
X27156136Y-51363279D01*
X27156140Y-51363285D01*
X27308838Y-51579608D01*
X28033071Y-50855375D01*
X28082356Y-50934973D01*
X28225314Y-51091790D01*
X28383958Y-51211592D01*
X27664524Y-51931026D01*
X27755506Y-52005046D01*
X28007172Y-52158088D01*
X28277314Y-52275426D01*
X28560930Y-52354892D01*
X28560936Y-52354893D01*
X28852730Y-52395000D01*
X29147270Y-52395000D01*
X29439063Y-52354893D01*
X29439069Y-52354892D01*
X29722685Y-52275426D01*
X29992827Y-52158088D01*
X30244493Y-52005046D01*
X30244502Y-52005040D01*
X30335473Y-51931026D01*
X29616040Y-51211593D01*
X29774686Y-51091790D01*
X29917644Y-50934973D01*
X29966928Y-50855375D01*
X30691160Y-51579607D01*
X30843863Y-51363278D01*
X30979370Y-51101760D01*
X31078003Y-50824235D01*
X31078008Y-50824218D01*
X31137930Y-50535854D01*
X31137931Y-50535852D01*
X31158030Y-50242000D01*
X31137931Y-49948147D01*
X31137930Y-49948145D01*
X31078008Y-49659781D01*
X31078003Y-49659764D01*
X30997055Y-49432000D01*
X33601969Y-49432000D01*
X33622068Y-49725852D01*
X33622069Y-49725854D01*
X33681991Y-50014218D01*
X33681996Y-50014235D01*
X33780629Y-50291760D01*
X33916136Y-50553279D01*
X33916140Y-50553285D01*
X34068838Y-50769608D01*
X34793071Y-50045375D01*
X34842356Y-50124973D01*
X34985314Y-50281790D01*
X35143958Y-50401592D01*
X34424524Y-51121026D01*
X34515506Y-51195046D01*
X34767172Y-51348088D01*
X35037314Y-51465426D01*
X35320930Y-51544892D01*
X35320936Y-51544893D01*
X35612730Y-51585000D01*
X35907270Y-51585000D01*
X36199063Y-51544893D01*
X36199069Y-51544892D01*
X36482685Y-51465426D01*
X36752827Y-51348088D01*
X37004493Y-51195046D01*
X37004502Y-51195040D01*
X37095473Y-51121026D01*
X36376040Y-50401593D01*
X36534686Y-50281790D01*
X36677644Y-50124973D01*
X36726928Y-50045375D01*
X37451160Y-50769607D01*
X37603863Y-50553278D01*
X37739370Y-50291760D01*
X37838003Y-50014235D01*
X37838008Y-50014218D01*
X37897930Y-49725854D01*
X37897931Y-49725852D01*
X37918030Y-49432000D01*
X37897931Y-49138147D01*
X37897930Y-49138145D01*
X37838008Y-48849781D01*
X37838003Y-48849764D01*
X37739370Y-48572239D01*
X37603863Y-48310720D01*
X37603859Y-48310714D01*
X37451161Y-48094391D01*
X36726928Y-48818623D01*
X36677644Y-48739027D01*
X36534686Y-48582210D01*
X36376040Y-48462406D01*
X37095474Y-47742972D01*
X37004493Y-47668953D01*
X36752827Y-47515911D01*
X36482685Y-47398573D01*
X36199069Y-47319107D01*
X36199063Y-47319106D01*
X35907270Y-47279000D01*
X35612730Y-47279000D01*
X35320936Y-47319106D01*
X35320930Y-47319107D01*
X35037314Y-47398573D01*
X34767172Y-47515911D01*
X34515503Y-47668955D01*
X34515499Y-47668958D01*
X34424524Y-47742971D01*
X34424524Y-47742972D01*
X35143959Y-48462406D01*
X34985314Y-48582210D01*
X34842356Y-48739027D01*
X34793071Y-48818623D01*
X34068838Y-48094390D01*
X33916133Y-48310726D01*
X33780629Y-48572239D01*
X33681996Y-48849764D01*
X33681991Y-48849781D01*
X33622069Y-49138145D01*
X33622068Y-49138147D01*
X33601969Y-49432000D01*
X30997055Y-49432000D01*
X30979370Y-49382239D01*
X30843863Y-49120720D01*
X30843859Y-49120714D01*
X30691161Y-48904391D01*
X29966928Y-49628623D01*
X29917644Y-49549027D01*
X29774686Y-49392210D01*
X29616040Y-49272406D01*
X30335474Y-48552972D01*
X30244493Y-48478953D01*
X29992827Y-48325911D01*
X29722685Y-48208573D01*
X29439069Y-48129107D01*
X29439063Y-48129106D01*
X29147270Y-48089000D01*
X28852730Y-48089000D01*
X28560936Y-48129106D01*
X28560930Y-48129107D01*
X28277314Y-48208573D01*
X28007172Y-48325911D01*
X27755503Y-48478955D01*
X27755499Y-48478958D01*
X27664524Y-48552971D01*
X27664524Y-48552972D01*
X28383959Y-49272406D01*
X28225314Y-49392210D01*
X28082356Y-49549027D01*
X28033071Y-49628623D01*
X27308838Y-48904390D01*
X27156133Y-49120726D01*
X27020629Y-49382239D01*
X26921996Y-49659764D01*
X26921991Y-49659781D01*
X26862069Y-49948145D01*
X26862068Y-49948147D01*
X26841969Y-50242000D01*
X24237055Y-50242000D01*
X24318003Y-50014235D01*
X24318008Y-50014218D01*
X24377930Y-49725854D01*
X24377931Y-49725852D01*
X24398030Y-49432000D01*
X24377931Y-49138147D01*
X24377930Y-49138145D01*
X24318008Y-48849781D01*
X24318003Y-48849764D01*
X24219370Y-48572239D01*
X24083863Y-48310720D01*
X24083859Y-48310714D01*
X23931161Y-48094391D01*
X23206928Y-48818623D01*
X23157644Y-48739027D01*
X23014686Y-48582210D01*
X22856040Y-48462406D01*
X23575474Y-47742972D01*
X23484493Y-47668953D01*
X23232827Y-47515911D01*
X22962685Y-47398573D01*
X22679069Y-47319107D01*
X22679063Y-47319106D01*
X22387270Y-47279000D01*
X22092730Y-47279000D01*
X21800936Y-47319106D01*
X21800930Y-47319107D01*
X21517314Y-47398573D01*
X21247172Y-47515911D01*
X20995503Y-47668955D01*
X20995499Y-47668958D01*
X20904524Y-47742971D01*
X20904524Y-47742972D01*
X21623959Y-48462406D01*
X21465314Y-48582210D01*
X21322356Y-48739027D01*
X21273071Y-48818623D01*
X20548838Y-48094390D01*
X20396133Y-48310726D01*
X20260629Y-48572239D01*
X20161996Y-48849764D01*
X20161991Y-48849781D01*
X20102069Y-49138145D01*
X20102068Y-49138147D01*
X20081969Y-49432000D01*
X6432000Y-49432000D01*
X4222599Y-47222599D01*
X9754976Y-47222599D01*
X9754978Y-47222600D01*
X10818314Y-47222600D01*
X10806359Y-47234555D01*
X10748835Y-47347452D01*
X10729014Y-47472600D01*
X10748835Y-47597748D01*
X10806359Y-47710645D01*
X10818314Y-47722600D01*
X9754977Y-47722600D01*
X9774916Y-47842092D01*
X9855630Y-48077203D01*
X9855635Y-48077214D01*
X9973942Y-48295828D01*
X9973948Y-48295837D01*
X10126626Y-48491997D01*
X10126635Y-48492007D01*
X10309522Y-48660367D01*
X10309521Y-48660367D01*
X10517632Y-48796332D01*
X10745282Y-48896187D01*
X10986261Y-48957212D01*
X10986269Y-48957214D01*
X11171945Y-48972599D01*
X11171961Y-48972600D01*
X11984000Y-48972600D01*
X11984000Y-47872600D01*
X12484000Y-47872600D01*
X12484000Y-48972600D01*
X13296039Y-48972600D01*
X13296054Y-48972599D01*
X13481730Y-48957214D01*
X13481738Y-48957212D01*
X13722717Y-48896187D01*
X13950367Y-48796332D01*
X14158478Y-48660367D01*
X14341364Y-48492007D01*
X14341373Y-48491997D01*
X14494051Y-48295837D01*
X14494057Y-48295828D01*
X14612364Y-48077214D01*
X14612369Y-48077203D01*
X14693083Y-47842092D01*
X14713023Y-47722600D01*
X13649686Y-47722600D01*
X13661641Y-47710645D01*
X13719165Y-47597748D01*
X13738986Y-47472600D01*
X13719165Y-47347452D01*
X13661641Y-47234555D01*
X13649686Y-47222600D01*
X14713022Y-47222600D01*
X14713023Y-47222599D01*
X14693083Y-47103107D01*
X14612369Y-46867996D01*
X14612364Y-46867985D01*
X14494057Y-46649371D01*
X14494051Y-46649362D01*
X14341373Y-46453202D01*
X14341364Y-46453192D01*
X14158477Y-46284832D01*
X14158478Y-46284832D01*
X13950367Y-46148867D01*
X13722717Y-46049012D01*
X13481738Y-45987987D01*
X13481730Y-45987985D01*
X13296054Y-45972600D01*
X12484000Y-45972600D01*
X12484000Y-47072600D01*
X11984000Y-47072600D01*
X11984000Y-45972600D01*
X11171945Y-45972600D01*
X10986269Y-45987985D01*
X10986261Y-45987987D01*
X10745282Y-46049012D01*
X10517632Y-46148867D01*
X10309521Y-46284832D01*
X10126635Y-46453192D01*
X10126626Y-46453202D01*
X9973948Y-46649362D01*
X9973942Y-46649371D01*
X9855635Y-46867985D01*
X9855630Y-46867996D01*
X9774916Y-47103107D01*
X9754976Y-47222599D01*
X4222599Y-47222599D01*
X3876680Y-46876680D01*
X3843195Y-46815357D01*
X3848179Y-46745665D01*
X3890051Y-46689732D01*
X3955515Y-46665315D01*
X3964335Y-46664999D01*
X5893872Y-46664999D01*
X5953483Y-46658591D01*
X6088331Y-46608296D01*
X6203546Y-46522046D01*
X6289796Y-46406831D01*
X6340091Y-46271983D01*
X6346500Y-46212373D01*
X6346499Y-45211805D01*
X15359000Y-45211805D01*
X15373759Y-45404038D01*
X15373759Y-45404043D01*
X15432361Y-45654465D01*
X15528503Y-45893015D01*
X15659936Y-46114093D01*
X15823574Y-46312516D01*
X16015583Y-46483635D01*
X16231465Y-46623437D01*
X16466156Y-46728648D01*
X16714150Y-46796798D01*
X16714156Y-46796800D01*
X16783999Y-46804863D01*
X16784000Y-46804863D01*
X16784000Y-45638286D01*
X16795955Y-45650241D01*
X16908852Y-45707765D01*
X17034000Y-45727586D01*
X17159148Y-45707765D01*
X17272045Y-45650241D01*
X17284000Y-45638286D01*
X17284000Y-46805323D01*
X17479151Y-46767476D01*
X17479153Y-46767476D01*
X17721201Y-46680543D01*
X17947158Y-46557671D01*
X18151695Y-46401759D01*
X18330046Y-46216442D01*
X18330049Y-46216438D01*
X18478016Y-46006074D01*
X18592137Y-45775587D01*
X18592138Y-45775584D01*
X18669737Y-45530381D01*
X18709000Y-45276192D01*
X18709000Y-44222600D01*
X17434000Y-44222600D01*
X17434000Y-43722600D01*
X18709000Y-43722600D01*
X18709000Y-42733400D01*
X18708999Y-42733394D01*
X18694240Y-42541161D01*
X18694240Y-42541156D01*
X18635638Y-42290734D01*
X18539496Y-42052184D01*
X18408063Y-41831106D01*
X18244425Y-41632683D01*
X18052416Y-41461564D01*
X17836534Y-41321762D01*
X17601843Y-41216551D01*
X17353846Y-41148400D01*
X17353844Y-41148399D01*
X17284000Y-41140336D01*
X17284000Y-42306914D01*
X17272045Y-42294959D01*
X17159148Y-42237435D01*
X17034000Y-42217614D01*
X16908852Y-42237435D01*
X16795955Y-42294959D01*
X16784000Y-42306914D01*
X16784000Y-41139875D01*
X16588846Y-41177723D01*
X16346798Y-41264656D01*
X16120841Y-41387528D01*
X15916304Y-41543440D01*
X15737953Y-41728757D01*
X15737950Y-41728761D01*
X15589983Y-41939125D01*
X15475862Y-42169612D01*
X15475861Y-42169615D01*
X15398262Y-42414818D01*
X15359000Y-42669007D01*
X15359000Y-43722600D01*
X16634000Y-43722600D01*
X16634000Y-44222600D01*
X15359000Y-44222600D01*
X15359000Y-45211805D01*
X6346499Y-45211805D01*
X6346499Y-44211628D01*
X6340091Y-44152017D01*
X6319382Y-44096494D01*
X6289797Y-44017171D01*
X6289793Y-44017164D01*
X6203547Y-43901955D01*
X6203544Y-43901952D01*
X6088335Y-43815706D01*
X6088326Y-43815701D01*
X6057196Y-43804091D01*
X6001262Y-43762221D01*
X5976844Y-43696757D01*
X5991695Y-43628484D01*
X6002675Y-43611746D01*
X6113653Y-43469162D01*
X6113655Y-43469159D01*
X6228215Y-43257468D01*
X6228221Y-43257454D01*
X6306380Y-43029791D01*
X6324367Y-42922000D01*
X5340852Y-42922000D01*
X5389559Y-42784953D01*
X5399877Y-42634114D01*
X5369116Y-42486085D01*
X5335910Y-42422000D01*
X6324366Y-42422000D01*
X6324366Y-42421999D01*
X6306380Y-42314208D01*
X6228221Y-42086545D01*
X6228215Y-42086531D01*
X6113655Y-41874840D01*
X6113649Y-41874831D01*
X5965806Y-41684883D01*
X5965797Y-41684873D01*
X5788710Y-41521851D01*
X5788704Y-41521847D01*
X5764611Y-41506106D01*
X5719255Y-41452959D01*
X5709832Y-41383728D01*
X5739335Y-41320392D01*
X5764608Y-41298493D01*
X5789010Y-41282551D01*
X5966171Y-41119463D01*
X6114072Y-40929439D01*
X6228679Y-40717664D01*
X6306866Y-40489913D01*
X6346500Y-40252399D01*
X6346500Y-40011601D01*
X6306866Y-39774087D01*
X6301987Y-39759876D01*
X6228681Y-39546343D01*
X6228678Y-39546334D01*
X6114070Y-39334558D01*
X6087879Y-39300908D01*
X5966171Y-39144537D01*
X5789010Y-38981449D01*
X5587422Y-38849745D01*
X5587419Y-38849743D01*
X5587418Y-38849743D01*
X5366905Y-38753017D01*
X5133472Y-38693904D01*
X4953610Y-38679000D01*
X4953600Y-38679000D01*
X4738400Y-38679000D01*
X4738389Y-38679000D01*
X4558527Y-38693904D01*
X4325094Y-38753017D01*
X4104581Y-38849743D01*
X4104578Y-38849745D01*
X3902990Y-38981449D01*
X3725829Y-39144537D01*
X3682305Y-39200456D01*
X3577929Y-39334558D01*
X3463321Y-39546334D01*
X3463318Y-39546343D01*
X3385134Y-39774083D01*
X3345500Y-40011602D01*
X3345500Y-40252397D01*
X3385134Y-40489916D01*
X3463318Y-40717656D01*
X3463321Y-40717665D01*
X3577929Y-40929441D01*
X3621451Y-40985358D01*
X3725829Y-41119463D01*
X3831295Y-41216551D01*
X3902994Y-41282555D01*
X3927384Y-41298489D01*
X3972742Y-41351634D01*
X3982166Y-41420866D01*
X3952665Y-41484202D01*
X3927390Y-41506104D01*
X3903297Y-41521846D01*
X3903289Y-41521851D01*
X3726202Y-41684873D01*
X3726193Y-41684883D01*
X3578350Y-41874831D01*
X3578344Y-41874840D01*
X3463784Y-42086531D01*
X3463778Y-42086545D01*
X3385619Y-42314208D01*
X3367633Y-42421999D01*
X3367634Y-42422000D01*
X4351148Y-42422000D01*
X4302441Y-42559047D01*
X4292123Y-42709886D01*
X4322884Y-42857915D01*
X4356090Y-42922000D01*
X3367633Y-42922000D01*
X3385619Y-43029791D01*
X3463778Y-43257454D01*
X3463784Y-43257468D01*
X3578344Y-43469159D01*
X3578350Y-43469168D01*
X3689324Y-43611747D01*
X3714967Y-43676741D01*
X3701401Y-43745281D01*
X3652932Y-43795605D01*
X3634804Y-43804091D01*
X3603671Y-43815702D01*
X3603664Y-43815706D01*
X3488455Y-43901952D01*
X3488452Y-43901955D01*
X3402206Y-44017164D01*
X3402202Y-44017171D01*
X3351908Y-44152017D01*
X3345501Y-44211616D01*
X3345501Y-44211623D01*
X3345500Y-44211635D01*
X3345500Y-46046138D01*
X3325815Y-46113177D01*
X3273011Y-46158932D01*
X3203853Y-46168876D01*
X3140297Y-46139851D01*
X3133819Y-46133819D01*
X2036319Y-45036319D01*
X2002834Y-44974996D01*
X2000000Y-44948638D01*
X2000000Y-35079085D01*
X2019685Y-35012046D01*
X2072489Y-34966291D01*
X2141647Y-34956347D01*
X2205203Y-34985372D01*
X2222952Y-35004356D01*
X2243159Y-35031114D01*
X2401278Y-35175258D01*
X2401283Y-35175261D01*
X2401286Y-35175263D01*
X2583186Y-35287891D01*
X2583187Y-35287891D01*
X2583190Y-35287893D01*
X2782703Y-35365185D01*
X2993020Y-35404500D01*
X2993022Y-35404500D01*
X3206978Y-35404500D01*
X3206980Y-35404500D01*
X3417297Y-35365185D01*
X3616810Y-35287893D01*
X3798722Y-35175258D01*
X3956841Y-35031114D01*
X4001046Y-34972576D01*
X4057155Y-34930941D01*
X4126867Y-34926250D01*
X4188049Y-34959992D01*
X4198952Y-34972575D01*
X4243159Y-35031114D01*
X4401278Y-35175258D01*
X4401283Y-35175261D01*
X4401286Y-35175263D01*
X4583186Y-35287891D01*
X4583187Y-35287891D01*
X4583190Y-35287893D01*
X4782703Y-35365185D01*
X4993020Y-35404500D01*
X5141770Y-35404500D01*
X5208809Y-35424185D01*
X5229451Y-35440819D01*
X7689212Y-37900580D01*
X10099264Y-40310631D01*
X10132749Y-40371954D01*
X10127765Y-40441646D01*
X10109436Y-40474474D01*
X9973528Y-40649087D01*
X9973525Y-40649091D01*
X9855172Y-40867788D01*
X9855169Y-40867797D01*
X9774429Y-41102983D01*
X9744465Y-41282553D01*
X9733500Y-41348265D01*
X9733500Y-41596935D01*
X9747143Y-41678694D01*
X9774429Y-41842216D01*
X9855169Y-42077402D01*
X9855172Y-42077411D01*
X9973524Y-42296106D01*
X9973526Y-42296109D01*
X10126262Y-42492344D01*
X10261126Y-42616495D01*
X10309217Y-42660766D01*
X10517393Y-42796773D01*
X10745118Y-42896663D01*
X10937114Y-42945283D01*
X10986179Y-42957708D01*
X10986181Y-42957708D01*
X10986186Y-42957709D01*
X11139589Y-42970419D01*
X11171933Y-42973100D01*
X11171937Y-42973100D01*
X13296063Y-42973100D01*
X13296067Y-42973100D01*
X13358677Y-42967911D01*
X13481813Y-42957709D01*
X13481816Y-42957708D01*
X13481821Y-42957708D01*
X13722881Y-42896663D01*
X13950607Y-42796773D01*
X14158785Y-42660764D01*
X14341738Y-42492344D01*
X14494474Y-42296109D01*
X14612828Y-42077410D01*
X14693571Y-41842214D01*
X14734500Y-41596935D01*
X14734500Y-41348265D01*
X14693571Y-41102986D01*
X14612828Y-40867790D01*
X14494474Y-40649091D01*
X14341738Y-40452856D01*
X14158785Y-40284436D01*
X14158782Y-40284433D01*
X13950606Y-40148426D01*
X13722881Y-40048536D01*
X13481824Y-39987492D01*
X13481813Y-39987490D01*
X13296077Y-39972100D01*
X13296067Y-39972100D01*
X11934829Y-39972100D01*
X11867790Y-39952415D01*
X11847148Y-39935781D01*
X7450414Y-35539047D01*
X7416929Y-35477724D01*
X7421913Y-35408032D01*
X7463785Y-35352099D01*
X7493293Y-35335743D01*
X7616810Y-35287893D01*
X7798722Y-35175258D01*
X7956841Y-35031114D01*
X8085781Y-34860370D01*
X8137318Y-34756870D01*
X12396100Y-34756870D01*
X12396101Y-34756876D01*
X12402508Y-34816483D01*
X12452802Y-34951328D01*
X12452806Y-34951335D01*
X12539052Y-35066544D01*
X12539055Y-35066547D01*
X12654264Y-35152793D01*
X12654271Y-35152797D01*
X12789117Y-35203091D01*
X12789116Y-35203091D01*
X12796044Y-35203835D01*
X12848727Y-35209500D01*
X14544472Y-35209499D01*
X14604083Y-35203091D01*
X14738931Y-35152796D01*
X14854146Y-35066546D01*
X14940396Y-34951331D01*
X14990691Y-34816483D01*
X14997100Y-34756873D01*
X14997099Y-34756845D01*
X14997278Y-34753547D01*
X14998783Y-34753627D01*
X15016712Y-34692326D01*
X15069468Y-34646514D01*
X15113065Y-34638981D01*
X15798646Y-33953400D01*
X15811435Y-34034148D01*
X15868959Y-34147045D01*
X15958555Y-34236641D01*
X16071452Y-34294165D01*
X16152199Y-34306953D01*
X15471126Y-34988025D01*
X15544113Y-35039132D01*
X15544121Y-35039136D01*
X15750268Y-35135264D01*
X15750282Y-35135269D01*
X15969989Y-35194139D01*
X15970000Y-35194141D01*
X16196598Y-35213966D01*
X16196602Y-35213966D01*
X16423199Y-35194141D01*
X16423210Y-35194139D01*
X16642917Y-35135269D01*
X16642931Y-35135264D01*
X16849078Y-35039136D01*
X16922071Y-34988024D01*
X16241000Y-34306953D01*
X16321748Y-34294165D01*
X16434645Y-34236641D01*
X16524241Y-34147045D01*
X16581765Y-34034148D01*
X16594553Y-33953400D01*
X17275624Y-34634471D01*
X17326736Y-34561478D01*
X17422864Y-34355331D01*
X17422869Y-34355317D01*
X17481739Y-34135610D01*
X17481741Y-34135599D01*
X17501566Y-33909002D01*
X17501566Y-33908997D01*
X17481741Y-33682400D01*
X17481739Y-33682389D01*
X17422869Y-33462682D01*
X17422864Y-33462668D01*
X17326736Y-33256521D01*
X17326732Y-33256513D01*
X17275625Y-33183526D01*
X16594553Y-33864598D01*
X16581765Y-33783852D01*
X16524241Y-33670955D01*
X16434645Y-33581359D01*
X16321748Y-33523835D01*
X16241001Y-33511046D01*
X16922072Y-32829974D01*
X16849078Y-32778863D01*
X16642931Y-32682735D01*
X16642917Y-32682730D01*
X16423210Y-32623860D01*
X16423199Y-32623858D01*
X16196602Y-32604034D01*
X16196598Y-32604034D01*
X15970000Y-32623858D01*
X15969989Y-32623860D01*
X15750282Y-32682730D01*
X15750273Y-32682734D01*
X15544116Y-32778866D01*
X15544112Y-32778868D01*
X15471126Y-32829973D01*
X15471126Y-32829974D01*
X16152199Y-33511046D01*
X16071452Y-33523835D01*
X15958555Y-33581359D01*
X15868959Y-33670955D01*
X15811435Y-33783852D01*
X15798646Y-33864598D01*
X15112399Y-33178351D01*
X15063405Y-33168505D01*
X15013222Y-33119889D01*
X14998581Y-33064366D01*
X14997500Y-33064423D01*
X14997454Y-33064429D01*
X14997453Y-33064426D01*
X14997276Y-33064436D01*
X14997099Y-33061135D01*
X14997099Y-33061128D01*
X14990691Y-33001517D01*
X14981098Y-32975798D01*
X14940397Y-32866671D01*
X14940393Y-32866664D01*
X14854147Y-32751455D01*
X14854144Y-32751452D01*
X14738935Y-32665206D01*
X14738928Y-32665202D01*
X14604082Y-32614908D01*
X14604083Y-32614908D01*
X14544483Y-32608501D01*
X14544481Y-32608500D01*
X14544473Y-32608500D01*
X14544464Y-32608500D01*
X12848729Y-32608500D01*
X12848723Y-32608501D01*
X12789116Y-32614908D01*
X12654271Y-32665202D01*
X12654264Y-32665206D01*
X12539055Y-32751452D01*
X12539052Y-32751455D01*
X12452806Y-32866664D01*
X12452802Y-32866671D01*
X12402508Y-33001517D01*
X12397742Y-33045852D01*
X12396101Y-33061123D01*
X12396100Y-33061135D01*
X12396100Y-34756870D01*
X8137318Y-34756870D01*
X8181151Y-34668840D01*
X8181151Y-34668837D01*
X8181153Y-34668835D01*
X8223872Y-34518692D01*
X8239704Y-34463048D01*
X8259446Y-34250000D01*
X8256497Y-34218182D01*
X8269911Y-34149614D01*
X8292282Y-34119062D01*
X14229649Y-28181518D01*
X14243264Y-28169752D01*
X14262530Y-28155410D01*
X14294383Y-28117449D01*
X14301687Y-28109478D01*
X14305598Y-28105568D01*
X14324828Y-28081245D01*
X14327084Y-28078476D01*
X14330104Y-28074877D01*
X14375302Y-28021014D01*
X14375305Y-28021007D01*
X14379274Y-28014975D01*
X14379324Y-28015008D01*
X14383376Y-28008648D01*
X14383325Y-28008616D01*
X14387113Y-28002472D01*
X14387117Y-28002468D01*
X14418835Y-27934442D01*
X14420365Y-27931282D01*
X14454040Y-27864233D01*
X14454042Y-27864221D01*
X14456509Y-27857447D01*
X14456566Y-27857467D01*
X14459044Y-27850336D01*
X14458988Y-27850318D01*
X14461257Y-27843466D01*
X14461260Y-27843462D01*
X14476430Y-27769977D01*
X14477191Y-27766546D01*
X14494500Y-27693521D01*
X14494500Y-27693519D01*
X14494501Y-27693515D01*
X14495339Y-27686348D01*
X14495396Y-27686354D01*
X14496164Y-27678842D01*
X14496105Y-27678837D01*
X14496734Y-27671640D01*
X14494553Y-27596723D01*
X14494500Y-27593114D01*
X14494500Y-26281859D01*
X14494700Y-26278427D01*
X14494700Y-26274544D01*
X14495226Y-26269390D01*
X14495340Y-26267446D01*
X14495540Y-26265737D01*
X14495599Y-26265743D01*
X14496364Y-26258255D01*
X14496305Y-26258250D01*
X14496934Y-26251053D01*
X14495184Y-26190912D01*
X14512909Y-26123328D01*
X14564359Y-26076056D01*
X14605876Y-26064015D01*
X14651683Y-26059091D01*
X14786531Y-26008796D01*
X14901746Y-25922546D01*
X14987996Y-25807331D01*
X15038291Y-25672483D01*
X15044700Y-25612873D01*
X15044699Y-25612845D01*
X15044878Y-25609547D01*
X15046383Y-25609627D01*
X15064312Y-25548326D01*
X15117068Y-25502514D01*
X15160665Y-25494981D01*
X15846246Y-24809400D01*
X15859035Y-24890148D01*
X15916559Y-25003045D01*
X16006155Y-25092641D01*
X16119052Y-25150165D01*
X16199799Y-25162953D01*
X15518726Y-25844025D01*
X15591713Y-25895132D01*
X15591721Y-25895136D01*
X15797868Y-25991264D01*
X15797882Y-25991269D01*
X16017589Y-26050139D01*
X16017600Y-26050141D01*
X16244198Y-26069966D01*
X16244202Y-26069966D01*
X16470799Y-26050141D01*
X16470810Y-26050139D01*
X16690517Y-25991269D01*
X16690531Y-25991264D01*
X16896678Y-25895136D01*
X16969671Y-25844024D01*
X16288600Y-25162953D01*
X16369348Y-25150165D01*
X16482245Y-25092641D01*
X16571841Y-25003045D01*
X16629365Y-24890148D01*
X16642153Y-24809400D01*
X17323224Y-25490471D01*
X17374336Y-25417478D01*
X17470464Y-25211331D01*
X17470469Y-25211317D01*
X17529339Y-24991610D01*
X17529341Y-24991599D01*
X17549166Y-24765002D01*
X17549166Y-24764997D01*
X17529341Y-24538400D01*
X17529339Y-24538389D01*
X17470469Y-24318682D01*
X17470464Y-24318668D01*
X17374336Y-24112521D01*
X17374332Y-24112513D01*
X17323225Y-24039526D01*
X16642153Y-24720598D01*
X16629365Y-24639852D01*
X16571841Y-24526955D01*
X16482245Y-24437359D01*
X16369348Y-24379835D01*
X16288601Y-24367046D01*
X16969672Y-23685974D01*
X16896678Y-23634863D01*
X16690531Y-23538735D01*
X16690517Y-23538730D01*
X16470810Y-23479860D01*
X16470799Y-23479858D01*
X16244202Y-23460034D01*
X16244198Y-23460034D01*
X16017600Y-23479858D01*
X16017589Y-23479860D01*
X15797882Y-23538730D01*
X15797873Y-23538734D01*
X15591716Y-23634866D01*
X15591712Y-23634868D01*
X15518726Y-23685973D01*
X15518726Y-23685974D01*
X16199799Y-24367046D01*
X16119052Y-24379835D01*
X16006155Y-24437359D01*
X15916559Y-24526955D01*
X15859035Y-24639852D01*
X15846246Y-24720598D01*
X15159999Y-24034351D01*
X15111005Y-24024505D01*
X15060822Y-23975889D01*
X15046181Y-23920366D01*
X15045100Y-23920423D01*
X15045054Y-23920429D01*
X15045053Y-23920426D01*
X15044876Y-23920436D01*
X15044699Y-23917135D01*
X15044699Y-23917128D01*
X15038291Y-23857517D01*
X15037317Y-23854906D01*
X14987997Y-23722671D01*
X14987993Y-23722664D01*
X14901747Y-23607455D01*
X14901744Y-23607452D01*
X14786535Y-23521206D01*
X14786528Y-23521202D01*
X14651682Y-23470908D01*
X14651683Y-23470908D01*
X14592083Y-23464501D01*
X14592081Y-23464500D01*
X14592073Y-23464500D01*
X14592064Y-23464500D01*
X12896329Y-23464500D01*
X12896323Y-23464501D01*
X12836716Y-23470908D01*
X12701871Y-23521202D01*
X12701864Y-23521206D01*
X12586655Y-23607452D01*
X12586652Y-23607455D01*
X12500406Y-23722664D01*
X12500402Y-23722671D01*
X12450108Y-23857517D01*
X12444959Y-23905413D01*
X12443701Y-23917123D01*
X12443700Y-23917135D01*
X12443700Y-25612870D01*
X12443701Y-25612876D01*
X12450108Y-25672483D01*
X12500402Y-25807328D01*
X12500406Y-25807335D01*
X12586652Y-25922544D01*
X12586655Y-25922547D01*
X12701864Y-26008793D01*
X12701871Y-26008797D01*
X12836717Y-26059091D01*
X12836716Y-26059091D01*
X12882439Y-26064007D01*
X12946990Y-26090745D01*
X12986839Y-26148137D01*
X12993131Y-26183682D01*
X12993447Y-26194521D01*
X12993500Y-26198135D01*
X12993500Y-27243577D01*
X12973815Y-27310616D01*
X12957183Y-27331257D01*
X10918031Y-29370471D01*
X7377875Y-32910734D01*
X7229433Y-33059180D01*
X7168110Y-33092666D01*
X7141750Y-33095500D01*
X6993020Y-33095500D01*
X6782703Y-33134815D01*
X6670324Y-33178351D01*
X6583192Y-33212106D01*
X6583186Y-33212108D01*
X6401286Y-33324736D01*
X6401283Y-33324738D01*
X6401279Y-33324740D01*
X6401278Y-33324742D01*
X6337396Y-33382977D01*
X6243157Y-33468887D01*
X6198954Y-33527422D01*
X6142844Y-33569058D01*
X6073132Y-33573749D01*
X6011951Y-33540007D01*
X6001046Y-33527422D01*
X5956842Y-33468887D01*
X5956841Y-33468886D01*
X5798722Y-33324742D01*
X5798716Y-33324738D01*
X5798713Y-33324736D01*
X5616813Y-33212108D01*
X5616807Y-33212106D01*
X5417297Y-33134815D01*
X5206980Y-33095500D01*
X4993020Y-33095500D01*
X4782703Y-33134815D01*
X4670324Y-33178351D01*
X4583192Y-33212106D01*
X4583186Y-33212108D01*
X4401286Y-33324736D01*
X4401283Y-33324738D01*
X4401279Y-33324740D01*
X4401278Y-33324742D01*
X4337396Y-33382977D01*
X4243157Y-33468887D01*
X4198954Y-33527422D01*
X4142844Y-33569058D01*
X4073132Y-33573749D01*
X4011951Y-33540007D01*
X4001046Y-33527422D01*
X3956842Y-33468887D01*
X3956841Y-33468886D01*
X3798722Y-33324742D01*
X3798716Y-33324738D01*
X3798713Y-33324736D01*
X3616813Y-33212108D01*
X3616807Y-33212106D01*
X3417297Y-33134815D01*
X3206980Y-33095500D01*
X2993020Y-33095500D01*
X2782703Y-33134815D01*
X2670324Y-33178351D01*
X2583192Y-33212106D01*
X2583186Y-33212108D01*
X2401286Y-33324736D01*
X2401283Y-33324738D01*
X2401279Y-33324740D01*
X2401278Y-33324742D01*
X2243159Y-33468886D01*
X2243157Y-33468888D01*
X2222953Y-33495642D01*
X2166844Y-33537277D01*
X2097132Y-33541968D01*
X2035950Y-33508225D01*
X2002724Y-33446761D01*
X2000000Y-33420914D01*
X2000000Y-30443051D01*
X2019685Y-30376012D01*
X2072489Y-30330257D01*
X2141647Y-30320313D01*
X2198313Y-30343787D01*
X2203669Y-30347796D01*
X2203670Y-30347796D01*
X2203671Y-30347797D01*
X2338517Y-30398091D01*
X2338516Y-30398091D01*
X2345444Y-30398835D01*
X2398127Y-30404500D01*
X3801872Y-30404499D01*
X3861483Y-30398091D01*
X3996331Y-30347796D01*
X4111546Y-30261546D01*
X4185605Y-30162615D01*
X4241536Y-30120747D01*
X4311227Y-30115763D01*
X4368403Y-30145289D01*
X4401278Y-30175258D01*
X4401283Y-30175261D01*
X4401286Y-30175263D01*
X4583186Y-30287891D01*
X4583187Y-30287891D01*
X4583190Y-30287893D01*
X4782703Y-30365185D01*
X4993020Y-30404500D01*
X4993022Y-30404500D01*
X5206978Y-30404500D01*
X5206980Y-30404500D01*
X5417297Y-30365185D01*
X5616810Y-30287893D01*
X5798722Y-30175258D01*
X5956841Y-30031114D01*
X6001046Y-29972576D01*
X6057155Y-29930941D01*
X6126867Y-29926250D01*
X6188049Y-29959992D01*
X6198952Y-29972575D01*
X6243159Y-30031114D01*
X6401278Y-30175258D01*
X6401283Y-30175261D01*
X6401286Y-30175263D01*
X6583186Y-30287891D01*
X6583187Y-30287891D01*
X6583190Y-30287893D01*
X6782703Y-30365185D01*
X6993020Y-30404500D01*
X6993022Y-30404500D01*
X7206978Y-30404500D01*
X7206980Y-30404500D01*
X7417297Y-30365185D01*
X7616810Y-30287893D01*
X7798722Y-30175258D01*
X7956841Y-30031114D01*
X8085781Y-29860370D01*
X8181151Y-29668840D01*
X8181151Y-29668837D01*
X8181153Y-29668835D01*
X8239703Y-29463050D01*
X8239704Y-29463047D01*
X8259446Y-29250000D01*
X8259446Y-29249999D01*
X8239704Y-29036952D01*
X8239703Y-29036949D01*
X8181153Y-28831164D01*
X8181150Y-28831158D01*
X8126300Y-28721004D01*
X8085781Y-28639630D01*
X7956841Y-28468886D01*
X7798722Y-28324742D01*
X7798716Y-28324738D01*
X7798713Y-28324736D01*
X7616813Y-28212108D01*
X7616807Y-28212106D01*
X7417297Y-28134815D01*
X7206980Y-28095500D01*
X6993020Y-28095500D01*
X6782703Y-28134815D01*
X6683032Y-28173428D01*
X6583192Y-28212106D01*
X6583186Y-28212108D01*
X6401286Y-28324736D01*
X6401283Y-28324738D01*
X6401279Y-28324740D01*
X6401278Y-28324742D01*
X6368406Y-28354709D01*
X6243157Y-28468887D01*
X6198954Y-28527422D01*
X6142844Y-28569058D01*
X6073132Y-28573749D01*
X6011951Y-28540007D01*
X6001046Y-28527422D01*
X5956842Y-28468887D01*
X5933464Y-28447575D01*
X5798722Y-28324742D01*
X5798716Y-28324738D01*
X5798713Y-28324736D01*
X5616813Y-28212108D01*
X5616807Y-28212106D01*
X5417297Y-28134815D01*
X5206980Y-28095500D01*
X4993020Y-28095500D01*
X4782703Y-28134815D01*
X4683032Y-28173428D01*
X4583192Y-28212106D01*
X4583186Y-28212108D01*
X4401286Y-28324736D01*
X4401277Y-28324743D01*
X4368405Y-28354709D01*
X4305601Y-28385325D01*
X4236214Y-28377125D01*
X4185603Y-28337382D01*
X4111546Y-28238454D01*
X4088709Y-28221358D01*
X3996335Y-28152206D01*
X3996328Y-28152202D01*
X3861482Y-28101908D01*
X3861483Y-28101908D01*
X3801883Y-28095501D01*
X3801881Y-28095500D01*
X3801873Y-28095500D01*
X3801864Y-28095500D01*
X2398129Y-28095500D01*
X2398123Y-28095501D01*
X2338516Y-28101908D01*
X2203671Y-28152202D01*
X2203668Y-28152204D01*
X2198311Y-28156215D01*
X2132846Y-28180632D01*
X2064573Y-28165780D01*
X2015168Y-28116375D01*
X2000000Y-28056948D01*
X2000000Y-25908001D01*
X3794532Y-25908001D01*
X3814364Y-26134686D01*
X3814366Y-26134697D01*
X3873258Y-26354488D01*
X3873261Y-26354497D01*
X3969431Y-26560732D01*
X3969432Y-26560734D01*
X4099954Y-26747141D01*
X4260858Y-26908045D01*
X4260861Y-26908047D01*
X4447266Y-27038568D01*
X4653504Y-27134739D01*
X4873308Y-27193635D01*
X5035230Y-27207801D01*
X5099998Y-27213468D01*
X5100000Y-27213468D01*
X5100002Y-27213468D01*
X5156673Y-27208509D01*
X5326692Y-27193635D01*
X5546496Y-27134739D01*
X5752734Y-27038568D01*
X5939139Y-26908047D01*
X6100047Y-26747139D01*
X6230568Y-26560734D01*
X6326739Y-26354496D01*
X6385635Y-26134692D01*
X6405468Y-25908000D01*
X6385635Y-25681308D01*
X6334501Y-25490471D01*
X6326741Y-25461511D01*
X6326738Y-25461502D01*
X6306209Y-25417478D01*
X6230568Y-25255266D01*
X6100047Y-25068861D01*
X6100045Y-25068858D01*
X5939141Y-24907954D01*
X5752734Y-24777432D01*
X5752732Y-24777431D01*
X5546497Y-24681261D01*
X5546488Y-24681258D01*
X5326697Y-24622366D01*
X5326693Y-24622365D01*
X5326692Y-24622365D01*
X5326691Y-24622364D01*
X5326686Y-24622364D01*
X5100002Y-24602532D01*
X5099998Y-24602532D01*
X4873313Y-24622364D01*
X4873302Y-24622366D01*
X4653511Y-24681258D01*
X4653502Y-24681261D01*
X4447267Y-24777431D01*
X4447265Y-24777432D01*
X4260858Y-24907954D01*
X4099954Y-25068858D01*
X3969432Y-25255265D01*
X3969431Y-25255267D01*
X3873261Y-25461502D01*
X3873258Y-25461511D01*
X3814366Y-25681302D01*
X3814364Y-25681313D01*
X3794532Y-25907998D01*
X3794532Y-25908001D01*
X2000000Y-25908001D01*
X2000000Y-15748001D01*
X3794532Y-15748001D01*
X3814364Y-15974686D01*
X3814366Y-15974697D01*
X3873258Y-16194488D01*
X3873261Y-16194497D01*
X3969431Y-16400732D01*
X3969432Y-16400734D01*
X4099954Y-16587141D01*
X4260858Y-16748045D01*
X4260861Y-16748047D01*
X4447266Y-16878568D01*
X4653504Y-16974739D01*
X4873308Y-17033635D01*
X5035230Y-17047801D01*
X5099998Y-17053468D01*
X5100000Y-17053468D01*
X5100002Y-17053468D01*
X5156673Y-17048509D01*
X5326692Y-17033635D01*
X5546496Y-16974739D01*
X5752734Y-16878568D01*
X5939139Y-16748047D01*
X6100047Y-16587139D01*
X6230568Y-16400734D01*
X6326739Y-16194496D01*
X6385635Y-15974692D01*
X6390376Y-15920500D01*
X10624210Y-15920500D01*
X10643333Y-16139082D01*
X10643335Y-16139092D01*
X10700121Y-16351024D01*
X10700125Y-16351033D01*
X10792854Y-16549892D01*
X10837003Y-16612943D01*
X11399923Y-16050023D01*
X11423507Y-16130344D01*
X11501239Y-16251298D01*
X11609900Y-16345452D01*
X11740685Y-16405180D01*
X11750466Y-16406586D01*
X11190555Y-16966496D01*
X11253601Y-17010642D01*
X11253605Y-17010644D01*
X11452466Y-17103374D01*
X11452475Y-17103378D01*
X11664407Y-17160164D01*
X11664417Y-17160166D01*
X11882999Y-17179290D01*
X11883001Y-17179290D01*
X12101582Y-17160166D01*
X12101592Y-17160164D01*
X12313524Y-17103378D01*
X12313533Y-17103374D01*
X12512392Y-17010645D01*
X12575443Y-16966495D01*
X12015534Y-16406586D01*
X12025315Y-16405180D01*
X12156100Y-16345452D01*
X12264761Y-16251298D01*
X12342493Y-16130344D01*
X12366076Y-16050023D01*
X12928995Y-16612942D01*
X12973145Y-16549892D01*
X13065874Y-16351033D01*
X13065878Y-16351024D01*
X13122664Y-16139092D01*
X13122666Y-16139082D01*
X13141790Y-15920500D01*
X13141790Y-15920499D01*
X13122666Y-15701917D01*
X13122664Y-15701907D01*
X13065878Y-15489975D01*
X13065874Y-15489966D01*
X12973144Y-15291105D01*
X12973142Y-15291101D01*
X12928996Y-15228055D01*
X12366076Y-15790975D01*
X12342493Y-15710656D01*
X12264761Y-15589702D01*
X12156100Y-15495548D01*
X12025315Y-15435820D01*
X12015533Y-15434413D01*
X12575443Y-14874503D01*
X12512392Y-14830354D01*
X12313533Y-14737625D01*
X12313524Y-14737621D01*
X12101592Y-14680835D01*
X12101582Y-14680833D01*
X11883001Y-14661710D01*
X11882999Y-14661710D01*
X11664417Y-14680833D01*
X11664407Y-14680835D01*
X11452475Y-14737621D01*
X11452466Y-14737624D01*
X11253606Y-14830355D01*
X11253604Y-14830356D01*
X11190556Y-14874503D01*
X11190555Y-14874503D01*
X11750466Y-15434413D01*
X11740685Y-15435820D01*
X11609900Y-15495548D01*
X11501239Y-15589702D01*
X11423507Y-15710656D01*
X11399923Y-15790975D01*
X10837003Y-15228055D01*
X10837003Y-15228056D01*
X10792856Y-15291104D01*
X10792855Y-15291106D01*
X10700124Y-15489966D01*
X10700121Y-15489975D01*
X10643335Y-15701907D01*
X10643333Y-15701917D01*
X10624210Y-15920499D01*
X10624210Y-15920500D01*
X6390376Y-15920500D01*
X6405468Y-15748000D01*
X6385635Y-15521308D01*
X6326739Y-15301504D01*
X6230568Y-15095266D01*
X6100047Y-14908861D01*
X6100045Y-14908858D01*
X5939141Y-14747954D01*
X5752734Y-14617432D01*
X5752732Y-14617431D01*
X5546497Y-14521261D01*
X5546488Y-14521258D01*
X5326697Y-14462366D01*
X5326693Y-14462365D01*
X5326692Y-14462365D01*
X5326691Y-14462364D01*
X5326686Y-14462364D01*
X5100002Y-14442532D01*
X5099998Y-14442532D01*
X4873313Y-14462364D01*
X4873302Y-14462366D01*
X4653511Y-14521258D01*
X4653502Y-14521261D01*
X4447267Y-14617431D01*
X4447265Y-14617432D01*
X4260858Y-14747954D01*
X4099954Y-14908858D01*
X3969432Y-15095265D01*
X3969431Y-15095267D01*
X3873261Y-15301502D01*
X3873258Y-15301511D01*
X3814366Y-15521302D01*
X3814364Y-15521313D01*
X3794532Y-15747998D01*
X3794532Y-15748001D01*
X2000000Y-15748001D01*
X2000000Y-10051362D01*
X2019685Y-9984323D01*
X2036319Y-9963681D01*
X3613681Y-8386319D01*
X3675004Y-8352834D01*
X3701362Y-8350000D01*
X4724722Y-8350000D01*
X4676375Y-8433740D01*
X4646190Y-8565992D01*
X4656327Y-8701265D01*
X4705887Y-8827541D01*
X4723797Y-8850000D01*
X3700000Y-8850000D01*
X3700000Y-9547844D01*
X3706401Y-9607372D01*
X3706403Y-9607379D01*
X3756645Y-9742086D01*
X3756649Y-9742093D01*
X3842809Y-9857187D01*
X3842812Y-9857190D01*
X3957906Y-9943350D01*
X3957913Y-9943354D01*
X4038270Y-9973325D01*
X4094204Y-10015196D01*
X4118621Y-10080660D01*
X4103770Y-10148933D01*
X4086168Y-10173489D01*
X4058189Y-10203883D01*
X3991021Y-10276847D01*
X3991019Y-10276848D01*
X3991016Y-10276853D01*
X3864075Y-10471151D01*
X3770842Y-10683699D01*
X3713866Y-10908691D01*
X3713864Y-10908702D01*
X3694700Y-11139993D01*
X3694700Y-11140006D01*
X3713864Y-11371297D01*
X3713866Y-11371308D01*
X3770842Y-11596300D01*
X3864075Y-11808848D01*
X3991016Y-12003147D01*
X3991019Y-12003151D01*
X3991021Y-12003153D01*
X4148216Y-12173913D01*
X4148219Y-12173915D01*
X4148222Y-12173918D01*
X4331365Y-12316464D01*
X4331371Y-12316468D01*
X4331374Y-12316470D01*
X4535497Y-12426936D01*
X4596948Y-12448032D01*
X4755015Y-12502297D01*
X4755017Y-12502297D01*
X4755019Y-12502298D01*
X4983951Y-12540500D01*
X4983952Y-12540500D01*
X5216048Y-12540500D01*
X5216049Y-12540500D01*
X5444981Y-12502298D01*
X5664503Y-12426936D01*
X5868626Y-12316470D01*
X5874809Y-12311658D01*
X5979785Y-12229952D01*
X5989526Y-12222370D01*
X10628500Y-12222370D01*
X10628501Y-12222376D01*
X10634908Y-12281983D01*
X10685202Y-12416828D01*
X10685206Y-12416835D01*
X10771452Y-12532044D01*
X10771455Y-12532047D01*
X10886664Y-12618293D01*
X10886671Y-12618297D01*
X11021517Y-12668591D01*
X11021516Y-12668591D01*
X11028444Y-12669335D01*
X11081127Y-12675000D01*
X12684872Y-12674999D01*
X12744483Y-12668591D01*
X12879331Y-12618296D01*
X12994546Y-12532046D01*
X13080796Y-12416831D01*
X13131091Y-12281983D01*
X13137500Y-12222373D01*
X13137499Y-10618628D01*
X13131091Y-10559017D01*
X13099945Y-10475511D01*
X13080797Y-10424171D01*
X13080793Y-10424164D01*
X12994547Y-10308955D01*
X12994544Y-10308952D01*
X12879335Y-10222706D01*
X12879328Y-10222702D01*
X12744482Y-10172408D01*
X12744483Y-10172408D01*
X12684883Y-10166001D01*
X12684881Y-10166000D01*
X12684873Y-10166000D01*
X12684864Y-10166000D01*
X11081129Y-10166000D01*
X11081123Y-10166001D01*
X11021516Y-10172408D01*
X10886671Y-10222702D01*
X10886664Y-10222706D01*
X10771455Y-10308952D01*
X10771452Y-10308955D01*
X10685206Y-10424164D01*
X10685202Y-10424171D01*
X10634908Y-10559017D01*
X10629315Y-10611043D01*
X10628501Y-10618623D01*
X10628500Y-10618635D01*
X10628500Y-12222370D01*
X5989526Y-12222370D01*
X6051784Y-12173913D01*
X6208979Y-12003153D01*
X6335924Y-11808849D01*
X6429157Y-11596300D01*
X6486134Y-11371305D01*
X6486367Y-11368496D01*
X6505300Y-11140006D01*
X6505300Y-11139993D01*
X6486135Y-10908702D01*
X6486133Y-10908691D01*
X6429157Y-10683699D01*
X6335924Y-10471151D01*
X6208981Y-10276849D01*
X6113832Y-10173489D01*
X6082910Y-10110835D01*
X6090770Y-10041409D01*
X6134918Y-9987253D01*
X6161730Y-9973325D01*
X6242084Y-9943355D01*
X6242093Y-9943350D01*
X6357187Y-9857190D01*
X6357190Y-9857187D01*
X6443350Y-9742093D01*
X6443354Y-9742086D01*
X6493596Y-9607379D01*
X6493598Y-9607372D01*
X6499999Y-9547844D01*
X6500000Y-9547827D01*
X6500000Y-8850000D01*
X5475278Y-8850000D01*
X5523625Y-8766260D01*
X5553810Y-8634008D01*
X5543673Y-8498735D01*
X5494113Y-8372459D01*
X5476203Y-8350000D01*
X6500000Y-8350000D01*
X6500000Y-7652172D01*
X6499999Y-7652155D01*
X6493598Y-7592627D01*
X6493596Y-7592620D01*
X6443354Y-7457913D01*
X6443350Y-7457906D01*
X6357190Y-7342812D01*
X6357187Y-7342809D01*
X6242093Y-7256649D01*
X6242086Y-7256645D01*
X6107379Y-7206403D01*
X6107372Y-7206401D01*
X6047844Y-7200000D01*
X5350000Y-7200000D01*
X5350000Y-8225810D01*
X5297453Y-8189984D01*
X5167827Y-8150000D01*
X5066276Y-8150000D01*
X4965862Y-8165135D01*
X4850000Y-8220931D01*
X4850000Y-7201362D01*
X4869685Y-7134323D01*
X4886319Y-7113681D01*
X9963681Y-2036319D01*
X10025004Y-2002834D01*
X10051362Y-2000000D01*
X26026046Y-2000000D01*
X26093085Y-2019685D01*
G37*
%TD.AperFunction*%
%TA.AperFunction,Conductor*%
G36*
X84015677Y-2019685D02*
G01*
X84036319Y-2036319D01*
X84465181Y-2465181D01*
X84498666Y-2526504D01*
X84501500Y-2552862D01*
X84501500Y-4199870D01*
X84501501Y-4199876D01*
X84507908Y-4259483D01*
X84558202Y-4394328D01*
X84558206Y-4394335D01*
X84644452Y-4509544D01*
X84644455Y-4509547D01*
X84759664Y-4595793D01*
X84759671Y-4595797D01*
X84891081Y-4644810D01*
X84947015Y-4686681D01*
X84971432Y-4752145D01*
X84956580Y-4820418D01*
X84935430Y-4848673D01*
X84813503Y-4970600D01*
X84677965Y-5164169D01*
X84677964Y-5164171D01*
X84578098Y-5378335D01*
X84578094Y-5378344D01*
X84516938Y-5606586D01*
X84516936Y-5606596D01*
X84496341Y-5841999D01*
X84496341Y-5842000D01*
X84516936Y-6077403D01*
X84516938Y-6077413D01*
X84578094Y-6305655D01*
X84578096Y-6305659D01*
X84578097Y-6305663D01*
X84608945Y-6371816D01*
X84677965Y-6519830D01*
X84677967Y-6519834D01*
X84813501Y-6713395D01*
X84813506Y-6713402D01*
X84980597Y-6880493D01*
X84980603Y-6880498D01*
X85166158Y-7010425D01*
X85209783Y-7065002D01*
X85216977Y-7134500D01*
X85185454Y-7196855D01*
X85166158Y-7213575D01*
X84980597Y-7343505D01*
X84813505Y-7510597D01*
X84677965Y-7704169D01*
X84677964Y-7704171D01*
X84578098Y-7918335D01*
X84578094Y-7918344D01*
X84516938Y-8146586D01*
X84516936Y-8146596D01*
X84496341Y-8381999D01*
X84496341Y-8382000D01*
X84516936Y-8617403D01*
X84516938Y-8617413D01*
X84578094Y-8845655D01*
X84578096Y-8845659D01*
X84578097Y-8845663D01*
X84638878Y-8976007D01*
X84677965Y-9059830D01*
X84677967Y-9059834D01*
X84813501Y-9253395D01*
X84813506Y-9253402D01*
X84980597Y-9420493D01*
X84980603Y-9420498D01*
X85166158Y-9550425D01*
X85209783Y-9605002D01*
X85216977Y-9674500D01*
X85185454Y-9736855D01*
X85166158Y-9753575D01*
X84980597Y-9883505D01*
X84813505Y-10050597D01*
X84677965Y-10244169D01*
X84677964Y-10244171D01*
X84578098Y-10458335D01*
X84578094Y-10458344D01*
X84516938Y-10686586D01*
X84516936Y-10686596D01*
X84496341Y-10921999D01*
X84496341Y-10922000D01*
X84516936Y-11157403D01*
X84516938Y-11157413D01*
X84578094Y-11385655D01*
X84578096Y-11385659D01*
X84578097Y-11385663D01*
X84660597Y-11562585D01*
X84677965Y-11599830D01*
X84677967Y-11599834D01*
X84813501Y-11793395D01*
X84813506Y-11793402D01*
X84980597Y-11960493D01*
X84980603Y-11960498D01*
X85166158Y-12090425D01*
X85209783Y-12145002D01*
X85216977Y-12214500D01*
X85185454Y-12276855D01*
X85166158Y-12293575D01*
X84980597Y-12423505D01*
X84813505Y-12590597D01*
X84677965Y-12784169D01*
X84677964Y-12784171D01*
X84578098Y-12998335D01*
X84578094Y-12998344D01*
X84516938Y-13226586D01*
X84516936Y-13226596D01*
X84496341Y-13461999D01*
X84496341Y-13462000D01*
X84516936Y-13697403D01*
X84516938Y-13697413D01*
X84578094Y-13925655D01*
X84578096Y-13925659D01*
X84578097Y-13925663D01*
X84652196Y-14084568D01*
X84677965Y-14139830D01*
X84677967Y-14139834D01*
X84768874Y-14269662D01*
X84809073Y-14327072D01*
X84813501Y-14333395D01*
X84813506Y-14333402D01*
X84980597Y-14500493D01*
X84980603Y-14500498D01*
X85166158Y-14630425D01*
X85209783Y-14685002D01*
X85216977Y-14754500D01*
X85185454Y-14816855D01*
X85166158Y-14833575D01*
X84980597Y-14963505D01*
X84813505Y-15130597D01*
X84677965Y-15324169D01*
X84677964Y-15324171D01*
X84578098Y-15538335D01*
X84578094Y-15538344D01*
X84516938Y-15766586D01*
X84516936Y-15766596D01*
X84496341Y-16001999D01*
X84496341Y-16002000D01*
X84516936Y-16237403D01*
X84516938Y-16237413D01*
X84578094Y-16465655D01*
X84578096Y-16465659D01*
X84578097Y-16465663D01*
X84660551Y-16642485D01*
X84677965Y-16679830D01*
X84677967Y-16679834D01*
X84766609Y-16806427D01*
X84813501Y-16873396D01*
X84813506Y-16873402D01*
X84980597Y-17040493D01*
X84980603Y-17040498D01*
X85166158Y-17170425D01*
X85209783Y-17225002D01*
X85216977Y-17294500D01*
X85185454Y-17356855D01*
X85166158Y-17373575D01*
X84980597Y-17503505D01*
X84813505Y-17670597D01*
X84677965Y-17864169D01*
X84677964Y-17864171D01*
X84578098Y-18078335D01*
X84578094Y-18078344D01*
X84516938Y-18306586D01*
X84516936Y-18306596D01*
X84496341Y-18541999D01*
X84496341Y-18542000D01*
X84516936Y-18777403D01*
X84516938Y-18777413D01*
X84578094Y-19005655D01*
X84578096Y-19005659D01*
X84578097Y-19005663D01*
X84648498Y-19156638D01*
X84677965Y-19219830D01*
X84677967Y-19219834D01*
X84753069Y-19327090D01*
X84813505Y-19413401D01*
X84980599Y-19580495D01*
X85060764Y-19636627D01*
X85174165Y-19716032D01*
X85174167Y-19716033D01*
X85174170Y-19716035D01*
X85388337Y-19815903D01*
X85616592Y-19877063D01*
X85804918Y-19893539D01*
X85851999Y-19897659D01*
X85852000Y-19897659D01*
X85852001Y-19897659D01*
X85891234Y-19894226D01*
X86087408Y-19877063D01*
X86315663Y-19815903D01*
X86529830Y-19716035D01*
X86723401Y-19580495D01*
X86890495Y-19413401D01*
X87026035Y-19219830D01*
X87125903Y-19005663D01*
X87187063Y-18777408D01*
X87207659Y-18542000D01*
X87187063Y-18306592D01*
X87125903Y-18078337D01*
X87026035Y-17864171D01*
X86990202Y-17812995D01*
X86890494Y-17670597D01*
X86723402Y-17503506D01*
X86723396Y-17503501D01*
X86537842Y-17373575D01*
X86494217Y-17318998D01*
X86487023Y-17249500D01*
X86518546Y-17187145D01*
X86537842Y-17170425D01*
X86633595Y-17103378D01*
X86723401Y-17040495D01*
X86890495Y-16873401D01*
X87026035Y-16679830D01*
X87125903Y-16465663D01*
X87187063Y-16237408D01*
X87207659Y-16002000D01*
X87187063Y-15766592D01*
X87125903Y-15538337D01*
X87026035Y-15324171D01*
X87025652Y-15323623D01*
X86890494Y-15130597D01*
X86723402Y-14963506D01*
X86723396Y-14963501D01*
X86537842Y-14833575D01*
X86494217Y-14778998D01*
X86487023Y-14709500D01*
X86518546Y-14647145D01*
X86537842Y-14630425D01*
X86693748Y-14521258D01*
X86723401Y-14500495D01*
X86890495Y-14333401D01*
X87026035Y-14139830D01*
X87125903Y-13925663D01*
X87187063Y-13697408D01*
X87207659Y-13462000D01*
X87187063Y-13226592D01*
X87125903Y-12998337D01*
X87026035Y-12784171D01*
X87001948Y-12749770D01*
X86890494Y-12590597D01*
X86723402Y-12423506D01*
X86723396Y-12423501D01*
X86537842Y-12293575D01*
X86494217Y-12238998D01*
X86487023Y-12169500D01*
X86518546Y-12107145D01*
X86537842Y-12090425D01*
X86592527Y-12052134D01*
X86723401Y-11960495D01*
X86890495Y-11793401D01*
X87026035Y-11599830D01*
X87125903Y-11385663D01*
X87187063Y-11157408D01*
X87207659Y-10922000D01*
X87187063Y-10686592D01*
X87130502Y-10475502D01*
X87125905Y-10458344D01*
X87125904Y-10458343D01*
X87125903Y-10458337D01*
X87026035Y-10244171D01*
X87021123Y-10237155D01*
X86890494Y-10050597D01*
X86723402Y-9883506D01*
X86723396Y-9883501D01*
X86537842Y-9753575D01*
X86494217Y-9698998D01*
X86487023Y-9629500D01*
X86518546Y-9567145D01*
X86537842Y-9550425D01*
X86560026Y-9534891D01*
X86723401Y-9420495D01*
X86890495Y-9253401D01*
X87026035Y-9059830D01*
X87125903Y-8845663D01*
X87187063Y-8617408D01*
X87207659Y-8382000D01*
X87187063Y-8146592D01*
X87135593Y-7954500D01*
X87125905Y-7918344D01*
X87125904Y-7918343D01*
X87125903Y-7918337D01*
X87026035Y-7704171D01*
X87022978Y-7699804D01*
X86890494Y-7510597D01*
X86723402Y-7343506D01*
X86723396Y-7343501D01*
X86537842Y-7213575D01*
X86494217Y-7158998D01*
X86487023Y-7089500D01*
X86518546Y-7027145D01*
X86537842Y-7010425D01*
X86613171Y-6957679D01*
X86723401Y-6880495D01*
X86890495Y-6713401D01*
X87026035Y-6519830D01*
X87125903Y-6305663D01*
X87187063Y-6077408D01*
X87207659Y-5842000D01*
X87187063Y-5606592D01*
X87153279Y-5480507D01*
X87154942Y-5410660D01*
X87194104Y-5352797D01*
X87258333Y-5325293D01*
X87327235Y-5336879D01*
X87360735Y-5360735D01*
X91963681Y-9963681D01*
X91997166Y-10025004D01*
X92000000Y-10051362D01*
X92000000Y-44948637D01*
X91980315Y-45015676D01*
X91963681Y-45036318D01*
X87414180Y-49585819D01*
X87352857Y-49619304D01*
X87283165Y-49614320D01*
X87227232Y-49572448D01*
X87202815Y-49506984D01*
X87202499Y-49498159D01*
X87202499Y-48124128D01*
X87196091Y-48064517D01*
X87147928Y-47935386D01*
X87145797Y-47929671D01*
X87145793Y-47929664D01*
X87059547Y-47814455D01*
X87059544Y-47814452D01*
X86944335Y-47728206D01*
X86944328Y-47728202D01*
X86812917Y-47679189D01*
X86756983Y-47637318D01*
X86732566Y-47571853D01*
X86747418Y-47503580D01*
X86768563Y-47475332D01*
X86890495Y-47353401D01*
X87026035Y-47159830D01*
X87125903Y-46945663D01*
X87187063Y-46717408D01*
X87207659Y-46482000D01*
X87205590Y-46458357D01*
X87192831Y-46312516D01*
X87187063Y-46246592D01*
X87125903Y-46018337D01*
X87026035Y-45804171D01*
X87021787Y-45798103D01*
X86890494Y-45610597D01*
X86723402Y-45443506D01*
X86723396Y-45443501D01*
X86537842Y-45313575D01*
X86494217Y-45258998D01*
X86487023Y-45189500D01*
X86518546Y-45127145D01*
X86537842Y-45110425D01*
X86643676Y-45036319D01*
X86723401Y-44980495D01*
X86890495Y-44813401D01*
X87026035Y-44619830D01*
X87125903Y-44405663D01*
X87187063Y-44177408D01*
X87207659Y-43942000D01*
X87187063Y-43706592D01*
X87125903Y-43478337D01*
X87026035Y-43264171D01*
X86985713Y-43206584D01*
X86890494Y-43070597D01*
X86723402Y-42903506D01*
X86723396Y-42903501D01*
X86537842Y-42773575D01*
X86494217Y-42718998D01*
X86487023Y-42649500D01*
X86518546Y-42587145D01*
X86537842Y-42570425D01*
X86649353Y-42492344D01*
X86723401Y-42440495D01*
X86890495Y-42273401D01*
X87026035Y-42079830D01*
X87125903Y-41865663D01*
X87187063Y-41637408D01*
X87207659Y-41402000D01*
X87187063Y-41166592D01*
X87125903Y-40938337D01*
X87026035Y-40724171D01*
X87021480Y-40717665D01*
X86890494Y-40530597D01*
X86723402Y-40363506D01*
X86723396Y-40363501D01*
X86537842Y-40233575D01*
X86494217Y-40178998D01*
X86487023Y-40109500D01*
X86518546Y-40047145D01*
X86537842Y-40030425D01*
X86591909Y-39992567D01*
X86723401Y-39900495D01*
X86890495Y-39733401D01*
X87026035Y-39539830D01*
X87125903Y-39325663D01*
X87187063Y-39097408D01*
X87207659Y-38862000D01*
X87187063Y-38626592D01*
X87125903Y-38398337D01*
X87026035Y-38184171D01*
X86997644Y-38143623D01*
X86890494Y-37990597D01*
X86723402Y-37823506D01*
X86723396Y-37823501D01*
X86537842Y-37693575D01*
X86494217Y-37638998D01*
X86487023Y-37569500D01*
X86518546Y-37507145D01*
X86537842Y-37490425D01*
X86591909Y-37452567D01*
X86723401Y-37360495D01*
X86890495Y-37193401D01*
X87026035Y-36999830D01*
X87125903Y-36785663D01*
X87187063Y-36557408D01*
X87207659Y-36322000D01*
X87187063Y-36086592D01*
X87129565Y-35872005D01*
X87125905Y-35858344D01*
X87125904Y-35858343D01*
X87125903Y-35858337D01*
X87026035Y-35644171D01*
X87000895Y-35608266D01*
X86890494Y-35450597D01*
X86723402Y-35283506D01*
X86723396Y-35283501D01*
X86537842Y-35153575D01*
X86494217Y-35098998D01*
X86487023Y-35029500D01*
X86518546Y-34967145D01*
X86537842Y-34950425D01*
X86572367Y-34926250D01*
X86723401Y-34820495D01*
X86890495Y-34653401D01*
X87026035Y-34459830D01*
X87125903Y-34245663D01*
X87187063Y-34017408D01*
X87207659Y-33782000D01*
X87187063Y-33546592D01*
X87125903Y-33318337D01*
X87026035Y-33104171D01*
X87021112Y-33097139D01*
X86890494Y-32910597D01*
X86723402Y-32743506D01*
X86723396Y-32743501D01*
X86537842Y-32613575D01*
X86494217Y-32558998D01*
X86487023Y-32489500D01*
X86518546Y-32427145D01*
X86537842Y-32410425D01*
X86649344Y-32332350D01*
X86723401Y-32280495D01*
X86890495Y-32113401D01*
X87026035Y-31919830D01*
X87125903Y-31705663D01*
X87187063Y-31477408D01*
X87207659Y-31242000D01*
X87187063Y-31006592D01*
X87140138Y-30831462D01*
X87125905Y-30778344D01*
X87125904Y-30778343D01*
X87125903Y-30778337D01*
X87026035Y-30564171D01*
X87007119Y-30537155D01*
X86890494Y-30370597D01*
X86723402Y-30203506D01*
X86723395Y-30203501D01*
X86529834Y-30067967D01*
X86529830Y-30067965D01*
X86450803Y-30031114D01*
X86315663Y-29968097D01*
X86315659Y-29968096D01*
X86315655Y-29968094D01*
X86087413Y-29906938D01*
X86087403Y-29906936D01*
X85852001Y-29886341D01*
X85851999Y-29886341D01*
X85616596Y-29906936D01*
X85616586Y-29906938D01*
X85388344Y-29968094D01*
X85388335Y-29968098D01*
X85174171Y-30067964D01*
X85174169Y-30067965D01*
X84980597Y-30203505D01*
X84813505Y-30370597D01*
X84677965Y-30564169D01*
X84677964Y-30564171D01*
X84578098Y-30778335D01*
X84578094Y-30778344D01*
X84516938Y-31006586D01*
X84516936Y-31006596D01*
X84496341Y-31241999D01*
X84496341Y-31242000D01*
X84516936Y-31477403D01*
X84516938Y-31477413D01*
X84578094Y-31705655D01*
X84578096Y-31705659D01*
X84578097Y-31705663D01*
X84662249Y-31886126D01*
X84677965Y-31919830D01*
X84677967Y-31919834D01*
X84813501Y-32113395D01*
X84813506Y-32113402D01*
X84980597Y-32280493D01*
X84980603Y-32280498D01*
X85166158Y-32410425D01*
X85209783Y-32465002D01*
X85216977Y-32534500D01*
X85185454Y-32596855D01*
X85166158Y-32613575D01*
X84980597Y-32743505D01*
X84813505Y-32910597D01*
X84677965Y-33104169D01*
X84677964Y-33104171D01*
X84578098Y-33318335D01*
X84578094Y-33318344D01*
X84516938Y-33546586D01*
X84516936Y-33546596D01*
X84496341Y-33781999D01*
X84496341Y-33782000D01*
X84516936Y-34017403D01*
X84516938Y-34017413D01*
X84578094Y-34245655D01*
X84578096Y-34245659D01*
X84578097Y-34245663D01*
X84648666Y-34396999D01*
X84677965Y-34459830D01*
X84677967Y-34459834D01*
X84755353Y-34570352D01*
X84802673Y-34637932D01*
X84813501Y-34653395D01*
X84813506Y-34653402D01*
X84980597Y-34820493D01*
X84980603Y-34820498D01*
X85166158Y-34950425D01*
X85209783Y-35005002D01*
X85216977Y-35074500D01*
X85185454Y-35136855D01*
X85166158Y-35153575D01*
X84980597Y-35283505D01*
X84813505Y-35450597D01*
X84677965Y-35644169D01*
X84677964Y-35644171D01*
X84578098Y-35858335D01*
X84578094Y-35858344D01*
X84516938Y-36086586D01*
X84516936Y-36086596D01*
X84496341Y-36321999D01*
X84496341Y-36322000D01*
X84516936Y-36557403D01*
X84516938Y-36557413D01*
X84578094Y-36785655D01*
X84578096Y-36785659D01*
X84578097Y-36785663D01*
X84611503Y-36857302D01*
X84677965Y-36999830D01*
X84677967Y-36999834D01*
X84736902Y-37084001D01*
X84810806Y-37189547D01*
X84813501Y-37193395D01*
X84813506Y-37193402D01*
X84980597Y-37360493D01*
X84980603Y-37360498D01*
X85166158Y-37490425D01*
X85209783Y-37545002D01*
X85216977Y-37614500D01*
X85185454Y-37676855D01*
X85166158Y-37693575D01*
X84980597Y-37823505D01*
X84813505Y-37990597D01*
X84677965Y-38184169D01*
X84677964Y-38184171D01*
X84578098Y-38398335D01*
X84578094Y-38398344D01*
X84516938Y-38626586D01*
X84516936Y-38626596D01*
X84496341Y-38861999D01*
X84496341Y-38862000D01*
X84516936Y-39097403D01*
X84516938Y-39097413D01*
X84578094Y-39325655D01*
X84578096Y-39325659D01*
X84578097Y-39325663D01*
X84666262Y-39514732D01*
X84677965Y-39539830D01*
X84677967Y-39539834D01*
X84813501Y-39733395D01*
X84813506Y-39733402D01*
X84980597Y-39900493D01*
X84980603Y-39900498D01*
X85166158Y-40030425D01*
X85209783Y-40085002D01*
X85216977Y-40154500D01*
X85185454Y-40216855D01*
X85166158Y-40233575D01*
X84980597Y-40363505D01*
X84813505Y-40530597D01*
X84677965Y-40724169D01*
X84677964Y-40724171D01*
X84578098Y-40938335D01*
X84578094Y-40938344D01*
X84516938Y-41166586D01*
X84516936Y-41166596D01*
X84496341Y-41401999D01*
X84496341Y-41402000D01*
X84516936Y-41637403D01*
X84516938Y-41637413D01*
X84578094Y-41865655D01*
X84578096Y-41865659D01*
X84578097Y-41865663D01*
X84612353Y-41939125D01*
X84677965Y-42079830D01*
X84677967Y-42079834D01*
X84813501Y-42273395D01*
X84813506Y-42273402D01*
X84980597Y-42440493D01*
X84980603Y-42440498D01*
X85166158Y-42570425D01*
X85209783Y-42625002D01*
X85216977Y-42694500D01*
X85185454Y-42756855D01*
X85166158Y-42773575D01*
X84980597Y-42903505D01*
X84813505Y-43070597D01*
X84677965Y-43264169D01*
X84677964Y-43264171D01*
X84578098Y-43478335D01*
X84578094Y-43478344D01*
X84516938Y-43706586D01*
X84516936Y-43706596D01*
X84496341Y-43941999D01*
X84496341Y-43942000D01*
X84516936Y-44177403D01*
X84516938Y-44177413D01*
X84578094Y-44405655D01*
X84578096Y-44405659D01*
X84578097Y-44405663D01*
X84657602Y-44576161D01*
X84677965Y-44619830D01*
X84677967Y-44619834D01*
X84813501Y-44813395D01*
X84813506Y-44813402D01*
X84980597Y-44980493D01*
X84980603Y-44980498D01*
X85166158Y-45110425D01*
X85209783Y-45165002D01*
X85216977Y-45234500D01*
X85185454Y-45296855D01*
X85166158Y-45313575D01*
X84980597Y-45443505D01*
X84813505Y-45610597D01*
X84677965Y-45804169D01*
X84677964Y-45804171D01*
X84578098Y-46018335D01*
X84578094Y-46018344D01*
X84516938Y-46246586D01*
X84516936Y-46246596D01*
X84496341Y-46481999D01*
X84496341Y-46482000D01*
X84516936Y-46717403D01*
X84516938Y-46717413D01*
X84578094Y-46945655D01*
X84578096Y-46945659D01*
X84578097Y-46945663D01*
X84644207Y-47087435D01*
X84677965Y-47159830D01*
X84677967Y-47159834D01*
X84745813Y-47256727D01*
X84813501Y-47353396D01*
X84813506Y-47353402D01*
X84935430Y-47475326D01*
X84968915Y-47536649D01*
X84963931Y-47606341D01*
X84922059Y-47662274D01*
X84891083Y-47679189D01*
X84759669Y-47728203D01*
X84759664Y-47728206D01*
X84644455Y-47814452D01*
X84644452Y-47814455D01*
X84558206Y-47929664D01*
X84558202Y-47929671D01*
X84507908Y-48064517D01*
X84501501Y-48124116D01*
X84501501Y-48124123D01*
X84501500Y-48124135D01*
X84501500Y-49919870D01*
X84501501Y-49919876D01*
X84507908Y-49979483D01*
X84558202Y-50114328D01*
X84558206Y-50114335D01*
X84644452Y-50229544D01*
X84644455Y-50229547D01*
X84759664Y-50315793D01*
X84759671Y-50315797D01*
X84894517Y-50366091D01*
X84894516Y-50366091D01*
X84901444Y-50366835D01*
X84954127Y-50372500D01*
X86328137Y-50372499D01*
X86395176Y-50392184D01*
X86440931Y-50444987D01*
X86450875Y-50514146D01*
X86421850Y-50577702D01*
X86415818Y-50584180D01*
X84036319Y-52963681D01*
X83974996Y-52997166D01*
X83948638Y-53000000D01*
X82848772Y-53000000D01*
X82781733Y-52980315D01*
X82735978Y-52927511D01*
X82726034Y-52858353D01*
X82755059Y-52794797D01*
X82796365Y-52763618D01*
X82948734Y-52692568D01*
X83135139Y-52562047D01*
X83296047Y-52401139D01*
X83426568Y-52214734D01*
X83522739Y-52008496D01*
X83581635Y-51788692D01*
X83599456Y-51585000D01*
X83601468Y-51562001D01*
X83601468Y-51561998D01*
X83586157Y-51387000D01*
X83581635Y-51335308D01*
X83522739Y-51115504D01*
X83426568Y-50909266D01*
X83296047Y-50722861D01*
X83296045Y-50722858D01*
X83135141Y-50561954D01*
X82948734Y-50431432D01*
X82948728Y-50431429D01*
X82890725Y-50404382D01*
X82838285Y-50358210D01*
X82819133Y-50291017D01*
X82839348Y-50224135D01*
X82890725Y-50179618D01*
X82948734Y-50152568D01*
X83135139Y-50022047D01*
X83296047Y-49861139D01*
X83426568Y-49674734D01*
X83522739Y-49468496D01*
X83581635Y-49248692D01*
X83601468Y-49022000D01*
X83581635Y-48795308D01*
X83522739Y-48575504D01*
X83426568Y-48369266D01*
X83296047Y-48182861D01*
X83296045Y-48182858D01*
X83135141Y-48021954D01*
X82948734Y-47891432D01*
X82948728Y-47891429D01*
X82890725Y-47864382D01*
X82838285Y-47818210D01*
X82819133Y-47751017D01*
X82839348Y-47684135D01*
X82890725Y-47639618D01*
X82948734Y-47612568D01*
X83135139Y-47482047D01*
X83296047Y-47321139D01*
X83426568Y-47134734D01*
X83522739Y-46928496D01*
X83581635Y-46708692D01*
X83601468Y-46482000D01*
X83598948Y-46453202D01*
X83584218Y-46284832D01*
X83581635Y-46255308D01*
X83535249Y-46082193D01*
X83522741Y-46035511D01*
X83522738Y-46035502D01*
X83504793Y-45997020D01*
X83426568Y-45829266D01*
X83304172Y-45654465D01*
X83296045Y-45642858D01*
X83135141Y-45481954D01*
X82948734Y-45351432D01*
X82948728Y-45351429D01*
X82890725Y-45324382D01*
X82838285Y-45278210D01*
X82819133Y-45211017D01*
X82839348Y-45144135D01*
X82890725Y-45099618D01*
X82948734Y-45072568D01*
X83135139Y-44942047D01*
X83296047Y-44781139D01*
X83426568Y-44594734D01*
X83522739Y-44388496D01*
X83581635Y-44168692D01*
X83601468Y-43942000D01*
X83597305Y-43894422D01*
X83590419Y-43815706D01*
X83581635Y-43715308D01*
X83522739Y-43495504D01*
X83426568Y-43289266D01*
X83296047Y-43102861D01*
X83296045Y-43102858D01*
X83135141Y-42941954D01*
X82948734Y-42811432D01*
X82948728Y-42811429D01*
X82917298Y-42796773D01*
X82890724Y-42784381D01*
X82838285Y-42738210D01*
X82819133Y-42671017D01*
X82839348Y-42604135D01*
X82890725Y-42559618D01*
X82948734Y-42532568D01*
X83135139Y-42402047D01*
X83296047Y-42241139D01*
X83426568Y-42054734D01*
X83522739Y-41848496D01*
X83581635Y-41628692D01*
X83601468Y-41402000D01*
X83599869Y-41383728D01*
X83591018Y-41282553D01*
X83581635Y-41175308D01*
X83522739Y-40955504D01*
X83426568Y-40749266D01*
X83296047Y-40562861D01*
X83296045Y-40562858D01*
X83135141Y-40401954D01*
X82948734Y-40271432D01*
X82948728Y-40271429D01*
X82907918Y-40252399D01*
X82890724Y-40244381D01*
X82838285Y-40198210D01*
X82819133Y-40131017D01*
X82839348Y-40064135D01*
X82890725Y-40019618D01*
X82948734Y-39992568D01*
X83135139Y-39862047D01*
X83296047Y-39701139D01*
X83426568Y-39514734D01*
X83522739Y-39308496D01*
X83581635Y-39088692D01*
X83601468Y-38862000D01*
X83581635Y-38635308D01*
X83522739Y-38415504D01*
X83426568Y-38209266D01*
X83296047Y-38022861D01*
X83296045Y-38022858D01*
X83135141Y-37861954D01*
X82948734Y-37731432D01*
X82948728Y-37731429D01*
X82921038Y-37718517D01*
X82890724Y-37704381D01*
X82838285Y-37658210D01*
X82819133Y-37591017D01*
X82839348Y-37524135D01*
X82890725Y-37479618D01*
X82948734Y-37452568D01*
X83135139Y-37322047D01*
X83296047Y-37161139D01*
X83426568Y-36974734D01*
X83522739Y-36768496D01*
X83581635Y-36548692D01*
X83601468Y-36322000D01*
X83581635Y-36095308D01*
X83522739Y-35875504D01*
X83426568Y-35669266D01*
X83325911Y-35525512D01*
X83296045Y-35482858D01*
X83135141Y-35321954D01*
X82948734Y-35191432D01*
X82948728Y-35191429D01*
X82914049Y-35175258D01*
X82890724Y-35164381D01*
X82838285Y-35118210D01*
X82819133Y-35051017D01*
X82839348Y-34984135D01*
X82890725Y-34939618D01*
X82891922Y-34939060D01*
X82948734Y-34912568D01*
X83135139Y-34782047D01*
X83296047Y-34621139D01*
X83426568Y-34434734D01*
X83522739Y-34228496D01*
X83581635Y-34008692D01*
X83601468Y-33782000D01*
X83599745Y-33762311D01*
X83592753Y-33682389D01*
X83581635Y-33555308D01*
X83522739Y-33335504D01*
X83426568Y-33129266D01*
X83308868Y-32961172D01*
X83296045Y-32942858D01*
X83135141Y-32781954D01*
X82948734Y-32651432D01*
X82948728Y-32651429D01*
X82890725Y-32624382D01*
X82838285Y-32578210D01*
X82819133Y-32511017D01*
X82839348Y-32444135D01*
X82890725Y-32399618D01*
X82948734Y-32372568D01*
X83135139Y-32242047D01*
X83296047Y-32081139D01*
X83426568Y-31894734D01*
X83522739Y-31688496D01*
X83581635Y-31468692D01*
X83598634Y-31274384D01*
X83601468Y-31242001D01*
X83601468Y-31241998D01*
X83594197Y-31158891D01*
X83581635Y-31015308D01*
X83536195Y-30845722D01*
X83522741Y-30795511D01*
X83522738Y-30795502D01*
X83514733Y-30778335D01*
X83426568Y-30589266D01*
X83339945Y-30465554D01*
X83317618Y-30399347D01*
X83334629Y-30331580D01*
X83353835Y-30306754D01*
X84203788Y-29456801D01*
X84216042Y-29446986D01*
X84215859Y-29446764D01*
X84221868Y-29441791D01*
X84221877Y-29441786D01*
X84267949Y-29392722D01*
X84270566Y-29390023D01*
X84290120Y-29370471D01*
X84292576Y-29367303D01*
X84300156Y-29358427D01*
X84330062Y-29326582D01*
X84339715Y-29309020D01*
X84350389Y-29292770D01*
X84362673Y-29276936D01*
X84380019Y-29236850D01*
X84385157Y-29226362D01*
X84389606Y-29218271D01*
X84406197Y-29188092D01*
X84411177Y-29168691D01*
X84417478Y-29150288D01*
X84425438Y-29131896D01*
X84432272Y-29088741D01*
X84434635Y-29077331D01*
X84445500Y-29035019D01*
X84445500Y-29014983D01*
X84447027Y-28995582D01*
X84450160Y-28975804D01*
X84446050Y-28932324D01*
X84445500Y-28920655D01*
X84445500Y-23876002D01*
X86345034Y-23876002D01*
X86364858Y-24102599D01*
X86364860Y-24102610D01*
X86423730Y-24322317D01*
X86423735Y-24322331D01*
X86519863Y-24528478D01*
X86570974Y-24601472D01*
X87252046Y-23920400D01*
X87264835Y-24001148D01*
X87322359Y-24114045D01*
X87411955Y-24203641D01*
X87524852Y-24261165D01*
X87605599Y-24273953D01*
X86919352Y-24960199D01*
X86909506Y-25009194D01*
X86860890Y-25059377D01*
X86805367Y-25074049D01*
X86805423Y-25075099D01*
X86805429Y-25075146D01*
X86805426Y-25075146D01*
X86805436Y-25075324D01*
X86802123Y-25075501D01*
X86742516Y-25081908D01*
X86607671Y-25132202D01*
X86607664Y-25132206D01*
X86492455Y-25218452D01*
X86492452Y-25218455D01*
X86406206Y-25333664D01*
X86406202Y-25333671D01*
X86355908Y-25468517D01*
X86349501Y-25528116D01*
X86349501Y-25528123D01*
X86349500Y-25528135D01*
X86349500Y-27223870D01*
X86349501Y-27223876D01*
X86355908Y-27283483D01*
X86406202Y-27418328D01*
X86406206Y-27418335D01*
X86492452Y-27533544D01*
X86492455Y-27533547D01*
X86607664Y-27619793D01*
X86607671Y-27619797D01*
X86742517Y-27670091D01*
X86742516Y-27670091D01*
X86749444Y-27670835D01*
X86802127Y-27676500D01*
X88497872Y-27676499D01*
X88557483Y-27670091D01*
X88692331Y-27619796D01*
X88807546Y-27533546D01*
X88893796Y-27418331D01*
X88944091Y-27283483D01*
X88950500Y-27223873D01*
X88950499Y-25528128D01*
X88944091Y-25468517D01*
X88941475Y-25461504D01*
X88893797Y-25333671D01*
X88893793Y-25333664D01*
X88807547Y-25218455D01*
X88807544Y-25218452D01*
X88692335Y-25132206D01*
X88692328Y-25132202D01*
X88557482Y-25081908D01*
X88557483Y-25081908D01*
X88497883Y-25075501D01*
X88497881Y-25075500D01*
X88497873Y-25075500D01*
X88497864Y-25075500D01*
X88494548Y-25075322D01*
X88494627Y-25073847D01*
X88433215Y-25055815D01*
X88387460Y-25003011D01*
X88379969Y-24959522D01*
X87694400Y-24273953D01*
X87775148Y-24261165D01*
X87888045Y-24203641D01*
X87977641Y-24114045D01*
X88035165Y-24001148D01*
X88047953Y-23920400D01*
X88729024Y-24601471D01*
X88780136Y-24528478D01*
X88876264Y-24322331D01*
X88876269Y-24322317D01*
X88935139Y-24102610D01*
X88935141Y-24102599D01*
X88954966Y-23876002D01*
X88954966Y-23875997D01*
X88935141Y-23649400D01*
X88935139Y-23649389D01*
X88876269Y-23429682D01*
X88876264Y-23429668D01*
X88780136Y-23223521D01*
X88780132Y-23223513D01*
X88729025Y-23150526D01*
X88047953Y-23831598D01*
X88035165Y-23750852D01*
X87977641Y-23637955D01*
X87888045Y-23548359D01*
X87775148Y-23490835D01*
X87694401Y-23478046D01*
X88375472Y-22796974D01*
X88302478Y-22745863D01*
X88096331Y-22649735D01*
X88096317Y-22649730D01*
X87876610Y-22590860D01*
X87876599Y-22590858D01*
X87650002Y-22571034D01*
X87649998Y-22571034D01*
X87423400Y-22590858D01*
X87423389Y-22590860D01*
X87203682Y-22649730D01*
X87203673Y-22649734D01*
X86997516Y-22745866D01*
X86997512Y-22745868D01*
X86924526Y-22796973D01*
X86924526Y-22796974D01*
X87605599Y-23478046D01*
X87524852Y-23490835D01*
X87411955Y-23548359D01*
X87322359Y-23637955D01*
X87264835Y-23750852D01*
X87252046Y-23831598D01*
X86570974Y-23150526D01*
X86570973Y-23150526D01*
X86519868Y-23223512D01*
X86519866Y-23223516D01*
X86423734Y-23429673D01*
X86423730Y-23429682D01*
X86364860Y-23649389D01*
X86364858Y-23649400D01*
X86345034Y-23875997D01*
X86345034Y-23876002D01*
X84445500Y-23876002D01*
X84445500Y-22688737D01*
X84447224Y-22673123D01*
X84446938Y-22673096D01*
X84447672Y-22665333D01*
X84445561Y-22598143D01*
X84445500Y-22594249D01*
X84445500Y-22566651D01*
X84445500Y-22566650D01*
X84444997Y-22562670D01*
X84444080Y-22551021D01*
X84442709Y-22507374D01*
X84442709Y-22507372D01*
X84437120Y-22488137D01*
X84433174Y-22469084D01*
X84432580Y-22464382D01*
X84430664Y-22449208D01*
X84414578Y-22408581D01*
X84410803Y-22397554D01*
X84398617Y-22355610D01*
X84389069Y-22339465D01*
X84388421Y-22338369D01*
X84379860Y-22320893D01*
X84375048Y-22308739D01*
X84372486Y-22302268D01*
X84346809Y-22266926D01*
X84340412Y-22257190D01*
X84318170Y-22219579D01*
X84318167Y-22219576D01*
X84318165Y-22219573D01*
X84304005Y-22205413D01*
X84291370Y-22190620D01*
X84279593Y-22174412D01*
X84245945Y-22146576D01*
X84237304Y-22138713D01*
X83595413Y-21496822D01*
X83561928Y-21435499D01*
X83563319Y-21377048D01*
X83581635Y-21308692D01*
X83601468Y-21082000D01*
X83581635Y-20855308D01*
X83522739Y-20635504D01*
X83426568Y-20429266D01*
X83296047Y-20242861D01*
X83296045Y-20242858D01*
X83135141Y-20081954D01*
X82948734Y-19951432D01*
X82948728Y-19951429D01*
X82921038Y-19938517D01*
X82890724Y-19924381D01*
X82838285Y-19878210D01*
X82819133Y-19811017D01*
X82839348Y-19744135D01*
X82890725Y-19699618D01*
X82948734Y-19672568D01*
X83135139Y-19542047D01*
X83296047Y-19381139D01*
X83426568Y-19194734D01*
X83522739Y-18988496D01*
X83581635Y-18768692D01*
X83601468Y-18542000D01*
X83599563Y-18520231D01*
X83588685Y-18395887D01*
X83581635Y-18315308D01*
X83522739Y-18095504D01*
X83426568Y-17889266D01*
X83296047Y-17702861D01*
X83296045Y-17702858D01*
X83135141Y-17541954D01*
X82948734Y-17411432D01*
X82948728Y-17411429D01*
X82890725Y-17384382D01*
X82838285Y-17338210D01*
X82819133Y-17271017D01*
X82839348Y-17204135D01*
X82890725Y-17159618D01*
X82948734Y-17132568D01*
X83135139Y-17002047D01*
X83296047Y-16841139D01*
X83426568Y-16654734D01*
X83522739Y-16448496D01*
X83581635Y-16228692D01*
X83601468Y-16002000D01*
X83581635Y-15775308D01*
X83522739Y-15555504D01*
X83426568Y-15349266D01*
X83296047Y-15162861D01*
X83296045Y-15162858D01*
X83135141Y-15001954D01*
X82948734Y-14871432D01*
X82948728Y-14871429D01*
X82890725Y-14844382D01*
X82838285Y-14798210D01*
X82819133Y-14731017D01*
X82839348Y-14664135D01*
X82890725Y-14619618D01*
X82895415Y-14617431D01*
X82948734Y-14592568D01*
X83135139Y-14462047D01*
X83296047Y-14301139D01*
X83426568Y-14114734D01*
X83522739Y-13908496D01*
X83581635Y-13688692D01*
X83601468Y-13462000D01*
X83581635Y-13235308D01*
X83522739Y-13015504D01*
X83426568Y-12809266D01*
X83296047Y-12622861D01*
X83296045Y-12622858D01*
X83135141Y-12461954D01*
X82948734Y-12331432D01*
X82948728Y-12331429D01*
X82906329Y-12311658D01*
X82890724Y-12304381D01*
X82838285Y-12258210D01*
X82819133Y-12191017D01*
X82839348Y-12124135D01*
X82890725Y-12079618D01*
X82948734Y-12052568D01*
X83135139Y-11922047D01*
X83296047Y-11761139D01*
X83426568Y-11574734D01*
X83522739Y-11368496D01*
X83581635Y-11148692D01*
X83601468Y-10922000D01*
X83581635Y-10695308D01*
X83522739Y-10475504D01*
X83426568Y-10269266D01*
X83296047Y-10082861D01*
X83296045Y-10082858D01*
X83135141Y-9921954D01*
X82948734Y-9791432D01*
X82948728Y-9791429D01*
X82890725Y-9764382D01*
X82838285Y-9718210D01*
X82819133Y-9651017D01*
X82839348Y-9584135D01*
X82890725Y-9539618D01*
X82893706Y-9538228D01*
X82948734Y-9512568D01*
X83135139Y-9382047D01*
X83296047Y-9221139D01*
X83426568Y-9034734D01*
X83522739Y-8828496D01*
X83581635Y-8608692D01*
X83601468Y-8382000D01*
X83581635Y-8155308D01*
X83522739Y-7935504D01*
X83426568Y-7729266D01*
X83296047Y-7542861D01*
X83296045Y-7542858D01*
X83135141Y-7381954D01*
X82948734Y-7251432D01*
X82948728Y-7251429D01*
X82921038Y-7238517D01*
X82890724Y-7224381D01*
X82838285Y-7178210D01*
X82819133Y-7111017D01*
X82839348Y-7044135D01*
X82890725Y-6999618D01*
X82948734Y-6972568D01*
X83135139Y-6842047D01*
X83296047Y-6681139D01*
X83426568Y-6494734D01*
X83522739Y-6288496D01*
X83581635Y-6068692D01*
X83601468Y-5842000D01*
X83601045Y-5837170D01*
X83594332Y-5760437D01*
X83581635Y-5615308D01*
X83522739Y-5395504D01*
X83426568Y-5189266D01*
X83296047Y-5002861D01*
X83296045Y-5002858D01*
X83135141Y-4841954D01*
X82948734Y-4711432D01*
X82948728Y-4711429D01*
X82920253Y-4698151D01*
X82890724Y-4684381D01*
X82838285Y-4638210D01*
X82819133Y-4571017D01*
X82839348Y-4504135D01*
X82890725Y-4459618D01*
X82948734Y-4432568D01*
X83135139Y-4302047D01*
X83296047Y-4141139D01*
X83426568Y-3954734D01*
X83522739Y-3748496D01*
X83581635Y-3528692D01*
X83601468Y-3302000D01*
X83601036Y-3297067D01*
X83591093Y-3183418D01*
X83581635Y-3075308D01*
X83522739Y-2855504D01*
X83426568Y-2649266D01*
X83328839Y-2509693D01*
X83296045Y-2462858D01*
X83135141Y-2301954D01*
X83026059Y-2225575D01*
X82982434Y-2170999D01*
X82975240Y-2101500D01*
X83006762Y-2039145D01*
X83066992Y-2003731D01*
X83097182Y-2000000D01*
X83948638Y-2000000D01*
X84015677Y-2019685D01*
G37*
%TD.AperFunction*%
%TA.AperFunction,Conductor*%
G36*
X56112492Y-30617185D02*
G01*
X56158247Y-30669989D01*
X56168191Y-30739147D01*
X56139166Y-30802703D01*
X56110731Y-30826927D01*
X56008671Y-30890119D01*
X56662000Y-31543447D01*
X56662001Y-31543447D01*
X57315327Y-30890119D01*
X57213269Y-30826927D01*
X57166634Y-30774899D01*
X57155530Y-30705917D01*
X57183483Y-30641883D01*
X57241619Y-30603126D01*
X57278547Y-30597500D01*
X65726951Y-30597500D01*
X65793990Y-30617185D01*
X65839745Y-30669989D01*
X65849689Y-30739147D01*
X65839333Y-30773903D01*
X65837267Y-30778335D01*
X65829262Y-30795502D01*
X65829258Y-30795511D01*
X65770366Y-31015302D01*
X65770364Y-31015313D01*
X65750532Y-31241998D01*
X65750532Y-31242001D01*
X65770364Y-31468686D01*
X65770366Y-31468697D01*
X65829258Y-31688488D01*
X65829261Y-31688497D01*
X65925431Y-31894732D01*
X65925432Y-31894734D01*
X66055954Y-32081141D01*
X66216858Y-32242045D01*
X66216861Y-32242047D01*
X66403266Y-32372568D01*
X66461275Y-32399618D01*
X66513714Y-32445791D01*
X66532866Y-32512984D01*
X66512650Y-32579865D01*
X66461275Y-32624382D01*
X66403267Y-32651431D01*
X66403265Y-32651432D01*
X66216858Y-32781954D01*
X66055954Y-32942858D01*
X65925432Y-33129265D01*
X65925431Y-33129267D01*
X65829261Y-33335502D01*
X65829258Y-33335511D01*
X65770366Y-33555302D01*
X65770364Y-33555313D01*
X65750532Y-33781998D01*
X65750532Y-33782001D01*
X65770364Y-34008686D01*
X65770366Y-34008697D01*
X65829258Y-34228488D01*
X65829261Y-34228497D01*
X65925431Y-34434732D01*
X65925432Y-34434734D01*
X66055954Y-34621141D01*
X66216858Y-34782045D01*
X66216861Y-34782047D01*
X66403266Y-34912568D01*
X66460078Y-34939060D01*
X66461275Y-34939618D01*
X66513714Y-34985791D01*
X66532866Y-35052984D01*
X66512650Y-35119865D01*
X66461275Y-35164381D01*
X66444272Y-35172310D01*
X66403267Y-35191431D01*
X66403265Y-35191432D01*
X66216858Y-35321954D01*
X66055954Y-35482858D01*
X65925432Y-35669265D01*
X65925431Y-35669267D01*
X65829261Y-35875502D01*
X65829258Y-35875511D01*
X65770366Y-36095302D01*
X65770364Y-36095313D01*
X65750532Y-36321998D01*
X65750532Y-36322001D01*
X65770364Y-36548686D01*
X65770366Y-36548697D01*
X65829258Y-36768488D01*
X65829261Y-36768497D01*
X65925431Y-36974732D01*
X65925432Y-36974734D01*
X66055954Y-37161141D01*
X66216858Y-37322045D01*
X66216861Y-37322047D01*
X66403266Y-37452568D01*
X66461275Y-37479618D01*
X66513714Y-37525791D01*
X66532866Y-37592984D01*
X66512650Y-37659865D01*
X66461275Y-37704381D01*
X66444272Y-37712310D01*
X66403267Y-37731431D01*
X66403265Y-37731432D01*
X66216858Y-37861954D01*
X66055954Y-38022858D01*
X65925432Y-38209265D01*
X65925431Y-38209267D01*
X65829261Y-38415502D01*
X65829258Y-38415511D01*
X65770366Y-38635302D01*
X65770364Y-38635313D01*
X65750532Y-38861998D01*
X65750532Y-38862001D01*
X65770364Y-39088686D01*
X65770366Y-39088697D01*
X65829258Y-39308488D01*
X65829261Y-39308497D01*
X65925431Y-39514732D01*
X65925432Y-39514734D01*
X66055954Y-39701141D01*
X66216858Y-39862045D01*
X66216861Y-39862047D01*
X66403266Y-39992568D01*
X66461275Y-40019618D01*
X66513714Y-40065791D01*
X66532866Y-40132984D01*
X66512650Y-40199865D01*
X66461275Y-40244381D01*
X66444272Y-40252310D01*
X66403267Y-40271431D01*
X66403265Y-40271432D01*
X66216858Y-40401954D01*
X66055954Y-40562858D01*
X65925432Y-40749265D01*
X65925431Y-40749267D01*
X65829261Y-40955502D01*
X65829258Y-40955511D01*
X65770366Y-41175302D01*
X65770364Y-41175313D01*
X65750532Y-41401998D01*
X65750532Y-41402001D01*
X65770364Y-41628686D01*
X65770366Y-41628697D01*
X65829258Y-41848488D01*
X65829261Y-41848497D01*
X65925431Y-42054732D01*
X65925432Y-42054734D01*
X66055954Y-42241141D01*
X66216858Y-42402045D01*
X66216861Y-42402047D01*
X66403266Y-42532568D01*
X66461275Y-42559618D01*
X66513714Y-42605791D01*
X66532866Y-42672984D01*
X66512650Y-42739865D01*
X66461275Y-42784382D01*
X66403267Y-42811431D01*
X66403265Y-42811432D01*
X66216858Y-42941954D01*
X66055954Y-43102858D01*
X65925432Y-43289265D01*
X65925431Y-43289267D01*
X65829261Y-43495502D01*
X65829258Y-43495511D01*
X65770366Y-43715302D01*
X65770364Y-43715313D01*
X65750532Y-43941998D01*
X65750532Y-43942001D01*
X65770364Y-44168686D01*
X65770366Y-44168697D01*
X65829258Y-44388488D01*
X65829261Y-44388497D01*
X65925431Y-44594732D01*
X65925432Y-44594734D01*
X66055954Y-44781141D01*
X66216858Y-44942045D01*
X66226274Y-44948638D01*
X66403266Y-45072568D01*
X66461275Y-45099618D01*
X66513714Y-45145791D01*
X66532866Y-45212984D01*
X66512650Y-45279865D01*
X66461275Y-45324382D01*
X66403267Y-45351431D01*
X66403265Y-45351432D01*
X66216858Y-45481954D01*
X66055954Y-45642858D01*
X65925432Y-45829265D01*
X65925431Y-45829267D01*
X65829261Y-46035502D01*
X65829258Y-46035511D01*
X65770366Y-46255302D01*
X65770364Y-46255313D01*
X65750532Y-46481998D01*
X65750532Y-46482001D01*
X65770364Y-46708686D01*
X65770366Y-46708697D01*
X65829258Y-46928488D01*
X65829260Y-46928492D01*
X65829261Y-46928496D01*
X65839333Y-46950095D01*
X65849825Y-47019173D01*
X65821305Y-47082957D01*
X65762829Y-47121196D01*
X65726951Y-47126500D01*
X64884218Y-47126500D01*
X64817179Y-47106815D01*
X64771424Y-47054011D01*
X64761480Y-46984853D01*
X64771837Y-46950094D01*
X64773900Y-46945669D01*
X64773903Y-46945663D01*
X64835063Y-46717408D01*
X64855659Y-46482000D01*
X64853590Y-46458357D01*
X64840831Y-46312516D01*
X64835063Y-46246592D01*
X64773903Y-46018337D01*
X64674035Y-45804171D01*
X64669787Y-45798103D01*
X64538494Y-45610597D01*
X64371402Y-45443506D01*
X64371396Y-45443501D01*
X64185842Y-45313575D01*
X64142217Y-45258998D01*
X64135023Y-45189500D01*
X64166546Y-45127145D01*
X64185842Y-45110425D01*
X64291676Y-45036319D01*
X64371401Y-44980495D01*
X64538495Y-44813401D01*
X64674035Y-44619830D01*
X64773903Y-44405663D01*
X64835063Y-44177408D01*
X64855659Y-43942000D01*
X64835063Y-43706592D01*
X64773903Y-43478337D01*
X64674035Y-43264171D01*
X64633713Y-43206584D01*
X64538494Y-43070597D01*
X64371402Y-42903506D01*
X64371396Y-42903501D01*
X64185842Y-42773575D01*
X64142217Y-42718998D01*
X64135023Y-42649500D01*
X64166546Y-42587145D01*
X64185842Y-42570425D01*
X64297353Y-42492344D01*
X64371401Y-42440495D01*
X64538495Y-42273401D01*
X64674035Y-42079830D01*
X64773903Y-41865663D01*
X64835063Y-41637408D01*
X64855659Y-41402000D01*
X64835063Y-41166592D01*
X64773903Y-40938337D01*
X64674035Y-40724171D01*
X64669479Y-40717665D01*
X64538496Y-40530600D01*
X64482370Y-40474474D01*
X64416567Y-40408671D01*
X64383084Y-40347351D01*
X64388068Y-40277659D01*
X64429939Y-40221725D01*
X64460915Y-40204810D01*
X64592331Y-40155796D01*
X64707546Y-40069546D01*
X64793796Y-39954331D01*
X64844091Y-39819483D01*
X64850500Y-39759873D01*
X64850499Y-37964128D01*
X64844091Y-37904517D01*
X64837341Y-37886420D01*
X64793797Y-37769671D01*
X64793793Y-37769664D01*
X64707547Y-37654455D01*
X64707544Y-37654452D01*
X64592335Y-37568206D01*
X64592328Y-37568202D01*
X64457482Y-37517908D01*
X64457483Y-37517908D01*
X64397883Y-37511501D01*
X64397881Y-37511500D01*
X64397873Y-37511500D01*
X64397864Y-37511500D01*
X62602129Y-37511500D01*
X62602123Y-37511501D01*
X62542516Y-37517908D01*
X62407671Y-37568202D01*
X62407664Y-37568206D01*
X62292455Y-37654452D01*
X62292452Y-37654455D01*
X62206206Y-37769664D01*
X62206202Y-37769671D01*
X62155908Y-37904517D01*
X62149605Y-37963152D01*
X62149501Y-37964123D01*
X62149500Y-37964135D01*
X62149500Y-39759870D01*
X62149501Y-39759876D01*
X62155908Y-39819483D01*
X62206202Y-39954328D01*
X62206206Y-39954335D01*
X62292452Y-40069544D01*
X62292455Y-40069547D01*
X62407664Y-40155793D01*
X62407671Y-40155797D01*
X62539081Y-40204810D01*
X62595015Y-40246681D01*
X62619432Y-40312145D01*
X62604580Y-40380418D01*
X62583430Y-40408673D01*
X62461503Y-40530600D01*
X62325965Y-40724169D01*
X62325964Y-40724171D01*
X62226098Y-40938335D01*
X62226094Y-40938344D01*
X62164938Y-41166586D01*
X62164936Y-41166596D01*
X62144341Y-41401999D01*
X62144341Y-41402000D01*
X62164936Y-41637403D01*
X62164938Y-41637413D01*
X62226094Y-41865655D01*
X62226096Y-41865659D01*
X62226097Y-41865663D01*
X62260353Y-41939125D01*
X62325965Y-42079830D01*
X62325967Y-42079834D01*
X62461501Y-42273395D01*
X62461506Y-42273402D01*
X62628597Y-42440493D01*
X62628603Y-42440498D01*
X62814158Y-42570425D01*
X62857783Y-42625002D01*
X62864977Y-42694500D01*
X62833454Y-42756855D01*
X62814158Y-42773575D01*
X62628597Y-42903505D01*
X62461505Y-43070597D01*
X62325965Y-43264169D01*
X62325964Y-43264171D01*
X62226098Y-43478335D01*
X62226094Y-43478344D01*
X62164938Y-43706586D01*
X62164936Y-43706596D01*
X62144341Y-43941999D01*
X62144341Y-43942000D01*
X62164936Y-44177403D01*
X62164938Y-44177413D01*
X62226094Y-44405655D01*
X62226096Y-44405659D01*
X62226097Y-44405663D01*
X62305602Y-44576161D01*
X62325965Y-44619830D01*
X62325967Y-44619834D01*
X62461501Y-44813395D01*
X62461506Y-44813402D01*
X62628597Y-44980493D01*
X62628603Y-44980498D01*
X62814158Y-45110425D01*
X62857783Y-45165002D01*
X62864977Y-45234500D01*
X62833454Y-45296855D01*
X62814158Y-45313575D01*
X62628597Y-45443505D01*
X62461505Y-45610597D01*
X62325965Y-45804169D01*
X62325964Y-45804171D01*
X62226098Y-46018335D01*
X62226094Y-46018344D01*
X62164938Y-46246586D01*
X62164936Y-46246596D01*
X62144341Y-46481999D01*
X62144341Y-46482000D01*
X62164936Y-46717403D01*
X62164938Y-46717413D01*
X62226094Y-46945655D01*
X62226099Y-46945669D01*
X62228163Y-46950094D01*
X62238656Y-47019171D01*
X62210137Y-47082955D01*
X62151661Y-47121196D01*
X62115782Y-47126500D01*
X62040952Y-47126500D01*
X61973913Y-47106815D01*
X61953271Y-47090181D01*
X50278580Y-35415489D01*
X50245095Y-35354166D01*
X50250079Y-35284474D01*
X50291951Y-35228541D01*
X50325995Y-35210528D01*
X50368503Y-35195936D01*
X50572626Y-35085470D01*
X50580830Y-35079085D01*
X50644537Y-35029500D01*
X50755784Y-34942913D01*
X50764511Y-34933432D01*
X50824394Y-34897441D01*
X50894232Y-34899538D01*
X50951850Y-34939060D01*
X50971924Y-34974080D01*
X51000645Y-35051086D01*
X51000649Y-35051093D01*
X51086809Y-35166187D01*
X51086812Y-35166190D01*
X51201906Y-35252350D01*
X51201913Y-35252354D01*
X51336620Y-35302596D01*
X51336627Y-35302598D01*
X51396155Y-35308999D01*
X51396172Y-35309000D01*
X52094000Y-35309000D01*
X52094000Y-34283189D01*
X52146547Y-34319016D01*
X52276173Y-34359000D01*
X52377724Y-34359000D01*
X52478138Y-34343865D01*
X52594000Y-34288068D01*
X52594000Y-35309000D01*
X53291828Y-35309000D01*
X53291844Y-35308999D01*
X53351372Y-35302598D01*
X53351379Y-35302596D01*
X53486086Y-35252354D01*
X53486093Y-35252350D01*
X53601187Y-35166190D01*
X53601190Y-35166187D01*
X53687350Y-35051093D01*
X53687354Y-35051086D01*
X53737596Y-34916379D01*
X53737598Y-34916372D01*
X53743999Y-34856844D01*
X53744000Y-34856827D01*
X53744000Y-34397000D01*
X55456357Y-34397000D01*
X55476884Y-34618535D01*
X55476885Y-34618537D01*
X55537769Y-34832523D01*
X55537775Y-34832538D01*
X55636938Y-35031683D01*
X55636943Y-35031691D01*
X55771020Y-35209238D01*
X55935437Y-35359123D01*
X55935439Y-35359125D01*
X56124595Y-35476245D01*
X56124596Y-35476245D01*
X56124599Y-35476247D01*
X56332060Y-35556618D01*
X56550757Y-35597500D01*
X56550759Y-35597500D01*
X56773241Y-35597500D01*
X56773243Y-35597500D01*
X56991940Y-35556618D01*
X57199401Y-35476247D01*
X57388562Y-35359124D01*
X57547242Y-35214468D01*
X57552979Y-35209238D01*
X57560316Y-35199523D01*
X57687058Y-35031689D01*
X57786229Y-34832528D01*
X57847115Y-34618536D01*
X57867643Y-34397000D01*
X57858892Y-34302565D01*
X57847115Y-34175464D01*
X57847114Y-34175462D01*
X57842430Y-34159000D01*
X57786229Y-33961472D01*
X57760102Y-33909002D01*
X57687061Y-33762316D01*
X57687056Y-33762308D01*
X57552979Y-33584761D01*
X57388562Y-33434876D01*
X57388560Y-33434874D01*
X57199404Y-33317754D01*
X57199398Y-33317751D01*
X57099225Y-33278944D01*
X57056411Y-33262358D01*
X57001011Y-33219786D01*
X56977420Y-33154019D01*
X56993131Y-33085939D01*
X57043155Y-33037160D01*
X57056412Y-33031105D01*
X57199177Y-32975797D01*
X57199181Y-32975795D01*
X57315326Y-32903879D01*
X56662001Y-32250553D01*
X56662000Y-32250553D01*
X56008672Y-32903879D01*
X56008672Y-32903880D01*
X56124821Y-32975797D01*
X56124822Y-32975798D01*
X56267587Y-33031105D01*
X56322988Y-33073678D01*
X56346579Y-33139445D01*
X56330868Y-33207525D01*
X56280844Y-33256304D01*
X56267587Y-33262359D01*
X56124601Y-33317751D01*
X56124595Y-33317754D01*
X55935439Y-33434874D01*
X55935437Y-33434876D01*
X55771020Y-33584761D01*
X55636943Y-33762308D01*
X55636938Y-33762316D01*
X55537775Y-33961461D01*
X55537769Y-33961476D01*
X55476885Y-34175462D01*
X55476884Y-34175464D01*
X55456357Y-34396999D01*
X55456357Y-34397000D01*
X53744000Y-34397000D01*
X53744000Y-34159000D01*
X52719278Y-34159000D01*
X52767625Y-34075260D01*
X52797810Y-33943008D01*
X52787673Y-33807735D01*
X52738113Y-33681459D01*
X52720203Y-33659000D01*
X53744000Y-33659000D01*
X53744000Y-32961172D01*
X53743999Y-32961155D01*
X53737598Y-32901627D01*
X53737596Y-32901620D01*
X53687354Y-32766913D01*
X53687350Y-32766906D01*
X53601190Y-32651812D01*
X53601187Y-32651809D01*
X53486093Y-32565649D01*
X53486086Y-32565645D01*
X53351379Y-32515403D01*
X53351372Y-32515401D01*
X53291844Y-32509000D01*
X52594000Y-32509000D01*
X52594000Y-33534810D01*
X52541453Y-33498984D01*
X52411827Y-33459000D01*
X52310276Y-33459000D01*
X52209862Y-33474135D01*
X52094000Y-33529931D01*
X52094000Y-32509000D01*
X51396155Y-32509000D01*
X51336627Y-32515401D01*
X51336620Y-32515403D01*
X51201913Y-32565645D01*
X51201906Y-32565649D01*
X51086812Y-32651809D01*
X51086809Y-32651812D01*
X51000649Y-32766906D01*
X51000646Y-32766911D01*
X50971924Y-32843920D01*
X50930052Y-32899853D01*
X50864588Y-32924270D01*
X50796315Y-32909418D01*
X50764514Y-32884571D01*
X50755784Y-32875087D01*
X50755779Y-32875083D01*
X50755777Y-32875081D01*
X50572634Y-32732535D01*
X50572628Y-32732531D01*
X50368504Y-32622064D01*
X50368495Y-32622061D01*
X50148984Y-32546702D01*
X49941023Y-32512000D01*
X49920049Y-32508500D01*
X49687951Y-32508500D01*
X49666977Y-32512000D01*
X49459015Y-32546702D01*
X49239504Y-32622061D01*
X49239495Y-32622064D01*
X49035371Y-32732531D01*
X49035365Y-32732535D01*
X48852222Y-32875081D01*
X48852219Y-32875084D01*
X48852216Y-32875086D01*
X48852216Y-32875087D01*
X48806940Y-32924270D01*
X48695016Y-33045852D01*
X48568076Y-33240149D01*
X48499251Y-33397054D01*
X48454294Y-33450539D01*
X48387558Y-33471229D01*
X48320230Y-33452554D01*
X48298014Y-33434924D01*
X47143588Y-32280498D01*
X46760090Y-31897000D01*
X55456859Y-31897000D01*
X55477378Y-32118439D01*
X55538240Y-32332350D01*
X55637369Y-32531428D01*
X55653137Y-32552308D01*
X55653138Y-32552308D01*
X56279145Y-31926302D01*
X56308372Y-31926302D01*
X56337047Y-32039538D01*
X56400936Y-32137327D01*
X56493115Y-32209072D01*
X56603595Y-32247000D01*
X56691005Y-32247000D01*
X56777216Y-32232614D01*
X56879947Y-32177019D01*
X56959060Y-32091079D01*
X57005982Y-31984108D01*
X57013200Y-31897000D01*
X57015553Y-31897000D01*
X57670861Y-32552308D01*
X57686631Y-32531425D01*
X57686633Y-32531422D01*
X57785759Y-32332350D01*
X57838210Y-32148000D01*
X61248723Y-32148000D01*
X61260314Y-32280495D01*
X61267793Y-32365975D01*
X61267793Y-32365979D01*
X61324422Y-32577322D01*
X61324424Y-32577326D01*
X61324425Y-32577330D01*
X61346366Y-32624382D01*
X61416897Y-32775638D01*
X61419159Y-32778868D01*
X61542402Y-32954877D01*
X61697123Y-33109598D01*
X61876361Y-33235102D01*
X62074670Y-33327575D01*
X62286023Y-33384207D01*
X62468926Y-33400208D01*
X62503998Y-33403277D01*
X62504000Y-33403277D01*
X62504002Y-33403277D01*
X62532254Y-33400805D01*
X62721977Y-33384207D01*
X62933330Y-33327575D01*
X63131639Y-33235102D01*
X63310877Y-33109598D01*
X63465598Y-32954877D01*
X63591102Y-32775639D01*
X63683575Y-32577330D01*
X63740207Y-32365977D01*
X63759277Y-32148000D01*
X63758845Y-32143066D01*
X63753428Y-32081141D01*
X63740207Y-31930023D01*
X63705548Y-31800675D01*
X63683577Y-31718677D01*
X63683576Y-31718676D01*
X63683575Y-31718670D01*
X63591102Y-31520362D01*
X63591100Y-31520359D01*
X63591099Y-31520357D01*
X63465599Y-31341124D01*
X63449901Y-31325426D01*
X63310877Y-31186402D01*
X63131639Y-31060898D01*
X63131640Y-31060898D01*
X63131638Y-31060897D01*
X63015179Y-31006592D01*
X62933330Y-30968425D01*
X62933326Y-30968424D01*
X62933322Y-30968422D01*
X62721977Y-30911793D01*
X62504002Y-30892723D01*
X62503998Y-30892723D01*
X62358682Y-30905436D01*
X62286023Y-30911793D01*
X62286020Y-30911793D01*
X62074677Y-30968422D01*
X62074668Y-30968426D01*
X61876361Y-31060898D01*
X61876357Y-31060900D01*
X61697121Y-31186402D01*
X61542402Y-31341121D01*
X61416900Y-31520357D01*
X61416898Y-31520361D01*
X61324426Y-31718668D01*
X61324422Y-31718677D01*
X61267793Y-31930020D01*
X61267793Y-31930024D01*
X61249155Y-32143066D01*
X61248723Y-32148000D01*
X57838210Y-32148000D01*
X57846621Y-32118439D01*
X57867141Y-31897000D01*
X57867141Y-31896999D01*
X57846621Y-31675560D01*
X57785759Y-31461649D01*
X57686635Y-31262580D01*
X57686630Y-31262572D01*
X57670860Y-31241690D01*
X57015553Y-31896999D01*
X57015553Y-31897000D01*
X57013200Y-31897000D01*
X57015628Y-31867698D01*
X56986953Y-31754462D01*
X56923064Y-31656673D01*
X56830885Y-31584928D01*
X56720405Y-31547000D01*
X56632995Y-31547000D01*
X56546784Y-31561386D01*
X56444053Y-31616981D01*
X56364940Y-31702921D01*
X56318018Y-31809892D01*
X56308372Y-31926302D01*
X56279145Y-31926302D01*
X56308447Y-31897000D01*
X55653138Y-31241691D01*
X55653137Y-31241691D01*
X55637368Y-31262574D01*
X55538240Y-31461649D01*
X55477378Y-31675560D01*
X55456859Y-31896999D01*
X55456859Y-31897000D01*
X46760090Y-31897000D01*
X45916203Y-31053112D01*
X45906380Y-31040850D01*
X45906159Y-31041034D01*
X45901186Y-31035022D01*
X45852176Y-30988999D01*
X45849377Y-30986286D01*
X45829877Y-30966785D01*
X45829871Y-30966780D01*
X45826686Y-30964309D01*
X45817834Y-30956748D01*
X45785982Y-30926838D01*
X45785980Y-30926836D01*
X45785977Y-30926835D01*
X45768429Y-30917188D01*
X45752163Y-30906504D01*
X45736332Y-30894224D01*
X45696249Y-30876878D01*
X45685763Y-30871741D01*
X45647494Y-30850703D01*
X45647492Y-30850702D01*
X45628093Y-30845722D01*
X45609679Y-30839417D01*
X45600164Y-30835299D01*
X45546458Y-30790607D01*
X45525440Y-30723973D01*
X45543783Y-30656555D01*
X45595664Y-30609756D01*
X45649415Y-30597500D01*
X56045453Y-30597500D01*
X56112492Y-30617185D01*
G37*
%TD.AperFunction*%
%TA.AperFunction,Conductor*%
G36*
X38041333Y-12749770D02*
G01*
X38085680Y-12778271D01*
X41894549Y-16587139D01*
X45696871Y-20389462D01*
X45730356Y-20450784D01*
X45725372Y-20520476D01*
X45683500Y-20576409D01*
X45618036Y-20600826D01*
X45586405Y-20599031D01*
X45516748Y-20586010D01*
X45390980Y-20562500D01*
X45177020Y-20562500D01*
X44966703Y-20601815D01*
X44921812Y-20619206D01*
X44767192Y-20679106D01*
X44767186Y-20679108D01*
X44585286Y-20791736D01*
X44585283Y-20791738D01*
X44585279Y-20791740D01*
X44585278Y-20791742D01*
X44429972Y-20933322D01*
X44427158Y-20935887D01*
X44298219Y-21106629D01*
X44202849Y-21298158D01*
X44202846Y-21298164D01*
X44144296Y-21503949D01*
X44144295Y-21503952D01*
X44124554Y-21716999D01*
X44124554Y-21717000D01*
X44144295Y-21930047D01*
X44144296Y-21930050D01*
X44202846Y-22135835D01*
X44202849Y-22135841D01*
X44273145Y-22277015D01*
X44298219Y-22327370D01*
X44427159Y-22498114D01*
X44585278Y-22642258D01*
X44585283Y-22642261D01*
X44585286Y-22642263D01*
X44767186Y-22754891D01*
X44767187Y-22754891D01*
X44767190Y-22754893D01*
X44966703Y-22832185D01*
X45177020Y-22871500D01*
X45177022Y-22871500D01*
X45390978Y-22871500D01*
X45390980Y-22871500D01*
X45601297Y-22832185D01*
X45800810Y-22754893D01*
X45982722Y-22642258D01*
X46140841Y-22498114D01*
X46269781Y-22327370D01*
X46365151Y-22135840D01*
X46365151Y-22135837D01*
X46365153Y-22135835D01*
X46398679Y-22018000D01*
X46423704Y-21930048D01*
X46443446Y-21717000D01*
X46423704Y-21503952D01*
X46400203Y-21421354D01*
X46400791Y-21351488D01*
X46439058Y-21293030D01*
X46502855Y-21264540D01*
X46571928Y-21275065D01*
X46607148Y-21299739D01*
X47972741Y-22665332D01*
X49313197Y-24005788D01*
X49323022Y-24018051D01*
X49323243Y-24017869D01*
X49328211Y-24023874D01*
X49328213Y-24023876D01*
X49328214Y-24023877D01*
X49375719Y-24068488D01*
X49377222Y-24069899D01*
X49380021Y-24072612D01*
X49399522Y-24092114D01*
X49399526Y-24092117D01*
X49399529Y-24092120D01*
X49402702Y-24094581D01*
X49411574Y-24102159D01*
X49443418Y-24132062D01*
X49460976Y-24141714D01*
X49477235Y-24152395D01*
X49493064Y-24164673D01*
X49533155Y-24182021D01*
X49543626Y-24187151D01*
X49566180Y-24199550D01*
X49581902Y-24208194D01*
X49581904Y-24208195D01*
X49581908Y-24208197D01*
X49601316Y-24213180D01*
X49619719Y-24219481D01*
X49638101Y-24227436D01*
X49638102Y-24227436D01*
X49638104Y-24227437D01*
X49681250Y-24234270D01*
X49692672Y-24236636D01*
X49734981Y-24247500D01*
X49755016Y-24247500D01*
X49774414Y-24249026D01*
X49794194Y-24252159D01*
X49794195Y-24252160D01*
X49794195Y-24252159D01*
X49794196Y-24252160D01*
X49837675Y-24248050D01*
X49849344Y-24247500D01*
X55514757Y-24247500D01*
X55581796Y-24267185D01*
X55627551Y-24319989D01*
X55637495Y-24389147D01*
X55625757Y-24426772D01*
X55537775Y-24603461D01*
X55537769Y-24603476D01*
X55476885Y-24817462D01*
X55476884Y-24817464D01*
X55456357Y-25038999D01*
X55456357Y-25039000D01*
X55476884Y-25260535D01*
X55476885Y-25260537D01*
X55537769Y-25474523D01*
X55537775Y-25474538D01*
X55636938Y-25673683D01*
X55636943Y-25673691D01*
X55771020Y-25851238D01*
X55935437Y-26001123D01*
X55935439Y-26001125D01*
X56124595Y-26118245D01*
X56124597Y-26118246D01*
X56124599Y-26118247D01*
X56267587Y-26173641D01*
X56322988Y-26216213D01*
X56346579Y-26281979D01*
X56330868Y-26350060D01*
X56280844Y-26398839D01*
X56267587Y-26404893D01*
X56124833Y-26460196D01*
X56124823Y-26460201D01*
X56008671Y-26532119D01*
X56662000Y-27185447D01*
X56662001Y-27185447D01*
X57315327Y-26532119D01*
X57199178Y-26460202D01*
X57199177Y-26460201D01*
X57056412Y-26404894D01*
X57001010Y-26362321D01*
X56977420Y-26296554D01*
X56993131Y-26228474D01*
X57043155Y-26179695D01*
X57056398Y-26173646D01*
X57199401Y-26118247D01*
X57388562Y-26001124D01*
X57552981Y-25851236D01*
X57687058Y-25673689D01*
X57786229Y-25474528D01*
X57847115Y-25260536D01*
X57867643Y-25039000D01*
X57866941Y-25031429D01*
X57847115Y-24817464D01*
X57847114Y-24817462D01*
X57836424Y-24779892D01*
X57786229Y-24603472D01*
X57785761Y-24602532D01*
X57698243Y-24426772D01*
X57685982Y-24357986D01*
X57712855Y-24293491D01*
X57770331Y-24253764D01*
X57809243Y-24247500D01*
X65841812Y-24247500D01*
X65908851Y-24267185D01*
X65943387Y-24300377D01*
X66055954Y-24461141D01*
X66216858Y-24622045D01*
X66242289Y-24639852D01*
X66403266Y-24752568D01*
X66429931Y-24765002D01*
X66461275Y-24779618D01*
X66513714Y-24825791D01*
X66532866Y-24892984D01*
X66512650Y-24959865D01*
X66461275Y-25004382D01*
X66403267Y-25031431D01*
X66403265Y-25031432D01*
X66216858Y-25161954D01*
X66055954Y-25322858D01*
X65925432Y-25509265D01*
X65925431Y-25509267D01*
X65829261Y-25715502D01*
X65829258Y-25715511D01*
X65770366Y-25935302D01*
X65770364Y-25935313D01*
X65750532Y-26161998D01*
X65750532Y-26162001D01*
X65770364Y-26388686D01*
X65770366Y-26388697D01*
X65829258Y-26608488D01*
X65829261Y-26608497D01*
X65925431Y-26814732D01*
X65925432Y-26814734D01*
X66055954Y-27001141D01*
X66216858Y-27162045D01*
X66216861Y-27162047D01*
X66403266Y-27292568D01*
X66461865Y-27319893D01*
X66514305Y-27366065D01*
X66533457Y-27433258D01*
X66513242Y-27500139D01*
X66461867Y-27544657D01*
X66403515Y-27571867D01*
X66217179Y-27702342D01*
X66056342Y-27863179D01*
X65925865Y-28049517D01*
X65829734Y-28255673D01*
X65829730Y-28255682D01*
X65777127Y-28451999D01*
X65777128Y-28452000D01*
X66740314Y-28452000D01*
X66728359Y-28463955D01*
X66670835Y-28576852D01*
X66651014Y-28702000D01*
X66670835Y-28827148D01*
X66728359Y-28940045D01*
X66740314Y-28952000D01*
X65777128Y-28952000D01*
X65829730Y-29148317D01*
X65829732Y-29148321D01*
X65839885Y-29170094D01*
X65850377Y-29239172D01*
X65821858Y-29302956D01*
X65763382Y-29341196D01*
X65727503Y-29346500D01*
X39700452Y-29346500D01*
X39633413Y-29326815D01*
X39612771Y-29310181D01*
X38848470Y-28545880D01*
X56008672Y-28545880D01*
X56124821Y-28617797D01*
X56124822Y-28617798D01*
X56332195Y-28698134D01*
X56550807Y-28739000D01*
X56773193Y-28739000D01*
X56991809Y-28698133D01*
X57199168Y-28617801D01*
X57199181Y-28617795D01*
X57315326Y-28545879D01*
X56662001Y-27892553D01*
X56662000Y-27892553D01*
X56008672Y-28545879D01*
X56008672Y-28545880D01*
X38848470Y-28545880D01*
X37841590Y-27539000D01*
X55456859Y-27539000D01*
X55477378Y-27760439D01*
X55538240Y-27974350D01*
X55637369Y-28173428D01*
X55653137Y-28194308D01*
X55653138Y-28194308D01*
X56279145Y-27568302D01*
X56308372Y-27568302D01*
X56337047Y-27681538D01*
X56400936Y-27779327D01*
X56493115Y-27851072D01*
X56603595Y-27889000D01*
X56691005Y-27889000D01*
X56777216Y-27874614D01*
X56879947Y-27819019D01*
X56959060Y-27733079D01*
X57005982Y-27626108D01*
X57013200Y-27539000D01*
X57015553Y-27539000D01*
X57670861Y-28194308D01*
X57686631Y-28173425D01*
X57686633Y-28173422D01*
X57785759Y-27974350D01*
X57846621Y-27760439D01*
X57867141Y-27539000D01*
X57867141Y-27538999D01*
X57846621Y-27317560D01*
X57832521Y-27268002D01*
X61248723Y-27268002D01*
X61256603Y-27358072D01*
X61266855Y-27475261D01*
X61267793Y-27485975D01*
X61267793Y-27485979D01*
X61324422Y-27697322D01*
X61324424Y-27697326D01*
X61324425Y-27697330D01*
X61341095Y-27733079D01*
X61416897Y-27895638D01*
X61416898Y-27895639D01*
X61542402Y-28074877D01*
X61697123Y-28229598D01*
X61876361Y-28355102D01*
X62074670Y-28447575D01*
X62074676Y-28447576D01*
X62074677Y-28447577D01*
X62091184Y-28452000D01*
X62286023Y-28504207D01*
X62468926Y-28520208D01*
X62503998Y-28523277D01*
X62504000Y-28523277D01*
X62504002Y-28523277D01*
X62532254Y-28520805D01*
X62721977Y-28504207D01*
X62933330Y-28447575D01*
X63131639Y-28355102D01*
X63310877Y-28229598D01*
X63465598Y-28074877D01*
X63591102Y-27895639D01*
X63683575Y-27697330D01*
X63740207Y-27485977D01*
X63757166Y-27292131D01*
X63759277Y-27268002D01*
X63759277Y-27267997D01*
X63752771Y-27193633D01*
X63740207Y-27050023D01*
X63683575Y-26838670D01*
X63591102Y-26640362D01*
X63591100Y-26640359D01*
X63591099Y-26640357D01*
X63465599Y-26461124D01*
X63393161Y-26388686D01*
X63310877Y-26306402D01*
X63151095Y-26194521D01*
X63131638Y-26180897D01*
X63015051Y-26126532D01*
X62933330Y-26088425D01*
X62933326Y-26088424D01*
X62933322Y-26088422D01*
X62721977Y-26031793D01*
X62504002Y-26012723D01*
X62503998Y-26012723D01*
X62358682Y-26025436D01*
X62286023Y-26031793D01*
X62286020Y-26031793D01*
X62074677Y-26088422D01*
X62074668Y-26088426D01*
X61876361Y-26180898D01*
X61876357Y-26180900D01*
X61697121Y-26306402D01*
X61542402Y-26461121D01*
X61416900Y-26640357D01*
X61416898Y-26640361D01*
X61324426Y-26838668D01*
X61324422Y-26838677D01*
X61267793Y-27050020D01*
X61267793Y-27050024D01*
X61248723Y-27267997D01*
X61248723Y-27268002D01*
X57832521Y-27268002D01*
X57785759Y-27103649D01*
X57686635Y-26904580D01*
X57686630Y-26904572D01*
X57670860Y-26883690D01*
X57015553Y-27538999D01*
X57015553Y-27539000D01*
X57013200Y-27539000D01*
X57015628Y-27509698D01*
X56986953Y-27396462D01*
X56923064Y-27298673D01*
X56830885Y-27226928D01*
X56720405Y-27189000D01*
X56632995Y-27189000D01*
X56546784Y-27203386D01*
X56444053Y-27258981D01*
X56364940Y-27344921D01*
X56318018Y-27451892D01*
X56308372Y-27568302D01*
X56279145Y-27568302D01*
X56308447Y-27539000D01*
X55653138Y-26883691D01*
X55653137Y-26883691D01*
X55637368Y-26904574D01*
X55538240Y-27103649D01*
X55477378Y-27317560D01*
X55456859Y-27538999D01*
X55456859Y-27539000D01*
X37841590Y-27539000D01*
X33323413Y-23020822D01*
X33289928Y-22959499D01*
X33291319Y-22901048D01*
X33299236Y-22871500D01*
X33309635Y-22832692D01*
X33329468Y-22606000D01*
X33328143Y-22590860D01*
X33320029Y-22498112D01*
X33309635Y-22379308D01*
X33288391Y-22300023D01*
X33271851Y-22238293D01*
X33273514Y-22168443D01*
X33312677Y-22110581D01*
X33376906Y-22083077D01*
X33391626Y-22082200D01*
X35803161Y-22082200D01*
X35870200Y-22101885D01*
X35888045Y-22115808D01*
X35940339Y-22164915D01*
X35943136Y-22167626D01*
X35962629Y-22187119D01*
X35965796Y-22189576D01*
X35974675Y-22197160D01*
X36006515Y-22227060D01*
X36006517Y-22227061D01*
X36006518Y-22227062D01*
X36024076Y-22236714D01*
X36040335Y-22247395D01*
X36056164Y-22259673D01*
X36096247Y-22277018D01*
X36106733Y-22282155D01*
X36139237Y-22300024D01*
X36188501Y-22349568D01*
X36203500Y-22408677D01*
X36203500Y-22418865D01*
X36203501Y-22418876D01*
X36209908Y-22478483D01*
X36260202Y-22613328D01*
X36260206Y-22613335D01*
X36346452Y-22728544D01*
X36346455Y-22728547D01*
X36461664Y-22814793D01*
X36461671Y-22814797D01*
X36596517Y-22865091D01*
X36596516Y-22865091D01*
X36597642Y-22865212D01*
X36656127Y-22871500D01*
X37148592Y-22871499D01*
X37215629Y-22891183D01*
X37261384Y-22943987D01*
X37271328Y-23013146D01*
X37242303Y-23076702D01*
X37183525Y-23114476D01*
X37171375Y-23117388D01*
X37040703Y-23141815D01*
X36953747Y-23175502D01*
X36841192Y-23219106D01*
X36841186Y-23219108D01*
X36659286Y-23331736D01*
X36659283Y-23331738D01*
X36659279Y-23331740D01*
X36659278Y-23331742D01*
X36551843Y-23429682D01*
X36501158Y-23475887D01*
X36372219Y-23646629D01*
X36276849Y-23838158D01*
X36276846Y-23838164D01*
X36218296Y-24043949D01*
X36218295Y-24043952D01*
X36198554Y-24256999D01*
X36198554Y-24257000D01*
X36218295Y-24470047D01*
X36218296Y-24470050D01*
X36276846Y-24675835D01*
X36276849Y-24675841D01*
X36351515Y-24825791D01*
X36372219Y-24867370D01*
X36501159Y-25038114D01*
X36659278Y-25182258D01*
X36659283Y-25182261D01*
X36659286Y-25182263D01*
X36841186Y-25294891D01*
X36841187Y-25294891D01*
X36841190Y-25294893D01*
X37040703Y-25372185D01*
X37251020Y-25411500D01*
X37251022Y-25411500D01*
X37464978Y-25411500D01*
X37464980Y-25411500D01*
X37675297Y-25372185D01*
X37874810Y-25294893D01*
X38056722Y-25182258D01*
X38214841Y-25038114D01*
X38343781Y-24867370D01*
X38439151Y-24675840D01*
X38439151Y-24675837D01*
X38439153Y-24675835D01*
X38481079Y-24528478D01*
X38497704Y-24470048D01*
X38517446Y-24257000D01*
X38516997Y-24252159D01*
X38497704Y-24043952D01*
X38497703Y-24043949D01*
X38490334Y-24018051D01*
X38478838Y-23977644D01*
X38439153Y-23838164D01*
X38439150Y-23838158D01*
X38395677Y-23750852D01*
X38343781Y-23646630D01*
X38214841Y-23475886D01*
X38056722Y-23331742D01*
X38056716Y-23331738D01*
X38056713Y-23331736D01*
X37874813Y-23219108D01*
X37874807Y-23219106D01*
X37675297Y-23141815D01*
X37544622Y-23117387D01*
X37482342Y-23085720D01*
X37447069Y-23025407D01*
X37450003Y-22955599D01*
X37490212Y-22898459D01*
X37554930Y-22872128D01*
X37567401Y-22871499D01*
X38059872Y-22871499D01*
X38119483Y-22865091D01*
X38254331Y-22814796D01*
X38369546Y-22728546D01*
X38455796Y-22613331D01*
X38506091Y-22478483D01*
X38512500Y-22418873D01*
X38512499Y-21015128D01*
X38506091Y-20955517D01*
X38498769Y-20935887D01*
X38455797Y-20820671D01*
X38455793Y-20820664D01*
X38369547Y-20705455D01*
X38369544Y-20705452D01*
X38254335Y-20619206D01*
X38254328Y-20619202D01*
X38119482Y-20568908D01*
X38119483Y-20568908D01*
X38059883Y-20562501D01*
X38059881Y-20562500D01*
X38059873Y-20562500D01*
X38059865Y-20562500D01*
X37567409Y-20562500D01*
X37500370Y-20542815D01*
X37454615Y-20490011D01*
X37444671Y-20420853D01*
X37473696Y-20357297D01*
X37532474Y-20319523D01*
X37544605Y-20316615D01*
X37675297Y-20292185D01*
X37874810Y-20214893D01*
X38056722Y-20102258D01*
X38214841Y-19958114D01*
X38343781Y-19787370D01*
X38439151Y-19595840D01*
X38439151Y-19595837D01*
X38439153Y-19595835D01*
X38491061Y-19413395D01*
X38497704Y-19390048D01*
X38517446Y-19177000D01*
X38516997Y-19172159D01*
X38497704Y-18963952D01*
X38497703Y-18963949D01*
X38494119Y-18951354D01*
X38470820Y-18869465D01*
X38439153Y-18758164D01*
X38439150Y-18758158D01*
X38377935Y-18635221D01*
X38343781Y-18566630D01*
X38214841Y-18395886D01*
X38056722Y-18251742D01*
X38056716Y-18251738D01*
X38056713Y-18251736D01*
X37874813Y-18139108D01*
X37874807Y-18139106D01*
X37675297Y-18061815D01*
X37464980Y-18022500D01*
X37251020Y-18022500D01*
X37040703Y-18061815D01*
X36953747Y-18095502D01*
X36841192Y-18139106D01*
X36841186Y-18139108D01*
X36659286Y-18251736D01*
X36659283Y-18251738D01*
X36659279Y-18251740D01*
X36659278Y-18251742D01*
X36589544Y-18315313D01*
X36501158Y-18395887D01*
X36372219Y-18566629D01*
X36276849Y-18758158D01*
X36276846Y-18758164D01*
X36218296Y-18963949D01*
X36218295Y-18963952D01*
X36198554Y-19176999D01*
X36198554Y-19177000D01*
X36218295Y-19390047D01*
X36218296Y-19390050D01*
X36276846Y-19595835D01*
X36276849Y-19595841D01*
X36342231Y-19727145D01*
X36372219Y-19787370D01*
X36501159Y-19958114D01*
X36659278Y-20102258D01*
X36659283Y-20102261D01*
X36659286Y-20102263D01*
X36841186Y-20214891D01*
X36841187Y-20214891D01*
X36841190Y-20214893D01*
X37040703Y-20292185D01*
X37171379Y-20316612D01*
X37233657Y-20348279D01*
X37268930Y-20408591D01*
X37265996Y-20478399D01*
X37225788Y-20535540D01*
X37161069Y-20561871D01*
X37148591Y-20562500D01*
X36656129Y-20562500D01*
X36656123Y-20562501D01*
X36596516Y-20568908D01*
X36461671Y-20619202D01*
X36461664Y-20619206D01*
X36346455Y-20705452D01*
X36346452Y-20705455D01*
X36289517Y-20781511D01*
X36233583Y-20823382D01*
X36190251Y-20831200D01*
X36175784Y-20831200D01*
X36156386Y-20829673D01*
X36148962Y-20828497D01*
X36136605Y-20826540D01*
X36136604Y-20826540D01*
X36093125Y-20830650D01*
X36081456Y-20831200D01*
X31627843Y-20831200D01*
X31612222Y-20829475D01*
X31612195Y-20829761D01*
X31604433Y-20829026D01*
X31537213Y-20831139D01*
X31533319Y-20831200D01*
X31505750Y-20831200D01*
X31501773Y-20831702D01*
X31490142Y-20832617D01*
X31446474Y-20833989D01*
X31446468Y-20833990D01*
X31427226Y-20839580D01*
X31408187Y-20843523D01*
X31388317Y-20846034D01*
X31388303Y-20846037D01*
X31347698Y-20862113D01*
X31336654Y-20865894D01*
X31294714Y-20878079D01*
X31294710Y-20878081D01*
X31277466Y-20888279D01*
X31260005Y-20896833D01*
X31241367Y-20904213D01*
X31238032Y-20906047D01*
X31235111Y-20906690D01*
X31234119Y-20907084D01*
X31234055Y-20906923D01*
X31169801Y-20921090D01*
X31104268Y-20896857D01*
X31062240Y-20841041D01*
X31054300Y-20797382D01*
X31054300Y-18926828D01*
X31073985Y-18859789D01*
X31126789Y-18814034D01*
X31195947Y-18804090D01*
X31249421Y-18825252D01*
X31371266Y-18910568D01*
X31577504Y-19006739D01*
X31797308Y-19065635D01*
X31959230Y-19079801D01*
X32023998Y-19085468D01*
X32024000Y-19085468D01*
X32024002Y-19085468D01*
X32080673Y-19080509D01*
X32250692Y-19065635D01*
X32470496Y-19006739D01*
X32676734Y-18910568D01*
X32863139Y-18780047D01*
X33024047Y-18619139D01*
X33154568Y-18432734D01*
X33250739Y-18226496D01*
X33309635Y-18006692D01*
X33329468Y-17780000D01*
X33309635Y-17553308D01*
X33291318Y-17484948D01*
X33292981Y-17415103D01*
X33323410Y-17365179D01*
X37910320Y-12778269D01*
X37971641Y-12744786D01*
X38041333Y-12749770D01*
G37*
%TD.AperFunction*%
%TA.AperFunction,Conductor*%
G36*
X81561857Y-2019685D02*
G01*
X81607612Y-2072489D01*
X81617556Y-2141647D01*
X81588531Y-2205203D01*
X81565941Y-2225575D01*
X81456858Y-2301954D01*
X81295954Y-2462858D01*
X81165432Y-2649265D01*
X81165431Y-2649267D01*
X81069261Y-2855502D01*
X81069258Y-2855511D01*
X81010366Y-3075302D01*
X81010364Y-3075313D01*
X80990532Y-3301998D01*
X80990532Y-3302001D01*
X81010364Y-3528686D01*
X81010366Y-3528697D01*
X81069258Y-3748488D01*
X81069261Y-3748497D01*
X81165431Y-3954732D01*
X81165432Y-3954734D01*
X81295954Y-4141141D01*
X81456858Y-4302045D01*
X81456861Y-4302047D01*
X81643266Y-4432568D01*
X81701275Y-4459618D01*
X81753714Y-4505791D01*
X81772866Y-4572984D01*
X81752650Y-4639865D01*
X81701275Y-4684381D01*
X81684272Y-4692310D01*
X81643267Y-4711431D01*
X81643265Y-4711432D01*
X81456858Y-4841954D01*
X81295954Y-5002858D01*
X81165432Y-5189265D01*
X81165431Y-5189267D01*
X81069261Y-5395502D01*
X81069258Y-5395511D01*
X81010366Y-5615302D01*
X81010364Y-5615313D01*
X80990532Y-5841998D01*
X80990532Y-5842001D01*
X81010364Y-6068686D01*
X81010366Y-6068697D01*
X81069258Y-6288488D01*
X81069261Y-6288497D01*
X81165431Y-6494732D01*
X81165432Y-6494734D01*
X81295954Y-6681141D01*
X81456858Y-6842045D01*
X81456861Y-6842047D01*
X81643266Y-6972568D01*
X81701275Y-6999618D01*
X81753714Y-7045791D01*
X81772866Y-7112984D01*
X81752650Y-7179865D01*
X81701275Y-7224381D01*
X81684272Y-7232310D01*
X81643267Y-7251431D01*
X81643265Y-7251432D01*
X81456858Y-7381954D01*
X81295954Y-7542858D01*
X81165432Y-7729265D01*
X81165431Y-7729267D01*
X81069261Y-7935502D01*
X81069258Y-7935511D01*
X81010366Y-8155302D01*
X81010364Y-8155313D01*
X80990532Y-8381998D01*
X80990532Y-8382001D01*
X81010364Y-8608686D01*
X81010366Y-8608697D01*
X81069258Y-8828488D01*
X81069261Y-8828497D01*
X81165431Y-9034732D01*
X81165432Y-9034734D01*
X81295954Y-9221141D01*
X81456858Y-9382045D01*
X81456861Y-9382047D01*
X81643266Y-9512568D01*
X81698294Y-9538228D01*
X81701275Y-9539618D01*
X81753714Y-9585791D01*
X81772866Y-9652984D01*
X81752650Y-9719865D01*
X81701275Y-9764382D01*
X81643267Y-9791431D01*
X81643265Y-9791432D01*
X81456858Y-9921954D01*
X81295954Y-10082858D01*
X81165432Y-10269265D01*
X81165431Y-10269267D01*
X81069261Y-10475502D01*
X81069258Y-10475511D01*
X81010366Y-10695302D01*
X81010364Y-10695313D01*
X80990532Y-10921998D01*
X80990532Y-10922001D01*
X81010364Y-11148686D01*
X81010366Y-11148697D01*
X81069258Y-11368488D01*
X81069261Y-11368497D01*
X81165431Y-11574732D01*
X81165432Y-11574734D01*
X81295954Y-11761141D01*
X81456858Y-11922045D01*
X81456861Y-11922047D01*
X81643266Y-12052568D01*
X81701275Y-12079618D01*
X81753714Y-12125791D01*
X81772866Y-12192984D01*
X81752650Y-12259865D01*
X81701275Y-12304381D01*
X81685671Y-12311658D01*
X81643267Y-12331431D01*
X81643265Y-12331432D01*
X81456858Y-12461954D01*
X81295954Y-12622858D01*
X81165432Y-12809265D01*
X81165431Y-12809267D01*
X81069261Y-13015502D01*
X81069258Y-13015511D01*
X81010366Y-13235302D01*
X81010364Y-13235313D01*
X80990532Y-13461998D01*
X80990532Y-13462001D01*
X81010364Y-13688686D01*
X81010366Y-13688697D01*
X81069258Y-13908488D01*
X81069261Y-13908497D01*
X81165431Y-14114732D01*
X81165432Y-14114734D01*
X81295954Y-14301141D01*
X81456858Y-14462045D01*
X81503693Y-14494839D01*
X81643266Y-14592568D01*
X81696585Y-14617431D01*
X81701275Y-14619618D01*
X81753714Y-14665791D01*
X81772866Y-14732984D01*
X81752650Y-14799865D01*
X81701275Y-14844382D01*
X81643267Y-14871431D01*
X81643265Y-14871432D01*
X81456858Y-15001954D01*
X81295954Y-15162858D01*
X81165432Y-15349265D01*
X81165431Y-15349267D01*
X81069261Y-15555502D01*
X81069258Y-15555511D01*
X81010366Y-15775302D01*
X81010364Y-15775313D01*
X80990532Y-16001998D01*
X80990532Y-16002001D01*
X81010364Y-16228686D01*
X81010366Y-16228697D01*
X81069258Y-16448488D01*
X81069261Y-16448497D01*
X81165431Y-16654732D01*
X81165432Y-16654734D01*
X81295954Y-16841141D01*
X81456858Y-17002045D01*
X81501971Y-17033633D01*
X81643266Y-17132568D01*
X81701275Y-17159618D01*
X81753714Y-17205791D01*
X81772866Y-17272984D01*
X81752650Y-17339865D01*
X81701275Y-17384382D01*
X81643267Y-17411431D01*
X81643265Y-17411432D01*
X81456858Y-17541954D01*
X81295954Y-17702858D01*
X81165432Y-17889265D01*
X81165431Y-17889267D01*
X81069261Y-18095502D01*
X81069258Y-18095511D01*
X81010366Y-18315302D01*
X81010364Y-18315313D01*
X80990532Y-18541998D01*
X80990532Y-18542001D01*
X81010364Y-18768686D01*
X81010366Y-18768697D01*
X81069258Y-18988488D01*
X81069261Y-18988497D01*
X81165431Y-19194732D01*
X81165432Y-19194734D01*
X81295954Y-19381141D01*
X81456858Y-19542045D01*
X81456861Y-19542047D01*
X81643266Y-19672568D01*
X81701275Y-19699618D01*
X81753714Y-19745791D01*
X81772866Y-19812984D01*
X81752650Y-19879865D01*
X81701275Y-19924381D01*
X81684272Y-19932310D01*
X81643267Y-19951431D01*
X81643265Y-19951432D01*
X81456858Y-20081954D01*
X81295954Y-20242858D01*
X81165432Y-20429265D01*
X81165431Y-20429267D01*
X81069261Y-20635502D01*
X81069258Y-20635511D01*
X81010366Y-20855302D01*
X81010364Y-20855313D01*
X80990532Y-21081998D01*
X80990532Y-21082001D01*
X81010364Y-21308686D01*
X81010366Y-21308697D01*
X81069258Y-21528488D01*
X81069261Y-21528497D01*
X81165431Y-21734732D01*
X81165432Y-21734734D01*
X81295954Y-21921141D01*
X81456858Y-22082045D01*
X81458332Y-22083077D01*
X81643266Y-22212568D01*
X81701275Y-22239618D01*
X81753714Y-22285791D01*
X81772866Y-22352984D01*
X81752650Y-22419865D01*
X81701275Y-22464382D01*
X81643267Y-22491431D01*
X81643265Y-22491432D01*
X81456858Y-22621954D01*
X81295954Y-22782858D01*
X81165432Y-22969265D01*
X81165431Y-22969267D01*
X81069261Y-23175502D01*
X81069258Y-23175511D01*
X81010366Y-23395302D01*
X81010364Y-23395313D01*
X80990532Y-23621998D01*
X80990532Y-23622001D01*
X81010364Y-23848686D01*
X81010366Y-23848697D01*
X81069258Y-24068488D01*
X81069261Y-24068497D01*
X81165431Y-24274732D01*
X81165432Y-24274734D01*
X81295954Y-24461141D01*
X81456858Y-24622045D01*
X81482289Y-24639852D01*
X81643266Y-24752568D01*
X81701865Y-24779893D01*
X81754305Y-24826065D01*
X81773457Y-24893258D01*
X81753242Y-24960139D01*
X81701867Y-25004657D01*
X81643515Y-25031867D01*
X81457179Y-25162342D01*
X81296342Y-25323179D01*
X81165865Y-25509517D01*
X81069734Y-25715673D01*
X81069730Y-25715682D01*
X81017127Y-25911999D01*
X81017128Y-25912000D01*
X81980314Y-25912000D01*
X81968359Y-25923955D01*
X81910835Y-26036852D01*
X81891014Y-26162000D01*
X81910835Y-26287148D01*
X81968359Y-26400045D01*
X81980314Y-26412000D01*
X81017128Y-26412000D01*
X81069730Y-26608317D01*
X81069734Y-26608326D01*
X81165865Y-26814482D01*
X81296342Y-27000820D01*
X81457179Y-27161657D01*
X81643518Y-27292134D01*
X81643520Y-27292135D01*
X81701865Y-27319342D01*
X81754305Y-27365514D01*
X81773457Y-27432707D01*
X81753242Y-27499589D01*
X81701867Y-27544105D01*
X81700685Y-27544657D01*
X81643264Y-27571433D01*
X81456858Y-27701954D01*
X81295954Y-27862858D01*
X81165432Y-28049265D01*
X81165431Y-28049267D01*
X81069261Y-28255502D01*
X81069258Y-28255511D01*
X81010366Y-28475302D01*
X81010364Y-28475313D01*
X80990532Y-28701998D01*
X80990532Y-28702001D01*
X81010364Y-28928686D01*
X81010366Y-28928697D01*
X81069258Y-29148488D01*
X81069260Y-29148492D01*
X81069261Y-29148496D01*
X81079333Y-29170095D01*
X81089825Y-29239173D01*
X81061305Y-29302957D01*
X81002829Y-29341196D01*
X80966951Y-29346500D01*
X68384497Y-29346500D01*
X68317458Y-29326815D01*
X68271703Y-29274011D01*
X68261759Y-29204853D01*
X68272115Y-29170094D01*
X68282267Y-29148321D01*
X68282269Y-29148317D01*
X68334872Y-28952000D01*
X67371686Y-28952000D01*
X67383641Y-28940045D01*
X67441165Y-28827148D01*
X67460986Y-28702000D01*
X67441165Y-28576852D01*
X67383641Y-28463955D01*
X67371686Y-28452000D01*
X68334872Y-28452000D01*
X68334872Y-28451999D01*
X68282269Y-28255682D01*
X68282265Y-28255673D01*
X68186134Y-28049517D01*
X68055657Y-27863179D01*
X67894820Y-27702342D01*
X67708482Y-27571865D01*
X67650133Y-27544657D01*
X67597694Y-27498484D01*
X67578542Y-27431291D01*
X67598758Y-27364410D01*
X67650129Y-27319895D01*
X67708734Y-27292568D01*
X67895139Y-27162047D01*
X68056047Y-27001139D01*
X68186568Y-26814734D01*
X68282739Y-26608496D01*
X68341635Y-26388692D01*
X68360201Y-26176484D01*
X68361468Y-26162001D01*
X68361468Y-26161998D01*
X68353863Y-26075076D01*
X68341635Y-25935308D01*
X68282739Y-25715504D01*
X68186568Y-25509266D01*
X68056047Y-25322861D01*
X68056045Y-25322858D01*
X67895141Y-25161954D01*
X67708734Y-25031432D01*
X67708728Y-25031429D01*
X67681038Y-25018517D01*
X67650724Y-25004381D01*
X67598285Y-24958210D01*
X67579133Y-24891017D01*
X67599348Y-24824135D01*
X67650725Y-24779618D01*
X67655415Y-24777431D01*
X67708734Y-24752568D01*
X67895139Y-24622047D01*
X68056047Y-24461139D01*
X68186568Y-24274734D01*
X68282739Y-24068496D01*
X68341635Y-23848692D01*
X68361468Y-23622000D01*
X68360195Y-23607455D01*
X68352649Y-23521202D01*
X68341635Y-23395308D01*
X68282739Y-23175504D01*
X68186568Y-22969266D01*
X68056047Y-22782861D01*
X68056045Y-22782858D01*
X67895141Y-22621954D01*
X67708734Y-22491432D01*
X67708728Y-22491429D01*
X67650725Y-22464382D01*
X67598285Y-22418210D01*
X67579133Y-22351017D01*
X67599348Y-22284135D01*
X67650725Y-22239618D01*
X67708734Y-22212568D01*
X67895139Y-22082047D01*
X68056047Y-21921139D01*
X68186568Y-21734734D01*
X68282739Y-21528496D01*
X68341635Y-21308692D01*
X68361468Y-21082000D01*
X68341635Y-20855308D01*
X68282739Y-20635504D01*
X68186568Y-20429266D01*
X68056047Y-20242861D01*
X68056045Y-20242858D01*
X67895141Y-20081954D01*
X67708734Y-19951432D01*
X67708728Y-19951429D01*
X67681038Y-19938517D01*
X67650724Y-19924381D01*
X67598285Y-19878210D01*
X67579133Y-19811017D01*
X67599348Y-19744135D01*
X67650725Y-19699618D01*
X67708734Y-19672568D01*
X67895139Y-19542047D01*
X68056047Y-19381139D01*
X68186568Y-19194734D01*
X68282739Y-18988496D01*
X68341635Y-18768692D01*
X68361468Y-18542000D01*
X68359563Y-18520231D01*
X68348685Y-18395887D01*
X68341635Y-18315308D01*
X68282739Y-18095504D01*
X68186568Y-17889266D01*
X68056047Y-17702861D01*
X68056045Y-17702858D01*
X67895141Y-17541954D01*
X67708734Y-17411432D01*
X67708728Y-17411429D01*
X67650725Y-17384382D01*
X67598285Y-17338210D01*
X67579133Y-17271017D01*
X67599348Y-17204135D01*
X67650725Y-17159618D01*
X67708734Y-17132568D01*
X67895139Y-17002047D01*
X68056047Y-16841139D01*
X68186568Y-16654734D01*
X68282739Y-16448496D01*
X68341635Y-16228692D01*
X68361468Y-16002000D01*
X68341635Y-15775308D01*
X68282739Y-15555504D01*
X68186568Y-15349266D01*
X68056047Y-15162861D01*
X68056045Y-15162858D01*
X67895141Y-15001954D01*
X67708734Y-14871432D01*
X67708728Y-14871429D01*
X67650725Y-14844382D01*
X67598285Y-14798210D01*
X67579133Y-14731017D01*
X67599348Y-14664135D01*
X67650725Y-14619618D01*
X67655415Y-14617431D01*
X67708734Y-14592568D01*
X67895139Y-14462047D01*
X68056047Y-14301139D01*
X68186568Y-14114734D01*
X68282739Y-13908496D01*
X68341635Y-13688692D01*
X68361468Y-13462000D01*
X68341635Y-13235308D01*
X68282739Y-13015504D01*
X68186568Y-12809266D01*
X68056047Y-12622861D01*
X68056045Y-12622858D01*
X67895141Y-12461954D01*
X67708734Y-12331432D01*
X67708728Y-12331429D01*
X67666329Y-12311658D01*
X67650724Y-12304381D01*
X67598285Y-12258210D01*
X67579133Y-12191017D01*
X67599348Y-12124135D01*
X67650725Y-12079618D01*
X67708734Y-12052568D01*
X67895139Y-11922047D01*
X68056047Y-11761139D01*
X68186568Y-11574734D01*
X68282739Y-11368496D01*
X68341635Y-11148692D01*
X68361468Y-10922000D01*
X68341635Y-10695308D01*
X68282739Y-10475504D01*
X68186568Y-10269266D01*
X68056047Y-10082861D01*
X68056045Y-10082858D01*
X67895141Y-9921954D01*
X67708734Y-9791432D01*
X67708728Y-9791429D01*
X67650725Y-9764382D01*
X67598285Y-9718210D01*
X67579133Y-9651017D01*
X67599348Y-9584135D01*
X67650725Y-9539618D01*
X67653706Y-9538228D01*
X67708734Y-9512568D01*
X67895139Y-9382047D01*
X68056047Y-9221139D01*
X68186568Y-9034734D01*
X68282739Y-8828496D01*
X68341635Y-8608692D01*
X68361468Y-8382000D01*
X68341635Y-8155308D01*
X68282739Y-7935504D01*
X68186568Y-7729266D01*
X68056047Y-7542861D01*
X68056045Y-7542858D01*
X67895141Y-7381954D01*
X67708734Y-7251432D01*
X67708728Y-7251429D01*
X67681038Y-7238517D01*
X67650724Y-7224381D01*
X67598285Y-7178210D01*
X67579133Y-7111017D01*
X67599348Y-7044135D01*
X67650725Y-6999618D01*
X67708734Y-6972568D01*
X67895139Y-6842047D01*
X68056047Y-6681139D01*
X68186568Y-6494734D01*
X68282739Y-6288496D01*
X68341635Y-6068692D01*
X68361468Y-5842000D01*
X68361045Y-5837170D01*
X68354332Y-5760437D01*
X68341635Y-5615308D01*
X68282739Y-5395504D01*
X68186568Y-5189266D01*
X68056047Y-5002861D01*
X68056045Y-5002858D01*
X67895143Y-4841956D01*
X67870536Y-4824726D01*
X67826912Y-4770149D01*
X67819719Y-4700650D01*
X67851241Y-4638296D01*
X67911471Y-4602882D01*
X67928404Y-4599861D01*
X67963483Y-4596091D01*
X68098331Y-4545796D01*
X68213546Y-4459546D01*
X68299796Y-4344331D01*
X68350091Y-4209483D01*
X68356500Y-4149873D01*
X68356499Y-2454128D01*
X68350091Y-2394517D01*
X68331442Y-2344517D01*
X68299797Y-2259671D01*
X68299793Y-2259664D01*
X68253864Y-2198311D01*
X68229446Y-2132847D01*
X68244297Y-2064574D01*
X68293702Y-2015168D01*
X68353130Y-2000000D01*
X81494818Y-2000000D01*
X81561857Y-2019685D01*
G37*
%TD.AperFunction*%
%TA.AperFunction,Conductor*%
G36*
X44566887Y-4619344D02*
G01*
X44586704Y-4635444D01*
X47589741Y-7638481D01*
X47623226Y-7699804D01*
X47618242Y-7769496D01*
X47614442Y-7778567D01*
X47541262Y-7935502D01*
X47541258Y-7935511D01*
X47482366Y-8155302D01*
X47482364Y-8155313D01*
X47462532Y-8381998D01*
X47462532Y-8382001D01*
X47482364Y-8608686D01*
X47482366Y-8608697D01*
X47541258Y-8828488D01*
X47541261Y-8828497D01*
X47637431Y-9034732D01*
X47637432Y-9034734D01*
X47767954Y-9221141D01*
X47928858Y-9382045D01*
X47928861Y-9382047D01*
X48115266Y-9512568D01*
X48173865Y-9539893D01*
X48226305Y-9586065D01*
X48245457Y-9653258D01*
X48225242Y-9720139D01*
X48173867Y-9764657D01*
X48115515Y-9791867D01*
X47929179Y-9922342D01*
X47768342Y-10083179D01*
X47637865Y-10269517D01*
X47541734Y-10475673D01*
X47541730Y-10475682D01*
X47489127Y-10671999D01*
X47489128Y-10672000D01*
X48452314Y-10672000D01*
X48440359Y-10683955D01*
X48382835Y-10796852D01*
X48363014Y-10922000D01*
X48382835Y-11047148D01*
X48440359Y-11160045D01*
X48452314Y-11172000D01*
X47489128Y-11172000D01*
X47541730Y-11368317D01*
X47541734Y-11368326D01*
X47637865Y-11574482D01*
X47768342Y-11760820D01*
X47929179Y-11921657D01*
X48115517Y-12052134D01*
X48321673Y-12148265D01*
X48321682Y-12148269D01*
X48517999Y-12200872D01*
X48518000Y-12200871D01*
X48518000Y-11237686D01*
X48529955Y-11249641D01*
X48642852Y-11307165D01*
X48736519Y-11322000D01*
X48799481Y-11322000D01*
X48893148Y-11307165D01*
X49006045Y-11249641D01*
X49018000Y-11237686D01*
X49018000Y-12200872D01*
X49214317Y-12148269D01*
X49214326Y-12148265D01*
X49420482Y-12052134D01*
X49606820Y-11921657D01*
X49767657Y-11760820D01*
X49898134Y-11574482D01*
X49994265Y-11368326D01*
X49994269Y-11368317D01*
X50046872Y-11172000D01*
X49083686Y-11172000D01*
X49095641Y-11160045D01*
X49153165Y-11047148D01*
X49172986Y-10922000D01*
X49153165Y-10796852D01*
X49095641Y-10683955D01*
X49083686Y-10672000D01*
X50046872Y-10672000D01*
X50046872Y-10671999D01*
X49994269Y-10475682D01*
X49994265Y-10475673D01*
X49898134Y-10269517D01*
X49767657Y-10083179D01*
X49606820Y-9922342D01*
X49420482Y-9791865D01*
X49362133Y-9764657D01*
X49309694Y-9718484D01*
X49290542Y-9651291D01*
X49310758Y-9584410D01*
X49362129Y-9539895D01*
X49420734Y-9512568D01*
X49607139Y-9382047D01*
X49768047Y-9221139D01*
X49898568Y-9034734D01*
X49994739Y-8828496D01*
X50053635Y-8608692D01*
X50073468Y-8382000D01*
X50053635Y-8155308D01*
X49994739Y-7935504D01*
X49898568Y-7729266D01*
X49802893Y-7592627D01*
X49766731Y-7540981D01*
X49744404Y-7474775D01*
X49761415Y-7407007D01*
X49812363Y-7359195D01*
X49881073Y-7346517D01*
X49945729Y-7372999D01*
X49955986Y-7382176D01*
X55754495Y-13180686D01*
X61499597Y-18925788D01*
X61509422Y-18938051D01*
X61509643Y-18937869D01*
X61514611Y-18943874D01*
X61514613Y-18943876D01*
X61514614Y-18943877D01*
X61538215Y-18966040D01*
X61563622Y-18989899D01*
X61566421Y-18992612D01*
X61585922Y-19012114D01*
X61585926Y-19012117D01*
X61585929Y-19012120D01*
X61589102Y-19014581D01*
X61597974Y-19022159D01*
X61629818Y-19052062D01*
X61647376Y-19061714D01*
X61663633Y-19072393D01*
X61679464Y-19084673D01*
X61709203Y-19097542D01*
X61719552Y-19102021D01*
X61730041Y-19107160D01*
X61753857Y-19120252D01*
X61768308Y-19128197D01*
X61780923Y-19131435D01*
X61787705Y-19133177D01*
X61806119Y-19139481D01*
X61824504Y-19147438D01*
X61867661Y-19154273D01*
X61879056Y-19156632D01*
X61921381Y-19167500D01*
X61941416Y-19167500D01*
X61960813Y-19169026D01*
X61980596Y-19172160D01*
X62024075Y-19168050D01*
X62035744Y-19167500D01*
X62224773Y-19167500D01*
X62291812Y-19187185D01*
X62326348Y-19220377D01*
X62461501Y-19413396D01*
X62461506Y-19413402D01*
X62628597Y-19580493D01*
X62628603Y-19580498D01*
X62814158Y-19710425D01*
X62857783Y-19765002D01*
X62864977Y-19834500D01*
X62833454Y-19896855D01*
X62814158Y-19913575D01*
X62628597Y-20043505D01*
X62461505Y-20210597D01*
X62325965Y-20404169D01*
X62325964Y-20404171D01*
X62226098Y-20618335D01*
X62226094Y-20618344D01*
X62164938Y-20846586D01*
X62164936Y-20846596D01*
X62144341Y-21081999D01*
X62144341Y-21082000D01*
X62164936Y-21317403D01*
X62164938Y-21317413D01*
X62226094Y-21545655D01*
X62226096Y-21545659D01*
X62226097Y-21545663D01*
X62305993Y-21716999D01*
X62325965Y-21759830D01*
X62325967Y-21759834D01*
X62434281Y-21914521D01*
X62461505Y-21953401D01*
X62628599Y-22120495D01*
X62705602Y-22174413D01*
X62822165Y-22256032D01*
X62822167Y-22256033D01*
X62822170Y-22256035D01*
X63036337Y-22355903D01*
X63264592Y-22417063D01*
X63452918Y-22433539D01*
X63499999Y-22437659D01*
X63500000Y-22437659D01*
X63500001Y-22437659D01*
X63539234Y-22434226D01*
X63735408Y-22417063D01*
X63963663Y-22355903D01*
X64177830Y-22256035D01*
X64371401Y-22120495D01*
X64538495Y-21953401D01*
X64674035Y-21759830D01*
X64773903Y-21545663D01*
X64835063Y-21317408D01*
X64855659Y-21082000D01*
X64835063Y-20846592D01*
X64773903Y-20618337D01*
X64674035Y-20404171D01*
X64634900Y-20348279D01*
X64538494Y-20210597D01*
X64371402Y-20043506D01*
X64371396Y-20043501D01*
X64185842Y-19913575D01*
X64142217Y-19858998D01*
X64135023Y-19789500D01*
X64166546Y-19727145D01*
X64185842Y-19710425D01*
X64250383Y-19665233D01*
X64371401Y-19580495D01*
X64538495Y-19413401D01*
X64674035Y-19219830D01*
X64674043Y-19219812D01*
X64675108Y-19217970D01*
X64675799Y-19217310D01*
X64677140Y-19215396D01*
X64677524Y-19215665D01*
X64725671Y-19169751D01*
X64794277Y-19156523D01*
X64859144Y-19182485D01*
X64899677Y-19239396D01*
X64906500Y-19279962D01*
X64906500Y-19455255D01*
X64904775Y-19470872D01*
X64905061Y-19470899D01*
X64904326Y-19478665D01*
X64906439Y-19545872D01*
X64906500Y-19549767D01*
X64906500Y-19577357D01*
X64907003Y-19581335D01*
X64907918Y-19592967D01*
X64909290Y-19636624D01*
X64909291Y-19636627D01*
X64914880Y-19655867D01*
X64918824Y-19674911D01*
X64921336Y-19694792D01*
X64937414Y-19735403D01*
X64941197Y-19746452D01*
X64953085Y-19787370D01*
X64953382Y-19788390D01*
X64954038Y-19789500D01*
X64963580Y-19805634D01*
X64972136Y-19823100D01*
X64979514Y-19841732D01*
X65005181Y-19877060D01*
X65011593Y-19886821D01*
X65033828Y-19924417D01*
X65033833Y-19924424D01*
X65047990Y-19938580D01*
X65060628Y-19953376D01*
X65072405Y-19969586D01*
X65072406Y-19969587D01*
X65106057Y-19997425D01*
X65114698Y-20005288D01*
X65760813Y-20651403D01*
X65794298Y-20712726D01*
X65792907Y-20771176D01*
X65770367Y-20855299D01*
X65770364Y-20855313D01*
X65750532Y-21081998D01*
X65750532Y-21082001D01*
X65770364Y-21308686D01*
X65770366Y-21308697D01*
X65829258Y-21528488D01*
X65829261Y-21528497D01*
X65925431Y-21734732D01*
X65925432Y-21734734D01*
X66055954Y-21921141D01*
X66216858Y-22082045D01*
X66218332Y-22083077D01*
X66403266Y-22212568D01*
X66461275Y-22239618D01*
X66513714Y-22285791D01*
X66532866Y-22352984D01*
X66512650Y-22419865D01*
X66461275Y-22464382D01*
X66403267Y-22491431D01*
X66403265Y-22491432D01*
X66216858Y-22621954D01*
X66055954Y-22782858D01*
X65943387Y-22943623D01*
X65888811Y-22987248D01*
X65841812Y-22996500D01*
X52339110Y-22996500D01*
X52272071Y-22976815D01*
X52226316Y-22924011D01*
X52216372Y-22854853D01*
X52245397Y-22791297D01*
X52294317Y-22756873D01*
X52300582Y-22754445D01*
X52300589Y-22754442D01*
X52403911Y-22690466D01*
X52403911Y-22690465D01*
X51828401Y-22114953D01*
X51909148Y-22102165D01*
X52022045Y-22044641D01*
X52111641Y-21955045D01*
X52169165Y-21842148D01*
X52181953Y-21761400D01*
X52760018Y-22339464D01*
X52760019Y-22339464D01*
X52769352Y-22327107D01*
X52769355Y-22327102D01*
X52864678Y-22135669D01*
X52864684Y-22135654D01*
X52923210Y-21929956D01*
X52923211Y-21929954D01*
X52942944Y-21717000D01*
X52942944Y-21716999D01*
X52923211Y-21504045D01*
X52923210Y-21504043D01*
X52864684Y-21298345D01*
X52864678Y-21298330D01*
X52769357Y-21106901D01*
X52769355Y-21106898D01*
X52760018Y-21094534D01*
X52181953Y-21672599D01*
X52169165Y-21591852D01*
X52111641Y-21478955D01*
X52022045Y-21389359D01*
X51909148Y-21331835D01*
X51828400Y-21319046D01*
X52403912Y-20743533D01*
X52300586Y-20679556D01*
X52300585Y-20679555D01*
X52101162Y-20602299D01*
X51890932Y-20563000D01*
X51677068Y-20563000D01*
X51466837Y-20602299D01*
X51267416Y-20679554D01*
X51267410Y-20679557D01*
X51164087Y-20743532D01*
X51164086Y-20743533D01*
X51739600Y-21319046D01*
X51658852Y-21331835D01*
X51545955Y-21389359D01*
X51456359Y-21478955D01*
X51398835Y-21591852D01*
X51386046Y-21672599D01*
X50807980Y-21094533D01*
X50798646Y-21106893D01*
X50703321Y-21298330D01*
X50703315Y-21298345D01*
X50644789Y-21504043D01*
X50644788Y-21504045D01*
X50625056Y-21716999D01*
X50625056Y-21717000D01*
X50644788Y-21929954D01*
X50644789Y-21929956D01*
X50703315Y-22135654D01*
X50703321Y-22135669D01*
X50798642Y-22327099D01*
X50798647Y-22327107D01*
X50807980Y-22339465D01*
X51386046Y-21761399D01*
X51398835Y-21842148D01*
X51456359Y-21955045D01*
X51545955Y-22044641D01*
X51658852Y-22102165D01*
X51739599Y-22114953D01*
X51164086Y-22690465D01*
X51267413Y-22754443D01*
X51267417Y-22754445D01*
X51273683Y-22756873D01*
X51329085Y-22799446D01*
X51352676Y-22865212D01*
X51336965Y-22933293D01*
X51286941Y-22982072D01*
X51228890Y-22996500D01*
X50124453Y-22996500D01*
X50057414Y-22976815D01*
X50036772Y-22960181D01*
X38659819Y-11583228D01*
X38626334Y-11521905D01*
X38623500Y-11495547D01*
X38623500Y-7928996D01*
X38643185Y-7861957D01*
X38695095Y-7816614D01*
X38777830Y-7778035D01*
X38971401Y-7642495D01*
X39138495Y-7475401D01*
X39268425Y-7289842D01*
X39323002Y-7246217D01*
X39392500Y-7239023D01*
X39454855Y-7270546D01*
X39471575Y-7289842D01*
X39601500Y-7475395D01*
X39601505Y-7475401D01*
X39768599Y-7642495D01*
X39856679Y-7704169D01*
X39962165Y-7778032D01*
X39962167Y-7778033D01*
X39962170Y-7778035D01*
X40176337Y-7877903D01*
X40404592Y-7939063D01*
X40581034Y-7954500D01*
X40639999Y-7959659D01*
X40640000Y-7959659D01*
X40640001Y-7959659D01*
X40698966Y-7954500D01*
X40875408Y-7939063D01*
X41103663Y-7877903D01*
X41317830Y-7778035D01*
X41511401Y-7642495D01*
X41678495Y-7475401D01*
X41808425Y-7289842D01*
X41863002Y-7246217D01*
X41932500Y-7239023D01*
X41994855Y-7270546D01*
X42011575Y-7289842D01*
X42141500Y-7475395D01*
X42141505Y-7475401D01*
X42308599Y-7642495D01*
X42396679Y-7704169D01*
X42502165Y-7778032D01*
X42502167Y-7778033D01*
X42502170Y-7778035D01*
X42716337Y-7877903D01*
X42944592Y-7939063D01*
X43121034Y-7954500D01*
X43179999Y-7959659D01*
X43180000Y-7959659D01*
X43180001Y-7959659D01*
X43238966Y-7954500D01*
X43415408Y-7939063D01*
X43643663Y-7877903D01*
X43857830Y-7778035D01*
X44051401Y-7642495D01*
X44218495Y-7475401D01*
X44354035Y-7281830D01*
X44453903Y-7067663D01*
X44515063Y-6839408D01*
X44535659Y-6604000D01*
X44515063Y-6368592D01*
X44453903Y-6140337D01*
X44354035Y-5926171D01*
X44348425Y-5918158D01*
X44218494Y-5732597D01*
X44051402Y-5565506D01*
X44051401Y-5565505D01*
X43865405Y-5435269D01*
X43821781Y-5380692D01*
X43814588Y-5311193D01*
X43846110Y-5248839D01*
X43865405Y-5232119D01*
X44051082Y-5102105D01*
X44218105Y-4935082D01*
X44353598Y-4741580D01*
X44386640Y-4670721D01*
X44432812Y-4618282D01*
X44500006Y-4599129D01*
X44566887Y-4619344D01*
G37*
%TD.AperFunction*%
%TA.AperFunction,Conductor*%
G36*
X21638507Y-3854156D02*
G01*
X21598000Y-3992111D01*
X21598000Y-4135889D01*
X21638507Y-4273844D01*
X21664314Y-4314000D01*
X19991686Y-4314000D01*
X20017493Y-4273844D01*
X20058000Y-4135889D01*
X20058000Y-3992111D01*
X20017493Y-3854156D01*
X19991686Y-3814000D01*
X21664314Y-3814000D01*
X21638507Y-3854156D01*
G37*
%TD.AperFunction*%
%TA.AperFunction,Conductor*%
G36*
X24178507Y-3854156D02*
G01*
X24138000Y-3992111D01*
X24138000Y-4135889D01*
X24178507Y-4273844D01*
X24204314Y-4314000D01*
X22531686Y-4314000D01*
X22557493Y-4273844D01*
X22598000Y-4135889D01*
X22598000Y-3992111D01*
X22557493Y-3854156D01*
X22531686Y-3814000D01*
X24204314Y-3814000D01*
X24178507Y-3854156D01*
G37*
%TD.AperFunction*%
%TA.AperFunction,Conductor*%
G36*
X25225539Y-3833685D02*
G01*
X25271294Y-3886489D01*
X25282500Y-3938000D01*
X25282500Y-4190000D01*
X25262815Y-4257039D01*
X25210011Y-4302794D01*
X25158500Y-4314000D01*
X25071686Y-4314000D01*
X25097493Y-4273844D01*
X25138000Y-4135889D01*
X25138000Y-3992111D01*
X25097493Y-3854156D01*
X25071686Y-3814000D01*
X25158500Y-3814000D01*
X25225539Y-3833685D01*
G37*
%TD.AperFunction*%
%TA.AperFunction,Conductor*%
G36*
X26718507Y-3854156D02*
G01*
X26678000Y-3992111D01*
X26678000Y-4135889D01*
X26718507Y-4273844D01*
X26744314Y-4314000D01*
X26657500Y-4314000D01*
X26590461Y-4294315D01*
X26544706Y-4241511D01*
X26533500Y-4190000D01*
X26533500Y-3938000D01*
X26553185Y-3870961D01*
X26605989Y-3825206D01*
X26657500Y-3814000D01*
X26744314Y-3814000D01*
X26718507Y-3854156D01*
G37*
%TD.AperFunction*%
%TA.AperFunction,Conductor*%
G36*
X37640507Y-3854156D02*
G01*
X37600000Y-3992111D01*
X37600000Y-4135889D01*
X37640507Y-4273844D01*
X37666314Y-4314000D01*
X35993686Y-4314000D01*
X36019493Y-4273844D01*
X36060000Y-4135889D01*
X36060000Y-3992111D01*
X36019493Y-3854156D01*
X35993686Y-3814000D01*
X37666314Y-3814000D01*
X37640507Y-3854156D01*
G37*
%TD.AperFunction*%
%TA.AperFunction,Conductor*%
G36*
X40180507Y-3854156D02*
G01*
X40140000Y-3992111D01*
X40140000Y-4135889D01*
X40180507Y-4273844D01*
X40206314Y-4314000D01*
X38533686Y-4314000D01*
X38559493Y-4273844D01*
X38600000Y-4135889D01*
X38600000Y-3992111D01*
X38559493Y-3854156D01*
X38533686Y-3814000D01*
X40206314Y-3814000D01*
X40180507Y-3854156D01*
G37*
%TD.AperFunction*%
%TA.AperFunction,Conductor*%
G36*
X41227539Y-3833685D02*
G01*
X41273294Y-3886489D01*
X41284500Y-3938000D01*
X41284500Y-4190000D01*
X41264815Y-4257039D01*
X41212011Y-4302794D01*
X41160500Y-4314000D01*
X41073686Y-4314000D01*
X41099493Y-4273844D01*
X41140000Y-4135889D01*
X41140000Y-3992111D01*
X41099493Y-3854156D01*
X41073686Y-3814000D01*
X41160500Y-3814000D01*
X41227539Y-3833685D01*
G37*
%TD.AperFunction*%
%TA.AperFunction,Conductor*%
G36*
X42720507Y-3854156D02*
G01*
X42680000Y-3992111D01*
X42680000Y-4135889D01*
X42720507Y-4273844D01*
X42746314Y-4314000D01*
X42659500Y-4314000D01*
X42592461Y-4294315D01*
X42546706Y-4241511D01*
X42535500Y-4190000D01*
X42535500Y-3938000D01*
X42555185Y-3870961D01*
X42607989Y-3825206D01*
X42659500Y-3814000D01*
X42746314Y-3814000D01*
X42720507Y-3854156D01*
G37*
%TD.AperFunction*%
%TA.AperFunction,Conductor*%
G36*
X34890081Y-2677185D02*
G01*
X34935836Y-2729989D01*
X34945780Y-2799147D01*
X34916755Y-2862703D01*
X34885044Y-2888886D01*
X34882420Y-2890400D01*
X34688926Y-3025886D01*
X34688920Y-3025891D01*
X34521891Y-3192920D01*
X34521890Y-3192922D01*
X34391880Y-3378595D01*
X34337303Y-3422219D01*
X34267804Y-3429412D01*
X34205450Y-3397890D01*
X34188730Y-3378594D01*
X34058494Y-3192597D01*
X33891402Y-3025506D01*
X33891395Y-3025501D01*
X33852542Y-2998296D01*
X33697830Y-2889965D01*
X33697823Y-2889962D01*
X33695964Y-2888888D01*
X33695304Y-2888196D01*
X33693396Y-2886860D01*
X33693664Y-2886476D01*
X33647748Y-2838321D01*
X33634524Y-2769715D01*
X33660491Y-2704849D01*
X33717405Y-2664320D01*
X33757963Y-2657500D01*
X34823042Y-2657500D01*
X34890081Y-2677185D01*
G37*
%TD.AperFunction*%
%TD*%
M02*
