%TF.GenerationSoftware,KiCad,Pcbnew,7.0.10*%
%TF.CreationDate,2024-04-16T21:27:06+02:00*%
%TF.ProjectId,avr-basic-sbc,6176722d-6261-4736-9963-2d7362632e6b,v0.1*%
%TF.SameCoordinates,Original*%
%TF.FileFunction,Copper,L1,Top*%
%TF.FilePolarity,Positive*%
%FSLAX46Y46*%
G04 Gerber Fmt 4.6, Leading zero omitted, Abs format (unit mm)*
G04 Created by KiCad (PCBNEW 7.0.10) date 2024-04-16 21:27:06*
%MOMM*%
%LPD*%
G01*
G04 APERTURE LIST*
%TA.AperFunction,ComponentPad*%
%ADD10C,1.600000*%
%TD*%
%TA.AperFunction,ComponentPad*%
%ADD11O,1.600000X1.600000*%
%TD*%
%TA.AperFunction,ComponentPad*%
%ADD12R,1.398000X1.398000*%
%TD*%
%TA.AperFunction,ComponentPad*%
%ADD13C,1.398000*%
%TD*%
%TA.AperFunction,ComponentPad*%
%ADD14C,3.306000*%
%TD*%
%TA.AperFunction,ComponentPad*%
%ADD15O,2.350000X4.700000*%
%TD*%
%TA.AperFunction,ComponentPad*%
%ADD16O,4.000000X2.000000*%
%TD*%
%TA.AperFunction,ComponentPad*%
%ADD17R,1.508000X1.508000*%
%TD*%
%TA.AperFunction,ComponentPad*%
%ADD18C,1.508000*%
%TD*%
%TA.AperFunction,ComponentPad*%
%ADD19R,2.000000X1.905000*%
%TD*%
%TA.AperFunction,ComponentPad*%
%ADD20O,2.000000X1.905000*%
%TD*%
%TA.AperFunction,ComponentPad*%
%ADD21R,1.800000X1.800000*%
%TD*%
%TA.AperFunction,ComponentPad*%
%ADD22C,1.800000*%
%TD*%
%TA.AperFunction,ComponentPad*%
%ADD23R,1.700000X1.700000*%
%TD*%
%TA.AperFunction,ComponentPad*%
%ADD24O,1.700000X1.700000*%
%TD*%
%TA.AperFunction,ComponentPad*%
%ADD25R,1.600000X1.600000*%
%TD*%
%TA.AperFunction,ComponentPad*%
%ADD26C,1.400000*%
%TD*%
%TA.AperFunction,ComponentPad*%
%ADD27C,1.308000*%
%TD*%
%TA.AperFunction,ComponentPad*%
%ADD28R,1.308000X1.308000*%
%TD*%
%TA.AperFunction,ComponentPad*%
%ADD29C,3.616000*%
%TD*%
%TA.AperFunction,ComponentPad*%
%ADD30C,1.500000*%
%TD*%
%TA.AperFunction,Conductor*%
%ADD31C,0.250000*%
%TD*%
%TA.AperFunction,Conductor*%
%ADD32C,0.500000*%
%TD*%
G04 APERTURE END LIST*
D10*
%TO.P,R7,1*%
%TO.N,Net-(R7-Pad1)*%
X32024000Y-12954000D03*
D11*
%TO.P,R7,2*%
%TO.N,Net-(BZ1-+)*%
X21864000Y-12954000D03*
%TD*%
D10*
%TO.P,R6,1*%
%TO.N,+5V*%
X21864000Y-37084000D03*
D11*
%TO.P,R6,2*%
%TO.N,Net-(U3-~{WP})*%
X32024000Y-37084000D03*
%TD*%
D12*
%TO.P,J2,1*%
%TO.N,Data*%
X30300000Y-46432000D03*
D13*
%TO.P,J2,2*%
%TO.N,unconnected-(J2-Pad2)*%
X27700000Y-46432000D03*
%TO.P,J2,3*%
%TO.N,GND*%
X32350000Y-46432000D03*
%TO.P,J2,4*%
%TO.N,+5V*%
X25650000Y-46432000D03*
%TO.P,J2,5*%
%TO.N,Clock*%
X32350000Y-43942000D03*
%TO.P,J2,6*%
%TO.N,unconnected-(J2-Pad6)*%
X25650000Y-43942000D03*
D14*
%TO.P,J2,S1*%
%TO.N,GND*%
X29000000Y-50242000D03*
%TO.P,J2,S2*%
X22240000Y-49432000D03*
%TO.P,J2,S3*%
X35760000Y-49432000D03*
%TD*%
D10*
%TO.P,R1,1*%
%TO.N,+5V*%
X21864000Y-17780000D03*
D11*
%TO.P,R1,2*%
%TO.N,RESET*%
X32024000Y-17780000D03*
%TD*%
D15*
%TO.P,J1,2*%
%TO.N,GND*%
X17034000Y-43972600D03*
D16*
%TO.P,J1,3*%
X12234000Y-47472600D03*
%TO.P,J1,4*%
%TO.N,/POWER IN*%
X12234000Y-41472600D03*
%TD*%
D17*
%TO.P,S1,1*%
%TO.N,unconnected-(S1-Pad1)*%
X11883000Y-11420500D03*
D18*
%TO.P,S1,2*%
%TO.N,RESET*%
X18383000Y-11420500D03*
%TO.P,S1,3*%
%TO.N,GND*%
X11883000Y-15920500D03*
%TO.P,S1,4*%
%TO.N,unconnected-(S1-Pad4)*%
X18383000Y-15920500D03*
%TD*%
D19*
%TO.P,U2,1,IN*%
%TO.N,/POWER IN 2*%
X4846000Y-45212000D03*
D20*
%TO.P,U2,2,GND*%
%TO.N,GND*%
X4846000Y-42672000D03*
%TO.P,U2,3,OUT*%
%TO.N,+5V*%
X4846000Y-40132000D03*
%TD*%
D21*
%TO.P,D2,1,K*%
%TO.N,GND*%
X52344000Y-33909000D03*
D22*
%TO.P,D2,2,A*%
%TO.N,Net-(D2-A)*%
X49804000Y-33909000D03*
%TD*%
D23*
%TO.P,J7,1,Pin_1*%
%TO.N,Net-(J7-Pin_1)*%
X63500000Y-38862000D03*
D24*
%TO.P,J7,2,Pin_2*%
%TO.N,Net-(J7-Pin_2)*%
X63500000Y-41402000D03*
%TO.P,J7,3,Pin_3*%
%TO.N,Net-(J7-Pin_3)*%
X63500000Y-43942000D03*
%TO.P,J7,4,Pin_4*%
%TO.N,Net-(J7-Pin_4)*%
X63500000Y-46482000D03*
%TO.P,J7,5,Pin_5*%
%TO.N,Net-(J7-Pin_5)*%
X63500000Y-49022000D03*
%TO.P,J7,6,Pin_6*%
%TO.N,Net-(J7-Pin_6)*%
X63500000Y-51562000D03*
%TD*%
D23*
%TO.P,J6,1,Pin_1*%
%TO.N,Net-(J6-Pin_1)*%
X85852000Y-49022000D03*
D24*
%TO.P,J6,2,Pin_2*%
%TO.N,Net-(J6-Pin_2)*%
X85852000Y-46482000D03*
%TO.P,J6,3,Pin_3*%
%TO.N,Net-(J6-Pin_3)*%
X85852000Y-43942000D03*
%TO.P,J6,4,Pin_4*%
%TO.N,Net-(J6-Pin_4)*%
X85852000Y-41402000D03*
%TO.P,J6,5,Pin_5*%
%TO.N,Net-(J6-Pin_5)*%
X85852000Y-38862000D03*
%TO.P,J6,6,Pin_6*%
%TO.N,Net-(J6-Pin_6)*%
X85852000Y-36322000D03*
%TO.P,J6,7,Pin_7*%
%TO.N,Net-(J6-Pin_7)*%
X85852000Y-33782000D03*
%TO.P,J6,8,Pin_8*%
%TO.N,Net-(J6-Pin_8)*%
X85852000Y-31242000D03*
%TD*%
D10*
%TO.P,R3,1*%
%TO.N,Net-(J3-Video)*%
X21864000Y-22606000D03*
D11*
%TO.P,R3,2*%
%TO.N,Video*%
X32024000Y-22606000D03*
%TD*%
D10*
%TO.P,R8,1*%
%TO.N,Net-(J7-Pin_5)*%
X45994000Y-33909000D03*
D11*
%TO.P,R8,2*%
%TO.N,Net-(D2-A)*%
X35834000Y-33909000D03*
%TD*%
D25*
%TO.P,C3,1*%
%TO.N,/POWER IN 2*%
X13744200Y-24765000D03*
D10*
%TO.P,C3,2*%
%TO.N,GND*%
X16244200Y-24765000D03*
%TD*%
D23*
%TO.P,J4,1,Pin_1*%
%TO.N,Net-(J4-Pin_1)*%
X63500000Y-5842000D03*
D24*
%TO.P,J4,2,Pin_2*%
%TO.N,Net-(J4-Pin_2)*%
X63500000Y-8382000D03*
%TO.P,J4,3,Pin_3*%
%TO.N,Net-(J4-Pin_3)*%
X63500000Y-10922000D03*
%TO.P,J4,4,Pin_4*%
%TO.N,~{CS}*%
X63500000Y-13462000D03*
%TO.P,J4,5,Pin_5*%
%TO.N,MOSI*%
X63500000Y-16002000D03*
%TO.P,J4,6,Pin_6*%
%TO.N,MISO*%
X63500000Y-18542000D03*
%TO.P,J4,7,Pin_7*%
%TO.N,SCK*%
X63500000Y-21082000D03*
%TD*%
D25*
%TO.P,C4,1*%
%TO.N,+5V*%
X13696600Y-33909000D03*
D10*
%TO.P,C4,2*%
%TO.N,GND*%
X16196600Y-33909000D03*
%TD*%
D25*
%TO.P,U3,1,~{CS}*%
%TO.N,~{CS}*%
X48768000Y-3302000D03*
D11*
%TO.P,U3,2,MISO*%
%TO.N,MISO*%
X48768000Y-5842000D03*
%TO.P,U3,3,~{WP}*%
%TO.N,Net-(U3-~{WP})*%
X48768000Y-8382000D03*
%TO.P,U3,4,GND*%
%TO.N,GND*%
X48768000Y-10922000D03*
%TO.P,U3,5,MOSI*%
%TO.N,MOSI*%
X56388000Y-10922000D03*
%TO.P,U3,6,SCK*%
%TO.N,SCK*%
X56388000Y-8382000D03*
%TO.P,U3,7,~{HOLD}*%
%TO.N,Net-(U3-~{HOLD})*%
X56388000Y-5842000D03*
%TO.P,U3,8,VCC*%
%TO.N,+5V*%
X56388000Y-3302000D03*
%TD*%
D26*
%TO.P,C2,1*%
%TO.N,Net-(U1-XTAL1)*%
X56662000Y-34397000D03*
%TO.P,C2,2*%
%TO.N,GND*%
X56662000Y-31897000D03*
%TD*%
D10*
%TO.P,R2,1*%
%TO.N,+5V*%
X5100000Y-25908000D03*
D11*
%TO.P,R2,2*%
%TO.N,Net-(D1-A)*%
X5100000Y-15748000D03*
%TD*%
D21*
%TO.P,D1,1,K*%
%TO.N,GND*%
X5100000Y-8600000D03*
D22*
%TO.P,D1,2,A*%
%TO.N,Net-(D1-A)*%
X5100000Y-11140000D03*
%TD*%
D27*
%TO.P,BZ1,1,+*%
%TO.N,Net-(BZ1-+)*%
X45284000Y-21717000D03*
%TO.P,BZ1,2,-*%
%TO.N,GND*%
X51784000Y-21717000D03*
%TD*%
D10*
%TO.P,R5,1*%
%TO.N,+5V*%
X21864000Y-32258000D03*
D11*
%TO.P,R5,2*%
%TO.N,Net-(U3-~{HOLD})*%
X32024000Y-32258000D03*
%TD*%
D25*
%TO.P,U1,1,PB0*%
%TO.N,Clock*%
X67056000Y-3302000D03*
D11*
%TO.P,U1,2,PB1*%
%TO.N,Net-(J4-Pin_1)*%
X67056000Y-5842000D03*
%TO.P,U1,3,PB2*%
%TO.N,Net-(J4-Pin_2)*%
X67056000Y-8382000D03*
%TO.P,U1,4,PB3*%
%TO.N,Net-(J4-Pin_3)*%
X67056000Y-10922000D03*
%TO.P,U1,5,PB4*%
%TO.N,~{CS}*%
X67056000Y-13462000D03*
%TO.P,U1,6,PB5*%
%TO.N,MOSI*%
X67056000Y-16002000D03*
%TO.P,U1,7,PB6*%
%TO.N,MISO*%
X67056000Y-18542000D03*
%TO.P,U1,8,PB7*%
%TO.N,SCK*%
X67056000Y-21082000D03*
%TO.P,U1,9,~{RESET}*%
%TO.N,RESET*%
X67056000Y-23622000D03*
%TO.P,U1,10,VCC*%
%TO.N,+5V*%
X67056000Y-26162000D03*
%TO.P,U1,11,GND*%
%TO.N,GND*%
X67056000Y-28702000D03*
%TO.P,U1,12,XTAL2*%
%TO.N,Net-(U1-XTAL2)*%
X67056000Y-31242000D03*
%TO.P,U1,13,XTAL1*%
%TO.N,Net-(U1-XTAL1)*%
X67056000Y-33782000D03*
%TO.P,U1,14,PD0*%
%TO.N,Data*%
X67056000Y-36322000D03*
%TO.P,U1,15,PD1*%
%TO.N,Net-(J7-Pin_1)*%
X67056000Y-38862000D03*
%TO.P,U1,16,PD2*%
%TO.N,Net-(J7-Pin_2)*%
X67056000Y-41402000D03*
%TO.P,U1,17,PD3*%
%TO.N,Net-(J7-Pin_3)*%
X67056000Y-43942000D03*
%TO.P,U1,18,PD4*%
%TO.N,Net-(J7-Pin_4)*%
X67056000Y-46482000D03*
%TO.P,U1,19,PD5*%
%TO.N,Sync*%
X67056000Y-49022000D03*
%TO.P,U1,20,PD6*%
%TO.N,Net-(J7-Pin_5)*%
X67056000Y-51562000D03*
%TO.P,U1,21,PD7*%
%TO.N,Net-(J7-Pin_6)*%
X82296000Y-51562000D03*
%TO.P,U1,22,PC0*%
%TO.N,Net-(J6-Pin_1)*%
X82296000Y-49022000D03*
%TO.P,U1,23,PC1*%
%TO.N,Net-(J6-Pin_2)*%
X82296000Y-46482000D03*
%TO.P,U1,24,PC2*%
%TO.N,Net-(J6-Pin_3)*%
X82296000Y-43942000D03*
%TO.P,U1,25,PC3*%
%TO.N,Net-(J6-Pin_4)*%
X82296000Y-41402000D03*
%TO.P,U1,26,PC4*%
%TO.N,Net-(J6-Pin_5)*%
X82296000Y-38862000D03*
%TO.P,U1,27,PC5*%
%TO.N,Net-(J6-Pin_6)*%
X82296000Y-36322000D03*
%TO.P,U1,28,PC6*%
%TO.N,Net-(J6-Pin_7)*%
X82296000Y-33782000D03*
%TO.P,U1,29,PC7*%
%TO.N,Net-(J6-Pin_8)*%
X82296000Y-31242000D03*
%TO.P,U1,30,AVCC*%
%TO.N,+5V*%
X82296000Y-28702000D03*
%TO.P,U1,31,GND*%
%TO.N,GND*%
X82296000Y-26162000D03*
%TO.P,U1,32,AREF*%
%TO.N,unconnected-(U1-AREF-Pad32)*%
X82296000Y-23622000D03*
%TO.P,U1,33,PA7*%
%TO.N,Video*%
X82296000Y-21082000D03*
%TO.P,U1,34,PA6*%
%TO.N,Net-(J5-Pin_7)*%
X82296000Y-18542000D03*
%TO.P,U1,35,PA5*%
%TO.N,Net-(J5-Pin_6)*%
X82296000Y-16002000D03*
%TO.P,U1,36,PA4*%
%TO.N,Net-(J5-Pin_5)*%
X82296000Y-13462000D03*
%TO.P,U1,37,PA3*%
%TO.N,Net-(J5-Pin_4)*%
X82296000Y-10922000D03*
%TO.P,U1,38,PA2*%
%TO.N,Net-(J5-Pin_3)*%
X82296000Y-8382000D03*
%TO.P,U1,39,PA1*%
%TO.N,Net-(J5-Pin_2)*%
X82296000Y-5842000D03*
%TO.P,U1,40,PA0*%
%TO.N,Net-(J5-Pin_1)*%
X82296000Y-3302000D03*
%TD*%
D23*
%TO.P,J9,1,Pin_1*%
%TO.N,+5V*%
X19558000Y-6604000D03*
D24*
%TO.P,J9,2,Pin_2*%
%TO.N,GND*%
X19558000Y-4064000D03*
%TO.P,J9,3,Pin_3*%
%TO.N,+5V*%
X22098000Y-6604000D03*
%TO.P,J9,4,Pin_4*%
%TO.N,GND*%
X22098000Y-4064000D03*
%TO.P,J9,5,Pin_5*%
%TO.N,+5V*%
X24638000Y-6604000D03*
%TO.P,J9,6,Pin_6*%
%TO.N,GND*%
X24638000Y-4064000D03*
%TO.P,J9,7,Pin_7*%
%TO.N,+5V*%
X27178000Y-6604000D03*
%TO.P,J9,8,Pin_8*%
%TO.N,GND*%
X27178000Y-4064000D03*
%TD*%
D10*
%TO.P,R4,1*%
%TO.N,Net-(J3-Video)*%
X21864000Y-27432000D03*
D11*
%TO.P,R4,2*%
%TO.N,Sync*%
X32024000Y-27432000D03*
%TD*%
D26*
%TO.P,C1,1*%
%TO.N,Net-(U1-XTAL2)*%
X56662000Y-25039000D03*
%TO.P,C1,2*%
%TO.N,GND*%
X56662000Y-27539000D03*
%TD*%
D28*
%TO.P,S2,1*%
%TO.N,unconnected-(S2-Pad1)*%
X3100000Y-29250000D03*
D27*
%TO.P,S2,2*%
%TO.N,unconnected-(S2-Pad2)*%
X5100000Y-29250000D03*
%TO.P,S2,3*%
%TO.N,unconnected-(S2-Pad3)*%
X7100000Y-29250000D03*
%TO.P,S2,4*%
%TO.N,unconnected-(S2-Pad4)*%
X3100000Y-34250000D03*
%TO.P,S2,5*%
%TO.N,/POWER IN*%
X5100000Y-34250000D03*
%TO.P,S2,6*%
%TO.N,/POWER IN 2*%
X7100000Y-34250000D03*
%TD*%
D25*
%TO.P,C5,1*%
%TO.N,+5V*%
X87650000Y-26376000D03*
D10*
%TO.P,C5,2*%
%TO.N,GND*%
X87650000Y-23876000D03*
%TD*%
D29*
%TO.P,J3,1,Shield*%
%TO.N,GND*%
X47000000Y-50600000D03*
%TO.P,J3,2,Video*%
%TO.N,Net-(J3-Video)*%
X42000000Y-46100000D03*
X52000000Y-46100000D03*
%TD*%
D23*
%TO.P,J5,1,Pin_1*%
%TO.N,Net-(J5-Pin_1)*%
X85852000Y-3302000D03*
D24*
%TO.P,J5,2,Pin_2*%
%TO.N,Net-(J5-Pin_2)*%
X85852000Y-5842000D03*
%TO.P,J5,3,Pin_3*%
%TO.N,Net-(J5-Pin_3)*%
X85852000Y-8382000D03*
%TO.P,J5,4,Pin_4*%
%TO.N,Net-(J5-Pin_4)*%
X85852000Y-10922000D03*
%TO.P,J5,5,Pin_5*%
%TO.N,Net-(J5-Pin_5)*%
X85852000Y-13462000D03*
%TO.P,J5,6,Pin_6*%
%TO.N,Net-(J5-Pin_6)*%
X85852000Y-16002000D03*
%TO.P,J5,7,Pin_7*%
%TO.N,Net-(J5-Pin_7)*%
X85852000Y-18542000D03*
%TD*%
D28*
%TO.P,S3,1*%
%TO.N,Net-(J7-Pin_6)*%
X37358000Y-21717000D03*
D27*
%TO.P,S3,2*%
%TO.N,Net-(R7-Pad1)*%
X37358000Y-24257000D03*
%TO.P,S3,3*%
%TO.N,unconnected-(S3-Pad3)*%
X37358000Y-19177000D03*
%TD*%
D23*
%TO.P,J8,1,Pin_1*%
%TO.N,MOSI*%
X33020000Y-6604000D03*
D24*
%TO.P,J8,2,Pin_2*%
%TO.N,unconnected-(J8-Pin_2-Pad2)*%
X33020000Y-4064000D03*
%TO.P,J8,3,Pin_3*%
%TO.N,unconnected-(J8-Pin_3-Pad3)*%
X35560000Y-6604000D03*
%TO.P,J8,4,Pin_4*%
%TO.N,GND*%
X35560000Y-4064000D03*
%TO.P,J8,5,Pin_5*%
%TO.N,RESET*%
X38100000Y-6604000D03*
%TO.P,J8,6,Pin_6*%
%TO.N,GND*%
X38100000Y-4064000D03*
%TO.P,J8,7,Pin_7*%
%TO.N,SCK*%
X40640000Y-6604000D03*
%TO.P,J8,8,Pin_8*%
%TO.N,GND*%
X40640000Y-4064000D03*
%TO.P,J8,9,Pin_9*%
%TO.N,MISO*%
X43180000Y-6604000D03*
%TO.P,J8,10,Pin_10*%
%TO.N,GND*%
X43180000Y-4064000D03*
%TD*%
D30*
%TO.P,Y1,1,1*%
%TO.N,Net-(U1-XTAL2)*%
X62504000Y-27268000D03*
%TO.P,Y1,2,2*%
%TO.N,Net-(U1-XTAL1)*%
X62504000Y-32148000D03*
%TD*%
D31*
%TO.N,Net-(BZ1-+)*%
X45284000Y-21717000D02*
X35340700Y-11773700D01*
X21864000Y-12954000D02*
X22990900Y-12954000D01*
X24171200Y-11773700D02*
X22990900Y-12954000D01*
X35340700Y-11773700D02*
X24171200Y-11773700D01*
%TO.N,Net-(U1-XTAL2)*%
X58891000Y-27268000D02*
X56662000Y-25039000D01*
X63102000Y-27268000D02*
X62504000Y-27268000D01*
X62504000Y-27268000D02*
X58891000Y-27268000D01*
X67076000Y-31242000D02*
X63102000Y-27268000D01*
%TO.N,Net-(U1-XTAL1)*%
X58942750Y-32148000D02*
X62504000Y-32148000D01*
X56693750Y-34397000D02*
X58942750Y-32148000D01*
X65442000Y-32148000D02*
X67076000Y-33782000D01*
X62504000Y-32148000D02*
X65442000Y-32148000D01*
X56662000Y-34397000D02*
X56693750Y-34397000D01*
D32*
%TO.N,/POWER IN*%
X12234000Y-41472600D02*
X12234000Y-41384000D01*
%TO.N,+5V*%
X84602000Y-26416000D02*
X87356600Y-26416000D01*
X21864000Y-32258000D02*
X15348000Y-32258000D01*
X61234000Y-8148000D02*
X61234000Y-21844000D01*
X27208000Y-6604000D02*
X31780000Y-2032000D01*
X69616000Y-28702000D02*
X82316000Y-28702000D01*
X4846000Y-40132000D02*
X7473600Y-40132000D01*
X56388000Y-3302000D02*
X61234000Y-8148000D01*
X14496400Y-33109200D02*
X13696600Y-33909000D01*
X31780000Y-2032000D02*
X55118000Y-2032000D01*
X21864000Y-32258000D02*
X21864000Y-37084000D01*
X82316000Y-28702000D02*
X84602000Y-26416000D01*
X67076000Y-26162000D02*
X69616000Y-28702000D01*
X61234000Y-21844000D02*
X65552000Y-26162000D01*
X14496800Y-33109200D02*
X14496400Y-33109200D01*
X13697000Y-33909000D02*
X5695600Y-25908000D01*
X65552000Y-26162000D02*
X67076000Y-26162000D01*
X14496800Y-33109200D02*
X13697000Y-33909000D01*
X19588000Y-6604000D02*
X27208000Y-6604000D01*
X55118000Y-2032000D02*
X56388000Y-3302000D01*
X5695600Y-25908000D02*
X5100000Y-25908000D01*
X7473600Y-40132000D02*
X13697000Y-33909000D01*
X15348000Y-32258000D02*
X14496800Y-33109200D01*
D31*
%TO.N,Net-(D1-A)*%
X5100000Y-11171000D02*
X5100000Y-11044000D01*
X5100000Y-15748000D02*
X5100000Y-11171000D01*
X5100000Y-11171000D02*
X5227000Y-11044000D01*
D32*
%TO.N,/POWER IN 2*%
X4846000Y-45212000D02*
X3068000Y-43434000D01*
X3068000Y-43434000D02*
X3068000Y-38282000D01*
X3068000Y-38282000D02*
X7100000Y-34250000D01*
D31*
%TO.N,Data*%
X35899800Y-52917800D02*
X30300000Y-47318000D01*
X58696500Y-47729500D02*
X53508200Y-52917800D01*
X30300000Y-47318000D02*
X30300000Y-46432000D01*
X67076000Y-36322000D02*
X63836300Y-36322000D01*
X63836300Y-36322000D02*
X58696500Y-41461800D01*
X58696500Y-41461800D02*
X58696500Y-47729500D01*
X53508200Y-52917800D02*
X35899800Y-52917800D01*
%TO.N,Net-(J4-Pin_1)*%
X63520000Y-5842000D02*
X67076000Y-5842000D01*
%TO.N,Net-(J4-Pin_2)*%
X63520000Y-8382000D02*
X67076000Y-8382000D01*
%TO.N,Net-(J4-Pin_3)*%
X63520000Y-10922000D02*
X67076000Y-10922000D01*
%TO.N,~{CS}*%
X63520000Y-13462000D02*
X67076000Y-13462000D01*
%TO.N,MOSI*%
X63520000Y-16002000D02*
X67076000Y-16002000D01*
X38755000Y-12446000D02*
X55031000Y-12446000D01*
X32918000Y-6609000D02*
X38755000Y-12446000D01*
X55031000Y-12446000D02*
X56291000Y-11186000D01*
%TO.N,MISO*%
X63520000Y-18542000D02*
X67076000Y-18542000D01*
X48001000Y-6609000D02*
X48768000Y-5842000D01*
X43078000Y-6609000D02*
X48001000Y-6609000D01*
%TO.N,SCK*%
X43581000Y-9652000D02*
X55285000Y-9652000D01*
X55285000Y-9652000D02*
X56291000Y-8646000D01*
X40538000Y-6609000D02*
X43581000Y-9652000D01*
X63520000Y-21082000D02*
X67076000Y-21082000D01*
%TO.N,Net-(J5-Pin_1)*%
X82316000Y-3302000D02*
X85872000Y-3302000D01*
%TO.N,Net-(J5-Pin_2)*%
X82316000Y-5842000D02*
X85872000Y-5842000D01*
%TO.N,Net-(J5-Pin_3)*%
X82316000Y-8382000D02*
X85872000Y-8382000D01*
%TO.N,Net-(J5-Pin_4)*%
X82316000Y-10922000D02*
X85872000Y-10922000D01*
%TO.N,Net-(J5-Pin_5)*%
X82316000Y-13462000D02*
X85872000Y-13462000D01*
%TO.N,Net-(J5-Pin_6)*%
X82316000Y-16002000D02*
X85872000Y-16002000D01*
%TO.N,Net-(J5-Pin_7)*%
X82316000Y-18542000D02*
X85872000Y-18542000D01*
%TO.N,Net-(J6-Pin_1)*%
X82316000Y-49022000D02*
X85872000Y-49022000D01*
%TO.N,Net-(J6-Pin_2)*%
X82316000Y-46482000D02*
X85872000Y-46482000D01*
%TO.N,Net-(J6-Pin_3)*%
X82316000Y-43942000D02*
X85872000Y-43942000D01*
%TO.N,Net-(J6-Pin_4)*%
X82316000Y-41402000D02*
X85872000Y-41402000D01*
%TO.N,Net-(J6-Pin_5)*%
X82316000Y-38862000D02*
X85872000Y-38862000D01*
%TO.N,Net-(J6-Pin_6)*%
X82316000Y-36322000D02*
X85872000Y-36322000D01*
%TO.N,Net-(J6-Pin_7)*%
X82316000Y-33782000D02*
X85872000Y-33782000D01*
%TO.N,Net-(J6-Pin_8)*%
X82316000Y-31242000D02*
X85872000Y-31242000D01*
%TO.N,Net-(J7-Pin_1)*%
X63520000Y-38841600D02*
X63540400Y-38862000D01*
X63540400Y-38862000D02*
X67076000Y-38862000D01*
%TO.N,Net-(J7-Pin_2)*%
X63540400Y-41402000D02*
X67076000Y-41402000D01*
X63520000Y-41381600D02*
X63540400Y-41402000D01*
%TO.N,Net-(J7-Pin_3)*%
X63520000Y-43921600D02*
X63540400Y-43942000D01*
X63540400Y-43942000D02*
X67076000Y-43942000D01*
%TO.N,Net-(J7-Pin_4)*%
X63520000Y-46461600D02*
X63540400Y-46482000D01*
X63540400Y-46482000D02*
X67076000Y-46482000D01*
%TO.N,Net-(J7-Pin_5)*%
X63520000Y-49001600D02*
X63520000Y-49002000D01*
X63520000Y-49002000D02*
X66080000Y-51562000D01*
X66080000Y-51562000D02*
X67076000Y-51562000D01*
%TO.N,Net-(J7-Pin_6)*%
X65318000Y-53340000D02*
X63520000Y-51542000D01*
X63520000Y-51542000D02*
X63520000Y-51541600D01*
X82316000Y-52812000D02*
X81788000Y-53340000D01*
X82316000Y-51562000D02*
X82316000Y-52812000D01*
X81788000Y-53340000D02*
X65318000Y-53340000D01*
%TO.N,RESET*%
X29484000Y-15240000D02*
X32024000Y-17780000D01*
X18383000Y-12775000D02*
X20848000Y-15240000D01*
X18383000Y-11420500D02*
X18383000Y-12775000D01*
X20848000Y-15240000D02*
X29484000Y-15240000D01*
%TO.N,Net-(U3-~{HOLD})*%
X56652000Y-6106000D02*
X56291000Y-6106000D01*
X32024000Y-32258000D02*
X36855300Y-32258000D01*
X57658000Y-11455300D02*
X57658000Y-7112000D01*
X57658000Y-7112000D02*
X56652000Y-6106000D01*
X36855300Y-32258000D02*
X57658000Y-11455300D01*
%TO.N,Net-(R7-Pad1)*%
X37358000Y-24257000D02*
X34996900Y-21895900D01*
X34996900Y-15926900D02*
X32024000Y-12954000D01*
X34996900Y-21895900D02*
X34996900Y-15926900D01*
%TO.N,Net-(D2-A)*%
X35834000Y-33909000D02*
X36960900Y-33909000D01*
X38089200Y-35037300D02*
X36960900Y-33909000D01*
X49804000Y-33909000D02*
X48675700Y-35037300D01*
X48675700Y-35037300D02*
X38089200Y-35037300D01*
%TO.N,Net-(J3-Video)*%
X43981000Y-46247000D02*
X52500000Y-46247000D01*
X32278000Y-34544000D02*
X43981000Y-46247000D01*
X28976000Y-34544000D02*
X32278000Y-34544000D01*
X21864000Y-27432000D02*
X28976000Y-34544000D01*
X21864000Y-22606000D02*
X21864000Y-27432000D01*
%TD*%
%TA.AperFunction,Conductor*%
%TO.N,GND*%
G36*
X30518309Y-2019685D02*
G01*
X30564064Y-2072489D01*
X30574008Y-2141647D01*
X30544983Y-2205203D01*
X30538951Y-2211681D01*
X28733536Y-4017093D01*
X28672213Y-4050578D01*
X28602521Y-4045594D01*
X28546588Y-4003722D01*
X28522327Y-3940219D01*
X28512569Y-3828684D01*
X28512567Y-3828673D01*
X28451433Y-3600516D01*
X28451429Y-3600507D01*
X28351600Y-3386422D01*
X28351599Y-3386420D01*
X28216113Y-3192926D01*
X28216108Y-3192920D01*
X28049082Y-3025894D01*
X27855578Y-2890399D01*
X27641492Y-2790570D01*
X27641486Y-2790567D01*
X27428000Y-2733364D01*
X27428000Y-3628498D01*
X27320315Y-3579320D01*
X27213763Y-3564000D01*
X27142237Y-3564000D01*
X27035685Y-3579320D01*
X26928000Y-3628498D01*
X26928000Y-2733364D01*
X26927999Y-2733364D01*
X26714513Y-2790567D01*
X26714507Y-2790570D01*
X26500422Y-2890399D01*
X26500420Y-2890400D01*
X26306926Y-3025886D01*
X26306920Y-3025891D01*
X26139891Y-3192920D01*
X26139890Y-3192922D01*
X26009575Y-3379031D01*
X25954998Y-3422655D01*
X25885499Y-3429848D01*
X25823145Y-3398326D01*
X25806425Y-3379031D01*
X25676109Y-3192922D01*
X25676108Y-3192920D01*
X25509082Y-3025894D01*
X25315578Y-2890399D01*
X25101492Y-2790570D01*
X25101486Y-2790567D01*
X24888000Y-2733364D01*
X24888000Y-3628498D01*
X24780315Y-3579320D01*
X24673763Y-3564000D01*
X24602237Y-3564000D01*
X24495685Y-3579320D01*
X24388000Y-3628498D01*
X24388000Y-2733364D01*
X24387999Y-2733364D01*
X24174513Y-2790567D01*
X24174507Y-2790570D01*
X23960422Y-2890399D01*
X23960420Y-2890400D01*
X23766926Y-3025886D01*
X23766920Y-3025891D01*
X23599891Y-3192920D01*
X23599890Y-3192922D01*
X23469575Y-3379031D01*
X23414998Y-3422655D01*
X23345499Y-3429848D01*
X23283145Y-3398326D01*
X23266425Y-3379031D01*
X23136109Y-3192922D01*
X23136108Y-3192920D01*
X22969082Y-3025894D01*
X22775578Y-2890399D01*
X22561492Y-2790570D01*
X22561486Y-2790567D01*
X22348000Y-2733364D01*
X22348000Y-3628498D01*
X22240315Y-3579320D01*
X22133763Y-3564000D01*
X22062237Y-3564000D01*
X21955685Y-3579320D01*
X21848000Y-3628498D01*
X21848000Y-2733364D01*
X21847999Y-2733364D01*
X21634513Y-2790567D01*
X21634507Y-2790570D01*
X21420422Y-2890399D01*
X21420420Y-2890400D01*
X21226926Y-3025886D01*
X21226920Y-3025891D01*
X21059891Y-3192920D01*
X21059890Y-3192922D01*
X20929575Y-3379031D01*
X20874998Y-3422655D01*
X20805499Y-3429848D01*
X20743145Y-3398326D01*
X20726425Y-3379031D01*
X20596109Y-3192922D01*
X20596108Y-3192920D01*
X20429082Y-3025894D01*
X20235578Y-2890399D01*
X20021492Y-2790570D01*
X20021486Y-2790567D01*
X19808000Y-2733364D01*
X19808000Y-3628498D01*
X19700315Y-3579320D01*
X19593763Y-3564000D01*
X19522237Y-3564000D01*
X19415685Y-3579320D01*
X19308000Y-3628498D01*
X19308000Y-2733364D01*
X19307999Y-2733364D01*
X19094513Y-2790567D01*
X19094507Y-2790570D01*
X18880422Y-2890399D01*
X18880420Y-2890400D01*
X18686926Y-3025886D01*
X18686920Y-3025891D01*
X18519891Y-3192920D01*
X18519886Y-3192926D01*
X18384400Y-3386420D01*
X18384399Y-3386422D01*
X18284570Y-3600507D01*
X18284567Y-3600513D01*
X18227364Y-3813999D01*
X18227364Y-3814000D01*
X19124314Y-3814000D01*
X19098507Y-3854156D01*
X19058000Y-3992111D01*
X19058000Y-4135889D01*
X19098507Y-4273844D01*
X19124314Y-4314000D01*
X18227364Y-4314000D01*
X18284567Y-4527486D01*
X18284570Y-4527492D01*
X18384399Y-4741578D01*
X18519894Y-4935082D01*
X18641946Y-5057134D01*
X18675431Y-5118457D01*
X18670447Y-5188149D01*
X18628575Y-5244082D01*
X18597598Y-5260997D01*
X18465671Y-5310202D01*
X18465664Y-5310206D01*
X18350455Y-5396452D01*
X18350452Y-5396455D01*
X18264206Y-5511664D01*
X18264202Y-5511671D01*
X18213908Y-5646517D01*
X18207501Y-5706116D01*
X18207500Y-5706135D01*
X18207500Y-7501870D01*
X18207501Y-7501876D01*
X18213908Y-7561483D01*
X18264202Y-7696328D01*
X18264206Y-7696335D01*
X18350452Y-7811544D01*
X18350455Y-7811547D01*
X18465664Y-7897793D01*
X18465671Y-7897797D01*
X18600517Y-7948091D01*
X18600516Y-7948091D01*
X18607444Y-7948835D01*
X18660127Y-7954500D01*
X20455872Y-7954499D01*
X20515483Y-7948091D01*
X20650331Y-7897796D01*
X20765546Y-7811546D01*
X20851796Y-7696331D01*
X20900810Y-7564916D01*
X20942681Y-7508984D01*
X21008145Y-7484566D01*
X21076418Y-7499417D01*
X21104673Y-7520569D01*
X21226599Y-7642495D01*
X21313899Y-7703623D01*
X21420165Y-7778032D01*
X21420167Y-7778033D01*
X21420170Y-7778035D01*
X21634337Y-7877903D01*
X21862592Y-7939063D01*
X22039034Y-7954500D01*
X22097999Y-7959659D01*
X22098000Y-7959659D01*
X22098001Y-7959659D01*
X22156966Y-7954500D01*
X22333408Y-7939063D01*
X22561663Y-7877903D01*
X22775830Y-7778035D01*
X22969401Y-7642495D01*
X23136495Y-7475401D01*
X23184127Y-7407376D01*
X23238704Y-7363751D01*
X23285701Y-7354500D01*
X23450299Y-7354500D01*
X23517338Y-7374185D01*
X23551873Y-7407376D01*
X23599505Y-7475401D01*
X23766599Y-7642495D01*
X23853899Y-7703623D01*
X23960165Y-7778032D01*
X23960167Y-7778033D01*
X23960170Y-7778035D01*
X24174337Y-7877903D01*
X24402592Y-7939063D01*
X24579034Y-7954500D01*
X24637999Y-7959659D01*
X24638000Y-7959659D01*
X24638001Y-7959659D01*
X24696966Y-7954500D01*
X24873408Y-7939063D01*
X25101663Y-7877903D01*
X25315830Y-7778035D01*
X25509401Y-7642495D01*
X25676495Y-7475401D01*
X25724127Y-7407376D01*
X25778704Y-7363751D01*
X25825701Y-7354500D01*
X25990299Y-7354500D01*
X26057338Y-7374185D01*
X26091873Y-7407376D01*
X26139505Y-7475401D01*
X26306599Y-7642495D01*
X26393899Y-7703623D01*
X26500165Y-7778032D01*
X26500167Y-7778033D01*
X26500170Y-7778035D01*
X26714337Y-7877903D01*
X26942592Y-7939063D01*
X27119034Y-7954500D01*
X27177999Y-7959659D01*
X27178000Y-7959659D01*
X27178001Y-7959659D01*
X27236966Y-7954500D01*
X27413408Y-7939063D01*
X27641663Y-7877903D01*
X27855830Y-7778035D01*
X28049401Y-7642495D01*
X28216495Y-7475401D01*
X28352035Y-7281830D01*
X28451903Y-7067663D01*
X28513063Y-6839408D01*
X28533659Y-6604000D01*
X28517435Y-6418569D01*
X28531201Y-6350073D01*
X28553279Y-6320087D01*
X31681721Y-3191645D01*
X31743042Y-3158162D01*
X31812734Y-3163146D01*
X31868667Y-3205018D01*
X31893084Y-3270482D01*
X31878232Y-3338755D01*
X31870976Y-3350450D01*
X31845964Y-3386171D01*
X31746098Y-3600335D01*
X31746094Y-3600344D01*
X31684938Y-3828586D01*
X31684936Y-3828596D01*
X31664341Y-4063999D01*
X31664341Y-4064000D01*
X31684936Y-4299403D01*
X31684938Y-4299413D01*
X31746094Y-4527655D01*
X31746096Y-4527659D01*
X31746097Y-4527663D01*
X31826762Y-4700650D01*
X31845965Y-4741830D01*
X31845967Y-4741834D01*
X31916074Y-4841956D01*
X31981501Y-4935396D01*
X31981506Y-4935402D01*
X32103430Y-5057326D01*
X32136915Y-5118649D01*
X32131931Y-5188341D01*
X32090059Y-5244274D01*
X32059083Y-5261189D01*
X31927669Y-5310203D01*
X31927664Y-5310206D01*
X31812455Y-5396452D01*
X31812452Y-5396455D01*
X31726206Y-5511664D01*
X31726202Y-5511671D01*
X31675908Y-5646517D01*
X31669501Y-5706116D01*
X31669500Y-5706135D01*
X31669500Y-7501870D01*
X31669501Y-7501876D01*
X31675908Y-7561483D01*
X31726202Y-7696328D01*
X31726206Y-7696335D01*
X31812452Y-7811544D01*
X31812455Y-7811547D01*
X31927664Y-7897793D01*
X31927671Y-7897797D01*
X32062517Y-7948091D01*
X32062516Y-7948091D01*
X32069444Y-7948835D01*
X32122127Y-7954500D01*
X33327547Y-7954499D01*
X33394586Y-7974184D01*
X33415228Y-7990818D01*
X38254194Y-12829784D01*
X38264019Y-12842048D01*
X38264240Y-12841866D01*
X38269210Y-12847874D01*
X38318239Y-12893915D01*
X38321036Y-12896626D01*
X38340530Y-12916120D01*
X38343695Y-12918575D01*
X38352571Y-12926156D01*
X38384418Y-12956062D01*
X38384422Y-12956064D01*
X38401973Y-12965713D01*
X38418231Y-12976392D01*
X38434064Y-12988674D01*
X38463238Y-13001298D01*
X38474155Y-13006022D01*
X38484635Y-13011155D01*
X38522908Y-13032197D01*
X38542312Y-13037179D01*
X38560710Y-13043478D01*
X38579105Y-13051438D01*
X38622254Y-13058271D01*
X38633680Y-13060638D01*
X38675981Y-13071500D01*
X38696016Y-13071500D01*
X38715413Y-13073026D01*
X38735196Y-13076160D01*
X38778675Y-13072050D01*
X38790344Y-13071500D01*
X54857846Y-13071500D01*
X54924885Y-13091185D01*
X54970640Y-13143989D01*
X54980584Y-13213147D01*
X54951559Y-13276703D01*
X54945527Y-13283181D01*
X46636014Y-21592693D01*
X46574691Y-21626178D01*
X46504999Y-21621194D01*
X46449066Y-21579322D01*
X46424862Y-21516451D01*
X46423704Y-21503953D01*
X46423703Y-21503949D01*
X46365153Y-21298164D01*
X46365150Y-21298158D01*
X46269781Y-21106630D01*
X46140841Y-20935886D01*
X45982722Y-20791742D01*
X45982716Y-20791738D01*
X45982713Y-20791736D01*
X45800813Y-20679108D01*
X45800807Y-20679106D01*
X45796814Y-20677559D01*
X45601297Y-20601815D01*
X45390980Y-20562500D01*
X45177020Y-20562500D01*
X45145967Y-20568304D01*
X45103997Y-20576150D01*
X45034482Y-20569118D01*
X44993532Y-20541942D01*
X40426287Y-15974697D01*
X35841503Y-11389912D01*
X35831680Y-11377650D01*
X35831459Y-11377834D01*
X35826486Y-11371822D01*
X35777476Y-11325799D01*
X35774677Y-11323086D01*
X35755177Y-11303585D01*
X35755171Y-11303580D01*
X35751986Y-11301109D01*
X35743134Y-11293548D01*
X35711282Y-11263638D01*
X35711280Y-11263636D01*
X35711277Y-11263635D01*
X35693729Y-11253988D01*
X35677463Y-11243304D01*
X35661632Y-11231024D01*
X35621549Y-11213678D01*
X35611063Y-11208541D01*
X35572794Y-11187503D01*
X35572792Y-11187502D01*
X35553393Y-11182522D01*
X35534981Y-11176218D01*
X35516598Y-11168262D01*
X35516592Y-11168260D01*
X35473460Y-11161429D01*
X35462022Y-11159061D01*
X35419720Y-11148200D01*
X35419719Y-11148200D01*
X35399684Y-11148200D01*
X35380286Y-11146673D01*
X35372862Y-11145497D01*
X35360505Y-11143540D01*
X35360504Y-11143540D01*
X35317025Y-11147650D01*
X35305356Y-11148200D01*
X24253937Y-11148200D01*
X24238320Y-11146476D01*
X24238293Y-11146762D01*
X24230531Y-11146027D01*
X24163344Y-11148139D01*
X24159450Y-11148200D01*
X24131850Y-11148200D01*
X24128162Y-11148665D01*
X24127849Y-11148705D01*
X24116231Y-11149618D01*
X24072573Y-11150990D01*
X24072572Y-11150990D01*
X24053329Y-11156581D01*
X24034279Y-11160525D01*
X24014411Y-11163034D01*
X24014410Y-11163035D01*
X23973800Y-11179113D01*
X23962753Y-11182895D01*
X23920810Y-11195081D01*
X23920809Y-11195082D01*
X23903567Y-11205279D01*
X23886099Y-11213837D01*
X23867469Y-11221213D01*
X23867466Y-11221215D01*
X23832139Y-11246881D01*
X23822380Y-11253292D01*
X23784779Y-11275530D01*
X23770608Y-11289700D01*
X23755823Y-11302328D01*
X23739612Y-11314107D01*
X23711771Y-11347759D01*
X23703911Y-11356396D01*
X22992428Y-12067879D01*
X22931105Y-12101364D01*
X22861413Y-12096380D01*
X22817066Y-12067879D01*
X22703141Y-11953954D01*
X22516734Y-11823432D01*
X22516732Y-11823431D01*
X22310497Y-11727261D01*
X22310488Y-11727258D01*
X22090697Y-11668366D01*
X22090693Y-11668365D01*
X22090692Y-11668365D01*
X22090691Y-11668364D01*
X22090686Y-11668364D01*
X21864002Y-11648532D01*
X21863998Y-11648532D01*
X21637313Y-11668364D01*
X21637302Y-11668366D01*
X21417511Y-11727258D01*
X21417502Y-11727261D01*
X21211267Y-11823431D01*
X21211265Y-11823432D01*
X21024858Y-11953954D01*
X20863954Y-12114858D01*
X20733432Y-12301265D01*
X20733431Y-12301267D01*
X20637261Y-12507502D01*
X20637258Y-12507511D01*
X20578366Y-12727302D01*
X20578364Y-12727313D01*
X20558532Y-12953998D01*
X20558532Y-12954001D01*
X20578364Y-13180686D01*
X20578366Y-13180697D01*
X20637258Y-13400488D01*
X20637261Y-13400497D01*
X20733431Y-13606732D01*
X20733432Y-13606734D01*
X20863954Y-13793141D01*
X21024858Y-13954045D01*
X21024861Y-13954047D01*
X21211266Y-14084568D01*
X21417504Y-14180739D01*
X21637308Y-14239635D01*
X21794791Y-14253413D01*
X21863998Y-14259468D01*
X21864000Y-14259468D01*
X21864002Y-14259468D01*
X21920673Y-14254509D01*
X22090692Y-14239635D01*
X22310496Y-14180739D01*
X22516734Y-14084568D01*
X22703139Y-13954047D01*
X22864047Y-13793139D01*
X22978312Y-13629949D01*
X23032888Y-13586325D01*
X23075993Y-13577134D01*
X23089527Y-13576709D01*
X23108769Y-13571117D01*
X23127812Y-13567174D01*
X23147692Y-13564664D01*
X23188301Y-13548585D01*
X23199344Y-13544803D01*
X23241290Y-13532618D01*
X23258529Y-13522422D01*
X23276003Y-13513862D01*
X23294627Y-13506488D01*
X23294627Y-13506487D01*
X23294632Y-13506486D01*
X23329983Y-13480800D01*
X23339714Y-13474408D01*
X23377320Y-13452170D01*
X23391489Y-13437999D01*
X23406279Y-13425368D01*
X23422487Y-13413594D01*
X23450338Y-13379926D01*
X23458179Y-13371309D01*
X24393972Y-12435519D01*
X24455295Y-12402034D01*
X24481653Y-12399200D01*
X30664681Y-12399200D01*
X30731720Y-12418885D01*
X30777475Y-12471689D01*
X30787419Y-12540847D01*
X30784456Y-12555293D01*
X30738366Y-12727302D01*
X30738364Y-12727313D01*
X30718532Y-12953998D01*
X30718532Y-12954001D01*
X30738364Y-13180686D01*
X30738366Y-13180697D01*
X30797258Y-13400488D01*
X30797261Y-13400497D01*
X30893431Y-13606732D01*
X30893432Y-13606734D01*
X31023954Y-13793141D01*
X31184858Y-13954045D01*
X31184861Y-13954047D01*
X31371266Y-14084568D01*
X31577504Y-14180739D01*
X31797308Y-14239635D01*
X31954791Y-14253413D01*
X32023998Y-14259468D01*
X32024000Y-14259468D01*
X32024002Y-14259468D01*
X32080673Y-14254509D01*
X32250692Y-14239635D01*
X32319048Y-14221319D01*
X32388897Y-14222982D01*
X32438822Y-14253413D01*
X34335081Y-16149671D01*
X34368566Y-16210994D01*
X34371400Y-16237352D01*
X34371400Y-21813155D01*
X34369675Y-21828772D01*
X34369961Y-21828799D01*
X34369226Y-21836565D01*
X34371339Y-21903772D01*
X34371400Y-21907667D01*
X34371400Y-21935257D01*
X34371903Y-21939235D01*
X34372818Y-21950867D01*
X34374190Y-21994524D01*
X34375005Y-21997331D01*
X34379780Y-22013767D01*
X34383724Y-22032811D01*
X34384795Y-22041285D01*
X34386236Y-22052692D01*
X34402314Y-22093303D01*
X34406097Y-22104352D01*
X34415245Y-22135840D01*
X34418282Y-22146290D01*
X34428361Y-22163334D01*
X34428480Y-22163534D01*
X34437038Y-22181003D01*
X34444414Y-22199632D01*
X34470081Y-22234960D01*
X34476493Y-22244721D01*
X34498728Y-22282317D01*
X34498733Y-22282324D01*
X34512890Y-22296480D01*
X34525528Y-22311276D01*
X34534891Y-22324164D01*
X34537306Y-22327487D01*
X34566937Y-22352000D01*
X34570957Y-22355325D01*
X34579598Y-22363188D01*
X36180702Y-23964292D01*
X36214187Y-24025615D01*
X36216492Y-24063414D01*
X36198554Y-24256999D01*
X36198554Y-24257000D01*
X36218295Y-24470047D01*
X36218296Y-24470050D01*
X36276846Y-24675835D01*
X36276849Y-24675841D01*
X36351515Y-24825791D01*
X36372219Y-24867370D01*
X36501159Y-25038114D01*
X36659278Y-25182258D01*
X36659283Y-25182261D01*
X36659286Y-25182263D01*
X36841186Y-25294891D01*
X36841187Y-25294891D01*
X36841190Y-25294893D01*
X37040703Y-25372185D01*
X37251020Y-25411500D01*
X37251022Y-25411500D01*
X37464978Y-25411500D01*
X37464980Y-25411500D01*
X37675297Y-25372185D01*
X37874810Y-25294893D01*
X38056722Y-25182258D01*
X38214841Y-25038114D01*
X38343781Y-24867370D01*
X38439151Y-24675840D01*
X38439151Y-24675837D01*
X38439153Y-24675835D01*
X38481079Y-24528478D01*
X38497704Y-24470048D01*
X38517446Y-24257000D01*
X38503138Y-24102599D01*
X38497704Y-24043952D01*
X38497703Y-24043949D01*
X38439153Y-23838164D01*
X38439150Y-23838158D01*
X38394888Y-23749267D01*
X38343781Y-23646630D01*
X38214841Y-23475886D01*
X38056722Y-23331742D01*
X38056716Y-23331738D01*
X38056713Y-23331736D01*
X37874813Y-23219108D01*
X37874807Y-23219106D01*
X37675297Y-23141815D01*
X37544619Y-23117387D01*
X37482340Y-23085720D01*
X37447067Y-23025407D01*
X37450001Y-22955599D01*
X37490210Y-22898459D01*
X37554928Y-22872128D01*
X37567406Y-22871499D01*
X38059871Y-22871499D01*
X38059872Y-22871499D01*
X38119483Y-22865091D01*
X38254331Y-22814796D01*
X38369546Y-22728546D01*
X38455796Y-22613331D01*
X38506091Y-22478483D01*
X38512500Y-22418873D01*
X38512499Y-21015128D01*
X38506091Y-20955517D01*
X38498769Y-20935887D01*
X38455797Y-20820671D01*
X38455793Y-20820664D01*
X38369547Y-20705455D01*
X38369544Y-20705452D01*
X38254335Y-20619206D01*
X38254328Y-20619202D01*
X38119482Y-20568908D01*
X38119483Y-20568908D01*
X38059883Y-20562501D01*
X38059881Y-20562500D01*
X38059873Y-20562500D01*
X38059865Y-20562500D01*
X37567409Y-20562500D01*
X37500370Y-20542815D01*
X37454615Y-20490011D01*
X37444671Y-20420853D01*
X37473696Y-20357297D01*
X37532474Y-20319523D01*
X37544605Y-20316615D01*
X37675297Y-20292185D01*
X37874810Y-20214893D01*
X38056722Y-20102258D01*
X38214841Y-19958114D01*
X38343781Y-19787370D01*
X38439151Y-19595840D01*
X38439151Y-19595837D01*
X38439153Y-19595835D01*
X38497703Y-19390050D01*
X38497704Y-19390047D01*
X38498530Y-19381139D01*
X38517446Y-19177000D01*
X38497704Y-18963952D01*
X38482515Y-18910567D01*
X38439153Y-18758164D01*
X38439150Y-18758158D01*
X38369927Y-18619139D01*
X38343781Y-18566630D01*
X38214841Y-18395886D01*
X38056722Y-18251742D01*
X38056716Y-18251738D01*
X38056713Y-18251736D01*
X37874813Y-18139108D01*
X37874807Y-18139106D01*
X37870814Y-18137559D01*
X37675297Y-18061815D01*
X37464980Y-18022500D01*
X37251020Y-18022500D01*
X37040703Y-18061815D01*
X36914533Y-18110693D01*
X36841192Y-18139106D01*
X36841186Y-18139108D01*
X36659286Y-18251736D01*
X36659283Y-18251738D01*
X36659279Y-18251740D01*
X36659278Y-18251742D01*
X36589544Y-18315313D01*
X36501158Y-18395887D01*
X36372219Y-18566629D01*
X36276849Y-18758158D01*
X36276846Y-18758164D01*
X36218296Y-18963949D01*
X36218295Y-18963952D01*
X36198554Y-19176999D01*
X36198554Y-19177000D01*
X36218295Y-19390047D01*
X36218296Y-19390050D01*
X36276846Y-19595835D01*
X36276849Y-19595841D01*
X36342231Y-19727145D01*
X36372219Y-19787370D01*
X36501159Y-19958114D01*
X36659278Y-20102258D01*
X36659283Y-20102261D01*
X36659286Y-20102263D01*
X36841186Y-20214891D01*
X36841187Y-20214891D01*
X36841190Y-20214893D01*
X37040703Y-20292185D01*
X37171379Y-20316612D01*
X37233657Y-20348279D01*
X37268930Y-20408591D01*
X37265996Y-20478399D01*
X37225788Y-20535540D01*
X37161069Y-20561871D01*
X37148591Y-20562500D01*
X36656129Y-20562500D01*
X36656123Y-20562501D01*
X36596516Y-20568908D01*
X36461671Y-20619202D01*
X36461664Y-20619206D01*
X36346455Y-20705452D01*
X36346452Y-20705455D01*
X36260206Y-20820664D01*
X36260202Y-20820671D01*
X36209908Y-20955517D01*
X36203501Y-21015116D01*
X36203501Y-21015123D01*
X36203500Y-21015135D01*
X36203500Y-21918547D01*
X36183815Y-21985586D01*
X36131011Y-22031341D01*
X36061853Y-22041285D01*
X35998297Y-22012260D01*
X35991819Y-22006228D01*
X35658719Y-21673128D01*
X35625234Y-21611805D01*
X35622400Y-21585447D01*
X35622400Y-16009637D01*
X35624124Y-15994023D01*
X35623838Y-15993996D01*
X35624572Y-15986233D01*
X35622461Y-15919043D01*
X35622400Y-15915149D01*
X35622400Y-15887551D01*
X35622400Y-15887550D01*
X35621897Y-15883570D01*
X35620980Y-15871921D01*
X35620826Y-15867027D01*
X35619609Y-15828272D01*
X35614020Y-15809037D01*
X35610074Y-15789984D01*
X35607564Y-15770108D01*
X35591478Y-15729481D01*
X35587703Y-15718454D01*
X35575517Y-15676510D01*
X35565321Y-15659269D01*
X35556760Y-15641793D01*
X35554487Y-15636051D01*
X35549386Y-15623168D01*
X35523709Y-15587826D01*
X35517312Y-15578090D01*
X35495070Y-15540479D01*
X35495067Y-15540476D01*
X35495065Y-15540473D01*
X35480905Y-15526313D01*
X35468270Y-15511520D01*
X35458882Y-15498600D01*
X35456494Y-15495313D01*
X35456493Y-15495312D01*
X35422845Y-15467476D01*
X35414204Y-15459613D01*
X33323413Y-13368822D01*
X33289928Y-13307499D01*
X33291319Y-13249048D01*
X33293130Y-13242288D01*
X33309635Y-13180692D01*
X33329041Y-12958879D01*
X33329468Y-12954001D01*
X33329468Y-12953998D01*
X33319673Y-12842048D01*
X33309635Y-12727308D01*
X33263544Y-12555293D01*
X33265207Y-12485443D01*
X33304370Y-12427581D01*
X33368598Y-12400077D01*
X33383319Y-12399200D01*
X35030248Y-12399200D01*
X35097287Y-12418885D01*
X35117929Y-12435519D01*
X44106702Y-21424292D01*
X44140187Y-21485615D01*
X44142492Y-21523414D01*
X44124554Y-21716999D01*
X44124554Y-21717000D01*
X44144295Y-21930047D01*
X44144296Y-21930050D01*
X44202846Y-22135835D01*
X44202849Y-22135841D01*
X44275785Y-22282317D01*
X44298219Y-22327370D01*
X44427159Y-22498114D01*
X44585278Y-22642258D01*
X44585283Y-22642261D01*
X44585286Y-22642263D01*
X44767186Y-22754891D01*
X44767187Y-22754891D01*
X44767190Y-22754893D01*
X44966703Y-22832185D01*
X45097593Y-22856652D01*
X45159872Y-22888319D01*
X45195145Y-22948631D01*
X45192212Y-23018439D01*
X45162487Y-23066221D01*
X36632528Y-31596181D01*
X36571205Y-31629666D01*
X36544847Y-31632500D01*
X33238188Y-31632500D01*
X33171149Y-31612815D01*
X33136613Y-31579623D01*
X33024045Y-31418858D01*
X32863141Y-31257954D01*
X32676734Y-31127432D01*
X32676732Y-31127431D01*
X32470497Y-31031261D01*
X32470488Y-31031258D01*
X32250697Y-30972366D01*
X32250693Y-30972365D01*
X32250692Y-30972365D01*
X32250691Y-30972364D01*
X32250686Y-30972364D01*
X32024002Y-30952532D01*
X32023998Y-30952532D01*
X31797313Y-30972364D01*
X31797302Y-30972366D01*
X31577511Y-31031258D01*
X31577502Y-31031261D01*
X31371267Y-31127431D01*
X31371265Y-31127432D01*
X31184858Y-31257954D01*
X31023954Y-31418858D01*
X30893432Y-31605265D01*
X30893431Y-31605267D01*
X30797261Y-31811502D01*
X30797258Y-31811511D01*
X30738366Y-32031302D01*
X30738364Y-32031313D01*
X30718532Y-32257998D01*
X30718532Y-32258001D01*
X30738364Y-32484686D01*
X30738366Y-32484697D01*
X30797258Y-32704488D01*
X30797261Y-32704497D01*
X30893431Y-32910732D01*
X30893432Y-32910734D01*
X31023954Y-33097141D01*
X31184858Y-33258045D01*
X31184861Y-33258047D01*
X31371266Y-33388568D01*
X31577504Y-33484739D01*
X31797308Y-33543635D01*
X31959230Y-33557801D01*
X32023998Y-33563468D01*
X32024000Y-33563468D01*
X32024002Y-33563468D01*
X32080673Y-33558509D01*
X32250692Y-33543635D01*
X32470496Y-33484739D01*
X32676734Y-33388568D01*
X32863139Y-33258047D01*
X33024047Y-33097139D01*
X33119263Y-32961155D01*
X33136613Y-32936377D01*
X33191189Y-32892752D01*
X33238188Y-32883500D01*
X34726242Y-32883500D01*
X34793281Y-32903185D01*
X34839036Y-32955989D01*
X34848980Y-33025147D01*
X34827817Y-33078623D01*
X34703432Y-33256265D01*
X34703431Y-33256267D01*
X34607261Y-33462502D01*
X34607258Y-33462511D01*
X34548366Y-33682302D01*
X34548364Y-33682313D01*
X34528532Y-33908998D01*
X34528532Y-33909001D01*
X34548364Y-34135686D01*
X34548366Y-34135697D01*
X34607258Y-34355488D01*
X34607261Y-34355497D01*
X34703431Y-34561732D01*
X34703432Y-34561734D01*
X34833954Y-34748141D01*
X34994858Y-34909045D01*
X34999892Y-34912570D01*
X35181266Y-35039568D01*
X35387504Y-35135739D01*
X35607308Y-35194635D01*
X35769230Y-35208801D01*
X35833998Y-35214468D01*
X35834000Y-35214468D01*
X35834002Y-35214468D01*
X35893802Y-35209236D01*
X36060692Y-35194635D01*
X36280496Y-35135739D01*
X36486734Y-35039568D01*
X36673139Y-34909047D01*
X36725359Y-34856827D01*
X36787067Y-34795120D01*
X36848390Y-34761635D01*
X36918082Y-34766619D01*
X36962429Y-34795120D01*
X37588397Y-35421088D01*
X37598222Y-35433351D01*
X37598443Y-35433169D01*
X37603411Y-35439174D01*
X37652422Y-35485199D01*
X37655221Y-35487912D01*
X37674722Y-35507414D01*
X37674726Y-35507417D01*
X37674729Y-35507420D01*
X37677902Y-35509881D01*
X37686774Y-35517459D01*
X37718618Y-35547362D01*
X37736176Y-35557014D01*
X37752435Y-35567695D01*
X37768264Y-35579973D01*
X37808355Y-35597321D01*
X37818826Y-35602451D01*
X37841380Y-35614850D01*
X37857102Y-35623494D01*
X37857104Y-35623495D01*
X37857108Y-35623497D01*
X37876516Y-35628480D01*
X37894919Y-35634781D01*
X37913301Y-35642736D01*
X37913302Y-35642736D01*
X37913304Y-35642737D01*
X37956450Y-35649570D01*
X37967872Y-35651936D01*
X38010181Y-35662800D01*
X38030216Y-35662800D01*
X38049614Y-35664326D01*
X38069394Y-35667459D01*
X38069395Y-35667460D01*
X38069395Y-35667459D01*
X38069396Y-35667460D01*
X38112875Y-35663350D01*
X38124544Y-35662800D01*
X48592957Y-35662800D01*
X48608577Y-35664524D01*
X48608604Y-35664239D01*
X48616360Y-35664971D01*
X48616367Y-35664973D01*
X48683573Y-35662861D01*
X48687468Y-35662800D01*
X48715046Y-35662800D01*
X48715050Y-35662800D01*
X48719024Y-35662297D01*
X48730663Y-35661380D01*
X48774327Y-35660009D01*
X48793569Y-35654417D01*
X48812612Y-35650474D01*
X48832492Y-35647964D01*
X48873101Y-35631885D01*
X48884144Y-35628103D01*
X48926090Y-35615918D01*
X48943329Y-35605722D01*
X48960803Y-35597162D01*
X48979427Y-35589788D01*
X48979427Y-35589787D01*
X48979432Y-35589786D01*
X49014783Y-35564100D01*
X49024514Y-35557708D01*
X49062120Y-35535470D01*
X49076289Y-35521299D01*
X49091079Y-35508668D01*
X49107287Y-35496894D01*
X49135138Y-35463226D01*
X49142979Y-35454609D01*
X49305480Y-35292108D01*
X49366801Y-35258625D01*
X49433420Y-35262509D01*
X49459019Y-35271298D01*
X49687951Y-35309500D01*
X49687952Y-35309500D01*
X49920048Y-35309500D01*
X49920049Y-35309500D01*
X50148981Y-35271298D01*
X50368503Y-35195936D01*
X50572626Y-35085470D01*
X50580830Y-35079085D01*
X50644537Y-35029500D01*
X50755784Y-34942913D01*
X50764511Y-34933432D01*
X50824394Y-34897441D01*
X50894232Y-34899538D01*
X50951850Y-34939060D01*
X50971924Y-34974080D01*
X51000645Y-35051086D01*
X51000649Y-35051093D01*
X51086809Y-35166187D01*
X51086812Y-35166190D01*
X51201906Y-35252350D01*
X51201913Y-35252354D01*
X51336620Y-35302596D01*
X51336627Y-35302598D01*
X51396155Y-35308999D01*
X51396172Y-35309000D01*
X52094000Y-35309000D01*
X52094000Y-34283189D01*
X52146547Y-34319016D01*
X52276173Y-34359000D01*
X52377724Y-34359000D01*
X52478138Y-34343865D01*
X52594000Y-34288068D01*
X52594000Y-35309000D01*
X53291828Y-35309000D01*
X53291844Y-35308999D01*
X53351372Y-35302598D01*
X53351379Y-35302596D01*
X53486086Y-35252354D01*
X53486093Y-35252350D01*
X53601187Y-35166190D01*
X53601190Y-35166187D01*
X53687350Y-35051093D01*
X53687354Y-35051086D01*
X53737596Y-34916379D01*
X53737598Y-34916372D01*
X53743999Y-34856844D01*
X53744000Y-34856827D01*
X53744000Y-34159000D01*
X52719278Y-34159000D01*
X52767625Y-34075260D01*
X52797810Y-33943008D01*
X52787673Y-33807735D01*
X52738113Y-33681459D01*
X52720203Y-33659000D01*
X53744000Y-33659000D01*
X53744000Y-32961172D01*
X53743999Y-32961155D01*
X53737598Y-32901627D01*
X53737596Y-32901620D01*
X53687354Y-32766913D01*
X53687350Y-32766906D01*
X53601190Y-32651812D01*
X53601187Y-32651809D01*
X53486093Y-32565649D01*
X53486086Y-32565645D01*
X53351379Y-32515403D01*
X53351372Y-32515401D01*
X53291844Y-32509000D01*
X52594000Y-32509000D01*
X52594000Y-33534810D01*
X52541453Y-33498984D01*
X52411827Y-33459000D01*
X52310276Y-33459000D01*
X52209862Y-33474135D01*
X52094000Y-33529931D01*
X52094000Y-32509000D01*
X51396155Y-32509000D01*
X51336627Y-32515401D01*
X51336620Y-32515403D01*
X51201913Y-32565645D01*
X51201906Y-32565649D01*
X51086812Y-32651809D01*
X51086809Y-32651812D01*
X51000649Y-32766906D01*
X51000646Y-32766911D01*
X50971924Y-32843920D01*
X50930052Y-32899853D01*
X50864588Y-32924270D01*
X50796315Y-32909418D01*
X50764514Y-32884571D01*
X50755784Y-32875087D01*
X50755779Y-32875083D01*
X50755777Y-32875081D01*
X50572634Y-32732535D01*
X50572628Y-32732531D01*
X50368504Y-32622064D01*
X50368495Y-32622061D01*
X50148984Y-32546702D01*
X49961404Y-32515401D01*
X49920049Y-32508500D01*
X49687951Y-32508500D01*
X49666977Y-32512000D01*
X49459015Y-32546702D01*
X49239504Y-32622061D01*
X49239495Y-32622064D01*
X49035371Y-32732531D01*
X49035365Y-32732535D01*
X48852222Y-32875081D01*
X48852219Y-32875084D01*
X48852216Y-32875086D01*
X48852216Y-32875087D01*
X48827791Y-32901620D01*
X48695016Y-33045852D01*
X48568075Y-33240151D01*
X48474842Y-33452699D01*
X48417866Y-33677691D01*
X48417864Y-33677702D01*
X48398700Y-33908993D01*
X48398700Y-33909006D01*
X48417865Y-34140301D01*
X48447508Y-34257360D01*
X48444882Y-34327181D01*
X48404926Y-34384498D01*
X48340325Y-34411114D01*
X48327302Y-34411800D01*
X47367252Y-34411800D01*
X47300213Y-34392115D01*
X47254458Y-34339311D01*
X47244514Y-34270153D01*
X47247475Y-34255714D01*
X47279635Y-34135692D01*
X47298685Y-33917950D01*
X47299468Y-33909001D01*
X47299468Y-33908998D01*
X47284922Y-33742740D01*
X47279635Y-33682308D01*
X47220739Y-33462504D01*
X47124568Y-33256266D01*
X47017687Y-33103623D01*
X46994045Y-33069858D01*
X46833141Y-32908954D01*
X46646734Y-32778432D01*
X46646732Y-32778431D01*
X46440497Y-32682261D01*
X46440488Y-32682258D01*
X46220697Y-32623366D01*
X46220693Y-32623365D01*
X46220692Y-32623365D01*
X46220691Y-32623364D01*
X46220686Y-32623364D01*
X45994002Y-32603532D01*
X45993998Y-32603532D01*
X45767313Y-32623364D01*
X45767302Y-32623366D01*
X45547511Y-32682258D01*
X45547502Y-32682261D01*
X45341267Y-32778431D01*
X45341265Y-32778432D01*
X45154858Y-32908954D01*
X44993954Y-33069858D01*
X44863432Y-33256265D01*
X44863431Y-33256267D01*
X44767261Y-33462502D01*
X44767258Y-33462511D01*
X44708366Y-33682302D01*
X44708364Y-33682313D01*
X44688532Y-33908998D01*
X44688532Y-33909001D01*
X44708364Y-34135686D01*
X44708365Y-34135694D01*
X44714610Y-34159000D01*
X44740522Y-34255707D01*
X44738860Y-34325556D01*
X44699698Y-34383419D01*
X44635469Y-34410923D01*
X44620748Y-34411800D01*
X38399653Y-34411800D01*
X38332614Y-34392115D01*
X38311972Y-34375481D01*
X37461703Y-33525212D01*
X37451880Y-33512950D01*
X37451659Y-33513134D01*
X37446686Y-33507122D01*
X37397676Y-33461099D01*
X37394877Y-33458386D01*
X37375377Y-33438885D01*
X37375371Y-33438880D01*
X37372186Y-33436409D01*
X37363334Y-33428848D01*
X37331482Y-33398938D01*
X37331480Y-33398936D01*
X37331477Y-33398935D01*
X37313929Y-33389288D01*
X37297663Y-33378604D01*
X37281832Y-33366324D01*
X37241749Y-33348978D01*
X37231263Y-33343841D01*
X37192994Y-33322803D01*
X37192992Y-33322802D01*
X37173593Y-33317822D01*
X37155181Y-33311518D01*
X37136798Y-33303562D01*
X37136792Y-33303560D01*
X37093660Y-33296729D01*
X37082222Y-33294361D01*
X37039915Y-33283499D01*
X37032689Y-33282586D01*
X36968646Y-33254653D01*
X36946659Y-33230689D01*
X36857687Y-33103623D01*
X36838574Y-33076326D01*
X36816247Y-33010119D01*
X36833258Y-32942352D01*
X36884206Y-32894540D01*
X36936255Y-32881264D01*
X36953927Y-32880709D01*
X36973169Y-32875117D01*
X36992212Y-32871174D01*
X37012092Y-32868664D01*
X37052701Y-32852585D01*
X37063744Y-32848803D01*
X37105690Y-32836618D01*
X37122929Y-32826422D01*
X37140403Y-32817862D01*
X37159027Y-32810488D01*
X37159027Y-32810487D01*
X37159032Y-32810486D01*
X37194383Y-32784800D01*
X37204114Y-32778408D01*
X37241720Y-32756170D01*
X37255889Y-32741999D01*
X37270679Y-32729368D01*
X37286887Y-32717594D01*
X37314738Y-32683926D01*
X37322579Y-32675309D01*
X38100888Y-31897000D01*
X55456859Y-31897000D01*
X55477378Y-32118439D01*
X55538240Y-32332350D01*
X55637369Y-32531428D01*
X55653137Y-32552308D01*
X55653138Y-32552308D01*
X56308447Y-31897000D01*
X55653138Y-31241691D01*
X55653137Y-31241691D01*
X55637368Y-31262574D01*
X55538240Y-31461649D01*
X55477378Y-31675560D01*
X55456859Y-31896999D01*
X55456859Y-31897000D01*
X38100888Y-31897000D01*
X39107769Y-30890119D01*
X56008671Y-30890119D01*
X56662000Y-31543447D01*
X56662001Y-31543447D01*
X57315327Y-30890119D01*
X57199178Y-30818202D01*
X57199177Y-30818201D01*
X56991804Y-30737865D01*
X56773193Y-30697000D01*
X56550807Y-30697000D01*
X56332195Y-30737865D01*
X56124824Y-30818200D01*
X56124823Y-30818201D01*
X56008671Y-30890119D01*
X39107769Y-30890119D01*
X41452008Y-28545880D01*
X56008672Y-28545880D01*
X56124821Y-28617797D01*
X56124822Y-28617798D01*
X56332195Y-28698134D01*
X56550807Y-28739000D01*
X56773193Y-28739000D01*
X56991809Y-28698133D01*
X57199168Y-28617801D01*
X57199181Y-28617795D01*
X57315326Y-28545879D01*
X56662001Y-27892553D01*
X56662000Y-27892553D01*
X56008672Y-28545879D01*
X56008672Y-28545880D01*
X41452008Y-28545880D01*
X42458888Y-27539000D01*
X55456859Y-27539000D01*
X55477378Y-27760439D01*
X55538240Y-27974350D01*
X55637369Y-28173428D01*
X55653137Y-28194308D01*
X55653138Y-28194308D01*
X56308447Y-27539000D01*
X55653138Y-26883691D01*
X55653137Y-26883691D01*
X55637368Y-26904574D01*
X55538240Y-27103649D01*
X55477378Y-27317560D01*
X55456859Y-27538999D01*
X55456859Y-27539000D01*
X42458888Y-27539000D01*
X48280889Y-21717000D01*
X50625056Y-21717000D01*
X50644788Y-21929954D01*
X50644789Y-21929956D01*
X50703315Y-22135654D01*
X50703321Y-22135669D01*
X50798642Y-22327099D01*
X50798647Y-22327107D01*
X50807980Y-22339465D01*
X51386046Y-21761399D01*
X51398835Y-21842148D01*
X51456359Y-21955045D01*
X51545955Y-22044641D01*
X51658852Y-22102165D01*
X51739599Y-22114953D01*
X51164086Y-22690465D01*
X51267413Y-22754443D01*
X51267414Y-22754444D01*
X51466837Y-22831700D01*
X51677068Y-22871000D01*
X51890932Y-22871000D01*
X52101162Y-22831700D01*
X52300585Y-22754444D01*
X52300589Y-22754442D01*
X52403911Y-22690466D01*
X52403911Y-22690465D01*
X51828401Y-22114953D01*
X51909148Y-22102165D01*
X52022045Y-22044641D01*
X52111641Y-21955045D01*
X52169165Y-21842148D01*
X52181953Y-21761400D01*
X52760018Y-22339464D01*
X52760019Y-22339464D01*
X52769352Y-22327107D01*
X52769355Y-22327102D01*
X52864678Y-22135669D01*
X52864684Y-22135654D01*
X52923210Y-21929956D01*
X52923211Y-21929954D01*
X52942944Y-21717000D01*
X52942944Y-21716999D01*
X52923211Y-21504045D01*
X52923210Y-21504043D01*
X52864684Y-21298345D01*
X52864678Y-21298330D01*
X52769357Y-21106901D01*
X52769355Y-21106898D01*
X52760018Y-21094534D01*
X52181953Y-21672599D01*
X52169165Y-21591852D01*
X52111641Y-21478955D01*
X52022045Y-21389359D01*
X51909148Y-21331835D01*
X51828400Y-21319046D01*
X52403912Y-20743533D01*
X52300586Y-20679556D01*
X52300585Y-20679555D01*
X52101162Y-20602299D01*
X51890932Y-20563000D01*
X51677068Y-20563000D01*
X51466837Y-20602299D01*
X51267416Y-20679554D01*
X51267410Y-20679557D01*
X51164087Y-20743532D01*
X51164086Y-20743533D01*
X51739600Y-21319046D01*
X51658852Y-21331835D01*
X51545955Y-21389359D01*
X51456359Y-21478955D01*
X51398835Y-21591852D01*
X51386046Y-21672599D01*
X50807980Y-21094533D01*
X50798646Y-21106893D01*
X50703321Y-21298330D01*
X50703315Y-21298345D01*
X50644789Y-21504043D01*
X50644788Y-21504045D01*
X50625056Y-21716999D01*
X50625056Y-21717000D01*
X48280889Y-21717000D01*
X58041788Y-11956101D01*
X58054042Y-11946286D01*
X58053859Y-11946064D01*
X58059868Y-11941091D01*
X58059877Y-11941086D01*
X58105949Y-11892022D01*
X58108566Y-11889323D01*
X58128120Y-11869771D01*
X58130576Y-11866603D01*
X58138156Y-11857727D01*
X58168062Y-11825882D01*
X58177713Y-11808324D01*
X58188396Y-11792061D01*
X58200673Y-11776236D01*
X58218021Y-11736144D01*
X58223151Y-11725671D01*
X58244197Y-11687392D01*
X58249180Y-11667980D01*
X58255481Y-11649580D01*
X58263437Y-11631196D01*
X58270270Y-11588048D01*
X58272633Y-11576638D01*
X58283500Y-11534319D01*
X58283500Y-11514283D01*
X58285027Y-11494882D01*
X58288160Y-11475104D01*
X58284050Y-11431624D01*
X58283500Y-11419955D01*
X58283500Y-7194742D01*
X58285224Y-7179122D01*
X58284939Y-7179096D01*
X58285671Y-7171340D01*
X58285673Y-7171333D01*
X58283561Y-7104126D01*
X58283500Y-7100231D01*
X58283500Y-7072654D01*
X58283500Y-7072650D01*
X58282996Y-7068665D01*
X58282080Y-7057021D01*
X58281675Y-7044135D01*
X58280709Y-7013373D01*
X58275122Y-6994144D01*
X58271174Y-6975084D01*
X58268664Y-6955208D01*
X58268663Y-6955206D01*
X58268663Y-6955204D01*
X58252588Y-6914604D01*
X58248804Y-6903552D01*
X58236618Y-6861609D01*
X58236616Y-6861606D01*
X58226423Y-6844371D01*
X58217861Y-6826894D01*
X58210487Y-6808269D01*
X58184816Y-6772937D01*
X58178405Y-6763177D01*
X58156170Y-6725580D01*
X58156168Y-6725578D01*
X58156165Y-6725574D01*
X58142006Y-6711415D01*
X58129368Y-6696619D01*
X58117594Y-6680413D01*
X58083940Y-6652572D01*
X58075299Y-6644709D01*
X57687413Y-6256822D01*
X57653928Y-6195499D01*
X57655319Y-6137048D01*
X57656680Y-6131967D01*
X57673635Y-6068692D01*
X57684223Y-5947670D01*
X57709674Y-5882604D01*
X57766265Y-5841626D01*
X57836027Y-5837747D01*
X57895431Y-5870799D01*
X60447181Y-8422549D01*
X60480666Y-8483872D01*
X60483500Y-8510230D01*
X60483500Y-21780294D01*
X60482191Y-21798263D01*
X60478710Y-21822025D01*
X60483028Y-21871368D01*
X60483500Y-21882176D01*
X60483500Y-21887711D01*
X60487098Y-21918495D01*
X60487464Y-21922083D01*
X60494000Y-21996791D01*
X60495461Y-22003867D01*
X60495403Y-22003878D01*
X60497034Y-22011237D01*
X60497092Y-22011224D01*
X60498757Y-22018249D01*
X60498758Y-22018254D01*
X60498759Y-22018255D01*
X60508362Y-22044641D01*
X60524400Y-22088705D01*
X60525582Y-22092107D01*
X60549182Y-22163326D01*
X60552236Y-22169874D01*
X60552182Y-22169898D01*
X60555470Y-22176688D01*
X60555521Y-22176663D01*
X60558761Y-22183114D01*
X60599979Y-22245784D01*
X60601889Y-22248782D01*
X60631310Y-22296480D01*
X60641289Y-22312658D01*
X60645766Y-22318319D01*
X60645719Y-22318356D01*
X60650482Y-22324202D01*
X60650528Y-22324164D01*
X60655173Y-22329699D01*
X60709708Y-22381150D01*
X60712296Y-22383664D01*
X64976267Y-26647634D01*
X64988048Y-26661266D01*
X65002390Y-26680530D01*
X65040343Y-26712376D01*
X65048319Y-26719686D01*
X65052219Y-26723587D01*
X65076544Y-26742821D01*
X65079340Y-26745099D01*
X65081774Y-26747141D01*
X65136786Y-26793302D01*
X65136794Y-26793306D01*
X65142824Y-26797273D01*
X65142790Y-26797323D01*
X65149137Y-26801366D01*
X65149169Y-26801316D01*
X65155321Y-26805110D01*
X65155322Y-26805110D01*
X65155323Y-26805111D01*
X65175419Y-26814482D01*
X65223294Y-26836806D01*
X65226510Y-26838362D01*
X65293567Y-26872040D01*
X65293576Y-26872042D01*
X65300355Y-26874510D01*
X65300334Y-26874567D01*
X65307451Y-26877040D01*
X65307470Y-26876984D01*
X65314324Y-26879255D01*
X65314325Y-26879255D01*
X65314327Y-26879256D01*
X65387848Y-26894436D01*
X65391209Y-26895181D01*
X65464279Y-26912500D01*
X65464285Y-26912500D01*
X65471452Y-26913338D01*
X65471445Y-26913397D01*
X65478946Y-26914163D01*
X65478952Y-26914104D01*
X65486141Y-26914733D01*
X65486143Y-26914732D01*
X65486144Y-26914733D01*
X65561111Y-26912552D01*
X65564717Y-26912500D01*
X65929337Y-26912500D01*
X65996376Y-26932185D01*
X66030912Y-26965377D01*
X66055954Y-27001141D01*
X66216858Y-27162045D01*
X66227268Y-27169334D01*
X66403266Y-27292568D01*
X66461865Y-27319893D01*
X66514305Y-27366065D01*
X66533457Y-27433258D01*
X66513242Y-27500139D01*
X66461867Y-27544657D01*
X66403515Y-27571867D01*
X66217179Y-27702342D01*
X66056342Y-27863179D01*
X65925865Y-28049517D01*
X65829734Y-28255673D01*
X65829730Y-28255682D01*
X65777127Y-28451999D01*
X65777128Y-28452000D01*
X66740314Y-28452000D01*
X66728359Y-28463955D01*
X66670835Y-28576852D01*
X66651014Y-28702000D01*
X66670835Y-28827148D01*
X66728359Y-28940045D01*
X66740314Y-28952000D01*
X65721953Y-28952000D01*
X65654914Y-28932315D01*
X65634272Y-28915681D01*
X63753303Y-27034712D01*
X63721209Y-26979124D01*
X63703371Y-26912552D01*
X63683575Y-26838670D01*
X63591102Y-26640362D01*
X63591100Y-26640359D01*
X63591099Y-26640357D01*
X63465599Y-26461124D01*
X63403314Y-26398839D01*
X63310877Y-26306402D01*
X63131639Y-26180898D01*
X63131640Y-26180898D01*
X63131638Y-26180897D01*
X63015051Y-26126532D01*
X62933330Y-26088425D01*
X62933326Y-26088424D01*
X62933322Y-26088422D01*
X62721977Y-26031793D01*
X62504002Y-26012723D01*
X62503998Y-26012723D01*
X62358682Y-26025436D01*
X62286023Y-26031793D01*
X62286020Y-26031793D01*
X62074677Y-26088422D01*
X62074668Y-26088426D01*
X61876361Y-26180898D01*
X61876357Y-26180900D01*
X61697121Y-26306402D01*
X61542402Y-26461121D01*
X61452425Y-26589623D01*
X61397848Y-26633248D01*
X61350850Y-26642500D01*
X59201452Y-26642500D01*
X59134413Y-26622815D01*
X59113771Y-26606181D01*
X57880892Y-25373302D01*
X57847407Y-25311979D01*
X57846736Y-25266258D01*
X57846586Y-25266245D01*
X57846715Y-25264846D01*
X57846686Y-25262826D01*
X57847110Y-25260551D01*
X57847115Y-25260536D01*
X57867643Y-25039000D01*
X57866941Y-25031429D01*
X57847115Y-24817464D01*
X57847114Y-24817462D01*
X57836424Y-24779892D01*
X57786229Y-24603472D01*
X57785761Y-24602532D01*
X57687061Y-24404316D01*
X57687056Y-24404308D01*
X57552979Y-24226761D01*
X57388562Y-24076876D01*
X57388560Y-24076874D01*
X57199404Y-23959754D01*
X57199398Y-23959752D01*
X56991940Y-23879382D01*
X56773243Y-23838500D01*
X56550757Y-23838500D01*
X56332060Y-23879382D01*
X56226106Y-23920429D01*
X56124601Y-23959752D01*
X56124595Y-23959754D01*
X55935439Y-24076874D01*
X55935437Y-24076876D01*
X55771020Y-24226761D01*
X55636943Y-24404308D01*
X55636938Y-24404316D01*
X55537775Y-24603461D01*
X55537769Y-24603476D01*
X55476885Y-24817462D01*
X55476884Y-24817464D01*
X55456357Y-25038999D01*
X55456357Y-25039000D01*
X55476884Y-25260535D01*
X55476885Y-25260537D01*
X55537769Y-25474523D01*
X55537775Y-25474538D01*
X55636938Y-25673683D01*
X55636943Y-25673691D01*
X55771020Y-25851238D01*
X55935437Y-26001123D01*
X55935439Y-26001125D01*
X56124595Y-26118245D01*
X56124597Y-26118246D01*
X56124599Y-26118247D01*
X56267587Y-26173641D01*
X56322988Y-26216213D01*
X56346579Y-26281979D01*
X56330868Y-26350060D01*
X56280844Y-26398839D01*
X56267587Y-26404893D01*
X56124833Y-26460196D01*
X56124823Y-26460201D01*
X56008671Y-26532119D01*
X56662000Y-27185447D01*
X56665553Y-27189000D01*
X56632995Y-27189000D01*
X56546784Y-27203386D01*
X56444053Y-27258981D01*
X56364940Y-27344921D01*
X56318018Y-27451892D01*
X56308372Y-27568302D01*
X56337047Y-27681538D01*
X56400936Y-27779327D01*
X56493115Y-27851072D01*
X56603595Y-27889000D01*
X56691005Y-27889000D01*
X56777216Y-27874614D01*
X56879947Y-27819019D01*
X56959060Y-27733079D01*
X57005982Y-27626108D01*
X57013380Y-27536827D01*
X57670861Y-28194308D01*
X57686631Y-28173425D01*
X57686633Y-28173422D01*
X57785759Y-27974350D01*
X57846621Y-27760439D01*
X57867141Y-27539000D01*
X57856928Y-27428794D01*
X57870342Y-27360224D01*
X57918699Y-27309792D01*
X57986645Y-27293509D01*
X58052608Y-27316546D01*
X58068080Y-27329671D01*
X58390197Y-27651788D01*
X58400022Y-27664051D01*
X58400243Y-27663869D01*
X58405211Y-27669874D01*
X58454222Y-27715899D01*
X58457021Y-27718612D01*
X58476522Y-27738114D01*
X58476526Y-27738117D01*
X58476529Y-27738120D01*
X58479702Y-27740581D01*
X58488574Y-27748159D01*
X58520418Y-27778062D01*
X58537976Y-27787714D01*
X58554233Y-27798393D01*
X58570064Y-27810673D01*
X58599803Y-27823542D01*
X58610152Y-27828021D01*
X58620641Y-27833160D01*
X58644457Y-27846252D01*
X58658908Y-27854197D01*
X58671523Y-27857435D01*
X58678305Y-27859177D01*
X58696719Y-27865481D01*
X58715104Y-27873438D01*
X58758261Y-27880273D01*
X58769656Y-27882632D01*
X58811981Y-27893500D01*
X58832016Y-27893500D01*
X58851413Y-27895026D01*
X58871196Y-27898160D01*
X58914675Y-27894050D01*
X58926344Y-27893500D01*
X61350851Y-27893500D01*
X61417890Y-27913185D01*
X61452423Y-27946374D01*
X61542402Y-28074877D01*
X61697123Y-28229598D01*
X61876361Y-28355102D01*
X62074670Y-28447575D01*
X62074676Y-28447576D01*
X62074677Y-28447577D01*
X62091184Y-28452000D01*
X62286023Y-28504207D01*
X62468926Y-28520208D01*
X62503998Y-28523277D01*
X62504000Y-28523277D01*
X62504002Y-28523277D01*
X62532254Y-28520805D01*
X62721977Y-28504207D01*
X62933330Y-28447575D01*
X63131639Y-28355102D01*
X63148082Y-28343587D01*
X63214284Y-28321258D01*
X63282052Y-28338265D01*
X63306889Y-28357479D01*
X65760813Y-30811403D01*
X65794298Y-30872726D01*
X65792907Y-30931176D01*
X65770367Y-31015299D01*
X65770364Y-31015313D01*
X65750532Y-31241998D01*
X65750532Y-31242002D01*
X65765228Y-31409979D01*
X65751461Y-31478479D01*
X65702846Y-31528662D01*
X65634817Y-31544595D01*
X65622302Y-31543259D01*
X65574760Y-31535729D01*
X65563322Y-31533361D01*
X65521020Y-31522500D01*
X65521019Y-31522500D01*
X65500984Y-31522500D01*
X65481586Y-31520973D01*
X65462821Y-31518001D01*
X65461805Y-31517840D01*
X65461804Y-31517840D01*
X65418325Y-31521950D01*
X65406656Y-31522500D01*
X63657150Y-31522500D01*
X63590111Y-31502815D01*
X63555575Y-31469623D01*
X63465599Y-31341124D01*
X63465596Y-31341121D01*
X63310877Y-31186402D01*
X63131639Y-31060898D01*
X63131640Y-31060898D01*
X63131638Y-31060897D01*
X63015179Y-31006592D01*
X62933330Y-30968425D01*
X62933326Y-30968424D01*
X62933322Y-30968422D01*
X62721977Y-30911793D01*
X62504002Y-30892723D01*
X62503998Y-30892723D01*
X62358682Y-30905436D01*
X62286023Y-30911793D01*
X62286020Y-30911793D01*
X62074677Y-30968422D01*
X62074668Y-30968426D01*
X61876361Y-31060898D01*
X61876357Y-31060900D01*
X61697121Y-31186402D01*
X61542402Y-31341121D01*
X61452425Y-31469623D01*
X61397848Y-31513248D01*
X61350850Y-31522500D01*
X59025487Y-31522500D01*
X59009870Y-31520776D01*
X59009843Y-31521062D01*
X59002081Y-31520327D01*
X58934894Y-31522439D01*
X58931000Y-31522500D01*
X58903400Y-31522500D01*
X58899712Y-31522965D01*
X58899399Y-31523005D01*
X58887781Y-31523918D01*
X58844127Y-31525290D01*
X58844117Y-31525292D01*
X58824884Y-31530879D01*
X58805844Y-31534822D01*
X58785967Y-31537334D01*
X58785960Y-31537335D01*
X58785958Y-31537336D01*
X58785956Y-31537336D01*
X58785955Y-31537337D01*
X58745334Y-31553419D01*
X58734287Y-31557201D01*
X58692361Y-31569382D01*
X58692358Y-31569383D01*
X58675113Y-31579581D01*
X58657651Y-31588135D01*
X58639022Y-31595511D01*
X58639017Y-31595514D01*
X58603676Y-31621189D01*
X58593918Y-31627599D01*
X58556330Y-31649828D01*
X58542158Y-31664000D01*
X58527373Y-31676628D01*
X58511162Y-31688407D01*
X58483321Y-31722059D01*
X58475461Y-31730696D01*
X58064838Y-32141319D01*
X58003515Y-32174804D01*
X57933823Y-32169820D01*
X57877890Y-32127948D01*
X57853473Y-32062484D01*
X57853686Y-32042196D01*
X57867141Y-31896999D01*
X57846621Y-31675560D01*
X57785759Y-31461649D01*
X57686635Y-31262580D01*
X57686630Y-31262572D01*
X57670860Y-31241690D01*
X57012987Y-31899564D01*
X57015628Y-31867698D01*
X56986953Y-31754462D01*
X56923064Y-31656673D01*
X56830885Y-31584928D01*
X56720405Y-31547000D01*
X56632995Y-31547000D01*
X56546784Y-31561386D01*
X56444053Y-31616981D01*
X56364940Y-31702921D01*
X56318018Y-31809892D01*
X56308372Y-31926302D01*
X56337047Y-32039538D01*
X56400936Y-32137327D01*
X56493115Y-32209072D01*
X56603595Y-32247000D01*
X56665553Y-32247000D01*
X56662000Y-32250553D01*
X56008672Y-32903879D01*
X56008672Y-32903880D01*
X56124821Y-32975797D01*
X56124822Y-32975798D01*
X56267587Y-33031105D01*
X56322988Y-33073678D01*
X56346579Y-33139445D01*
X56330868Y-33207525D01*
X56280844Y-33256304D01*
X56267587Y-33262359D01*
X56124601Y-33317751D01*
X56124595Y-33317754D01*
X55935439Y-33434874D01*
X55935437Y-33434876D01*
X55771020Y-33584761D01*
X55636943Y-33762308D01*
X55636938Y-33762316D01*
X55537775Y-33961461D01*
X55537769Y-33961476D01*
X55476885Y-34175462D01*
X55476884Y-34175464D01*
X55456357Y-34396999D01*
X55456357Y-34397000D01*
X55476884Y-34618535D01*
X55476885Y-34618537D01*
X55537769Y-34832523D01*
X55537775Y-34832538D01*
X55636938Y-35031683D01*
X55636943Y-35031691D01*
X55771020Y-35209238D01*
X55935437Y-35359123D01*
X55935439Y-35359125D01*
X56124595Y-35476245D01*
X56124596Y-35476245D01*
X56124599Y-35476247D01*
X56332060Y-35556618D01*
X56550757Y-35597500D01*
X56550759Y-35597500D01*
X56773241Y-35597500D01*
X56773243Y-35597500D01*
X56991940Y-35556618D01*
X57199401Y-35476247D01*
X57388562Y-35359124D01*
X57547242Y-35214468D01*
X57552979Y-35209238D01*
X57563025Y-35195936D01*
X57687058Y-35031689D01*
X57786229Y-34832528D01*
X57847115Y-34618536D01*
X57867643Y-34397000D01*
X57848479Y-34190189D01*
X57861894Y-34121622D01*
X57884266Y-34091072D01*
X59165522Y-32809819D01*
X59226845Y-32776334D01*
X59253203Y-32773500D01*
X61350851Y-32773500D01*
X61417890Y-32793185D01*
X61452423Y-32826374D01*
X61542402Y-32954877D01*
X61697123Y-33109598D01*
X61876361Y-33235102D01*
X62074670Y-33327575D01*
X62286023Y-33384207D01*
X62454404Y-33398938D01*
X62503998Y-33403277D01*
X62504000Y-33403277D01*
X62504002Y-33403277D01*
X62532254Y-33400805D01*
X62721977Y-33384207D01*
X62933330Y-33327575D01*
X63131639Y-33235102D01*
X63310877Y-33109598D01*
X63465598Y-32954877D01*
X63555575Y-32826375D01*
X63610151Y-32782752D01*
X63657149Y-32773500D01*
X65131548Y-32773500D01*
X65198587Y-32793185D01*
X65219229Y-32809819D01*
X65760813Y-33351403D01*
X65794298Y-33412726D01*
X65792907Y-33471176D01*
X65770367Y-33555299D01*
X65770364Y-33555313D01*
X65750532Y-33781998D01*
X65750532Y-33782001D01*
X65770364Y-34008686D01*
X65770366Y-34008697D01*
X65829258Y-34228488D01*
X65829261Y-34228497D01*
X65925431Y-34434732D01*
X65925432Y-34434734D01*
X66055954Y-34621141D01*
X66216858Y-34782045D01*
X66216861Y-34782047D01*
X66403266Y-34912568D01*
X66460078Y-34939060D01*
X66461275Y-34939618D01*
X66513714Y-34985791D01*
X66532866Y-35052984D01*
X66512650Y-35119865D01*
X66461275Y-35164381D01*
X66450301Y-35169499D01*
X66403267Y-35191431D01*
X66403265Y-35191432D01*
X66216858Y-35321954D01*
X66055954Y-35482858D01*
X65943387Y-35643623D01*
X65888811Y-35687248D01*
X65841812Y-35696500D01*
X63919043Y-35696500D01*
X63903422Y-35694775D01*
X63903396Y-35695061D01*
X63895634Y-35694327D01*
X63895633Y-35694327D01*
X63833409Y-35696282D01*
X63828427Y-35696439D01*
X63824532Y-35696500D01*
X63796947Y-35696500D01*
X63792961Y-35697003D01*
X63781333Y-35697918D01*
X63737673Y-35699290D01*
X63718429Y-35704881D01*
X63699379Y-35708825D01*
X63679511Y-35711334D01*
X63679510Y-35711334D01*
X63638899Y-35727413D01*
X63627854Y-35731194D01*
X63585914Y-35743379D01*
X63585910Y-35743381D01*
X63568666Y-35753579D01*
X63551205Y-35762133D01*
X63532574Y-35769510D01*
X63532562Y-35769517D01*
X63497233Y-35795185D01*
X63487473Y-35801596D01*
X63449880Y-35823829D01*
X63435714Y-35837995D01*
X63420924Y-35850627D01*
X63404714Y-35862404D01*
X63404711Y-35862407D01*
X63376873Y-35896058D01*
X63369011Y-35904697D01*
X58312708Y-40960999D01*
X58300451Y-40970820D01*
X58300634Y-40971041D01*
X58294622Y-40976014D01*
X58248598Y-41025023D01*
X58245891Y-41027816D01*
X58226389Y-41047317D01*
X58226375Y-41047334D01*
X58223907Y-41050515D01*
X58216343Y-41059370D01*
X58186437Y-41091218D01*
X58186436Y-41091220D01*
X58176784Y-41108776D01*
X58166110Y-41125026D01*
X58153829Y-41140861D01*
X58153824Y-41140868D01*
X58136475Y-41180958D01*
X58131338Y-41191444D01*
X58110303Y-41229706D01*
X58105322Y-41249107D01*
X58099021Y-41267510D01*
X58091062Y-41285902D01*
X58091061Y-41285905D01*
X58084228Y-41329043D01*
X58081860Y-41340474D01*
X58071001Y-41382771D01*
X58071000Y-41382782D01*
X58071000Y-41402816D01*
X58069473Y-41422215D01*
X58066340Y-41441994D01*
X58066340Y-41441995D01*
X58070450Y-41485474D01*
X58071000Y-41497143D01*
X58071000Y-47419047D01*
X58051315Y-47486086D01*
X58034681Y-47506728D01*
X53285428Y-52255981D01*
X53224105Y-52289466D01*
X53197747Y-52292300D01*
X48859369Y-52292300D01*
X48792330Y-52272615D01*
X48746575Y-52219811D01*
X48736631Y-52150653D01*
X48765656Y-52087097D01*
X48766141Y-52086541D01*
X48834989Y-52008034D01*
X49003074Y-51756475D01*
X49003079Y-51756468D01*
X49136881Y-51485144D01*
X49136890Y-51485123D01*
X49234137Y-51198644D01*
X49234140Y-51198630D01*
X49293161Y-50901911D01*
X49293165Y-50901884D01*
X49312952Y-50600007D01*
X49312952Y-50599992D01*
X49293165Y-50298115D01*
X49293161Y-50298088D01*
X49234140Y-50001369D01*
X49234137Y-50001355D01*
X49136890Y-49714876D01*
X49136881Y-49714855D01*
X49003079Y-49443531D01*
X49003074Y-49443524D01*
X48834989Y-49191965D01*
X48800694Y-49152859D01*
X48800693Y-49152858D01*
X48079025Y-49874525D01*
X47999662Y-49761184D01*
X47838816Y-49600338D01*
X47725472Y-49520973D01*
X48447140Y-48799305D01*
X48447140Y-48799304D01*
X48408034Y-48765009D01*
X48156475Y-48596925D01*
X48156468Y-48596920D01*
X47885144Y-48463118D01*
X47885123Y-48463109D01*
X47598644Y-48365862D01*
X47598630Y-48365859D01*
X47301911Y-48306838D01*
X47301884Y-48306834D01*
X47000007Y-48287048D01*
X46999993Y-48287048D01*
X46698115Y-48306834D01*
X46698088Y-48306838D01*
X46401369Y-48365859D01*
X46401355Y-48365862D01*
X46114876Y-48463109D01*
X46114855Y-48463118D01*
X45843531Y-48596920D01*
X45591958Y-48765016D01*
X45552859Y-48799304D01*
X45552859Y-48799306D01*
X46274527Y-49520973D01*
X46161184Y-49600338D01*
X46000338Y-49761184D01*
X45920974Y-49874527D01*
X45199306Y-49152859D01*
X45199304Y-49152859D01*
X45165016Y-49191958D01*
X44996920Y-49443531D01*
X44863118Y-49714855D01*
X44863109Y-49714876D01*
X44765862Y-50001355D01*
X44765859Y-50001369D01*
X44706838Y-50298088D01*
X44706834Y-50298115D01*
X44687048Y-50599992D01*
X44687048Y-50600007D01*
X44706834Y-50901884D01*
X44706838Y-50901911D01*
X44765859Y-51198630D01*
X44765862Y-51198644D01*
X44863109Y-51485123D01*
X44863118Y-51485144D01*
X44996920Y-51756468D01*
X44996925Y-51756475D01*
X45165010Y-52008034D01*
X45233859Y-52086541D01*
X45263262Y-52149923D01*
X45253730Y-52219139D01*
X45208290Y-52272215D01*
X45141369Y-52292298D01*
X45140631Y-52292300D01*
X36210252Y-52292300D01*
X36143213Y-52272615D01*
X36122571Y-52255981D01*
X35663271Y-51796681D01*
X35629786Y-51735358D01*
X35634770Y-51665666D01*
X35676642Y-51609733D01*
X35742106Y-51585316D01*
X35750952Y-51585000D01*
X35907270Y-51585000D01*
X36199063Y-51544893D01*
X36199069Y-51544892D01*
X36482685Y-51465426D01*
X36752827Y-51348088D01*
X37004493Y-51195046D01*
X37004502Y-51195040D01*
X37095473Y-51121026D01*
X36376040Y-50401593D01*
X36534686Y-50281790D01*
X36677644Y-50124973D01*
X36726928Y-50045375D01*
X37451160Y-50769607D01*
X37603863Y-50553278D01*
X37739370Y-50291760D01*
X37838003Y-50014235D01*
X37838008Y-50014218D01*
X37897930Y-49725854D01*
X37897931Y-49725852D01*
X37918030Y-49432000D01*
X37897931Y-49138147D01*
X37897930Y-49138145D01*
X37838008Y-48849781D01*
X37838003Y-48849764D01*
X37739370Y-48572239D01*
X37603863Y-48310720D01*
X37603859Y-48310714D01*
X37451161Y-48094391D01*
X36726928Y-48818623D01*
X36677644Y-48739027D01*
X36534686Y-48582210D01*
X36376040Y-48462406D01*
X37095474Y-47742972D01*
X37004493Y-47668953D01*
X36752827Y-47515911D01*
X36482685Y-47398573D01*
X36199069Y-47319107D01*
X36199063Y-47319106D01*
X35907270Y-47279000D01*
X35612730Y-47279000D01*
X35320936Y-47319106D01*
X35320930Y-47319107D01*
X35037314Y-47398573D01*
X34767172Y-47515911D01*
X34515503Y-47668955D01*
X34515499Y-47668958D01*
X34424524Y-47742971D01*
X34424524Y-47742972D01*
X35143959Y-48462406D01*
X34985314Y-48582210D01*
X34842356Y-48739027D01*
X34793071Y-48818623D01*
X34068838Y-48094390D01*
X33916133Y-48310726D01*
X33780629Y-48572239D01*
X33681996Y-48849764D01*
X33681991Y-48849781D01*
X33622069Y-49138145D01*
X33622068Y-49138147D01*
X33601969Y-49432000D01*
X33601969Y-49436016D01*
X33582284Y-49503055D01*
X33529480Y-49548810D01*
X33460322Y-49558754D01*
X33396766Y-49529729D01*
X33390288Y-49523697D01*
X31431919Y-47565328D01*
X31398434Y-47504005D01*
X31403418Y-47434313D01*
X31420339Y-47403329D01*
X31425866Y-47395947D01*
X31481803Y-47354080D01*
X31551495Y-47349101D01*
X31608666Y-47378628D01*
X31624348Y-47392924D01*
X31813266Y-47509897D01*
X31813272Y-47509900D01*
X32020473Y-47590169D01*
X32238899Y-47631000D01*
X32461101Y-47631000D01*
X32679525Y-47590169D01*
X32679535Y-47590166D01*
X32886729Y-47509899D01*
X32886731Y-47509898D01*
X33002601Y-47438153D01*
X32433837Y-46869389D01*
X32482647Y-46862033D01*
X32603509Y-46803829D01*
X32701844Y-46712587D01*
X32768917Y-46596413D01*
X32787323Y-46515770D01*
X33358147Y-47086594D01*
X33373776Y-47065898D01*
X33373783Y-47065886D01*
X33472817Y-46866999D01*
X33472825Y-46866979D01*
X33533633Y-46653261D01*
X33533634Y-46653259D01*
X33554137Y-46432000D01*
X33554137Y-46431999D01*
X33533634Y-46210740D01*
X33533633Y-46210738D01*
X33472825Y-45997020D01*
X33472819Y-45997005D01*
X33373781Y-45798110D01*
X33373776Y-45798103D01*
X33358146Y-45777404D01*
X32789785Y-46345766D01*
X32788743Y-46331860D01*
X32739734Y-46206987D01*
X32656095Y-46102108D01*
X32545259Y-46026541D01*
X32435700Y-45992746D01*
X33002601Y-45425845D01*
X33002600Y-45425844D01*
X32886733Y-45354102D01*
X32886727Y-45354099D01*
X32754552Y-45302895D01*
X32699151Y-45260322D01*
X32675560Y-45194555D01*
X32691271Y-45126475D01*
X32741295Y-45077696D01*
X32754548Y-45071642D01*
X32886954Y-45020349D01*
X33075957Y-44903323D01*
X33240239Y-44753560D01*
X33374205Y-44576161D01*
X33473292Y-44377166D01*
X33534128Y-44163352D01*
X33554639Y-43942000D01*
X33551521Y-43908356D01*
X33534128Y-43720648D01*
X33500152Y-43601237D01*
X33473292Y-43506834D01*
X33467650Y-43495504D01*
X33409802Y-43379328D01*
X33374205Y-43307839D01*
X33309382Y-43222000D01*
X33240237Y-43130437D01*
X33075958Y-42980678D01*
X33075957Y-42980677D01*
X32886954Y-42863651D01*
X32886952Y-42863650D01*
X32886951Y-42863649D01*
X32679668Y-42783348D01*
X32679667Y-42783347D01*
X32679665Y-42783347D01*
X32461150Y-42742500D01*
X32238850Y-42742500D01*
X32020335Y-42783347D01*
X32020333Y-42783347D01*
X32020331Y-42783348D01*
X31813048Y-42863649D01*
X31813047Y-42863650D01*
X31624041Y-42980678D01*
X31459762Y-43130437D01*
X31325795Y-43307838D01*
X31226712Y-43506823D01*
X31226707Y-43506836D01*
X31165871Y-43720648D01*
X31145361Y-43941999D01*
X31145361Y-43942000D01*
X31165871Y-44163351D01*
X31226707Y-44377163D01*
X31226712Y-44377176D01*
X31325795Y-44576161D01*
X31459762Y-44753562D01*
X31525403Y-44813401D01*
X31624043Y-44903323D01*
X31813046Y-45020349D01*
X31945447Y-45071641D01*
X32000848Y-45114214D01*
X32024439Y-45179981D01*
X32008728Y-45248061D01*
X31958704Y-45296840D01*
X31945447Y-45302894D01*
X31813281Y-45354095D01*
X31813266Y-45354102D01*
X31624346Y-45471076D01*
X31624344Y-45471078D01*
X31608663Y-45485373D01*
X31545858Y-45515989D01*
X31476471Y-45507789D01*
X31425861Y-45468046D01*
X31377944Y-45404038D01*
X31356546Y-45375454D01*
X31356544Y-45375453D01*
X31356544Y-45375452D01*
X31241335Y-45289206D01*
X31241328Y-45289202D01*
X31106482Y-45238908D01*
X31106483Y-45238908D01*
X31046883Y-45232501D01*
X31046881Y-45232500D01*
X31046873Y-45232500D01*
X31046864Y-45232500D01*
X29553129Y-45232500D01*
X29553123Y-45232501D01*
X29493516Y-45238908D01*
X29358671Y-45289202D01*
X29358664Y-45289206D01*
X29243455Y-45375452D01*
X29243452Y-45375455D01*
X29157206Y-45490664D01*
X29157202Y-45490671D01*
X29106908Y-45625517D01*
X29100501Y-45685116D01*
X29100500Y-45685135D01*
X29100500Y-46082193D01*
X29080815Y-46149232D01*
X29028011Y-46194987D01*
X28958853Y-46204931D01*
X28895297Y-46175906D01*
X28857523Y-46117128D01*
X28857234Y-46116128D01*
X28856655Y-46114093D01*
X28823292Y-45996834D01*
X28818395Y-45987000D01*
X28753414Y-45856500D01*
X28724205Y-45797839D01*
X28607171Y-45642861D01*
X28590237Y-45620437D01*
X28425958Y-45470678D01*
X28425957Y-45470677D01*
X28236954Y-45353651D01*
X28236952Y-45353650D01*
X28236951Y-45353649D01*
X28029668Y-45273348D01*
X28029667Y-45273347D01*
X28029665Y-45273347D01*
X27811150Y-45232500D01*
X27588850Y-45232500D01*
X27370335Y-45273347D01*
X27370333Y-45273347D01*
X27370331Y-45273348D01*
X27163048Y-45353649D01*
X27163047Y-45353650D01*
X26974041Y-45470678D01*
X26809762Y-45620437D01*
X26773954Y-45667856D01*
X26717845Y-45709492D01*
X26648133Y-45714183D01*
X26586951Y-45680441D01*
X26576046Y-45667856D01*
X26540237Y-45620437D01*
X26375958Y-45470678D01*
X26375957Y-45470677D01*
X26186954Y-45353651D01*
X26186952Y-45353650D01*
X26186951Y-45353649D01*
X26082635Y-45313237D01*
X26055244Y-45302626D01*
X25999844Y-45260054D01*
X25976253Y-45194287D01*
X25991964Y-45126207D01*
X26041988Y-45077428D01*
X26055241Y-45071374D01*
X26186954Y-45020349D01*
X26375957Y-44903323D01*
X26540239Y-44753560D01*
X26674205Y-44576161D01*
X26773292Y-44377166D01*
X26834128Y-44163352D01*
X26854639Y-43942000D01*
X26851521Y-43908356D01*
X26834128Y-43720648D01*
X26800152Y-43601237D01*
X26773292Y-43506834D01*
X26767650Y-43495504D01*
X26709802Y-43379328D01*
X26674205Y-43307839D01*
X26609382Y-43222000D01*
X26540237Y-43130437D01*
X26375958Y-42980678D01*
X26375957Y-42980677D01*
X26186954Y-42863651D01*
X26186952Y-42863650D01*
X26186951Y-42863649D01*
X25979668Y-42783348D01*
X25979667Y-42783347D01*
X25979665Y-42783347D01*
X25761150Y-42742500D01*
X25538850Y-42742500D01*
X25320335Y-42783347D01*
X25320333Y-42783347D01*
X25320331Y-42783348D01*
X25113048Y-42863649D01*
X25113047Y-42863650D01*
X24924041Y-42980678D01*
X24759762Y-43130437D01*
X24625795Y-43307838D01*
X24526712Y-43506823D01*
X24526707Y-43506836D01*
X24465871Y-43720648D01*
X24445361Y-43941999D01*
X24445361Y-43942000D01*
X24465871Y-44163351D01*
X24526707Y-44377163D01*
X24526712Y-44377176D01*
X24625795Y-44576161D01*
X24759762Y-44753562D01*
X24825403Y-44813401D01*
X24924043Y-44903323D01*
X25113046Y-45020349D01*
X25113047Y-45020349D01*
X25113048Y-45020350D01*
X25244754Y-45071373D01*
X25300156Y-45113946D01*
X25323746Y-45179713D01*
X25308035Y-45247793D01*
X25258011Y-45296572D01*
X25244754Y-45302627D01*
X25113048Y-45353649D01*
X25113047Y-45353650D01*
X24924041Y-45470678D01*
X24759762Y-45620437D01*
X24625795Y-45797838D01*
X24526712Y-45996823D01*
X24526707Y-45996836D01*
X24465871Y-46210648D01*
X24445361Y-46431999D01*
X24445361Y-46432000D01*
X24465871Y-46653351D01*
X24526707Y-46867163D01*
X24526712Y-46867176D01*
X24625795Y-47066161D01*
X24759762Y-47243562D01*
X24901088Y-47372397D01*
X24924043Y-47393323D01*
X25113046Y-47510349D01*
X25113047Y-47510349D01*
X25113048Y-47510350D01*
X25180934Y-47536649D01*
X25320335Y-47590653D01*
X25538850Y-47631500D01*
X25538853Y-47631500D01*
X25761147Y-47631500D01*
X25761150Y-47631500D01*
X25979665Y-47590653D01*
X26186954Y-47510349D01*
X26375957Y-47393323D01*
X26540239Y-47243560D01*
X26576047Y-47196142D01*
X26632154Y-47154508D01*
X26701866Y-47149815D01*
X26763048Y-47183557D01*
X26773946Y-47196134D01*
X26809761Y-47243560D01*
X26974043Y-47393323D01*
X27163046Y-47510349D01*
X27163047Y-47510349D01*
X27163048Y-47510350D01*
X27230934Y-47536649D01*
X27370335Y-47590653D01*
X27588850Y-47631500D01*
X27588853Y-47631500D01*
X27811147Y-47631500D01*
X27811150Y-47631500D01*
X28029665Y-47590653D01*
X28236954Y-47510349D01*
X28425957Y-47393323D01*
X28590239Y-47243560D01*
X28724205Y-47066161D01*
X28823292Y-46867166D01*
X28857235Y-46747868D01*
X28894513Y-46688778D01*
X28957822Y-46659220D01*
X29027062Y-46668582D01*
X29080249Y-46713891D01*
X29100496Y-46780763D01*
X29100500Y-46781805D01*
X29100500Y-47178870D01*
X29100501Y-47178876D01*
X29106908Y-47238483D01*
X29157202Y-47373328D01*
X29157206Y-47373335D01*
X29243452Y-47488544D01*
X29243455Y-47488547D01*
X29358664Y-47574793D01*
X29358671Y-47574797D01*
X29399878Y-47590166D01*
X29493517Y-47625091D01*
X29553127Y-47631500D01*
X29687976Y-47631499D01*
X29755015Y-47651183D01*
X29794707Y-47692376D01*
X29801830Y-47704420D01*
X29801831Y-47704421D01*
X29801833Y-47704424D01*
X29815990Y-47718580D01*
X29828628Y-47733376D01*
X29840405Y-47749586D01*
X29840406Y-47749587D01*
X29874057Y-47777425D01*
X29882698Y-47785288D01*
X30361213Y-48263803D01*
X30394698Y-48325126D01*
X30389714Y-48394818D01*
X30347842Y-48450751D01*
X30282378Y-48475168D01*
X30214105Y-48460316D01*
X30209104Y-48457432D01*
X29992833Y-48325914D01*
X29992828Y-48325912D01*
X29722685Y-48208573D01*
X29439069Y-48129107D01*
X29439063Y-48129106D01*
X29147270Y-48089000D01*
X28852730Y-48089000D01*
X28560936Y-48129106D01*
X28560930Y-48129107D01*
X28277314Y-48208573D01*
X28007172Y-48325911D01*
X27755503Y-48478955D01*
X27755499Y-48478958D01*
X27664524Y-48552971D01*
X27664524Y-48552972D01*
X28383959Y-49272406D01*
X28225314Y-49392210D01*
X28082356Y-49549027D01*
X28033071Y-49628623D01*
X27308838Y-48904390D01*
X27156133Y-49120726D01*
X27020629Y-49382239D01*
X26921996Y-49659764D01*
X26921991Y-49659781D01*
X26862069Y-49948145D01*
X26862068Y-49948147D01*
X26841969Y-50242000D01*
X26862068Y-50535852D01*
X26862069Y-50535854D01*
X26921991Y-50824218D01*
X26921996Y-50824235D01*
X27020629Y-51101760D01*
X27156136Y-51363279D01*
X27156140Y-51363285D01*
X27308838Y-51579608D01*
X28033071Y-50855375D01*
X28082356Y-50934973D01*
X28225314Y-51091790D01*
X28383958Y-51211592D01*
X27664524Y-51931026D01*
X27755506Y-52005046D01*
X28007172Y-52158088D01*
X28277314Y-52275426D01*
X28560930Y-52354892D01*
X28560936Y-52354893D01*
X28852730Y-52395000D01*
X29147270Y-52395000D01*
X29439063Y-52354893D01*
X29439069Y-52354892D01*
X29722685Y-52275426D01*
X29992827Y-52158088D01*
X30244493Y-52005046D01*
X30244502Y-52005040D01*
X30335473Y-51931026D01*
X29616040Y-51211593D01*
X29774686Y-51091790D01*
X29917644Y-50934973D01*
X29966928Y-50855375D01*
X30691160Y-51579607D01*
X30843863Y-51363278D01*
X30979370Y-51101760D01*
X31078003Y-50824235D01*
X31078008Y-50824218D01*
X31137930Y-50535854D01*
X31137931Y-50535852D01*
X31158030Y-50242000D01*
X31137931Y-49948147D01*
X31137930Y-49948145D01*
X31078008Y-49659781D01*
X31078003Y-49659764D01*
X30979370Y-49382239D01*
X30843863Y-49120721D01*
X30781241Y-49032006D01*
X30758662Y-48965885D01*
X30775415Y-48898053D01*
X30826181Y-48850047D01*
X30894842Y-48837108D01*
X30959599Y-48863344D01*
X30970224Y-48872814D01*
X32963280Y-50865871D01*
X34885728Y-52788319D01*
X34919213Y-52849642D01*
X34914229Y-52919334D01*
X34872357Y-52975267D01*
X34806893Y-52999684D01*
X34798047Y-53000000D01*
X10051362Y-53000000D01*
X9984323Y-52980315D01*
X9963681Y-52963681D01*
X6432000Y-49432000D01*
X20081969Y-49432000D01*
X20102068Y-49725852D01*
X20102069Y-49725854D01*
X20161991Y-50014218D01*
X20161996Y-50014235D01*
X20260629Y-50291760D01*
X20396136Y-50553279D01*
X20396140Y-50553285D01*
X20548838Y-50769608D01*
X21273071Y-50045375D01*
X21322356Y-50124973D01*
X21465314Y-50281790D01*
X21623958Y-50401592D01*
X20904524Y-51121026D01*
X20995506Y-51195046D01*
X21247172Y-51348088D01*
X21517314Y-51465426D01*
X21800930Y-51544892D01*
X21800936Y-51544893D01*
X22092730Y-51585000D01*
X22387270Y-51585000D01*
X22679063Y-51544893D01*
X22679069Y-51544892D01*
X22962685Y-51465426D01*
X23232827Y-51348088D01*
X23484493Y-51195046D01*
X23484502Y-51195040D01*
X23575473Y-51121026D01*
X22856040Y-50401593D01*
X23014686Y-50281790D01*
X23157644Y-50124973D01*
X23206928Y-50045375D01*
X23931160Y-50769607D01*
X24083863Y-50553278D01*
X24219370Y-50291760D01*
X24318003Y-50014235D01*
X24318008Y-50014218D01*
X24377930Y-49725854D01*
X24377931Y-49725852D01*
X24398030Y-49432000D01*
X24377931Y-49138147D01*
X24377930Y-49138145D01*
X24318008Y-48849781D01*
X24318003Y-48849764D01*
X24219370Y-48572239D01*
X24083863Y-48310720D01*
X24083859Y-48310714D01*
X23931161Y-48094391D01*
X23206928Y-48818623D01*
X23157644Y-48739027D01*
X23014686Y-48582210D01*
X22856040Y-48462406D01*
X23575474Y-47742972D01*
X23484493Y-47668953D01*
X23232827Y-47515911D01*
X22962685Y-47398573D01*
X22679069Y-47319107D01*
X22679063Y-47319106D01*
X22387270Y-47279000D01*
X22092730Y-47279000D01*
X21800936Y-47319106D01*
X21800930Y-47319107D01*
X21517314Y-47398573D01*
X21247172Y-47515911D01*
X20995503Y-47668955D01*
X20995499Y-47668958D01*
X20904524Y-47742971D01*
X20904524Y-47742972D01*
X21623959Y-48462406D01*
X21465314Y-48582210D01*
X21322356Y-48739027D01*
X21273071Y-48818623D01*
X20548838Y-48094390D01*
X20396133Y-48310726D01*
X20260629Y-48572239D01*
X20161996Y-48849764D01*
X20161991Y-48849781D01*
X20102069Y-49138145D01*
X20102068Y-49138147D01*
X20081969Y-49432000D01*
X6432000Y-49432000D01*
X4222599Y-47222599D01*
X9754976Y-47222599D01*
X9754978Y-47222600D01*
X10818314Y-47222600D01*
X10806359Y-47234555D01*
X10748835Y-47347452D01*
X10729014Y-47472600D01*
X10748835Y-47597748D01*
X10806359Y-47710645D01*
X10818314Y-47722600D01*
X9754977Y-47722600D01*
X9774916Y-47842092D01*
X9855630Y-48077203D01*
X9855635Y-48077214D01*
X9973942Y-48295828D01*
X9973948Y-48295837D01*
X10126626Y-48491997D01*
X10126635Y-48492007D01*
X10309522Y-48660367D01*
X10309521Y-48660367D01*
X10517632Y-48796332D01*
X10745282Y-48896187D01*
X10986261Y-48957212D01*
X10986269Y-48957214D01*
X11171945Y-48972599D01*
X11171961Y-48972600D01*
X11984000Y-48972600D01*
X11984000Y-47872600D01*
X12484000Y-47872600D01*
X12484000Y-48972600D01*
X13296039Y-48972600D01*
X13296054Y-48972599D01*
X13481730Y-48957214D01*
X13481738Y-48957212D01*
X13722717Y-48896187D01*
X13950367Y-48796332D01*
X14158478Y-48660367D01*
X14341364Y-48492007D01*
X14341373Y-48491997D01*
X14494051Y-48295837D01*
X14494057Y-48295828D01*
X14612364Y-48077214D01*
X14612369Y-48077203D01*
X14693083Y-47842092D01*
X14713023Y-47722600D01*
X13649686Y-47722600D01*
X13661641Y-47710645D01*
X13719165Y-47597748D01*
X13738986Y-47472600D01*
X13719165Y-47347452D01*
X13661641Y-47234555D01*
X13649686Y-47222600D01*
X14713022Y-47222600D01*
X14713023Y-47222599D01*
X14693083Y-47103107D01*
X14612369Y-46867996D01*
X14612364Y-46867985D01*
X14494057Y-46649371D01*
X14494051Y-46649362D01*
X14341373Y-46453202D01*
X14341364Y-46453192D01*
X14158477Y-46284832D01*
X14158478Y-46284832D01*
X13950367Y-46148867D01*
X13722717Y-46049012D01*
X13481738Y-45987987D01*
X13481730Y-45987985D01*
X13296054Y-45972600D01*
X12484000Y-45972600D01*
X12484000Y-47072600D01*
X11984000Y-47072600D01*
X11984000Y-45972600D01*
X11171945Y-45972600D01*
X10986269Y-45987985D01*
X10986261Y-45987987D01*
X10745282Y-46049012D01*
X10517632Y-46148867D01*
X10309521Y-46284832D01*
X10126635Y-46453192D01*
X10126626Y-46453202D01*
X9973948Y-46649362D01*
X9973942Y-46649371D01*
X9855635Y-46867985D01*
X9855630Y-46867996D01*
X9774916Y-47103107D01*
X9754976Y-47222599D01*
X4222599Y-47222599D01*
X3876680Y-46876680D01*
X3843195Y-46815357D01*
X3848179Y-46745665D01*
X3890051Y-46689732D01*
X3955515Y-46665315D01*
X3964335Y-46664999D01*
X5893872Y-46664999D01*
X5953483Y-46658591D01*
X6088331Y-46608296D01*
X6203546Y-46522046D01*
X6289796Y-46406831D01*
X6340091Y-46271983D01*
X6346500Y-46212373D01*
X6346499Y-45211805D01*
X15359000Y-45211805D01*
X15373759Y-45404038D01*
X15373759Y-45404043D01*
X15432361Y-45654465D01*
X15528503Y-45893015D01*
X15659936Y-46114093D01*
X15823574Y-46312516D01*
X16015583Y-46483635D01*
X16231465Y-46623437D01*
X16466156Y-46728648D01*
X16714150Y-46796798D01*
X16714156Y-46796800D01*
X16783999Y-46804863D01*
X16784000Y-46804863D01*
X16784000Y-45638286D01*
X16795955Y-45650241D01*
X16908852Y-45707765D01*
X17034000Y-45727586D01*
X17159148Y-45707765D01*
X17272045Y-45650241D01*
X17284000Y-45638286D01*
X17284000Y-46805323D01*
X17479151Y-46767476D01*
X17479153Y-46767476D01*
X17721201Y-46680543D01*
X17947158Y-46557671D01*
X18151695Y-46401759D01*
X18330046Y-46216442D01*
X18330049Y-46216438D01*
X18478016Y-46006074D01*
X18592137Y-45775587D01*
X18592138Y-45775584D01*
X18669737Y-45530381D01*
X18709000Y-45276192D01*
X18709000Y-44222600D01*
X17434000Y-44222600D01*
X17434000Y-43722600D01*
X18709000Y-43722600D01*
X18709000Y-42733400D01*
X18708999Y-42733394D01*
X18694240Y-42541161D01*
X18694240Y-42541156D01*
X18635638Y-42290734D01*
X18539496Y-42052184D01*
X18408063Y-41831106D01*
X18244425Y-41632683D01*
X18052416Y-41461564D01*
X17836534Y-41321762D01*
X17601843Y-41216551D01*
X17353846Y-41148400D01*
X17353844Y-41148399D01*
X17284000Y-41140336D01*
X17284000Y-42306914D01*
X17272045Y-42294959D01*
X17159148Y-42237435D01*
X17034000Y-42217614D01*
X16908852Y-42237435D01*
X16795955Y-42294959D01*
X16784000Y-42306914D01*
X16784000Y-41139875D01*
X16588846Y-41177723D01*
X16346798Y-41264656D01*
X16120841Y-41387528D01*
X15916304Y-41543440D01*
X15737953Y-41728757D01*
X15737950Y-41728761D01*
X15589983Y-41939125D01*
X15475862Y-42169612D01*
X15475861Y-42169615D01*
X15398262Y-42414818D01*
X15359000Y-42669007D01*
X15359000Y-43722600D01*
X16634000Y-43722600D01*
X16634000Y-44222600D01*
X15359000Y-44222600D01*
X15359000Y-45211805D01*
X6346499Y-45211805D01*
X6346499Y-44211628D01*
X6340091Y-44152017D01*
X6319382Y-44096494D01*
X6289797Y-44017171D01*
X6289793Y-44017164D01*
X6203547Y-43901955D01*
X6203544Y-43901952D01*
X6088335Y-43815706D01*
X6088326Y-43815701D01*
X6057196Y-43804091D01*
X6001262Y-43762221D01*
X5976844Y-43696757D01*
X5991695Y-43628484D01*
X6002675Y-43611746D01*
X6113653Y-43469162D01*
X6113655Y-43469159D01*
X6228215Y-43257468D01*
X6228221Y-43257454D01*
X6306380Y-43029791D01*
X6324367Y-42922000D01*
X5340852Y-42922000D01*
X5389559Y-42784953D01*
X5399877Y-42634114D01*
X5369116Y-42486085D01*
X5335910Y-42422000D01*
X6324366Y-42422000D01*
X6324366Y-42421999D01*
X6306380Y-42314208D01*
X6228221Y-42086545D01*
X6228215Y-42086531D01*
X6113655Y-41874840D01*
X6113649Y-41874831D01*
X5965806Y-41684883D01*
X5965797Y-41684873D01*
X5870272Y-41596935D01*
X9733500Y-41596935D01*
X9747143Y-41678694D01*
X9774429Y-41842216D01*
X9855169Y-42077402D01*
X9855172Y-42077411D01*
X9973524Y-42296106D01*
X9973526Y-42296109D01*
X10126262Y-42492344D01*
X10270367Y-42625002D01*
X10309217Y-42660766D01*
X10517393Y-42796773D01*
X10745118Y-42896663D01*
X10866555Y-42927415D01*
X10986179Y-42957708D01*
X10986181Y-42957708D01*
X10986186Y-42957709D01*
X11139589Y-42970419D01*
X11171933Y-42973100D01*
X11171937Y-42973100D01*
X13296063Y-42973100D01*
X13296067Y-42973100D01*
X13358677Y-42967911D01*
X13481813Y-42957709D01*
X13481816Y-42957708D01*
X13481821Y-42957708D01*
X13722881Y-42896663D01*
X13950607Y-42796773D01*
X14158785Y-42660764D01*
X14341738Y-42492344D01*
X14494474Y-42296109D01*
X14612828Y-42077410D01*
X14693571Y-41842214D01*
X14734500Y-41596935D01*
X14734500Y-41348265D01*
X14693571Y-41102986D01*
X14612828Y-40867790D01*
X14494474Y-40649091D01*
X14341738Y-40452856D01*
X14158785Y-40284436D01*
X14158782Y-40284433D01*
X13950606Y-40148426D01*
X13722881Y-40048536D01*
X13481824Y-39987492D01*
X13481813Y-39987490D01*
X13296077Y-39972100D01*
X13296067Y-39972100D01*
X11171933Y-39972100D01*
X11171922Y-39972100D01*
X10986186Y-39987490D01*
X10986175Y-39987492D01*
X10745118Y-40048536D01*
X10517393Y-40148426D01*
X10309217Y-40284433D01*
X10126261Y-40452857D01*
X9973524Y-40649093D01*
X9855172Y-40867788D01*
X9855169Y-40867797D01*
X9774429Y-41102983D01*
X9735744Y-41334818D01*
X9733500Y-41348265D01*
X9733500Y-41596935D01*
X5870272Y-41596935D01*
X5788710Y-41521851D01*
X5788704Y-41521847D01*
X5764611Y-41506106D01*
X5719255Y-41452959D01*
X5709832Y-41383728D01*
X5739335Y-41320392D01*
X5764608Y-41298493D01*
X5789010Y-41282551D01*
X5966171Y-41119463D01*
X6059078Y-41000095D01*
X6113373Y-40930338D01*
X6170083Y-40889525D01*
X6211226Y-40882500D01*
X7409884Y-40882500D01*
X7427859Y-40883810D01*
X7429884Y-40884106D01*
X7451599Y-40887288D01*
X7500961Y-40882970D01*
X7511764Y-40882500D01*
X7517304Y-40882500D01*
X7517309Y-40882500D01*
X7548115Y-40878898D01*
X7551626Y-40878539D01*
X7626374Y-40872003D01*
X7626379Y-40872001D01*
X7626382Y-40872001D01*
X7633452Y-40870542D01*
X7633464Y-40870600D01*
X7640844Y-40868963D01*
X7640831Y-40868905D01*
X7647846Y-40867242D01*
X7647855Y-40867241D01*
X7718352Y-40841581D01*
X7721668Y-40840428D01*
X7792912Y-40816824D01*
X7792922Y-40816817D01*
X7799461Y-40813770D01*
X7799486Y-40813824D01*
X7806291Y-40810529D01*
X7806265Y-40810477D01*
X7812717Y-40807237D01*
X7875399Y-40766009D01*
X7878365Y-40764119D01*
X7942236Y-40724727D01*
X7942243Y-40724719D01*
X7947902Y-40720246D01*
X7947939Y-40720293D01*
X7953799Y-40715520D01*
X7953761Y-40715474D01*
X7959290Y-40710834D01*
X7959290Y-40710833D01*
X7959296Y-40710830D01*
X8010810Y-40656227D01*
X8013253Y-40653713D01*
X12235973Y-36431265D01*
X13421500Y-35245815D01*
X13482824Y-35212332D01*
X13509178Y-35209499D01*
X14544471Y-35209499D01*
X14544472Y-35209499D01*
X14604083Y-35203091D01*
X14738931Y-35152796D01*
X14854146Y-35066546D01*
X14940396Y-34951331D01*
X14990691Y-34816483D01*
X14997100Y-34756873D01*
X14997099Y-34756845D01*
X14997278Y-34753547D01*
X14998783Y-34753627D01*
X15016712Y-34692326D01*
X15069468Y-34646514D01*
X15113065Y-34638981D01*
X15798646Y-33953400D01*
X15811435Y-34034148D01*
X15868959Y-34147045D01*
X15958555Y-34236641D01*
X16071452Y-34294165D01*
X16152199Y-34306953D01*
X15471126Y-34988025D01*
X15544113Y-35039132D01*
X15544121Y-35039136D01*
X15750268Y-35135264D01*
X15750282Y-35135269D01*
X15969989Y-35194139D01*
X15970000Y-35194141D01*
X16196598Y-35213966D01*
X16196602Y-35213966D01*
X16423199Y-35194141D01*
X16423210Y-35194139D01*
X16642917Y-35135269D01*
X16642931Y-35135264D01*
X16849078Y-35039136D01*
X16922071Y-34988024D01*
X16241000Y-34306953D01*
X16321748Y-34294165D01*
X16434645Y-34236641D01*
X16524241Y-34147045D01*
X16581765Y-34034148D01*
X16594553Y-33953400D01*
X17275624Y-34634471D01*
X17326736Y-34561478D01*
X17422864Y-34355331D01*
X17422869Y-34355317D01*
X17481739Y-34135610D01*
X17481741Y-34135599D01*
X17501566Y-33909002D01*
X17501566Y-33908997D01*
X17481741Y-33682400D01*
X17481739Y-33682389D01*
X17422869Y-33462682D01*
X17422865Y-33462673D01*
X17326733Y-33256516D01*
X17326729Y-33256510D01*
X17289698Y-33203624D01*
X17267370Y-33137418D01*
X17284380Y-33069651D01*
X17335327Y-33021837D01*
X17391272Y-33008500D01*
X20737337Y-33008500D01*
X20804376Y-33028185D01*
X20838912Y-33061377D01*
X20863954Y-33097141D01*
X21024859Y-33258046D01*
X21060621Y-33283086D01*
X21104247Y-33337662D01*
X21113500Y-33384662D01*
X21113500Y-35957336D01*
X21093815Y-36024375D01*
X21060625Y-36058910D01*
X21024863Y-36083951D01*
X20863951Y-36244862D01*
X20733432Y-36431265D01*
X20733431Y-36431267D01*
X20637261Y-36637502D01*
X20637258Y-36637511D01*
X20578366Y-36857302D01*
X20578364Y-36857313D01*
X20558532Y-37083998D01*
X20558532Y-37084001D01*
X20578364Y-37310686D01*
X20578366Y-37310697D01*
X20637258Y-37530488D01*
X20637261Y-37530497D01*
X20733431Y-37736732D01*
X20733432Y-37736734D01*
X20863954Y-37923141D01*
X21024858Y-38084045D01*
X21024861Y-38084047D01*
X21211266Y-38214568D01*
X21417504Y-38310739D01*
X21637308Y-38369635D01*
X21799230Y-38383801D01*
X21863998Y-38389468D01*
X21864000Y-38389468D01*
X21864002Y-38389468D01*
X21920673Y-38384509D01*
X22090692Y-38369635D01*
X22310496Y-38310739D01*
X22516734Y-38214568D01*
X22703139Y-38084047D01*
X22864047Y-37923139D01*
X22994568Y-37736734D01*
X23090739Y-37530496D01*
X23149635Y-37310692D01*
X23169468Y-37084000D01*
X23149635Y-36857308D01*
X23090739Y-36637504D01*
X22994568Y-36431266D01*
X22864047Y-36244861D01*
X22703139Y-36083953D01*
X22698373Y-36080615D01*
X22667375Y-36058910D01*
X22623751Y-36004332D01*
X22614500Y-35957336D01*
X22614500Y-33384662D01*
X22634185Y-33317623D01*
X22667379Y-33283086D01*
X22673443Y-33278840D01*
X22703139Y-33258047D01*
X22864047Y-33097139D01*
X22994568Y-32910734D01*
X23090739Y-32704496D01*
X23149635Y-32484692D01*
X23169468Y-32258000D01*
X23168816Y-32250553D01*
X23156817Y-32113396D01*
X23149635Y-32031308D01*
X23090739Y-31811504D01*
X22994568Y-31605266D01*
X22864047Y-31418861D01*
X22864045Y-31418858D01*
X22703141Y-31257954D01*
X22516734Y-31127432D01*
X22516732Y-31127431D01*
X22310497Y-31031261D01*
X22310488Y-31031258D01*
X22090697Y-30972366D01*
X22090693Y-30972365D01*
X22090692Y-30972365D01*
X22090691Y-30972364D01*
X22090686Y-30972364D01*
X21864002Y-30952532D01*
X21863998Y-30952532D01*
X21637313Y-30972364D01*
X21637302Y-30972366D01*
X21417511Y-31031258D01*
X21417502Y-31031261D01*
X21211267Y-31127431D01*
X21211265Y-31127432D01*
X21024858Y-31257954D01*
X20863954Y-31418858D01*
X20838912Y-31454623D01*
X20784335Y-31498248D01*
X20737337Y-31507500D01*
X15411705Y-31507500D01*
X15393735Y-31506191D01*
X15369972Y-31502710D01*
X15322843Y-31506834D01*
X15320630Y-31507028D01*
X15309824Y-31507500D01*
X15304284Y-31507500D01*
X15273501Y-31511098D01*
X15269916Y-31511464D01*
X15195199Y-31518001D01*
X15188132Y-31519460D01*
X15188120Y-31519404D01*
X15180763Y-31521035D01*
X15180777Y-31521092D01*
X15173740Y-31522760D01*
X15103231Y-31548421D01*
X15099854Y-31549595D01*
X15076904Y-31557201D01*
X15028668Y-31573185D01*
X15022126Y-31576236D01*
X15022101Y-31576183D01*
X15015308Y-31579471D01*
X15015334Y-31579523D01*
X15008880Y-31582764D01*
X14946221Y-31623975D01*
X14943181Y-31625912D01*
X14879348Y-31665285D01*
X14873683Y-31669765D01*
X14873647Y-31669719D01*
X14867798Y-31674484D01*
X14867835Y-31674528D01*
X14862305Y-31679168D01*
X14810833Y-31733724D01*
X14808321Y-31736310D01*
X14034750Y-32509880D01*
X14031105Y-32513126D01*
X14028865Y-32515365D01*
X14025650Y-32517984D01*
X14024040Y-32519418D01*
X14022129Y-32520931D01*
X14022091Y-32520883D01*
X14016198Y-32525684D01*
X14016235Y-32525728D01*
X14010705Y-32530367D01*
X13973696Y-32569595D01*
X13913373Y-32604849D01*
X13883503Y-32608500D01*
X13509189Y-32608500D01*
X13442150Y-32588815D01*
X13421510Y-32572183D01*
X13408324Y-32558998D01*
X8281071Y-27432001D01*
X20558532Y-27432001D01*
X20578364Y-27658686D01*
X20578366Y-27658697D01*
X20637258Y-27878488D01*
X20637261Y-27878497D01*
X20733431Y-28084732D01*
X20733432Y-28084734D01*
X20863954Y-28271141D01*
X21024858Y-28432045D01*
X21024861Y-28432047D01*
X21211266Y-28562568D01*
X21417504Y-28658739D01*
X21637308Y-28717635D01*
X21794791Y-28731413D01*
X21863998Y-28737468D01*
X21864000Y-28737468D01*
X21864002Y-28737468D01*
X21920673Y-28732509D01*
X22090692Y-28717635D01*
X22159048Y-28699319D01*
X22228897Y-28700982D01*
X22278822Y-28731413D01*
X28475197Y-34927788D01*
X28485022Y-34940051D01*
X28485243Y-34939869D01*
X28490211Y-34945874D01*
X28490213Y-34945876D01*
X28490214Y-34945877D01*
X28535097Y-34988025D01*
X28539222Y-34991899D01*
X28542021Y-34994612D01*
X28561522Y-35014114D01*
X28561526Y-35014117D01*
X28561529Y-35014120D01*
X28564702Y-35016581D01*
X28573574Y-35024159D01*
X28605418Y-35054062D01*
X28622976Y-35063714D01*
X28639233Y-35074393D01*
X28655064Y-35086673D01*
X28674910Y-35095261D01*
X28695152Y-35104021D01*
X28705641Y-35109160D01*
X28725114Y-35119865D01*
X28743908Y-35130197D01*
X28756523Y-35133435D01*
X28763305Y-35135177D01*
X28781719Y-35141481D01*
X28800104Y-35149438D01*
X28843261Y-35156273D01*
X28854656Y-35158632D01*
X28896981Y-35169500D01*
X28917016Y-35169500D01*
X28936413Y-35171026D01*
X28956196Y-35174160D01*
X28999675Y-35170050D01*
X29011344Y-35169500D01*
X31967548Y-35169500D01*
X32034587Y-35189185D01*
X32055229Y-35205819D01*
X32465886Y-35616476D01*
X32499371Y-35677799D01*
X32494387Y-35747491D01*
X32452515Y-35803424D01*
X32387051Y-35827841D01*
X32346112Y-35823932D01*
X32250697Y-35798366D01*
X32250693Y-35798365D01*
X32250692Y-35798365D01*
X32250691Y-35798364D01*
X32250686Y-35798364D01*
X32024002Y-35778532D01*
X32023998Y-35778532D01*
X31797313Y-35798364D01*
X31797302Y-35798366D01*
X31577511Y-35857258D01*
X31577502Y-35857261D01*
X31371267Y-35953431D01*
X31371265Y-35953432D01*
X31184858Y-36083954D01*
X31023954Y-36244858D01*
X30893432Y-36431265D01*
X30893431Y-36431267D01*
X30797261Y-36637502D01*
X30797258Y-36637511D01*
X30738366Y-36857302D01*
X30738364Y-36857313D01*
X30718532Y-37083998D01*
X30718532Y-37084001D01*
X30738364Y-37310686D01*
X30738366Y-37310697D01*
X30797258Y-37530488D01*
X30797261Y-37530497D01*
X30893431Y-37736732D01*
X30893432Y-37736734D01*
X31023954Y-37923141D01*
X31184858Y-38084045D01*
X31184861Y-38084047D01*
X31371266Y-38214568D01*
X31577504Y-38310739D01*
X31797308Y-38369635D01*
X31959230Y-38383801D01*
X32023998Y-38389468D01*
X32024000Y-38389468D01*
X32024002Y-38389468D01*
X32080673Y-38384509D01*
X32250692Y-38369635D01*
X32470496Y-38310739D01*
X32676734Y-38214568D01*
X32863139Y-38084047D01*
X33024047Y-37923139D01*
X33154568Y-37736734D01*
X33250739Y-37530496D01*
X33309635Y-37310692D01*
X33329468Y-37084000D01*
X33309635Y-36857308D01*
X33284067Y-36761886D01*
X33285730Y-36692038D01*
X33324892Y-36634175D01*
X33389121Y-36606671D01*
X33458023Y-36618257D01*
X33491522Y-36642112D01*
X37161554Y-40312145D01*
X40797953Y-43948544D01*
X40831438Y-44009867D01*
X40826454Y-44079559D01*
X40784582Y-44135492D01*
X40779163Y-44139327D01*
X40591657Y-44264614D01*
X40364141Y-44464141D01*
X40164615Y-44691657D01*
X39996494Y-44943268D01*
X39996485Y-44943283D01*
X39862655Y-45214663D01*
X39862646Y-45214684D01*
X39765378Y-45501225D01*
X39765375Y-45501239D01*
X39710443Y-45777404D01*
X39706339Y-45798034D01*
X39686547Y-46100000D01*
X39706339Y-46401966D01*
X39765376Y-46698766D01*
X39765378Y-46698773D01*
X39765380Y-46698779D01*
X39862644Y-46985312D01*
X39862648Y-46985322D01*
X39996488Y-47256722D01*
X39996492Y-47256729D01*
X40164612Y-47508339D01*
X40364141Y-47735858D01*
X40591660Y-47935387D01*
X40843270Y-48103507D01*
X40843277Y-48103511D01*
X41114677Y-48237351D01*
X41114687Y-48237355D01*
X41286971Y-48295837D01*
X41401234Y-48334624D01*
X41698034Y-48393661D01*
X42000000Y-48413453D01*
X42301966Y-48393661D01*
X42598766Y-48334624D01*
X42807398Y-48263803D01*
X42885312Y-48237355D01*
X42885322Y-48237351D01*
X43035099Y-48163489D01*
X43156727Y-48103509D01*
X43408341Y-47935386D01*
X43635858Y-47735858D01*
X43835386Y-47508341D01*
X44003509Y-47256727D01*
X44137352Y-46985320D01*
X44147086Y-46956643D01*
X44187274Y-46899489D01*
X44251982Y-46873134D01*
X44264506Y-46872500D01*
X49735494Y-46872500D01*
X49802533Y-46892185D01*
X49848288Y-46944989D01*
X49852914Y-46956644D01*
X49862646Y-46985317D01*
X49862648Y-46985322D01*
X49996488Y-47256722D01*
X49996492Y-47256729D01*
X50164612Y-47508339D01*
X50364141Y-47735858D01*
X50591660Y-47935387D01*
X50843270Y-48103507D01*
X50843277Y-48103511D01*
X51114677Y-48237351D01*
X51114687Y-48237355D01*
X51286971Y-48295837D01*
X51401234Y-48334624D01*
X51698034Y-48393661D01*
X52000000Y-48413453D01*
X52301966Y-48393661D01*
X52598766Y-48334624D01*
X52807398Y-48263803D01*
X52885312Y-48237355D01*
X52885322Y-48237351D01*
X53035099Y-48163489D01*
X53156727Y-48103509D01*
X53408341Y-47935386D01*
X53635858Y-47735858D01*
X53835386Y-47508341D01*
X54003509Y-47256727D01*
X54137352Y-46985320D01*
X54150814Y-46945664D01*
X54187544Y-46837459D01*
X54234624Y-46698766D01*
X54293661Y-46401966D01*
X54313453Y-46100000D01*
X54293661Y-45798034D01*
X54234624Y-45501234D01*
X54137352Y-45214680D01*
X54136516Y-45212984D01*
X54003514Y-44943283D01*
X54003505Y-44943268D01*
X53976813Y-44903321D01*
X53835386Y-44691659D01*
X53750383Y-44594732D01*
X53635858Y-44464141D01*
X53408339Y-44264612D01*
X53156729Y-44096492D01*
X53156722Y-44096488D01*
X52885322Y-43962648D01*
X52885312Y-43962644D01*
X52598779Y-43865380D01*
X52598773Y-43865378D01*
X52598766Y-43865376D01*
X52301966Y-43806339D01*
X52000000Y-43786547D01*
X51698034Y-43806339D01*
X51698028Y-43806340D01*
X51698023Y-43806341D01*
X51401239Y-43865375D01*
X51401225Y-43865378D01*
X51114684Y-43962646D01*
X51114663Y-43962655D01*
X50843283Y-44096485D01*
X50843268Y-44096494D01*
X50591657Y-44264615D01*
X50364141Y-44464141D01*
X50164615Y-44691657D01*
X49996494Y-44943268D01*
X49996485Y-44943283D01*
X49862655Y-45214663D01*
X49862646Y-45214684D01*
X49765374Y-45501237D01*
X49765372Y-45501245D01*
X49761306Y-45521691D01*
X49728921Y-45583602D01*
X49668206Y-45618176D01*
X49639689Y-45621500D01*
X44360311Y-45621500D01*
X44293272Y-45601815D01*
X44247517Y-45549011D01*
X44238694Y-45521691D01*
X44234627Y-45501245D01*
X44234625Y-45501237D01*
X44209033Y-45425845D01*
X44137352Y-45214680D01*
X44136516Y-45212984D01*
X44003514Y-44943283D01*
X44003505Y-44943268D01*
X43976813Y-44903321D01*
X43835386Y-44691659D01*
X43750383Y-44594732D01*
X43635858Y-44464141D01*
X43408339Y-44264612D01*
X43156729Y-44096492D01*
X43156722Y-44096488D01*
X42885322Y-43962648D01*
X42885312Y-43962644D01*
X42598778Y-43865379D01*
X42598758Y-43865374D01*
X42492354Y-43844209D01*
X42430443Y-43811824D01*
X42428864Y-43810273D01*
X32778803Y-34160212D01*
X32768980Y-34147950D01*
X32768759Y-34148134D01*
X32763786Y-34142122D01*
X32714776Y-34096099D01*
X32711977Y-34093386D01*
X32692477Y-34073885D01*
X32692471Y-34073880D01*
X32689286Y-34071409D01*
X32680434Y-34063848D01*
X32648582Y-34033938D01*
X32648580Y-34033936D01*
X32648577Y-34033935D01*
X32631029Y-34024288D01*
X32614763Y-34013604D01*
X32610458Y-34010265D01*
X32598936Y-34001327D01*
X32598935Y-34001326D01*
X32598932Y-34001324D01*
X32558849Y-33983978D01*
X32548363Y-33978841D01*
X32510094Y-33957803D01*
X32510092Y-33957802D01*
X32490693Y-33952822D01*
X32472281Y-33946518D01*
X32453898Y-33938562D01*
X32453892Y-33938560D01*
X32410760Y-33931729D01*
X32399322Y-33929361D01*
X32357020Y-33918500D01*
X32357019Y-33918500D01*
X32336984Y-33918500D01*
X32317586Y-33916973D01*
X32310162Y-33915797D01*
X32297805Y-33913840D01*
X32297804Y-33913840D01*
X32254325Y-33917950D01*
X32242656Y-33918500D01*
X29286452Y-33918500D01*
X29219413Y-33898815D01*
X29198771Y-33882181D01*
X23163413Y-27846822D01*
X23129928Y-27785499D01*
X23131319Y-27727048D01*
X23144863Y-27676500D01*
X23149635Y-27658692D01*
X23169468Y-27432001D01*
X30718532Y-27432001D01*
X30738364Y-27658686D01*
X30738366Y-27658697D01*
X30797258Y-27878488D01*
X30797261Y-27878497D01*
X30893431Y-28084732D01*
X30893432Y-28084734D01*
X31023954Y-28271141D01*
X31184858Y-28432045D01*
X31184861Y-28432047D01*
X31371266Y-28562568D01*
X31577504Y-28658739D01*
X31797308Y-28717635D01*
X31954791Y-28731413D01*
X32023998Y-28737468D01*
X32024000Y-28737468D01*
X32024002Y-28737468D01*
X32080673Y-28732509D01*
X32250692Y-28717635D01*
X32470496Y-28658739D01*
X32676734Y-28562568D01*
X32863139Y-28432047D01*
X33024047Y-28271139D01*
X33154568Y-28084734D01*
X33250739Y-27878496D01*
X33309635Y-27658692D01*
X33329468Y-27432000D01*
X33328272Y-27418335D01*
X33317803Y-27298673D01*
X33309635Y-27205308D01*
X33250739Y-26985504D01*
X33154568Y-26779266D01*
X33024047Y-26592861D01*
X33024045Y-26592858D01*
X32863141Y-26431954D01*
X32676734Y-26301432D01*
X32676732Y-26301431D01*
X32470497Y-26205261D01*
X32470488Y-26205258D01*
X32250697Y-26146366D01*
X32250693Y-26146365D01*
X32250692Y-26146365D01*
X32250691Y-26146364D01*
X32250686Y-26146364D01*
X32024002Y-26126532D01*
X32023998Y-26126532D01*
X31797313Y-26146364D01*
X31797302Y-26146366D01*
X31577511Y-26205258D01*
X31577502Y-26205261D01*
X31371267Y-26301431D01*
X31371265Y-26301432D01*
X31184858Y-26431954D01*
X31023954Y-26592858D01*
X30893432Y-26779265D01*
X30893431Y-26779267D01*
X30797261Y-26985502D01*
X30797258Y-26985511D01*
X30738366Y-27205302D01*
X30738364Y-27205313D01*
X30718532Y-27431998D01*
X30718532Y-27432001D01*
X23169468Y-27432001D01*
X23169468Y-27432000D01*
X23168272Y-27418335D01*
X23157803Y-27298673D01*
X23149635Y-27205308D01*
X23090739Y-26985504D01*
X22994568Y-26779266D01*
X22864047Y-26592861D01*
X22864045Y-26592858D01*
X22703140Y-26431953D01*
X22542377Y-26319386D01*
X22498752Y-26264809D01*
X22489500Y-26217811D01*
X22489500Y-23820188D01*
X22509185Y-23753149D01*
X22542377Y-23718613D01*
X22641224Y-23649400D01*
X22703139Y-23606047D01*
X22864047Y-23445139D01*
X22994568Y-23258734D01*
X23090739Y-23052496D01*
X23149635Y-22832692D01*
X23169468Y-22606001D01*
X30718532Y-22606001D01*
X30738364Y-22832686D01*
X30738366Y-22832697D01*
X30797258Y-23052488D01*
X30797261Y-23052497D01*
X30893431Y-23258732D01*
X30893432Y-23258734D01*
X31023954Y-23445141D01*
X31184858Y-23606045D01*
X31186870Y-23607454D01*
X31371266Y-23736568D01*
X31577504Y-23832739D01*
X31577509Y-23832740D01*
X31577511Y-23832741D01*
X31597750Y-23838164D01*
X31797308Y-23891635D01*
X31959230Y-23905801D01*
X32023998Y-23911468D01*
X32024000Y-23911468D01*
X32024002Y-23911468D01*
X32080673Y-23906509D01*
X32250692Y-23891635D01*
X32470496Y-23832739D01*
X32676734Y-23736568D01*
X32863139Y-23606047D01*
X33024047Y-23445139D01*
X33154568Y-23258734D01*
X33250739Y-23052496D01*
X33309635Y-22832692D01*
X33329468Y-22606000D01*
X33328143Y-22590860D01*
X33320029Y-22498112D01*
X33309635Y-22379308D01*
X33250739Y-22159504D01*
X33154568Y-21953266D01*
X33024047Y-21766861D01*
X33024045Y-21766858D01*
X32863141Y-21605954D01*
X32676734Y-21475432D01*
X32676732Y-21475431D01*
X32470497Y-21379261D01*
X32470488Y-21379258D01*
X32250697Y-21320366D01*
X32250693Y-21320365D01*
X32250692Y-21320365D01*
X32250691Y-21320364D01*
X32250686Y-21320364D01*
X32024002Y-21300532D01*
X32023998Y-21300532D01*
X31797313Y-21320364D01*
X31797302Y-21320366D01*
X31577511Y-21379258D01*
X31577502Y-21379261D01*
X31371267Y-21475431D01*
X31371265Y-21475432D01*
X31184858Y-21605954D01*
X31023954Y-21766858D01*
X30893432Y-21953265D01*
X30893431Y-21953267D01*
X30797261Y-22159502D01*
X30797258Y-22159511D01*
X30738366Y-22379302D01*
X30738364Y-22379313D01*
X30718532Y-22605998D01*
X30718532Y-22606001D01*
X23169468Y-22606001D01*
X23169468Y-22606000D01*
X23168143Y-22590860D01*
X23160029Y-22498112D01*
X23149635Y-22379308D01*
X23090739Y-22159504D01*
X22994568Y-21953266D01*
X22864047Y-21766861D01*
X22864045Y-21766858D01*
X22703141Y-21605954D01*
X22516734Y-21475432D01*
X22516732Y-21475431D01*
X22310497Y-21379261D01*
X22310488Y-21379258D01*
X22090697Y-21320366D01*
X22090693Y-21320365D01*
X22090692Y-21320365D01*
X22090691Y-21320364D01*
X22090686Y-21320364D01*
X21864002Y-21300532D01*
X21863998Y-21300532D01*
X21637313Y-21320364D01*
X21637302Y-21320366D01*
X21417511Y-21379258D01*
X21417502Y-21379261D01*
X21211267Y-21475431D01*
X21211265Y-21475432D01*
X21024858Y-21605954D01*
X20863954Y-21766858D01*
X20733432Y-21953265D01*
X20733431Y-21953267D01*
X20637261Y-22159502D01*
X20637258Y-22159511D01*
X20578366Y-22379302D01*
X20578364Y-22379313D01*
X20558532Y-22605998D01*
X20558532Y-22606001D01*
X20578364Y-22832686D01*
X20578366Y-22832697D01*
X20637258Y-23052488D01*
X20637261Y-23052497D01*
X20733431Y-23258732D01*
X20733432Y-23258734D01*
X20863954Y-23445141D01*
X21024858Y-23606045D01*
X21185623Y-23718613D01*
X21229248Y-23773189D01*
X21238500Y-23820188D01*
X21238500Y-26217811D01*
X21218815Y-26284850D01*
X21185623Y-26319386D01*
X21024859Y-26431953D01*
X20863954Y-26592858D01*
X20733432Y-26779265D01*
X20733431Y-26779267D01*
X20637261Y-26985502D01*
X20637258Y-26985511D01*
X20578366Y-27205302D01*
X20578364Y-27205313D01*
X20558532Y-27431998D01*
X20558532Y-27432001D01*
X8281071Y-27432001D01*
X6461849Y-25612870D01*
X12443700Y-25612870D01*
X12443701Y-25612876D01*
X12450108Y-25672483D01*
X12500402Y-25807328D01*
X12500406Y-25807335D01*
X12586652Y-25922544D01*
X12586655Y-25922547D01*
X12701864Y-26008793D01*
X12701871Y-26008797D01*
X12836717Y-26059091D01*
X12836716Y-26059091D01*
X12843644Y-26059835D01*
X12896327Y-26065500D01*
X14592072Y-26065499D01*
X14651683Y-26059091D01*
X14786531Y-26008796D01*
X14901746Y-25922546D01*
X14987996Y-25807331D01*
X15038291Y-25672483D01*
X15044700Y-25612873D01*
X15044699Y-25612845D01*
X15044878Y-25609547D01*
X15046383Y-25609627D01*
X15064312Y-25548326D01*
X15117068Y-25502514D01*
X15160665Y-25494981D01*
X15846246Y-24809400D01*
X15859035Y-24890148D01*
X15916559Y-25003045D01*
X16006155Y-25092641D01*
X16119052Y-25150165D01*
X16199799Y-25162953D01*
X15518726Y-25844025D01*
X15591713Y-25895132D01*
X15591721Y-25895136D01*
X15797868Y-25991264D01*
X15797882Y-25991269D01*
X16017589Y-26050139D01*
X16017600Y-26050141D01*
X16244198Y-26069966D01*
X16244202Y-26069966D01*
X16470799Y-26050141D01*
X16470810Y-26050139D01*
X16690517Y-25991269D01*
X16690531Y-25991264D01*
X16896678Y-25895136D01*
X16969671Y-25844024D01*
X16288600Y-25162953D01*
X16369348Y-25150165D01*
X16482245Y-25092641D01*
X16571841Y-25003045D01*
X16629365Y-24890148D01*
X16642153Y-24809400D01*
X17323224Y-25490471D01*
X17374336Y-25417478D01*
X17470464Y-25211331D01*
X17470469Y-25211317D01*
X17529339Y-24991610D01*
X17529341Y-24991599D01*
X17549166Y-24765002D01*
X17549166Y-24764997D01*
X17529341Y-24538400D01*
X17529339Y-24538389D01*
X17470469Y-24318682D01*
X17470464Y-24318668D01*
X17374336Y-24112521D01*
X17374332Y-24112513D01*
X17323225Y-24039526D01*
X16642153Y-24720598D01*
X16629365Y-24639852D01*
X16571841Y-24526955D01*
X16482245Y-24437359D01*
X16369348Y-24379835D01*
X16288601Y-24367046D01*
X16969672Y-23685974D01*
X16896678Y-23634863D01*
X16690531Y-23538735D01*
X16690517Y-23538730D01*
X16470810Y-23479860D01*
X16470799Y-23479858D01*
X16244202Y-23460034D01*
X16244198Y-23460034D01*
X16017600Y-23479858D01*
X16017589Y-23479860D01*
X15797882Y-23538730D01*
X15797873Y-23538734D01*
X15591716Y-23634866D01*
X15591712Y-23634868D01*
X15518726Y-23685973D01*
X15518726Y-23685974D01*
X16199799Y-24367046D01*
X16119052Y-24379835D01*
X16006155Y-24437359D01*
X15916559Y-24526955D01*
X15859035Y-24639852D01*
X15846246Y-24720598D01*
X15159999Y-24034351D01*
X15111005Y-24024505D01*
X15060822Y-23975889D01*
X15046181Y-23920366D01*
X15045100Y-23920423D01*
X15045054Y-23920429D01*
X15045053Y-23920426D01*
X15044876Y-23920436D01*
X15044699Y-23917135D01*
X15044699Y-23917128D01*
X15038291Y-23857517D01*
X15035001Y-23848697D01*
X14987997Y-23722671D01*
X14987993Y-23722664D01*
X14901747Y-23607455D01*
X14901744Y-23607452D01*
X14786535Y-23521206D01*
X14786528Y-23521202D01*
X14651682Y-23470908D01*
X14651683Y-23470908D01*
X14592083Y-23464501D01*
X14592081Y-23464500D01*
X14592073Y-23464500D01*
X14592064Y-23464500D01*
X12896329Y-23464500D01*
X12896323Y-23464501D01*
X12836716Y-23470908D01*
X12701871Y-23521202D01*
X12701864Y-23521206D01*
X12586655Y-23607452D01*
X12586652Y-23607455D01*
X12500406Y-23722664D01*
X12500402Y-23722671D01*
X12450108Y-23857517D01*
X12444308Y-23911468D01*
X12443701Y-23917123D01*
X12443700Y-23917135D01*
X12443700Y-25612870D01*
X6461849Y-25612870D01*
X6355484Y-25506510D01*
X6329729Y-25466083D01*
X6329027Y-25466411D01*
X6306209Y-25417478D01*
X6230568Y-25255266D01*
X6100047Y-25068861D01*
X6100045Y-25068858D01*
X5939141Y-24907954D01*
X5752734Y-24777432D01*
X5752732Y-24777431D01*
X5546497Y-24681261D01*
X5546488Y-24681258D01*
X5326697Y-24622366D01*
X5326693Y-24622365D01*
X5326692Y-24622365D01*
X5326691Y-24622364D01*
X5326686Y-24622364D01*
X5100002Y-24602532D01*
X5099998Y-24602532D01*
X4873313Y-24622364D01*
X4873302Y-24622366D01*
X4653511Y-24681258D01*
X4653502Y-24681261D01*
X4447267Y-24777431D01*
X4447265Y-24777432D01*
X4260858Y-24907954D01*
X4099954Y-25068858D01*
X3969432Y-25255265D01*
X3969431Y-25255267D01*
X3873261Y-25461502D01*
X3873258Y-25461511D01*
X3814366Y-25681302D01*
X3814364Y-25681313D01*
X3794532Y-25907998D01*
X3794532Y-25908001D01*
X3814364Y-26134686D01*
X3814366Y-26134697D01*
X3873258Y-26354488D01*
X3873261Y-26354497D01*
X3969431Y-26560732D01*
X3969432Y-26560734D01*
X4099954Y-26747141D01*
X4260858Y-26908045D01*
X4267295Y-26912552D01*
X4447266Y-27038568D01*
X4653504Y-27134739D01*
X4873308Y-27193635D01*
X5035230Y-27207801D01*
X5099998Y-27213468D01*
X5100000Y-27213468D01*
X5100002Y-27213468D01*
X5156673Y-27208509D01*
X5326692Y-27193635D01*
X5546496Y-27134739D01*
X5682296Y-27071413D01*
X5751371Y-27060922D01*
X5815155Y-27089441D01*
X5822378Y-27096113D01*
X5931573Y-27205302D01*
X6677808Y-27951500D01*
X6704662Y-27978352D01*
X6738149Y-28039674D01*
X6733166Y-28109366D01*
X6691296Y-28165300D01*
X6661777Y-28181661D01*
X6583201Y-28212101D01*
X6583186Y-28212108D01*
X6401286Y-28324736D01*
X6401283Y-28324738D01*
X6401279Y-28324740D01*
X6401278Y-28324742D01*
X6365367Y-28357479D01*
X6243157Y-28468887D01*
X6198954Y-28527422D01*
X6142844Y-28569058D01*
X6073132Y-28573749D01*
X6011951Y-28540007D01*
X6001046Y-28527422D01*
X5956842Y-28468887D01*
X5951432Y-28463955D01*
X5798722Y-28324742D01*
X5798716Y-28324738D01*
X5798713Y-28324736D01*
X5616813Y-28212108D01*
X5616807Y-28212106D01*
X5417297Y-28134815D01*
X5206980Y-28095500D01*
X4993020Y-28095500D01*
X4782703Y-28134815D01*
X4683032Y-28173428D01*
X4583192Y-28212106D01*
X4583186Y-28212108D01*
X4401286Y-28324736D01*
X4401277Y-28324743D01*
X4368405Y-28354709D01*
X4305601Y-28385325D01*
X4236214Y-28377125D01*
X4185603Y-28337382D01*
X4111546Y-28238454D01*
X4088709Y-28221358D01*
X3996335Y-28152206D01*
X3996328Y-28152202D01*
X3861482Y-28101908D01*
X3861483Y-28101908D01*
X3801883Y-28095501D01*
X3801881Y-28095500D01*
X3801873Y-28095500D01*
X3801864Y-28095500D01*
X2398129Y-28095500D01*
X2398123Y-28095501D01*
X2338516Y-28101908D01*
X2203671Y-28152202D01*
X2203668Y-28152204D01*
X2198311Y-28156215D01*
X2132846Y-28180632D01*
X2064573Y-28165780D01*
X2015168Y-28116375D01*
X2000000Y-28056948D01*
X2000000Y-17780001D01*
X20558532Y-17780001D01*
X20578364Y-18006686D01*
X20578366Y-18006697D01*
X20637258Y-18226488D01*
X20637261Y-18226497D01*
X20733431Y-18432732D01*
X20733432Y-18432734D01*
X20863954Y-18619141D01*
X21024858Y-18780045D01*
X21024861Y-18780047D01*
X21211266Y-18910568D01*
X21417504Y-19006739D01*
X21637308Y-19065635D01*
X21799230Y-19079801D01*
X21863998Y-19085468D01*
X21864000Y-19085468D01*
X21864002Y-19085468D01*
X21920673Y-19080509D01*
X22090692Y-19065635D01*
X22310496Y-19006739D01*
X22516734Y-18910568D01*
X22703139Y-18780047D01*
X22864047Y-18619139D01*
X22994568Y-18432734D01*
X23090739Y-18226496D01*
X23149635Y-18006692D01*
X23169468Y-17780000D01*
X23149635Y-17553308D01*
X23096996Y-17356855D01*
X23090741Y-17333511D01*
X23090738Y-17333502D01*
X23062059Y-17272000D01*
X22994568Y-17127266D01*
X22864047Y-16940861D01*
X22864045Y-16940858D01*
X22703141Y-16779954D01*
X22516734Y-16649432D01*
X22516732Y-16649431D01*
X22310497Y-16553261D01*
X22310488Y-16553258D01*
X22090697Y-16494366D01*
X22090693Y-16494365D01*
X22090692Y-16494365D01*
X22090691Y-16494364D01*
X22090686Y-16494364D01*
X21864002Y-16474532D01*
X21863998Y-16474532D01*
X21637313Y-16494364D01*
X21637302Y-16494366D01*
X21417511Y-16553258D01*
X21417502Y-16553261D01*
X21211267Y-16649431D01*
X21211265Y-16649432D01*
X21024858Y-16779954D01*
X20863954Y-16940858D01*
X20733432Y-17127265D01*
X20733431Y-17127267D01*
X20637261Y-17333502D01*
X20637258Y-17333511D01*
X20578366Y-17553302D01*
X20578364Y-17553313D01*
X20558532Y-17779998D01*
X20558532Y-17780001D01*
X2000000Y-17780001D01*
X2000000Y-10051362D01*
X2019685Y-9984323D01*
X2036319Y-9963681D01*
X3613681Y-8386319D01*
X3675004Y-8352834D01*
X3701362Y-8350000D01*
X4724722Y-8350000D01*
X4676375Y-8433740D01*
X4646190Y-8565992D01*
X4656327Y-8701265D01*
X4705887Y-8827541D01*
X4723797Y-8850000D01*
X3700000Y-8850000D01*
X3700000Y-9547844D01*
X3706401Y-9607372D01*
X3706403Y-9607379D01*
X3756645Y-9742086D01*
X3756649Y-9742093D01*
X3842809Y-9857187D01*
X3842812Y-9857190D01*
X3957906Y-9943350D01*
X3957913Y-9943354D01*
X4038270Y-9973325D01*
X4094204Y-10015196D01*
X4118621Y-10080660D01*
X4103770Y-10148933D01*
X4086168Y-10173489D01*
X4077970Y-10182395D01*
X3991021Y-10276847D01*
X3991019Y-10276848D01*
X3991016Y-10276853D01*
X3864075Y-10471151D01*
X3770842Y-10683699D01*
X3713866Y-10908691D01*
X3713864Y-10908702D01*
X3694700Y-11139993D01*
X3694700Y-11140006D01*
X3713864Y-11371297D01*
X3713866Y-11371308D01*
X3770842Y-11596300D01*
X3864075Y-11808848D01*
X3991016Y-12003147D01*
X3991019Y-12003151D01*
X3991021Y-12003153D01*
X4148216Y-12173913D01*
X4148219Y-12173915D01*
X4148222Y-12173918D01*
X4331365Y-12316464D01*
X4331372Y-12316468D01*
X4331374Y-12316470D01*
X4359021Y-12331432D01*
X4409517Y-12358759D01*
X4459108Y-12407978D01*
X4474500Y-12467814D01*
X4474500Y-14533811D01*
X4454815Y-14600850D01*
X4421623Y-14635386D01*
X4260859Y-14747953D01*
X4099954Y-14908858D01*
X3969432Y-15095265D01*
X3969431Y-15095267D01*
X3873261Y-15301502D01*
X3873258Y-15301511D01*
X3814366Y-15521302D01*
X3814364Y-15521313D01*
X3794532Y-15747998D01*
X3794532Y-15748001D01*
X3814364Y-15974686D01*
X3814366Y-15974697D01*
X3873258Y-16194488D01*
X3873261Y-16194497D01*
X3969431Y-16400732D01*
X3969432Y-16400734D01*
X4099954Y-16587141D01*
X4260858Y-16748045D01*
X4260861Y-16748047D01*
X4447266Y-16878568D01*
X4653504Y-16974739D01*
X4873308Y-17033635D01*
X5035230Y-17047801D01*
X5099998Y-17053468D01*
X5100000Y-17053468D01*
X5100002Y-17053468D01*
X5156673Y-17048509D01*
X5326692Y-17033635D01*
X5546496Y-16974739D01*
X5752734Y-16878568D01*
X5939139Y-16748047D01*
X6100047Y-16587139D01*
X6230568Y-16400734D01*
X6326739Y-16194496D01*
X6385635Y-15974692D01*
X6390376Y-15920500D01*
X10624210Y-15920500D01*
X10643333Y-16139082D01*
X10643335Y-16139092D01*
X10700121Y-16351024D01*
X10700125Y-16351033D01*
X10792854Y-16549892D01*
X10837003Y-16612943D01*
X11399923Y-16050023D01*
X11423507Y-16130344D01*
X11501239Y-16251298D01*
X11609900Y-16345452D01*
X11740685Y-16405180D01*
X11750466Y-16406586D01*
X11190555Y-16966496D01*
X11253601Y-17010642D01*
X11253605Y-17010644D01*
X11452466Y-17103374D01*
X11452475Y-17103378D01*
X11664407Y-17160164D01*
X11664417Y-17160166D01*
X11882999Y-17179290D01*
X11883001Y-17179290D01*
X12101582Y-17160166D01*
X12101592Y-17160164D01*
X12313524Y-17103378D01*
X12313533Y-17103374D01*
X12512392Y-17010645D01*
X12575443Y-16966495D01*
X12015534Y-16406586D01*
X12025315Y-16405180D01*
X12156100Y-16345452D01*
X12264761Y-16251298D01*
X12342493Y-16130344D01*
X12366076Y-16050023D01*
X12928995Y-16612942D01*
X12973145Y-16549892D01*
X13065874Y-16351033D01*
X13065878Y-16351024D01*
X13122664Y-16139092D01*
X13122666Y-16139082D01*
X13141790Y-15920502D01*
X17123708Y-15920502D01*
X17142838Y-16139168D01*
X17142839Y-16139175D01*
X17157661Y-16194488D01*
X17199653Y-16351203D01*
X17199654Y-16351206D01*
X17199655Y-16351208D01*
X17292419Y-16550142D01*
X17292423Y-16550150D01*
X17418322Y-16729952D01*
X17418327Y-16729958D01*
X17573541Y-16885172D01*
X17573547Y-16885177D01*
X17753349Y-17011076D01*
X17753351Y-17011077D01*
X17753354Y-17011079D01*
X17952297Y-17103847D01*
X18164326Y-17160661D01*
X18320521Y-17174326D01*
X18382998Y-17179792D01*
X18383000Y-17179792D01*
X18383002Y-17179792D01*
X18437668Y-17175009D01*
X18601674Y-17160661D01*
X18813703Y-17103847D01*
X19012646Y-17011079D01*
X19192457Y-16885174D01*
X19347674Y-16729957D01*
X19473579Y-16550146D01*
X19566347Y-16351203D01*
X19623161Y-16139174D01*
X19637509Y-15975168D01*
X19642292Y-15920502D01*
X19642292Y-15920497D01*
X19634042Y-15826197D01*
X19623161Y-15701826D01*
X19566347Y-15489797D01*
X19473579Y-15290854D01*
X19473577Y-15290851D01*
X19473576Y-15290849D01*
X19347677Y-15111047D01*
X19347672Y-15111041D01*
X19192458Y-14955827D01*
X19192452Y-14955822D01*
X19012650Y-14829923D01*
X19012642Y-14829919D01*
X18813708Y-14737155D01*
X18813706Y-14737154D01*
X18813703Y-14737153D01*
X18633023Y-14688739D01*
X18601675Y-14680339D01*
X18601668Y-14680338D01*
X18383002Y-14661208D01*
X18382998Y-14661208D01*
X18164331Y-14680338D01*
X18164324Y-14680339D01*
X18055109Y-14709604D01*
X17952297Y-14737153D01*
X17952295Y-14737153D01*
X17952291Y-14737155D01*
X17753357Y-14829919D01*
X17753349Y-14829923D01*
X17573547Y-14955822D01*
X17573541Y-14955827D01*
X17418327Y-15111041D01*
X17418322Y-15111047D01*
X17292423Y-15290849D01*
X17292419Y-15290857D01*
X17199655Y-15489791D01*
X17199653Y-15489795D01*
X17199653Y-15489797D01*
X17186647Y-15538335D01*
X17142839Y-15701824D01*
X17142838Y-15701831D01*
X17123708Y-15920497D01*
X17123708Y-15920502D01*
X13141790Y-15920502D01*
X13141790Y-15920500D01*
X13141790Y-15920499D01*
X13122666Y-15701917D01*
X13122664Y-15701907D01*
X13065878Y-15489975D01*
X13065874Y-15489966D01*
X12973144Y-15291105D01*
X12973142Y-15291101D01*
X12928996Y-15228055D01*
X12366076Y-15790975D01*
X12342493Y-15710656D01*
X12264761Y-15589702D01*
X12156100Y-15495548D01*
X12025315Y-15435820D01*
X12015533Y-15434413D01*
X12575443Y-14874503D01*
X12512392Y-14830354D01*
X12313533Y-14737625D01*
X12313524Y-14737621D01*
X12101592Y-14680835D01*
X12101582Y-14680833D01*
X11883001Y-14661710D01*
X11882999Y-14661710D01*
X11664417Y-14680833D01*
X11664407Y-14680835D01*
X11452475Y-14737621D01*
X11452466Y-14737624D01*
X11253606Y-14830355D01*
X11253604Y-14830356D01*
X11190556Y-14874503D01*
X11190555Y-14874503D01*
X11750466Y-15434413D01*
X11740685Y-15435820D01*
X11609900Y-15495548D01*
X11501239Y-15589702D01*
X11423507Y-15710656D01*
X11399923Y-15790975D01*
X10837003Y-15228055D01*
X10837003Y-15228056D01*
X10792856Y-15291104D01*
X10792855Y-15291106D01*
X10700124Y-15489966D01*
X10700121Y-15489975D01*
X10643335Y-15701907D01*
X10643333Y-15701917D01*
X10624210Y-15920499D01*
X10624210Y-15920500D01*
X6390376Y-15920500D01*
X6405468Y-15748000D01*
X6402368Y-15712572D01*
X6394547Y-15623169D01*
X6385635Y-15521308D01*
X6326739Y-15301504D01*
X6230568Y-15095266D01*
X6100047Y-14908861D01*
X6100045Y-14908858D01*
X5939140Y-14747953D01*
X5778377Y-14635386D01*
X5734752Y-14580809D01*
X5725500Y-14533811D01*
X5725500Y-12467814D01*
X5745185Y-12400775D01*
X5790483Y-12358759D01*
X5799200Y-12354041D01*
X5868626Y-12316470D01*
X5888162Y-12301265D01*
X5989522Y-12222373D01*
X5989526Y-12222370D01*
X10628500Y-12222370D01*
X10628501Y-12222376D01*
X10634908Y-12281983D01*
X10685202Y-12416828D01*
X10685206Y-12416835D01*
X10771452Y-12532044D01*
X10771455Y-12532047D01*
X10886664Y-12618293D01*
X10886671Y-12618297D01*
X11021517Y-12668591D01*
X11021516Y-12668591D01*
X11028444Y-12669335D01*
X11081127Y-12675000D01*
X12684872Y-12674999D01*
X12744483Y-12668591D01*
X12879331Y-12618296D01*
X12994546Y-12532046D01*
X13080796Y-12416831D01*
X13131091Y-12281983D01*
X13137500Y-12222373D01*
X13137500Y-11420502D01*
X17123708Y-11420502D01*
X17142838Y-11639168D01*
X17142839Y-11639175D01*
X17150661Y-11668365D01*
X17199653Y-11851203D01*
X17199654Y-11851206D01*
X17199655Y-11851208D01*
X17292419Y-12050142D01*
X17292423Y-12050150D01*
X17418322Y-12229952D01*
X17418327Y-12229958D01*
X17573541Y-12385172D01*
X17573547Y-12385177D01*
X17704623Y-12476957D01*
X17748248Y-12531534D01*
X17757500Y-12578532D01*
X17757500Y-12692255D01*
X17755775Y-12707872D01*
X17756061Y-12707899D01*
X17755326Y-12715665D01*
X17757439Y-12782872D01*
X17757500Y-12786767D01*
X17757500Y-12814357D01*
X17758003Y-12818335D01*
X17758918Y-12829967D01*
X17760290Y-12873624D01*
X17760291Y-12873627D01*
X17765880Y-12892867D01*
X17769824Y-12911911D01*
X17770666Y-12918570D01*
X17772336Y-12931792D01*
X17788414Y-12972403D01*
X17792197Y-12983452D01*
X17802571Y-13019159D01*
X17804382Y-13025390D01*
X17812788Y-13039605D01*
X17814580Y-13042634D01*
X17823136Y-13060100D01*
X17827868Y-13072050D01*
X17830514Y-13078732D01*
X17856181Y-13114060D01*
X17862593Y-13123821D01*
X17884828Y-13161417D01*
X17884833Y-13161424D01*
X17898990Y-13175580D01*
X17911628Y-13190376D01*
X17923405Y-13206586D01*
X17923406Y-13206587D01*
X17957057Y-13234425D01*
X17965698Y-13242288D01*
X20347197Y-15623788D01*
X20357022Y-15636051D01*
X20357243Y-15635869D01*
X20362211Y-15641874D01*
X20362213Y-15641876D01*
X20362214Y-15641877D01*
X20399092Y-15676508D01*
X20411222Y-15687899D01*
X20414021Y-15690612D01*
X20433522Y-15710114D01*
X20433526Y-15710117D01*
X20433529Y-15710120D01*
X20436702Y-15712581D01*
X20445574Y-15720159D01*
X20477418Y-15750062D01*
X20494976Y-15759714D01*
X20511235Y-15770395D01*
X20527064Y-15782673D01*
X20567155Y-15800021D01*
X20577626Y-15805151D01*
X20584711Y-15809046D01*
X20615902Y-15826194D01*
X20615904Y-15826195D01*
X20615908Y-15826197D01*
X20635316Y-15831180D01*
X20653719Y-15837481D01*
X20672101Y-15845436D01*
X20672102Y-15845436D01*
X20672104Y-15845437D01*
X20715250Y-15852270D01*
X20726672Y-15854636D01*
X20768981Y-15865500D01*
X20789016Y-15865500D01*
X20808414Y-15867026D01*
X20828194Y-15870159D01*
X20828195Y-15870160D01*
X20828195Y-15870159D01*
X20828196Y-15870160D01*
X20871675Y-15866050D01*
X20883344Y-15865500D01*
X29173548Y-15865500D01*
X29240587Y-15885185D01*
X29261229Y-15901819D01*
X30724586Y-17365177D01*
X30758071Y-17426500D01*
X30756680Y-17484949D01*
X30738367Y-17553296D01*
X30738364Y-17553313D01*
X30718532Y-17779999D01*
X30718532Y-17780001D01*
X30738364Y-18006686D01*
X30738366Y-18006697D01*
X30797258Y-18226488D01*
X30797261Y-18226497D01*
X30893431Y-18432732D01*
X30893432Y-18432734D01*
X31023954Y-18619141D01*
X31184858Y-18780045D01*
X31184861Y-18780047D01*
X31371266Y-18910568D01*
X31577504Y-19006739D01*
X31797308Y-19065635D01*
X31959230Y-19079801D01*
X32023998Y-19085468D01*
X32024000Y-19085468D01*
X32024002Y-19085468D01*
X32080673Y-19080509D01*
X32250692Y-19065635D01*
X32470496Y-19006739D01*
X32676734Y-18910568D01*
X32863139Y-18780047D01*
X33024047Y-18619139D01*
X33154568Y-18432734D01*
X33250739Y-18226496D01*
X33309635Y-18006692D01*
X33329468Y-17780000D01*
X33309635Y-17553308D01*
X33256996Y-17356855D01*
X33250741Y-17333511D01*
X33250738Y-17333502D01*
X33222059Y-17272000D01*
X33154568Y-17127266D01*
X33024047Y-16940861D01*
X33024045Y-16940858D01*
X32863141Y-16779954D01*
X32676734Y-16649432D01*
X32676732Y-16649431D01*
X32470497Y-16553261D01*
X32470488Y-16553258D01*
X32250697Y-16494366D01*
X32250693Y-16494365D01*
X32250692Y-16494365D01*
X32250691Y-16494364D01*
X32250686Y-16494364D01*
X32024002Y-16474532D01*
X32023999Y-16474532D01*
X31797313Y-16494364D01*
X31797296Y-16494367D01*
X31728949Y-16512680D01*
X31659099Y-16511016D01*
X31609177Y-16480586D01*
X29984803Y-14856212D01*
X29974980Y-14843950D01*
X29974759Y-14844134D01*
X29969786Y-14838122D01*
X29920776Y-14792099D01*
X29917977Y-14789386D01*
X29898477Y-14769885D01*
X29898471Y-14769880D01*
X29895286Y-14767409D01*
X29886434Y-14759848D01*
X29854582Y-14729938D01*
X29854580Y-14729936D01*
X29854577Y-14729935D01*
X29837029Y-14720288D01*
X29820763Y-14709604D01*
X29804932Y-14697324D01*
X29764849Y-14679978D01*
X29754363Y-14674841D01*
X29716094Y-14653803D01*
X29716092Y-14653802D01*
X29696693Y-14648822D01*
X29678281Y-14642518D01*
X29659898Y-14634562D01*
X29659892Y-14634560D01*
X29616760Y-14627729D01*
X29605322Y-14625361D01*
X29563020Y-14614500D01*
X29563019Y-14614500D01*
X29542984Y-14614500D01*
X29523586Y-14612973D01*
X29516162Y-14611797D01*
X29503805Y-14609840D01*
X29503804Y-14609840D01*
X29460325Y-14613950D01*
X29448656Y-14614500D01*
X21158453Y-14614500D01*
X21091414Y-14594815D01*
X21070772Y-14578181D01*
X19111861Y-12619270D01*
X19078376Y-12557947D01*
X19083360Y-12488255D01*
X19125232Y-12432322D01*
X19128419Y-12430014D01*
X19147250Y-12416828D01*
X19192457Y-12385174D01*
X19347674Y-12229957D01*
X19473579Y-12050146D01*
X19566347Y-11851203D01*
X19623161Y-11639174D01*
X19642292Y-11420500D01*
X19642244Y-11419955D01*
X19632377Y-11307165D01*
X19623161Y-11201826D01*
X19566347Y-10989797D01*
X19473579Y-10790854D01*
X19473577Y-10790851D01*
X19473576Y-10790849D01*
X19347677Y-10611047D01*
X19347672Y-10611041D01*
X19192458Y-10455827D01*
X19192452Y-10455822D01*
X19012650Y-10329923D01*
X19012642Y-10329919D01*
X18813708Y-10237155D01*
X18813706Y-10237154D01*
X18813703Y-10237153D01*
X18655165Y-10194672D01*
X18601675Y-10180339D01*
X18601668Y-10180338D01*
X18383002Y-10161208D01*
X18382998Y-10161208D01*
X18164331Y-10180338D01*
X18164324Y-10180339D01*
X18046089Y-10212021D01*
X17952297Y-10237153D01*
X17952295Y-10237153D01*
X17952291Y-10237155D01*
X17753357Y-10329919D01*
X17753349Y-10329923D01*
X17573547Y-10455822D01*
X17573541Y-10455827D01*
X17418327Y-10611041D01*
X17418322Y-10611047D01*
X17292423Y-10790849D01*
X17292419Y-10790857D01*
X17199655Y-10989791D01*
X17142839Y-11201824D01*
X17142838Y-11201831D01*
X17123708Y-11420497D01*
X17123708Y-11420502D01*
X13137500Y-11420502D01*
X13137499Y-10618628D01*
X13131091Y-10559017D01*
X13115628Y-10517559D01*
X13080797Y-10424171D01*
X13080793Y-10424164D01*
X12994547Y-10308955D01*
X12994544Y-10308952D01*
X12879335Y-10222706D01*
X12879328Y-10222702D01*
X12744482Y-10172408D01*
X12744483Y-10172408D01*
X12684883Y-10166001D01*
X12684881Y-10166000D01*
X12684873Y-10166000D01*
X12684864Y-10166000D01*
X11081129Y-10166000D01*
X11081123Y-10166001D01*
X11021516Y-10172408D01*
X10886671Y-10222702D01*
X10886664Y-10222706D01*
X10771455Y-10308952D01*
X10771452Y-10308955D01*
X10685206Y-10424164D01*
X10685202Y-10424171D01*
X10634908Y-10559017D01*
X10629315Y-10611043D01*
X10628501Y-10618623D01*
X10628500Y-10618635D01*
X10628500Y-12222370D01*
X5989526Y-12222370D01*
X6051784Y-12173913D01*
X6208979Y-12003153D01*
X6335924Y-11808849D01*
X6429157Y-11596300D01*
X6486134Y-11371305D01*
X6486367Y-11368496D01*
X6505300Y-11140006D01*
X6505300Y-11139993D01*
X6486135Y-10908702D01*
X6486133Y-10908691D01*
X6429157Y-10683699D01*
X6335924Y-10471151D01*
X6208981Y-10276849D01*
X6113832Y-10173489D01*
X6082910Y-10110835D01*
X6090770Y-10041409D01*
X6134918Y-9987253D01*
X6161730Y-9973325D01*
X6242084Y-9943355D01*
X6242093Y-9943350D01*
X6357187Y-9857190D01*
X6357190Y-9857187D01*
X6443350Y-9742093D01*
X6443354Y-9742086D01*
X6493596Y-9607379D01*
X6493598Y-9607372D01*
X6499999Y-9547844D01*
X6500000Y-9547827D01*
X6500000Y-8850000D01*
X5475278Y-8850000D01*
X5523625Y-8766260D01*
X5553810Y-8634008D01*
X5543673Y-8498735D01*
X5494113Y-8372459D01*
X5476203Y-8350000D01*
X6500000Y-8350000D01*
X6500000Y-7652172D01*
X6499999Y-7652155D01*
X6493598Y-7592627D01*
X6493596Y-7592620D01*
X6443354Y-7457913D01*
X6443350Y-7457906D01*
X6357190Y-7342812D01*
X6357187Y-7342809D01*
X6242093Y-7256649D01*
X6242086Y-7256645D01*
X6107379Y-7206403D01*
X6107372Y-7206401D01*
X6047844Y-7200000D01*
X5350000Y-7200000D01*
X5350000Y-8225810D01*
X5297453Y-8189984D01*
X5167827Y-8150000D01*
X5066276Y-8150000D01*
X4965862Y-8165135D01*
X4850000Y-8220931D01*
X4850000Y-7201362D01*
X4869685Y-7134323D01*
X4886319Y-7113681D01*
X9963681Y-2036319D01*
X10025004Y-2002834D01*
X10051362Y-2000000D01*
X30451270Y-2000000D01*
X30518309Y-2019685D01*
G37*
%TD.AperFunction*%
%TA.AperFunction,Conductor*%
G36*
X68320310Y-28471685D02*
G01*
X68340952Y-28488319D01*
X69040267Y-29187634D01*
X69052048Y-29201266D01*
X69066390Y-29220530D01*
X69104343Y-29252376D01*
X69112319Y-29259686D01*
X69116222Y-29263590D01*
X69116223Y-29263591D01*
X69140538Y-29282816D01*
X69143293Y-29285059D01*
X69200786Y-29333302D01*
X69200790Y-29333304D01*
X69206823Y-29337272D01*
X69206789Y-29337322D01*
X69213144Y-29341370D01*
X69213177Y-29341318D01*
X69219315Y-29345104D01*
X69219323Y-29345110D01*
X69239962Y-29354734D01*
X69287291Y-29376804D01*
X69290452Y-29378333D01*
X69357567Y-29412040D01*
X69357572Y-29412041D01*
X69364355Y-29414510D01*
X69364334Y-29414567D01*
X69371451Y-29417040D01*
X69371470Y-29416984D01*
X69378324Y-29419255D01*
X69378325Y-29419255D01*
X69378327Y-29419256D01*
X69451848Y-29434436D01*
X69455209Y-29435181D01*
X69528279Y-29452500D01*
X69528285Y-29452500D01*
X69535452Y-29453338D01*
X69535445Y-29453397D01*
X69542946Y-29454163D01*
X69542952Y-29454104D01*
X69550141Y-29454733D01*
X69550143Y-29454732D01*
X69550144Y-29454733D01*
X69625111Y-29452552D01*
X69628717Y-29452500D01*
X81169337Y-29452500D01*
X81236376Y-29472185D01*
X81270912Y-29505377D01*
X81295954Y-29541141D01*
X81456858Y-29702045D01*
X81456861Y-29702047D01*
X81643266Y-29832568D01*
X81700681Y-29859341D01*
X81701275Y-29859618D01*
X81753714Y-29905791D01*
X81772866Y-29972984D01*
X81752650Y-30039865D01*
X81701275Y-30084382D01*
X81643267Y-30111431D01*
X81643265Y-30111432D01*
X81456858Y-30241954D01*
X81295954Y-30402858D01*
X81165432Y-30589265D01*
X81165431Y-30589267D01*
X81069261Y-30795502D01*
X81069258Y-30795511D01*
X81010366Y-31015302D01*
X81010364Y-31015313D01*
X80990532Y-31241998D01*
X80990532Y-31242001D01*
X81010364Y-31468686D01*
X81010366Y-31468697D01*
X81069258Y-31688488D01*
X81069261Y-31688497D01*
X81165431Y-31894732D01*
X81165432Y-31894734D01*
X81295954Y-32081141D01*
X81456858Y-32242045D01*
X81456861Y-32242047D01*
X81643266Y-32372568D01*
X81701275Y-32399618D01*
X81753714Y-32445791D01*
X81772866Y-32512984D01*
X81752650Y-32579865D01*
X81701275Y-32624382D01*
X81643267Y-32651431D01*
X81643265Y-32651432D01*
X81456858Y-32781954D01*
X81295954Y-32942858D01*
X81165432Y-33129265D01*
X81165431Y-33129267D01*
X81069261Y-33335502D01*
X81069258Y-33335511D01*
X81010366Y-33555302D01*
X81010364Y-33555313D01*
X80990532Y-33781998D01*
X80990532Y-33782001D01*
X81010364Y-34008686D01*
X81010366Y-34008697D01*
X81069258Y-34228488D01*
X81069261Y-34228497D01*
X81165431Y-34434732D01*
X81165432Y-34434734D01*
X81295954Y-34621141D01*
X81456858Y-34782045D01*
X81456861Y-34782047D01*
X81643266Y-34912568D01*
X81700078Y-34939060D01*
X81701275Y-34939618D01*
X81753714Y-34985791D01*
X81772866Y-35052984D01*
X81752650Y-35119865D01*
X81701275Y-35164381D01*
X81690301Y-35169499D01*
X81643267Y-35191431D01*
X81643265Y-35191432D01*
X81456858Y-35321954D01*
X81295954Y-35482858D01*
X81165432Y-35669265D01*
X81165431Y-35669267D01*
X81069261Y-35875502D01*
X81069258Y-35875511D01*
X81010366Y-36095302D01*
X81010364Y-36095313D01*
X80990532Y-36321998D01*
X80990532Y-36322001D01*
X81010364Y-36548686D01*
X81010366Y-36548697D01*
X81069258Y-36768488D01*
X81069261Y-36768497D01*
X81165431Y-36974732D01*
X81165432Y-36974734D01*
X81295954Y-37161141D01*
X81456858Y-37322045D01*
X81456861Y-37322047D01*
X81643266Y-37452568D01*
X81701275Y-37479618D01*
X81753714Y-37525791D01*
X81772866Y-37592984D01*
X81752650Y-37659865D01*
X81701275Y-37704381D01*
X81684272Y-37712310D01*
X81643267Y-37731431D01*
X81643265Y-37731432D01*
X81456858Y-37861954D01*
X81295954Y-38022858D01*
X81165432Y-38209265D01*
X81165431Y-38209267D01*
X81069261Y-38415502D01*
X81069258Y-38415511D01*
X81010366Y-38635302D01*
X81010364Y-38635313D01*
X80990532Y-38861998D01*
X80990532Y-38862001D01*
X81010364Y-39088686D01*
X81010366Y-39088697D01*
X81069258Y-39308488D01*
X81069261Y-39308497D01*
X81165431Y-39514732D01*
X81165432Y-39514734D01*
X81295954Y-39701141D01*
X81456858Y-39862045D01*
X81456861Y-39862047D01*
X81643266Y-39992568D01*
X81701275Y-40019618D01*
X81753714Y-40065791D01*
X81772866Y-40132984D01*
X81752650Y-40199865D01*
X81701275Y-40244381D01*
X81684272Y-40252310D01*
X81643267Y-40271431D01*
X81643265Y-40271432D01*
X81456858Y-40401954D01*
X81295954Y-40562858D01*
X81165432Y-40749265D01*
X81165431Y-40749267D01*
X81069261Y-40955502D01*
X81069258Y-40955511D01*
X81010366Y-41175302D01*
X81010364Y-41175313D01*
X80990532Y-41401998D01*
X80990532Y-41402001D01*
X81010364Y-41628686D01*
X81010366Y-41628697D01*
X81069258Y-41848488D01*
X81069261Y-41848497D01*
X81165431Y-42054732D01*
X81165432Y-42054734D01*
X81295954Y-42241141D01*
X81456858Y-42402045D01*
X81456861Y-42402047D01*
X81643266Y-42532568D01*
X81701275Y-42559618D01*
X81753714Y-42605791D01*
X81772866Y-42672984D01*
X81752650Y-42739865D01*
X81701275Y-42784382D01*
X81643267Y-42811431D01*
X81643265Y-42811432D01*
X81456858Y-42941954D01*
X81295954Y-43102858D01*
X81165432Y-43289265D01*
X81165431Y-43289267D01*
X81069261Y-43495502D01*
X81069258Y-43495511D01*
X81010366Y-43715302D01*
X81010364Y-43715313D01*
X80990532Y-43941998D01*
X80990532Y-43942001D01*
X81010364Y-44168686D01*
X81010366Y-44168697D01*
X81069258Y-44388488D01*
X81069261Y-44388497D01*
X81165431Y-44594732D01*
X81165432Y-44594734D01*
X81295954Y-44781141D01*
X81456858Y-44942045D01*
X81466274Y-44948638D01*
X81643266Y-45072568D01*
X81701275Y-45099618D01*
X81753714Y-45145791D01*
X81772866Y-45212984D01*
X81752650Y-45279865D01*
X81701275Y-45324382D01*
X81643267Y-45351431D01*
X81643265Y-45351432D01*
X81456858Y-45481954D01*
X81295954Y-45642858D01*
X81165432Y-45829265D01*
X81165431Y-45829267D01*
X81069261Y-46035502D01*
X81069258Y-46035511D01*
X81010366Y-46255302D01*
X81010364Y-46255313D01*
X80990532Y-46481998D01*
X80990532Y-46482001D01*
X81010364Y-46708686D01*
X81010366Y-46708697D01*
X81069258Y-46928488D01*
X81069261Y-46928497D01*
X81165431Y-47134732D01*
X81165432Y-47134734D01*
X81295954Y-47321141D01*
X81456858Y-47482045D01*
X81456861Y-47482047D01*
X81643266Y-47612568D01*
X81701275Y-47639618D01*
X81753714Y-47685791D01*
X81772866Y-47752984D01*
X81752650Y-47819865D01*
X81701275Y-47864382D01*
X81643267Y-47891431D01*
X81643265Y-47891432D01*
X81456858Y-48021954D01*
X81295954Y-48182858D01*
X81165432Y-48369265D01*
X81165431Y-48369267D01*
X81069261Y-48575502D01*
X81069258Y-48575511D01*
X81010366Y-48795302D01*
X81010364Y-48795313D01*
X80990532Y-49021998D01*
X80990532Y-49022001D01*
X81010364Y-49248686D01*
X81010366Y-49248697D01*
X81069258Y-49468488D01*
X81069261Y-49468497D01*
X81165431Y-49674732D01*
X81165432Y-49674734D01*
X81295954Y-49861141D01*
X81456858Y-50022045D01*
X81456861Y-50022047D01*
X81643266Y-50152568D01*
X81701275Y-50179618D01*
X81753714Y-50225791D01*
X81772866Y-50292984D01*
X81752650Y-50359865D01*
X81701275Y-50404382D01*
X81643267Y-50431431D01*
X81643265Y-50431432D01*
X81456858Y-50561954D01*
X81295954Y-50722858D01*
X81165432Y-50909265D01*
X81165431Y-50909267D01*
X81069261Y-51115502D01*
X81069258Y-51115511D01*
X81010366Y-51335302D01*
X81010364Y-51335313D01*
X80990532Y-51561998D01*
X80990532Y-51562001D01*
X81010364Y-51788686D01*
X81010366Y-51788697D01*
X81069258Y-52008488D01*
X81069261Y-52008497D01*
X81165431Y-52214732D01*
X81165432Y-52214734D01*
X81295954Y-52401141D01*
X81397632Y-52502819D01*
X81431117Y-52564142D01*
X81426133Y-52633834D01*
X81384261Y-52689767D01*
X81318797Y-52714184D01*
X81309951Y-52714500D01*
X68042049Y-52714500D01*
X67975010Y-52694815D01*
X67929255Y-52642011D01*
X67919311Y-52572853D01*
X67948336Y-52509297D01*
X67954368Y-52502819D01*
X68056045Y-52401141D01*
X68056047Y-52401139D01*
X68186568Y-52214734D01*
X68282739Y-52008496D01*
X68341635Y-51788692D01*
X68359456Y-51585000D01*
X68361468Y-51562001D01*
X68361468Y-51561998D01*
X68346157Y-51387000D01*
X68341635Y-51335308D01*
X68282739Y-51115504D01*
X68186568Y-50909266D01*
X68056047Y-50722861D01*
X68056045Y-50722858D01*
X67895141Y-50561954D01*
X67708734Y-50431432D01*
X67708728Y-50431429D01*
X67650725Y-50404382D01*
X67598285Y-50358210D01*
X67579133Y-50291017D01*
X67599348Y-50224135D01*
X67650725Y-50179618D01*
X67708734Y-50152568D01*
X67895139Y-50022047D01*
X68056047Y-49861139D01*
X68186568Y-49674734D01*
X68282739Y-49468496D01*
X68341635Y-49248692D01*
X68361468Y-49022000D01*
X68341635Y-48795308D01*
X68282739Y-48575504D01*
X68186568Y-48369266D01*
X68056047Y-48182861D01*
X68056045Y-48182858D01*
X67895141Y-48021954D01*
X67708734Y-47891432D01*
X67708728Y-47891429D01*
X67650725Y-47864382D01*
X67598285Y-47818210D01*
X67579133Y-47751017D01*
X67599348Y-47684135D01*
X67650725Y-47639618D01*
X67708734Y-47612568D01*
X67895139Y-47482047D01*
X68056047Y-47321139D01*
X68186568Y-47134734D01*
X68282739Y-46928496D01*
X68341635Y-46708692D01*
X68361468Y-46482000D01*
X68358948Y-46453202D01*
X68344218Y-46284832D01*
X68341635Y-46255308D01*
X68295249Y-46082193D01*
X68282741Y-46035511D01*
X68282738Y-46035502D01*
X68264793Y-45997020D01*
X68186568Y-45829266D01*
X68064172Y-45654465D01*
X68056045Y-45642858D01*
X67895141Y-45481954D01*
X67708734Y-45351432D01*
X67708728Y-45351429D01*
X67650725Y-45324382D01*
X67598285Y-45278210D01*
X67579133Y-45211017D01*
X67599348Y-45144135D01*
X67650725Y-45099618D01*
X67708734Y-45072568D01*
X67895139Y-44942047D01*
X68056047Y-44781139D01*
X68186568Y-44594734D01*
X68282739Y-44388496D01*
X68341635Y-44168692D01*
X68359662Y-43962644D01*
X68361468Y-43942001D01*
X68361468Y-43941998D01*
X68354765Y-43865380D01*
X68341635Y-43715308D01*
X68282739Y-43495504D01*
X68186568Y-43289266D01*
X68056047Y-43102861D01*
X68056045Y-43102858D01*
X67895141Y-42941954D01*
X67708734Y-42811432D01*
X67708728Y-42811429D01*
X67650725Y-42784382D01*
X67598285Y-42738210D01*
X67579133Y-42671017D01*
X67599348Y-42604135D01*
X67650725Y-42559618D01*
X67708734Y-42532568D01*
X67895139Y-42402047D01*
X68056047Y-42241139D01*
X68186568Y-42054734D01*
X68282739Y-41848496D01*
X68341635Y-41628692D01*
X68361468Y-41402000D01*
X68359869Y-41383728D01*
X68351018Y-41282553D01*
X68341635Y-41175308D01*
X68282739Y-40955504D01*
X68186568Y-40749266D01*
X68056047Y-40562861D01*
X68056045Y-40562858D01*
X67895141Y-40401954D01*
X67708734Y-40271432D01*
X67708728Y-40271429D01*
X67681038Y-40258517D01*
X67650724Y-40244381D01*
X67598285Y-40198210D01*
X67579133Y-40131017D01*
X67599348Y-40064135D01*
X67650725Y-40019618D01*
X67708734Y-39992568D01*
X67895139Y-39862047D01*
X68056047Y-39701139D01*
X68186568Y-39514734D01*
X68282739Y-39308496D01*
X68341635Y-39088692D01*
X68361468Y-38862000D01*
X68341635Y-38635308D01*
X68282739Y-38415504D01*
X68186568Y-38209266D01*
X68056047Y-38022861D01*
X68056045Y-38022858D01*
X67895141Y-37861954D01*
X67708734Y-37731432D01*
X67708728Y-37731429D01*
X67668475Y-37712659D01*
X67650724Y-37704381D01*
X67598285Y-37658210D01*
X67579133Y-37591017D01*
X67599348Y-37524135D01*
X67650725Y-37479618D01*
X67708734Y-37452568D01*
X67895139Y-37322047D01*
X68056047Y-37161139D01*
X68186568Y-36974734D01*
X68282739Y-36768496D01*
X68341635Y-36548692D01*
X68361468Y-36322000D01*
X68341635Y-36095308D01*
X68282739Y-35875504D01*
X68186568Y-35669266D01*
X68077475Y-35513463D01*
X68056045Y-35482858D01*
X67895141Y-35321954D01*
X67708734Y-35191432D01*
X67708728Y-35191429D01*
X67671692Y-35174159D01*
X67650724Y-35164381D01*
X67598285Y-35118210D01*
X67579133Y-35051017D01*
X67599348Y-34984135D01*
X67650725Y-34939618D01*
X67651922Y-34939060D01*
X67708734Y-34912568D01*
X67895139Y-34782047D01*
X68056047Y-34621139D01*
X68186568Y-34434734D01*
X68282739Y-34228496D01*
X68341635Y-34008692D01*
X68361468Y-33782000D01*
X68359745Y-33762311D01*
X68352753Y-33682389D01*
X68341635Y-33555308D01*
X68282739Y-33335504D01*
X68186568Y-33129266D01*
X68068868Y-32961172D01*
X68056045Y-32942858D01*
X67895141Y-32781954D01*
X67708734Y-32651432D01*
X67708728Y-32651429D01*
X67650725Y-32624382D01*
X67598285Y-32578210D01*
X67579133Y-32511017D01*
X67599348Y-32444135D01*
X67650725Y-32399618D01*
X67708734Y-32372568D01*
X67895139Y-32242047D01*
X68056047Y-32081139D01*
X68186568Y-31894734D01*
X68282739Y-31688496D01*
X68341635Y-31468692D01*
X68358634Y-31274384D01*
X68361468Y-31242001D01*
X68361468Y-31241998D01*
X68355801Y-31177230D01*
X68341635Y-31015308D01*
X68282739Y-30795504D01*
X68186568Y-30589266D01*
X68056047Y-30402861D01*
X68056045Y-30402858D01*
X67895141Y-30241954D01*
X67708734Y-30111432D01*
X67708732Y-30111431D01*
X67650725Y-30084382D01*
X67650132Y-30084105D01*
X67597694Y-30037934D01*
X67578542Y-29970740D01*
X67598758Y-29903859D01*
X67650134Y-29859341D01*
X67708484Y-29832132D01*
X67894820Y-29701657D01*
X68055657Y-29540820D01*
X68186134Y-29354482D01*
X68282265Y-29148326D01*
X68282269Y-29148317D01*
X68334872Y-28952000D01*
X67371686Y-28952000D01*
X67383641Y-28940045D01*
X67441165Y-28827148D01*
X67460986Y-28702000D01*
X67441165Y-28576852D01*
X67383641Y-28463955D01*
X67371686Y-28452000D01*
X68253271Y-28452000D01*
X68320310Y-28471685D01*
G37*
%TD.AperFunction*%
%TA.AperFunction,Conductor*%
G36*
X87327235Y-5336879D02*
G01*
X87360735Y-5360735D01*
X91963681Y-9963681D01*
X91997166Y-10025004D01*
X92000000Y-10051362D01*
X92000000Y-44948637D01*
X91980315Y-45015676D01*
X91963681Y-45036318D01*
X87414180Y-49585819D01*
X87352857Y-49619304D01*
X87283165Y-49614320D01*
X87227232Y-49572448D01*
X87202815Y-49506984D01*
X87202499Y-49498159D01*
X87202499Y-48124128D01*
X87196091Y-48064517D01*
X87157702Y-47961592D01*
X87145797Y-47929671D01*
X87145793Y-47929664D01*
X87059547Y-47814455D01*
X87059544Y-47814452D01*
X86944335Y-47728206D01*
X86944328Y-47728202D01*
X86812917Y-47679189D01*
X86756983Y-47637318D01*
X86732566Y-47571853D01*
X86747418Y-47503580D01*
X86768563Y-47475332D01*
X86890495Y-47353401D01*
X87026035Y-47159830D01*
X87125903Y-46945663D01*
X87187063Y-46717408D01*
X87207659Y-46482000D01*
X87205590Y-46458357D01*
X87192831Y-46312516D01*
X87187063Y-46246592D01*
X87125903Y-46018337D01*
X87026035Y-45804171D01*
X87025652Y-45803623D01*
X86890494Y-45610597D01*
X86723402Y-45443506D01*
X86723396Y-45443501D01*
X86537842Y-45313575D01*
X86494217Y-45258998D01*
X86487023Y-45189500D01*
X86518546Y-45127145D01*
X86537842Y-45110425D01*
X86643676Y-45036319D01*
X86723401Y-44980495D01*
X86890495Y-44813401D01*
X87026035Y-44619830D01*
X87125903Y-44405663D01*
X87187063Y-44177408D01*
X87207659Y-43942000D01*
X87187063Y-43706592D01*
X87125903Y-43478337D01*
X87026035Y-43264171D01*
X87025652Y-43263623D01*
X86890494Y-43070597D01*
X86723402Y-42903506D01*
X86723396Y-42903501D01*
X86537842Y-42773575D01*
X86494217Y-42718998D01*
X86487023Y-42649500D01*
X86518546Y-42587145D01*
X86537842Y-42570425D01*
X86649353Y-42492344D01*
X86723401Y-42440495D01*
X86890495Y-42273401D01*
X87026035Y-42079830D01*
X87125903Y-41865663D01*
X87187063Y-41637408D01*
X87207659Y-41402000D01*
X87187063Y-41166592D01*
X87125903Y-40938337D01*
X87026035Y-40724171D01*
X87025652Y-40723623D01*
X86890494Y-40530597D01*
X86723402Y-40363506D01*
X86723396Y-40363501D01*
X86537842Y-40233575D01*
X86494217Y-40178998D01*
X86487023Y-40109500D01*
X86518546Y-40047145D01*
X86537842Y-40030425D01*
X86591909Y-39992567D01*
X86723401Y-39900495D01*
X86890495Y-39733401D01*
X87026035Y-39539830D01*
X87125903Y-39325663D01*
X87187063Y-39097408D01*
X87207659Y-38862000D01*
X87187063Y-38626592D01*
X87125903Y-38398337D01*
X87026035Y-38184171D01*
X87025652Y-38183623D01*
X86890494Y-37990597D01*
X86723402Y-37823506D01*
X86723396Y-37823501D01*
X86537842Y-37693575D01*
X86494217Y-37638998D01*
X86487023Y-37569500D01*
X86518546Y-37507145D01*
X86537842Y-37490425D01*
X86591909Y-37452567D01*
X86723401Y-37360495D01*
X86890495Y-37193401D01*
X87026035Y-36999830D01*
X87125903Y-36785663D01*
X87187063Y-36557408D01*
X87207659Y-36322000D01*
X87187063Y-36086592D01*
X87125903Y-35858337D01*
X87026035Y-35644171D01*
X87025652Y-35643623D01*
X86890494Y-35450597D01*
X86723402Y-35283506D01*
X86723396Y-35283501D01*
X86537842Y-35153575D01*
X86494217Y-35098998D01*
X86487023Y-35029500D01*
X86518546Y-34967145D01*
X86537842Y-34950425D01*
X86572367Y-34926250D01*
X86723401Y-34820495D01*
X86890495Y-34653401D01*
X87026035Y-34459830D01*
X87125903Y-34245663D01*
X87187063Y-34017408D01*
X87207659Y-33782000D01*
X87187063Y-33546592D01*
X87134113Y-33348978D01*
X87125905Y-33318344D01*
X87125904Y-33318343D01*
X87125903Y-33318337D01*
X87026035Y-33104171D01*
X87025652Y-33103623D01*
X86890494Y-32910597D01*
X86723402Y-32743506D01*
X86723396Y-32743501D01*
X86537842Y-32613575D01*
X86494217Y-32558998D01*
X86487023Y-32489500D01*
X86518546Y-32427145D01*
X86537842Y-32410425D01*
X86649344Y-32332350D01*
X86723401Y-32280495D01*
X86890495Y-32113401D01*
X87026035Y-31919830D01*
X87125903Y-31705663D01*
X87187063Y-31477408D01*
X87207659Y-31242000D01*
X87187063Y-31006592D01*
X87125903Y-30778337D01*
X87026035Y-30564171D01*
X87025652Y-30563623D01*
X86890494Y-30370597D01*
X86723402Y-30203506D01*
X86723395Y-30203501D01*
X86529834Y-30067967D01*
X86529830Y-30067965D01*
X86529828Y-30067964D01*
X86315663Y-29968097D01*
X86315659Y-29968096D01*
X86315655Y-29968094D01*
X86087413Y-29906938D01*
X86087403Y-29906936D01*
X85852001Y-29886341D01*
X85851999Y-29886341D01*
X85616596Y-29906936D01*
X85616586Y-29906938D01*
X85388344Y-29968094D01*
X85388335Y-29968098D01*
X85174171Y-30067964D01*
X85174169Y-30067965D01*
X84980597Y-30203505D01*
X84813505Y-30370597D01*
X84678348Y-30563623D01*
X84623771Y-30607248D01*
X84576773Y-30616500D01*
X83510188Y-30616500D01*
X83443149Y-30596815D01*
X83408613Y-30563623D01*
X83296045Y-30402858D01*
X83135141Y-30241954D01*
X82948734Y-30111432D01*
X82948728Y-30111429D01*
X82890725Y-30084382D01*
X82838285Y-30038210D01*
X82819133Y-29971017D01*
X82839348Y-29904135D01*
X82890725Y-29859618D01*
X82891319Y-29859341D01*
X82948734Y-29832568D01*
X83135139Y-29702047D01*
X83296047Y-29541139D01*
X83426568Y-29354734D01*
X83522739Y-29148496D01*
X83581635Y-28928692D01*
X83601468Y-28702000D01*
X83601233Y-28699319D01*
X83596011Y-28639630D01*
X83588478Y-28553528D01*
X83602244Y-28485030D01*
X83624322Y-28455044D01*
X84876548Y-27202819D01*
X84937871Y-27169334D01*
X84964229Y-27166500D01*
X86231949Y-27166500D01*
X86298988Y-27186185D01*
X86344743Y-27238989D01*
X86355239Y-27277251D01*
X86355908Y-27283482D01*
X86406202Y-27418328D01*
X86406206Y-27418335D01*
X86492452Y-27533544D01*
X86492455Y-27533547D01*
X86607664Y-27619793D01*
X86607671Y-27619797D01*
X86742517Y-27670091D01*
X86742516Y-27670091D01*
X86749444Y-27670835D01*
X86802127Y-27676500D01*
X88497872Y-27676499D01*
X88557483Y-27670091D01*
X88692331Y-27619796D01*
X88807546Y-27533546D01*
X88893796Y-27418331D01*
X88944091Y-27283483D01*
X88950500Y-27223873D01*
X88950499Y-25528128D01*
X88944091Y-25468517D01*
X88943183Y-25466083D01*
X88893797Y-25333671D01*
X88893793Y-25333664D01*
X88807547Y-25218455D01*
X88807544Y-25218452D01*
X88692335Y-25132206D01*
X88692328Y-25132202D01*
X88557482Y-25081908D01*
X88557483Y-25081908D01*
X88497883Y-25075501D01*
X88497881Y-25075500D01*
X88497873Y-25075500D01*
X88497864Y-25075500D01*
X88494548Y-25075322D01*
X88494627Y-25073847D01*
X88433215Y-25055815D01*
X88387460Y-25003011D01*
X88379969Y-24959522D01*
X87694400Y-24273953D01*
X87775148Y-24261165D01*
X87888045Y-24203641D01*
X87977641Y-24114045D01*
X88035165Y-24001148D01*
X88047953Y-23920400D01*
X88729024Y-24601471D01*
X88780136Y-24528478D01*
X88876264Y-24322331D01*
X88876269Y-24322317D01*
X88935139Y-24102610D01*
X88935141Y-24102599D01*
X88954966Y-23876002D01*
X88954966Y-23875997D01*
X88935141Y-23649400D01*
X88935139Y-23649389D01*
X88876269Y-23429682D01*
X88876264Y-23429668D01*
X88780136Y-23223521D01*
X88780132Y-23223513D01*
X88729025Y-23150526D01*
X88047953Y-23831598D01*
X88035165Y-23750852D01*
X87977641Y-23637955D01*
X87888045Y-23548359D01*
X87775148Y-23490835D01*
X87694401Y-23478046D01*
X88375472Y-22796974D01*
X88302478Y-22745863D01*
X88096331Y-22649735D01*
X88096317Y-22649730D01*
X87876610Y-22590860D01*
X87876599Y-22590858D01*
X87650002Y-22571034D01*
X87649998Y-22571034D01*
X87423400Y-22590858D01*
X87423389Y-22590860D01*
X87203682Y-22649730D01*
X87203673Y-22649734D01*
X86997516Y-22745866D01*
X86997512Y-22745868D01*
X86924526Y-22796973D01*
X86924526Y-22796974D01*
X87605599Y-23478046D01*
X87524852Y-23490835D01*
X87411955Y-23548359D01*
X87322359Y-23637955D01*
X87264835Y-23750852D01*
X87252046Y-23831598D01*
X86570974Y-23150526D01*
X86570973Y-23150526D01*
X86519868Y-23223512D01*
X86519866Y-23223516D01*
X86423734Y-23429673D01*
X86423730Y-23429682D01*
X86364860Y-23649389D01*
X86364858Y-23649400D01*
X86345034Y-23875997D01*
X86345034Y-23876002D01*
X86364858Y-24102599D01*
X86364860Y-24102610D01*
X86423730Y-24322317D01*
X86423735Y-24322331D01*
X86519863Y-24528478D01*
X86570974Y-24601472D01*
X87252046Y-23920400D01*
X87264835Y-24001148D01*
X87322359Y-24114045D01*
X87411955Y-24203641D01*
X87524852Y-24261165D01*
X87605599Y-24273953D01*
X86919352Y-24960199D01*
X86909506Y-25009194D01*
X86860890Y-25059377D01*
X86805367Y-25074049D01*
X86805423Y-25075099D01*
X86805429Y-25075146D01*
X86805426Y-25075146D01*
X86805436Y-25075324D01*
X86802123Y-25075501D01*
X86742516Y-25081908D01*
X86607671Y-25132202D01*
X86607664Y-25132206D01*
X86492455Y-25218452D01*
X86492452Y-25218455D01*
X86406206Y-25333664D01*
X86406202Y-25333671D01*
X86355908Y-25468517D01*
X86349501Y-25528116D01*
X86349501Y-25528123D01*
X86349500Y-25528135D01*
X86349500Y-25541500D01*
X86329815Y-25608539D01*
X86277011Y-25654294D01*
X86225500Y-25665500D01*
X84665705Y-25665500D01*
X84647735Y-25664191D01*
X84623972Y-25660710D01*
X84577642Y-25664764D01*
X84574632Y-25665028D01*
X84563826Y-25665500D01*
X84558282Y-25665500D01*
X84527488Y-25669099D01*
X84523905Y-25669465D01*
X84449200Y-25676001D01*
X84442134Y-25677461D01*
X84442122Y-25677404D01*
X84434753Y-25679038D01*
X84434767Y-25679095D01*
X84427743Y-25680759D01*
X84357245Y-25706417D01*
X84353845Y-25707598D01*
X84282665Y-25731186D01*
X84282663Y-25731186D01*
X84282660Y-25731188D01*
X84276123Y-25734236D01*
X84276098Y-25734184D01*
X84269310Y-25737470D01*
X84269336Y-25737521D01*
X84262884Y-25740761D01*
X84200236Y-25781965D01*
X84197196Y-25783902D01*
X84133347Y-25823285D01*
X84127682Y-25827765D01*
X84127646Y-25827719D01*
X84121798Y-25832484D01*
X84121835Y-25832528D01*
X84116310Y-25837164D01*
X84116304Y-25837169D01*
X84116304Y-25837170D01*
X84109837Y-25844025D01*
X84064848Y-25891709D01*
X84062336Y-25894294D01*
X83580950Y-26375681D01*
X83519627Y-26409166D01*
X83493269Y-26412000D01*
X82611686Y-26412000D01*
X82623641Y-26400045D01*
X82681165Y-26287148D01*
X82700986Y-26162000D01*
X82681165Y-26036852D01*
X82623641Y-25923955D01*
X82611686Y-25912000D01*
X83574872Y-25912000D01*
X83574872Y-25911999D01*
X83522269Y-25715682D01*
X83522265Y-25715673D01*
X83426134Y-25509517D01*
X83295657Y-25323179D01*
X83134820Y-25162342D01*
X82948482Y-25031865D01*
X82890133Y-25004657D01*
X82837694Y-24958484D01*
X82818542Y-24891291D01*
X82838758Y-24824410D01*
X82890129Y-24779895D01*
X82948734Y-24752568D01*
X83135139Y-24622047D01*
X83296047Y-24461139D01*
X83426568Y-24274734D01*
X83522739Y-24068496D01*
X83581635Y-23848692D01*
X83601468Y-23622000D01*
X83600195Y-23607455D01*
X83592649Y-23521202D01*
X83581635Y-23395308D01*
X83522739Y-23175504D01*
X83426568Y-22969266D01*
X83296047Y-22782861D01*
X83296045Y-22782858D01*
X83135141Y-22621954D01*
X82948734Y-22491432D01*
X82948728Y-22491429D01*
X82920963Y-22478482D01*
X82890724Y-22464381D01*
X82838285Y-22418210D01*
X82819133Y-22351017D01*
X82839348Y-22284135D01*
X82890725Y-22239618D01*
X82948734Y-22212568D01*
X83135139Y-22082047D01*
X83296047Y-21921139D01*
X83426568Y-21734734D01*
X83522739Y-21528496D01*
X83581635Y-21308692D01*
X83601468Y-21082000D01*
X83581635Y-20855308D01*
X83522739Y-20635504D01*
X83426568Y-20429266D01*
X83296047Y-20242861D01*
X83296045Y-20242858D01*
X83135141Y-20081954D01*
X82948734Y-19951432D01*
X82948728Y-19951429D01*
X82890725Y-19924382D01*
X82838285Y-19878210D01*
X82819133Y-19811017D01*
X82839348Y-19744135D01*
X82890725Y-19699618D01*
X82948734Y-19672568D01*
X83135139Y-19542047D01*
X83296047Y-19381139D01*
X83408613Y-19220377D01*
X83463189Y-19176752D01*
X83510188Y-19167500D01*
X84576773Y-19167500D01*
X84643812Y-19187185D01*
X84678348Y-19220377D01*
X84813500Y-19413395D01*
X84813505Y-19413401D01*
X84980599Y-19580495D01*
X85077384Y-19648265D01*
X85174165Y-19716032D01*
X85174167Y-19716033D01*
X85174170Y-19716035D01*
X85388337Y-19815903D01*
X85616592Y-19877063D01*
X85804918Y-19893539D01*
X85851999Y-19897659D01*
X85852000Y-19897659D01*
X85852001Y-19897659D01*
X85891234Y-19894226D01*
X86087408Y-19877063D01*
X86315663Y-19815903D01*
X86529830Y-19716035D01*
X86723401Y-19580495D01*
X86890495Y-19413401D01*
X87026035Y-19219830D01*
X87125903Y-19005663D01*
X87187063Y-18777408D01*
X87207659Y-18542000D01*
X87187063Y-18306592D01*
X87127197Y-18083166D01*
X87125905Y-18078344D01*
X87125904Y-18078343D01*
X87125903Y-18078337D01*
X87026035Y-17864171D01*
X87025652Y-17863623D01*
X86890494Y-17670597D01*
X86723402Y-17503506D01*
X86723396Y-17503501D01*
X86537842Y-17373575D01*
X86494217Y-17318998D01*
X86487023Y-17249500D01*
X86518546Y-17187145D01*
X86537842Y-17170425D01*
X86633595Y-17103378D01*
X86723401Y-17040495D01*
X86890495Y-16873401D01*
X87026035Y-16679830D01*
X87125903Y-16465663D01*
X87187063Y-16237408D01*
X87207659Y-16002000D01*
X87206279Y-15986232D01*
X87200529Y-15920502D01*
X87187063Y-15766592D01*
X87127197Y-15543166D01*
X87125905Y-15538344D01*
X87125904Y-15538343D01*
X87125903Y-15538337D01*
X87026035Y-15324171D01*
X87025652Y-15323623D01*
X86890494Y-15130597D01*
X86723402Y-14963506D01*
X86723396Y-14963501D01*
X86537842Y-14833575D01*
X86494217Y-14778998D01*
X86487023Y-14709500D01*
X86518546Y-14647145D01*
X86537842Y-14630425D01*
X86612454Y-14578181D01*
X86723401Y-14500495D01*
X86890495Y-14333401D01*
X87026035Y-14139830D01*
X87125903Y-13925663D01*
X87187063Y-13697408D01*
X87207659Y-13462000D01*
X87187063Y-13226592D01*
X87127197Y-13003166D01*
X87125905Y-12998344D01*
X87125904Y-12998343D01*
X87125903Y-12998337D01*
X87026035Y-12784171D01*
X87025652Y-12783623D01*
X86890494Y-12590597D01*
X86723402Y-12423506D01*
X86723396Y-12423501D01*
X86537842Y-12293575D01*
X86494217Y-12238998D01*
X86487023Y-12169500D01*
X86518546Y-12107145D01*
X86537842Y-12090425D01*
X86591909Y-12052567D01*
X86723401Y-11960495D01*
X86890495Y-11793401D01*
X87026035Y-11599830D01*
X87125903Y-11385663D01*
X87187063Y-11157408D01*
X87207659Y-10922000D01*
X87187063Y-10686592D01*
X87130551Y-10475682D01*
X87125905Y-10458344D01*
X87125904Y-10458343D01*
X87125903Y-10458337D01*
X87026035Y-10244171D01*
X87025652Y-10243623D01*
X86890494Y-10050597D01*
X86723402Y-9883506D01*
X86723396Y-9883501D01*
X86537842Y-9753575D01*
X86494217Y-9698998D01*
X86487023Y-9629500D01*
X86518546Y-9567145D01*
X86537842Y-9550425D01*
X86560026Y-9534891D01*
X86723401Y-9420495D01*
X86890495Y-9253401D01*
X87026035Y-9059830D01*
X87125903Y-8845663D01*
X87187063Y-8617408D01*
X87207659Y-8382000D01*
X87187063Y-8146592D01*
X87135593Y-7954500D01*
X87125905Y-7918344D01*
X87125904Y-7918343D01*
X87125903Y-7918337D01*
X87026035Y-7704171D01*
X87025652Y-7703623D01*
X86890494Y-7510597D01*
X86723402Y-7343506D01*
X86723396Y-7343501D01*
X86537842Y-7213575D01*
X86494217Y-7158998D01*
X86487023Y-7089500D01*
X86518546Y-7027145D01*
X86537842Y-7010425D01*
X86616700Y-6955208D01*
X86723401Y-6880495D01*
X86890495Y-6713401D01*
X87026035Y-6519830D01*
X87125903Y-6305663D01*
X87187063Y-6077408D01*
X87207659Y-5842000D01*
X87187063Y-5606592D01*
X87153279Y-5480507D01*
X87154942Y-5410660D01*
X87194104Y-5352797D01*
X87258333Y-5325293D01*
X87327235Y-5336879D01*
G37*
%TD.AperFunction*%
%TA.AperFunction,Conductor*%
G36*
X81561857Y-2019685D02*
G01*
X81607612Y-2072489D01*
X81617556Y-2141647D01*
X81588531Y-2205203D01*
X81565941Y-2225575D01*
X81456858Y-2301954D01*
X81295954Y-2462858D01*
X81165432Y-2649265D01*
X81165431Y-2649267D01*
X81069261Y-2855502D01*
X81069258Y-2855511D01*
X81010366Y-3075302D01*
X81010364Y-3075313D01*
X80990532Y-3301998D01*
X80990532Y-3302001D01*
X81010364Y-3528686D01*
X81010366Y-3528697D01*
X81069258Y-3748488D01*
X81069261Y-3748497D01*
X81165431Y-3954732D01*
X81165432Y-3954734D01*
X81295954Y-4141141D01*
X81456858Y-4302045D01*
X81456861Y-4302047D01*
X81643266Y-4432568D01*
X81701275Y-4459618D01*
X81753714Y-4505791D01*
X81772866Y-4572984D01*
X81752650Y-4639865D01*
X81701275Y-4684381D01*
X81684272Y-4692310D01*
X81643267Y-4711431D01*
X81643265Y-4711432D01*
X81456858Y-4841954D01*
X81295954Y-5002858D01*
X81165432Y-5189265D01*
X81165431Y-5189267D01*
X81069261Y-5395502D01*
X81069258Y-5395511D01*
X81010366Y-5615302D01*
X81010364Y-5615313D01*
X80990532Y-5841998D01*
X80990532Y-5842001D01*
X81010364Y-6068686D01*
X81010366Y-6068697D01*
X81069258Y-6288488D01*
X81069261Y-6288497D01*
X81165431Y-6494732D01*
X81165432Y-6494734D01*
X81295954Y-6681141D01*
X81456858Y-6842045D01*
X81456861Y-6842047D01*
X81643266Y-6972568D01*
X81648662Y-6975084D01*
X81701275Y-6999618D01*
X81753714Y-7045791D01*
X81772866Y-7112984D01*
X81752650Y-7179865D01*
X81701275Y-7224381D01*
X81685562Y-7231709D01*
X81643267Y-7251431D01*
X81643265Y-7251432D01*
X81456858Y-7381954D01*
X81295954Y-7542858D01*
X81165432Y-7729265D01*
X81165431Y-7729267D01*
X81069261Y-7935502D01*
X81069258Y-7935511D01*
X81010366Y-8155302D01*
X81010364Y-8155313D01*
X80990532Y-8381998D01*
X80990532Y-8382001D01*
X81010364Y-8608686D01*
X81010366Y-8608697D01*
X81069258Y-8828488D01*
X81069261Y-8828497D01*
X81165431Y-9034732D01*
X81165432Y-9034734D01*
X81295954Y-9221141D01*
X81456858Y-9382045D01*
X81456861Y-9382047D01*
X81643266Y-9512568D01*
X81701275Y-9539618D01*
X81753714Y-9585791D01*
X81772866Y-9652984D01*
X81752650Y-9719865D01*
X81701275Y-9764382D01*
X81643267Y-9791431D01*
X81643265Y-9791432D01*
X81456858Y-9921954D01*
X81295954Y-10082858D01*
X81165432Y-10269265D01*
X81165431Y-10269267D01*
X81069261Y-10475502D01*
X81069258Y-10475511D01*
X81010366Y-10695302D01*
X81010364Y-10695313D01*
X80990532Y-10921998D01*
X80990532Y-10922001D01*
X81010364Y-11148686D01*
X81010366Y-11148697D01*
X81069258Y-11368488D01*
X81069261Y-11368497D01*
X81165431Y-11574732D01*
X81165432Y-11574734D01*
X81295954Y-11761141D01*
X81456858Y-11922045D01*
X81456861Y-11922047D01*
X81643266Y-12052568D01*
X81701275Y-12079618D01*
X81753714Y-12125791D01*
X81772866Y-12192984D01*
X81752650Y-12259865D01*
X81701275Y-12304382D01*
X81643267Y-12331431D01*
X81643265Y-12331432D01*
X81456858Y-12461954D01*
X81295954Y-12622858D01*
X81165432Y-12809265D01*
X81165431Y-12809267D01*
X81069261Y-13015502D01*
X81069258Y-13015511D01*
X81010366Y-13235302D01*
X81010364Y-13235313D01*
X80990532Y-13461998D01*
X80990532Y-13462001D01*
X81010364Y-13688686D01*
X81010366Y-13688697D01*
X81069258Y-13908488D01*
X81069261Y-13908497D01*
X81165431Y-14114732D01*
X81165432Y-14114734D01*
X81295954Y-14301141D01*
X81456858Y-14462045D01*
X81456861Y-14462047D01*
X81643266Y-14592568D01*
X81696587Y-14617432D01*
X81701275Y-14619618D01*
X81753714Y-14665791D01*
X81772866Y-14732984D01*
X81752650Y-14799865D01*
X81701275Y-14844381D01*
X81684272Y-14852310D01*
X81643267Y-14871431D01*
X81643265Y-14871432D01*
X81456858Y-15001954D01*
X81295954Y-15162858D01*
X81165432Y-15349265D01*
X81165431Y-15349267D01*
X81069261Y-15555502D01*
X81069258Y-15555511D01*
X81010366Y-15775302D01*
X81010364Y-15775313D01*
X80990532Y-16001998D01*
X80990532Y-16002001D01*
X81010364Y-16228686D01*
X81010366Y-16228697D01*
X81069258Y-16448488D01*
X81069261Y-16448497D01*
X81165431Y-16654732D01*
X81165432Y-16654734D01*
X81295954Y-16841141D01*
X81456858Y-17002045D01*
X81501971Y-17033633D01*
X81643266Y-17132568D01*
X81701275Y-17159618D01*
X81753714Y-17205791D01*
X81772866Y-17272984D01*
X81752650Y-17339865D01*
X81701275Y-17384382D01*
X81643267Y-17411431D01*
X81643265Y-17411432D01*
X81456858Y-17541954D01*
X81295954Y-17702858D01*
X81165432Y-17889265D01*
X81165431Y-17889267D01*
X81069261Y-18095502D01*
X81069258Y-18095511D01*
X81010366Y-18315302D01*
X81010364Y-18315313D01*
X80990532Y-18541998D01*
X80990532Y-18542001D01*
X81010364Y-18768686D01*
X81010366Y-18768697D01*
X81069258Y-18988488D01*
X81069261Y-18988497D01*
X81165431Y-19194732D01*
X81165432Y-19194734D01*
X81295954Y-19381141D01*
X81456858Y-19542045D01*
X81456861Y-19542047D01*
X81643266Y-19672568D01*
X81701275Y-19699618D01*
X81753714Y-19745791D01*
X81772866Y-19812984D01*
X81752650Y-19879865D01*
X81701275Y-19924382D01*
X81643267Y-19951431D01*
X81643265Y-19951432D01*
X81456858Y-20081954D01*
X81295954Y-20242858D01*
X81165432Y-20429265D01*
X81165431Y-20429267D01*
X81069261Y-20635502D01*
X81069258Y-20635511D01*
X81010366Y-20855302D01*
X81010364Y-20855313D01*
X80990532Y-21081998D01*
X80990532Y-21082001D01*
X81010364Y-21308686D01*
X81010366Y-21308697D01*
X81069258Y-21528488D01*
X81069261Y-21528497D01*
X81165431Y-21734732D01*
X81165432Y-21734734D01*
X81295954Y-21921141D01*
X81456858Y-22082045D01*
X81456861Y-22082047D01*
X81643266Y-22212568D01*
X81701275Y-22239618D01*
X81753714Y-22285791D01*
X81772866Y-22352984D01*
X81752650Y-22419865D01*
X81701275Y-22464382D01*
X81643267Y-22491431D01*
X81643265Y-22491432D01*
X81456858Y-22621954D01*
X81295954Y-22782858D01*
X81165432Y-22969265D01*
X81165431Y-22969267D01*
X81069261Y-23175502D01*
X81069258Y-23175511D01*
X81010366Y-23395302D01*
X81010364Y-23395313D01*
X80990532Y-23621998D01*
X80990532Y-23622001D01*
X81010364Y-23848686D01*
X81010366Y-23848697D01*
X81069258Y-24068488D01*
X81069261Y-24068497D01*
X81165431Y-24274732D01*
X81165432Y-24274734D01*
X81295954Y-24461141D01*
X81456858Y-24622045D01*
X81482289Y-24639852D01*
X81643266Y-24752568D01*
X81701865Y-24779893D01*
X81754305Y-24826065D01*
X81773457Y-24893258D01*
X81753242Y-24960139D01*
X81701867Y-25004657D01*
X81643515Y-25031867D01*
X81457179Y-25162342D01*
X81296342Y-25323179D01*
X81165865Y-25509517D01*
X81069734Y-25715673D01*
X81069730Y-25715682D01*
X81017127Y-25911999D01*
X81017128Y-25912000D01*
X81980314Y-25912000D01*
X81968359Y-25923955D01*
X81910835Y-26036852D01*
X81891014Y-26162000D01*
X81910835Y-26287148D01*
X81968359Y-26400045D01*
X81980314Y-26412000D01*
X81017128Y-26412000D01*
X81069730Y-26608317D01*
X81069734Y-26608326D01*
X81165865Y-26814482D01*
X81296342Y-27000820D01*
X81457179Y-27161657D01*
X81643518Y-27292134D01*
X81643520Y-27292135D01*
X81701865Y-27319342D01*
X81754305Y-27365514D01*
X81773457Y-27432707D01*
X81753242Y-27499589D01*
X81701867Y-27544105D01*
X81700685Y-27544657D01*
X81643264Y-27571433D01*
X81456858Y-27701954D01*
X81295954Y-27862858D01*
X81270912Y-27898623D01*
X81216335Y-27942248D01*
X81169337Y-27951500D01*
X69978229Y-27951500D01*
X69911190Y-27931815D01*
X69890548Y-27915181D01*
X68384325Y-26408957D01*
X68350840Y-26347634D01*
X68348478Y-26310472D01*
X68361468Y-26162000D01*
X68341635Y-25935308D01*
X68287744Y-25734184D01*
X68282741Y-25715511D01*
X68282738Y-25715502D01*
X68279053Y-25707600D01*
X68186568Y-25509266D01*
X68056047Y-25322861D01*
X68056045Y-25322858D01*
X67895141Y-25161954D01*
X67708734Y-25031432D01*
X67708728Y-25031429D01*
X67681038Y-25018517D01*
X67650724Y-25004381D01*
X67598285Y-24958210D01*
X67579133Y-24891017D01*
X67599348Y-24824135D01*
X67650725Y-24779618D01*
X67655415Y-24777431D01*
X67708734Y-24752568D01*
X67895139Y-24622047D01*
X68056047Y-24461139D01*
X68186568Y-24274734D01*
X68282739Y-24068496D01*
X68341635Y-23848692D01*
X68361468Y-23622000D01*
X68360195Y-23607455D01*
X68352649Y-23521202D01*
X68341635Y-23395308D01*
X68282739Y-23175504D01*
X68186568Y-22969266D01*
X68056047Y-22782861D01*
X68056045Y-22782858D01*
X67895141Y-22621954D01*
X67708734Y-22491432D01*
X67708728Y-22491429D01*
X67680963Y-22478482D01*
X67650724Y-22464381D01*
X67598285Y-22418210D01*
X67579133Y-22351017D01*
X67599348Y-22284135D01*
X67650725Y-22239618D01*
X67708734Y-22212568D01*
X67895139Y-22082047D01*
X68056047Y-21921139D01*
X68186568Y-21734734D01*
X68282739Y-21528496D01*
X68341635Y-21308692D01*
X68361468Y-21082000D01*
X68341635Y-20855308D01*
X68282739Y-20635504D01*
X68186568Y-20429266D01*
X68056047Y-20242861D01*
X68056045Y-20242858D01*
X67895141Y-20081954D01*
X67708734Y-19951432D01*
X67708728Y-19951429D01*
X67650725Y-19924382D01*
X67598285Y-19878210D01*
X67579133Y-19811017D01*
X67599348Y-19744135D01*
X67650725Y-19699618D01*
X67708734Y-19672568D01*
X67895139Y-19542047D01*
X68056047Y-19381139D01*
X68186568Y-19194734D01*
X68282739Y-18988496D01*
X68341635Y-18768692D01*
X68361468Y-18542000D01*
X68341635Y-18315308D01*
X68282739Y-18095504D01*
X68186568Y-17889266D01*
X68056047Y-17702861D01*
X68056045Y-17702858D01*
X67895141Y-17541954D01*
X67708734Y-17411432D01*
X67708728Y-17411429D01*
X67650725Y-17384382D01*
X67598285Y-17338210D01*
X67579133Y-17271017D01*
X67599348Y-17204135D01*
X67650725Y-17159618D01*
X67708734Y-17132568D01*
X67895139Y-17002047D01*
X68056047Y-16841139D01*
X68186568Y-16654734D01*
X68282739Y-16448496D01*
X68341635Y-16228692D01*
X68361468Y-16002000D01*
X68360088Y-15986232D01*
X68354040Y-15917102D01*
X68341635Y-15775308D01*
X68290134Y-15583104D01*
X68282741Y-15555511D01*
X68282738Y-15555502D01*
X68276637Y-15542418D01*
X68186568Y-15349266D01*
X68056047Y-15162861D01*
X68056045Y-15162858D01*
X67895141Y-15001954D01*
X67708734Y-14871432D01*
X67708728Y-14871429D01*
X67676095Y-14856212D01*
X67650724Y-14844381D01*
X67598285Y-14798210D01*
X67579133Y-14731017D01*
X67599348Y-14664135D01*
X67650725Y-14619618D01*
X67655413Y-14617432D01*
X67708734Y-14592568D01*
X67895139Y-14462047D01*
X68056047Y-14301139D01*
X68186568Y-14114734D01*
X68282739Y-13908496D01*
X68341635Y-13688692D01*
X68361468Y-13462000D01*
X68359369Y-13438013D01*
X68345823Y-13283181D01*
X68341635Y-13235308D01*
X68282739Y-13015504D01*
X68186568Y-12809266D01*
X68056047Y-12622861D01*
X68056045Y-12622858D01*
X67895141Y-12461954D01*
X67708734Y-12331432D01*
X67708728Y-12331429D01*
X67650725Y-12304382D01*
X67598285Y-12258210D01*
X67579133Y-12191017D01*
X67599348Y-12124135D01*
X67650725Y-12079618D01*
X67708734Y-12052568D01*
X67895139Y-11922047D01*
X68056047Y-11761139D01*
X68186568Y-11574734D01*
X68282739Y-11368496D01*
X68341635Y-11148692D01*
X68361468Y-10922000D01*
X68341635Y-10695308D01*
X68282739Y-10475504D01*
X68186568Y-10269266D01*
X68056047Y-10082861D01*
X68056045Y-10082858D01*
X67895141Y-9921954D01*
X67708734Y-9791432D01*
X67708728Y-9791429D01*
X67650725Y-9764382D01*
X67598285Y-9718210D01*
X67579133Y-9651017D01*
X67599348Y-9584135D01*
X67650725Y-9539618D01*
X67708734Y-9512568D01*
X67895139Y-9382047D01*
X68056047Y-9221139D01*
X68186568Y-9034734D01*
X68282739Y-8828496D01*
X68341635Y-8608692D01*
X68361468Y-8382000D01*
X68341635Y-8155308D01*
X68282739Y-7935504D01*
X68186568Y-7729266D01*
X68056047Y-7542861D01*
X68056045Y-7542858D01*
X67895141Y-7381954D01*
X67708734Y-7251432D01*
X67708728Y-7251429D01*
X67666438Y-7231709D01*
X67650724Y-7224381D01*
X67598285Y-7178210D01*
X67579133Y-7111017D01*
X67599348Y-7044135D01*
X67650725Y-6999618D01*
X67662464Y-6994144D01*
X67708734Y-6972568D01*
X67895139Y-6842047D01*
X68056047Y-6681139D01*
X68186568Y-6494734D01*
X68282739Y-6288496D01*
X68341635Y-6068692D01*
X68361468Y-5842000D01*
X68341635Y-5615308D01*
X68282739Y-5395504D01*
X68186568Y-5189266D01*
X68056047Y-5002861D01*
X68056045Y-5002858D01*
X67895143Y-4841956D01*
X67870536Y-4824726D01*
X67826912Y-4770149D01*
X67819719Y-4700650D01*
X67851241Y-4638296D01*
X67911471Y-4602882D01*
X67928404Y-4599861D01*
X67963483Y-4596091D01*
X68098331Y-4545796D01*
X68213546Y-4459546D01*
X68299796Y-4344331D01*
X68350091Y-4209483D01*
X68356500Y-4149873D01*
X68356499Y-2454128D01*
X68350091Y-2394517D01*
X68331442Y-2344517D01*
X68299797Y-2259671D01*
X68299793Y-2259664D01*
X68253864Y-2198311D01*
X68229446Y-2132847D01*
X68244297Y-2064574D01*
X68293702Y-2015168D01*
X68353130Y-2000000D01*
X81494818Y-2000000D01*
X81561857Y-2019685D01*
G37*
%TD.AperFunction*%
%TA.AperFunction,Conductor*%
G36*
X39454855Y-7270546D02*
G01*
X39471575Y-7289842D01*
X39601500Y-7475395D01*
X39601505Y-7475401D01*
X39768599Y-7642495D01*
X39855899Y-7703623D01*
X39962165Y-7778032D01*
X39962167Y-7778033D01*
X39962170Y-7778035D01*
X40176337Y-7877903D01*
X40404592Y-7939063D01*
X40581034Y-7954500D01*
X40639999Y-7959659D01*
X40640000Y-7959659D01*
X40640001Y-7959659D01*
X40698966Y-7954500D01*
X40875408Y-7939063D01*
X40891485Y-7934755D01*
X40961334Y-7936418D01*
X41011258Y-7966848D01*
X42051224Y-9006815D01*
X43080197Y-10035788D01*
X43090022Y-10048051D01*
X43090243Y-10047869D01*
X43095211Y-10053874D01*
X43095213Y-10053876D01*
X43095214Y-10053877D01*
X43144222Y-10099899D01*
X43147021Y-10102612D01*
X43166522Y-10122114D01*
X43166526Y-10122117D01*
X43166529Y-10122120D01*
X43169702Y-10124581D01*
X43178574Y-10132159D01*
X43210418Y-10162062D01*
X43227976Y-10171714D01*
X43244233Y-10182393D01*
X43260064Y-10194673D01*
X43289803Y-10207542D01*
X43300152Y-10212021D01*
X43310641Y-10217160D01*
X43334457Y-10230252D01*
X43348908Y-10238197D01*
X43361523Y-10241435D01*
X43368305Y-10243177D01*
X43386719Y-10249481D01*
X43405104Y-10257438D01*
X43448261Y-10264273D01*
X43459656Y-10266632D01*
X43501981Y-10277500D01*
X43522016Y-10277500D01*
X43541413Y-10279026D01*
X43561196Y-10282160D01*
X43604675Y-10278050D01*
X43616344Y-10277500D01*
X47439503Y-10277500D01*
X47506542Y-10297185D01*
X47552297Y-10349989D01*
X47562241Y-10419147D01*
X47551885Y-10453906D01*
X47541732Y-10475678D01*
X47541730Y-10475682D01*
X47489127Y-10671999D01*
X47489128Y-10672000D01*
X48452314Y-10672000D01*
X48440359Y-10683955D01*
X48382835Y-10796852D01*
X48363014Y-10922000D01*
X48382835Y-11047148D01*
X48440359Y-11160045D01*
X48452314Y-11172000D01*
X47489128Y-11172000D01*
X47541730Y-11368317D01*
X47541734Y-11368326D01*
X47637866Y-11574483D01*
X47637868Y-11574487D01*
X47673502Y-11625377D01*
X47695829Y-11691583D01*
X47678819Y-11759350D01*
X47627871Y-11807163D01*
X47571927Y-11820500D01*
X39065452Y-11820500D01*
X38998413Y-11800815D01*
X38977771Y-11784181D01*
X35355153Y-8161562D01*
X35321668Y-8100239D01*
X35326652Y-8030547D01*
X35368524Y-7974614D01*
X35433988Y-7950197D01*
X35453633Y-7950352D01*
X35560000Y-7959659D01*
X35560001Y-7959659D01*
X35618966Y-7954500D01*
X35795408Y-7939063D01*
X36023663Y-7877903D01*
X36237830Y-7778035D01*
X36431401Y-7642495D01*
X36598495Y-7475401D01*
X36728425Y-7289842D01*
X36783002Y-7246217D01*
X36852500Y-7239023D01*
X36914855Y-7270546D01*
X36931575Y-7289842D01*
X37061500Y-7475395D01*
X37061505Y-7475401D01*
X37228599Y-7642495D01*
X37315899Y-7703623D01*
X37422165Y-7778032D01*
X37422167Y-7778033D01*
X37422170Y-7778035D01*
X37636337Y-7877903D01*
X37864592Y-7939063D01*
X38041034Y-7954500D01*
X38099999Y-7959659D01*
X38100000Y-7959659D01*
X38100001Y-7959659D01*
X38158966Y-7954500D01*
X38335408Y-7939063D01*
X38563663Y-7877903D01*
X38777830Y-7778035D01*
X38971401Y-7642495D01*
X39138495Y-7475401D01*
X39268425Y-7289842D01*
X39323002Y-7246217D01*
X39392500Y-7239023D01*
X39454855Y-7270546D01*
G37*
%TD.AperFunction*%
%TA.AperFunction,Conductor*%
G36*
X55125990Y-10297185D02*
G01*
X55171745Y-10349989D01*
X55181689Y-10419147D01*
X55171333Y-10453903D01*
X55167363Y-10462418D01*
X55161262Y-10475502D01*
X55161258Y-10475511D01*
X55102366Y-10695302D01*
X55102364Y-10695313D01*
X55082532Y-10921998D01*
X55082532Y-10922001D01*
X55102364Y-11148686D01*
X55102366Y-11148697D01*
X55155971Y-11348756D01*
X55154308Y-11418606D01*
X55123877Y-11468530D01*
X54808226Y-11784182D01*
X54746905Y-11817666D01*
X54720547Y-11820500D01*
X49964073Y-11820500D01*
X49897034Y-11800815D01*
X49851279Y-11748011D01*
X49841335Y-11678853D01*
X49862498Y-11625377D01*
X49898131Y-11574487D01*
X49898133Y-11574483D01*
X49994265Y-11368326D01*
X49994269Y-11368317D01*
X50046872Y-11172000D01*
X49083686Y-11172000D01*
X49095641Y-11160045D01*
X49153165Y-11047148D01*
X49172986Y-10922000D01*
X49153165Y-10796852D01*
X49095641Y-10683955D01*
X49083686Y-10672000D01*
X50046872Y-10672000D01*
X50046872Y-10671999D01*
X49994269Y-10475682D01*
X49994267Y-10475678D01*
X49984115Y-10453906D01*
X49973623Y-10384828D01*
X50002142Y-10321044D01*
X50060618Y-10282804D01*
X50096497Y-10277500D01*
X55058951Y-10277500D01*
X55125990Y-10297185D01*
G37*
%TD.AperFunction*%
%TA.AperFunction,Conductor*%
G36*
X47410539Y-2802185D02*
G01*
X47456294Y-2854989D01*
X47467500Y-2906500D01*
X47467500Y-4149870D01*
X47467501Y-4149876D01*
X47473908Y-4209483D01*
X47524202Y-4344328D01*
X47524206Y-4344335D01*
X47610452Y-4459544D01*
X47610455Y-4459547D01*
X47725664Y-4545793D01*
X47725671Y-4545797D01*
X47733401Y-4548680D01*
X47860517Y-4596091D01*
X47895596Y-4599862D01*
X47960144Y-4626599D01*
X47999993Y-4683991D01*
X48002488Y-4753816D01*
X47966836Y-4813905D01*
X47953464Y-4824725D01*
X47928858Y-4841954D01*
X47767954Y-5002858D01*
X47637432Y-5189265D01*
X47637431Y-5189267D01*
X47541261Y-5395502D01*
X47541258Y-5395511D01*
X47482366Y-5615302D01*
X47482364Y-5615313D01*
X47462532Y-5841998D01*
X47462532Y-5842007D01*
X47463117Y-5848697D01*
X47449349Y-5917196D01*
X47400732Y-5967378D01*
X47339589Y-5983500D01*
X44458725Y-5983500D01*
X44391686Y-5963815D01*
X44358707Y-5929508D01*
X44357140Y-5930606D01*
X44347750Y-5917196D01*
X44218495Y-5732599D01*
X44218494Y-5732597D01*
X44051402Y-5565506D01*
X44051401Y-5565505D01*
X43865405Y-5435269D01*
X43821781Y-5380692D01*
X43814588Y-5311193D01*
X43846110Y-5248839D01*
X43865405Y-5232119D01*
X44051082Y-5102105D01*
X44218105Y-4935082D01*
X44353600Y-4741578D01*
X44453429Y-4527492D01*
X44453432Y-4527486D01*
X44510636Y-4314000D01*
X43613686Y-4314000D01*
X43639493Y-4273844D01*
X43680000Y-4135889D01*
X43680000Y-3992111D01*
X43639493Y-3854156D01*
X43613686Y-3814000D01*
X44510636Y-3814000D01*
X44510635Y-3813999D01*
X44453432Y-3600513D01*
X44453429Y-3600507D01*
X44353600Y-3386422D01*
X44353599Y-3386420D01*
X44218113Y-3192926D01*
X44218108Y-3192920D01*
X44051082Y-3025894D01*
X44025634Y-3008075D01*
X43982009Y-2953497D01*
X43974817Y-2883999D01*
X44006339Y-2821644D01*
X44066569Y-2786231D01*
X44096758Y-2782500D01*
X47343500Y-2782500D01*
X47410539Y-2802185D01*
G37*
%TD.AperFunction*%
%TA.AperFunction,Conductor*%
G36*
X21638507Y-3854156D02*
G01*
X21598000Y-3992111D01*
X21598000Y-4135889D01*
X21638507Y-4273844D01*
X21664314Y-4314000D01*
X19991686Y-4314000D01*
X20017493Y-4273844D01*
X20058000Y-4135889D01*
X20058000Y-3992111D01*
X20017493Y-3854156D01*
X19991686Y-3814000D01*
X21664314Y-3814000D01*
X21638507Y-3854156D01*
G37*
%TD.AperFunction*%
%TA.AperFunction,Conductor*%
G36*
X24178507Y-3854156D02*
G01*
X24138000Y-3992111D01*
X24138000Y-4135889D01*
X24178507Y-4273844D01*
X24204314Y-4314000D01*
X22531686Y-4314000D01*
X22557493Y-4273844D01*
X22598000Y-4135889D01*
X22598000Y-3992111D01*
X22557493Y-3854156D01*
X22531686Y-3814000D01*
X24204314Y-3814000D01*
X24178507Y-3854156D01*
G37*
%TD.AperFunction*%
%TA.AperFunction,Conductor*%
G36*
X26718507Y-3854156D02*
G01*
X26678000Y-3992111D01*
X26678000Y-4135889D01*
X26718507Y-4273844D01*
X26744314Y-4314000D01*
X25071686Y-4314000D01*
X25097493Y-4273844D01*
X25138000Y-4135889D01*
X25138000Y-3992111D01*
X25097493Y-3854156D01*
X25071686Y-3814000D01*
X26744314Y-3814000D01*
X26718507Y-3854156D01*
G37*
%TD.AperFunction*%
%TA.AperFunction,Conductor*%
G36*
X37640507Y-3854156D02*
G01*
X37600000Y-3992111D01*
X37600000Y-4135889D01*
X37640507Y-4273844D01*
X37666314Y-4314000D01*
X35993686Y-4314000D01*
X36019493Y-4273844D01*
X36060000Y-4135889D01*
X36060000Y-3992111D01*
X36019493Y-3854156D01*
X35993686Y-3814000D01*
X37666314Y-3814000D01*
X37640507Y-3854156D01*
G37*
%TD.AperFunction*%
%TA.AperFunction,Conductor*%
G36*
X40180507Y-3854156D02*
G01*
X40140000Y-3992111D01*
X40140000Y-4135889D01*
X40180507Y-4273844D01*
X40206314Y-4314000D01*
X38533686Y-4314000D01*
X38559493Y-4273844D01*
X38600000Y-4135889D01*
X38600000Y-3992111D01*
X38559493Y-3854156D01*
X38533686Y-3814000D01*
X40206314Y-3814000D01*
X40180507Y-3854156D01*
G37*
%TD.AperFunction*%
%TA.AperFunction,Conductor*%
G36*
X42720507Y-3854156D02*
G01*
X42680000Y-3992111D01*
X42680000Y-4135889D01*
X42720507Y-4273844D01*
X42746314Y-4314000D01*
X41073686Y-4314000D01*
X41099493Y-4273844D01*
X41140000Y-4135889D01*
X41140000Y-3992111D01*
X41099493Y-3854156D01*
X41073686Y-3814000D01*
X42746314Y-3814000D01*
X42720507Y-3854156D01*
G37*
%TD.AperFunction*%
%TD*%
M02*
