%TF.GenerationSoftware,KiCad,Pcbnew,7.0.10*%
%TF.CreationDate,2024-04-05T12:25:05+02:00*%
%TF.ProjectId,avr-basic-sbc,6176722d-6261-4736-9963-2d7362632e6b,v0.1*%
%TF.SameCoordinates,Original*%
%TF.FileFunction,Soldermask,Top*%
%TF.FilePolarity,Negative*%
%FSLAX46Y46*%
G04 Gerber Fmt 4.6, Leading zero omitted, Abs format (unit mm)*
G04 Created by KiCad (PCBNEW 7.0.10) date 2024-04-05 12:25:05*
%MOMM*%
%LPD*%
G01*
G04 APERTURE LIST*
G04 Aperture macros list*
%AMRoundRect*
0 Rectangle with rounded corners*
0 $1 Rounding radius*
0 $2 $3 $4 $5 $6 $7 $8 $9 X,Y pos of 4 corners*
0 Add a 4 corners polygon primitive as box body*
4,1,4,$2,$3,$4,$5,$6,$7,$8,$9,$2,$3,0*
0 Add four circle primitives for the rounded corners*
1,1,$1+$1,$2,$3*
1,1,$1+$1,$4,$5*
1,1,$1+$1,$6,$7*
1,1,$1+$1,$8,$9*
0 Add four rect primitives between the rounded corners*
20,1,$1+$1,$2,$3,$4,$5,0*
20,1,$1+$1,$4,$5,$6,$7,0*
20,1,$1+$1,$6,$7,$8,$9,0*
20,1,$1+$1,$8,$9,$2,$3,0*%
G04 Aperture macros list end*
%ADD10C,3.200000*%
%ADD11C,1.600000*%
%ADD12O,1.600000X1.600000*%
%ADD13RoundRect,0.102000X-0.699000X-0.699000X0.699000X-0.699000X0.699000X0.699000X-0.699000X0.699000X0*%
%ADD14C,1.602000*%
%ADD15C,3.510000*%
%ADD16O,2.554000X4.904000*%
%ADD17O,4.204000X2.204000*%
%ADD18RoundRect,0.102000X-0.754000X-0.754000X0.754000X-0.754000X0.754000X0.754000X-0.754000X0.754000X0*%
%ADD19C,1.712000*%
%ADD20R,2.000000X1.905000*%
%ADD21O,2.000000X1.905000*%
%ADD22R,1.800000X1.800000*%
%ADD23C,1.800000*%
%ADD24R,1.700000X1.700000*%
%ADD25O,1.700000X1.700000*%
%ADD26R,1.600000X1.600000*%
%ADD27C,1.400000*%
%ADD28C,1.512000*%
%ADD29RoundRect,0.102000X-0.654000X-0.654000X0.654000X-0.654000X0.654000X0.654000X-0.654000X0.654000X0*%
%ADD30C,3.820000*%
%ADD31RoundRect,0.102000X0.654000X-0.654000X0.654000X0.654000X-0.654000X0.654000X-0.654000X-0.654000X0*%
%ADD32C,1.500000*%
G04 APERTURE END LIST*
D10*
%TO.C,MH1*%
X3010000Y-51460000D03*
%TD*%
D11*
%TO.C,R7*%
X32024000Y-12954000D03*
D12*
X21864000Y-12954000D03*
%TD*%
D11*
%TO.C,R6*%
X21864000Y-37084000D03*
D12*
X32024000Y-37084000D03*
%TD*%
D13*
%TO.C,J2*%
X32562000Y-46432000D03*
D14*
X29962000Y-46432000D03*
X34612000Y-46432000D03*
X27912000Y-46432000D03*
X34612000Y-43942000D03*
X27912000Y-43942000D03*
D15*
X31262000Y-50242000D03*
X24502000Y-49432000D03*
X38022000Y-49432000D03*
%TD*%
D11*
%TO.C,R1*%
X21864000Y-17780000D03*
D12*
X32024000Y-17780000D03*
%TD*%
D16*
%TO.C,J1*%
X17034000Y-43972600D03*
D17*
X12234000Y-47472600D03*
X12234000Y-41472600D03*
%TD*%
D18*
%TO.C,S1*%
X11883000Y-11420500D03*
D19*
X18383000Y-11420500D03*
X11883000Y-15920500D03*
X18383000Y-15920500D03*
%TD*%
D10*
%TO.C,MH2*%
X91010000Y-3460000D03*
%TD*%
D20*
%TO.C,U2*%
X4846000Y-45212000D03*
D21*
X4846000Y-42672000D03*
X4846000Y-40132000D03*
%TD*%
D22*
%TO.C,D2*%
X52344000Y-33909000D03*
D23*
X49804000Y-33909000D03*
%TD*%
D24*
%TO.C,J7*%
X63520000Y-38841600D03*
D25*
X63520000Y-41381600D03*
X63520000Y-43921600D03*
X63520000Y-46461600D03*
X63520000Y-49001600D03*
X63520000Y-51541600D03*
%TD*%
D24*
%TO.C,J6*%
X85872000Y-49022000D03*
D25*
X85872000Y-46482000D03*
X85872000Y-43942000D03*
X85872000Y-41402000D03*
X85872000Y-38862000D03*
X85872000Y-36322000D03*
X85872000Y-33782000D03*
X85872000Y-31242000D03*
%TD*%
D11*
%TO.C,R3*%
X21864000Y-22606000D03*
D12*
X32024000Y-22606000D03*
%TD*%
D11*
%TO.C,R8*%
X45994000Y-33909000D03*
D12*
X35834000Y-33909000D03*
%TD*%
D26*
%TO.C,C3*%
X13744200Y-24765000D03*
D11*
X16244200Y-24765000D03*
%TD*%
D10*
%TO.C,MH3*%
X3010000Y-3460000D03*
%TD*%
D24*
%TO.C,J4*%
X63520000Y-5842000D03*
D25*
X63520000Y-8382000D03*
X63520000Y-10922000D03*
X63520000Y-13462000D03*
X63520000Y-16002000D03*
X63520000Y-18542000D03*
X63520000Y-21082000D03*
%TD*%
D26*
%TO.C,C4*%
X13696600Y-33909000D03*
D11*
X16196600Y-33909000D03*
%TD*%
D26*
%TO.C,U3*%
X48671000Y-3566000D03*
D12*
X48671000Y-6106000D03*
X48671000Y-8646000D03*
X48671000Y-11186000D03*
X56291000Y-11186000D03*
X56291000Y-8646000D03*
X56291000Y-6106000D03*
X56291000Y-3566000D03*
%TD*%
D27*
%TO.C,C2*%
X56662000Y-34397000D03*
X56662000Y-31897000D03*
%TD*%
D11*
%TO.C,R2*%
X5100000Y-25908000D03*
D12*
X5100000Y-15748000D03*
%TD*%
D22*
%TO.C,D1*%
X5100000Y-8504000D03*
D23*
X5100000Y-11044000D03*
%TD*%
D28*
%TO.C,BZ1*%
X45284000Y-21717000D03*
X51784000Y-21717000D03*
%TD*%
D11*
%TO.C,R5*%
X21864000Y-32258000D03*
D12*
X32024000Y-32258000D03*
%TD*%
D26*
%TO.C,U1*%
X67076000Y-3302000D03*
D12*
X67076000Y-5842000D03*
X67076000Y-8382000D03*
X67076000Y-10922000D03*
X67076000Y-13462000D03*
X67076000Y-16002000D03*
X67076000Y-18542000D03*
X67076000Y-21082000D03*
X67076000Y-23622000D03*
X67076000Y-26162000D03*
X67076000Y-28702000D03*
X67076000Y-31242000D03*
X67076000Y-33782000D03*
X67076000Y-36322000D03*
X67076000Y-38862000D03*
X67076000Y-41402000D03*
X67076000Y-43942000D03*
X67076000Y-46482000D03*
X67076000Y-49022000D03*
X67076000Y-51562000D03*
X82316000Y-51562000D03*
X82316000Y-49022000D03*
X82316000Y-46482000D03*
X82316000Y-43942000D03*
X82316000Y-41402000D03*
X82316000Y-38862000D03*
X82316000Y-36322000D03*
X82316000Y-33782000D03*
X82316000Y-31242000D03*
X82316000Y-28702000D03*
X82316000Y-26162000D03*
X82316000Y-23622000D03*
X82316000Y-21082000D03*
X82316000Y-18542000D03*
X82316000Y-16002000D03*
X82316000Y-13462000D03*
X82316000Y-10922000D03*
X82316000Y-8382000D03*
X82316000Y-5842000D03*
X82316000Y-3302000D03*
%TD*%
D24*
%TO.C,J9*%
X19558000Y-6604000D03*
D25*
X19558000Y-4064000D03*
X22098000Y-6604000D03*
X22098000Y-4064000D03*
X24638000Y-6604000D03*
X24638000Y-4064000D03*
X27178000Y-6604000D03*
X27178000Y-4064000D03*
%TD*%
D11*
%TO.C,R4*%
X21864000Y-27432000D03*
D12*
X32024000Y-27432000D03*
%TD*%
D27*
%TO.C,C1*%
X56662000Y-25039000D03*
X56662000Y-27539000D03*
%TD*%
D29*
%TO.C,S2*%
X3100000Y-29250000D03*
D28*
X5100000Y-29250000D03*
X7100000Y-29250000D03*
X3100000Y-34250000D03*
X5100000Y-34250000D03*
X7100000Y-34250000D03*
%TD*%
D26*
%TO.C,C5*%
X87650000Y-26376000D03*
D11*
X87650000Y-23876000D03*
%TD*%
D30*
%TO.C,J3*%
X50693000Y-50747000D03*
X45693000Y-46247000D03*
X55693000Y-46247000D03*
%TD*%
D24*
%TO.C,J5*%
X85872000Y-3302000D03*
D25*
X85872000Y-5842000D03*
X85872000Y-8382000D03*
X85872000Y-10922000D03*
X85872000Y-13462000D03*
X85872000Y-16002000D03*
X85872000Y-18542000D03*
%TD*%
D10*
%TO.C,MH4*%
X91010000Y-51460000D03*
%TD*%
D31*
%TO.C,S3*%
X37358000Y-21717000D03*
D28*
X37358000Y-24257000D03*
X37358000Y-19177000D03*
%TD*%
D24*
%TO.C,J8*%
X33020000Y-6604000D03*
D25*
X33020000Y-4064000D03*
X35560000Y-6604000D03*
X35560000Y-4064000D03*
X38100000Y-6604000D03*
X38100000Y-4064000D03*
X40640000Y-6604000D03*
X40640000Y-4064000D03*
X43180000Y-6604000D03*
X43180000Y-4064000D03*
%TD*%
D32*
%TO.C,Y1*%
X62504000Y-27268000D03*
X62504000Y-32148000D03*
%TD*%
M02*
