M48
; DRILL file {KiCad 7.0.10} date Fri Apr  5 15:08:31 2024
; FORMAT={-:-/ absolute / inch / decimal}
; #@! TF.CreationDate,2024-04-05T15:08:31+02:00
; #@! TF.GenerationSoftware,Kicad,Pcbnew,7.0.10
; #@! TF.FileFunction,Plated,1,2,PTH
FMAT,2
INCH
; #@! TA.AperFunction,Plated,PTH,ComponentDrill
T1C0.0394
%
G90
G05
T1
X0.77Y-0.16
X0.77Y-0.26
X0.87Y-0.16
X0.87Y-0.26
X0.97Y-0.16
X0.97Y-0.26
X1.07Y-0.16
X1.07Y-0.26
X1.3Y-0.16
X1.3Y-0.26
X1.4Y-0.16
X1.4Y-0.26
X1.5Y-0.16
X1.5Y-0.26
X1.6Y-0.16
X1.6Y-0.26
X1.7Y-0.16
X1.7Y-0.26
X2.05Y-0.16
X2.05Y-0.26
X2.15Y-0.16
X2.15Y-0.26
X2.4Y-0.23
X2.4Y-0.33
X2.4Y-0.43
X2.4Y-0.53
X2.4Y-0.63
X2.4Y-0.73
X2.4Y-0.83
X2.4Y-1.53
X2.4Y-1.63
X2.4Y-1.73
X2.4Y-1.83
X2.4Y-1.93
X2.4Y-2.03
X2.5Y-0.23
X2.5Y-0.33
X2.5Y-0.43
X2.5Y-0.53
X2.5Y-0.63
X2.5Y-0.73
X2.5Y-0.83
X2.5Y-1.53
X2.5Y-1.63
X2.5Y-1.73
X2.5Y-1.83
X2.5Y-1.93
X2.5Y-2.03
X2.6902Y-1.378
X2.7902Y-1.378
X2.8902Y-1.378
X2.9902Y-1.378
X3.0902Y-1.378
X3.1902Y-1.378
X3.38Y-0.13
X3.38Y-0.23
X3.38Y-0.33
X3.38Y-0.43
X3.38Y-0.53
X3.38Y-0.63
X3.38Y-0.73
X3.38Y-1.23
X3.38Y-1.33
X3.38Y-1.43
X3.38Y-1.53
X3.38Y-1.63
X3.38Y-1.73
X3.38Y-1.83
X3.38Y-1.93
X3.48Y-0.13
X3.48Y-0.23
X3.48Y-0.33
X3.48Y-0.43
X3.48Y-0.53
X3.48Y-0.63
X3.48Y-0.73
X3.48Y-1.23
X3.48Y-1.33
X3.48Y-1.43
X3.48Y-1.53
X3.48Y-1.63
X3.48Y-1.73
X3.48Y-1.83
X3.48Y-1.93
M30
