%TF.GenerationSoftware,KiCad,Pcbnew,7.0.10*%
%TF.CreationDate,2024-04-05T15:08:29+02:00*%
%TF.ProjectId,serial-boomerang-shield,73657269-616c-42d6-926f-6f6d6572616e,v0.1*%
%TF.SameCoordinates,Original*%
%TF.FileFunction,Legend,Bot*%
%TF.FilePolarity,Positive*%
%FSLAX46Y46*%
G04 Gerber Fmt 4.6, Leading zero omitted, Abs format (unit mm)*
G04 Created by KiCad (PCBNEW 7.0.10) date 2024-04-05 15:08:29*
%MOMM*%
%LPD*%
G01*
G04 APERTURE LIST*
%ADD10C,0.150000*%
%ADD11C,0.120000*%
G04 APERTURE END LIST*
D10*
X86185333Y-470819D02*
X86185333Y-1185104D01*
X86185333Y-1185104D02*
X86232952Y-1327961D01*
X86232952Y-1327961D02*
X86328190Y-1423200D01*
X86328190Y-1423200D02*
X86471047Y-1470819D01*
X86471047Y-1470819D02*
X86566285Y-1470819D01*
X85661523Y-1470819D02*
X85471047Y-1470819D01*
X85471047Y-1470819D02*
X85375809Y-1423200D01*
X85375809Y-1423200D02*
X85328190Y-1375580D01*
X85328190Y-1375580D02*
X85232952Y-1232723D01*
X85232952Y-1232723D02*
X85185333Y-1042247D01*
X85185333Y-1042247D02*
X85185333Y-661295D01*
X85185333Y-661295D02*
X85232952Y-566057D01*
X85232952Y-566057D02*
X85280571Y-518438D01*
X85280571Y-518438D02*
X85375809Y-470819D01*
X85375809Y-470819D02*
X85566285Y-470819D01*
X85566285Y-470819D02*
X85661523Y-518438D01*
X85661523Y-518438D02*
X85709142Y-566057D01*
X85709142Y-566057D02*
X85756761Y-661295D01*
X85756761Y-661295D02*
X85756761Y-899390D01*
X85756761Y-899390D02*
X85709142Y-994628D01*
X85709142Y-994628D02*
X85661523Y-1042247D01*
X85661523Y-1042247D02*
X85566285Y-1089866D01*
X85566285Y-1089866D02*
X85375809Y-1089866D01*
X85375809Y-1089866D02*
X85280571Y-1042247D01*
X85280571Y-1042247D02*
X85232952Y-994628D01*
X85232952Y-994628D02*
X85185333Y-899390D01*
X86661523Y-50762819D02*
X86661523Y-51477104D01*
X86661523Y-51477104D02*
X86709142Y-51619961D01*
X86709142Y-51619961D02*
X86804380Y-51715200D01*
X86804380Y-51715200D02*
X86947237Y-51762819D01*
X86947237Y-51762819D02*
X87042475Y-51762819D01*
X85661523Y-51762819D02*
X86232951Y-51762819D01*
X85947237Y-51762819D02*
X85947237Y-50762819D01*
X85947237Y-50762819D02*
X86042475Y-50905676D01*
X86042475Y-50905676D02*
X86137713Y-51000914D01*
X86137713Y-51000914D02*
X86232951Y-51048533D01*
X84709142Y-51762819D02*
X85280570Y-51762819D01*
X84994856Y-51762819D02*
X84994856Y-50762819D01*
X84994856Y-50762819D02*
X85090094Y-50905676D01*
X85090094Y-50905676D02*
X85185332Y-51000914D01*
X85185332Y-51000914D02*
X85280570Y-51048533D01*
X63833333Y-53302819D02*
X63833333Y-54017104D01*
X63833333Y-54017104D02*
X63880952Y-54159961D01*
X63880952Y-54159961D02*
X63976190Y-54255200D01*
X63976190Y-54255200D02*
X64119047Y-54302819D01*
X64119047Y-54302819D02*
X64214285Y-54302819D01*
X63452380Y-53302819D02*
X62785714Y-53302819D01*
X62785714Y-53302819D02*
X63214285Y-54302819D01*
X63833333Y-3010819D02*
X63833333Y-3725104D01*
X63833333Y-3725104D02*
X63880952Y-3867961D01*
X63880952Y-3867961D02*
X63976190Y-3963200D01*
X63976190Y-3963200D02*
X64119047Y-4010819D01*
X64119047Y-4010819D02*
X64214285Y-4010819D01*
X62880952Y-3010819D02*
X63357142Y-3010819D01*
X63357142Y-3010819D02*
X63404761Y-3487009D01*
X63404761Y-3487009D02*
X63357142Y-3439390D01*
X63357142Y-3439390D02*
X63261904Y-3391771D01*
X63261904Y-3391771D02*
X63023809Y-3391771D01*
X63023809Y-3391771D02*
X62928571Y-3439390D01*
X62928571Y-3439390D02*
X62880952Y-3487009D01*
X62880952Y-3487009D02*
X62833333Y-3582247D01*
X62833333Y-3582247D02*
X62833333Y-3820342D01*
X62833333Y-3820342D02*
X62880952Y-3915580D01*
X62880952Y-3915580D02*
X62928571Y-3963200D01*
X62928571Y-3963200D02*
X63023809Y-4010819D01*
X63023809Y-4010819D02*
X63261904Y-4010819D01*
X63261904Y-4010819D02*
X63357142Y-3963200D01*
X63357142Y-3963200D02*
X63404761Y-3915580D01*
X30188819Y-5000666D02*
X30903104Y-5000666D01*
X30903104Y-5000666D02*
X31045961Y-4953047D01*
X31045961Y-4953047D02*
X31141200Y-4857809D01*
X31141200Y-4857809D02*
X31188819Y-4714952D01*
X31188819Y-4714952D02*
X31188819Y-4619714D01*
X30284057Y-5429238D02*
X30236438Y-5476857D01*
X30236438Y-5476857D02*
X30188819Y-5572095D01*
X30188819Y-5572095D02*
X30188819Y-5810190D01*
X30188819Y-5810190D02*
X30236438Y-5905428D01*
X30236438Y-5905428D02*
X30284057Y-5953047D01*
X30284057Y-5953047D02*
X30379295Y-6000666D01*
X30379295Y-6000666D02*
X30474533Y-6000666D01*
X30474533Y-6000666D02*
X30617390Y-5953047D01*
X30617390Y-5953047D02*
X31188819Y-5381619D01*
X31188819Y-5381619D02*
X31188819Y-6000666D01*
X16726819Y-5000666D02*
X17441104Y-5000666D01*
X17441104Y-5000666D02*
X17583961Y-4953047D01*
X17583961Y-4953047D02*
X17679200Y-4857809D01*
X17679200Y-4857809D02*
X17726819Y-4714952D01*
X17726819Y-4714952D02*
X17726819Y-4619714D01*
X17726819Y-6000666D02*
X17726819Y-5429238D01*
X17726819Y-5714952D02*
X16726819Y-5714952D01*
X16726819Y-5714952D02*
X16869676Y-5619714D01*
X16869676Y-5619714D02*
X16964914Y-5524476D01*
X16964914Y-5524476D02*
X17012533Y-5429238D01*
D11*
%TO.C,J9*%
X84522000Y-1972000D02*
X84522000Y-3302000D01*
X87182000Y-4572000D02*
X87182000Y-19872000D01*
X85852000Y-1972000D02*
X84522000Y-1972000D01*
X87182000Y-4572000D02*
X84522000Y-4572000D01*
X84522000Y-4572000D02*
X84522000Y-19872000D01*
X87182000Y-19872000D02*
X84522000Y-19872000D01*
%TO.C,J11*%
X87182000Y-50352000D02*
X87182000Y-49022000D01*
X84522000Y-47752000D02*
X87182000Y-47752000D01*
X87182000Y-47752000D02*
X87182000Y-29912000D01*
X84522000Y-29912000D02*
X87182000Y-29912000D01*
X84522000Y-47752000D02*
X84522000Y-29912000D01*
X85852000Y-50352000D02*
X87182000Y-50352000D01*
%TO.C,J7*%
X64830000Y-52892000D02*
X62170000Y-52892000D01*
X64830000Y-40132000D02*
X64830000Y-52892000D01*
X62170000Y-37532000D02*
X62170000Y-38862000D01*
X62170000Y-40132000D02*
X62170000Y-52892000D01*
X64830000Y-40132000D02*
X62170000Y-40132000D01*
X63500000Y-37532000D02*
X62170000Y-37532000D01*
%TO.C,J5*%
X62170000Y-4512000D02*
X62170000Y-5842000D01*
X64830000Y-7112000D02*
X64830000Y-22412000D01*
X63500000Y-4512000D02*
X62170000Y-4512000D01*
X64830000Y-7112000D02*
X62170000Y-7112000D01*
X62170000Y-7112000D02*
X62170000Y-22412000D01*
X64830000Y-22412000D02*
X62170000Y-22412000D01*
%TO.C,J2*%
X31690000Y-2734000D02*
X44510000Y-2734000D01*
X31690000Y-2734000D02*
X31690000Y-5334000D01*
X44510000Y-2734000D02*
X44510000Y-7934000D01*
X31690000Y-6604000D02*
X31690000Y-7934000D01*
X34290000Y-5334000D02*
X34290000Y-7934000D01*
X31690000Y-5334000D02*
X34290000Y-5334000D01*
X31690000Y-7934000D02*
X33020000Y-7934000D01*
X34290000Y-7934000D02*
X44510000Y-7934000D01*
%TO.C,J1*%
X18228000Y-6604000D02*
X18228000Y-7934000D01*
X18228000Y-5334000D02*
X20828000Y-5334000D01*
X28508000Y-2734000D02*
X28508000Y-7934000D01*
X18228000Y-7934000D02*
X19558000Y-7934000D01*
X20828000Y-5334000D02*
X20828000Y-7934000D01*
X18228000Y-2734000D02*
X18228000Y-5334000D01*
X18228000Y-2734000D02*
X28508000Y-2734000D01*
X20828000Y-7934000D02*
X28508000Y-7934000D01*
%TD*%
M02*
