M48
; DRILL file {KiCad 7.0.10} date Thu Apr  4 23:26:14 2024
; FORMAT={-:-/ absolute / inch / decimal}
; #@! TF.CreationDate,2024-04-04T23:26:14+02:00
; #@! TF.GenerationSoftware,Kicad,Pcbnew,7.0.10
; #@! TF.FileFunction,Plated,1,2,PTH
FMAT,2
INCH
; #@! TA.AperFunction,Plated,PTH,ComponentDrill
T1C0.0394
%
G90
G05
T1
X0.1413Y-0.16
X0.1413Y-0.26
X0.2413Y-0.16
X0.2413Y-0.26
X0.3413Y-0.16
X0.3413Y-0.26
X0.4413Y-0.16
X0.4413Y-0.26
X0.6661Y-0.1602
X0.6661Y-0.2602
X0.7661Y-0.1602
X0.7661Y-0.2602
X0.8661Y-0.1602
X0.8661Y-0.2602
X0.9661Y-0.1602
X0.9661Y-0.2602
X1.0661Y-0.1602
X1.0661Y-0.2602
X1.7709Y-0.23
X1.7709Y-0.33
X1.7709Y-0.43
X1.7709Y-0.53
X1.7709Y-0.63
X1.7709Y-0.73
X1.7709Y-0.83
X1.7709Y-1.529
X1.7709Y-1.629
X1.7709Y-1.729
X1.7709Y-1.829
X1.7709Y-1.929
X1.7709Y-2.029
X1.8709Y-0.23
X1.8709Y-0.33
X1.8709Y-0.43
X1.8709Y-0.53
X1.8709Y-0.63
X1.8709Y-0.73
X1.8709Y-0.83
X1.8709Y-1.5292
X1.8709Y-1.6292
X1.8709Y-1.7292
X1.8709Y-1.8292
X1.8709Y-1.9292
X1.8709Y-2.0292
X2.0669Y-1.3766
X2.1669Y-1.3766
X2.2669Y-1.3766
X2.3669Y-1.3766
X2.4669Y-1.3766
X2.5669Y-1.3766
X2.7509Y-0.13
X2.7509Y-0.23
X2.7509Y-0.33
X2.7509Y-0.43
X2.7509Y-0.53
X2.7509Y-0.63
X2.7509Y-0.73
X2.7509Y-1.23
X2.7509Y-1.33
X2.7509Y-1.43
X2.7509Y-1.53
X2.7509Y-1.63
X2.7509Y-1.73
X2.7509Y-1.83
X2.7509Y-1.93
X2.8509Y-0.13
X2.8509Y-0.23
X2.8509Y-0.33
X2.8509Y-0.43
X2.8509Y-0.53
X2.8509Y-0.63
X2.8509Y-0.73
X2.8509Y-1.23
X2.8509Y-1.33
X2.8509Y-1.43
X2.8509Y-1.53
X2.8509Y-1.63
X2.8509Y-1.73
X2.8509Y-1.83
X2.8509Y-1.93
M30
