%TF.GenerationSoftware,KiCad,Pcbnew,7.0.10*%
%TF.CreationDate,2024-04-04T23:26:05+02:00*%
%TF.ProjectId,serial-boomerang-shield,73657269-616c-42d6-926f-6f6d6572616e,v0.1*%
%TF.SameCoordinates,Original*%
%TF.FileFunction,Legend,Top*%
%TF.FilePolarity,Positive*%
%FSLAX46Y46*%
G04 Gerber Fmt 4.6, Leading zero omitted, Abs format (unit mm)*
G04 Created by KiCad (PCBNEW 7.0.10) date 2024-04-04 23:26:05*
%MOMM*%
%LPD*%
G01*
G04 APERTURE LIST*
%ADD10C,0.150000*%
%ADD11C,0.127000*%
%ADD12C,0.100000*%
%ADD13C,0.120000*%
G04 APERTURE END LIST*
D10*
X42341800Y-44652400D02*
X41579800Y-44652400D01*
X41833800Y-44906400D02*
X41579800Y-44652400D01*
X41579800Y-44652400D02*
X41833800Y-44398400D01*
X41960800Y-41858400D02*
X42214800Y-42112400D01*
X42214800Y-42112400D02*
X41960800Y-42366400D01*
X41452800Y-42112400D02*
X42214800Y-42112400D01*
D11*
X43064999Y-7823127D02*
X43089190Y-7798936D01*
X43089190Y-7798936D02*
X43137571Y-7774746D01*
X43137571Y-7774746D02*
X43258523Y-7774746D01*
X43258523Y-7774746D02*
X43306904Y-7798936D01*
X43306904Y-7798936D02*
X43331095Y-7823127D01*
X43331095Y-7823127D02*
X43355285Y-7871508D01*
X43355285Y-7871508D02*
X43355285Y-7919889D01*
X43355285Y-7919889D02*
X43331095Y-7992460D01*
X43331095Y-7992460D02*
X43040809Y-8282746D01*
X43040809Y-8282746D02*
X43355285Y-8282746D01*
X42073190Y-9100626D02*
X42073190Y-8592626D01*
X42073190Y-8592626D02*
X42266714Y-8592626D01*
X42266714Y-8592626D02*
X42315095Y-8616816D01*
X42315095Y-8616816D02*
X42339285Y-8641007D01*
X42339285Y-8641007D02*
X42363476Y-8689388D01*
X42363476Y-8689388D02*
X42363476Y-8761959D01*
X42363476Y-8761959D02*
X42339285Y-8810340D01*
X42339285Y-8810340D02*
X42315095Y-8834531D01*
X42315095Y-8834531D02*
X42266714Y-8858721D01*
X42266714Y-8858721D02*
X42073190Y-8858721D01*
X42750523Y-8834531D02*
X42823095Y-8858721D01*
X42823095Y-8858721D02*
X42847285Y-8882912D01*
X42847285Y-8882912D02*
X42871476Y-8931293D01*
X42871476Y-8931293D02*
X42871476Y-9003864D01*
X42871476Y-9003864D02*
X42847285Y-9052245D01*
X42847285Y-9052245D02*
X42823095Y-9076436D01*
X42823095Y-9076436D02*
X42774714Y-9100626D01*
X42774714Y-9100626D02*
X42581190Y-9100626D01*
X42581190Y-9100626D02*
X42581190Y-8592626D01*
X42581190Y-8592626D02*
X42750523Y-8592626D01*
X42750523Y-8592626D02*
X42798904Y-8616816D01*
X42798904Y-8616816D02*
X42823095Y-8641007D01*
X42823095Y-8641007D02*
X42847285Y-8689388D01*
X42847285Y-8689388D02*
X42847285Y-8737769D01*
X42847285Y-8737769D02*
X42823095Y-8786150D01*
X42823095Y-8786150D02*
X42798904Y-8810340D01*
X42798904Y-8810340D02*
X42750523Y-8834531D01*
X42750523Y-8834531D02*
X42581190Y-8834531D01*
X43064999Y-8641007D02*
X43089190Y-8616816D01*
X43089190Y-8616816D02*
X43137571Y-8592626D01*
X43137571Y-8592626D02*
X43258523Y-8592626D01*
X43258523Y-8592626D02*
X43306904Y-8616816D01*
X43306904Y-8616816D02*
X43331095Y-8641007D01*
X43331095Y-8641007D02*
X43355285Y-8689388D01*
X43355285Y-8689388D02*
X43355285Y-8737769D01*
X43355285Y-8737769D02*
X43331095Y-8810340D01*
X43331095Y-8810340D02*
X43040809Y-9100626D01*
X43040809Y-9100626D02*
X43355285Y-9100626D01*
X31705416Y-4634000D02*
X31681226Y-4682381D01*
X31681226Y-4682381D02*
X31681226Y-4754952D01*
X31681226Y-4754952D02*
X31705416Y-4827524D01*
X31705416Y-4827524D02*
X31753797Y-4875905D01*
X31753797Y-4875905D02*
X31802178Y-4900095D01*
X31802178Y-4900095D02*
X31898940Y-4924286D01*
X31898940Y-4924286D02*
X31971512Y-4924286D01*
X31971512Y-4924286D02*
X32068274Y-4900095D01*
X32068274Y-4900095D02*
X32116655Y-4875905D01*
X32116655Y-4875905D02*
X32165036Y-4827524D01*
X32165036Y-4827524D02*
X32189226Y-4754952D01*
X32189226Y-4754952D02*
X32189226Y-4706571D01*
X32189226Y-4706571D02*
X32165036Y-4634000D01*
X32165036Y-4634000D02*
X32140845Y-4609809D01*
X32140845Y-4609809D02*
X31971512Y-4609809D01*
X31971512Y-4609809D02*
X31971512Y-4706571D01*
X32189226Y-4392095D02*
X31681226Y-4392095D01*
X31681226Y-4392095D02*
X32189226Y-4101809D01*
X32189226Y-4101809D02*
X31681226Y-4101809D01*
X32189226Y-3859905D02*
X31681226Y-3859905D01*
X31681226Y-3859905D02*
X31681226Y-3738953D01*
X31681226Y-3738953D02*
X31705416Y-3666381D01*
X31705416Y-3666381D02*
X31753797Y-3618000D01*
X31753797Y-3618000D02*
X31802178Y-3593810D01*
X31802178Y-3593810D02*
X31898940Y-3569619D01*
X31898940Y-3569619D02*
X31971512Y-3569619D01*
X31971512Y-3569619D02*
X32068274Y-3593810D01*
X32068274Y-3593810D02*
X32116655Y-3618000D01*
X32116655Y-3618000D02*
X32165036Y-3666381D01*
X32165036Y-3666381D02*
X32189226Y-3738953D01*
X32189226Y-3738953D02*
X32189226Y-3859905D01*
X29141226Y-4900095D02*
X28633226Y-4900095D01*
X28633226Y-4900095D02*
X29141226Y-4609809D01*
X29141226Y-4609809D02*
X28633226Y-4609809D01*
X29092845Y-4077619D02*
X29117036Y-4101810D01*
X29117036Y-4101810D02*
X29141226Y-4174381D01*
X29141226Y-4174381D02*
X29141226Y-4222762D01*
X29141226Y-4222762D02*
X29117036Y-4295334D01*
X29117036Y-4295334D02*
X29068655Y-4343715D01*
X29068655Y-4343715D02*
X29020274Y-4367905D01*
X29020274Y-4367905D02*
X28923512Y-4392096D01*
X28923512Y-4392096D02*
X28850940Y-4392096D01*
X28850940Y-4392096D02*
X28754178Y-4367905D01*
X28754178Y-4367905D02*
X28705797Y-4343715D01*
X28705797Y-4343715D02*
X28657416Y-4295334D01*
X28657416Y-4295334D02*
X28633226Y-4222762D01*
X28633226Y-4222762D02*
X28633226Y-4174381D01*
X28633226Y-4174381D02*
X28657416Y-4101810D01*
X28657416Y-4101810D02*
X28681607Y-4077619D01*
X74094313Y-10387727D02*
X74118504Y-10363536D01*
X74118504Y-10363536D02*
X74166885Y-10339346D01*
X74166885Y-10339346D02*
X74287837Y-10339346D01*
X74287837Y-10339346D02*
X74336218Y-10363536D01*
X74336218Y-10363536D02*
X74360409Y-10387727D01*
X74360409Y-10387727D02*
X74384599Y-10436108D01*
X74384599Y-10436108D02*
X74384599Y-10484489D01*
X74384599Y-10484489D02*
X74360409Y-10557060D01*
X74360409Y-10557060D02*
X74070123Y-10847346D01*
X74070123Y-10847346D02*
X74384599Y-10847346D01*
X74553933Y-10339346D02*
X74892600Y-10339346D01*
X74892600Y-10339346D02*
X74674885Y-10847346D01*
X75448981Y-10315156D02*
X75013552Y-10968298D01*
X75594123Y-10702203D02*
X75836028Y-10702203D01*
X75545742Y-10847346D02*
X75715076Y-10339346D01*
X75715076Y-10339346D02*
X75884409Y-10847346D01*
X76005362Y-10339346D02*
X76319838Y-10339346D01*
X76319838Y-10339346D02*
X76150505Y-10532870D01*
X76150505Y-10532870D02*
X76223076Y-10532870D01*
X76223076Y-10532870D02*
X76271457Y-10557060D01*
X76271457Y-10557060D02*
X76295648Y-10581251D01*
X76295648Y-10581251D02*
X76319838Y-10629632D01*
X76319838Y-10629632D02*
X76319838Y-10750584D01*
X76319838Y-10750584D02*
X76295648Y-10798965D01*
X76295648Y-10798965D02*
X76271457Y-10823156D01*
X76271457Y-10823156D02*
X76223076Y-10847346D01*
X76223076Y-10847346D02*
X76077933Y-10847346D01*
X76077933Y-10847346D02*
X76029552Y-10823156D01*
X76029552Y-10823156D02*
X76005362Y-10798965D01*
X74118504Y-11665226D02*
X74118504Y-11157226D01*
X74118504Y-11157226D02*
X74312028Y-11157226D01*
X74312028Y-11157226D02*
X74360409Y-11181416D01*
X74360409Y-11181416D02*
X74384599Y-11205607D01*
X74384599Y-11205607D02*
X74408790Y-11253988D01*
X74408790Y-11253988D02*
X74408790Y-11326559D01*
X74408790Y-11326559D02*
X74384599Y-11374940D01*
X74384599Y-11374940D02*
X74360409Y-11399131D01*
X74360409Y-11399131D02*
X74312028Y-11423321D01*
X74312028Y-11423321D02*
X74118504Y-11423321D01*
X74602313Y-11520083D02*
X74844218Y-11520083D01*
X74553932Y-11665226D02*
X74723266Y-11157226D01*
X74723266Y-11157226D02*
X74892599Y-11665226D01*
X75013552Y-11157226D02*
X75328028Y-11157226D01*
X75328028Y-11157226D02*
X75158695Y-11350750D01*
X75158695Y-11350750D02*
X75231266Y-11350750D01*
X75231266Y-11350750D02*
X75279647Y-11374940D01*
X75279647Y-11374940D02*
X75303838Y-11399131D01*
X75303838Y-11399131D02*
X75328028Y-11447512D01*
X75328028Y-11447512D02*
X75328028Y-11568464D01*
X75328028Y-11568464D02*
X75303838Y-11616845D01*
X75303838Y-11616845D02*
X75279647Y-11641036D01*
X75279647Y-11641036D02*
X75231266Y-11665226D01*
X75231266Y-11665226D02*
X75086123Y-11665226D01*
X75086123Y-11665226D02*
X75037742Y-11641036D01*
X75037742Y-11641036D02*
X75013552Y-11616845D01*
X29141226Y-7521295D02*
X28633226Y-7521295D01*
X28633226Y-7521295D02*
X28996083Y-7351962D01*
X28996083Y-7351962D02*
X28633226Y-7182628D01*
X28633226Y-7182628D02*
X29141226Y-7182628D01*
X28633226Y-6843962D02*
X28633226Y-6747200D01*
X28633226Y-6747200D02*
X28657416Y-6698819D01*
X28657416Y-6698819D02*
X28705797Y-6650438D01*
X28705797Y-6650438D02*
X28802559Y-6626248D01*
X28802559Y-6626248D02*
X28971893Y-6626248D01*
X28971893Y-6626248D02*
X29068655Y-6650438D01*
X29068655Y-6650438D02*
X29117036Y-6698819D01*
X29117036Y-6698819D02*
X29141226Y-6747200D01*
X29141226Y-6747200D02*
X29141226Y-6843962D01*
X29141226Y-6843962D02*
X29117036Y-6892343D01*
X29117036Y-6892343D02*
X29068655Y-6940724D01*
X29068655Y-6940724D02*
X28971893Y-6964915D01*
X28971893Y-6964915D02*
X28802559Y-6964915D01*
X28802559Y-6964915D02*
X28705797Y-6940724D01*
X28705797Y-6940724D02*
X28657416Y-6892343D01*
X28657416Y-6892343D02*
X28633226Y-6843962D01*
X29117036Y-6432725D02*
X29141226Y-6360153D01*
X29141226Y-6360153D02*
X29141226Y-6239201D01*
X29141226Y-6239201D02*
X29117036Y-6190820D01*
X29117036Y-6190820D02*
X29092845Y-6166629D01*
X29092845Y-6166629D02*
X29044464Y-6142439D01*
X29044464Y-6142439D02*
X28996083Y-6142439D01*
X28996083Y-6142439D02*
X28947702Y-6166629D01*
X28947702Y-6166629D02*
X28923512Y-6190820D01*
X28923512Y-6190820D02*
X28899321Y-6239201D01*
X28899321Y-6239201D02*
X28875131Y-6335963D01*
X28875131Y-6335963D02*
X28850940Y-6384344D01*
X28850940Y-6384344D02*
X28826750Y-6408534D01*
X28826750Y-6408534D02*
X28778369Y-6432725D01*
X28778369Y-6432725D02*
X28729988Y-6432725D01*
X28729988Y-6432725D02*
X28681607Y-6408534D01*
X28681607Y-6408534D02*
X28657416Y-6384344D01*
X28657416Y-6384344D02*
X28633226Y-6335963D01*
X28633226Y-6335963D02*
X28633226Y-6215010D01*
X28633226Y-6215010D02*
X28657416Y-6142439D01*
X29141226Y-5924724D02*
X28633226Y-5924724D01*
X30181416Y-4634000D02*
X30157226Y-4682381D01*
X30157226Y-4682381D02*
X30157226Y-4754952D01*
X30157226Y-4754952D02*
X30181416Y-4827524D01*
X30181416Y-4827524D02*
X30229797Y-4875905D01*
X30229797Y-4875905D02*
X30278178Y-4900095D01*
X30278178Y-4900095D02*
X30374940Y-4924286D01*
X30374940Y-4924286D02*
X30447512Y-4924286D01*
X30447512Y-4924286D02*
X30544274Y-4900095D01*
X30544274Y-4900095D02*
X30592655Y-4875905D01*
X30592655Y-4875905D02*
X30641036Y-4827524D01*
X30641036Y-4827524D02*
X30665226Y-4754952D01*
X30665226Y-4754952D02*
X30665226Y-4706571D01*
X30665226Y-4706571D02*
X30641036Y-4634000D01*
X30641036Y-4634000D02*
X30616845Y-4609809D01*
X30616845Y-4609809D02*
X30447512Y-4609809D01*
X30447512Y-4609809D02*
X30447512Y-4706571D01*
X30665226Y-4392095D02*
X30157226Y-4392095D01*
X30157226Y-4392095D02*
X30665226Y-4101809D01*
X30665226Y-4101809D02*
X30157226Y-4101809D01*
X30665226Y-3859905D02*
X30157226Y-3859905D01*
X30157226Y-3859905D02*
X30157226Y-3738953D01*
X30157226Y-3738953D02*
X30181416Y-3666381D01*
X30181416Y-3666381D02*
X30229797Y-3618000D01*
X30229797Y-3618000D02*
X30278178Y-3593810D01*
X30278178Y-3593810D02*
X30374940Y-3569619D01*
X30374940Y-3569619D02*
X30447512Y-3569619D01*
X30447512Y-3569619D02*
X30544274Y-3593810D01*
X30544274Y-3593810D02*
X30592655Y-3618000D01*
X30592655Y-3618000D02*
X30641036Y-3666381D01*
X30641036Y-3666381D02*
X30665226Y-3738953D01*
X30665226Y-3738953D02*
X30665226Y-3859905D01*
X74094313Y-7847727D02*
X74118504Y-7823536D01*
X74118504Y-7823536D02*
X74166885Y-7799346D01*
X74166885Y-7799346D02*
X74287837Y-7799346D01*
X74287837Y-7799346D02*
X74336218Y-7823536D01*
X74336218Y-7823536D02*
X74360409Y-7847727D01*
X74360409Y-7847727D02*
X74384599Y-7896108D01*
X74384599Y-7896108D02*
X74384599Y-7944489D01*
X74384599Y-7944489D02*
X74360409Y-8017060D01*
X74360409Y-8017060D02*
X74070123Y-8307346D01*
X74070123Y-8307346D02*
X74384599Y-8307346D01*
X74820028Y-7799346D02*
X74723266Y-7799346D01*
X74723266Y-7799346D02*
X74674885Y-7823536D01*
X74674885Y-7823536D02*
X74650695Y-7847727D01*
X74650695Y-7847727D02*
X74602314Y-7920298D01*
X74602314Y-7920298D02*
X74578123Y-8017060D01*
X74578123Y-8017060D02*
X74578123Y-8210584D01*
X74578123Y-8210584D02*
X74602314Y-8258965D01*
X74602314Y-8258965D02*
X74626504Y-8283156D01*
X74626504Y-8283156D02*
X74674885Y-8307346D01*
X74674885Y-8307346D02*
X74771647Y-8307346D01*
X74771647Y-8307346D02*
X74820028Y-8283156D01*
X74820028Y-8283156D02*
X74844219Y-8258965D01*
X74844219Y-8258965D02*
X74868409Y-8210584D01*
X74868409Y-8210584D02*
X74868409Y-8089632D01*
X74868409Y-8089632D02*
X74844219Y-8041251D01*
X74844219Y-8041251D02*
X74820028Y-8017060D01*
X74820028Y-8017060D02*
X74771647Y-7992870D01*
X74771647Y-7992870D02*
X74674885Y-7992870D01*
X74674885Y-7992870D02*
X74626504Y-8017060D01*
X74626504Y-8017060D02*
X74602314Y-8041251D01*
X74602314Y-8041251D02*
X74578123Y-8089632D01*
X75448981Y-7775156D02*
X75013552Y-8428298D01*
X75594123Y-8162203D02*
X75836028Y-8162203D01*
X75545742Y-8307346D02*
X75715076Y-7799346D01*
X75715076Y-7799346D02*
X75884409Y-8307346D01*
X76029552Y-7847727D02*
X76053743Y-7823536D01*
X76053743Y-7823536D02*
X76102124Y-7799346D01*
X76102124Y-7799346D02*
X76223076Y-7799346D01*
X76223076Y-7799346D02*
X76271457Y-7823536D01*
X76271457Y-7823536D02*
X76295648Y-7847727D01*
X76295648Y-7847727D02*
X76319838Y-7896108D01*
X76319838Y-7896108D02*
X76319838Y-7944489D01*
X76319838Y-7944489D02*
X76295648Y-8017060D01*
X76295648Y-8017060D02*
X76005362Y-8307346D01*
X76005362Y-8307346D02*
X76319838Y-8307346D01*
X74118504Y-9125226D02*
X74118504Y-8617226D01*
X74118504Y-8617226D02*
X74312028Y-8617226D01*
X74312028Y-8617226D02*
X74360409Y-8641416D01*
X74360409Y-8641416D02*
X74384599Y-8665607D01*
X74384599Y-8665607D02*
X74408790Y-8713988D01*
X74408790Y-8713988D02*
X74408790Y-8786559D01*
X74408790Y-8786559D02*
X74384599Y-8834940D01*
X74384599Y-8834940D02*
X74360409Y-8859131D01*
X74360409Y-8859131D02*
X74312028Y-8883321D01*
X74312028Y-8883321D02*
X74118504Y-8883321D01*
X74602313Y-8980083D02*
X74844218Y-8980083D01*
X74553932Y-9125226D02*
X74723266Y-8617226D01*
X74723266Y-8617226D02*
X74892599Y-9125226D01*
X75037742Y-8665607D02*
X75061933Y-8641416D01*
X75061933Y-8641416D02*
X75110314Y-8617226D01*
X75110314Y-8617226D02*
X75231266Y-8617226D01*
X75231266Y-8617226D02*
X75279647Y-8641416D01*
X75279647Y-8641416D02*
X75303838Y-8665607D01*
X75303838Y-8665607D02*
X75328028Y-8713988D01*
X75328028Y-8713988D02*
X75328028Y-8762369D01*
X75328028Y-8762369D02*
X75303838Y-8834940D01*
X75303838Y-8834940D02*
X75013552Y-9125226D01*
X75013552Y-9125226D02*
X75328028Y-9125226D01*
X42693675Y-51025066D02*
X42403389Y-51025066D01*
X42548532Y-51025066D02*
X42548532Y-50517066D01*
X42548532Y-50517066D02*
X42500151Y-50589637D01*
X42500151Y-50589637D02*
X42451770Y-50638018D01*
X42451770Y-50638018D02*
X42403389Y-50662209D01*
X43153295Y-50517066D02*
X42911390Y-50517066D01*
X42911390Y-50517066D02*
X42887199Y-50758971D01*
X42887199Y-50758971D02*
X42911390Y-50734780D01*
X42911390Y-50734780D02*
X42959771Y-50710590D01*
X42959771Y-50710590D02*
X43080723Y-50710590D01*
X43080723Y-50710590D02*
X43129104Y-50734780D01*
X43129104Y-50734780D02*
X43153295Y-50758971D01*
X43153295Y-50758971D02*
X43177485Y-50807352D01*
X43177485Y-50807352D02*
X43177485Y-50928304D01*
X43177485Y-50928304D02*
X43153295Y-50976685D01*
X43153295Y-50976685D02*
X43129104Y-51000876D01*
X43129104Y-51000876D02*
X43080723Y-51025066D01*
X43080723Y-51025066D02*
X42959771Y-51025066D01*
X42959771Y-51025066D02*
X42911390Y-51000876D01*
X42911390Y-51000876D02*
X42887199Y-50976685D01*
X41895390Y-51842946D02*
X41895390Y-51334946D01*
X41895390Y-51334946D02*
X42088914Y-51334946D01*
X42088914Y-51334946D02*
X42137295Y-51359136D01*
X42137295Y-51359136D02*
X42161485Y-51383327D01*
X42161485Y-51383327D02*
X42185676Y-51431708D01*
X42185676Y-51431708D02*
X42185676Y-51504279D01*
X42185676Y-51504279D02*
X42161485Y-51552660D01*
X42161485Y-51552660D02*
X42137295Y-51576851D01*
X42137295Y-51576851D02*
X42088914Y-51601041D01*
X42088914Y-51601041D02*
X41895390Y-51601041D01*
X42403390Y-51842946D02*
X42403390Y-51334946D01*
X42403390Y-51334946D02*
X42524342Y-51334946D01*
X42524342Y-51334946D02*
X42596914Y-51359136D01*
X42596914Y-51359136D02*
X42645295Y-51407517D01*
X42645295Y-51407517D02*
X42669485Y-51455898D01*
X42669485Y-51455898D02*
X42693676Y-51552660D01*
X42693676Y-51552660D02*
X42693676Y-51625232D01*
X42693676Y-51625232D02*
X42669485Y-51721994D01*
X42669485Y-51721994D02*
X42645295Y-51770375D01*
X42645295Y-51770375D02*
X42596914Y-51818756D01*
X42596914Y-51818756D02*
X42524342Y-51842946D01*
X42524342Y-51842946D02*
X42403390Y-51842946D01*
X42863009Y-51334946D02*
X43201676Y-51334946D01*
X43201676Y-51334946D02*
X42983961Y-51842946D01*
X40782629Y-52636636D02*
X40855201Y-52660826D01*
X40855201Y-52660826D02*
X40976153Y-52660826D01*
X40976153Y-52660826D02*
X41024534Y-52636636D01*
X41024534Y-52636636D02*
X41048725Y-52612445D01*
X41048725Y-52612445D02*
X41072915Y-52564064D01*
X41072915Y-52564064D02*
X41072915Y-52515683D01*
X41072915Y-52515683D02*
X41048725Y-52467302D01*
X41048725Y-52467302D02*
X41024534Y-52443112D01*
X41024534Y-52443112D02*
X40976153Y-52418921D01*
X40976153Y-52418921D02*
X40879391Y-52394731D01*
X40879391Y-52394731D02*
X40831010Y-52370540D01*
X40831010Y-52370540D02*
X40806820Y-52346350D01*
X40806820Y-52346350D02*
X40782629Y-52297969D01*
X40782629Y-52297969D02*
X40782629Y-52249588D01*
X40782629Y-52249588D02*
X40806820Y-52201207D01*
X40806820Y-52201207D02*
X40831010Y-52177016D01*
X40831010Y-52177016D02*
X40879391Y-52152826D01*
X40879391Y-52152826D02*
X41000344Y-52152826D01*
X41000344Y-52152826D02*
X41072915Y-52177016D01*
X41387392Y-52152826D02*
X41484154Y-52152826D01*
X41484154Y-52152826D02*
X41532535Y-52177016D01*
X41532535Y-52177016D02*
X41580916Y-52225397D01*
X41580916Y-52225397D02*
X41605106Y-52322159D01*
X41605106Y-52322159D02*
X41605106Y-52491493D01*
X41605106Y-52491493D02*
X41580916Y-52588255D01*
X41580916Y-52588255D02*
X41532535Y-52636636D01*
X41532535Y-52636636D02*
X41484154Y-52660826D01*
X41484154Y-52660826D02*
X41387392Y-52660826D01*
X41387392Y-52660826D02*
X41339011Y-52636636D01*
X41339011Y-52636636D02*
X41290630Y-52588255D01*
X41290630Y-52588255D02*
X41266439Y-52491493D01*
X41266439Y-52491493D02*
X41266439Y-52322159D01*
X41266439Y-52322159D02*
X41290630Y-52225397D01*
X41290630Y-52225397D02*
X41339011Y-52177016D01*
X41339011Y-52177016D02*
X41387392Y-52152826D01*
X41822820Y-52152826D02*
X41822820Y-52564064D01*
X41822820Y-52564064D02*
X41847010Y-52612445D01*
X41847010Y-52612445D02*
X41871201Y-52636636D01*
X41871201Y-52636636D02*
X41919582Y-52660826D01*
X41919582Y-52660826D02*
X42016344Y-52660826D01*
X42016344Y-52660826D02*
X42064725Y-52636636D01*
X42064725Y-52636636D02*
X42088915Y-52612445D01*
X42088915Y-52612445D02*
X42113106Y-52564064D01*
X42113106Y-52564064D02*
X42113106Y-52152826D01*
X42355010Y-52660826D02*
X42355010Y-52152826D01*
X42355010Y-52152826D02*
X42645296Y-52660826D01*
X42645296Y-52660826D02*
X42645296Y-52152826D01*
X42887200Y-52660826D02*
X42887200Y-52152826D01*
X42887200Y-52152826D02*
X43008152Y-52152826D01*
X43008152Y-52152826D02*
X43080724Y-52177016D01*
X43080724Y-52177016D02*
X43129105Y-52225397D01*
X43129105Y-52225397D02*
X43153295Y-52273778D01*
X43153295Y-52273778D02*
X43177486Y-52370540D01*
X43177486Y-52370540D02*
X43177486Y-52443112D01*
X43177486Y-52443112D02*
X43153295Y-52539874D01*
X43153295Y-52539874D02*
X43129105Y-52588255D01*
X43129105Y-52588255D02*
X43080724Y-52636636D01*
X43080724Y-52636636D02*
X43008152Y-52660826D01*
X43008152Y-52660826D02*
X42887200Y-52660826D01*
X12909416Y-4126000D02*
X12885226Y-4174381D01*
X12885226Y-4174381D02*
X12885226Y-4246952D01*
X12885226Y-4246952D02*
X12909416Y-4319524D01*
X12909416Y-4319524D02*
X12957797Y-4367905D01*
X12957797Y-4367905D02*
X13006178Y-4392095D01*
X13006178Y-4392095D02*
X13102940Y-4416286D01*
X13102940Y-4416286D02*
X13175512Y-4416286D01*
X13175512Y-4416286D02*
X13272274Y-4392095D01*
X13272274Y-4392095D02*
X13320655Y-4367905D01*
X13320655Y-4367905D02*
X13369036Y-4319524D01*
X13369036Y-4319524D02*
X13393226Y-4246952D01*
X13393226Y-4246952D02*
X13393226Y-4198571D01*
X13393226Y-4198571D02*
X13369036Y-4126000D01*
X13369036Y-4126000D02*
X13344845Y-4101809D01*
X13344845Y-4101809D02*
X13175512Y-4101809D01*
X13175512Y-4101809D02*
X13175512Y-4198571D01*
X13393226Y-3884095D02*
X12885226Y-3884095D01*
X12885226Y-3884095D02*
X13393226Y-3593809D01*
X13393226Y-3593809D02*
X12885226Y-3593809D01*
X13393226Y-3351905D02*
X12885226Y-3351905D01*
X12885226Y-3351905D02*
X12885226Y-3230953D01*
X12885226Y-3230953D02*
X12909416Y-3158381D01*
X12909416Y-3158381D02*
X12957797Y-3110000D01*
X12957797Y-3110000D02*
X13006178Y-3085810D01*
X13006178Y-3085810D02*
X13102940Y-3061619D01*
X13102940Y-3061619D02*
X13175512Y-3061619D01*
X13175512Y-3061619D02*
X13272274Y-3085810D01*
X13272274Y-3085810D02*
X13320655Y-3110000D01*
X13320655Y-3110000D02*
X13369036Y-3158381D01*
X13369036Y-3158381D02*
X13393226Y-3230953D01*
X13393226Y-3230953D02*
X13393226Y-3351905D01*
X20524504Y-8337826D02*
X20524504Y-8749064D01*
X20524504Y-8749064D02*
X20548694Y-8797445D01*
X20548694Y-8797445D02*
X20572885Y-8821636D01*
X20572885Y-8821636D02*
X20621266Y-8845826D01*
X20621266Y-8845826D02*
X20718028Y-8845826D01*
X20718028Y-8845826D02*
X20766409Y-8821636D01*
X20766409Y-8821636D02*
X20790599Y-8797445D01*
X20790599Y-8797445D02*
X20814790Y-8749064D01*
X20814790Y-8749064D02*
X20814790Y-8337826D01*
X21032503Y-8821636D02*
X21105075Y-8845826D01*
X21105075Y-8845826D02*
X21226027Y-8845826D01*
X21226027Y-8845826D02*
X21274408Y-8821636D01*
X21274408Y-8821636D02*
X21298599Y-8797445D01*
X21298599Y-8797445D02*
X21322789Y-8749064D01*
X21322789Y-8749064D02*
X21322789Y-8700683D01*
X21322789Y-8700683D02*
X21298599Y-8652302D01*
X21298599Y-8652302D02*
X21274408Y-8628112D01*
X21274408Y-8628112D02*
X21226027Y-8603921D01*
X21226027Y-8603921D02*
X21129265Y-8579731D01*
X21129265Y-8579731D02*
X21080884Y-8555540D01*
X21080884Y-8555540D02*
X21056694Y-8531350D01*
X21056694Y-8531350D02*
X21032503Y-8482969D01*
X21032503Y-8482969D02*
X21032503Y-8434588D01*
X21032503Y-8434588D02*
X21056694Y-8386207D01*
X21056694Y-8386207D02*
X21080884Y-8362016D01*
X21080884Y-8362016D02*
X21129265Y-8337826D01*
X21129265Y-8337826D02*
X21250218Y-8337826D01*
X21250218Y-8337826D02*
X21322789Y-8362016D01*
X21709837Y-8579731D02*
X21782409Y-8603921D01*
X21782409Y-8603921D02*
X21806599Y-8628112D01*
X21806599Y-8628112D02*
X21830790Y-8676493D01*
X21830790Y-8676493D02*
X21830790Y-8749064D01*
X21830790Y-8749064D02*
X21806599Y-8797445D01*
X21806599Y-8797445D02*
X21782409Y-8821636D01*
X21782409Y-8821636D02*
X21734028Y-8845826D01*
X21734028Y-8845826D02*
X21540504Y-8845826D01*
X21540504Y-8845826D02*
X21540504Y-8337826D01*
X21540504Y-8337826D02*
X21709837Y-8337826D01*
X21709837Y-8337826D02*
X21758218Y-8362016D01*
X21758218Y-8362016D02*
X21782409Y-8386207D01*
X21782409Y-8386207D02*
X21806599Y-8434588D01*
X21806599Y-8434588D02*
X21806599Y-8482969D01*
X21806599Y-8482969D02*
X21782409Y-8531350D01*
X21782409Y-8531350D02*
X21758218Y-8555540D01*
X21758218Y-8555540D02*
X21709837Y-8579731D01*
X21709837Y-8579731D02*
X21540504Y-8579731D01*
X22266218Y-8845826D02*
X22266218Y-8579731D01*
X22266218Y-8579731D02*
X22242028Y-8531350D01*
X22242028Y-8531350D02*
X22193647Y-8507159D01*
X22193647Y-8507159D02*
X22096885Y-8507159D01*
X22096885Y-8507159D02*
X22048504Y-8531350D01*
X22266218Y-8821636D02*
X22217837Y-8845826D01*
X22217837Y-8845826D02*
X22096885Y-8845826D01*
X22096885Y-8845826D02*
X22048504Y-8821636D01*
X22048504Y-8821636D02*
X22024313Y-8773255D01*
X22024313Y-8773255D02*
X22024313Y-8724874D01*
X22024313Y-8724874D02*
X22048504Y-8676493D01*
X22048504Y-8676493D02*
X22096885Y-8652302D01*
X22096885Y-8652302D02*
X22217837Y-8652302D01*
X22217837Y-8652302D02*
X22266218Y-8628112D01*
X22483932Y-8821636D02*
X22532313Y-8845826D01*
X22532313Y-8845826D02*
X22629075Y-8845826D01*
X22629075Y-8845826D02*
X22677456Y-8821636D01*
X22677456Y-8821636D02*
X22701647Y-8773255D01*
X22701647Y-8773255D02*
X22701647Y-8749064D01*
X22701647Y-8749064D02*
X22677456Y-8700683D01*
X22677456Y-8700683D02*
X22629075Y-8676493D01*
X22629075Y-8676493D02*
X22556504Y-8676493D01*
X22556504Y-8676493D02*
X22508123Y-8652302D01*
X22508123Y-8652302D02*
X22483932Y-8603921D01*
X22483932Y-8603921D02*
X22483932Y-8579731D01*
X22483932Y-8579731D02*
X22508123Y-8531350D01*
X22508123Y-8531350D02*
X22556504Y-8507159D01*
X22556504Y-8507159D02*
X22629075Y-8507159D01*
X22629075Y-8507159D02*
X22677456Y-8531350D01*
X22919361Y-8507159D02*
X22919361Y-9015159D01*
X22919361Y-8531350D02*
X22967742Y-8507159D01*
X22967742Y-8507159D02*
X23064504Y-8507159D01*
X23064504Y-8507159D02*
X23112885Y-8531350D01*
X23112885Y-8531350D02*
X23137075Y-8555540D01*
X23137075Y-8555540D02*
X23161266Y-8603921D01*
X23161266Y-8603921D02*
X23161266Y-8749064D01*
X23161266Y-8749064D02*
X23137075Y-8797445D01*
X23137075Y-8797445D02*
X23112885Y-8821636D01*
X23112885Y-8821636D02*
X23064504Y-8845826D01*
X23064504Y-8845826D02*
X22967742Y-8845826D01*
X22967742Y-8845826D02*
X22919361Y-8821636D01*
X74070123Y-17959346D02*
X74384599Y-17959346D01*
X74384599Y-17959346D02*
X74215266Y-18152870D01*
X74215266Y-18152870D02*
X74287837Y-18152870D01*
X74287837Y-18152870D02*
X74336218Y-18177060D01*
X74336218Y-18177060D02*
X74360409Y-18201251D01*
X74360409Y-18201251D02*
X74384599Y-18249632D01*
X74384599Y-18249632D02*
X74384599Y-18370584D01*
X74384599Y-18370584D02*
X74360409Y-18418965D01*
X74360409Y-18418965D02*
X74336218Y-18443156D01*
X74336218Y-18443156D02*
X74287837Y-18467346D01*
X74287837Y-18467346D02*
X74142694Y-18467346D01*
X74142694Y-18467346D02*
X74094313Y-18443156D01*
X74094313Y-18443156D02*
X74070123Y-18418965D01*
X74699076Y-17959346D02*
X74747457Y-17959346D01*
X74747457Y-17959346D02*
X74795838Y-17983536D01*
X74795838Y-17983536D02*
X74820028Y-18007727D01*
X74820028Y-18007727D02*
X74844219Y-18056108D01*
X74844219Y-18056108D02*
X74868409Y-18152870D01*
X74868409Y-18152870D02*
X74868409Y-18273822D01*
X74868409Y-18273822D02*
X74844219Y-18370584D01*
X74844219Y-18370584D02*
X74820028Y-18418965D01*
X74820028Y-18418965D02*
X74795838Y-18443156D01*
X74795838Y-18443156D02*
X74747457Y-18467346D01*
X74747457Y-18467346D02*
X74699076Y-18467346D01*
X74699076Y-18467346D02*
X74650695Y-18443156D01*
X74650695Y-18443156D02*
X74626504Y-18418965D01*
X74626504Y-18418965D02*
X74602314Y-18370584D01*
X74602314Y-18370584D02*
X74578123Y-18273822D01*
X74578123Y-18273822D02*
X74578123Y-18152870D01*
X74578123Y-18152870D02*
X74602314Y-18056108D01*
X74602314Y-18056108D02*
X74626504Y-18007727D01*
X74626504Y-18007727D02*
X74650695Y-17983536D01*
X74650695Y-17983536D02*
X74699076Y-17959346D01*
X75448981Y-17935156D02*
X75013552Y-18588298D01*
X75594123Y-18322203D02*
X75836028Y-18322203D01*
X75545742Y-18467346D02*
X75715076Y-17959346D01*
X75715076Y-17959346D02*
X75884409Y-18467346D01*
X76271457Y-17959346D02*
X76174695Y-17959346D01*
X76174695Y-17959346D02*
X76126314Y-17983536D01*
X76126314Y-17983536D02*
X76102124Y-18007727D01*
X76102124Y-18007727D02*
X76053743Y-18080298D01*
X76053743Y-18080298D02*
X76029552Y-18177060D01*
X76029552Y-18177060D02*
X76029552Y-18370584D01*
X76029552Y-18370584D02*
X76053743Y-18418965D01*
X76053743Y-18418965D02*
X76077933Y-18443156D01*
X76077933Y-18443156D02*
X76126314Y-18467346D01*
X76126314Y-18467346D02*
X76223076Y-18467346D01*
X76223076Y-18467346D02*
X76271457Y-18443156D01*
X76271457Y-18443156D02*
X76295648Y-18418965D01*
X76295648Y-18418965D02*
X76319838Y-18370584D01*
X76319838Y-18370584D02*
X76319838Y-18249632D01*
X76319838Y-18249632D02*
X76295648Y-18201251D01*
X76295648Y-18201251D02*
X76271457Y-18177060D01*
X76271457Y-18177060D02*
X76223076Y-18152870D01*
X76223076Y-18152870D02*
X76126314Y-18152870D01*
X76126314Y-18152870D02*
X76077933Y-18177060D01*
X76077933Y-18177060D02*
X76053743Y-18201251D01*
X76053743Y-18201251D02*
X76029552Y-18249632D01*
X74118504Y-19285226D02*
X74118504Y-18777226D01*
X74118504Y-18777226D02*
X74312028Y-18777226D01*
X74312028Y-18777226D02*
X74360409Y-18801416D01*
X74360409Y-18801416D02*
X74384599Y-18825607D01*
X74384599Y-18825607D02*
X74408790Y-18873988D01*
X74408790Y-18873988D02*
X74408790Y-18946559D01*
X74408790Y-18946559D02*
X74384599Y-18994940D01*
X74384599Y-18994940D02*
X74360409Y-19019131D01*
X74360409Y-19019131D02*
X74312028Y-19043321D01*
X74312028Y-19043321D02*
X74118504Y-19043321D01*
X74602313Y-19140083D02*
X74844218Y-19140083D01*
X74553932Y-19285226D02*
X74723266Y-18777226D01*
X74723266Y-18777226D02*
X74892599Y-19285226D01*
X75279647Y-18777226D02*
X75182885Y-18777226D01*
X75182885Y-18777226D02*
X75134504Y-18801416D01*
X75134504Y-18801416D02*
X75110314Y-18825607D01*
X75110314Y-18825607D02*
X75061933Y-18898178D01*
X75061933Y-18898178D02*
X75037742Y-18994940D01*
X75037742Y-18994940D02*
X75037742Y-19188464D01*
X75037742Y-19188464D02*
X75061933Y-19236845D01*
X75061933Y-19236845D02*
X75086123Y-19261036D01*
X75086123Y-19261036D02*
X75134504Y-19285226D01*
X75134504Y-19285226D02*
X75231266Y-19285226D01*
X75231266Y-19285226D02*
X75279647Y-19261036D01*
X75279647Y-19261036D02*
X75303838Y-19236845D01*
X75303838Y-19236845D02*
X75328028Y-19188464D01*
X75328028Y-19188464D02*
X75328028Y-19067512D01*
X75328028Y-19067512D02*
X75303838Y-19019131D01*
X75303838Y-19019131D02*
X75279647Y-18994940D01*
X75279647Y-18994940D02*
X75231266Y-18970750D01*
X75231266Y-18970750D02*
X75134504Y-18970750D01*
X75134504Y-18970750D02*
X75086123Y-18994940D01*
X75086123Y-18994940D02*
X75061933Y-19019131D01*
X75061933Y-19019131D02*
X75037742Y-19067512D01*
X29903226Y-6678095D02*
X29395226Y-6678095D01*
X29395226Y-6678095D02*
X29903226Y-6387809D01*
X29903226Y-6387809D02*
X29395226Y-6387809D01*
X29854845Y-5855619D02*
X29879036Y-5879810D01*
X29879036Y-5879810D02*
X29903226Y-5952381D01*
X29903226Y-5952381D02*
X29903226Y-6000762D01*
X29903226Y-6000762D02*
X29879036Y-6073334D01*
X29879036Y-6073334D02*
X29830655Y-6121715D01*
X29830655Y-6121715D02*
X29782274Y-6145905D01*
X29782274Y-6145905D02*
X29685512Y-6170096D01*
X29685512Y-6170096D02*
X29612940Y-6170096D01*
X29612940Y-6170096D02*
X29516178Y-6145905D01*
X29516178Y-6145905D02*
X29467797Y-6121715D01*
X29467797Y-6121715D02*
X29419416Y-6073334D01*
X29419416Y-6073334D02*
X29395226Y-6000762D01*
X29395226Y-6000762D02*
X29395226Y-5952381D01*
X29395226Y-5952381D02*
X29419416Y-5879810D01*
X29419416Y-5879810D02*
X29443607Y-5855619D01*
D10*
X15210839Y-1534942D02*
X15163220Y-1582561D01*
X15163220Y-1582561D02*
X15067982Y-1630180D01*
X15067982Y-1630180D02*
X14829887Y-1630180D01*
X14829887Y-1630180D02*
X14734649Y-1582561D01*
X14734649Y-1582561D02*
X14687030Y-1534942D01*
X14687030Y-1534942D02*
X14639411Y-1439704D01*
X14639411Y-1439704D02*
X14639411Y-1344466D01*
X14639411Y-1344466D02*
X14687030Y-1201609D01*
X14687030Y-1201609D02*
X15258458Y-630180D01*
X15258458Y-630180D02*
X14639411Y-630180D01*
X14020363Y-1630180D02*
X13925125Y-1630180D01*
X13925125Y-1630180D02*
X13829887Y-1582561D01*
X13829887Y-1582561D02*
X13782268Y-1534942D01*
X13782268Y-1534942D02*
X13734649Y-1439704D01*
X13734649Y-1439704D02*
X13687030Y-1249228D01*
X13687030Y-1249228D02*
X13687030Y-1011133D01*
X13687030Y-1011133D02*
X13734649Y-820657D01*
X13734649Y-820657D02*
X13782268Y-725419D01*
X13782268Y-725419D02*
X13829887Y-677800D01*
X13829887Y-677800D02*
X13925125Y-630180D01*
X13925125Y-630180D02*
X14020363Y-630180D01*
X14020363Y-630180D02*
X14115601Y-677800D01*
X14115601Y-677800D02*
X14163220Y-725419D01*
X14163220Y-725419D02*
X14210839Y-820657D01*
X14210839Y-820657D02*
X14258458Y-1011133D01*
X14258458Y-1011133D02*
X14258458Y-1249228D01*
X14258458Y-1249228D02*
X14210839Y-1439704D01*
X14210839Y-1439704D02*
X14163220Y-1534942D01*
X14163220Y-1534942D02*
X14115601Y-1582561D01*
X14115601Y-1582561D02*
X14020363Y-1630180D01*
X13306077Y-1534942D02*
X13258458Y-1582561D01*
X13258458Y-1582561D02*
X13163220Y-1630180D01*
X13163220Y-1630180D02*
X12925125Y-1630180D01*
X12925125Y-1630180D02*
X12829887Y-1582561D01*
X12829887Y-1582561D02*
X12782268Y-1534942D01*
X12782268Y-1534942D02*
X12734649Y-1439704D01*
X12734649Y-1439704D02*
X12734649Y-1344466D01*
X12734649Y-1344466D02*
X12782268Y-1201609D01*
X12782268Y-1201609D02*
X13353696Y-630180D01*
X13353696Y-630180D02*
X12734649Y-630180D01*
X11877506Y-1296847D02*
X11877506Y-630180D01*
X12115601Y-1677800D02*
X12353696Y-963514D01*
X12353696Y-963514D02*
X11734649Y-963514D01*
X10258458Y-1153990D02*
X10115601Y-1106371D01*
X10115601Y-1106371D02*
X10067982Y-1058752D01*
X10067982Y-1058752D02*
X10020363Y-963514D01*
X10020363Y-963514D02*
X10020363Y-820657D01*
X10020363Y-820657D02*
X10067982Y-725419D01*
X10067982Y-725419D02*
X10115601Y-677800D01*
X10115601Y-677800D02*
X10210839Y-630180D01*
X10210839Y-630180D02*
X10591791Y-630180D01*
X10591791Y-630180D02*
X10591791Y-1630180D01*
X10591791Y-1630180D02*
X10258458Y-1630180D01*
X10258458Y-1630180D02*
X10163220Y-1582561D01*
X10163220Y-1582561D02*
X10115601Y-1534942D01*
X10115601Y-1534942D02*
X10067982Y-1439704D01*
X10067982Y-1439704D02*
X10067982Y-1344466D01*
X10067982Y-1344466D02*
X10115601Y-1249228D01*
X10115601Y-1249228D02*
X10163220Y-1201609D01*
X10163220Y-1201609D02*
X10258458Y-1153990D01*
X10258458Y-1153990D02*
X10591791Y-1153990D01*
X9591791Y-725419D02*
X9544172Y-677800D01*
X9544172Y-677800D02*
X9591791Y-630180D01*
X9591791Y-630180D02*
X9639410Y-677800D01*
X9639410Y-677800D02*
X9591791Y-725419D01*
X9591791Y-725419D02*
X9591791Y-630180D01*
X8353696Y-630180D02*
X8353696Y-1630180D01*
X8353696Y-1630180D02*
X8020363Y-915895D01*
X8020363Y-915895D02*
X7687030Y-1630180D01*
X7687030Y-1630180D02*
X7687030Y-630180D01*
X7258458Y-915895D02*
X6782268Y-915895D01*
X7353696Y-630180D02*
X7020363Y-1630180D01*
X7020363Y-1630180D02*
X6687030Y-630180D01*
X5782268Y-630180D02*
X6115601Y-1106371D01*
X6353696Y-630180D02*
X6353696Y-1630180D01*
X6353696Y-1630180D02*
X5972744Y-1630180D01*
X5972744Y-1630180D02*
X5877506Y-1582561D01*
X5877506Y-1582561D02*
X5829887Y-1534942D01*
X5829887Y-1534942D02*
X5782268Y-1439704D01*
X5782268Y-1439704D02*
X5782268Y-1296847D01*
X5782268Y-1296847D02*
X5829887Y-1201609D01*
X5829887Y-1201609D02*
X5877506Y-1153990D01*
X5877506Y-1153990D02*
X5972744Y-1106371D01*
X5972744Y-1106371D02*
X6353696Y-1106371D01*
X5353696Y-630180D02*
X5353696Y-1630180D01*
X4782268Y-630180D02*
X5210839Y-1201609D01*
X4782268Y-1630180D02*
X5353696Y-1058752D01*
X4353696Y-1630180D02*
X4353696Y-820657D01*
X4353696Y-820657D02*
X4306077Y-725419D01*
X4306077Y-725419D02*
X4258458Y-677800D01*
X4258458Y-677800D02*
X4163220Y-630180D01*
X4163220Y-630180D02*
X3972744Y-630180D01*
X3972744Y-630180D02*
X3877506Y-677800D01*
X3877506Y-677800D02*
X3829887Y-725419D01*
X3829887Y-725419D02*
X3782268Y-820657D01*
X3782268Y-820657D02*
X3782268Y-1630180D01*
X3353696Y-677800D02*
X3210839Y-630180D01*
X3210839Y-630180D02*
X2972744Y-630180D01*
X2972744Y-630180D02*
X2877506Y-677800D01*
X2877506Y-677800D02*
X2829887Y-725419D01*
X2829887Y-725419D02*
X2782268Y-820657D01*
X2782268Y-820657D02*
X2782268Y-915895D01*
X2782268Y-915895D02*
X2829887Y-1011133D01*
X2829887Y-1011133D02*
X2877506Y-1058752D01*
X2877506Y-1058752D02*
X2972744Y-1106371D01*
X2972744Y-1106371D02*
X3163220Y-1153990D01*
X3163220Y-1153990D02*
X3258458Y-1201609D01*
X3258458Y-1201609D02*
X3306077Y-1249228D01*
X3306077Y-1249228D02*
X3353696Y-1344466D01*
X3353696Y-1344466D02*
X3353696Y-1439704D01*
X3353696Y-1439704D02*
X3306077Y-1534942D01*
X3306077Y-1534942D02*
X3258458Y-1582561D01*
X3258458Y-1582561D02*
X3163220Y-1630180D01*
X3163220Y-1630180D02*
X2925125Y-1630180D01*
X2925125Y-1630180D02*
X2782268Y-1582561D01*
D11*
X74409999Y-48896546D02*
X74119713Y-48896546D01*
X74264856Y-48896546D02*
X74264856Y-48388546D01*
X74264856Y-48388546D02*
X74216475Y-48461117D01*
X74216475Y-48461117D02*
X74168094Y-48509498D01*
X74168094Y-48509498D02*
X74119713Y-48533689D01*
X74845428Y-48388546D02*
X74748666Y-48388546D01*
X74748666Y-48388546D02*
X74700285Y-48412736D01*
X74700285Y-48412736D02*
X74676095Y-48436927D01*
X74676095Y-48436927D02*
X74627714Y-48509498D01*
X74627714Y-48509498D02*
X74603523Y-48606260D01*
X74603523Y-48606260D02*
X74603523Y-48799784D01*
X74603523Y-48799784D02*
X74627714Y-48848165D01*
X74627714Y-48848165D02*
X74651904Y-48872356D01*
X74651904Y-48872356D02*
X74700285Y-48896546D01*
X74700285Y-48896546D02*
X74797047Y-48896546D01*
X74797047Y-48896546D02*
X74845428Y-48872356D01*
X74845428Y-48872356D02*
X74869619Y-48848165D01*
X74869619Y-48848165D02*
X74893809Y-48799784D01*
X74893809Y-48799784D02*
X74893809Y-48678832D01*
X74893809Y-48678832D02*
X74869619Y-48630451D01*
X74869619Y-48630451D02*
X74845428Y-48606260D01*
X74845428Y-48606260D02*
X74797047Y-48582070D01*
X74797047Y-48582070D02*
X74700285Y-48582070D01*
X74700285Y-48582070D02*
X74651904Y-48606260D01*
X74651904Y-48606260D02*
X74627714Y-48630451D01*
X74627714Y-48630451D02*
X74603523Y-48678832D01*
X74143904Y-49714426D02*
X74143904Y-49206426D01*
X74143904Y-49206426D02*
X74337428Y-49206426D01*
X74337428Y-49206426D02*
X74385809Y-49230616D01*
X74385809Y-49230616D02*
X74409999Y-49254807D01*
X74409999Y-49254807D02*
X74434190Y-49303188D01*
X74434190Y-49303188D02*
X74434190Y-49375759D01*
X74434190Y-49375759D02*
X74409999Y-49424140D01*
X74409999Y-49424140D02*
X74385809Y-49448331D01*
X74385809Y-49448331D02*
X74337428Y-49472521D01*
X74337428Y-49472521D02*
X74143904Y-49472521D01*
X74942190Y-49666045D02*
X74917999Y-49690236D01*
X74917999Y-49690236D02*
X74845428Y-49714426D01*
X74845428Y-49714426D02*
X74797047Y-49714426D01*
X74797047Y-49714426D02*
X74724475Y-49690236D01*
X74724475Y-49690236D02*
X74676094Y-49641855D01*
X74676094Y-49641855D02*
X74651904Y-49593474D01*
X74651904Y-49593474D02*
X74627713Y-49496712D01*
X74627713Y-49496712D02*
X74627713Y-49424140D01*
X74627713Y-49424140D02*
X74651904Y-49327378D01*
X74651904Y-49327378D02*
X74676094Y-49278997D01*
X74676094Y-49278997D02*
X74724475Y-49230616D01*
X74724475Y-49230616D02*
X74797047Y-49206426D01*
X74797047Y-49206426D02*
X74845428Y-49206426D01*
X74845428Y-49206426D02*
X74917999Y-49230616D01*
X74917999Y-49230616D02*
X74942190Y-49254807D01*
X75256666Y-49206426D02*
X75305047Y-49206426D01*
X75305047Y-49206426D02*
X75353428Y-49230616D01*
X75353428Y-49230616D02*
X75377618Y-49254807D01*
X75377618Y-49254807D02*
X75401809Y-49303188D01*
X75401809Y-49303188D02*
X75425999Y-49399950D01*
X75425999Y-49399950D02*
X75425999Y-49520902D01*
X75425999Y-49520902D02*
X75401809Y-49617664D01*
X75401809Y-49617664D02*
X75377618Y-49666045D01*
X75377618Y-49666045D02*
X75353428Y-49690236D01*
X75353428Y-49690236D02*
X75305047Y-49714426D01*
X75305047Y-49714426D02*
X75256666Y-49714426D01*
X75256666Y-49714426D02*
X75208285Y-49690236D01*
X75208285Y-49690236D02*
X75184094Y-49666045D01*
X75184094Y-49666045D02*
X75159904Y-49617664D01*
X75159904Y-49617664D02*
X75135713Y-49520902D01*
X75135713Y-49520902D02*
X75135713Y-49399950D01*
X75135713Y-49399950D02*
X75159904Y-49303188D01*
X75159904Y-49303188D02*
X75184094Y-49254807D01*
X75184094Y-49254807D02*
X75208285Y-49230616D01*
X75208285Y-49230616D02*
X75256666Y-49206426D01*
X42693675Y-43278066D02*
X42403389Y-43278066D01*
X42548532Y-43278066D02*
X42548532Y-42770066D01*
X42548532Y-42770066D02*
X42500151Y-42842637D01*
X42500151Y-42842637D02*
X42451770Y-42891018D01*
X42451770Y-42891018D02*
X42403389Y-42915209D01*
X43177485Y-43278066D02*
X42887199Y-43278066D01*
X43032342Y-43278066D02*
X43032342Y-42770066D01*
X43032342Y-42770066D02*
X42983961Y-42842637D01*
X42983961Y-42842637D02*
X42935580Y-42891018D01*
X42935580Y-42891018D02*
X42887199Y-42915209D01*
X41895390Y-44095946D02*
X41895390Y-43587946D01*
X41895390Y-43587946D02*
X42088914Y-43587946D01*
X42088914Y-43587946D02*
X42137295Y-43612136D01*
X42137295Y-43612136D02*
X42161485Y-43636327D01*
X42161485Y-43636327D02*
X42185676Y-43684708D01*
X42185676Y-43684708D02*
X42185676Y-43757279D01*
X42185676Y-43757279D02*
X42161485Y-43805660D01*
X42161485Y-43805660D02*
X42137295Y-43829851D01*
X42137295Y-43829851D02*
X42088914Y-43854041D01*
X42088914Y-43854041D02*
X41895390Y-43854041D01*
X42403390Y-44095946D02*
X42403390Y-43587946D01*
X42403390Y-43587946D02*
X42524342Y-43587946D01*
X42524342Y-43587946D02*
X42596914Y-43612136D01*
X42596914Y-43612136D02*
X42645295Y-43660517D01*
X42645295Y-43660517D02*
X42669485Y-43708898D01*
X42669485Y-43708898D02*
X42693676Y-43805660D01*
X42693676Y-43805660D02*
X42693676Y-43878232D01*
X42693676Y-43878232D02*
X42669485Y-43974994D01*
X42669485Y-43974994D02*
X42645295Y-44023375D01*
X42645295Y-44023375D02*
X42596914Y-44071756D01*
X42596914Y-44071756D02*
X42524342Y-44095946D01*
X42524342Y-44095946D02*
X42403390Y-44095946D01*
X42863009Y-43587946D02*
X43177485Y-43587946D01*
X43177485Y-43587946D02*
X43008152Y-43781470D01*
X43008152Y-43781470D02*
X43080723Y-43781470D01*
X43080723Y-43781470D02*
X43129104Y-43805660D01*
X43129104Y-43805660D02*
X43153295Y-43829851D01*
X43153295Y-43829851D02*
X43177485Y-43878232D01*
X43177485Y-43878232D02*
X43177485Y-43999184D01*
X43177485Y-43999184D02*
X43153295Y-44047565D01*
X43153295Y-44047565D02*
X43129104Y-44071756D01*
X43129104Y-44071756D02*
X43080723Y-44095946D01*
X43080723Y-44095946D02*
X42935580Y-44095946D01*
X42935580Y-44095946D02*
X42887199Y-44071756D01*
X42887199Y-44071756D02*
X42863009Y-44047565D01*
X42451770Y-44405826D02*
X42742056Y-44405826D01*
X42596913Y-44913826D02*
X42596913Y-44405826D01*
X42863009Y-44405826D02*
X43201676Y-44913826D01*
X43201676Y-44405826D02*
X42863009Y-44913826D01*
X43040809Y-10213146D02*
X43355285Y-10213146D01*
X43355285Y-10213146D02*
X43185952Y-10406670D01*
X43185952Y-10406670D02*
X43258523Y-10406670D01*
X43258523Y-10406670D02*
X43306904Y-10430860D01*
X43306904Y-10430860D02*
X43331095Y-10455051D01*
X43331095Y-10455051D02*
X43355285Y-10503432D01*
X43355285Y-10503432D02*
X43355285Y-10624384D01*
X43355285Y-10624384D02*
X43331095Y-10672765D01*
X43331095Y-10672765D02*
X43306904Y-10696956D01*
X43306904Y-10696956D02*
X43258523Y-10721146D01*
X43258523Y-10721146D02*
X43113380Y-10721146D01*
X43113380Y-10721146D02*
X43064999Y-10696956D01*
X43064999Y-10696956D02*
X43040809Y-10672765D01*
X42073190Y-11539026D02*
X42073190Y-11031026D01*
X42073190Y-11031026D02*
X42266714Y-11031026D01*
X42266714Y-11031026D02*
X42315095Y-11055216D01*
X42315095Y-11055216D02*
X42339285Y-11079407D01*
X42339285Y-11079407D02*
X42363476Y-11127788D01*
X42363476Y-11127788D02*
X42363476Y-11200359D01*
X42363476Y-11200359D02*
X42339285Y-11248740D01*
X42339285Y-11248740D02*
X42315095Y-11272931D01*
X42315095Y-11272931D02*
X42266714Y-11297121D01*
X42266714Y-11297121D02*
X42073190Y-11297121D01*
X42750523Y-11272931D02*
X42823095Y-11297121D01*
X42823095Y-11297121D02*
X42847285Y-11321312D01*
X42847285Y-11321312D02*
X42871476Y-11369693D01*
X42871476Y-11369693D02*
X42871476Y-11442264D01*
X42871476Y-11442264D02*
X42847285Y-11490645D01*
X42847285Y-11490645D02*
X42823095Y-11514836D01*
X42823095Y-11514836D02*
X42774714Y-11539026D01*
X42774714Y-11539026D02*
X42581190Y-11539026D01*
X42581190Y-11539026D02*
X42581190Y-11031026D01*
X42581190Y-11031026D02*
X42750523Y-11031026D01*
X42750523Y-11031026D02*
X42798904Y-11055216D01*
X42798904Y-11055216D02*
X42823095Y-11079407D01*
X42823095Y-11079407D02*
X42847285Y-11127788D01*
X42847285Y-11127788D02*
X42847285Y-11176169D01*
X42847285Y-11176169D02*
X42823095Y-11224550D01*
X42823095Y-11224550D02*
X42798904Y-11248740D01*
X42798904Y-11248740D02*
X42750523Y-11272931D01*
X42750523Y-11272931D02*
X42581190Y-11272931D01*
X43040809Y-11031026D02*
X43355285Y-11031026D01*
X43355285Y-11031026D02*
X43185952Y-11224550D01*
X43185952Y-11224550D02*
X43258523Y-11224550D01*
X43258523Y-11224550D02*
X43306904Y-11248740D01*
X43306904Y-11248740D02*
X43331095Y-11272931D01*
X43331095Y-11272931D02*
X43355285Y-11321312D01*
X43355285Y-11321312D02*
X43355285Y-11442264D01*
X43355285Y-11442264D02*
X43331095Y-11490645D01*
X43331095Y-11490645D02*
X43306904Y-11514836D01*
X43306904Y-11514836D02*
X43258523Y-11539026D01*
X43258523Y-11539026D02*
X43113380Y-11539026D01*
X43113380Y-11539026D02*
X43064999Y-11514836D01*
X43064999Y-11514836D02*
X43040809Y-11490645D01*
X74094313Y-5307727D02*
X74118504Y-5283536D01*
X74118504Y-5283536D02*
X74166885Y-5259346D01*
X74166885Y-5259346D02*
X74287837Y-5259346D01*
X74287837Y-5259346D02*
X74336218Y-5283536D01*
X74336218Y-5283536D02*
X74360409Y-5307727D01*
X74360409Y-5307727D02*
X74384599Y-5356108D01*
X74384599Y-5356108D02*
X74384599Y-5404489D01*
X74384599Y-5404489D02*
X74360409Y-5477060D01*
X74360409Y-5477060D02*
X74070123Y-5767346D01*
X74070123Y-5767346D02*
X74384599Y-5767346D01*
X74844219Y-5259346D02*
X74602314Y-5259346D01*
X74602314Y-5259346D02*
X74578123Y-5501251D01*
X74578123Y-5501251D02*
X74602314Y-5477060D01*
X74602314Y-5477060D02*
X74650695Y-5452870D01*
X74650695Y-5452870D02*
X74771647Y-5452870D01*
X74771647Y-5452870D02*
X74820028Y-5477060D01*
X74820028Y-5477060D02*
X74844219Y-5501251D01*
X74844219Y-5501251D02*
X74868409Y-5549632D01*
X74868409Y-5549632D02*
X74868409Y-5670584D01*
X74868409Y-5670584D02*
X74844219Y-5718965D01*
X74844219Y-5718965D02*
X74820028Y-5743156D01*
X74820028Y-5743156D02*
X74771647Y-5767346D01*
X74771647Y-5767346D02*
X74650695Y-5767346D01*
X74650695Y-5767346D02*
X74602314Y-5743156D01*
X74602314Y-5743156D02*
X74578123Y-5718965D01*
X75448981Y-5235156D02*
X75013552Y-5888298D01*
X75594123Y-5622203D02*
X75836028Y-5622203D01*
X75545742Y-5767346D02*
X75715076Y-5259346D01*
X75715076Y-5259346D02*
X75884409Y-5767346D01*
X76319838Y-5767346D02*
X76029552Y-5767346D01*
X76174695Y-5767346D02*
X76174695Y-5259346D01*
X76174695Y-5259346D02*
X76126314Y-5331917D01*
X76126314Y-5331917D02*
X76077933Y-5380298D01*
X76077933Y-5380298D02*
X76029552Y-5404489D01*
X74118504Y-6585226D02*
X74118504Y-6077226D01*
X74118504Y-6077226D02*
X74312028Y-6077226D01*
X74312028Y-6077226D02*
X74360409Y-6101416D01*
X74360409Y-6101416D02*
X74384599Y-6125607D01*
X74384599Y-6125607D02*
X74408790Y-6173988D01*
X74408790Y-6173988D02*
X74408790Y-6246559D01*
X74408790Y-6246559D02*
X74384599Y-6294940D01*
X74384599Y-6294940D02*
X74360409Y-6319131D01*
X74360409Y-6319131D02*
X74312028Y-6343321D01*
X74312028Y-6343321D02*
X74118504Y-6343321D01*
X74602313Y-6440083D02*
X74844218Y-6440083D01*
X74553932Y-6585226D02*
X74723266Y-6077226D01*
X74723266Y-6077226D02*
X74892599Y-6585226D01*
X75328028Y-6585226D02*
X75037742Y-6585226D01*
X75182885Y-6585226D02*
X75182885Y-6077226D01*
X75182885Y-6077226D02*
X75134504Y-6149797D01*
X75134504Y-6149797D02*
X75086123Y-6198178D01*
X75086123Y-6198178D02*
X75037742Y-6222369D01*
X30665226Y-7657809D02*
X30423321Y-7827143D01*
X30665226Y-7948095D02*
X30157226Y-7948095D01*
X30157226Y-7948095D02*
X30157226Y-7754571D01*
X30157226Y-7754571D02*
X30181416Y-7706190D01*
X30181416Y-7706190D02*
X30205607Y-7682000D01*
X30205607Y-7682000D02*
X30253988Y-7657809D01*
X30253988Y-7657809D02*
X30326559Y-7657809D01*
X30326559Y-7657809D02*
X30374940Y-7682000D01*
X30374940Y-7682000D02*
X30399131Y-7706190D01*
X30399131Y-7706190D02*
X30423321Y-7754571D01*
X30423321Y-7754571D02*
X30423321Y-7948095D01*
X30399131Y-7440095D02*
X30399131Y-7270762D01*
X30665226Y-7198190D02*
X30665226Y-7440095D01*
X30665226Y-7440095D02*
X30157226Y-7440095D01*
X30157226Y-7440095D02*
X30157226Y-7198190D01*
X30641036Y-7004667D02*
X30665226Y-6932095D01*
X30665226Y-6932095D02*
X30665226Y-6811143D01*
X30665226Y-6811143D02*
X30641036Y-6762762D01*
X30641036Y-6762762D02*
X30616845Y-6738571D01*
X30616845Y-6738571D02*
X30568464Y-6714381D01*
X30568464Y-6714381D02*
X30520083Y-6714381D01*
X30520083Y-6714381D02*
X30471702Y-6738571D01*
X30471702Y-6738571D02*
X30447512Y-6762762D01*
X30447512Y-6762762D02*
X30423321Y-6811143D01*
X30423321Y-6811143D02*
X30399131Y-6907905D01*
X30399131Y-6907905D02*
X30374940Y-6956286D01*
X30374940Y-6956286D02*
X30350750Y-6980476D01*
X30350750Y-6980476D02*
X30302369Y-7004667D01*
X30302369Y-7004667D02*
X30253988Y-7004667D01*
X30253988Y-7004667D02*
X30205607Y-6980476D01*
X30205607Y-6980476D02*
X30181416Y-6956286D01*
X30181416Y-6956286D02*
X30157226Y-6907905D01*
X30157226Y-6907905D02*
X30157226Y-6786952D01*
X30157226Y-6786952D02*
X30181416Y-6714381D01*
X30399131Y-6496666D02*
X30399131Y-6327333D01*
X30665226Y-6254761D02*
X30665226Y-6496666D01*
X30665226Y-6496666D02*
X30157226Y-6496666D01*
X30157226Y-6496666D02*
X30157226Y-6254761D01*
X30157226Y-6109619D02*
X30157226Y-5819333D01*
X30665226Y-5964476D02*
X30157226Y-5964476D01*
X42693675Y-46381946D02*
X42403389Y-46381946D01*
X42548532Y-46381946D02*
X42548532Y-45873946D01*
X42548532Y-45873946D02*
X42500151Y-45946517D01*
X42500151Y-45946517D02*
X42451770Y-45994898D01*
X42451770Y-45994898D02*
X42403389Y-46019089D01*
X42887199Y-45922327D02*
X42911390Y-45898136D01*
X42911390Y-45898136D02*
X42959771Y-45873946D01*
X42959771Y-45873946D02*
X43080723Y-45873946D01*
X43080723Y-45873946D02*
X43129104Y-45898136D01*
X43129104Y-45898136D02*
X43153295Y-45922327D01*
X43153295Y-45922327D02*
X43177485Y-45970708D01*
X43177485Y-45970708D02*
X43177485Y-46019089D01*
X43177485Y-46019089D02*
X43153295Y-46091660D01*
X43153295Y-46091660D02*
X42863009Y-46381946D01*
X42863009Y-46381946D02*
X43177485Y-46381946D01*
X41895390Y-47199826D02*
X41895390Y-46691826D01*
X41895390Y-46691826D02*
X42088914Y-46691826D01*
X42088914Y-46691826D02*
X42137295Y-46716016D01*
X42137295Y-46716016D02*
X42161485Y-46740207D01*
X42161485Y-46740207D02*
X42185676Y-46788588D01*
X42185676Y-46788588D02*
X42185676Y-46861159D01*
X42185676Y-46861159D02*
X42161485Y-46909540D01*
X42161485Y-46909540D02*
X42137295Y-46933731D01*
X42137295Y-46933731D02*
X42088914Y-46957921D01*
X42088914Y-46957921D02*
X41895390Y-46957921D01*
X42403390Y-47199826D02*
X42403390Y-46691826D01*
X42403390Y-46691826D02*
X42524342Y-46691826D01*
X42524342Y-46691826D02*
X42596914Y-46716016D01*
X42596914Y-46716016D02*
X42645295Y-46764397D01*
X42645295Y-46764397D02*
X42669485Y-46812778D01*
X42669485Y-46812778D02*
X42693676Y-46909540D01*
X42693676Y-46909540D02*
X42693676Y-46982112D01*
X42693676Y-46982112D02*
X42669485Y-47078874D01*
X42669485Y-47078874D02*
X42645295Y-47127255D01*
X42645295Y-47127255D02*
X42596914Y-47175636D01*
X42596914Y-47175636D02*
X42524342Y-47199826D01*
X42524342Y-47199826D02*
X42403390Y-47199826D01*
X43129104Y-46861159D02*
X43129104Y-47199826D01*
X43008152Y-46667636D02*
X42887199Y-47030493D01*
X42887199Y-47030493D02*
X43201676Y-47030493D01*
X74119713Y-30656927D02*
X74143904Y-30632736D01*
X74143904Y-30632736D02*
X74192285Y-30608546D01*
X74192285Y-30608546D02*
X74313237Y-30608546D01*
X74313237Y-30608546D02*
X74361618Y-30632736D01*
X74361618Y-30632736D02*
X74385809Y-30656927D01*
X74385809Y-30656927D02*
X74409999Y-30705308D01*
X74409999Y-30705308D02*
X74409999Y-30753689D01*
X74409999Y-30753689D02*
X74385809Y-30826260D01*
X74385809Y-30826260D02*
X74095523Y-31116546D01*
X74095523Y-31116546D02*
X74409999Y-31116546D01*
X74579333Y-30608546D02*
X74893809Y-30608546D01*
X74893809Y-30608546D02*
X74724476Y-30802070D01*
X74724476Y-30802070D02*
X74797047Y-30802070D01*
X74797047Y-30802070D02*
X74845428Y-30826260D01*
X74845428Y-30826260D02*
X74869619Y-30850451D01*
X74869619Y-30850451D02*
X74893809Y-30898832D01*
X74893809Y-30898832D02*
X74893809Y-31019784D01*
X74893809Y-31019784D02*
X74869619Y-31068165D01*
X74869619Y-31068165D02*
X74845428Y-31092356D01*
X74845428Y-31092356D02*
X74797047Y-31116546D01*
X74797047Y-31116546D02*
X74651904Y-31116546D01*
X74651904Y-31116546D02*
X74603523Y-31092356D01*
X74603523Y-31092356D02*
X74579333Y-31068165D01*
X74143904Y-31934426D02*
X74143904Y-31426426D01*
X74143904Y-31426426D02*
X74337428Y-31426426D01*
X74337428Y-31426426D02*
X74385809Y-31450616D01*
X74385809Y-31450616D02*
X74409999Y-31474807D01*
X74409999Y-31474807D02*
X74434190Y-31523188D01*
X74434190Y-31523188D02*
X74434190Y-31595759D01*
X74434190Y-31595759D02*
X74409999Y-31644140D01*
X74409999Y-31644140D02*
X74385809Y-31668331D01*
X74385809Y-31668331D02*
X74337428Y-31692521D01*
X74337428Y-31692521D02*
X74143904Y-31692521D01*
X74942190Y-31886045D02*
X74917999Y-31910236D01*
X74917999Y-31910236D02*
X74845428Y-31934426D01*
X74845428Y-31934426D02*
X74797047Y-31934426D01*
X74797047Y-31934426D02*
X74724475Y-31910236D01*
X74724475Y-31910236D02*
X74676094Y-31861855D01*
X74676094Y-31861855D02*
X74651904Y-31813474D01*
X74651904Y-31813474D02*
X74627713Y-31716712D01*
X74627713Y-31716712D02*
X74627713Y-31644140D01*
X74627713Y-31644140D02*
X74651904Y-31547378D01*
X74651904Y-31547378D02*
X74676094Y-31498997D01*
X74676094Y-31498997D02*
X74724475Y-31450616D01*
X74724475Y-31450616D02*
X74797047Y-31426426D01*
X74797047Y-31426426D02*
X74845428Y-31426426D01*
X74845428Y-31426426D02*
X74917999Y-31450616D01*
X74917999Y-31450616D02*
X74942190Y-31474807D01*
X75111523Y-31426426D02*
X75450190Y-31426426D01*
X75450190Y-31426426D02*
X75232475Y-31934426D01*
X43281504Y-12561799D02*
X43281504Y-12900466D01*
X43160552Y-12368276D02*
X43039599Y-12731133D01*
X43039599Y-12731133D02*
X43354076Y-12731133D01*
X42047790Y-13718346D02*
X42047790Y-13210346D01*
X42047790Y-13210346D02*
X42241314Y-13210346D01*
X42241314Y-13210346D02*
X42289695Y-13234536D01*
X42289695Y-13234536D02*
X42313885Y-13258727D01*
X42313885Y-13258727D02*
X42338076Y-13307108D01*
X42338076Y-13307108D02*
X42338076Y-13379679D01*
X42338076Y-13379679D02*
X42313885Y-13428060D01*
X42313885Y-13428060D02*
X42289695Y-13452251D01*
X42289695Y-13452251D02*
X42241314Y-13476441D01*
X42241314Y-13476441D02*
X42047790Y-13476441D01*
X42725123Y-13452251D02*
X42797695Y-13476441D01*
X42797695Y-13476441D02*
X42821885Y-13500632D01*
X42821885Y-13500632D02*
X42846076Y-13549013D01*
X42846076Y-13549013D02*
X42846076Y-13621584D01*
X42846076Y-13621584D02*
X42821885Y-13669965D01*
X42821885Y-13669965D02*
X42797695Y-13694156D01*
X42797695Y-13694156D02*
X42749314Y-13718346D01*
X42749314Y-13718346D02*
X42555790Y-13718346D01*
X42555790Y-13718346D02*
X42555790Y-13210346D01*
X42555790Y-13210346D02*
X42725123Y-13210346D01*
X42725123Y-13210346D02*
X42773504Y-13234536D01*
X42773504Y-13234536D02*
X42797695Y-13258727D01*
X42797695Y-13258727D02*
X42821885Y-13307108D01*
X42821885Y-13307108D02*
X42821885Y-13355489D01*
X42821885Y-13355489D02*
X42797695Y-13403870D01*
X42797695Y-13403870D02*
X42773504Y-13428060D01*
X42773504Y-13428060D02*
X42725123Y-13452251D01*
X42725123Y-13452251D02*
X42555790Y-13452251D01*
X43281504Y-13379679D02*
X43281504Y-13718346D01*
X43160552Y-13186156D02*
X43039599Y-13549013D01*
X43039599Y-13549013D02*
X43354076Y-13549013D01*
X42846076Y-14487845D02*
X42821885Y-14512036D01*
X42821885Y-14512036D02*
X42749314Y-14536226D01*
X42749314Y-14536226D02*
X42700933Y-14536226D01*
X42700933Y-14536226D02*
X42628361Y-14512036D01*
X42628361Y-14512036D02*
X42579980Y-14463655D01*
X42579980Y-14463655D02*
X42555790Y-14415274D01*
X42555790Y-14415274D02*
X42531599Y-14318512D01*
X42531599Y-14318512D02*
X42531599Y-14245940D01*
X42531599Y-14245940D02*
X42555790Y-14149178D01*
X42555790Y-14149178D02*
X42579980Y-14100797D01*
X42579980Y-14100797D02*
X42628361Y-14052416D01*
X42628361Y-14052416D02*
X42700933Y-14028226D01*
X42700933Y-14028226D02*
X42749314Y-14028226D01*
X42749314Y-14028226D02*
X42821885Y-14052416D01*
X42821885Y-14052416D02*
X42846076Y-14076607D01*
X43039599Y-14512036D02*
X43112171Y-14536226D01*
X43112171Y-14536226D02*
X43233123Y-14536226D01*
X43233123Y-14536226D02*
X43281504Y-14512036D01*
X43281504Y-14512036D02*
X43305695Y-14487845D01*
X43305695Y-14487845D02*
X43329885Y-14439464D01*
X43329885Y-14439464D02*
X43329885Y-14391083D01*
X43329885Y-14391083D02*
X43305695Y-14342702D01*
X43305695Y-14342702D02*
X43281504Y-14318512D01*
X43281504Y-14318512D02*
X43233123Y-14294321D01*
X43233123Y-14294321D02*
X43136361Y-14270131D01*
X43136361Y-14270131D02*
X43087980Y-14245940D01*
X43087980Y-14245940D02*
X43063790Y-14221750D01*
X43063790Y-14221750D02*
X43039599Y-14173369D01*
X43039599Y-14173369D02*
X43039599Y-14124988D01*
X43039599Y-14124988D02*
X43063790Y-14076607D01*
X43063790Y-14076607D02*
X43087980Y-14052416D01*
X43087980Y-14052416D02*
X43136361Y-14028226D01*
X43136361Y-14028226D02*
X43257314Y-14028226D01*
X43257314Y-14028226D02*
X43329885Y-14052416D01*
X74119713Y-35736927D02*
X74143904Y-35712736D01*
X74143904Y-35712736D02*
X74192285Y-35688546D01*
X74192285Y-35688546D02*
X74313237Y-35688546D01*
X74313237Y-35688546D02*
X74361618Y-35712736D01*
X74361618Y-35712736D02*
X74385809Y-35736927D01*
X74385809Y-35736927D02*
X74409999Y-35785308D01*
X74409999Y-35785308D02*
X74409999Y-35833689D01*
X74409999Y-35833689D02*
X74385809Y-35906260D01*
X74385809Y-35906260D02*
X74095523Y-36196546D01*
X74095523Y-36196546D02*
X74409999Y-36196546D01*
X74893809Y-36196546D02*
X74603523Y-36196546D01*
X74748666Y-36196546D02*
X74748666Y-35688546D01*
X74748666Y-35688546D02*
X74700285Y-35761117D01*
X74700285Y-35761117D02*
X74651904Y-35809498D01*
X74651904Y-35809498D02*
X74603523Y-35833689D01*
X74143904Y-37014426D02*
X74143904Y-36506426D01*
X74143904Y-36506426D02*
X74337428Y-36506426D01*
X74337428Y-36506426D02*
X74385809Y-36530616D01*
X74385809Y-36530616D02*
X74409999Y-36554807D01*
X74409999Y-36554807D02*
X74434190Y-36603188D01*
X74434190Y-36603188D02*
X74434190Y-36675759D01*
X74434190Y-36675759D02*
X74409999Y-36724140D01*
X74409999Y-36724140D02*
X74385809Y-36748331D01*
X74385809Y-36748331D02*
X74337428Y-36772521D01*
X74337428Y-36772521D02*
X74143904Y-36772521D01*
X74942190Y-36966045D02*
X74917999Y-36990236D01*
X74917999Y-36990236D02*
X74845428Y-37014426D01*
X74845428Y-37014426D02*
X74797047Y-37014426D01*
X74797047Y-37014426D02*
X74724475Y-36990236D01*
X74724475Y-36990236D02*
X74676094Y-36941855D01*
X74676094Y-36941855D02*
X74651904Y-36893474D01*
X74651904Y-36893474D02*
X74627713Y-36796712D01*
X74627713Y-36796712D02*
X74627713Y-36724140D01*
X74627713Y-36724140D02*
X74651904Y-36627378D01*
X74651904Y-36627378D02*
X74676094Y-36578997D01*
X74676094Y-36578997D02*
X74724475Y-36530616D01*
X74724475Y-36530616D02*
X74797047Y-36506426D01*
X74797047Y-36506426D02*
X74845428Y-36506426D01*
X74845428Y-36506426D02*
X74917999Y-36530616D01*
X74917999Y-36530616D02*
X74942190Y-36554807D01*
X75401809Y-36506426D02*
X75159904Y-36506426D01*
X75159904Y-36506426D02*
X75135713Y-36748331D01*
X75135713Y-36748331D02*
X75159904Y-36724140D01*
X75159904Y-36724140D02*
X75208285Y-36699950D01*
X75208285Y-36699950D02*
X75329237Y-36699950D01*
X75329237Y-36699950D02*
X75377618Y-36724140D01*
X75377618Y-36724140D02*
X75401809Y-36748331D01*
X75401809Y-36748331D02*
X75425999Y-36796712D01*
X75425999Y-36796712D02*
X75425999Y-36917664D01*
X75425999Y-36917664D02*
X75401809Y-36966045D01*
X75401809Y-36966045D02*
X75377618Y-36990236D01*
X75377618Y-36990236D02*
X75329237Y-37014426D01*
X75329237Y-37014426D02*
X75208285Y-37014426D01*
X75208285Y-37014426D02*
X75159904Y-36990236D01*
X75159904Y-36990236D02*
X75135713Y-36966045D01*
X74409999Y-41276546D02*
X74119713Y-41276546D01*
X74264856Y-41276546D02*
X74264856Y-40768546D01*
X74264856Y-40768546D02*
X74216475Y-40841117D01*
X74216475Y-40841117D02*
X74168094Y-40889498D01*
X74168094Y-40889498D02*
X74119713Y-40913689D01*
X74651904Y-41276546D02*
X74748666Y-41276546D01*
X74748666Y-41276546D02*
X74797047Y-41252356D01*
X74797047Y-41252356D02*
X74821238Y-41228165D01*
X74821238Y-41228165D02*
X74869619Y-41155594D01*
X74869619Y-41155594D02*
X74893809Y-41058832D01*
X74893809Y-41058832D02*
X74893809Y-40865308D01*
X74893809Y-40865308D02*
X74869619Y-40816927D01*
X74869619Y-40816927D02*
X74845428Y-40792736D01*
X74845428Y-40792736D02*
X74797047Y-40768546D01*
X74797047Y-40768546D02*
X74700285Y-40768546D01*
X74700285Y-40768546D02*
X74651904Y-40792736D01*
X74651904Y-40792736D02*
X74627714Y-40816927D01*
X74627714Y-40816927D02*
X74603523Y-40865308D01*
X74603523Y-40865308D02*
X74603523Y-40986260D01*
X74603523Y-40986260D02*
X74627714Y-41034641D01*
X74627714Y-41034641D02*
X74651904Y-41058832D01*
X74651904Y-41058832D02*
X74700285Y-41083022D01*
X74700285Y-41083022D02*
X74797047Y-41083022D01*
X74797047Y-41083022D02*
X74845428Y-41058832D01*
X74845428Y-41058832D02*
X74869619Y-41034641D01*
X74869619Y-41034641D02*
X74893809Y-40986260D01*
X74143904Y-42094426D02*
X74143904Y-41586426D01*
X74143904Y-41586426D02*
X74337428Y-41586426D01*
X74337428Y-41586426D02*
X74385809Y-41610616D01*
X74385809Y-41610616D02*
X74409999Y-41634807D01*
X74409999Y-41634807D02*
X74434190Y-41683188D01*
X74434190Y-41683188D02*
X74434190Y-41755759D01*
X74434190Y-41755759D02*
X74409999Y-41804140D01*
X74409999Y-41804140D02*
X74385809Y-41828331D01*
X74385809Y-41828331D02*
X74337428Y-41852521D01*
X74337428Y-41852521D02*
X74143904Y-41852521D01*
X74942190Y-42046045D02*
X74917999Y-42070236D01*
X74917999Y-42070236D02*
X74845428Y-42094426D01*
X74845428Y-42094426D02*
X74797047Y-42094426D01*
X74797047Y-42094426D02*
X74724475Y-42070236D01*
X74724475Y-42070236D02*
X74676094Y-42021855D01*
X74676094Y-42021855D02*
X74651904Y-41973474D01*
X74651904Y-41973474D02*
X74627713Y-41876712D01*
X74627713Y-41876712D02*
X74627713Y-41804140D01*
X74627713Y-41804140D02*
X74651904Y-41707378D01*
X74651904Y-41707378D02*
X74676094Y-41658997D01*
X74676094Y-41658997D02*
X74724475Y-41610616D01*
X74724475Y-41610616D02*
X74797047Y-41586426D01*
X74797047Y-41586426D02*
X74845428Y-41586426D01*
X74845428Y-41586426D02*
X74917999Y-41610616D01*
X74917999Y-41610616D02*
X74942190Y-41634807D01*
X75111523Y-41586426D02*
X75425999Y-41586426D01*
X75425999Y-41586426D02*
X75256666Y-41779950D01*
X75256666Y-41779950D02*
X75329237Y-41779950D01*
X75329237Y-41779950D02*
X75377618Y-41804140D01*
X75377618Y-41804140D02*
X75401809Y-41828331D01*
X75401809Y-41828331D02*
X75425999Y-41876712D01*
X75425999Y-41876712D02*
X75425999Y-41997664D01*
X75425999Y-41997664D02*
X75401809Y-42046045D01*
X75401809Y-42046045D02*
X75377618Y-42070236D01*
X75377618Y-42070236D02*
X75329237Y-42094426D01*
X75329237Y-42094426D02*
X75184094Y-42094426D01*
X75184094Y-42094426D02*
X75135713Y-42070236D01*
X75135713Y-42070236D02*
X75111523Y-42046045D01*
X74094313Y-2767727D02*
X74118504Y-2743536D01*
X74118504Y-2743536D02*
X74166885Y-2719346D01*
X74166885Y-2719346D02*
X74287837Y-2719346D01*
X74287837Y-2719346D02*
X74336218Y-2743536D01*
X74336218Y-2743536D02*
X74360409Y-2767727D01*
X74360409Y-2767727D02*
X74384599Y-2816108D01*
X74384599Y-2816108D02*
X74384599Y-2864489D01*
X74384599Y-2864489D02*
X74360409Y-2937060D01*
X74360409Y-2937060D02*
X74070123Y-3227346D01*
X74070123Y-3227346D02*
X74384599Y-3227346D01*
X74820028Y-2888679D02*
X74820028Y-3227346D01*
X74699076Y-2695156D02*
X74578123Y-3058013D01*
X74578123Y-3058013D02*
X74892600Y-3058013D01*
X75448981Y-2695156D02*
X75013552Y-3348298D01*
X75594123Y-3082203D02*
X75836028Y-3082203D01*
X75545742Y-3227346D02*
X75715076Y-2719346D01*
X75715076Y-2719346D02*
X75884409Y-3227346D01*
X76150505Y-2719346D02*
X76198886Y-2719346D01*
X76198886Y-2719346D02*
X76247267Y-2743536D01*
X76247267Y-2743536D02*
X76271457Y-2767727D01*
X76271457Y-2767727D02*
X76295648Y-2816108D01*
X76295648Y-2816108D02*
X76319838Y-2912870D01*
X76319838Y-2912870D02*
X76319838Y-3033822D01*
X76319838Y-3033822D02*
X76295648Y-3130584D01*
X76295648Y-3130584D02*
X76271457Y-3178965D01*
X76271457Y-3178965D02*
X76247267Y-3203156D01*
X76247267Y-3203156D02*
X76198886Y-3227346D01*
X76198886Y-3227346D02*
X76150505Y-3227346D01*
X76150505Y-3227346D02*
X76102124Y-3203156D01*
X76102124Y-3203156D02*
X76077933Y-3178965D01*
X76077933Y-3178965D02*
X76053743Y-3130584D01*
X76053743Y-3130584D02*
X76029552Y-3033822D01*
X76029552Y-3033822D02*
X76029552Y-2912870D01*
X76029552Y-2912870D02*
X76053743Y-2816108D01*
X76053743Y-2816108D02*
X76077933Y-2767727D01*
X76077933Y-2767727D02*
X76102124Y-2743536D01*
X76102124Y-2743536D02*
X76150505Y-2719346D01*
X74118504Y-4045226D02*
X74118504Y-3537226D01*
X74118504Y-3537226D02*
X74312028Y-3537226D01*
X74312028Y-3537226D02*
X74360409Y-3561416D01*
X74360409Y-3561416D02*
X74384599Y-3585607D01*
X74384599Y-3585607D02*
X74408790Y-3633988D01*
X74408790Y-3633988D02*
X74408790Y-3706559D01*
X74408790Y-3706559D02*
X74384599Y-3754940D01*
X74384599Y-3754940D02*
X74360409Y-3779131D01*
X74360409Y-3779131D02*
X74312028Y-3803321D01*
X74312028Y-3803321D02*
X74118504Y-3803321D01*
X74602313Y-3900083D02*
X74844218Y-3900083D01*
X74553932Y-4045226D02*
X74723266Y-3537226D01*
X74723266Y-3537226D02*
X74892599Y-4045226D01*
X75158695Y-3537226D02*
X75207076Y-3537226D01*
X75207076Y-3537226D02*
X75255457Y-3561416D01*
X75255457Y-3561416D02*
X75279647Y-3585607D01*
X75279647Y-3585607D02*
X75303838Y-3633988D01*
X75303838Y-3633988D02*
X75328028Y-3730750D01*
X75328028Y-3730750D02*
X75328028Y-3851702D01*
X75328028Y-3851702D02*
X75303838Y-3948464D01*
X75303838Y-3948464D02*
X75279647Y-3996845D01*
X75279647Y-3996845D02*
X75255457Y-4021036D01*
X75255457Y-4021036D02*
X75207076Y-4045226D01*
X75207076Y-4045226D02*
X75158695Y-4045226D01*
X75158695Y-4045226D02*
X75110314Y-4021036D01*
X75110314Y-4021036D02*
X75086123Y-3996845D01*
X75086123Y-3996845D02*
X75061933Y-3948464D01*
X75061933Y-3948464D02*
X75037742Y-3851702D01*
X75037742Y-3851702D02*
X75037742Y-3730750D01*
X75037742Y-3730750D02*
X75061933Y-3633988D01*
X75061933Y-3633988D02*
X75086123Y-3585607D01*
X75086123Y-3585607D02*
X75110314Y-3561416D01*
X75110314Y-3561416D02*
X75158695Y-3537226D01*
X74409999Y-46356546D02*
X74119713Y-46356546D01*
X74264856Y-46356546D02*
X74264856Y-45848546D01*
X74264856Y-45848546D02*
X74216475Y-45921117D01*
X74216475Y-45921117D02*
X74168094Y-45969498D01*
X74168094Y-45969498D02*
X74119713Y-45993689D01*
X74579333Y-45848546D02*
X74918000Y-45848546D01*
X74918000Y-45848546D02*
X74700285Y-46356546D01*
X74143904Y-47174426D02*
X74143904Y-46666426D01*
X74143904Y-46666426D02*
X74337428Y-46666426D01*
X74337428Y-46666426D02*
X74385809Y-46690616D01*
X74385809Y-46690616D02*
X74409999Y-46714807D01*
X74409999Y-46714807D02*
X74434190Y-46763188D01*
X74434190Y-46763188D02*
X74434190Y-46835759D01*
X74434190Y-46835759D02*
X74409999Y-46884140D01*
X74409999Y-46884140D02*
X74385809Y-46908331D01*
X74385809Y-46908331D02*
X74337428Y-46932521D01*
X74337428Y-46932521D02*
X74143904Y-46932521D01*
X74942190Y-47126045D02*
X74917999Y-47150236D01*
X74917999Y-47150236D02*
X74845428Y-47174426D01*
X74845428Y-47174426D02*
X74797047Y-47174426D01*
X74797047Y-47174426D02*
X74724475Y-47150236D01*
X74724475Y-47150236D02*
X74676094Y-47101855D01*
X74676094Y-47101855D02*
X74651904Y-47053474D01*
X74651904Y-47053474D02*
X74627713Y-46956712D01*
X74627713Y-46956712D02*
X74627713Y-46884140D01*
X74627713Y-46884140D02*
X74651904Y-46787378D01*
X74651904Y-46787378D02*
X74676094Y-46738997D01*
X74676094Y-46738997D02*
X74724475Y-46690616D01*
X74724475Y-46690616D02*
X74797047Y-46666426D01*
X74797047Y-46666426D02*
X74845428Y-46666426D01*
X74845428Y-46666426D02*
X74917999Y-46690616D01*
X74917999Y-46690616D02*
X74942190Y-46714807D01*
X75425999Y-47174426D02*
X75135713Y-47174426D01*
X75280856Y-47174426D02*
X75280856Y-46666426D01*
X75280856Y-46666426D02*
X75232475Y-46738997D01*
X75232475Y-46738997D02*
X75184094Y-46787378D01*
X75184094Y-46787378D02*
X75135713Y-46811569D01*
X43062580Y-38761946D02*
X43159342Y-38761946D01*
X43159342Y-38761946D02*
X43207723Y-38737756D01*
X43207723Y-38737756D02*
X43231914Y-38713565D01*
X43231914Y-38713565D02*
X43280295Y-38640994D01*
X43280295Y-38640994D02*
X43304485Y-38544232D01*
X43304485Y-38544232D02*
X43304485Y-38350708D01*
X43304485Y-38350708D02*
X43280295Y-38302327D01*
X43280295Y-38302327D02*
X43256104Y-38278136D01*
X43256104Y-38278136D02*
X43207723Y-38253946D01*
X43207723Y-38253946D02*
X43110961Y-38253946D01*
X43110961Y-38253946D02*
X43062580Y-38278136D01*
X43062580Y-38278136D02*
X43038390Y-38302327D01*
X43038390Y-38302327D02*
X43014199Y-38350708D01*
X43014199Y-38350708D02*
X43014199Y-38471660D01*
X43014199Y-38471660D02*
X43038390Y-38520041D01*
X43038390Y-38520041D02*
X43062580Y-38544232D01*
X43062580Y-38544232D02*
X43110961Y-38568422D01*
X43110961Y-38568422D02*
X43207723Y-38568422D01*
X43207723Y-38568422D02*
X43256104Y-38544232D01*
X43256104Y-38544232D02*
X43280295Y-38520041D01*
X43280295Y-38520041D02*
X43304485Y-38471660D01*
X42022390Y-39579826D02*
X42022390Y-39071826D01*
X42022390Y-39071826D02*
X42215914Y-39071826D01*
X42215914Y-39071826D02*
X42264295Y-39096016D01*
X42264295Y-39096016D02*
X42288485Y-39120207D01*
X42288485Y-39120207D02*
X42312676Y-39168588D01*
X42312676Y-39168588D02*
X42312676Y-39241159D01*
X42312676Y-39241159D02*
X42288485Y-39289540D01*
X42288485Y-39289540D02*
X42264295Y-39313731D01*
X42264295Y-39313731D02*
X42215914Y-39337921D01*
X42215914Y-39337921D02*
X42022390Y-39337921D01*
X42530390Y-39579826D02*
X42530390Y-39071826D01*
X42530390Y-39071826D02*
X42651342Y-39071826D01*
X42651342Y-39071826D02*
X42723914Y-39096016D01*
X42723914Y-39096016D02*
X42772295Y-39144397D01*
X42772295Y-39144397D02*
X42796485Y-39192778D01*
X42796485Y-39192778D02*
X42820676Y-39289540D01*
X42820676Y-39289540D02*
X42820676Y-39362112D01*
X42820676Y-39362112D02*
X42796485Y-39458874D01*
X42796485Y-39458874D02*
X42772295Y-39507255D01*
X42772295Y-39507255D02*
X42723914Y-39555636D01*
X42723914Y-39555636D02*
X42651342Y-39579826D01*
X42651342Y-39579826D02*
X42530390Y-39579826D01*
X43304485Y-39579826D02*
X43014199Y-39579826D01*
X43159342Y-39579826D02*
X43159342Y-39071826D01*
X43159342Y-39071826D02*
X43110961Y-39144397D01*
X43110961Y-39144397D02*
X43062580Y-39192778D01*
X43062580Y-39192778D02*
X43014199Y-39216969D01*
X43256104Y-17421666D02*
X43159342Y-17421666D01*
X43159342Y-17421666D02*
X43110961Y-17445856D01*
X43110961Y-17445856D02*
X43086771Y-17470047D01*
X43086771Y-17470047D02*
X43038390Y-17542618D01*
X43038390Y-17542618D02*
X43014199Y-17639380D01*
X43014199Y-17639380D02*
X43014199Y-17832904D01*
X43014199Y-17832904D02*
X43038390Y-17881285D01*
X43038390Y-17881285D02*
X43062580Y-17905476D01*
X43062580Y-17905476D02*
X43110961Y-17929666D01*
X43110961Y-17929666D02*
X43207723Y-17929666D01*
X43207723Y-17929666D02*
X43256104Y-17905476D01*
X43256104Y-17905476D02*
X43280295Y-17881285D01*
X43280295Y-17881285D02*
X43304485Y-17832904D01*
X43304485Y-17832904D02*
X43304485Y-17711952D01*
X43304485Y-17711952D02*
X43280295Y-17663571D01*
X43280295Y-17663571D02*
X43256104Y-17639380D01*
X43256104Y-17639380D02*
X43207723Y-17615190D01*
X43207723Y-17615190D02*
X43110961Y-17615190D01*
X43110961Y-17615190D02*
X43062580Y-17639380D01*
X43062580Y-17639380D02*
X43038390Y-17663571D01*
X43038390Y-17663571D02*
X43014199Y-17711952D01*
X42022390Y-18747546D02*
X42022390Y-18239546D01*
X42022390Y-18239546D02*
X42215914Y-18239546D01*
X42215914Y-18239546D02*
X42264295Y-18263736D01*
X42264295Y-18263736D02*
X42288485Y-18287927D01*
X42288485Y-18287927D02*
X42312676Y-18336308D01*
X42312676Y-18336308D02*
X42312676Y-18408879D01*
X42312676Y-18408879D02*
X42288485Y-18457260D01*
X42288485Y-18457260D02*
X42264295Y-18481451D01*
X42264295Y-18481451D02*
X42215914Y-18505641D01*
X42215914Y-18505641D02*
X42022390Y-18505641D01*
X42699723Y-18481451D02*
X42772295Y-18505641D01*
X42772295Y-18505641D02*
X42796485Y-18529832D01*
X42796485Y-18529832D02*
X42820676Y-18578213D01*
X42820676Y-18578213D02*
X42820676Y-18650784D01*
X42820676Y-18650784D02*
X42796485Y-18699165D01*
X42796485Y-18699165D02*
X42772295Y-18723356D01*
X42772295Y-18723356D02*
X42723914Y-18747546D01*
X42723914Y-18747546D02*
X42530390Y-18747546D01*
X42530390Y-18747546D02*
X42530390Y-18239546D01*
X42530390Y-18239546D02*
X42699723Y-18239546D01*
X42699723Y-18239546D02*
X42748104Y-18263736D01*
X42748104Y-18263736D02*
X42772295Y-18287927D01*
X42772295Y-18287927D02*
X42796485Y-18336308D01*
X42796485Y-18336308D02*
X42796485Y-18384689D01*
X42796485Y-18384689D02*
X42772295Y-18433070D01*
X42772295Y-18433070D02*
X42748104Y-18457260D01*
X42748104Y-18457260D02*
X42699723Y-18481451D01*
X42699723Y-18481451D02*
X42530390Y-18481451D01*
X43256104Y-18239546D02*
X43159342Y-18239546D01*
X43159342Y-18239546D02*
X43110961Y-18263736D01*
X43110961Y-18263736D02*
X43086771Y-18287927D01*
X43086771Y-18287927D02*
X43038390Y-18360498D01*
X43038390Y-18360498D02*
X43014199Y-18457260D01*
X43014199Y-18457260D02*
X43014199Y-18650784D01*
X43014199Y-18650784D02*
X43038390Y-18699165D01*
X43038390Y-18699165D02*
X43062580Y-18723356D01*
X43062580Y-18723356D02*
X43110961Y-18747546D01*
X43110961Y-18747546D02*
X43207723Y-18747546D01*
X43207723Y-18747546D02*
X43256104Y-18723356D01*
X43256104Y-18723356D02*
X43280295Y-18699165D01*
X43280295Y-18699165D02*
X43304485Y-18650784D01*
X43304485Y-18650784D02*
X43304485Y-18529832D01*
X43304485Y-18529832D02*
X43280295Y-18481451D01*
X43280295Y-18481451D02*
X43256104Y-18457260D01*
X43256104Y-18457260D02*
X43207723Y-18433070D01*
X43207723Y-18433070D02*
X43110961Y-18433070D01*
X43110961Y-18433070D02*
X43062580Y-18457260D01*
X43062580Y-18457260D02*
X43038390Y-18481451D01*
X43038390Y-18481451D02*
X43014199Y-18529832D01*
X41683724Y-19565426D02*
X41683724Y-19057426D01*
X41683724Y-19057426D02*
X41853057Y-19420283D01*
X41853057Y-19420283D02*
X42022391Y-19057426D01*
X42022391Y-19057426D02*
X42022391Y-19565426D01*
X42264295Y-19565426D02*
X42264295Y-19057426D01*
X42482009Y-19541236D02*
X42554581Y-19565426D01*
X42554581Y-19565426D02*
X42675533Y-19565426D01*
X42675533Y-19565426D02*
X42723914Y-19541236D01*
X42723914Y-19541236D02*
X42748105Y-19517045D01*
X42748105Y-19517045D02*
X42772295Y-19468664D01*
X42772295Y-19468664D02*
X42772295Y-19420283D01*
X42772295Y-19420283D02*
X42748105Y-19371902D01*
X42748105Y-19371902D02*
X42723914Y-19347712D01*
X42723914Y-19347712D02*
X42675533Y-19323521D01*
X42675533Y-19323521D02*
X42578771Y-19299331D01*
X42578771Y-19299331D02*
X42530390Y-19275140D01*
X42530390Y-19275140D02*
X42506200Y-19250950D01*
X42506200Y-19250950D02*
X42482009Y-19202569D01*
X42482009Y-19202569D02*
X42482009Y-19154188D01*
X42482009Y-19154188D02*
X42506200Y-19105807D01*
X42506200Y-19105807D02*
X42530390Y-19081616D01*
X42530390Y-19081616D02*
X42578771Y-19057426D01*
X42578771Y-19057426D02*
X42699724Y-19057426D01*
X42699724Y-19057426D02*
X42772295Y-19081616D01*
X43086772Y-19057426D02*
X43183534Y-19057426D01*
X43183534Y-19057426D02*
X43231915Y-19081616D01*
X43231915Y-19081616D02*
X43280296Y-19129997D01*
X43280296Y-19129997D02*
X43304486Y-19226759D01*
X43304486Y-19226759D02*
X43304486Y-19396093D01*
X43304486Y-19396093D02*
X43280296Y-19492855D01*
X43280296Y-19492855D02*
X43231915Y-19541236D01*
X43231915Y-19541236D02*
X43183534Y-19565426D01*
X43183534Y-19565426D02*
X43086772Y-19565426D01*
X43086772Y-19565426D02*
X43038391Y-19541236D01*
X43038391Y-19541236D02*
X42990010Y-19492855D01*
X42990010Y-19492855D02*
X42965819Y-19396093D01*
X42965819Y-19396093D02*
X42965819Y-19226759D01*
X42965819Y-19226759D02*
X42990010Y-19129997D01*
X42990010Y-19129997D02*
X43038391Y-19081616D01*
X43038391Y-19081616D02*
X43086772Y-19057426D01*
X43355285Y-5793546D02*
X43064999Y-5793546D01*
X43210142Y-5793546D02*
X43210142Y-5285546D01*
X43210142Y-5285546D02*
X43161761Y-5358117D01*
X43161761Y-5358117D02*
X43113380Y-5406498D01*
X43113380Y-5406498D02*
X43064999Y-5430689D01*
X42073190Y-6611426D02*
X42073190Y-6103426D01*
X42073190Y-6103426D02*
X42266714Y-6103426D01*
X42266714Y-6103426D02*
X42315095Y-6127616D01*
X42315095Y-6127616D02*
X42339285Y-6151807D01*
X42339285Y-6151807D02*
X42363476Y-6200188D01*
X42363476Y-6200188D02*
X42363476Y-6272759D01*
X42363476Y-6272759D02*
X42339285Y-6321140D01*
X42339285Y-6321140D02*
X42315095Y-6345331D01*
X42315095Y-6345331D02*
X42266714Y-6369521D01*
X42266714Y-6369521D02*
X42073190Y-6369521D01*
X42750523Y-6345331D02*
X42823095Y-6369521D01*
X42823095Y-6369521D02*
X42847285Y-6393712D01*
X42847285Y-6393712D02*
X42871476Y-6442093D01*
X42871476Y-6442093D02*
X42871476Y-6514664D01*
X42871476Y-6514664D02*
X42847285Y-6563045D01*
X42847285Y-6563045D02*
X42823095Y-6587236D01*
X42823095Y-6587236D02*
X42774714Y-6611426D01*
X42774714Y-6611426D02*
X42581190Y-6611426D01*
X42581190Y-6611426D02*
X42581190Y-6103426D01*
X42581190Y-6103426D02*
X42750523Y-6103426D01*
X42750523Y-6103426D02*
X42798904Y-6127616D01*
X42798904Y-6127616D02*
X42823095Y-6151807D01*
X42823095Y-6151807D02*
X42847285Y-6200188D01*
X42847285Y-6200188D02*
X42847285Y-6248569D01*
X42847285Y-6248569D02*
X42823095Y-6296950D01*
X42823095Y-6296950D02*
X42798904Y-6321140D01*
X42798904Y-6321140D02*
X42750523Y-6345331D01*
X42750523Y-6345331D02*
X42581190Y-6345331D01*
X43355285Y-6611426D02*
X43064999Y-6611426D01*
X43210142Y-6611426D02*
X43210142Y-6103426D01*
X43210142Y-6103426D02*
X43161761Y-6175997D01*
X43161761Y-6175997D02*
X43113380Y-6224378D01*
X43113380Y-6224378D02*
X43064999Y-6248569D01*
X74094313Y-15467727D02*
X74118504Y-15443536D01*
X74118504Y-15443536D02*
X74166885Y-15419346D01*
X74166885Y-15419346D02*
X74287837Y-15419346D01*
X74287837Y-15419346D02*
X74336218Y-15443536D01*
X74336218Y-15443536D02*
X74360409Y-15467727D01*
X74360409Y-15467727D02*
X74384599Y-15516108D01*
X74384599Y-15516108D02*
X74384599Y-15564489D01*
X74384599Y-15564489D02*
X74360409Y-15637060D01*
X74360409Y-15637060D02*
X74070123Y-15927346D01*
X74070123Y-15927346D02*
X74384599Y-15927346D01*
X74626504Y-15927346D02*
X74723266Y-15927346D01*
X74723266Y-15927346D02*
X74771647Y-15903156D01*
X74771647Y-15903156D02*
X74795838Y-15878965D01*
X74795838Y-15878965D02*
X74844219Y-15806394D01*
X74844219Y-15806394D02*
X74868409Y-15709632D01*
X74868409Y-15709632D02*
X74868409Y-15516108D01*
X74868409Y-15516108D02*
X74844219Y-15467727D01*
X74844219Y-15467727D02*
X74820028Y-15443536D01*
X74820028Y-15443536D02*
X74771647Y-15419346D01*
X74771647Y-15419346D02*
X74674885Y-15419346D01*
X74674885Y-15419346D02*
X74626504Y-15443536D01*
X74626504Y-15443536D02*
X74602314Y-15467727D01*
X74602314Y-15467727D02*
X74578123Y-15516108D01*
X74578123Y-15516108D02*
X74578123Y-15637060D01*
X74578123Y-15637060D02*
X74602314Y-15685441D01*
X74602314Y-15685441D02*
X74626504Y-15709632D01*
X74626504Y-15709632D02*
X74674885Y-15733822D01*
X74674885Y-15733822D02*
X74771647Y-15733822D01*
X74771647Y-15733822D02*
X74820028Y-15709632D01*
X74820028Y-15709632D02*
X74844219Y-15685441D01*
X74844219Y-15685441D02*
X74868409Y-15637060D01*
X75448981Y-15395156D02*
X75013552Y-16048298D01*
X75594123Y-15782203D02*
X75836028Y-15782203D01*
X75545742Y-15927346D02*
X75715076Y-15419346D01*
X75715076Y-15419346D02*
X75884409Y-15927346D01*
X76295648Y-15419346D02*
X76053743Y-15419346D01*
X76053743Y-15419346D02*
X76029552Y-15661251D01*
X76029552Y-15661251D02*
X76053743Y-15637060D01*
X76053743Y-15637060D02*
X76102124Y-15612870D01*
X76102124Y-15612870D02*
X76223076Y-15612870D01*
X76223076Y-15612870D02*
X76271457Y-15637060D01*
X76271457Y-15637060D02*
X76295648Y-15661251D01*
X76295648Y-15661251D02*
X76319838Y-15709632D01*
X76319838Y-15709632D02*
X76319838Y-15830584D01*
X76319838Y-15830584D02*
X76295648Y-15878965D01*
X76295648Y-15878965D02*
X76271457Y-15903156D01*
X76271457Y-15903156D02*
X76223076Y-15927346D01*
X76223076Y-15927346D02*
X76102124Y-15927346D01*
X76102124Y-15927346D02*
X76053743Y-15903156D01*
X76053743Y-15903156D02*
X76029552Y-15878965D01*
X74118504Y-16745226D02*
X74118504Y-16237226D01*
X74118504Y-16237226D02*
X74312028Y-16237226D01*
X74312028Y-16237226D02*
X74360409Y-16261416D01*
X74360409Y-16261416D02*
X74384599Y-16285607D01*
X74384599Y-16285607D02*
X74408790Y-16333988D01*
X74408790Y-16333988D02*
X74408790Y-16406559D01*
X74408790Y-16406559D02*
X74384599Y-16454940D01*
X74384599Y-16454940D02*
X74360409Y-16479131D01*
X74360409Y-16479131D02*
X74312028Y-16503321D01*
X74312028Y-16503321D02*
X74118504Y-16503321D01*
X74602313Y-16600083D02*
X74844218Y-16600083D01*
X74553932Y-16745226D02*
X74723266Y-16237226D01*
X74723266Y-16237226D02*
X74892599Y-16745226D01*
X75303838Y-16237226D02*
X75061933Y-16237226D01*
X75061933Y-16237226D02*
X75037742Y-16479131D01*
X75037742Y-16479131D02*
X75061933Y-16454940D01*
X75061933Y-16454940D02*
X75110314Y-16430750D01*
X75110314Y-16430750D02*
X75231266Y-16430750D01*
X75231266Y-16430750D02*
X75279647Y-16454940D01*
X75279647Y-16454940D02*
X75303838Y-16479131D01*
X75303838Y-16479131D02*
X75328028Y-16527512D01*
X75328028Y-16527512D02*
X75328028Y-16648464D01*
X75328028Y-16648464D02*
X75303838Y-16696845D01*
X75303838Y-16696845D02*
X75279647Y-16721036D01*
X75279647Y-16721036D02*
X75231266Y-16745226D01*
X75231266Y-16745226D02*
X75110314Y-16745226D01*
X75110314Y-16745226D02*
X75061933Y-16721036D01*
X75061933Y-16721036D02*
X75037742Y-16696845D01*
X32189226Y-7440095D02*
X31681226Y-7440095D01*
X31681226Y-7440095D02*
X32044083Y-7270762D01*
X32044083Y-7270762D02*
X31681226Y-7101428D01*
X31681226Y-7101428D02*
X32189226Y-7101428D01*
X32189226Y-6859524D02*
X31681226Y-6859524D01*
X32165036Y-6641810D02*
X32189226Y-6569238D01*
X32189226Y-6569238D02*
X32189226Y-6448286D01*
X32189226Y-6448286D02*
X32165036Y-6399905D01*
X32165036Y-6399905D02*
X32140845Y-6375714D01*
X32140845Y-6375714D02*
X32092464Y-6351524D01*
X32092464Y-6351524D02*
X32044083Y-6351524D01*
X32044083Y-6351524D02*
X31995702Y-6375714D01*
X31995702Y-6375714D02*
X31971512Y-6399905D01*
X31971512Y-6399905D02*
X31947321Y-6448286D01*
X31947321Y-6448286D02*
X31923131Y-6545048D01*
X31923131Y-6545048D02*
X31898940Y-6593429D01*
X31898940Y-6593429D02*
X31874750Y-6617619D01*
X31874750Y-6617619D02*
X31826369Y-6641810D01*
X31826369Y-6641810D02*
X31777988Y-6641810D01*
X31777988Y-6641810D02*
X31729607Y-6617619D01*
X31729607Y-6617619D02*
X31705416Y-6593429D01*
X31705416Y-6593429D02*
X31681226Y-6545048D01*
X31681226Y-6545048D02*
X31681226Y-6424095D01*
X31681226Y-6424095D02*
X31705416Y-6351524D01*
X31681226Y-6037047D02*
X31681226Y-5940285D01*
X31681226Y-5940285D02*
X31705416Y-5891904D01*
X31705416Y-5891904D02*
X31753797Y-5843523D01*
X31753797Y-5843523D02*
X31850559Y-5819333D01*
X31850559Y-5819333D02*
X32019893Y-5819333D01*
X32019893Y-5819333D02*
X32116655Y-5843523D01*
X32116655Y-5843523D02*
X32165036Y-5891904D01*
X32165036Y-5891904D02*
X32189226Y-5940285D01*
X32189226Y-5940285D02*
X32189226Y-6037047D01*
X32189226Y-6037047D02*
X32165036Y-6085428D01*
X32165036Y-6085428D02*
X32116655Y-6133809D01*
X32116655Y-6133809D02*
X32019893Y-6158000D01*
X32019893Y-6158000D02*
X31850559Y-6158000D01*
X31850559Y-6158000D02*
X31753797Y-6133809D01*
X31753797Y-6133809D02*
X31705416Y-6085428D01*
X31705416Y-6085428D02*
X31681226Y-6037047D01*
X42964609Y-20088666D02*
X43303276Y-20088666D01*
X43303276Y-20088666D02*
X43085561Y-20596666D01*
X41996990Y-21414546D02*
X41996990Y-20906546D01*
X41996990Y-20906546D02*
X42190514Y-20906546D01*
X42190514Y-20906546D02*
X42238895Y-20930736D01*
X42238895Y-20930736D02*
X42263085Y-20954927D01*
X42263085Y-20954927D02*
X42287276Y-21003308D01*
X42287276Y-21003308D02*
X42287276Y-21075879D01*
X42287276Y-21075879D02*
X42263085Y-21124260D01*
X42263085Y-21124260D02*
X42238895Y-21148451D01*
X42238895Y-21148451D02*
X42190514Y-21172641D01*
X42190514Y-21172641D02*
X41996990Y-21172641D01*
X42674323Y-21148451D02*
X42746895Y-21172641D01*
X42746895Y-21172641D02*
X42771085Y-21196832D01*
X42771085Y-21196832D02*
X42795276Y-21245213D01*
X42795276Y-21245213D02*
X42795276Y-21317784D01*
X42795276Y-21317784D02*
X42771085Y-21366165D01*
X42771085Y-21366165D02*
X42746895Y-21390356D01*
X42746895Y-21390356D02*
X42698514Y-21414546D01*
X42698514Y-21414546D02*
X42504990Y-21414546D01*
X42504990Y-21414546D02*
X42504990Y-20906546D01*
X42504990Y-20906546D02*
X42674323Y-20906546D01*
X42674323Y-20906546D02*
X42722704Y-20930736D01*
X42722704Y-20930736D02*
X42746895Y-20954927D01*
X42746895Y-20954927D02*
X42771085Y-21003308D01*
X42771085Y-21003308D02*
X42771085Y-21051689D01*
X42771085Y-21051689D02*
X42746895Y-21100070D01*
X42746895Y-21100070D02*
X42722704Y-21124260D01*
X42722704Y-21124260D02*
X42674323Y-21148451D01*
X42674323Y-21148451D02*
X42504990Y-21148451D01*
X42964609Y-20906546D02*
X43303276Y-20906546D01*
X43303276Y-20906546D02*
X43085561Y-21414546D01*
X41972799Y-22208236D02*
X42045371Y-22232426D01*
X42045371Y-22232426D02*
X42166323Y-22232426D01*
X42166323Y-22232426D02*
X42214704Y-22208236D01*
X42214704Y-22208236D02*
X42238895Y-22184045D01*
X42238895Y-22184045D02*
X42263085Y-22135664D01*
X42263085Y-22135664D02*
X42263085Y-22087283D01*
X42263085Y-22087283D02*
X42238895Y-22038902D01*
X42238895Y-22038902D02*
X42214704Y-22014712D01*
X42214704Y-22014712D02*
X42166323Y-21990521D01*
X42166323Y-21990521D02*
X42069561Y-21966331D01*
X42069561Y-21966331D02*
X42021180Y-21942140D01*
X42021180Y-21942140D02*
X41996990Y-21917950D01*
X41996990Y-21917950D02*
X41972799Y-21869569D01*
X41972799Y-21869569D02*
X41972799Y-21821188D01*
X41972799Y-21821188D02*
X41996990Y-21772807D01*
X41996990Y-21772807D02*
X42021180Y-21748616D01*
X42021180Y-21748616D02*
X42069561Y-21724426D01*
X42069561Y-21724426D02*
X42190514Y-21724426D01*
X42190514Y-21724426D02*
X42263085Y-21748616D01*
X42771086Y-22184045D02*
X42746895Y-22208236D01*
X42746895Y-22208236D02*
X42674324Y-22232426D01*
X42674324Y-22232426D02*
X42625943Y-22232426D01*
X42625943Y-22232426D02*
X42553371Y-22208236D01*
X42553371Y-22208236D02*
X42504990Y-22159855D01*
X42504990Y-22159855D02*
X42480800Y-22111474D01*
X42480800Y-22111474D02*
X42456609Y-22014712D01*
X42456609Y-22014712D02*
X42456609Y-21942140D01*
X42456609Y-21942140D02*
X42480800Y-21845378D01*
X42480800Y-21845378D02*
X42504990Y-21796997D01*
X42504990Y-21796997D02*
X42553371Y-21748616D01*
X42553371Y-21748616D02*
X42625943Y-21724426D01*
X42625943Y-21724426D02*
X42674324Y-21724426D01*
X42674324Y-21724426D02*
X42746895Y-21748616D01*
X42746895Y-21748616D02*
X42771086Y-21772807D01*
X42988800Y-22232426D02*
X42988800Y-21724426D01*
X43279086Y-22232426D02*
X43061371Y-21942140D01*
X43279086Y-21724426D02*
X42988800Y-22014712D01*
X74094313Y-12927727D02*
X74118504Y-12903536D01*
X74118504Y-12903536D02*
X74166885Y-12879346D01*
X74166885Y-12879346D02*
X74287837Y-12879346D01*
X74287837Y-12879346D02*
X74336218Y-12903536D01*
X74336218Y-12903536D02*
X74360409Y-12927727D01*
X74360409Y-12927727D02*
X74384599Y-12976108D01*
X74384599Y-12976108D02*
X74384599Y-13024489D01*
X74384599Y-13024489D02*
X74360409Y-13097060D01*
X74360409Y-13097060D02*
X74070123Y-13387346D01*
X74070123Y-13387346D02*
X74384599Y-13387346D01*
X74674885Y-13097060D02*
X74626504Y-13072870D01*
X74626504Y-13072870D02*
X74602314Y-13048679D01*
X74602314Y-13048679D02*
X74578123Y-13000298D01*
X74578123Y-13000298D02*
X74578123Y-12976108D01*
X74578123Y-12976108D02*
X74602314Y-12927727D01*
X74602314Y-12927727D02*
X74626504Y-12903536D01*
X74626504Y-12903536D02*
X74674885Y-12879346D01*
X74674885Y-12879346D02*
X74771647Y-12879346D01*
X74771647Y-12879346D02*
X74820028Y-12903536D01*
X74820028Y-12903536D02*
X74844219Y-12927727D01*
X74844219Y-12927727D02*
X74868409Y-12976108D01*
X74868409Y-12976108D02*
X74868409Y-13000298D01*
X74868409Y-13000298D02*
X74844219Y-13048679D01*
X74844219Y-13048679D02*
X74820028Y-13072870D01*
X74820028Y-13072870D02*
X74771647Y-13097060D01*
X74771647Y-13097060D02*
X74674885Y-13097060D01*
X74674885Y-13097060D02*
X74626504Y-13121251D01*
X74626504Y-13121251D02*
X74602314Y-13145441D01*
X74602314Y-13145441D02*
X74578123Y-13193822D01*
X74578123Y-13193822D02*
X74578123Y-13290584D01*
X74578123Y-13290584D02*
X74602314Y-13338965D01*
X74602314Y-13338965D02*
X74626504Y-13363156D01*
X74626504Y-13363156D02*
X74674885Y-13387346D01*
X74674885Y-13387346D02*
X74771647Y-13387346D01*
X74771647Y-13387346D02*
X74820028Y-13363156D01*
X74820028Y-13363156D02*
X74844219Y-13338965D01*
X74844219Y-13338965D02*
X74868409Y-13290584D01*
X74868409Y-13290584D02*
X74868409Y-13193822D01*
X74868409Y-13193822D02*
X74844219Y-13145441D01*
X74844219Y-13145441D02*
X74820028Y-13121251D01*
X74820028Y-13121251D02*
X74771647Y-13097060D01*
X75448981Y-12855156D02*
X75013552Y-13508298D01*
X75594123Y-13242203D02*
X75836028Y-13242203D01*
X75545742Y-13387346D02*
X75715076Y-12879346D01*
X75715076Y-12879346D02*
X75884409Y-13387346D01*
X76271457Y-13048679D02*
X76271457Y-13387346D01*
X76150505Y-12855156D02*
X76029552Y-13218013D01*
X76029552Y-13218013D02*
X76344029Y-13218013D01*
X74118504Y-14205226D02*
X74118504Y-13697226D01*
X74118504Y-13697226D02*
X74312028Y-13697226D01*
X74312028Y-13697226D02*
X74360409Y-13721416D01*
X74360409Y-13721416D02*
X74384599Y-13745607D01*
X74384599Y-13745607D02*
X74408790Y-13793988D01*
X74408790Y-13793988D02*
X74408790Y-13866559D01*
X74408790Y-13866559D02*
X74384599Y-13914940D01*
X74384599Y-13914940D02*
X74360409Y-13939131D01*
X74360409Y-13939131D02*
X74312028Y-13963321D01*
X74312028Y-13963321D02*
X74118504Y-13963321D01*
X74602313Y-14060083D02*
X74844218Y-14060083D01*
X74553932Y-14205226D02*
X74723266Y-13697226D01*
X74723266Y-13697226D02*
X74892599Y-14205226D01*
X75279647Y-13866559D02*
X75279647Y-14205226D01*
X75158695Y-13673036D02*
X75037742Y-14035893D01*
X75037742Y-14035893D02*
X75352219Y-14035893D01*
X74409999Y-43816546D02*
X74119713Y-43816546D01*
X74264856Y-43816546D02*
X74264856Y-43308546D01*
X74264856Y-43308546D02*
X74216475Y-43381117D01*
X74216475Y-43381117D02*
X74168094Y-43429498D01*
X74168094Y-43429498D02*
X74119713Y-43453689D01*
X74700285Y-43526260D02*
X74651904Y-43502070D01*
X74651904Y-43502070D02*
X74627714Y-43477879D01*
X74627714Y-43477879D02*
X74603523Y-43429498D01*
X74603523Y-43429498D02*
X74603523Y-43405308D01*
X74603523Y-43405308D02*
X74627714Y-43356927D01*
X74627714Y-43356927D02*
X74651904Y-43332736D01*
X74651904Y-43332736D02*
X74700285Y-43308546D01*
X74700285Y-43308546D02*
X74797047Y-43308546D01*
X74797047Y-43308546D02*
X74845428Y-43332736D01*
X74845428Y-43332736D02*
X74869619Y-43356927D01*
X74869619Y-43356927D02*
X74893809Y-43405308D01*
X74893809Y-43405308D02*
X74893809Y-43429498D01*
X74893809Y-43429498D02*
X74869619Y-43477879D01*
X74869619Y-43477879D02*
X74845428Y-43502070D01*
X74845428Y-43502070D02*
X74797047Y-43526260D01*
X74797047Y-43526260D02*
X74700285Y-43526260D01*
X74700285Y-43526260D02*
X74651904Y-43550451D01*
X74651904Y-43550451D02*
X74627714Y-43574641D01*
X74627714Y-43574641D02*
X74603523Y-43623022D01*
X74603523Y-43623022D02*
X74603523Y-43719784D01*
X74603523Y-43719784D02*
X74627714Y-43768165D01*
X74627714Y-43768165D02*
X74651904Y-43792356D01*
X74651904Y-43792356D02*
X74700285Y-43816546D01*
X74700285Y-43816546D02*
X74797047Y-43816546D01*
X74797047Y-43816546D02*
X74845428Y-43792356D01*
X74845428Y-43792356D02*
X74869619Y-43768165D01*
X74869619Y-43768165D02*
X74893809Y-43719784D01*
X74893809Y-43719784D02*
X74893809Y-43623022D01*
X74893809Y-43623022D02*
X74869619Y-43574641D01*
X74869619Y-43574641D02*
X74845428Y-43550451D01*
X74845428Y-43550451D02*
X74797047Y-43526260D01*
X74143904Y-44634426D02*
X74143904Y-44126426D01*
X74143904Y-44126426D02*
X74337428Y-44126426D01*
X74337428Y-44126426D02*
X74385809Y-44150616D01*
X74385809Y-44150616D02*
X74409999Y-44174807D01*
X74409999Y-44174807D02*
X74434190Y-44223188D01*
X74434190Y-44223188D02*
X74434190Y-44295759D01*
X74434190Y-44295759D02*
X74409999Y-44344140D01*
X74409999Y-44344140D02*
X74385809Y-44368331D01*
X74385809Y-44368331D02*
X74337428Y-44392521D01*
X74337428Y-44392521D02*
X74143904Y-44392521D01*
X74942190Y-44586045D02*
X74917999Y-44610236D01*
X74917999Y-44610236D02*
X74845428Y-44634426D01*
X74845428Y-44634426D02*
X74797047Y-44634426D01*
X74797047Y-44634426D02*
X74724475Y-44610236D01*
X74724475Y-44610236D02*
X74676094Y-44561855D01*
X74676094Y-44561855D02*
X74651904Y-44513474D01*
X74651904Y-44513474D02*
X74627713Y-44416712D01*
X74627713Y-44416712D02*
X74627713Y-44344140D01*
X74627713Y-44344140D02*
X74651904Y-44247378D01*
X74651904Y-44247378D02*
X74676094Y-44198997D01*
X74676094Y-44198997D02*
X74724475Y-44150616D01*
X74724475Y-44150616D02*
X74797047Y-44126426D01*
X74797047Y-44126426D02*
X74845428Y-44126426D01*
X74845428Y-44126426D02*
X74917999Y-44150616D01*
X74917999Y-44150616D02*
X74942190Y-44174807D01*
X75135713Y-44174807D02*
X75159904Y-44150616D01*
X75159904Y-44150616D02*
X75208285Y-44126426D01*
X75208285Y-44126426D02*
X75329237Y-44126426D01*
X75329237Y-44126426D02*
X75377618Y-44150616D01*
X75377618Y-44150616D02*
X75401809Y-44174807D01*
X75401809Y-44174807D02*
X75425999Y-44223188D01*
X75425999Y-44223188D02*
X75425999Y-44271569D01*
X75425999Y-44271569D02*
X75401809Y-44344140D01*
X75401809Y-44344140D02*
X75111523Y-44634426D01*
X75111523Y-44634426D02*
X75425999Y-44634426D01*
X31403036Y-7210286D02*
X31427226Y-7137714D01*
X31427226Y-7137714D02*
X31427226Y-7016762D01*
X31427226Y-7016762D02*
X31403036Y-6968381D01*
X31403036Y-6968381D02*
X31378845Y-6944190D01*
X31378845Y-6944190D02*
X31330464Y-6920000D01*
X31330464Y-6920000D02*
X31282083Y-6920000D01*
X31282083Y-6920000D02*
X31233702Y-6944190D01*
X31233702Y-6944190D02*
X31209512Y-6968381D01*
X31209512Y-6968381D02*
X31185321Y-7016762D01*
X31185321Y-7016762D02*
X31161131Y-7113524D01*
X31161131Y-7113524D02*
X31136940Y-7161905D01*
X31136940Y-7161905D02*
X31112750Y-7186095D01*
X31112750Y-7186095D02*
X31064369Y-7210286D01*
X31064369Y-7210286D02*
X31015988Y-7210286D01*
X31015988Y-7210286D02*
X30967607Y-7186095D01*
X30967607Y-7186095D02*
X30943416Y-7161905D01*
X30943416Y-7161905D02*
X30919226Y-7113524D01*
X30919226Y-7113524D02*
X30919226Y-6992571D01*
X30919226Y-6992571D02*
X30943416Y-6920000D01*
X31378845Y-6411999D02*
X31403036Y-6436190D01*
X31403036Y-6436190D02*
X31427226Y-6508761D01*
X31427226Y-6508761D02*
X31427226Y-6557142D01*
X31427226Y-6557142D02*
X31403036Y-6629714D01*
X31403036Y-6629714D02*
X31354655Y-6678095D01*
X31354655Y-6678095D02*
X31306274Y-6702285D01*
X31306274Y-6702285D02*
X31209512Y-6726476D01*
X31209512Y-6726476D02*
X31136940Y-6726476D01*
X31136940Y-6726476D02*
X31040178Y-6702285D01*
X31040178Y-6702285D02*
X30991797Y-6678095D01*
X30991797Y-6678095D02*
X30943416Y-6629714D01*
X30943416Y-6629714D02*
X30919226Y-6557142D01*
X30919226Y-6557142D02*
X30919226Y-6508761D01*
X30919226Y-6508761D02*
X30943416Y-6436190D01*
X30943416Y-6436190D02*
X30967607Y-6411999D01*
X31427226Y-6194285D02*
X30919226Y-6194285D01*
X31427226Y-5903999D02*
X31136940Y-6121714D01*
X30919226Y-5903999D02*
X31209512Y-6194285D01*
X4895266Y-8337826D02*
X4992028Y-8337826D01*
X4992028Y-8337826D02*
X5040409Y-8362016D01*
X5040409Y-8362016D02*
X5088790Y-8410397D01*
X5088790Y-8410397D02*
X5112980Y-8507159D01*
X5112980Y-8507159D02*
X5112980Y-8676493D01*
X5112980Y-8676493D02*
X5088790Y-8773255D01*
X5088790Y-8773255D02*
X5040409Y-8821636D01*
X5040409Y-8821636D02*
X4992028Y-8845826D01*
X4992028Y-8845826D02*
X4895266Y-8845826D01*
X4895266Y-8845826D02*
X4846885Y-8821636D01*
X4846885Y-8821636D02*
X4798504Y-8773255D01*
X4798504Y-8773255D02*
X4774313Y-8676493D01*
X4774313Y-8676493D02*
X4774313Y-8507159D01*
X4774313Y-8507159D02*
X4798504Y-8410397D01*
X4798504Y-8410397D02*
X4846885Y-8362016D01*
X4846885Y-8362016D02*
X4895266Y-8337826D01*
X5330694Y-8337826D02*
X5330694Y-8749064D01*
X5330694Y-8749064D02*
X5354884Y-8797445D01*
X5354884Y-8797445D02*
X5379075Y-8821636D01*
X5379075Y-8821636D02*
X5427456Y-8845826D01*
X5427456Y-8845826D02*
X5524218Y-8845826D01*
X5524218Y-8845826D02*
X5572599Y-8821636D01*
X5572599Y-8821636D02*
X5596789Y-8797445D01*
X5596789Y-8797445D02*
X5620980Y-8749064D01*
X5620980Y-8749064D02*
X5620980Y-8337826D01*
X5790312Y-8337826D02*
X6080598Y-8337826D01*
X5935455Y-8845826D02*
X5935455Y-8337826D01*
X6249932Y-8845826D02*
X6249932Y-8337826D01*
X6249932Y-8337826D02*
X6443456Y-8337826D01*
X6443456Y-8337826D02*
X6491837Y-8362016D01*
X6491837Y-8362016D02*
X6516027Y-8386207D01*
X6516027Y-8386207D02*
X6540218Y-8434588D01*
X6540218Y-8434588D02*
X6540218Y-8507159D01*
X6540218Y-8507159D02*
X6516027Y-8555540D01*
X6516027Y-8555540D02*
X6491837Y-8579731D01*
X6491837Y-8579731D02*
X6443456Y-8603921D01*
X6443456Y-8603921D02*
X6249932Y-8603921D01*
X6757932Y-8337826D02*
X6757932Y-8749064D01*
X6757932Y-8749064D02*
X6782122Y-8797445D01*
X6782122Y-8797445D02*
X6806313Y-8821636D01*
X6806313Y-8821636D02*
X6854694Y-8845826D01*
X6854694Y-8845826D02*
X6951456Y-8845826D01*
X6951456Y-8845826D02*
X6999837Y-8821636D01*
X6999837Y-8821636D02*
X7024027Y-8797445D01*
X7024027Y-8797445D02*
X7048218Y-8749064D01*
X7048218Y-8749064D02*
X7048218Y-8337826D01*
X7217550Y-8337826D02*
X7507836Y-8337826D01*
X7362693Y-8845826D02*
X7362693Y-8337826D01*
X8160980Y-8337826D02*
X8257742Y-8337826D01*
X8257742Y-8337826D02*
X8306123Y-8362016D01*
X8306123Y-8362016D02*
X8354504Y-8410397D01*
X8354504Y-8410397D02*
X8378694Y-8507159D01*
X8378694Y-8507159D02*
X8378694Y-8676493D01*
X8378694Y-8676493D02*
X8354504Y-8773255D01*
X8354504Y-8773255D02*
X8306123Y-8821636D01*
X8306123Y-8821636D02*
X8257742Y-8845826D01*
X8257742Y-8845826D02*
X8160980Y-8845826D01*
X8160980Y-8845826D02*
X8112599Y-8821636D01*
X8112599Y-8821636D02*
X8064218Y-8773255D01*
X8064218Y-8773255D02*
X8040027Y-8676493D01*
X8040027Y-8676493D02*
X8040027Y-8507159D01*
X8040027Y-8507159D02*
X8064218Y-8410397D01*
X8064218Y-8410397D02*
X8112599Y-8362016D01*
X8112599Y-8362016D02*
X8160980Y-8337826D01*
X8596408Y-8845826D02*
X8596408Y-8337826D01*
X8596408Y-8337826D02*
X8886694Y-8845826D01*
X8886694Y-8845826D02*
X8886694Y-8337826D01*
X9370503Y-8845826D02*
X9128598Y-8845826D01*
X9128598Y-8845826D02*
X9128598Y-8337826D01*
X9636598Y-8603921D02*
X9636598Y-8845826D01*
X9467264Y-8337826D02*
X9636598Y-8603921D01*
X9636598Y-8603921D02*
X9805931Y-8337826D01*
X74119713Y-33196927D02*
X74143904Y-33172736D01*
X74143904Y-33172736D02*
X74192285Y-33148546D01*
X74192285Y-33148546D02*
X74313237Y-33148546D01*
X74313237Y-33148546D02*
X74361618Y-33172736D01*
X74361618Y-33172736D02*
X74385809Y-33196927D01*
X74385809Y-33196927D02*
X74409999Y-33245308D01*
X74409999Y-33245308D02*
X74409999Y-33293689D01*
X74409999Y-33293689D02*
X74385809Y-33366260D01*
X74385809Y-33366260D02*
X74095523Y-33656546D01*
X74095523Y-33656546D02*
X74409999Y-33656546D01*
X74603523Y-33196927D02*
X74627714Y-33172736D01*
X74627714Y-33172736D02*
X74676095Y-33148546D01*
X74676095Y-33148546D02*
X74797047Y-33148546D01*
X74797047Y-33148546D02*
X74845428Y-33172736D01*
X74845428Y-33172736D02*
X74869619Y-33196927D01*
X74869619Y-33196927D02*
X74893809Y-33245308D01*
X74893809Y-33245308D02*
X74893809Y-33293689D01*
X74893809Y-33293689D02*
X74869619Y-33366260D01*
X74869619Y-33366260D02*
X74579333Y-33656546D01*
X74579333Y-33656546D02*
X74893809Y-33656546D01*
X74143904Y-34474426D02*
X74143904Y-33966426D01*
X74143904Y-33966426D02*
X74337428Y-33966426D01*
X74337428Y-33966426D02*
X74385809Y-33990616D01*
X74385809Y-33990616D02*
X74409999Y-34014807D01*
X74409999Y-34014807D02*
X74434190Y-34063188D01*
X74434190Y-34063188D02*
X74434190Y-34135759D01*
X74434190Y-34135759D02*
X74409999Y-34184140D01*
X74409999Y-34184140D02*
X74385809Y-34208331D01*
X74385809Y-34208331D02*
X74337428Y-34232521D01*
X74337428Y-34232521D02*
X74143904Y-34232521D01*
X74942190Y-34426045D02*
X74917999Y-34450236D01*
X74917999Y-34450236D02*
X74845428Y-34474426D01*
X74845428Y-34474426D02*
X74797047Y-34474426D01*
X74797047Y-34474426D02*
X74724475Y-34450236D01*
X74724475Y-34450236D02*
X74676094Y-34401855D01*
X74676094Y-34401855D02*
X74651904Y-34353474D01*
X74651904Y-34353474D02*
X74627713Y-34256712D01*
X74627713Y-34256712D02*
X74627713Y-34184140D01*
X74627713Y-34184140D02*
X74651904Y-34087378D01*
X74651904Y-34087378D02*
X74676094Y-34038997D01*
X74676094Y-34038997D02*
X74724475Y-33990616D01*
X74724475Y-33990616D02*
X74797047Y-33966426D01*
X74797047Y-33966426D02*
X74845428Y-33966426D01*
X74845428Y-33966426D02*
X74917999Y-33990616D01*
X74917999Y-33990616D02*
X74942190Y-34014807D01*
X75377618Y-33966426D02*
X75280856Y-33966426D01*
X75280856Y-33966426D02*
X75232475Y-33990616D01*
X75232475Y-33990616D02*
X75208285Y-34014807D01*
X75208285Y-34014807D02*
X75159904Y-34087378D01*
X75159904Y-34087378D02*
X75135713Y-34184140D01*
X75135713Y-34184140D02*
X75135713Y-34377664D01*
X75135713Y-34377664D02*
X75159904Y-34426045D01*
X75159904Y-34426045D02*
X75184094Y-34450236D01*
X75184094Y-34450236D02*
X75232475Y-34474426D01*
X75232475Y-34474426D02*
X75329237Y-34474426D01*
X75329237Y-34474426D02*
X75377618Y-34450236D01*
X75377618Y-34450236D02*
X75401809Y-34426045D01*
X75401809Y-34426045D02*
X75425999Y-34377664D01*
X75425999Y-34377664D02*
X75425999Y-34256712D01*
X75425999Y-34256712D02*
X75401809Y-34208331D01*
X75401809Y-34208331D02*
X75377618Y-34184140D01*
X75377618Y-34184140D02*
X75329237Y-34159950D01*
X75329237Y-34159950D02*
X75232475Y-34159950D01*
X75232475Y-34159950D02*
X75184094Y-34184140D01*
X75184094Y-34184140D02*
X75159904Y-34208331D01*
X75159904Y-34208331D02*
X75135713Y-34256712D01*
X74119713Y-38276927D02*
X74143904Y-38252736D01*
X74143904Y-38252736D02*
X74192285Y-38228546D01*
X74192285Y-38228546D02*
X74313237Y-38228546D01*
X74313237Y-38228546D02*
X74361618Y-38252736D01*
X74361618Y-38252736D02*
X74385809Y-38276927D01*
X74385809Y-38276927D02*
X74409999Y-38325308D01*
X74409999Y-38325308D02*
X74409999Y-38373689D01*
X74409999Y-38373689D02*
X74385809Y-38446260D01*
X74385809Y-38446260D02*
X74095523Y-38736546D01*
X74095523Y-38736546D02*
X74409999Y-38736546D01*
X74724476Y-38228546D02*
X74772857Y-38228546D01*
X74772857Y-38228546D02*
X74821238Y-38252736D01*
X74821238Y-38252736D02*
X74845428Y-38276927D01*
X74845428Y-38276927D02*
X74869619Y-38325308D01*
X74869619Y-38325308D02*
X74893809Y-38422070D01*
X74893809Y-38422070D02*
X74893809Y-38543022D01*
X74893809Y-38543022D02*
X74869619Y-38639784D01*
X74869619Y-38639784D02*
X74845428Y-38688165D01*
X74845428Y-38688165D02*
X74821238Y-38712356D01*
X74821238Y-38712356D02*
X74772857Y-38736546D01*
X74772857Y-38736546D02*
X74724476Y-38736546D01*
X74724476Y-38736546D02*
X74676095Y-38712356D01*
X74676095Y-38712356D02*
X74651904Y-38688165D01*
X74651904Y-38688165D02*
X74627714Y-38639784D01*
X74627714Y-38639784D02*
X74603523Y-38543022D01*
X74603523Y-38543022D02*
X74603523Y-38422070D01*
X74603523Y-38422070D02*
X74627714Y-38325308D01*
X74627714Y-38325308D02*
X74651904Y-38276927D01*
X74651904Y-38276927D02*
X74676095Y-38252736D01*
X74676095Y-38252736D02*
X74724476Y-38228546D01*
X74143904Y-39554426D02*
X74143904Y-39046426D01*
X74143904Y-39046426D02*
X74337428Y-39046426D01*
X74337428Y-39046426D02*
X74385809Y-39070616D01*
X74385809Y-39070616D02*
X74409999Y-39094807D01*
X74409999Y-39094807D02*
X74434190Y-39143188D01*
X74434190Y-39143188D02*
X74434190Y-39215759D01*
X74434190Y-39215759D02*
X74409999Y-39264140D01*
X74409999Y-39264140D02*
X74385809Y-39288331D01*
X74385809Y-39288331D02*
X74337428Y-39312521D01*
X74337428Y-39312521D02*
X74143904Y-39312521D01*
X74942190Y-39506045D02*
X74917999Y-39530236D01*
X74917999Y-39530236D02*
X74845428Y-39554426D01*
X74845428Y-39554426D02*
X74797047Y-39554426D01*
X74797047Y-39554426D02*
X74724475Y-39530236D01*
X74724475Y-39530236D02*
X74676094Y-39481855D01*
X74676094Y-39481855D02*
X74651904Y-39433474D01*
X74651904Y-39433474D02*
X74627713Y-39336712D01*
X74627713Y-39336712D02*
X74627713Y-39264140D01*
X74627713Y-39264140D02*
X74651904Y-39167378D01*
X74651904Y-39167378D02*
X74676094Y-39118997D01*
X74676094Y-39118997D02*
X74724475Y-39070616D01*
X74724475Y-39070616D02*
X74797047Y-39046426D01*
X74797047Y-39046426D02*
X74845428Y-39046426D01*
X74845428Y-39046426D02*
X74917999Y-39070616D01*
X74917999Y-39070616D02*
X74942190Y-39094807D01*
X75377618Y-39215759D02*
X75377618Y-39554426D01*
X75256666Y-39022236D02*
X75135713Y-39385093D01*
X75135713Y-39385093D02*
X75450190Y-39385093D01*
D10*
X56026207Y-32540580D02*
X55978588Y-32588200D01*
X55978588Y-32588200D02*
X55835731Y-32635819D01*
X55835731Y-32635819D02*
X55740493Y-32635819D01*
X55740493Y-32635819D02*
X55597636Y-32588200D01*
X55597636Y-32588200D02*
X55502398Y-32492961D01*
X55502398Y-32492961D02*
X55454779Y-32397723D01*
X55454779Y-32397723D02*
X55407160Y-32207247D01*
X55407160Y-32207247D02*
X55407160Y-32064390D01*
X55407160Y-32064390D02*
X55454779Y-31873914D01*
X55454779Y-31873914D02*
X55502398Y-31778676D01*
X55502398Y-31778676D02*
X55597636Y-31683438D01*
X55597636Y-31683438D02*
X55740493Y-31635819D01*
X55740493Y-31635819D02*
X55835731Y-31635819D01*
X55835731Y-31635819D02*
X55978588Y-31683438D01*
X55978588Y-31683438D02*
X56026207Y-31731057D01*
X56454779Y-32635819D02*
X56454779Y-31635819D01*
X56454779Y-31635819D02*
X56835731Y-31635819D01*
X56835731Y-31635819D02*
X56930969Y-31683438D01*
X56930969Y-31683438D02*
X56978588Y-31731057D01*
X56978588Y-31731057D02*
X57026207Y-31826295D01*
X57026207Y-31826295D02*
X57026207Y-31969152D01*
X57026207Y-31969152D02*
X56978588Y-32064390D01*
X56978588Y-32064390D02*
X56930969Y-32112009D01*
X56930969Y-32112009D02*
X56835731Y-32159628D01*
X56835731Y-32159628D02*
X56454779Y-32159628D01*
X57407160Y-31731057D02*
X57454779Y-31683438D01*
X57454779Y-31683438D02*
X57550017Y-31635819D01*
X57550017Y-31635819D02*
X57788112Y-31635819D01*
X57788112Y-31635819D02*
X57883350Y-31683438D01*
X57883350Y-31683438D02*
X57930969Y-31731057D01*
X57930969Y-31731057D02*
X57978588Y-31826295D01*
X57978588Y-31826295D02*
X57978588Y-31921533D01*
X57978588Y-31921533D02*
X57930969Y-32064390D01*
X57930969Y-32064390D02*
X57359541Y-32635819D01*
X57359541Y-32635819D02*
X57978588Y-32635819D01*
X58930969Y-32635819D02*
X58359541Y-32635819D01*
X58645255Y-32635819D02*
X58645255Y-31635819D01*
X58645255Y-31635819D02*
X58550017Y-31778676D01*
X58550017Y-31778676D02*
X58454779Y-31873914D01*
X58454779Y-31873914D02*
X58359541Y-31921533D01*
X59550017Y-31635819D02*
X59645255Y-31635819D01*
X59645255Y-31635819D02*
X59740493Y-31683438D01*
X59740493Y-31683438D02*
X59788112Y-31731057D01*
X59788112Y-31731057D02*
X59835731Y-31826295D01*
X59835731Y-31826295D02*
X59883350Y-32016771D01*
X59883350Y-32016771D02*
X59883350Y-32254866D01*
X59883350Y-32254866D02*
X59835731Y-32445342D01*
X59835731Y-32445342D02*
X59788112Y-32540580D01*
X59788112Y-32540580D02*
X59740493Y-32588200D01*
X59740493Y-32588200D02*
X59645255Y-32635819D01*
X59645255Y-32635819D02*
X59550017Y-32635819D01*
X59550017Y-32635819D02*
X59454779Y-32588200D01*
X59454779Y-32588200D02*
X59407160Y-32540580D01*
X59407160Y-32540580D02*
X59359541Y-32445342D01*
X59359541Y-32445342D02*
X59311922Y-32254866D01*
X59311922Y-32254866D02*
X59311922Y-32016771D01*
X59311922Y-32016771D02*
X59359541Y-31826295D01*
X59359541Y-31826295D02*
X59407160Y-31731057D01*
X59407160Y-31731057D02*
X59454779Y-31683438D01*
X59454779Y-31683438D02*
X59550017Y-31635819D01*
X60264303Y-31731057D02*
X60311922Y-31683438D01*
X60311922Y-31683438D02*
X60407160Y-31635819D01*
X60407160Y-31635819D02*
X60645255Y-31635819D01*
X60645255Y-31635819D02*
X60740493Y-31683438D01*
X60740493Y-31683438D02*
X60788112Y-31731057D01*
X60788112Y-31731057D02*
X60835731Y-31826295D01*
X60835731Y-31826295D02*
X60835731Y-31921533D01*
X60835731Y-31921533D02*
X60788112Y-32064390D01*
X60788112Y-32064390D02*
X60216684Y-32635819D01*
X60216684Y-32635819D02*
X60835731Y-32635819D01*
X62026208Y-32635819D02*
X62026208Y-31635819D01*
X62026208Y-31635819D02*
X62359541Y-32350104D01*
X62359541Y-32350104D02*
X62692874Y-31635819D01*
X62692874Y-31635819D02*
X62692874Y-32635819D01*
X63311922Y-32635819D02*
X63216684Y-32588200D01*
X63216684Y-32588200D02*
X63169065Y-32540580D01*
X63169065Y-32540580D02*
X63121446Y-32445342D01*
X63121446Y-32445342D02*
X63121446Y-32159628D01*
X63121446Y-32159628D02*
X63169065Y-32064390D01*
X63169065Y-32064390D02*
X63216684Y-32016771D01*
X63216684Y-32016771D02*
X63311922Y-31969152D01*
X63311922Y-31969152D02*
X63454779Y-31969152D01*
X63454779Y-31969152D02*
X63550017Y-32016771D01*
X63550017Y-32016771D02*
X63597636Y-32064390D01*
X63597636Y-32064390D02*
X63645255Y-32159628D01*
X63645255Y-32159628D02*
X63645255Y-32445342D01*
X63645255Y-32445342D02*
X63597636Y-32540580D01*
X63597636Y-32540580D02*
X63550017Y-32588200D01*
X63550017Y-32588200D02*
X63454779Y-32635819D01*
X63454779Y-32635819D02*
X63311922Y-32635819D01*
X64502398Y-32635819D02*
X64502398Y-31635819D01*
X64502398Y-32588200D02*
X64407160Y-32635819D01*
X64407160Y-32635819D02*
X64216684Y-32635819D01*
X64216684Y-32635819D02*
X64121446Y-32588200D01*
X64121446Y-32588200D02*
X64073827Y-32540580D01*
X64073827Y-32540580D02*
X64026208Y-32445342D01*
X64026208Y-32445342D02*
X64026208Y-32159628D01*
X64026208Y-32159628D02*
X64073827Y-32064390D01*
X64073827Y-32064390D02*
X64121446Y-32016771D01*
X64121446Y-32016771D02*
X64216684Y-31969152D01*
X64216684Y-31969152D02*
X64407160Y-31969152D01*
X64407160Y-31969152D02*
X64502398Y-32016771D01*
X65407160Y-31969152D02*
X65407160Y-32635819D01*
X64978589Y-31969152D02*
X64978589Y-32492961D01*
X64978589Y-32492961D02*
X65026208Y-32588200D01*
X65026208Y-32588200D02*
X65121446Y-32635819D01*
X65121446Y-32635819D02*
X65264303Y-32635819D01*
X65264303Y-32635819D02*
X65359541Y-32588200D01*
X65359541Y-32588200D02*
X65407160Y-32540580D01*
X66026208Y-32635819D02*
X65930970Y-32588200D01*
X65930970Y-32588200D02*
X65883351Y-32492961D01*
X65883351Y-32492961D02*
X65883351Y-31635819D01*
X66788113Y-32588200D02*
X66692875Y-32635819D01*
X66692875Y-32635819D02*
X66502399Y-32635819D01*
X66502399Y-32635819D02*
X66407161Y-32588200D01*
X66407161Y-32588200D02*
X66359542Y-32492961D01*
X66359542Y-32492961D02*
X66359542Y-32112009D01*
X66359542Y-32112009D02*
X66407161Y-32016771D01*
X66407161Y-32016771D02*
X66502399Y-31969152D01*
X66502399Y-31969152D02*
X66692875Y-31969152D01*
X66692875Y-31969152D02*
X66788113Y-32016771D01*
X66788113Y-32016771D02*
X66835732Y-32112009D01*
X66835732Y-32112009D02*
X66835732Y-32207247D01*
X66835732Y-32207247D02*
X66359542Y-32302485D01*
D11*
X42693675Y-48358066D02*
X42403389Y-48358066D01*
X42548532Y-48358066D02*
X42548532Y-47850066D01*
X42548532Y-47850066D02*
X42500151Y-47922637D01*
X42500151Y-47922637D02*
X42451770Y-47971018D01*
X42451770Y-47971018D02*
X42403389Y-47995209D01*
X43129104Y-48019399D02*
X43129104Y-48358066D01*
X43008152Y-47825876D02*
X42887199Y-48188733D01*
X42887199Y-48188733D02*
X43201676Y-48188733D01*
X41895390Y-49175946D02*
X41895390Y-48667946D01*
X41895390Y-48667946D02*
X42088914Y-48667946D01*
X42088914Y-48667946D02*
X42137295Y-48692136D01*
X42137295Y-48692136D02*
X42161485Y-48716327D01*
X42161485Y-48716327D02*
X42185676Y-48764708D01*
X42185676Y-48764708D02*
X42185676Y-48837279D01*
X42185676Y-48837279D02*
X42161485Y-48885660D01*
X42161485Y-48885660D02*
X42137295Y-48909851D01*
X42137295Y-48909851D02*
X42088914Y-48934041D01*
X42088914Y-48934041D02*
X41895390Y-48934041D01*
X42403390Y-49175946D02*
X42403390Y-48667946D01*
X42403390Y-48667946D02*
X42524342Y-48667946D01*
X42524342Y-48667946D02*
X42596914Y-48692136D01*
X42596914Y-48692136D02*
X42645295Y-48740517D01*
X42645295Y-48740517D02*
X42669485Y-48788898D01*
X42669485Y-48788898D02*
X42693676Y-48885660D01*
X42693676Y-48885660D02*
X42693676Y-48958232D01*
X42693676Y-48958232D02*
X42669485Y-49054994D01*
X42669485Y-49054994D02*
X42645295Y-49103375D01*
X42645295Y-49103375D02*
X42596914Y-49151756D01*
X42596914Y-49151756D02*
X42524342Y-49175946D01*
X42524342Y-49175946D02*
X42403390Y-49175946D01*
X43129104Y-48667946D02*
X43032342Y-48667946D01*
X43032342Y-48667946D02*
X42983961Y-48692136D01*
X42983961Y-48692136D02*
X42959771Y-48716327D01*
X42959771Y-48716327D02*
X42911390Y-48788898D01*
X42911390Y-48788898D02*
X42887199Y-48885660D01*
X42887199Y-48885660D02*
X42887199Y-49079184D01*
X42887199Y-49079184D02*
X42911390Y-49127565D01*
X42911390Y-49127565D02*
X42935580Y-49151756D01*
X42935580Y-49151756D02*
X42983961Y-49175946D01*
X42983961Y-49175946D02*
X43080723Y-49175946D01*
X43080723Y-49175946D02*
X43129104Y-49151756D01*
X43129104Y-49151756D02*
X43153295Y-49127565D01*
X43153295Y-49127565D02*
X43177485Y-49079184D01*
X43177485Y-49079184D02*
X43177485Y-48958232D01*
X43177485Y-48958232D02*
X43153295Y-48909851D01*
X43153295Y-48909851D02*
X43129104Y-48885660D01*
X43129104Y-48885660D02*
X43080723Y-48861470D01*
X43080723Y-48861470D02*
X42983961Y-48861470D01*
X42983961Y-48861470D02*
X42935580Y-48885660D01*
X42935580Y-48885660D02*
X42911390Y-48909851D01*
X42911390Y-48909851D02*
X42887199Y-48958232D01*
X42258248Y-49993826D02*
X42016343Y-49993826D01*
X42016343Y-49993826D02*
X42016343Y-49485826D01*
X42427581Y-49727731D02*
X42596914Y-49727731D01*
X42669486Y-49993826D02*
X42427581Y-49993826D01*
X42427581Y-49993826D02*
X42427581Y-49485826D01*
X42427581Y-49485826D02*
X42669486Y-49485826D01*
X42887200Y-49993826D02*
X42887200Y-49485826D01*
X42887200Y-49485826D02*
X43008152Y-49485826D01*
X43008152Y-49485826D02*
X43080724Y-49510016D01*
X43080724Y-49510016D02*
X43129105Y-49558397D01*
X43129105Y-49558397D02*
X43153295Y-49606778D01*
X43153295Y-49606778D02*
X43177486Y-49703540D01*
X43177486Y-49703540D02*
X43177486Y-49776112D01*
X43177486Y-49776112D02*
X43153295Y-49872874D01*
X43153295Y-49872874D02*
X43129105Y-49921255D01*
X43129105Y-49921255D02*
X43080724Y-49969636D01*
X43080724Y-49969636D02*
X43008152Y-49993826D01*
X43008152Y-49993826D02*
X42887200Y-49993826D01*
X42693675Y-40738066D02*
X42403389Y-40738066D01*
X42548532Y-40738066D02*
X42548532Y-40230066D01*
X42548532Y-40230066D02*
X42500151Y-40302637D01*
X42500151Y-40302637D02*
X42451770Y-40351018D01*
X42451770Y-40351018D02*
X42403389Y-40375209D01*
X43008152Y-40230066D02*
X43056533Y-40230066D01*
X43056533Y-40230066D02*
X43104914Y-40254256D01*
X43104914Y-40254256D02*
X43129104Y-40278447D01*
X43129104Y-40278447D02*
X43153295Y-40326828D01*
X43153295Y-40326828D02*
X43177485Y-40423590D01*
X43177485Y-40423590D02*
X43177485Y-40544542D01*
X43177485Y-40544542D02*
X43153295Y-40641304D01*
X43153295Y-40641304D02*
X43129104Y-40689685D01*
X43129104Y-40689685D02*
X43104914Y-40713876D01*
X43104914Y-40713876D02*
X43056533Y-40738066D01*
X43056533Y-40738066D02*
X43008152Y-40738066D01*
X43008152Y-40738066D02*
X42959771Y-40713876D01*
X42959771Y-40713876D02*
X42935580Y-40689685D01*
X42935580Y-40689685D02*
X42911390Y-40641304D01*
X42911390Y-40641304D02*
X42887199Y-40544542D01*
X42887199Y-40544542D02*
X42887199Y-40423590D01*
X42887199Y-40423590D02*
X42911390Y-40326828D01*
X42911390Y-40326828D02*
X42935580Y-40278447D01*
X42935580Y-40278447D02*
X42959771Y-40254256D01*
X42959771Y-40254256D02*
X43008152Y-40230066D01*
X41895390Y-41555946D02*
X41895390Y-41047946D01*
X41895390Y-41047946D02*
X42088914Y-41047946D01*
X42088914Y-41047946D02*
X42137295Y-41072136D01*
X42137295Y-41072136D02*
X42161485Y-41096327D01*
X42161485Y-41096327D02*
X42185676Y-41144708D01*
X42185676Y-41144708D02*
X42185676Y-41217279D01*
X42185676Y-41217279D02*
X42161485Y-41265660D01*
X42161485Y-41265660D02*
X42137295Y-41289851D01*
X42137295Y-41289851D02*
X42088914Y-41314041D01*
X42088914Y-41314041D02*
X41895390Y-41314041D01*
X42403390Y-41555946D02*
X42403390Y-41047946D01*
X42403390Y-41047946D02*
X42524342Y-41047946D01*
X42524342Y-41047946D02*
X42596914Y-41072136D01*
X42596914Y-41072136D02*
X42645295Y-41120517D01*
X42645295Y-41120517D02*
X42669485Y-41168898D01*
X42669485Y-41168898D02*
X42693676Y-41265660D01*
X42693676Y-41265660D02*
X42693676Y-41338232D01*
X42693676Y-41338232D02*
X42669485Y-41434994D01*
X42669485Y-41434994D02*
X42645295Y-41483375D01*
X42645295Y-41483375D02*
X42596914Y-41531756D01*
X42596914Y-41531756D02*
X42524342Y-41555946D01*
X42524342Y-41555946D02*
X42403390Y-41555946D01*
X42887199Y-41096327D02*
X42911390Y-41072136D01*
X42911390Y-41072136D02*
X42959771Y-41047946D01*
X42959771Y-41047946D02*
X43080723Y-41047946D01*
X43080723Y-41047946D02*
X43129104Y-41072136D01*
X43129104Y-41072136D02*
X43153295Y-41096327D01*
X43153295Y-41096327D02*
X43177485Y-41144708D01*
X43177485Y-41144708D02*
X43177485Y-41193089D01*
X43177485Y-41193089D02*
X43153295Y-41265660D01*
X43153295Y-41265660D02*
X42863009Y-41555946D01*
X42863009Y-41555946D02*
X43177485Y-41555946D01*
X42693676Y-42373826D02*
X42524342Y-42131921D01*
X42403390Y-42373826D02*
X42403390Y-41865826D01*
X42403390Y-41865826D02*
X42596914Y-41865826D01*
X42596914Y-41865826D02*
X42645295Y-41890016D01*
X42645295Y-41890016D02*
X42669485Y-41914207D01*
X42669485Y-41914207D02*
X42693676Y-41962588D01*
X42693676Y-41962588D02*
X42693676Y-42035159D01*
X42693676Y-42035159D02*
X42669485Y-42083540D01*
X42669485Y-42083540D02*
X42645295Y-42107731D01*
X42645295Y-42107731D02*
X42596914Y-42131921D01*
X42596914Y-42131921D02*
X42403390Y-42131921D01*
X42863009Y-41865826D02*
X43201676Y-42373826D01*
X43201676Y-41865826D02*
X42863009Y-42373826D01*
X30943416Y-4634000D02*
X30919226Y-4682381D01*
X30919226Y-4682381D02*
X30919226Y-4754952D01*
X30919226Y-4754952D02*
X30943416Y-4827524D01*
X30943416Y-4827524D02*
X30991797Y-4875905D01*
X30991797Y-4875905D02*
X31040178Y-4900095D01*
X31040178Y-4900095D02*
X31136940Y-4924286D01*
X31136940Y-4924286D02*
X31209512Y-4924286D01*
X31209512Y-4924286D02*
X31306274Y-4900095D01*
X31306274Y-4900095D02*
X31354655Y-4875905D01*
X31354655Y-4875905D02*
X31403036Y-4827524D01*
X31403036Y-4827524D02*
X31427226Y-4754952D01*
X31427226Y-4754952D02*
X31427226Y-4706571D01*
X31427226Y-4706571D02*
X31403036Y-4634000D01*
X31403036Y-4634000D02*
X31378845Y-4609809D01*
X31378845Y-4609809D02*
X31209512Y-4609809D01*
X31209512Y-4609809D02*
X31209512Y-4706571D01*
X31427226Y-4392095D02*
X30919226Y-4392095D01*
X30919226Y-4392095D02*
X31427226Y-4101809D01*
X31427226Y-4101809D02*
X30919226Y-4101809D01*
X31427226Y-3859905D02*
X30919226Y-3859905D01*
X30919226Y-3859905D02*
X30919226Y-3738953D01*
X30919226Y-3738953D02*
X30943416Y-3666381D01*
X30943416Y-3666381D02*
X30991797Y-3618000D01*
X30991797Y-3618000D02*
X31040178Y-3593810D01*
X31040178Y-3593810D02*
X31136940Y-3569619D01*
X31136940Y-3569619D02*
X31209512Y-3569619D01*
X31209512Y-3569619D02*
X31306274Y-3593810D01*
X31306274Y-3593810D02*
X31354655Y-3618000D01*
X31354655Y-3618000D02*
X31403036Y-3666381D01*
X31403036Y-3666381D02*
X31427226Y-3738953D01*
X31427226Y-3738953D02*
X31427226Y-3859905D01*
D10*
X66710839Y-915895D02*
X66234649Y-915895D01*
X66806077Y-630180D02*
X66472744Y-1630180D01*
X66472744Y-1630180D02*
X66139411Y-630180D01*
X65948934Y-1630180D02*
X65615601Y-630180D01*
X65615601Y-630180D02*
X65282268Y-1630180D01*
X64377506Y-630180D02*
X64710839Y-1106371D01*
X64948934Y-630180D02*
X64948934Y-1630180D01*
X64948934Y-1630180D02*
X64567982Y-1630180D01*
X64567982Y-1630180D02*
X64472744Y-1582561D01*
X64472744Y-1582561D02*
X64425125Y-1534942D01*
X64425125Y-1534942D02*
X64377506Y-1439704D01*
X64377506Y-1439704D02*
X64377506Y-1296847D01*
X64377506Y-1296847D02*
X64425125Y-1201609D01*
X64425125Y-1201609D02*
X64472744Y-1153990D01*
X64472744Y-1153990D02*
X64567982Y-1106371D01*
X64567982Y-1106371D02*
X64948934Y-1106371D01*
X63948934Y-1011133D02*
X63187030Y-1011133D01*
X62758458Y-677800D02*
X62615601Y-630180D01*
X62615601Y-630180D02*
X62377506Y-630180D01*
X62377506Y-630180D02*
X62282268Y-677800D01*
X62282268Y-677800D02*
X62234649Y-725419D01*
X62234649Y-725419D02*
X62187030Y-820657D01*
X62187030Y-820657D02*
X62187030Y-915895D01*
X62187030Y-915895D02*
X62234649Y-1011133D01*
X62234649Y-1011133D02*
X62282268Y-1058752D01*
X62282268Y-1058752D02*
X62377506Y-1106371D01*
X62377506Y-1106371D02*
X62567982Y-1153990D01*
X62567982Y-1153990D02*
X62663220Y-1201609D01*
X62663220Y-1201609D02*
X62710839Y-1249228D01*
X62710839Y-1249228D02*
X62758458Y-1344466D01*
X62758458Y-1344466D02*
X62758458Y-1439704D01*
X62758458Y-1439704D02*
X62710839Y-1534942D01*
X62710839Y-1534942D02*
X62663220Y-1582561D01*
X62663220Y-1582561D02*
X62567982Y-1630180D01*
X62567982Y-1630180D02*
X62329887Y-1630180D01*
X62329887Y-1630180D02*
X62187030Y-1582561D01*
X61425125Y-1153990D02*
X61282268Y-1106371D01*
X61282268Y-1106371D02*
X61234649Y-1058752D01*
X61234649Y-1058752D02*
X61187030Y-963514D01*
X61187030Y-963514D02*
X61187030Y-820657D01*
X61187030Y-820657D02*
X61234649Y-725419D01*
X61234649Y-725419D02*
X61282268Y-677800D01*
X61282268Y-677800D02*
X61377506Y-630180D01*
X61377506Y-630180D02*
X61758458Y-630180D01*
X61758458Y-630180D02*
X61758458Y-1630180D01*
X61758458Y-1630180D02*
X61425125Y-1630180D01*
X61425125Y-1630180D02*
X61329887Y-1582561D01*
X61329887Y-1582561D02*
X61282268Y-1534942D01*
X61282268Y-1534942D02*
X61234649Y-1439704D01*
X61234649Y-1439704D02*
X61234649Y-1344466D01*
X61234649Y-1344466D02*
X61282268Y-1249228D01*
X61282268Y-1249228D02*
X61329887Y-1201609D01*
X61329887Y-1201609D02*
X61425125Y-1153990D01*
X61425125Y-1153990D02*
X61758458Y-1153990D01*
X60187030Y-725419D02*
X60234649Y-677800D01*
X60234649Y-677800D02*
X60377506Y-630180D01*
X60377506Y-630180D02*
X60472744Y-630180D01*
X60472744Y-630180D02*
X60615601Y-677800D01*
X60615601Y-677800D02*
X60710839Y-773038D01*
X60710839Y-773038D02*
X60758458Y-868276D01*
X60758458Y-868276D02*
X60806077Y-1058752D01*
X60806077Y-1058752D02*
X60806077Y-1201609D01*
X60806077Y-1201609D02*
X60758458Y-1392085D01*
X60758458Y-1392085D02*
X60710839Y-1487323D01*
X60710839Y-1487323D02*
X60615601Y-1582561D01*
X60615601Y-1582561D02*
X60472744Y-1630180D01*
X60472744Y-1630180D02*
X60377506Y-1630180D01*
X60377506Y-1630180D02*
X60234649Y-1582561D01*
X60234649Y-1582561D02*
X60187030Y-1534942D01*
X59044172Y-677800D02*
X58901315Y-630180D01*
X58901315Y-630180D02*
X58663220Y-630180D01*
X58663220Y-630180D02*
X58567982Y-677800D01*
X58567982Y-677800D02*
X58520363Y-725419D01*
X58520363Y-725419D02*
X58472744Y-820657D01*
X58472744Y-820657D02*
X58472744Y-915895D01*
X58472744Y-915895D02*
X58520363Y-1011133D01*
X58520363Y-1011133D02*
X58567982Y-1058752D01*
X58567982Y-1058752D02*
X58663220Y-1106371D01*
X58663220Y-1106371D02*
X58853696Y-1153990D01*
X58853696Y-1153990D02*
X58948934Y-1201609D01*
X58948934Y-1201609D02*
X58996553Y-1249228D01*
X58996553Y-1249228D02*
X59044172Y-1344466D01*
X59044172Y-1344466D02*
X59044172Y-1439704D01*
X59044172Y-1439704D02*
X58996553Y-1534942D01*
X58996553Y-1534942D02*
X58948934Y-1582561D01*
X58948934Y-1582561D02*
X58853696Y-1630180D01*
X58853696Y-1630180D02*
X58615601Y-1630180D01*
X58615601Y-1630180D02*
X58472744Y-1582561D01*
X58044172Y-1153990D02*
X57710839Y-1153990D01*
X57567982Y-630180D02*
X58044172Y-630180D01*
X58044172Y-630180D02*
X58044172Y-1630180D01*
X58044172Y-1630180D02*
X57567982Y-1630180D01*
X56567982Y-630180D02*
X56901315Y-1106371D01*
X57139410Y-630180D02*
X57139410Y-1630180D01*
X57139410Y-1630180D02*
X56758458Y-1630180D01*
X56758458Y-1630180D02*
X56663220Y-1582561D01*
X56663220Y-1582561D02*
X56615601Y-1534942D01*
X56615601Y-1534942D02*
X56567982Y-1439704D01*
X56567982Y-1439704D02*
X56567982Y-1296847D01*
X56567982Y-1296847D02*
X56615601Y-1201609D01*
X56615601Y-1201609D02*
X56663220Y-1153990D01*
X56663220Y-1153990D02*
X56758458Y-1106371D01*
X56758458Y-1106371D02*
X57139410Y-1106371D01*
X56139410Y-630180D02*
X56139410Y-1630180D01*
X55710839Y-915895D02*
X55234649Y-915895D01*
X55806077Y-630180D02*
X55472744Y-1630180D01*
X55472744Y-1630180D02*
X55139411Y-630180D01*
X54329887Y-630180D02*
X54806077Y-630180D01*
X54806077Y-630180D02*
X54806077Y-1630180D01*
X53234648Y-1630180D02*
X53234648Y-820657D01*
X53234648Y-820657D02*
X53187029Y-725419D01*
X53187029Y-725419D02*
X53139410Y-677800D01*
X53139410Y-677800D02*
X53044172Y-630180D01*
X53044172Y-630180D02*
X52853696Y-630180D01*
X52853696Y-630180D02*
X52758458Y-677800D01*
X52758458Y-677800D02*
X52710839Y-725419D01*
X52710839Y-725419D02*
X52663220Y-820657D01*
X52663220Y-820657D02*
X52663220Y-1630180D01*
X52234648Y-677800D02*
X52091791Y-630180D01*
X52091791Y-630180D02*
X51853696Y-630180D01*
X51853696Y-630180D02*
X51758458Y-677800D01*
X51758458Y-677800D02*
X51710839Y-725419D01*
X51710839Y-725419D02*
X51663220Y-820657D01*
X51663220Y-820657D02*
X51663220Y-915895D01*
X51663220Y-915895D02*
X51710839Y-1011133D01*
X51710839Y-1011133D02*
X51758458Y-1058752D01*
X51758458Y-1058752D02*
X51853696Y-1106371D01*
X51853696Y-1106371D02*
X52044172Y-1153990D01*
X52044172Y-1153990D02*
X52139410Y-1201609D01*
X52139410Y-1201609D02*
X52187029Y-1249228D01*
X52187029Y-1249228D02*
X52234648Y-1344466D01*
X52234648Y-1344466D02*
X52234648Y-1439704D01*
X52234648Y-1439704D02*
X52187029Y-1534942D01*
X52187029Y-1534942D02*
X52139410Y-1582561D01*
X52139410Y-1582561D02*
X52044172Y-1630180D01*
X52044172Y-1630180D02*
X51806077Y-1630180D01*
X51806077Y-1630180D02*
X51663220Y-1582561D01*
X50901315Y-1153990D02*
X50758458Y-1106371D01*
X50758458Y-1106371D02*
X50710839Y-1058752D01*
X50710839Y-1058752D02*
X50663220Y-963514D01*
X50663220Y-963514D02*
X50663220Y-820657D01*
X50663220Y-820657D02*
X50710839Y-725419D01*
X50710839Y-725419D02*
X50758458Y-677800D01*
X50758458Y-677800D02*
X50853696Y-630180D01*
X50853696Y-630180D02*
X51234648Y-630180D01*
X51234648Y-630180D02*
X51234648Y-1630180D01*
X51234648Y-1630180D02*
X50901315Y-1630180D01*
X50901315Y-1630180D02*
X50806077Y-1582561D01*
X50806077Y-1582561D02*
X50758458Y-1534942D01*
X50758458Y-1534942D02*
X50710839Y-1439704D01*
X50710839Y-1439704D02*
X50710839Y-1344466D01*
X50710839Y-1344466D02*
X50758458Y-1249228D01*
X50758458Y-1249228D02*
X50806077Y-1201609D01*
X50806077Y-1201609D02*
X50901315Y-1153990D01*
X50901315Y-1153990D02*
X51234648Y-1153990D01*
X49139410Y-1153990D02*
X48996553Y-1106371D01*
X48996553Y-1106371D02*
X48948934Y-1058752D01*
X48948934Y-1058752D02*
X48901315Y-963514D01*
X48901315Y-963514D02*
X48901315Y-820657D01*
X48901315Y-820657D02*
X48948934Y-725419D01*
X48948934Y-725419D02*
X48996553Y-677800D01*
X48996553Y-677800D02*
X49091791Y-630180D01*
X49091791Y-630180D02*
X49472743Y-630180D01*
X49472743Y-630180D02*
X49472743Y-1630180D01*
X49472743Y-1630180D02*
X49139410Y-1630180D01*
X49139410Y-1630180D02*
X49044172Y-1582561D01*
X49044172Y-1582561D02*
X48996553Y-1534942D01*
X48996553Y-1534942D02*
X48948934Y-1439704D01*
X48948934Y-1439704D02*
X48948934Y-1344466D01*
X48948934Y-1344466D02*
X48996553Y-1249228D01*
X48996553Y-1249228D02*
X49044172Y-1201609D01*
X49044172Y-1201609D02*
X49139410Y-1153990D01*
X49139410Y-1153990D02*
X49472743Y-1153990D01*
X48282267Y-1630180D02*
X48091791Y-1630180D01*
X48091791Y-1630180D02*
X47996553Y-1582561D01*
X47996553Y-1582561D02*
X47901315Y-1487323D01*
X47901315Y-1487323D02*
X47853696Y-1296847D01*
X47853696Y-1296847D02*
X47853696Y-963514D01*
X47853696Y-963514D02*
X47901315Y-773038D01*
X47901315Y-773038D02*
X47996553Y-677800D01*
X47996553Y-677800D02*
X48091791Y-630180D01*
X48091791Y-630180D02*
X48282267Y-630180D01*
X48282267Y-630180D02*
X48377505Y-677800D01*
X48377505Y-677800D02*
X48472743Y-773038D01*
X48472743Y-773038D02*
X48520362Y-963514D01*
X48520362Y-963514D02*
X48520362Y-1296847D01*
X48520362Y-1296847D02*
X48472743Y-1487323D01*
X48472743Y-1487323D02*
X48377505Y-1582561D01*
X48377505Y-1582561D02*
X48282267Y-1630180D01*
X47234648Y-1630180D02*
X47044172Y-1630180D01*
X47044172Y-1630180D02*
X46948934Y-1582561D01*
X46948934Y-1582561D02*
X46853696Y-1487323D01*
X46853696Y-1487323D02*
X46806077Y-1296847D01*
X46806077Y-1296847D02*
X46806077Y-963514D01*
X46806077Y-963514D02*
X46853696Y-773038D01*
X46853696Y-773038D02*
X46948934Y-677800D01*
X46948934Y-677800D02*
X47044172Y-630180D01*
X47044172Y-630180D02*
X47234648Y-630180D01*
X47234648Y-630180D02*
X47329886Y-677800D01*
X47329886Y-677800D02*
X47425124Y-773038D01*
X47425124Y-773038D02*
X47472743Y-963514D01*
X47472743Y-963514D02*
X47472743Y-1296847D01*
X47472743Y-1296847D02*
X47425124Y-1487323D01*
X47425124Y-1487323D02*
X47329886Y-1582561D01*
X47329886Y-1582561D02*
X47234648Y-1630180D01*
X46377505Y-630180D02*
X46377505Y-1630180D01*
X46377505Y-1630180D02*
X46044172Y-915895D01*
X46044172Y-915895D02*
X45710839Y-1630180D01*
X45710839Y-1630180D02*
X45710839Y-630180D01*
X45234648Y-1153990D02*
X44901315Y-1153990D01*
X44758458Y-630180D02*
X45234648Y-630180D01*
X45234648Y-630180D02*
X45234648Y-1630180D01*
X45234648Y-1630180D02*
X44758458Y-1630180D01*
X43758458Y-630180D02*
X44091791Y-1106371D01*
X44329886Y-630180D02*
X44329886Y-1630180D01*
X44329886Y-1630180D02*
X43948934Y-1630180D01*
X43948934Y-1630180D02*
X43853696Y-1582561D01*
X43853696Y-1582561D02*
X43806077Y-1534942D01*
X43806077Y-1534942D02*
X43758458Y-1439704D01*
X43758458Y-1439704D02*
X43758458Y-1296847D01*
X43758458Y-1296847D02*
X43806077Y-1201609D01*
X43806077Y-1201609D02*
X43853696Y-1153990D01*
X43853696Y-1153990D02*
X43948934Y-1106371D01*
X43948934Y-1106371D02*
X44329886Y-1106371D01*
X43377505Y-915895D02*
X42901315Y-915895D01*
X43472743Y-630180D02*
X43139410Y-1630180D01*
X43139410Y-1630180D02*
X42806077Y-630180D01*
X42472743Y-630180D02*
X42472743Y-1630180D01*
X42472743Y-1630180D02*
X41901315Y-630180D01*
X41901315Y-630180D02*
X41901315Y-1630180D01*
X40901315Y-1582561D02*
X40996553Y-1630180D01*
X40996553Y-1630180D02*
X41139410Y-1630180D01*
X41139410Y-1630180D02*
X41282267Y-1582561D01*
X41282267Y-1582561D02*
X41377505Y-1487323D01*
X41377505Y-1487323D02*
X41425124Y-1392085D01*
X41425124Y-1392085D02*
X41472743Y-1201609D01*
X41472743Y-1201609D02*
X41472743Y-1058752D01*
X41472743Y-1058752D02*
X41425124Y-868276D01*
X41425124Y-868276D02*
X41377505Y-773038D01*
X41377505Y-773038D02*
X41282267Y-677800D01*
X41282267Y-677800D02*
X41139410Y-630180D01*
X41139410Y-630180D02*
X41044172Y-630180D01*
X41044172Y-630180D02*
X40901315Y-677800D01*
X40901315Y-677800D02*
X40853696Y-725419D01*
X40853696Y-725419D02*
X40853696Y-1058752D01*
X40853696Y-1058752D02*
X41044172Y-1058752D01*
X39710838Y-677800D02*
X39567981Y-630180D01*
X39567981Y-630180D02*
X39329886Y-630180D01*
X39329886Y-630180D02*
X39234648Y-677800D01*
X39234648Y-677800D02*
X39187029Y-725419D01*
X39187029Y-725419D02*
X39139410Y-820657D01*
X39139410Y-820657D02*
X39139410Y-915895D01*
X39139410Y-915895D02*
X39187029Y-1011133D01*
X39187029Y-1011133D02*
X39234648Y-1058752D01*
X39234648Y-1058752D02*
X39329886Y-1106371D01*
X39329886Y-1106371D02*
X39520362Y-1153990D01*
X39520362Y-1153990D02*
X39615600Y-1201609D01*
X39615600Y-1201609D02*
X39663219Y-1249228D01*
X39663219Y-1249228D02*
X39710838Y-1344466D01*
X39710838Y-1344466D02*
X39710838Y-1439704D01*
X39710838Y-1439704D02*
X39663219Y-1534942D01*
X39663219Y-1534942D02*
X39615600Y-1582561D01*
X39615600Y-1582561D02*
X39520362Y-1630180D01*
X39520362Y-1630180D02*
X39282267Y-1630180D01*
X39282267Y-1630180D02*
X39139410Y-1582561D01*
X38710838Y-630180D02*
X38710838Y-1630180D01*
X38710838Y-1153990D02*
X38139410Y-1153990D01*
X38139410Y-630180D02*
X38139410Y-1630180D01*
X37663219Y-630180D02*
X37663219Y-1630180D01*
X37187029Y-1153990D02*
X36853696Y-1153990D01*
X36710839Y-630180D02*
X37187029Y-630180D01*
X37187029Y-630180D02*
X37187029Y-1630180D01*
X37187029Y-1630180D02*
X36710839Y-1630180D01*
X35806077Y-630180D02*
X36282267Y-630180D01*
X36282267Y-630180D02*
X36282267Y-1630180D01*
X35472743Y-630180D02*
X35472743Y-1630180D01*
X35472743Y-1630180D02*
X35234648Y-1630180D01*
X35234648Y-1630180D02*
X35091791Y-1582561D01*
X35091791Y-1582561D02*
X34996553Y-1487323D01*
X34996553Y-1487323D02*
X34948934Y-1392085D01*
X34948934Y-1392085D02*
X34901315Y-1201609D01*
X34901315Y-1201609D02*
X34901315Y-1058752D01*
X34901315Y-1058752D02*
X34948934Y-868276D01*
X34948934Y-868276D02*
X34996553Y-773038D01*
X34996553Y-773038D02*
X35091791Y-677800D01*
X35091791Y-677800D02*
X35234648Y-630180D01*
X35234648Y-630180D02*
X35472743Y-630180D01*
X33853695Y-1630180D02*
X33520362Y-630180D01*
X33520362Y-630180D02*
X33187029Y-1630180D01*
X32853695Y-1153990D02*
X32520362Y-1153990D01*
X32377505Y-630180D02*
X32853695Y-630180D01*
X32853695Y-630180D02*
X32853695Y-1630180D01*
X32853695Y-1630180D02*
X32377505Y-1630180D01*
X31377505Y-630180D02*
X31710838Y-1106371D01*
X31948933Y-630180D02*
X31948933Y-1630180D01*
X31948933Y-1630180D02*
X31567981Y-1630180D01*
X31567981Y-1630180D02*
X31472743Y-1582561D01*
X31472743Y-1582561D02*
X31425124Y-1534942D01*
X31425124Y-1534942D02*
X31377505Y-1439704D01*
X31377505Y-1439704D02*
X31377505Y-1296847D01*
X31377505Y-1296847D02*
X31425124Y-1201609D01*
X31425124Y-1201609D02*
X31472743Y-1153990D01*
X31472743Y-1153990D02*
X31567981Y-1106371D01*
X31567981Y-1106371D02*
X31948933Y-1106371D01*
X29663219Y-630180D02*
X30234647Y-630180D01*
X29948933Y-630180D02*
X29948933Y-1630180D01*
X29948933Y-1630180D02*
X30044171Y-1487323D01*
X30044171Y-1487323D02*
X30139409Y-1392085D01*
X30139409Y-1392085D02*
X30234647Y-1344466D01*
X29234647Y-725419D02*
X29187028Y-677800D01*
X29187028Y-677800D02*
X29234647Y-630180D01*
X29234647Y-630180D02*
X29282266Y-677800D01*
X29282266Y-677800D02*
X29234647Y-725419D01*
X29234647Y-725419D02*
X29234647Y-630180D01*
X28567981Y-1630180D02*
X28472743Y-1630180D01*
X28472743Y-1630180D02*
X28377505Y-1582561D01*
X28377505Y-1582561D02*
X28329886Y-1534942D01*
X28329886Y-1534942D02*
X28282267Y-1439704D01*
X28282267Y-1439704D02*
X28234648Y-1249228D01*
X28234648Y-1249228D02*
X28234648Y-1011133D01*
X28234648Y-1011133D02*
X28282267Y-820657D01*
X28282267Y-820657D02*
X28329886Y-725419D01*
X28329886Y-725419D02*
X28377505Y-677800D01*
X28377505Y-677800D02*
X28472743Y-630180D01*
X28472743Y-630180D02*
X28567981Y-630180D01*
X28567981Y-630180D02*
X28663219Y-677800D01*
X28663219Y-677800D02*
X28710838Y-725419D01*
X28710838Y-725419D02*
X28758457Y-820657D01*
X28758457Y-820657D02*
X28806076Y-1011133D01*
X28806076Y-1011133D02*
X28806076Y-1249228D01*
X28806076Y-1249228D02*
X28758457Y-1439704D01*
X28758457Y-1439704D02*
X28710838Y-1534942D01*
X28710838Y-1534942D02*
X28663219Y-1582561D01*
X28663219Y-1582561D02*
X28567981Y-1630180D01*
D11*
X12885226Y-7452190D02*
X12885226Y-7694095D01*
X12885226Y-7694095D02*
X13127131Y-7718286D01*
X13127131Y-7718286D02*
X13102940Y-7694095D01*
X13102940Y-7694095D02*
X13078750Y-7645714D01*
X13078750Y-7645714D02*
X13078750Y-7524762D01*
X13078750Y-7524762D02*
X13102940Y-7476381D01*
X13102940Y-7476381D02*
X13127131Y-7452190D01*
X13127131Y-7452190D02*
X13175512Y-7428000D01*
X13175512Y-7428000D02*
X13296464Y-7428000D01*
X13296464Y-7428000D02*
X13344845Y-7452190D01*
X13344845Y-7452190D02*
X13369036Y-7476381D01*
X13369036Y-7476381D02*
X13393226Y-7524762D01*
X13393226Y-7524762D02*
X13393226Y-7645714D01*
X13393226Y-7645714D02*
X13369036Y-7694095D01*
X13369036Y-7694095D02*
X13344845Y-7718286D01*
X12885226Y-7282857D02*
X13393226Y-7113523D01*
X13393226Y-7113523D02*
X12885226Y-6944190D01*
X29419416Y-4634000D02*
X29395226Y-4682381D01*
X29395226Y-4682381D02*
X29395226Y-4754952D01*
X29395226Y-4754952D02*
X29419416Y-4827524D01*
X29419416Y-4827524D02*
X29467797Y-4875905D01*
X29467797Y-4875905D02*
X29516178Y-4900095D01*
X29516178Y-4900095D02*
X29612940Y-4924286D01*
X29612940Y-4924286D02*
X29685512Y-4924286D01*
X29685512Y-4924286D02*
X29782274Y-4900095D01*
X29782274Y-4900095D02*
X29830655Y-4875905D01*
X29830655Y-4875905D02*
X29879036Y-4827524D01*
X29879036Y-4827524D02*
X29903226Y-4754952D01*
X29903226Y-4754952D02*
X29903226Y-4706571D01*
X29903226Y-4706571D02*
X29879036Y-4634000D01*
X29879036Y-4634000D02*
X29854845Y-4609809D01*
X29854845Y-4609809D02*
X29685512Y-4609809D01*
X29685512Y-4609809D02*
X29685512Y-4706571D01*
X29903226Y-4392095D02*
X29395226Y-4392095D01*
X29395226Y-4392095D02*
X29903226Y-4101809D01*
X29903226Y-4101809D02*
X29395226Y-4101809D01*
X29903226Y-3859905D02*
X29395226Y-3859905D01*
X29395226Y-3859905D02*
X29395226Y-3738953D01*
X29395226Y-3738953D02*
X29419416Y-3666381D01*
X29419416Y-3666381D02*
X29467797Y-3618000D01*
X29467797Y-3618000D02*
X29516178Y-3593810D01*
X29516178Y-3593810D02*
X29612940Y-3569619D01*
X29612940Y-3569619D02*
X29685512Y-3569619D01*
X29685512Y-3569619D02*
X29782274Y-3593810D01*
X29782274Y-3593810D02*
X29830655Y-3618000D01*
X29830655Y-3618000D02*
X29879036Y-3666381D01*
X29879036Y-3666381D02*
X29903226Y-3738953D01*
X29903226Y-3738953D02*
X29903226Y-3859905D01*
X43305695Y-14881666D02*
X43063790Y-14881666D01*
X43063790Y-14881666D02*
X43039599Y-15123571D01*
X43039599Y-15123571D02*
X43063790Y-15099380D01*
X43063790Y-15099380D02*
X43112171Y-15075190D01*
X43112171Y-15075190D02*
X43233123Y-15075190D01*
X43233123Y-15075190D02*
X43281504Y-15099380D01*
X43281504Y-15099380D02*
X43305695Y-15123571D01*
X43305695Y-15123571D02*
X43329885Y-15171952D01*
X43329885Y-15171952D02*
X43329885Y-15292904D01*
X43329885Y-15292904D02*
X43305695Y-15341285D01*
X43305695Y-15341285D02*
X43281504Y-15365476D01*
X43281504Y-15365476D02*
X43233123Y-15389666D01*
X43233123Y-15389666D02*
X43112171Y-15389666D01*
X43112171Y-15389666D02*
X43063790Y-15365476D01*
X43063790Y-15365476D02*
X43039599Y-15341285D01*
X42047790Y-16207546D02*
X42047790Y-15699546D01*
X42047790Y-15699546D02*
X42241314Y-15699546D01*
X42241314Y-15699546D02*
X42289695Y-15723736D01*
X42289695Y-15723736D02*
X42313885Y-15747927D01*
X42313885Y-15747927D02*
X42338076Y-15796308D01*
X42338076Y-15796308D02*
X42338076Y-15868879D01*
X42338076Y-15868879D02*
X42313885Y-15917260D01*
X42313885Y-15917260D02*
X42289695Y-15941451D01*
X42289695Y-15941451D02*
X42241314Y-15965641D01*
X42241314Y-15965641D02*
X42047790Y-15965641D01*
X42725123Y-15941451D02*
X42797695Y-15965641D01*
X42797695Y-15965641D02*
X42821885Y-15989832D01*
X42821885Y-15989832D02*
X42846076Y-16038213D01*
X42846076Y-16038213D02*
X42846076Y-16110784D01*
X42846076Y-16110784D02*
X42821885Y-16159165D01*
X42821885Y-16159165D02*
X42797695Y-16183356D01*
X42797695Y-16183356D02*
X42749314Y-16207546D01*
X42749314Y-16207546D02*
X42555790Y-16207546D01*
X42555790Y-16207546D02*
X42555790Y-15699546D01*
X42555790Y-15699546D02*
X42725123Y-15699546D01*
X42725123Y-15699546D02*
X42773504Y-15723736D01*
X42773504Y-15723736D02*
X42797695Y-15747927D01*
X42797695Y-15747927D02*
X42821885Y-15796308D01*
X42821885Y-15796308D02*
X42821885Y-15844689D01*
X42821885Y-15844689D02*
X42797695Y-15893070D01*
X42797695Y-15893070D02*
X42773504Y-15917260D01*
X42773504Y-15917260D02*
X42725123Y-15941451D01*
X42725123Y-15941451D02*
X42555790Y-15941451D01*
X43305695Y-15699546D02*
X43063790Y-15699546D01*
X43063790Y-15699546D02*
X43039599Y-15941451D01*
X43039599Y-15941451D02*
X43063790Y-15917260D01*
X43063790Y-15917260D02*
X43112171Y-15893070D01*
X43112171Y-15893070D02*
X43233123Y-15893070D01*
X43233123Y-15893070D02*
X43281504Y-15917260D01*
X43281504Y-15917260D02*
X43305695Y-15941451D01*
X43305695Y-15941451D02*
X43329885Y-15989832D01*
X43329885Y-15989832D02*
X43329885Y-16110784D01*
X43329885Y-16110784D02*
X43305695Y-16159165D01*
X43305695Y-16159165D02*
X43281504Y-16183356D01*
X43281504Y-16183356D02*
X43233123Y-16207546D01*
X43233123Y-16207546D02*
X43112171Y-16207546D01*
X43112171Y-16207546D02*
X43063790Y-16183356D01*
X43063790Y-16183356D02*
X43039599Y-16159165D01*
X41709124Y-17025426D02*
X41709124Y-16517426D01*
X41709124Y-16517426D02*
X41878457Y-16880283D01*
X41878457Y-16880283D02*
X42047791Y-16517426D01*
X42047791Y-16517426D02*
X42047791Y-17025426D01*
X42386457Y-16517426D02*
X42483219Y-16517426D01*
X42483219Y-16517426D02*
X42531600Y-16541616D01*
X42531600Y-16541616D02*
X42579981Y-16589997D01*
X42579981Y-16589997D02*
X42604171Y-16686759D01*
X42604171Y-16686759D02*
X42604171Y-16856093D01*
X42604171Y-16856093D02*
X42579981Y-16952855D01*
X42579981Y-16952855D02*
X42531600Y-17001236D01*
X42531600Y-17001236D02*
X42483219Y-17025426D01*
X42483219Y-17025426D02*
X42386457Y-17025426D01*
X42386457Y-17025426D02*
X42338076Y-17001236D01*
X42338076Y-17001236D02*
X42289695Y-16952855D01*
X42289695Y-16952855D02*
X42265504Y-16856093D01*
X42265504Y-16856093D02*
X42265504Y-16686759D01*
X42265504Y-16686759D02*
X42289695Y-16589997D01*
X42289695Y-16589997D02*
X42338076Y-16541616D01*
X42338076Y-16541616D02*
X42386457Y-16517426D01*
X42797694Y-17001236D02*
X42870266Y-17025426D01*
X42870266Y-17025426D02*
X42991218Y-17025426D01*
X42991218Y-17025426D02*
X43039599Y-17001236D01*
X43039599Y-17001236D02*
X43063790Y-16977045D01*
X43063790Y-16977045D02*
X43087980Y-16928664D01*
X43087980Y-16928664D02*
X43087980Y-16880283D01*
X43087980Y-16880283D02*
X43063790Y-16831902D01*
X43063790Y-16831902D02*
X43039599Y-16807712D01*
X43039599Y-16807712D02*
X42991218Y-16783521D01*
X42991218Y-16783521D02*
X42894456Y-16759331D01*
X42894456Y-16759331D02*
X42846075Y-16735140D01*
X42846075Y-16735140D02*
X42821885Y-16710950D01*
X42821885Y-16710950D02*
X42797694Y-16662569D01*
X42797694Y-16662569D02*
X42797694Y-16614188D01*
X42797694Y-16614188D02*
X42821885Y-16565807D01*
X42821885Y-16565807D02*
X42846075Y-16541616D01*
X42846075Y-16541616D02*
X42894456Y-16517426D01*
X42894456Y-16517426D02*
X43015409Y-16517426D01*
X43015409Y-16517426D02*
X43087980Y-16541616D01*
X43305695Y-17025426D02*
X43305695Y-16517426D01*
D12*
X50954095Y-31653019D02*
X50954095Y-32462542D01*
X50954095Y-32462542D02*
X51001714Y-32557780D01*
X51001714Y-32557780D02*
X51049333Y-32605400D01*
X51049333Y-32605400D02*
X51144571Y-32653019D01*
X51144571Y-32653019D02*
X51335047Y-32653019D01*
X51335047Y-32653019D02*
X51430285Y-32605400D01*
X51430285Y-32605400D02*
X51477904Y-32557780D01*
X51477904Y-32557780D02*
X51525523Y-32462542D01*
X51525523Y-32462542D02*
X51525523Y-31653019D01*
X52525523Y-32653019D02*
X51954095Y-32653019D01*
X52239809Y-32653019D02*
X52239809Y-31653019D01*
X52239809Y-31653019D02*
X52144571Y-31795876D01*
X52144571Y-31795876D02*
X52049333Y-31891114D01*
X52049333Y-31891114D02*
X51954095Y-31938733D01*
X63943687Y-45379819D02*
X63991306Y-45332200D01*
X63991306Y-45332200D02*
X64134163Y-45284580D01*
X64134163Y-45284580D02*
X64229401Y-45284580D01*
X64229401Y-45284580D02*
X64372258Y-45332200D01*
X64372258Y-45332200D02*
X64467496Y-45427438D01*
X64467496Y-45427438D02*
X64515115Y-45522676D01*
X64515115Y-45522676D02*
X64562734Y-45713152D01*
X64562734Y-45713152D02*
X64562734Y-45856009D01*
X64562734Y-45856009D02*
X64515115Y-46046485D01*
X64515115Y-46046485D02*
X64467496Y-46141723D01*
X64467496Y-46141723D02*
X64372258Y-46236961D01*
X64372258Y-46236961D02*
X64229401Y-46284580D01*
X64229401Y-46284580D02*
X64134163Y-46284580D01*
X64134163Y-46284580D02*
X63991306Y-46236961D01*
X63991306Y-46236961D02*
X63943687Y-46189342D01*
X63515115Y-45284580D02*
X63515115Y-46284580D01*
X63515115Y-46284580D02*
X63134163Y-46284580D01*
X63134163Y-46284580D02*
X63038925Y-46236961D01*
X63038925Y-46236961D02*
X62991306Y-46189342D01*
X62991306Y-46189342D02*
X62943687Y-46094104D01*
X62943687Y-46094104D02*
X62943687Y-45951247D01*
X62943687Y-45951247D02*
X62991306Y-45856009D01*
X62991306Y-45856009D02*
X63038925Y-45808390D01*
X63038925Y-45808390D02*
X63134163Y-45760771D01*
X63134163Y-45760771D02*
X63515115Y-45760771D01*
X62562734Y-46189342D02*
X62515115Y-46236961D01*
X62515115Y-46236961D02*
X62419877Y-46284580D01*
X62419877Y-46284580D02*
X62181782Y-46284580D01*
X62181782Y-46284580D02*
X62086544Y-46236961D01*
X62086544Y-46236961D02*
X62038925Y-46189342D01*
X62038925Y-46189342D02*
X61991306Y-46094104D01*
X61991306Y-46094104D02*
X61991306Y-45998866D01*
X61991306Y-45998866D02*
X62038925Y-45856009D01*
X62038925Y-45856009D02*
X62610353Y-45284580D01*
X62610353Y-45284580D02*
X61991306Y-45284580D01*
X61038925Y-45284580D02*
X61610353Y-45284580D01*
X61324639Y-45284580D02*
X61324639Y-46284580D01*
X61324639Y-46284580D02*
X61419877Y-46141723D01*
X61419877Y-46141723D02*
X61515115Y-46046485D01*
X61515115Y-46046485D02*
X61610353Y-45998866D01*
X60419877Y-46284580D02*
X60324639Y-46284580D01*
X60324639Y-46284580D02*
X60229401Y-46236961D01*
X60229401Y-46236961D02*
X60181782Y-46189342D01*
X60181782Y-46189342D02*
X60134163Y-46094104D01*
X60134163Y-46094104D02*
X60086544Y-45903628D01*
X60086544Y-45903628D02*
X60086544Y-45665533D01*
X60086544Y-45665533D02*
X60134163Y-45475057D01*
X60134163Y-45475057D02*
X60181782Y-45379819D01*
X60181782Y-45379819D02*
X60229401Y-45332200D01*
X60229401Y-45332200D02*
X60324639Y-45284580D01*
X60324639Y-45284580D02*
X60419877Y-45284580D01*
X60419877Y-45284580D02*
X60515115Y-45332200D01*
X60515115Y-45332200D02*
X60562734Y-45379819D01*
X60562734Y-45379819D02*
X60610353Y-45475057D01*
X60610353Y-45475057D02*
X60657972Y-45665533D01*
X60657972Y-45665533D02*
X60657972Y-45903628D01*
X60657972Y-45903628D02*
X60610353Y-46094104D01*
X60610353Y-46094104D02*
X60562734Y-46189342D01*
X60562734Y-46189342D02*
X60515115Y-46236961D01*
X60515115Y-46236961D02*
X60419877Y-46284580D01*
X59705591Y-46189342D02*
X59657972Y-46236961D01*
X59657972Y-46236961D02*
X59562734Y-46284580D01*
X59562734Y-46284580D02*
X59324639Y-46284580D01*
X59324639Y-46284580D02*
X59229401Y-46236961D01*
X59229401Y-46236961D02*
X59181782Y-46189342D01*
X59181782Y-46189342D02*
X59134163Y-46094104D01*
X59134163Y-46094104D02*
X59134163Y-45998866D01*
X59134163Y-45998866D02*
X59181782Y-45856009D01*
X59181782Y-45856009D02*
X59753210Y-45284580D01*
X59753210Y-45284580D02*
X59134163Y-45284580D01*
X57943686Y-45284580D02*
X57943686Y-46284580D01*
X57943686Y-46284580D02*
X57610353Y-45570295D01*
X57610353Y-45570295D02*
X57277020Y-46284580D01*
X57277020Y-46284580D02*
X57277020Y-45284580D01*
X56657972Y-45284580D02*
X56753210Y-45332200D01*
X56753210Y-45332200D02*
X56800829Y-45379819D01*
X56800829Y-45379819D02*
X56848448Y-45475057D01*
X56848448Y-45475057D02*
X56848448Y-45760771D01*
X56848448Y-45760771D02*
X56800829Y-45856009D01*
X56800829Y-45856009D02*
X56753210Y-45903628D01*
X56753210Y-45903628D02*
X56657972Y-45951247D01*
X56657972Y-45951247D02*
X56515115Y-45951247D01*
X56515115Y-45951247D02*
X56419877Y-45903628D01*
X56419877Y-45903628D02*
X56372258Y-45856009D01*
X56372258Y-45856009D02*
X56324639Y-45760771D01*
X56324639Y-45760771D02*
X56324639Y-45475057D01*
X56324639Y-45475057D02*
X56372258Y-45379819D01*
X56372258Y-45379819D02*
X56419877Y-45332200D01*
X56419877Y-45332200D02*
X56515115Y-45284580D01*
X56515115Y-45284580D02*
X56657972Y-45284580D01*
X55467496Y-45284580D02*
X55467496Y-46284580D01*
X55467496Y-45332200D02*
X55562734Y-45284580D01*
X55562734Y-45284580D02*
X55753210Y-45284580D01*
X55753210Y-45284580D02*
X55848448Y-45332200D01*
X55848448Y-45332200D02*
X55896067Y-45379819D01*
X55896067Y-45379819D02*
X55943686Y-45475057D01*
X55943686Y-45475057D02*
X55943686Y-45760771D01*
X55943686Y-45760771D02*
X55896067Y-45856009D01*
X55896067Y-45856009D02*
X55848448Y-45903628D01*
X55848448Y-45903628D02*
X55753210Y-45951247D01*
X55753210Y-45951247D02*
X55562734Y-45951247D01*
X55562734Y-45951247D02*
X55467496Y-45903628D01*
X54562734Y-45951247D02*
X54562734Y-45284580D01*
X54991305Y-45951247D02*
X54991305Y-45427438D01*
X54991305Y-45427438D02*
X54943686Y-45332200D01*
X54943686Y-45332200D02*
X54848448Y-45284580D01*
X54848448Y-45284580D02*
X54705591Y-45284580D01*
X54705591Y-45284580D02*
X54610353Y-45332200D01*
X54610353Y-45332200D02*
X54562734Y-45379819D01*
X53943686Y-45284580D02*
X54038924Y-45332200D01*
X54038924Y-45332200D02*
X54086543Y-45427438D01*
X54086543Y-45427438D02*
X54086543Y-46284580D01*
X53181781Y-45332200D02*
X53277019Y-45284580D01*
X53277019Y-45284580D02*
X53467495Y-45284580D01*
X53467495Y-45284580D02*
X53562733Y-45332200D01*
X53562733Y-45332200D02*
X53610352Y-45427438D01*
X53610352Y-45427438D02*
X53610352Y-45808390D01*
X53610352Y-45808390D02*
X53562733Y-45903628D01*
X53562733Y-45903628D02*
X53467495Y-45951247D01*
X53467495Y-45951247D02*
X53277019Y-45951247D01*
X53277019Y-45951247D02*
X53181781Y-45903628D01*
X53181781Y-45903628D02*
X53134162Y-45808390D01*
X53134162Y-45808390D02*
X53134162Y-45713152D01*
X53134162Y-45713152D02*
X53610352Y-45617914D01*
D10*
X72078666Y-420019D02*
X72078666Y-1134304D01*
X72078666Y-1134304D02*
X72031047Y-1277161D01*
X72031047Y-1277161D02*
X71935809Y-1372400D01*
X71935809Y-1372400D02*
X71792952Y-1420019D01*
X71792952Y-1420019D02*
X71697714Y-1420019D01*
X72459619Y-420019D02*
X73126285Y-420019D01*
X73126285Y-420019D02*
X72697714Y-1420019D01*
X44646666Y-2959219D02*
X44646666Y-3673504D01*
X44646666Y-3673504D02*
X44599047Y-3816361D01*
X44599047Y-3816361D02*
X44503809Y-3911600D01*
X44503809Y-3911600D02*
X44360952Y-3959219D01*
X44360952Y-3959219D02*
X44265714Y-3959219D01*
X45265714Y-3387790D02*
X45170476Y-3340171D01*
X45170476Y-3340171D02*
X45122857Y-3292552D01*
X45122857Y-3292552D02*
X45075238Y-3197314D01*
X45075238Y-3197314D02*
X45075238Y-3149695D01*
X45075238Y-3149695D02*
X45122857Y-3054457D01*
X45122857Y-3054457D02*
X45170476Y-3006838D01*
X45170476Y-3006838D02*
X45265714Y-2959219D01*
X45265714Y-2959219D02*
X45456190Y-2959219D01*
X45456190Y-2959219D02*
X45551428Y-3006838D01*
X45551428Y-3006838D02*
X45599047Y-3054457D01*
X45599047Y-3054457D02*
X45646666Y-3149695D01*
X45646666Y-3149695D02*
X45646666Y-3197314D01*
X45646666Y-3197314D02*
X45599047Y-3292552D01*
X45599047Y-3292552D02*
X45551428Y-3340171D01*
X45551428Y-3340171D02*
X45456190Y-3387790D01*
X45456190Y-3387790D02*
X45265714Y-3387790D01*
X45265714Y-3387790D02*
X45170476Y-3435409D01*
X45170476Y-3435409D02*
X45122857Y-3483028D01*
X45122857Y-3483028D02*
X45075238Y-3578266D01*
X45075238Y-3578266D02*
X45075238Y-3768742D01*
X45075238Y-3768742D02*
X45122857Y-3863980D01*
X45122857Y-3863980D02*
X45170476Y-3911600D01*
X45170476Y-3911600D02*
X45265714Y-3959219D01*
X45265714Y-3959219D02*
X45456190Y-3959219D01*
X45456190Y-3959219D02*
X45551428Y-3911600D01*
X45551428Y-3911600D02*
X45599047Y-3863980D01*
X45599047Y-3863980D02*
X45646666Y-3768742D01*
X45646666Y-3768742D02*
X45646666Y-3578266D01*
X45646666Y-3578266D02*
X45599047Y-3483028D01*
X45599047Y-3483028D02*
X45551428Y-3435409D01*
X45551428Y-3435409D02*
X45456190Y-3387790D01*
X44224676Y-53529819D02*
X44224676Y-54244104D01*
X44224676Y-54244104D02*
X44177057Y-54386961D01*
X44177057Y-54386961D02*
X44081819Y-54482200D01*
X44081819Y-54482200D02*
X43938962Y-54529819D01*
X43938962Y-54529819D02*
X43843724Y-54529819D01*
X45224676Y-54529819D02*
X44653248Y-54529819D01*
X44938962Y-54529819D02*
X44938962Y-53529819D01*
X44938962Y-53529819D02*
X44843724Y-53672676D01*
X44843724Y-53672676D02*
X44748486Y-53767914D01*
X44748486Y-53767914D02*
X44653248Y-53815533D01*
X45843724Y-53529819D02*
X45938962Y-53529819D01*
X45938962Y-53529819D02*
X46034200Y-53577438D01*
X46034200Y-53577438D02*
X46081819Y-53625057D01*
X46081819Y-53625057D02*
X46129438Y-53720295D01*
X46129438Y-53720295D02*
X46177057Y-53910771D01*
X46177057Y-53910771D02*
X46177057Y-54148866D01*
X46177057Y-54148866D02*
X46129438Y-54339342D01*
X46129438Y-54339342D02*
X46081819Y-54434580D01*
X46081819Y-54434580D02*
X46034200Y-54482200D01*
X46034200Y-54482200D02*
X45938962Y-54529819D01*
X45938962Y-54529819D02*
X45843724Y-54529819D01*
X45843724Y-54529819D02*
X45748486Y-54482200D01*
X45748486Y-54482200D02*
X45700867Y-54434580D01*
X45700867Y-54434580D02*
X45653248Y-54339342D01*
X45653248Y-54339342D02*
X45605629Y-54148866D01*
X45605629Y-54148866D02*
X45605629Y-53910771D01*
X45605629Y-53910771D02*
X45653248Y-53720295D01*
X45653248Y-53720295D02*
X45700867Y-53625057D01*
X45700867Y-53625057D02*
X45748486Y-53577438D01*
X45748486Y-53577438D02*
X45843724Y-53529819D01*
X47186666Y-53556819D02*
X47186666Y-54271104D01*
X47186666Y-54271104D02*
X47139047Y-54413961D01*
X47139047Y-54413961D02*
X47043809Y-54509200D01*
X47043809Y-54509200D02*
X46900952Y-54556819D01*
X46900952Y-54556819D02*
X46805714Y-54556819D01*
X48091428Y-53556819D02*
X47900952Y-53556819D01*
X47900952Y-53556819D02*
X47805714Y-53604438D01*
X47805714Y-53604438D02*
X47758095Y-53652057D01*
X47758095Y-53652057D02*
X47662857Y-53794914D01*
X47662857Y-53794914D02*
X47615238Y-53985390D01*
X47615238Y-53985390D02*
X47615238Y-54366342D01*
X47615238Y-54366342D02*
X47662857Y-54461580D01*
X47662857Y-54461580D02*
X47710476Y-54509200D01*
X47710476Y-54509200D02*
X47805714Y-54556819D01*
X47805714Y-54556819D02*
X47996190Y-54556819D01*
X47996190Y-54556819D02*
X48091428Y-54509200D01*
X48091428Y-54509200D02*
X48139047Y-54461580D01*
X48139047Y-54461580D02*
X48186666Y-54366342D01*
X48186666Y-54366342D02*
X48186666Y-54128247D01*
X48186666Y-54128247D02*
X48139047Y-54033009D01*
X48139047Y-54033009D02*
X48091428Y-53985390D01*
X48091428Y-53985390D02*
X47996190Y-53937771D01*
X47996190Y-53937771D02*
X47805714Y-53937771D01*
X47805714Y-53937771D02*
X47710476Y-53985390D01*
X47710476Y-53985390D02*
X47662857Y-54033009D01*
X47662857Y-54033009D02*
X47615238Y-54128247D01*
X69538666Y-50806819D02*
X69538666Y-51521104D01*
X69538666Y-51521104D02*
X69491047Y-51663961D01*
X69491047Y-51663961D02*
X69395809Y-51759200D01*
X69395809Y-51759200D02*
X69252952Y-51806819D01*
X69252952Y-51806819D02*
X69157714Y-51806819D01*
X70491047Y-50806819D02*
X70014857Y-50806819D01*
X70014857Y-50806819D02*
X69967238Y-51283009D01*
X69967238Y-51283009D02*
X70014857Y-51235390D01*
X70014857Y-51235390D02*
X70110095Y-51187771D01*
X70110095Y-51187771D02*
X70348190Y-51187771D01*
X70348190Y-51187771D02*
X70443428Y-51235390D01*
X70443428Y-51235390D02*
X70491047Y-51283009D01*
X70491047Y-51283009D02*
X70538666Y-51378247D01*
X70538666Y-51378247D02*
X70538666Y-51616342D01*
X70538666Y-51616342D02*
X70491047Y-51711580D01*
X70491047Y-51711580D02*
X70443428Y-51759200D01*
X70443428Y-51759200D02*
X70348190Y-51806819D01*
X70348190Y-51806819D02*
X70110095Y-51806819D01*
X70110095Y-51806819D02*
X70014857Y-51759200D01*
X70014857Y-51759200D02*
X69967238Y-51711580D01*
X47186666Y-2966819D02*
X47186666Y-3681104D01*
X47186666Y-3681104D02*
X47139047Y-3823961D01*
X47139047Y-3823961D02*
X47043809Y-3919200D01*
X47043809Y-3919200D02*
X46900952Y-3966819D01*
X46900952Y-3966819D02*
X46805714Y-3966819D01*
X48091428Y-3300152D02*
X48091428Y-3966819D01*
X47853333Y-2919200D02*
X47615238Y-3633485D01*
X47615238Y-3633485D02*
X48234285Y-3633485D01*
X746819Y-5667333D02*
X1461104Y-5667333D01*
X1461104Y-5667333D02*
X1603961Y-5714952D01*
X1603961Y-5714952D02*
X1699200Y-5810190D01*
X1699200Y-5810190D02*
X1746819Y-5953047D01*
X1746819Y-5953047D02*
X1746819Y-6048285D01*
X1746819Y-4667333D02*
X1746819Y-5238761D01*
X1746819Y-4953047D02*
X746819Y-4953047D01*
X746819Y-4953047D02*
X889676Y-5048285D01*
X889676Y-5048285D02*
X984914Y-5143523D01*
X984914Y-5143523D02*
X1032533Y-5238761D01*
X72082066Y-50762019D02*
X72082066Y-51476304D01*
X72082066Y-51476304D02*
X72034447Y-51619161D01*
X72034447Y-51619161D02*
X71939209Y-51714400D01*
X71939209Y-51714400D02*
X71796352Y-51762019D01*
X71796352Y-51762019D02*
X71701114Y-51762019D01*
X72605876Y-51762019D02*
X72796352Y-51762019D01*
X72796352Y-51762019D02*
X72891590Y-51714400D01*
X72891590Y-51714400D02*
X72939209Y-51666780D01*
X72939209Y-51666780D02*
X73034447Y-51523923D01*
X73034447Y-51523923D02*
X73082066Y-51333447D01*
X73082066Y-51333447D02*
X73082066Y-50952495D01*
X73082066Y-50952495D02*
X73034447Y-50857257D01*
X73034447Y-50857257D02*
X72986828Y-50809638D01*
X72986828Y-50809638D02*
X72891590Y-50762019D01*
X72891590Y-50762019D02*
X72701114Y-50762019D01*
X72701114Y-50762019D02*
X72605876Y-50809638D01*
X72605876Y-50809638D02*
X72558257Y-50857257D01*
X72558257Y-50857257D02*
X72510638Y-50952495D01*
X72510638Y-50952495D02*
X72510638Y-51190590D01*
X72510638Y-51190590D02*
X72558257Y-51285828D01*
X72558257Y-51285828D02*
X72605876Y-51333447D01*
X72605876Y-51333447D02*
X72701114Y-51381066D01*
X72701114Y-51381066D02*
X72891590Y-51381066D01*
X72891590Y-51381066D02*
X72986828Y-51333447D01*
X72986828Y-51333447D02*
X73034447Y-51285828D01*
X73034447Y-51285828D02*
X73082066Y-51190590D01*
X69538666Y-426819D02*
X69538666Y-1141104D01*
X69538666Y-1141104D02*
X69491047Y-1283961D01*
X69491047Y-1283961D02*
X69395809Y-1379200D01*
X69395809Y-1379200D02*
X69252952Y-1426819D01*
X69252952Y-1426819D02*
X69157714Y-1426819D01*
X69919619Y-426819D02*
X70538666Y-426819D01*
X70538666Y-426819D02*
X70205333Y-807771D01*
X70205333Y-807771D02*
X70348190Y-807771D01*
X70348190Y-807771D02*
X70443428Y-855390D01*
X70443428Y-855390D02*
X70491047Y-903009D01*
X70491047Y-903009D02*
X70538666Y-998247D01*
X70538666Y-998247D02*
X70538666Y-1236342D01*
X70538666Y-1236342D02*
X70491047Y-1331580D01*
X70491047Y-1331580D02*
X70443428Y-1379200D01*
X70443428Y-1379200D02*
X70348190Y-1426819D01*
X70348190Y-1426819D02*
X70062476Y-1426819D01*
X70062476Y-1426819D02*
X69967238Y-1379200D01*
X69967238Y-1379200D02*
X69919619Y-1331580D01*
X14208819Y-5667333D02*
X14923104Y-5667333D01*
X14923104Y-5667333D02*
X15065961Y-5714952D01*
X15065961Y-5714952D02*
X15161200Y-5810190D01*
X15161200Y-5810190D02*
X15208819Y-5953047D01*
X15208819Y-5953047D02*
X15208819Y-6048285D01*
X14304057Y-5238761D02*
X14256438Y-5191142D01*
X14256438Y-5191142D02*
X14208819Y-5095904D01*
X14208819Y-5095904D02*
X14208819Y-4857809D01*
X14208819Y-4857809D02*
X14256438Y-4762571D01*
X14256438Y-4762571D02*
X14304057Y-4714952D01*
X14304057Y-4714952D02*
X14399295Y-4667333D01*
X14399295Y-4667333D02*
X14494533Y-4667333D01*
X14494533Y-4667333D02*
X14637390Y-4714952D01*
X14637390Y-4714952D02*
X15208819Y-5286380D01*
X15208819Y-5286380D02*
X15208819Y-4667333D01*
%TO.C,*%
G36*
X36424923Y-3378378D02*
G01*
X36660259Y-3378417D01*
X36917674Y-3378447D01*
X37000000Y-3378449D01*
X37262806Y-3378464D01*
X37503192Y-3378514D01*
X37722183Y-3378608D01*
X37920800Y-3378754D01*
X38100068Y-3378963D01*
X38261008Y-3379242D01*
X38404645Y-3379600D01*
X38532001Y-3380047D01*
X38644100Y-3380590D01*
X38741964Y-3381240D01*
X38826617Y-3382004D01*
X38899082Y-3382891D01*
X38960383Y-3383911D01*
X39011541Y-3385071D01*
X39053581Y-3386382D01*
X39087525Y-3387851D01*
X39114396Y-3389488D01*
X39135219Y-3391301D01*
X39151015Y-3393299D01*
X39162809Y-3395492D01*
X39169238Y-3397149D01*
X39280926Y-3441784D01*
X39380791Y-3505530D01*
X39466678Y-3586144D01*
X39536432Y-3681381D01*
X39587900Y-3788996D01*
X39608034Y-3854242D01*
X39610591Y-3866534D01*
X39612888Y-3882768D01*
X39614933Y-3904124D01*
X39616739Y-3931778D01*
X39618314Y-3966908D01*
X39619671Y-4010692D01*
X39620818Y-4064309D01*
X39621767Y-4128936D01*
X39622527Y-4205751D01*
X39623110Y-4295932D01*
X39623525Y-4400656D01*
X39623784Y-4521102D01*
X39623896Y-4658447D01*
X39623871Y-4813870D01*
X39623721Y-4988548D01*
X39623456Y-5183659D01*
X39623086Y-5400381D01*
X39622839Y-5530384D01*
X39619704Y-7135117D01*
X39589366Y-7213021D01*
X39534234Y-7323794D01*
X39461478Y-7420237D01*
X39372945Y-7500639D01*
X39270481Y-7563288D01*
X39169238Y-7602675D01*
X39159734Y-7605026D01*
X39147100Y-7607175D01*
X39130311Y-7609130D01*
X39108343Y-7610901D01*
X39080173Y-7612496D01*
X39044778Y-7613924D01*
X39001133Y-7615194D01*
X38948214Y-7616314D01*
X38884997Y-7617293D01*
X38810459Y-7618140D01*
X38723577Y-7618864D01*
X38623325Y-7619473D01*
X38508681Y-7619976D01*
X38378620Y-7620382D01*
X38232119Y-7620700D01*
X38068154Y-7620938D01*
X37885700Y-7621106D01*
X37683735Y-7621211D01*
X37461235Y-7621262D01*
X37217175Y-7621270D01*
X36994942Y-7621247D01*
X34884310Y-7620945D01*
X34808121Y-7594875D01*
X34711335Y-7554447D01*
X34628453Y-7502498D01*
X34550726Y-7433545D01*
X34550712Y-7433530D01*
X34492456Y-7362687D01*
X34441940Y-7279001D01*
X34403942Y-7191294D01*
X34387222Y-7131610D01*
X34385350Y-7110737D01*
X34383959Y-7076511D01*
X34626442Y-7076511D01*
X34659310Y-7146839D01*
X34709876Y-7231037D01*
X34773839Y-7296173D01*
X34850883Y-7341966D01*
X34901312Y-7359521D01*
X34913163Y-7361411D01*
X34934706Y-7363131D01*
X34966795Y-7364685D01*
X35010286Y-7366078D01*
X35066035Y-7367315D01*
X35134896Y-7368400D01*
X35217727Y-7369340D01*
X35315381Y-7370139D01*
X35428715Y-7370801D01*
X35558584Y-7371332D01*
X35705844Y-7371736D01*
X35871350Y-7372019D01*
X36055957Y-7372186D01*
X36260521Y-7372241D01*
X36485897Y-7372189D01*
X36732941Y-7372036D01*
X37002509Y-7371786D01*
X37023442Y-7371764D01*
X39092247Y-7369543D01*
X39147052Y-7344214D01*
X39223557Y-7296581D01*
X39288823Y-7231432D01*
X39337801Y-7153862D01*
X39339737Y-7149739D01*
X39373557Y-7076511D01*
X39373557Y-5500000D01*
X39373557Y-3923488D01*
X39339737Y-3850260D01*
X39291707Y-3772201D01*
X39227137Y-3706308D01*
X39151075Y-3657676D01*
X39147052Y-3655785D01*
X39092247Y-3630456D01*
X37000000Y-3630456D01*
X34907752Y-3630456D01*
X34852947Y-3655785D01*
X34776442Y-3703418D01*
X34711176Y-3768567D01*
X34662198Y-3846138D01*
X34660263Y-3850260D01*
X34626442Y-3923488D01*
X34626442Y-5500000D01*
X34626442Y-7076511D01*
X34383959Y-7076511D01*
X34383618Y-7068114D01*
X34382026Y-7005431D01*
X34380574Y-6924380D01*
X34379263Y-6826654D01*
X34378091Y-6713942D01*
X34377060Y-6587937D01*
X34376169Y-6450331D01*
X34375418Y-6302813D01*
X34374807Y-6147077D01*
X34374336Y-5984814D01*
X34374006Y-5817715D01*
X34373815Y-5647471D01*
X34373765Y-5475774D01*
X34373855Y-5304315D01*
X34374085Y-5134786D01*
X34374455Y-4968879D01*
X34374965Y-4808285D01*
X34375615Y-4654694D01*
X34376406Y-4509800D01*
X34377337Y-4375293D01*
X34378407Y-4252864D01*
X34379618Y-4144206D01*
X34380969Y-4051009D01*
X34382461Y-3974965D01*
X34384092Y-3917766D01*
X34385863Y-3881103D01*
X34387222Y-3868389D01*
X34418040Y-3770784D01*
X34467978Y-3675431D01*
X34533169Y-3587508D01*
X34609750Y-3512189D01*
X34693858Y-3454652D01*
X34697597Y-3452648D01*
X34714123Y-3443578D01*
X34728643Y-3435274D01*
X34742207Y-3427704D01*
X34755859Y-3420834D01*
X34770649Y-3414630D01*
X34787622Y-3409058D01*
X34807826Y-3404085D01*
X34832307Y-3399676D01*
X34862114Y-3395799D01*
X34898293Y-3392418D01*
X34941892Y-3389502D01*
X34993956Y-3387015D01*
X35055535Y-3384924D01*
X35127673Y-3383196D01*
X35211420Y-3381796D01*
X35307821Y-3380691D01*
X35417925Y-3379847D01*
X35542777Y-3379231D01*
X35683426Y-3378808D01*
X35840917Y-3378545D01*
X36016299Y-3378408D01*
X36210619Y-3378364D01*
X36424923Y-3378378D01*
G37*
G36*
X35507630Y-4375978D02*
G01*
X35526414Y-4382544D01*
X35549101Y-4395381D01*
X35577019Y-4415562D01*
X35611496Y-4444164D01*
X35653858Y-4482262D01*
X35705433Y-4530930D01*
X35767548Y-4591244D01*
X35841531Y-4664279D01*
X35928710Y-4751110D01*
X36030411Y-4852813D01*
X36094722Y-4917184D01*
X36624919Y-5447854D01*
X36624919Y-5500033D01*
X36624919Y-5552211D01*
X36093821Y-6083683D01*
X35986399Y-6191114D01*
X35894201Y-6283113D01*
X35815932Y-6360886D01*
X35750300Y-6425636D01*
X35696010Y-6478567D01*
X35651768Y-6520883D01*
X35616280Y-6553789D01*
X35588252Y-6578488D01*
X35566390Y-6596184D01*
X35549401Y-6608081D01*
X35535989Y-6615383D01*
X35524863Y-6619294D01*
X35516548Y-6620814D01*
X35469154Y-6619062D01*
X35433488Y-6603322D01*
X35401740Y-6572443D01*
X35380617Y-6530827D01*
X35374030Y-6487684D01*
X35376883Y-6470119D01*
X35386428Y-6457098D01*
X35411089Y-6429128D01*
X35449353Y-6387787D01*
X35499709Y-6334648D01*
X35560644Y-6271289D01*
X35630644Y-6199284D01*
X35708197Y-6120208D01*
X35791791Y-6035639D01*
X35855319Y-5971781D01*
X36325918Y-5500000D01*
X35854835Y-5028218D01*
X35746536Y-4919344D01*
X35650841Y-4822281D01*
X35568373Y-4737688D01*
X35499760Y-4666221D01*
X35445627Y-4608536D01*
X35406599Y-4565291D01*
X35383302Y-4537143D01*
X35376395Y-4525868D01*
X35376783Y-4482266D01*
X35394679Y-4438479D01*
X35425794Y-4402947D01*
X35444979Y-4390909D01*
X35461424Y-4383147D01*
X35476462Y-4377355D01*
X35491422Y-4374606D01*
X35507630Y-4375978D01*
G37*
G36*
X38581074Y-6409105D02*
G01*
X38613763Y-6449888D01*
X38625821Y-6497123D01*
X38616133Y-6545759D01*
X38612779Y-6552779D01*
X38605887Y-6566738D01*
X38599572Y-6578784D01*
X38592158Y-6589058D01*
X38581973Y-6597699D01*
X38567343Y-6604849D01*
X38546593Y-6610648D01*
X38518050Y-6615237D01*
X38480041Y-6618755D01*
X38430891Y-6621345D01*
X38368927Y-6623147D01*
X38292475Y-6624300D01*
X38199860Y-6624946D01*
X38089410Y-6625226D01*
X37959451Y-6625279D01*
X37808308Y-6625247D01*
X37750161Y-6625242D01*
X37592805Y-6625194D01*
X37457233Y-6625025D01*
X37341787Y-6624697D01*
X37244808Y-6624175D01*
X37164638Y-6623421D01*
X37099618Y-6622397D01*
X37048090Y-6621067D01*
X37008396Y-6619393D01*
X36978878Y-6617339D01*
X36957876Y-6614867D01*
X36943733Y-6611940D01*
X36934791Y-6608521D01*
X36932213Y-6606948D01*
X36895449Y-6568961D01*
X36877404Y-6523178D01*
X36878446Y-6475204D01*
X36898942Y-6430643D01*
X36919249Y-6409105D01*
X36954913Y-6379095D01*
X37750161Y-6379095D01*
X38545409Y-6379095D01*
X38581074Y-6409105D01*
G37*
D12*
%TO.C,U1*%
X66851000Y-54965000D02*
X50851000Y-54965000D01*
X66851000Y-32965000D02*
X66851000Y-54965000D01*
D13*
X66530000Y-36295000D02*
X66530000Y-33635000D01*
X53770000Y-36295000D02*
X66530000Y-36295000D01*
X53770000Y-36295000D02*
X53770000Y-33635000D01*
X53770000Y-33635000D02*
X66530000Y-33635000D01*
X52500000Y-36295000D02*
X51170000Y-36295000D01*
X51170000Y-36295000D02*
X51170000Y-34965000D01*
D12*
X50851000Y-54965000D02*
X50851000Y-32965000D01*
X50851000Y-32965000D02*
X66851000Y-32965000D01*
D13*
%TO.C,J7*%
X71082000Y-4572000D02*
X71082000Y-19872000D01*
X71082000Y-4572000D02*
X73742000Y-4572000D01*
X71082000Y-19872000D02*
X73742000Y-19872000D01*
X72412000Y-1972000D02*
X73742000Y-1972000D01*
X73742000Y-1972000D02*
X73742000Y-3302000D01*
X73742000Y-4572000D02*
X73742000Y-19872000D01*
%TO.C,J8*%
X43650000Y-7111200D02*
X43650000Y-22411200D01*
X43650000Y-7111200D02*
X46310000Y-7111200D01*
X43650000Y-22411200D02*
X46310000Y-22411200D01*
X44980000Y-4511200D02*
X46310000Y-4511200D01*
X46310000Y-4511200D02*
X46310000Y-5841200D01*
X46310000Y-7111200D02*
X46310000Y-22411200D01*
%TO.C,J10*%
X43650000Y-40105800D02*
X43650000Y-52865800D01*
X43650000Y-40105800D02*
X46310000Y-40105800D01*
X43650000Y-52865800D02*
X46310000Y-52865800D01*
X44980000Y-37505800D02*
X46310000Y-37505800D01*
X46310000Y-37505800D02*
X46310000Y-38835800D01*
X46310000Y-40105800D02*
X46310000Y-52865800D01*
%TO.C,*%
G36*
X54572548Y-13326501D02*
G01*
X54757728Y-13377258D01*
X54925439Y-13471148D01*
X55065655Y-13602159D01*
X55168347Y-13764278D01*
X55223487Y-13951495D01*
X55221048Y-14157795D01*
X55210343Y-14211328D01*
X55128684Y-14418510D01*
X54998651Y-14586242D01*
X54831870Y-14708574D01*
X54639971Y-14779559D01*
X54434582Y-14793249D01*
X54227332Y-14743695D01*
X54196140Y-14730133D01*
X54007473Y-14607942D01*
X53869886Y-14447290D01*
X53785191Y-14260373D01*
X53755198Y-14059387D01*
X53781718Y-13856527D01*
X53866562Y-13663989D01*
X54011540Y-13493970D01*
X54012474Y-13493148D01*
X54189893Y-13378434D01*
X54379927Y-13324889D01*
X54572548Y-13326501D01*
G37*
G36*
X62375650Y-11621664D02*
G01*
X62503241Y-11649051D01*
X62637656Y-11683206D01*
X62650965Y-11686963D01*
X62741914Y-11719259D01*
X62787272Y-11764034D01*
X62808911Y-11847105D01*
X62813428Y-11878731D01*
X62847435Y-12002323D01*
X62904691Y-12100294D01*
X62912015Y-12108119D01*
X62941755Y-12134486D01*
X62977874Y-12154528D01*
X63030382Y-12169426D01*
X63109287Y-12180361D01*
X63224599Y-12188514D01*
X63386327Y-12195064D01*
X63604480Y-12201194D01*
X63726475Y-12204196D01*
X64462713Y-12221958D01*
X64473089Y-12497272D01*
X64483464Y-12772587D01*
X63379217Y-12772587D01*
X62274969Y-12772587D01*
X62285345Y-12497272D01*
X62291535Y-12358954D01*
X62301193Y-12276293D01*
X62320311Y-12233941D01*
X62354884Y-12216551D01*
X62397399Y-12210332D01*
X62465602Y-12199509D01*
X62470102Y-12181286D01*
X62428673Y-12149394D01*
X62345289Y-12057005D01*
X62279871Y-11922457D01*
X62245055Y-11774441D01*
X62242433Y-11726518D01*
X62242433Y-11597060D01*
X62375650Y-11621664D01*
G37*
G36*
X64473089Y-8429720D02*
G01*
X64462713Y-8705035D01*
X63654914Y-8714582D01*
X62847115Y-8724129D01*
X62789360Y-8812274D01*
X62752053Y-8881677D01*
X62758646Y-8936602D01*
X62789360Y-8988565D01*
X62847115Y-9076710D01*
X63654914Y-9086257D01*
X64462713Y-9095804D01*
X64473089Y-9371119D01*
X64483464Y-9646433D01*
X63380711Y-9646433D01*
X62277958Y-9646433D01*
X62277958Y-9380000D01*
X62279065Y-9244480D01*
X62285711Y-9165042D01*
X62302885Y-9126719D01*
X62335576Y-9114546D01*
X62366769Y-9113566D01*
X62435978Y-9107241D01*
X62448287Y-9080660D01*
X62405097Y-9022411D01*
X62381120Y-8996626D01*
X62283224Y-8849739D01*
X62241854Y-8687088D01*
X62254610Y-8524431D01*
X62319092Y-8377526D01*
X62432900Y-8262131D01*
X62498649Y-8225096D01*
X62551087Y-8203790D01*
X62609292Y-8187319D01*
X62682782Y-8175060D01*
X62781073Y-8166391D01*
X62913683Y-8160688D01*
X63090128Y-8157329D01*
X63319926Y-8155691D01*
X63567214Y-8155186D01*
X64483464Y-8154405D01*
X64473089Y-8429720D01*
G37*
G36*
X56002884Y-13562155D02*
G01*
X56125493Y-13576187D01*
X56304260Y-13600311D01*
X56331963Y-13604138D01*
X56969222Y-13692585D01*
X57537404Y-13772243D01*
X58037906Y-13843323D01*
X58472127Y-13906035D01*
X58841464Y-13960591D01*
X59147317Y-14007201D01*
X59391084Y-14046077D01*
X59574163Y-14077430D01*
X59697953Y-14101470D01*
X59763852Y-14118409D01*
X59774897Y-14123691D01*
X59795905Y-14176130D01*
X59812124Y-14284910D01*
X59823551Y-14435485D01*
X59830184Y-14613313D01*
X59832019Y-14803850D01*
X59829053Y-14992550D01*
X59821283Y-15164872D01*
X59808706Y-15306270D01*
X59791320Y-15402201D01*
X59775175Y-15435518D01*
X59749743Y-15443539D01*
X59696003Y-15445769D01*
X59609007Y-15441647D01*
X59483805Y-15430609D01*
X59315450Y-15412095D01*
X59098993Y-15385541D01*
X58829485Y-15350385D01*
X58501980Y-15306065D01*
X58111527Y-15252018D01*
X57901259Y-15222591D01*
X57545229Y-15172358D01*
X57207067Y-15124132D01*
X56893971Y-15078975D01*
X56613143Y-15037950D01*
X56371781Y-15002118D01*
X56177084Y-14972543D01*
X56036254Y-14950285D01*
X55956488Y-14936407D01*
X55945720Y-14934081D01*
X55812503Y-14901317D01*
X55812251Y-14520798D01*
X55810070Y-14332340D01*
X55804425Y-14141313D01*
X55796312Y-13976731D01*
X55791283Y-13909370D01*
X55783862Y-13762918D01*
X55794791Y-13667572D01*
X55822533Y-13609687D01*
X55846259Y-13581981D01*
X55875842Y-13564915D01*
X55923859Y-13558352D01*
X56002884Y-13562155D01*
G37*
G36*
X54146992Y-6032871D02*
G01*
X54266600Y-6044773D01*
X54440765Y-6064925D01*
X54661612Y-6092337D01*
X54921265Y-6126016D01*
X55211849Y-6164973D01*
X55525487Y-6208215D01*
X55706180Y-6233639D01*
X56092011Y-6288311D01*
X56512626Y-6347905D01*
X56950121Y-6409885D01*
X57386590Y-6471715D01*
X57804129Y-6530858D01*
X58184831Y-6584778D01*
X58472618Y-6625532D01*
X58764721Y-6667804D01*
X59035492Y-6708734D01*
X59276631Y-6746934D01*
X59479839Y-6781015D01*
X59636817Y-6809590D01*
X59739265Y-6831271D01*
X59778142Y-6843867D01*
X59797454Y-6894741D01*
X59812403Y-7002031D01*
X59822982Y-7151243D01*
X59829184Y-7327885D01*
X59831002Y-7517464D01*
X59828428Y-7705487D01*
X59821457Y-7877462D01*
X59810079Y-8018896D01*
X59794289Y-8115297D01*
X59778786Y-8150004D01*
X59749267Y-8156737D01*
X59682196Y-8156501D01*
X59573449Y-8148815D01*
X59418903Y-8133194D01*
X59214433Y-8109156D01*
X58955916Y-8076218D01*
X58639229Y-8033898D01*
X58260248Y-7981713D01*
X57851583Y-7924371D01*
X57456018Y-7868549D01*
X57050615Y-7811440D01*
X56646807Y-7754647D01*
X56256020Y-7699774D01*
X55889686Y-7648425D01*
X55559233Y-7602202D01*
X55276091Y-7562709D01*
X55051689Y-7531551D01*
X55048727Y-7531141D01*
X54796653Y-7495472D01*
X54564571Y-7461121D01*
X54362789Y-7429734D01*
X54201617Y-7402958D01*
X54091363Y-7382438D01*
X54044358Y-7370749D01*
X54015882Y-7357460D01*
X53995202Y-7337312D01*
X53981269Y-7300222D01*
X53973029Y-7236106D01*
X53969431Y-7134881D01*
X53969425Y-6986464D01*
X53971958Y-6780771D01*
X53973309Y-6689417D01*
X53982993Y-6040699D01*
X54089816Y-6030211D01*
X54146992Y-6032871D01*
G37*
G36*
X63548989Y-13580769D02*
G01*
X63558901Y-14051468D01*
X63729987Y-14051468D01*
X63872820Y-14030125D01*
X63970863Y-13973751D01*
X64018101Y-13893831D01*
X64008519Y-13801849D01*
X63936103Y-13709289D01*
X63917052Y-13694280D01*
X63815447Y-13619160D01*
X63864644Y-13384458D01*
X63891458Y-13264061D01*
X63914366Y-13174484D01*
X63928345Y-13135254D01*
X63978651Y-13130125D01*
X64063898Y-13160826D01*
X64164878Y-13217186D01*
X64262385Y-13289036D01*
X64315908Y-13340446D01*
X64439522Y-13528149D01*
X64504943Y-13745111D01*
X64509459Y-13976212D01*
X64464532Y-14169274D01*
X64390859Y-14321074D01*
X64283318Y-14436134D01*
X64142993Y-14525351D01*
X64077833Y-14555543D01*
X64004856Y-14577304D01*
X63910306Y-14592420D01*
X63780432Y-14602682D01*
X63601479Y-14609877D01*
X63465458Y-14613451D01*
X63203757Y-14616495D01*
X63166070Y-14615385D01*
X62999939Y-14610491D01*
X62841191Y-14593471D01*
X62714700Y-14563463D01*
X62607653Y-14518496D01*
X62525034Y-14468836D01*
X62380619Y-14331911D01*
X62289431Y-14150312D01*
X62253869Y-13973001D01*
X62256786Y-13813966D01*
X62714935Y-13813966D01*
X62715620Y-13893728D01*
X62759553Y-13972515D01*
X62810448Y-14022826D01*
X62886199Y-14046343D01*
X62990462Y-14051468D01*
X63166070Y-14051468D01*
X63166070Y-13856084D01*
X63166070Y-13660699D01*
X63006210Y-13660699D01*
X62869038Y-13676952D01*
X62777603Y-13729479D01*
X62775301Y-13731748D01*
X62714935Y-13813966D01*
X62256786Y-13813966D01*
X62258203Y-13736743D01*
X62318342Y-13527480D01*
X62429188Y-13354659D01*
X62585646Y-13227726D01*
X62679264Y-13184464D01*
X62790937Y-13157040D01*
X62950802Y-13135146D01*
X63136048Y-13121697D01*
X63183832Y-13119990D01*
X63539077Y-13110070D01*
X63548989Y-13580769D01*
G37*
G36*
X64473127Y-15212733D02*
G01*
X64462713Y-15490210D01*
X63651605Y-15507972D01*
X63389846Y-15514086D01*
X63190037Y-15520083D01*
X63043089Y-15526880D01*
X62939910Y-15535392D01*
X62871410Y-15546532D01*
X62828498Y-15561217D01*
X62802084Y-15580361D01*
X62790137Y-15594692D01*
X62744790Y-15682398D01*
X62758300Y-15761627D01*
X62790147Y-15812021D01*
X62810548Y-15834169D01*
X62841300Y-15851234D01*
X62891442Y-15864047D01*
X62970009Y-15873441D01*
X63086040Y-15880247D01*
X63248573Y-15885298D01*
X63466643Y-15889424D01*
X63661948Y-15892275D01*
X64483377Y-15903571D01*
X64473045Y-16176471D01*
X64462713Y-16449370D01*
X63654914Y-16458917D01*
X62847115Y-16468465D01*
X62789360Y-16556610D01*
X62752053Y-16626013D01*
X62758646Y-16680938D01*
X62789360Y-16732900D01*
X62847115Y-16821045D01*
X63654914Y-16830593D01*
X64462713Y-16840140D01*
X64473089Y-17115454D01*
X64483464Y-17390769D01*
X63380711Y-17390769D01*
X62277958Y-17390769D01*
X62277958Y-17124335D01*
X62279065Y-16988816D01*
X62285711Y-16909378D01*
X62302885Y-16871055D01*
X62335576Y-16858881D01*
X62366769Y-16857902D01*
X62433573Y-16852454D01*
X62448676Y-16828349D01*
X62412080Y-16773947D01*
X62366784Y-16723513D01*
X62279375Y-16580655D01*
X62246103Y-16413411D01*
X62266914Y-16243348D01*
X62341757Y-16092029D01*
X62368415Y-16060182D01*
X62457276Y-15964300D01*
X62369031Y-15859426D01*
X62284028Y-15707720D01*
X62247121Y-15527154D01*
X62259705Y-15342411D01*
X62323173Y-15178172D01*
X62329955Y-15167471D01*
X62372694Y-15108244D01*
X62420240Y-15061227D01*
X62481011Y-15024894D01*
X62563423Y-14997718D01*
X62675895Y-14978174D01*
X62826844Y-14964734D01*
X63024686Y-14955871D01*
X63277840Y-14950060D01*
X63549491Y-14946300D01*
X64483542Y-14935257D01*
X64473127Y-15212733D01*
G37*
G36*
X63569068Y-19560793D02*
G01*
X63744382Y-19567995D01*
X63887168Y-19578707D01*
X63979433Y-19591872D01*
X63987312Y-19593856D01*
X64193874Y-19683405D01*
X64349820Y-19822424D01*
X64453988Y-20009373D01*
X64505218Y-20242711D01*
X64508486Y-20285292D01*
X64509836Y-20426698D01*
X64488468Y-20539864D01*
X64435992Y-20663895D01*
X64420839Y-20693809D01*
X64345197Y-20820894D01*
X64262408Y-20906286D01*
X64146376Y-20976768D01*
X64143941Y-20978005D01*
X64074493Y-21011292D01*
X64009277Y-21035127D01*
X63934888Y-21051080D01*
X63837918Y-21060725D01*
X63704960Y-21065631D01*
X63522605Y-21067373D01*
X63380165Y-21067552D01*
X63379217Y-21067549D01*
X63159396Y-21066864D01*
X62996318Y-21063820D01*
X62877577Y-21056948D01*
X62789819Y-21044776D01*
X62719691Y-21025834D01*
X62653840Y-20998650D01*
X62623819Y-20984210D01*
X62453090Y-20866737D01*
X62337100Y-20707761D01*
X62273976Y-20503866D01*
X62260460Y-20325030D01*
X62739776Y-20325030D01*
X62751142Y-20394986D01*
X62791004Y-20446291D01*
X62868009Y-20481539D01*
X62990802Y-20503325D01*
X63168031Y-20514243D01*
X63379217Y-20516923D01*
X63588624Y-20515100D01*
X63738830Y-20508858D01*
X63841608Y-20497035D01*
X63908733Y-20478469D01*
X63939704Y-20461622D01*
X64006156Y-20378670D01*
X64009713Y-20278589D01*
X63959865Y-20191119D01*
X63929161Y-20165379D01*
X63883536Y-20147404D01*
X63811083Y-20135846D01*
X63699891Y-20129358D01*
X63538052Y-20126594D01*
X63385389Y-20126154D01*
X63154033Y-20128625D01*
X62984447Y-20137922D01*
X62867467Y-20156867D01*
X62793926Y-20188285D01*
X62754659Y-20234997D01*
X62740501Y-20299829D01*
X62739776Y-20325030D01*
X62260460Y-20325030D01*
X62260196Y-20321538D01*
X62283716Y-20081318D01*
X62355479Y-19890712D01*
X62477283Y-19745565D01*
X62525541Y-19709112D01*
X62623636Y-19651191D01*
X62730140Y-19609650D01*
X62858801Y-19582060D01*
X63023367Y-19565989D01*
X63237587Y-19559006D01*
X63379217Y-19558158D01*
X63569068Y-19560793D01*
G37*
G36*
X63569068Y-17749045D02*
G01*
X63744382Y-17756247D01*
X63887168Y-17766959D01*
X63979433Y-17780124D01*
X63987312Y-17782108D01*
X64193874Y-17871656D01*
X64349820Y-18010675D01*
X64453988Y-18197624D01*
X64505218Y-18430963D01*
X64508486Y-18473544D01*
X64509836Y-18614950D01*
X64488468Y-18728115D01*
X64435992Y-18852147D01*
X64420839Y-18882061D01*
X64345197Y-19009146D01*
X64262408Y-19094538D01*
X64146376Y-19165020D01*
X64143941Y-19166257D01*
X64074493Y-19199544D01*
X64009277Y-19223379D01*
X63934888Y-19239332D01*
X63837918Y-19248976D01*
X63704960Y-19253883D01*
X63522605Y-19255625D01*
X63380165Y-19255804D01*
X63379217Y-19255801D01*
X63159396Y-19255116D01*
X62996318Y-19252072D01*
X62877577Y-19245200D01*
X62789819Y-19233028D01*
X62719691Y-19214086D01*
X62653840Y-19186901D01*
X62623819Y-19172462D01*
X62453090Y-19054989D01*
X62337100Y-18896013D01*
X62273976Y-18692118D01*
X62260460Y-18513281D01*
X62739776Y-18513281D01*
X62751142Y-18583238D01*
X62791004Y-18634543D01*
X62868009Y-18669791D01*
X62990802Y-18691576D01*
X63168031Y-18702495D01*
X63379217Y-18705175D01*
X63588624Y-18703352D01*
X63738830Y-18697110D01*
X63841608Y-18685287D01*
X63908733Y-18666721D01*
X63939704Y-18649873D01*
X64006156Y-18566922D01*
X64009713Y-18466841D01*
X63959865Y-18379370D01*
X63929161Y-18353631D01*
X63883536Y-18335656D01*
X63811083Y-18324098D01*
X63699891Y-18317610D01*
X63538052Y-18314846D01*
X63385389Y-18314405D01*
X63154033Y-18316877D01*
X62984447Y-18326174D01*
X62867467Y-18345119D01*
X62793926Y-18376536D01*
X62754659Y-18423249D01*
X62740501Y-18488080D01*
X62739776Y-18513281D01*
X62260460Y-18513281D01*
X62260196Y-18509790D01*
X62283716Y-18269569D01*
X62355479Y-18078963D01*
X62477283Y-17933817D01*
X62525541Y-17897364D01*
X62623636Y-17839442D01*
X62730140Y-17797902D01*
X62858801Y-17770312D01*
X63023367Y-17754241D01*
X63237587Y-17747258D01*
X63379217Y-17746410D01*
X63569068Y-17749045D01*
G37*
G36*
X63650615Y-21389041D02*
G01*
X63861657Y-21395715D01*
X64022979Y-21409347D01*
X64145217Y-21431990D01*
X64239005Y-21465696D01*
X64314981Y-21512520D01*
X64383780Y-21574512D01*
X64391698Y-21582692D01*
X64474688Y-21716220D01*
X64511561Y-21879788D01*
X64499882Y-22047400D01*
X64447451Y-22177692D01*
X64392103Y-22252190D01*
X64346280Y-22291384D01*
X64338900Y-22293147D01*
X64303983Y-22319859D01*
X64302853Y-22328671D01*
X64333254Y-22355376D01*
X64391664Y-22364196D01*
X64436837Y-22367516D01*
X64463317Y-22387454D01*
X64476091Y-22438977D01*
X64480149Y-22537049D01*
X64480475Y-22630629D01*
X64480475Y-22897063D01*
X63379217Y-22897063D01*
X62933666Y-22897063D01*
X61386857Y-22897063D01*
X61397233Y-22621748D01*
X61407608Y-22346433D01*
X61940475Y-22328671D01*
X62120056Y-22321040D01*
X62265910Y-22311641D01*
X62367548Y-22301418D01*
X62414482Y-22291316D01*
X62413032Y-22286093D01*
X62326672Y-22215271D01*
X62288090Y-22133789D01*
X62743325Y-22133789D01*
X62764994Y-22234075D01*
X62795600Y-22272847D01*
X62830028Y-22295257D01*
X62888463Y-22310980D01*
X62981949Y-22321074D01*
X63121531Y-22326594D01*
X63318253Y-22328596D01*
X63379217Y-22328671D01*
X63592364Y-22327400D01*
X63745540Y-22322882D01*
X63849789Y-22314062D01*
X63916156Y-22299882D01*
X63955685Y-22279287D01*
X63962833Y-22272847D01*
X64013933Y-22178561D01*
X64004521Y-22076919D01*
X63937325Y-21992946D01*
X63931928Y-21989286D01*
X63884440Y-21966160D01*
X63817347Y-21950957D01*
X63718227Y-21942725D01*
X63574657Y-21940510D01*
X63374214Y-21943358D01*
X63342835Y-21944062D01*
X63141699Y-21949613D01*
X62999674Y-21956587D01*
X62904823Y-21966724D01*
X62845209Y-21981763D01*
X62808894Y-22003445D01*
X62790123Y-22024622D01*
X62743325Y-22133789D01*
X62288090Y-22133789D01*
X62271665Y-22099102D01*
X62249239Y-21956587D01*
X62260619Y-21806724D01*
X62307032Y-21668512D01*
X62367574Y-21581817D01*
X62436030Y-21518221D01*
X62510621Y-21469964D01*
X62601967Y-21435005D01*
X62720693Y-21411301D01*
X62877421Y-21396809D01*
X63082772Y-21389486D01*
X63347369Y-21387289D01*
X63379217Y-21387272D01*
X63650615Y-21389041D01*
G37*
G36*
X56038722Y-15601278D02*
G01*
X56194458Y-15612360D01*
X56370003Y-15631479D01*
X56548778Y-15656468D01*
X56714203Y-15685163D01*
X56849699Y-15715397D01*
X56938687Y-15745005D01*
X56957522Y-15756169D01*
X56995561Y-15794848D01*
X57010461Y-15843548D01*
X57004852Y-15923898D01*
X56989103Y-16016125D01*
X56970383Y-16274483D01*
X57009872Y-16513559D01*
X57104494Y-16722133D01*
X57221430Y-16862875D01*
X57287062Y-16920963D01*
X57353356Y-16970474D01*
X57427554Y-17013168D01*
X57516900Y-17050802D01*
X57628635Y-17085133D01*
X57770002Y-17117922D01*
X57948244Y-17150925D01*
X58170603Y-17185901D01*
X58444322Y-17224607D01*
X58776644Y-17268803D01*
X59027468Y-17301302D01*
X59285521Y-17335825D01*
X59480637Y-17365166D01*
X59620609Y-17390879D01*
X59713231Y-17414518D01*
X59766294Y-17437637D01*
X59782363Y-17451877D01*
X59801399Y-17512353D01*
X59815622Y-17626955D01*
X59825110Y-17781079D01*
X59829943Y-17960125D01*
X59830199Y-18149488D01*
X59825956Y-18334567D01*
X59817294Y-18500760D01*
X59804290Y-18633463D01*
X59787023Y-18718074D01*
X59775437Y-18739077D01*
X59726646Y-18760093D01*
X59642231Y-18763657D01*
X59507335Y-18750006D01*
X59464598Y-18744020D01*
X59365713Y-18729932D01*
X59207195Y-18707670D01*
X58999798Y-18678730D01*
X58754279Y-18644609D01*
X58481391Y-18606801D01*
X58191890Y-18566804D01*
X58032783Y-18544869D01*
X57586372Y-18483208D01*
X57205240Y-18430143D01*
X56884241Y-18384864D01*
X56618231Y-18346561D01*
X56402064Y-18314423D01*
X56230594Y-18287641D01*
X56098678Y-18265405D01*
X56001170Y-18246905D01*
X55932925Y-18231330D01*
X55888797Y-18217871D01*
X55863642Y-18205719D01*
X55859686Y-18202766D01*
X55841287Y-18172896D01*
X55828585Y-18112715D01*
X55821024Y-18013004D01*
X55818048Y-17864541D01*
X55819099Y-17658107D01*
X55820567Y-17554482D01*
X55830266Y-16946713D01*
X56159869Y-16949540D01*
X56489473Y-16952368D01*
X56269577Y-16834879D01*
X56099110Y-16736390D01*
X55977490Y-16644114D01*
X55886524Y-16540735D01*
X55808021Y-16408937D01*
X55794914Y-16383078D01*
X55735462Y-16218916D01*
X55709389Y-16045115D01*
X55715410Y-15878737D01*
X55752239Y-15736846D01*
X55818592Y-15636505D01*
X55852994Y-15611887D01*
X55919374Y-15600399D01*
X56038722Y-15601278D01*
G37*
G36*
X64480475Y-10301453D02*
G01*
X64479390Y-10437649D01*
X64472849Y-10517703D01*
X64455924Y-10556522D01*
X64423686Y-10569011D01*
X64391664Y-10570070D01*
X64302853Y-10570070D01*
X64375321Y-10642537D01*
X64476093Y-10789763D01*
X64512933Y-10958632D01*
X64484066Y-11136371D01*
X64453777Y-11206985D01*
X64380922Y-11324461D01*
X64294247Y-11403210D01*
X64178776Y-11450074D01*
X64019528Y-11471895D01*
X63886493Y-11475380D01*
X63864955Y-11475944D01*
X63702925Y-11473698D01*
X63592521Y-11464547D01*
X63514396Y-11444867D01*
X63449202Y-11411037D01*
X63423086Y-11393213D01*
X63302872Y-11280049D01*
X63223298Y-11134753D01*
X63177910Y-10943303D01*
X63166780Y-10836503D01*
X63155079Y-10678979D01*
X63556839Y-10678979D01*
X63569171Y-10782423D01*
X63594523Y-10858301D01*
X63667520Y-10933951D01*
X63772376Y-10975161D01*
X63886493Y-10980986D01*
X63987273Y-10950478D01*
X64052117Y-10882690D01*
X64054312Y-10877563D01*
X64081602Y-10795952D01*
X64073369Y-10739965D01*
X64021917Y-10676874D01*
X64002510Y-10657266D01*
X63928306Y-10600596D01*
X63836713Y-10574876D01*
X63736076Y-10570070D01*
X63630332Y-10572281D01*
X63577380Y-10586308D01*
X63558967Y-10623243D01*
X63556839Y-10678979D01*
X63155079Y-10678979D01*
X63148308Y-10587832D01*
X63030339Y-10576513D01*
X62916120Y-10586096D01*
X62826073Y-10621737D01*
X62770972Y-10671359D01*
X62745610Y-10741475D01*
X62739995Y-10846203D01*
X62751639Y-10972388D01*
X62780542Y-11086545D01*
X62793282Y-11115879D01*
X62830267Y-11195275D01*
X62846329Y-11246560D01*
X62846350Y-11247433D01*
X62816557Y-11277283D01*
X62742213Y-11320071D01*
X62645871Y-11365385D01*
X62550081Y-11402811D01*
X62477395Y-11421939D01*
X62466829Y-11422657D01*
X62424364Y-11392879D01*
X62370728Y-11316594D01*
X62338128Y-11253916D01*
X62296644Y-11146454D01*
X62272449Y-11030737D01*
X62261736Y-10882907D01*
X62260196Y-10765454D01*
X62270731Y-10545929D01*
X62306145Y-10381197D01*
X62372153Y-10257637D01*
X62474467Y-10161628D01*
X62527886Y-10127271D01*
X62570252Y-10105033D01*
X62618675Y-10087660D01*
X62682390Y-10074411D01*
X62770629Y-10064542D01*
X62892624Y-10057314D01*
X63057609Y-10051983D01*
X63274816Y-10047809D01*
X63553479Y-10044049D01*
X63565720Y-10043900D01*
X64480475Y-10032836D01*
X64480475Y-10301453D01*
G37*
G36*
X63838948Y-6254597D02*
G01*
X64127810Y-6257013D01*
X64359117Y-6261337D01*
X64539608Y-6267811D01*
X64676023Y-6276680D01*
X64775101Y-6288186D01*
X64843581Y-6302573D01*
X64844651Y-6302882D01*
X65026600Y-6390285D01*
X65170746Y-6528790D01*
X65271935Y-6706398D01*
X65325010Y-6911107D01*
X65324818Y-7130917D01*
X65280253Y-7316951D01*
X65207798Y-7455612D01*
X65102140Y-7581182D01*
X64982590Y-7674157D01*
X64889007Y-7712145D01*
X64832026Y-7720279D01*
X64794730Y-7707557D01*
X64765957Y-7660266D01*
X64734541Y-7564688D01*
X64715696Y-7499213D01*
X64648959Y-7265148D01*
X64742340Y-7178606D01*
X64814117Y-7079481D01*
X64832785Y-6976161D01*
X64795841Y-6888651D01*
X64780458Y-6873885D01*
X64718799Y-6849879D01*
X64605924Y-6829044D01*
X64461666Y-6814849D01*
X64434095Y-6813277D01*
X64142993Y-6798533D01*
X64237339Y-6881434D01*
X64348820Y-7007990D01*
X64401334Y-7149787D01*
X64409294Y-7255077D01*
X64377819Y-7419568D01*
X64293031Y-7565941D01*
X64168894Y-7670523D01*
X64162110Y-7674124D01*
X64026888Y-7721325D01*
X63838624Y-7756224D01*
X63614289Y-7778628D01*
X63370851Y-7788345D01*
X63325930Y-7787766D01*
X63125278Y-7785180D01*
X62894540Y-7768942D01*
X62695606Y-7739436D01*
X62545445Y-7696469D01*
X62536458Y-7692627D01*
X62385267Y-7590769D01*
X62284371Y-7447435D01*
X62243075Y-7276481D01*
X62242566Y-7255077D01*
X62265359Y-7089070D01*
X62306262Y-7017622D01*
X62739776Y-7017622D01*
X62747094Y-7090399D01*
X62775528Y-7142768D01*
X62834801Y-7177969D01*
X62934635Y-7199243D01*
X63084753Y-7209832D01*
X63294878Y-7212976D01*
X63325930Y-7213007D01*
X63544261Y-7210568D01*
X63701367Y-7201090D01*
X63806970Y-7181332D01*
X63870794Y-7148054D01*
X63902560Y-7098014D01*
X63911991Y-7027973D01*
X63912084Y-7017622D01*
X63891733Y-6926809D01*
X63853337Y-6870993D01*
X63804220Y-6849020D01*
X63712993Y-6834140D01*
X63570580Y-6825515D01*
X63367906Y-6822305D01*
X63325930Y-6822238D01*
X63107599Y-6824677D01*
X62950493Y-6834155D01*
X62844889Y-6853912D01*
X62781066Y-6887190D01*
X62749300Y-6937230D01*
X62739869Y-7007272D01*
X62739776Y-7017622D01*
X62306262Y-7017622D01*
X62341508Y-6956056D01*
X62414521Y-6884582D01*
X62508867Y-6804828D01*
X62391918Y-6804652D01*
X62274969Y-6804475D01*
X62285345Y-6529161D01*
X62295720Y-6253846D01*
X63485790Y-6253846D01*
X63838948Y-6254597D01*
G37*
G36*
X57546877Y-19107348D02*
G01*
X57754273Y-19138500D01*
X57940522Y-19184812D01*
X58083904Y-19241695D01*
X58114409Y-19259541D01*
X58189260Y-19327167D01*
X58260774Y-19419281D01*
X58265255Y-19426475D01*
X58284542Y-19461966D01*
X58299885Y-19503579D01*
X58311734Y-19559354D01*
X58320538Y-19637329D01*
X58326747Y-19745544D01*
X58330808Y-19892040D01*
X58333172Y-20084854D01*
X58334288Y-20332027D01*
X58334604Y-20641597D01*
X58334608Y-20667902D01*
X58334653Y-20995765D01*
X58335654Y-21258329D01*
X58339040Y-21461345D01*
X58346238Y-21610562D01*
X58358678Y-21711728D01*
X58377787Y-21770593D01*
X58404993Y-21792906D01*
X58441726Y-21784417D01*
X58489413Y-21750875D01*
X58549483Y-21698029D01*
X58582972Y-21667640D01*
X58676945Y-21565790D01*
X58741601Y-21449362D01*
X58781418Y-21303569D01*
X58800872Y-21113626D01*
X58804792Y-20935046D01*
X58794681Y-20703729D01*
X58760396Y-20503974D01*
X58723863Y-20377374D01*
X58682492Y-20241347D01*
X58665991Y-20154623D01*
X58672350Y-20100736D01*
X58687124Y-20076315D01*
X58737788Y-20033862D01*
X58830689Y-19970660D01*
X58948601Y-19896899D01*
X59074297Y-19822771D01*
X59190549Y-19758468D01*
X59280131Y-19714182D01*
X59323445Y-19699860D01*
X59379401Y-19731092D01*
X59452724Y-19816211D01*
X59536446Y-19942352D01*
X59623600Y-20096651D01*
X59707218Y-20266243D01*
X59780334Y-20438262D01*
X59835979Y-20599845D01*
X59858288Y-20687413D01*
X59881285Y-20853875D01*
X59892746Y-21062136D01*
X59893028Y-21288181D01*
X59882491Y-21507997D01*
X59861493Y-21697572D01*
X59841727Y-21795804D01*
X59721922Y-22125798D01*
X59548657Y-22421790D01*
X59329106Y-22676629D01*
X59070443Y-22883165D01*
X58779843Y-23034247D01*
X58521104Y-23112082D01*
X58379032Y-23130794D01*
X58190185Y-23140261D01*
X57978359Y-23139461D01*
X57927153Y-23137644D01*
X57732576Y-23126533D01*
X57582647Y-23108741D01*
X57450983Y-23079196D01*
X57356054Y-23047703D01*
X57311202Y-23032823D01*
X57239244Y-23005357D01*
X56874497Y-22825593D01*
X56548873Y-22589910D01*
X56268222Y-22305018D01*
X56038397Y-21977624D01*
X55865246Y-21614438D01*
X55777760Y-21329585D01*
X55714825Y-20946472D01*
X55714762Y-20937167D01*
X56835608Y-20937167D01*
X56865389Y-21182445D01*
X56952308Y-21395352D01*
X57048863Y-21523661D01*
X57132817Y-21598799D01*
X57229711Y-21667430D01*
X57315576Y-21713862D01*
X57356054Y-21724755D01*
X57361971Y-21690998D01*
X57367168Y-21596795D01*
X57371354Y-21452747D01*
X57374240Y-21269456D01*
X57375537Y-21057524D01*
X57375580Y-21009825D01*
X57375580Y-20294895D01*
X57260126Y-20317508D01*
X57088726Y-20384175D01*
X56958381Y-20505666D01*
X56873043Y-20676213D01*
X56836662Y-20890050D01*
X56835608Y-20937167D01*
X55714762Y-20937167D01*
X55712395Y-20586642D01*
X55767237Y-20254714D01*
X55876120Y-19955309D01*
X56035813Y-19693046D01*
X56243084Y-19472547D01*
X56494703Y-19298431D01*
X56787436Y-19175317D01*
X57118054Y-19107827D01*
X57340056Y-19095944D01*
X57546877Y-19107348D01*
G37*
G36*
X55946267Y-8520240D02*
G01*
X56029648Y-8527083D01*
X56147956Y-8539591D01*
X56305164Y-8558278D01*
X56505243Y-8583659D01*
X56752164Y-8616248D01*
X57049899Y-8656558D01*
X57402420Y-8705104D01*
X57813697Y-8762400D01*
X58287703Y-8828960D01*
X58775826Y-8897861D01*
X59070056Y-8940154D01*
X59301308Y-8975196D01*
X59477111Y-9004489D01*
X59604995Y-9029532D01*
X59692488Y-9051826D01*
X59747121Y-9072872D01*
X59776422Y-9094171D01*
X59779392Y-9097878D01*
X59799647Y-9149255D01*
X59813821Y-9244408D01*
X59822540Y-9391300D01*
X59826427Y-9597892D01*
X59826769Y-9702160D01*
X59825701Y-9929084D01*
X59819846Y-10093998D01*
X59805223Y-10205936D01*
X59777856Y-10273933D01*
X59733764Y-10307023D01*
X59668969Y-10314241D01*
X59579494Y-10304620D01*
X59562553Y-10302112D01*
X59452200Y-10293036D01*
X59406907Y-10311055D01*
X59424787Y-10359470D01*
X59490179Y-10428810D01*
X59639181Y-10611112D01*
X59760447Y-10843386D01*
X59849449Y-11108449D01*
X59901657Y-11389122D01*
X59912542Y-11668223D01*
X59881323Y-11912588D01*
X59779969Y-12236528D01*
X59633933Y-12506590D01*
X59440770Y-12726027D01*
X59198033Y-12898095D01*
X59104661Y-12945968D01*
X58889668Y-13033481D01*
X58672919Y-13089955D01*
X58431370Y-13119883D01*
X58171635Y-13127832D01*
X57937374Y-13113216D01*
X57752345Y-13101671D01*
X57367396Y-13021081D01*
X57001940Y-12882900D01*
X56985911Y-12875370D01*
X56682172Y-12711098D01*
X56430781Y-12526028D01*
X56213202Y-12304219D01*
X56021512Y-12045811D01*
X55881857Y-11797501D01*
X55788952Y-11537181D01*
X55738087Y-11247367D01*
X55724361Y-10943077D01*
X55730405Y-10763612D01*
X56956844Y-10763612D01*
X56969489Y-11011974D01*
X57046604Y-11239217D01*
X57183099Y-11438686D01*
X57373883Y-11603722D01*
X57613864Y-11727667D01*
X57721940Y-11764088D01*
X57937374Y-11794818D01*
X58147610Y-11766750D01*
X58338974Y-11686226D01*
X58497791Y-11559591D01*
X58610390Y-11393185D01*
X58631043Y-11342399D01*
X58674658Y-11188942D01*
X58683041Y-11052974D01*
X58656572Y-10901153D01*
X58636864Y-10830377D01*
X58549217Y-10640277D01*
X58409022Y-10457558D01*
X58233666Y-10302139D01*
X58108214Y-10224753D01*
X57897739Y-10149813D01*
X57672793Y-10125869D01*
X57456143Y-10153408D01*
X57313452Y-10207794D01*
X57145702Y-10334642D01*
X57026085Y-10507716D01*
X56962526Y-10714666D01*
X56956844Y-10763612D01*
X55730405Y-10763612D01*
X55732475Y-10702147D01*
X55760355Y-10511998D01*
X55814707Y-10353571D01*
X55902238Y-10207808D01*
X56029655Y-10055651D01*
X56040900Y-10043564D01*
X56137258Y-9937680D01*
X56187030Y-9872322D01*
X56194106Y-9838017D01*
X56162380Y-9825290D01*
X56131083Y-9824056D01*
X56050142Y-9810550D01*
X55947891Y-9777537D01*
X55935698Y-9772582D01*
X55812503Y-9721108D01*
X55812503Y-9132026D01*
X55813355Y-8910647D01*
X55816519Y-8750344D01*
X55822907Y-8641160D01*
X55833430Y-8573136D01*
X55849000Y-8536313D01*
X55868403Y-8521494D01*
X55893843Y-8518549D01*
X55946267Y-8520240D01*
G37*
G36*
X54919980Y-23489375D02*
G01*
X55007107Y-23554492D01*
X55118737Y-23650843D01*
X55244968Y-23768462D01*
X55375894Y-23897386D01*
X55501612Y-24027649D01*
X55612219Y-24149287D01*
X55697811Y-24252336D01*
X55748483Y-24326831D01*
X55756670Y-24360315D01*
X55719085Y-24415795D01*
X55656806Y-24500044D01*
X55630087Y-24534827D01*
X55487492Y-24753758D01*
X55386184Y-24984068D01*
X55330342Y-25210853D01*
X55324149Y-25419212D01*
X55348726Y-25537701D01*
X55426596Y-25683061D01*
X55541601Y-25785650D01*
X55678469Y-25838010D01*
X55821925Y-25832686D01*
X55894769Y-25804267D01*
X55936731Y-25779554D01*
X55974616Y-25748344D01*
X56014235Y-25701629D01*
X56061396Y-25630405D01*
X56121910Y-25525663D01*
X56201588Y-25378397D01*
X56306237Y-25179602D01*
X56342603Y-25110039D01*
X56505085Y-24805731D01*
X56645902Y-24558867D01*
X56771169Y-24361498D01*
X56887001Y-24205677D01*
X56999511Y-24083453D01*
X57114814Y-23986877D01*
X57239025Y-23908002D01*
X57286769Y-23882577D01*
X57489716Y-23807338D01*
X57735653Y-23760404D01*
X58001617Y-23743655D01*
X58264645Y-23758974D01*
X58430756Y-23788824D01*
X58747430Y-23900008D01*
X59045401Y-24071839D01*
X59311629Y-24294139D01*
X59533074Y-24556731D01*
X59641138Y-24733379D01*
X59771172Y-25041195D01*
X59860954Y-25387728D01*
X59906705Y-25750720D01*
X59904645Y-26107916D01*
X59893226Y-26217699D01*
X59808357Y-26631205D01*
X59667641Y-27003979D01*
X59472225Y-27333557D01*
X59257400Y-27584433D01*
X59148804Y-27690679D01*
X59062803Y-27763032D01*
X58988425Y-27799132D01*
X58914697Y-27796619D01*
X58830646Y-27753135D01*
X58725298Y-27666319D01*
X58587682Y-27533812D01*
X58468456Y-27414787D01*
X58328867Y-27271727D01*
X58209067Y-27142322D01*
X58117502Y-27036235D01*
X58062618Y-26963127D01*
X58050545Y-26936717D01*
X58073246Y-26882639D01*
X58133209Y-26795088D01*
X58218223Y-26691585D01*
X58232491Y-26675646D01*
X58408735Y-26453704D01*
X58524128Y-26238832D01*
X58585208Y-26015598D01*
X58599324Y-25810070D01*
X58579062Y-25566807D01*
X58520630Y-25381571D01*
X58421966Y-25251198D01*
X58281004Y-25172521D01*
X58167353Y-25147802D01*
X58065772Y-25144514D01*
X57977878Y-25166768D01*
X57896119Y-25222111D01*
X57812943Y-25318086D01*
X57720796Y-25462239D01*
X57612126Y-25662115D01*
X57569705Y-25744830D01*
X57422353Y-26029134D01*
X57295979Y-26258386D01*
X57183853Y-26442953D01*
X57079241Y-26593205D01*
X56975414Y-26719512D01*
X56865638Y-26832242D01*
X56860743Y-26836884D01*
X56622813Y-27025043D01*
X56370746Y-27148328D01*
X56090860Y-27212913D01*
X56009390Y-27221040D01*
X55649075Y-27215223D01*
X55310624Y-27142716D01*
X54997802Y-27004878D01*
X54714375Y-26803071D01*
X54626830Y-26721570D01*
X54388471Y-26437862D01*
X54210336Y-26118834D01*
X54091758Y-25762796D01*
X54032074Y-25368057D01*
X54024382Y-25188391D01*
X54031795Y-24904404D01*
X54066402Y-24659911D01*
X54134137Y-24426613D01*
X54233154Y-24192572D01*
X54313143Y-24047411D01*
X54415608Y-23895946D01*
X54529844Y-23750451D01*
X54645147Y-23623203D01*
X54750812Y-23526474D01*
X54836134Y-23472540D01*
X54867261Y-23465454D01*
X54919980Y-23489375D01*
G37*
G36*
X64488635Y-23853712D02*
G01*
X64708175Y-23877013D01*
X64867687Y-23902263D01*
X64978162Y-23933409D01*
X65050594Y-23974391D01*
X65095973Y-24029156D01*
X65118148Y-24079568D01*
X65143175Y-24154128D01*
X65153256Y-24189767D01*
X65153189Y-24190126D01*
X65139990Y-24221343D01*
X65119575Y-24271565D01*
X65068597Y-24350180D01*
X64979795Y-24412232D01*
X64842164Y-24463181D01*
X64644697Y-24508487D01*
X64640336Y-24509321D01*
X64492333Y-24539115D01*
X64233842Y-24591150D01*
X64110237Y-24619897D01*
X63888739Y-24671410D01*
X63595587Y-24754093D01*
X63344946Y-24843190D01*
X63127374Y-24942694D01*
X62933433Y-25056597D01*
X62753682Y-25188892D01*
X62578680Y-25343570D01*
X62510484Y-25410021D01*
X62350744Y-25577695D01*
X62215616Y-25741532D01*
X62100706Y-25911482D01*
X62001620Y-26097495D01*
X61913962Y-26309521D01*
X61833339Y-26557511D01*
X61755355Y-26851415D01*
X61675617Y-27201183D01*
X61635620Y-27390909D01*
X61591860Y-27595139D01*
X61580770Y-27640338D01*
X61555928Y-27741585D01*
X61523707Y-27842497D01*
X61491078Y-27910127D01*
X61453923Y-27956728D01*
X61441572Y-27968182D01*
X61321730Y-28036704D01*
X61240182Y-28035050D01*
X61201031Y-28034256D01*
X61089797Y-27968182D01*
X61047603Y-27924045D01*
X61017544Y-27868798D01*
X60995115Y-27786860D01*
X60975810Y-27662652D01*
X60958819Y-27515245D01*
X60949133Y-27373147D01*
X61097464Y-27373147D01*
X61122571Y-27574100D01*
X61143298Y-27720761D01*
X61165168Y-27809623D01*
X61195142Y-27853699D01*
X61240182Y-27866000D01*
X61277429Y-27863530D01*
X61338924Y-27844012D01*
X61379299Y-27790919D01*
X61411501Y-27692867D01*
X61448263Y-27543915D01*
X61459078Y-27450202D01*
X61439989Y-27402291D01*
X61438675Y-27398993D01*
X61381784Y-27377554D01*
X61283133Y-27373149D01*
X61279179Y-27373147D01*
X61097464Y-27373147D01*
X60949133Y-27373147D01*
X60936497Y-27187755D01*
X60935596Y-26901042D01*
X61101062Y-26901042D01*
X61112237Y-27057164D01*
X61123412Y-27213286D01*
X61324986Y-27223860D01*
X61439989Y-27227392D01*
X61502648Y-27218515D01*
X61531384Y-27191205D01*
X61542176Y-27152811D01*
X61560043Y-27036052D01*
X61554932Y-26972901D01*
X61523964Y-26948818D01*
X61501378Y-26946853D01*
X61426947Y-26942139D01*
X61316802Y-26930261D01*
X61268175Y-26923948D01*
X61101062Y-26901042D01*
X60935596Y-26901042D01*
X60935393Y-26836321D01*
X60938779Y-26769231D01*
X61105650Y-26769231D01*
X61274391Y-26769716D01*
X61393781Y-26774407D01*
X61494731Y-26785632D01*
X61521452Y-26791200D01*
X61580770Y-26793864D01*
X61612149Y-26748280D01*
X61621837Y-26710785D01*
X61739873Y-26319329D01*
X61918395Y-25934934D01*
X62147789Y-25576246D01*
X62309438Y-25377087D01*
X62515864Y-25177107D01*
X62764986Y-24986235D01*
X63037904Y-24815822D01*
X63315721Y-24677219D01*
X63579537Y-24581777D01*
X63670608Y-24559512D01*
X63876559Y-24516973D01*
X63876559Y-24368661D01*
X63870666Y-24240570D01*
X63856203Y-24119638D01*
X63853425Y-24104676D01*
X63832154Y-23998321D01*
X64010118Y-23998321D01*
X64025481Y-24210721D01*
X64037217Y-24327601D01*
X64051965Y-24413833D01*
X64063619Y-24445894D01*
X64110237Y-24454798D01*
X64196272Y-24447731D01*
X64216643Y-24444233D01*
X64301318Y-24423902D01*
X64333295Y-24390172D01*
X64329960Y-24318194D01*
X64325263Y-24288990D01*
X64310404Y-24178146D01*
X64303327Y-24084290D01*
X64303244Y-24078252D01*
X64293838Y-24027030D01*
X64274683Y-24016084D01*
X64462713Y-24016084D01*
X64474278Y-24193429D01*
X64482078Y-24296163D01*
X64489270Y-24363341D01*
X64492333Y-24377265D01*
X64528748Y-24374480D01*
X64610809Y-24357796D01*
X64715847Y-24332830D01*
X64821190Y-24305196D01*
X64904170Y-24280510D01*
X64939421Y-24266531D01*
X64974933Y-24209721D01*
X64966804Y-24134867D01*
X64919293Y-24076399D01*
X64915650Y-24074358D01*
X64846069Y-24053460D01*
X64735291Y-24035784D01*
X64658098Y-24028703D01*
X64462713Y-24016084D01*
X64274683Y-24016084D01*
X64253373Y-24003907D01*
X64162469Y-23998329D01*
X64156485Y-23998321D01*
X64010118Y-23998321D01*
X63832154Y-23998321D01*
X63830290Y-23989002D01*
X63542585Y-24012441D01*
X63239552Y-24045221D01*
X62931806Y-24093153D01*
X62633315Y-24152970D01*
X62358049Y-24221407D01*
X62119975Y-24295196D01*
X61933063Y-24371073D01*
X61873119Y-24402811D01*
X61666067Y-24563180D01*
X61501066Y-24778414D01*
X61458223Y-24856147D01*
X61394559Y-25010059D01*
X61329641Y-25217962D01*
X61266952Y-25462959D01*
X61209976Y-25728150D01*
X61162199Y-25996635D01*
X61127105Y-26251518D01*
X61108178Y-26475898D01*
X61105860Y-26564965D01*
X61105650Y-26769231D01*
X60938779Y-26769231D01*
X60953754Y-26472526D01*
X60989828Y-26107957D01*
X61041860Y-25754199D01*
X61108099Y-25422836D01*
X61186790Y-25125454D01*
X61276180Y-24873638D01*
X61374517Y-24678973D01*
X61392068Y-24652295D01*
X61519882Y-24488493D01*
X61661283Y-24356265D01*
X61829028Y-24248144D01*
X62035871Y-24156663D01*
X62294571Y-24074353D01*
X62448074Y-24034126D01*
X63050893Y-23911465D01*
X63641751Y-23845046D01*
X64209495Y-23835853D01*
X64488635Y-23853712D01*
G37*
%TO.C,J6*%
X46190000Y-37511600D02*
X47520000Y-37511600D01*
X46190000Y-38841600D02*
X46190000Y-37511600D01*
X46190000Y-40111600D02*
X46190000Y-52871600D01*
X46190000Y-40111600D02*
X48850000Y-40111600D01*
X46190000Y-52871600D02*
X48850000Y-52871600D01*
X48850000Y-40111600D02*
X48850000Y-52871600D01*
%TO.C,J5*%
X71202000Y-50352000D02*
X69872000Y-50352000D01*
X71202000Y-49022000D02*
X71202000Y-50352000D01*
X71202000Y-47752000D02*
X71202000Y-29912000D01*
X71202000Y-47752000D02*
X68542000Y-47752000D01*
X71202000Y-29912000D02*
X68542000Y-29912000D01*
X68542000Y-47752000D02*
X68542000Y-29912000D01*
%TO.C,J4*%
X46190000Y-4512000D02*
X47520000Y-4512000D01*
X46190000Y-5842000D02*
X46190000Y-4512000D01*
X46190000Y-7112000D02*
X46190000Y-22412000D01*
X46190000Y-7112000D02*
X48850000Y-7112000D01*
X46190000Y-22412000D02*
X48850000Y-22412000D01*
X48850000Y-7112000D02*
X48850000Y-22412000D01*
%TO.C,J1*%
X2258000Y-7934000D02*
X2258000Y-6604000D01*
X3588000Y-7934000D02*
X2258000Y-7934000D01*
X4858000Y-7934000D02*
X12538000Y-7934000D01*
X4858000Y-7934000D02*
X4858000Y-5334000D01*
X12538000Y-7934000D02*
X12538000Y-2734000D01*
X2258000Y-5334000D02*
X2258000Y-2734000D01*
X4858000Y-5334000D02*
X2258000Y-5334000D01*
X2258000Y-2734000D02*
X12538000Y-2734000D01*
%TO.C,J9*%
X73742000Y-47752000D02*
X73742000Y-29912000D01*
X73742000Y-47752000D02*
X71082000Y-47752000D01*
X73742000Y-29912000D02*
X71082000Y-29912000D01*
X72412000Y-50352000D02*
X71082000Y-50352000D01*
X71082000Y-50352000D02*
X71082000Y-49022000D01*
X71082000Y-47752000D02*
X71082000Y-29912000D01*
%TO.C,J3*%
X68542000Y-1972000D02*
X69872000Y-1972000D01*
X68542000Y-3302000D02*
X68542000Y-1972000D01*
X68542000Y-4572000D02*
X68542000Y-19872000D01*
X68542000Y-4572000D02*
X71202000Y-4572000D01*
X68542000Y-19872000D02*
X71202000Y-19872000D01*
X71202000Y-4572000D02*
X71202000Y-19872000D01*
%TO.C,J2*%
X15588000Y-7939000D02*
X15588000Y-6609000D01*
X16918000Y-7939000D02*
X15588000Y-7939000D01*
X18188000Y-7939000D02*
X28408000Y-7939000D01*
X18188000Y-7939000D02*
X18188000Y-5339000D01*
X28408000Y-7939000D02*
X28408000Y-2739000D01*
X15588000Y-5339000D02*
X15588000Y-2739000D01*
X18188000Y-5339000D02*
X15588000Y-5339000D01*
X15588000Y-2739000D02*
X28408000Y-2739000D01*
%TD*%
M02*
