%TF.GenerationSoftware,KiCad,Pcbnew,7.0.10*%
%TF.CreationDate,2024-04-04T23:26:05+02:00*%
%TF.ProjectId,serial-boomerang-shield,73657269-616c-42d6-926f-6f6d6572616e,v0.1*%
%TF.SameCoordinates,Original*%
%TF.FileFunction,Copper,L2,Bot*%
%TF.FilePolarity,Positive*%
%FSLAX46Y46*%
G04 Gerber Fmt 4.6, Leading zero omitted, Abs format (unit mm)*
G04 Created by KiCad (PCBNEW 7.0.10) date 2024-04-04 23:26:05*
%MOMM*%
%LPD*%
G01*
G04 APERTURE LIST*
%TA.AperFunction,ComponentPad*%
%ADD10R,1.700000X1.700000*%
%TD*%
%TA.AperFunction,ComponentPad*%
%ADD11O,1.700000X1.700000*%
%TD*%
G04 APERTURE END LIST*
D10*
%TO.P,U1,1,3V3*%
%TO.N,unconnected-(U1-3V3-Pad1)*%
X52500000Y-34965000D03*
D11*
%TO.P,U1,2,DTR*%
%TO.N,unconnected-(U1-DTR-Pad2)*%
X55040000Y-34965000D03*
%TO.P,U1,3,RXI*%
%TO.N,Net-(J10-Pin_3)*%
X57580000Y-34965000D03*
%TO.P,U1,4,TXD*%
%TO.N,Net-(J10-Pin_2)*%
X60120000Y-34965000D03*
%TO.P,U1,5,GND*%
%TO.N,GND*%
X62660000Y-34965000D03*
%TO.P,U1,6,+5V*%
%TO.N,unconnected-(U1-+5V-Pad6)*%
X65200000Y-34965000D03*
%TD*%
D10*
%TO.P,J7,1,Pin_1*%
%TO.N,Net-(J3-Pin_1)*%
X72412000Y-3302000D03*
D11*
%TO.P,J7,2,Pin_2*%
%TO.N,Net-(J3-Pin_2)*%
X72412000Y-5842000D03*
%TO.P,J7,3,Pin_3*%
%TO.N,Net-(J3-Pin_3)*%
X72412000Y-8382000D03*
%TO.P,J7,4,Pin_4*%
%TO.N,Net-(J3-Pin_4)*%
X72412000Y-10922000D03*
%TO.P,J7,5,Pin_5*%
%TO.N,Net-(J3-Pin_5)*%
X72412000Y-13462000D03*
%TO.P,J7,6,Pin_6*%
%TO.N,Net-(J3-Pin_6)*%
X72412000Y-16002000D03*
%TO.P,J7,7,Pin_7*%
%TO.N,Net-(J3-Pin_7)*%
X72412000Y-18542000D03*
%TD*%
D10*
%TO.P,J8,1,Pin_1*%
%TO.N,Net-(J4-Pin_1)*%
X44980000Y-5841200D03*
D11*
%TO.P,J8,2,Pin_2*%
%TO.N,Net-(J4-Pin_2)*%
X44980000Y-8381200D03*
%TO.P,J8,3,Pin_3*%
%TO.N,Net-(J4-Pin_3)*%
X44980000Y-10921200D03*
%TO.P,J8,4,Pin_4*%
%TO.N,Net-(J4-Pin_4)*%
X44980000Y-13461200D03*
%TO.P,J8,5,Pin_5*%
%TO.N,Net-(J4-Pin_5)*%
X44980000Y-16001200D03*
%TO.P,J8,6,Pin_6*%
%TO.N,Net-(J4-Pin_6)*%
X44980000Y-18541200D03*
%TO.P,J8,7,Pin_7*%
%TO.N,Net-(J4-Pin_7)*%
X44980000Y-21081200D03*
%TD*%
D10*
%TO.P,J10,1,Pin_1*%
%TO.N,Net-(J10-Pin_1)*%
X44980000Y-38835800D03*
D11*
%TO.P,J10,2,Pin_2*%
%TO.N,Net-(J10-Pin_2)*%
X44980000Y-41375800D03*
%TO.P,J10,3,Pin_3*%
%TO.N,Net-(J10-Pin_3)*%
X44980000Y-43915800D03*
%TO.P,J10,4,Pin_4*%
%TO.N,Net-(J10-Pin_4)*%
X44980000Y-46455800D03*
%TO.P,J10,5,Pin_5*%
%TO.N,Net-(J10-Pin_5)*%
X44980000Y-48995800D03*
%TO.P,J10,6,Pin_6*%
%TO.N,Net-(J10-Pin_6)*%
X44980000Y-51535800D03*
%TD*%
D10*
%TO.P,J6,1,Pin_1*%
%TO.N,Net-(J10-Pin_1)*%
X47520000Y-38841600D03*
D11*
%TO.P,J6,2,Pin_2*%
%TO.N,Net-(J10-Pin_2)*%
X47520000Y-41381600D03*
%TO.P,J6,3,Pin_3*%
%TO.N,Net-(J10-Pin_3)*%
X47520000Y-43921600D03*
%TO.P,J6,4,Pin_4*%
%TO.N,Net-(J10-Pin_4)*%
X47520000Y-46461600D03*
%TO.P,J6,5,Pin_5*%
%TO.N,Net-(J10-Pin_5)*%
X47520000Y-49001600D03*
%TO.P,J6,6,Pin_6*%
%TO.N,Net-(J10-Pin_6)*%
X47520000Y-51541600D03*
%TD*%
D10*
%TO.P,J5,1,Pin_1*%
%TO.N,Net-(J5-Pin_1)*%
X69872000Y-49022000D03*
D11*
%TO.P,J5,2,Pin_2*%
%TO.N,Net-(J5-Pin_2)*%
X69872000Y-46482000D03*
%TO.P,J5,3,Pin_3*%
%TO.N,Net-(J5-Pin_3)*%
X69872000Y-43942000D03*
%TO.P,J5,4,Pin_4*%
%TO.N,Net-(J5-Pin_4)*%
X69872000Y-41402000D03*
%TO.P,J5,5,Pin_5*%
%TO.N,Net-(J5-Pin_5)*%
X69872000Y-38862000D03*
%TO.P,J5,6,Pin_6*%
%TO.N,Net-(J5-Pin_6)*%
X69872000Y-36322000D03*
%TO.P,J5,7,Pin_7*%
%TO.N,Net-(J5-Pin_7)*%
X69872000Y-33782000D03*
%TO.P,J5,8,Pin_8*%
%TO.N,Net-(J5-Pin_8)*%
X69872000Y-31242000D03*
%TD*%
D10*
%TO.P,J4,1,Pin_1*%
%TO.N,Net-(J4-Pin_1)*%
X47520000Y-5842000D03*
D11*
%TO.P,J4,2,Pin_2*%
%TO.N,Net-(J4-Pin_2)*%
X47520000Y-8382000D03*
%TO.P,J4,3,Pin_3*%
%TO.N,Net-(J4-Pin_3)*%
X47520000Y-10922000D03*
%TO.P,J4,4,Pin_4*%
%TO.N,Net-(J4-Pin_4)*%
X47520000Y-13462000D03*
%TO.P,J4,5,Pin_5*%
%TO.N,Net-(J4-Pin_5)*%
X47520000Y-16002000D03*
%TO.P,J4,6,Pin_6*%
%TO.N,Net-(J4-Pin_6)*%
X47520000Y-18542000D03*
%TO.P,J4,7,Pin_7*%
%TO.N,Net-(J4-Pin_7)*%
X47520000Y-21082000D03*
%TD*%
D10*
%TO.P,J1,1,Pin_1*%
%TO.N,unconnected-(J1-Pin_1-Pad1)*%
X3588000Y-6604000D03*
D11*
%TO.P,J1,2,Pin_2*%
%TO.N,GND*%
X3588000Y-4064000D03*
%TO.P,J1,3,Pin_3*%
%TO.N,unconnected-(J1-Pin_3-Pad3)*%
X6128000Y-6604000D03*
%TO.P,J1,4,Pin_4*%
%TO.N,GND*%
X6128000Y-4064000D03*
%TO.P,J1,5,Pin_5*%
%TO.N,unconnected-(J1-Pin_5-Pad5)*%
X8668000Y-6604000D03*
%TO.P,J1,6,Pin_6*%
%TO.N,GND*%
X8668000Y-4064000D03*
%TO.P,J1,7,Pin_7*%
%TO.N,unconnected-(J1-Pin_7-Pad7)*%
X11208000Y-6604000D03*
%TO.P,J1,8,Pin_8*%
%TO.N,GND*%
X11208000Y-4064000D03*
%TD*%
D10*
%TO.P,J9,1,Pin_1*%
%TO.N,Net-(J5-Pin_1)*%
X72412000Y-49022000D03*
D11*
%TO.P,J9,2,Pin_2*%
%TO.N,Net-(J5-Pin_2)*%
X72412000Y-46482000D03*
%TO.P,J9,3,Pin_3*%
%TO.N,Net-(J5-Pin_3)*%
X72412000Y-43942000D03*
%TO.P,J9,4,Pin_4*%
%TO.N,Net-(J5-Pin_4)*%
X72412000Y-41402000D03*
%TO.P,J9,5,Pin_5*%
%TO.N,Net-(J5-Pin_5)*%
X72412000Y-38862000D03*
%TO.P,J9,6,Pin_6*%
%TO.N,Net-(J5-Pin_6)*%
X72412000Y-36322000D03*
%TO.P,J9,7,Pin_7*%
%TO.N,Net-(J5-Pin_7)*%
X72412000Y-33782000D03*
%TO.P,J9,8,Pin_8*%
%TO.N,Net-(J5-Pin_8)*%
X72412000Y-31242000D03*
%TD*%
D10*
%TO.P,J3,1,Pin_1*%
%TO.N,Net-(J3-Pin_1)*%
X69872000Y-3302000D03*
D11*
%TO.P,J3,2,Pin_2*%
%TO.N,Net-(J3-Pin_2)*%
X69872000Y-5842000D03*
%TO.P,J3,3,Pin_3*%
%TO.N,Net-(J3-Pin_3)*%
X69872000Y-8382000D03*
%TO.P,J3,4,Pin_4*%
%TO.N,Net-(J3-Pin_4)*%
X69872000Y-10922000D03*
%TO.P,J3,5,Pin_5*%
%TO.N,Net-(J3-Pin_5)*%
X69872000Y-13462000D03*
%TO.P,J3,6,Pin_6*%
%TO.N,Net-(J3-Pin_6)*%
X69872000Y-16002000D03*
%TO.P,J3,7,Pin_7*%
%TO.N,Net-(J3-Pin_7)*%
X69872000Y-18542000D03*
%TD*%
D10*
%TO.P,J2,1,Pin_1*%
%TO.N,unconnected-(J2-Pin_1-Pad1)*%
X16918000Y-6609000D03*
D11*
%TO.P,J2,2,Pin_2*%
%TO.N,unconnected-(J2-Pin_2-Pad2)*%
X16918000Y-4069000D03*
%TO.P,J2,3,Pin_3*%
%TO.N,unconnected-(J2-Pin_3-Pad3)*%
X19458000Y-6609000D03*
%TO.P,J2,4,Pin_4*%
%TO.N,GND*%
X19458000Y-4069000D03*
%TO.P,J2,5,Pin_5*%
%TO.N,unconnected-(J2-Pin_5-Pad5)*%
X21998000Y-6609000D03*
%TO.P,J2,6,Pin_6*%
%TO.N,GND*%
X21998000Y-4069000D03*
%TO.P,J2,7,Pin_7*%
%TO.N,unconnected-(J2-Pin_7-Pad7)*%
X24538000Y-6609000D03*
%TO.P,J2,8,Pin_8*%
%TO.N,GND*%
X24538000Y-4069000D03*
%TO.P,J2,9,Pin_9*%
%TO.N,unconnected-(J2-Pin_9-Pad9)*%
X27078000Y-6609000D03*
%TO.P,J2,10,Pin_10*%
%TO.N,GND*%
X27078000Y-4069000D03*
%TD*%
%TA.AperFunction,Conductor*%
%TO.N,GND*%
G36*
X21538507Y-3859156D02*
G01*
X21498000Y-3997111D01*
X21498000Y-4140889D01*
X21538507Y-4278844D01*
X21564314Y-4319000D01*
X19891686Y-4319000D01*
X19917493Y-4278844D01*
X19958000Y-4140889D01*
X19958000Y-3997111D01*
X19917493Y-3859156D01*
X19891686Y-3819000D01*
X21564314Y-3819000D01*
X21538507Y-3859156D01*
G37*
%TD.AperFunction*%
%TA.AperFunction,Conductor*%
G36*
X24078507Y-3859156D02*
G01*
X24038000Y-3997111D01*
X24038000Y-4140889D01*
X24078507Y-4278844D01*
X24104314Y-4319000D01*
X22431686Y-4319000D01*
X22457493Y-4278844D01*
X22498000Y-4140889D01*
X22498000Y-3997111D01*
X22457493Y-3859156D01*
X22431686Y-3819000D01*
X24104314Y-3819000D01*
X24078507Y-3859156D01*
G37*
%TD.AperFunction*%
%TA.AperFunction,Conductor*%
G36*
X26618507Y-3859156D02*
G01*
X26578000Y-3997111D01*
X26578000Y-4140889D01*
X26618507Y-4278844D01*
X26644314Y-4319000D01*
X24971686Y-4319000D01*
X24997493Y-4278844D01*
X25038000Y-4140889D01*
X25038000Y-3997111D01*
X24997493Y-3859156D01*
X24971686Y-3819000D01*
X26644314Y-3819000D01*
X26618507Y-3859156D01*
G37*
%TD.AperFunction*%
%TA.AperFunction,Conductor*%
G36*
X5668507Y-3854156D02*
G01*
X5628000Y-3992111D01*
X5628000Y-4135889D01*
X5668507Y-4273844D01*
X5694314Y-4314000D01*
X4021686Y-4314000D01*
X4047493Y-4273844D01*
X4088000Y-4135889D01*
X4088000Y-3992111D01*
X4047493Y-3854156D01*
X4021686Y-3814000D01*
X5694314Y-3814000D01*
X5668507Y-3854156D01*
G37*
%TD.AperFunction*%
%TA.AperFunction,Conductor*%
G36*
X8208507Y-3854156D02*
G01*
X8168000Y-3992111D01*
X8168000Y-4135889D01*
X8208507Y-4273844D01*
X8234314Y-4314000D01*
X6561686Y-4314000D01*
X6587493Y-4273844D01*
X6628000Y-4135889D01*
X6628000Y-3992111D01*
X6587493Y-3854156D01*
X6561686Y-3814000D01*
X8234314Y-3814000D01*
X8208507Y-3854156D01*
G37*
%TD.AperFunction*%
%TA.AperFunction,Conductor*%
G36*
X10748507Y-3854156D02*
G01*
X10708000Y-3992111D01*
X10708000Y-4135889D01*
X10748507Y-4273844D01*
X10774314Y-4314000D01*
X9101686Y-4314000D01*
X9127493Y-4273844D01*
X9168000Y-4135889D01*
X9168000Y-3992111D01*
X9127493Y-3854156D01*
X9101686Y-3814000D01*
X10774314Y-3814000D01*
X10748507Y-3854156D01*
G37*
%TD.AperFunction*%
%TA.AperFunction,Conductor*%
G36*
X75015677Y-1019685D02*
G01*
X75036319Y-1036319D01*
X76963681Y-2963681D01*
X76997166Y-3025004D01*
X77000000Y-3051362D01*
X77000000Y-17948638D01*
X76980315Y-18015677D01*
X76963681Y-18036319D01*
X75036319Y-19963681D01*
X74974996Y-19997166D01*
X74948638Y-20000000D01*
X73040193Y-20000000D01*
X72973154Y-19980315D01*
X72927399Y-19927511D01*
X72917455Y-19858353D01*
X72946480Y-19794797D01*
X72987788Y-19763618D01*
X72988978Y-19763063D01*
X73089830Y-19716035D01*
X73283401Y-19580495D01*
X73450495Y-19413401D01*
X73586035Y-19219830D01*
X73685903Y-19005663D01*
X73747063Y-18777408D01*
X73767659Y-18542000D01*
X73747063Y-18306592D01*
X73685903Y-18078337D01*
X73586035Y-17864171D01*
X73585474Y-17863369D01*
X73450494Y-17670597D01*
X73283402Y-17503506D01*
X73283396Y-17503501D01*
X73097842Y-17373575D01*
X73054217Y-17318998D01*
X73047023Y-17249500D01*
X73078546Y-17187145D01*
X73097842Y-17170425D01*
X73120026Y-17154891D01*
X73283401Y-17040495D01*
X73450495Y-16873401D01*
X73586035Y-16679830D01*
X73685903Y-16465663D01*
X73747063Y-16237408D01*
X73767659Y-16002000D01*
X73747063Y-15766592D01*
X73685903Y-15538337D01*
X73586035Y-15324171D01*
X73585474Y-15323369D01*
X73450494Y-15130597D01*
X73283402Y-14963506D01*
X73283396Y-14963501D01*
X73097842Y-14833575D01*
X73054217Y-14778998D01*
X73047023Y-14709500D01*
X73078546Y-14647145D01*
X73097842Y-14630425D01*
X73120026Y-14614891D01*
X73283401Y-14500495D01*
X73450495Y-14333401D01*
X73586035Y-14139830D01*
X73685903Y-13925663D01*
X73747063Y-13697408D01*
X73767659Y-13462000D01*
X73747063Y-13226592D01*
X73685903Y-12998337D01*
X73586035Y-12784171D01*
X73585474Y-12783369D01*
X73450494Y-12590597D01*
X73283402Y-12423506D01*
X73283396Y-12423501D01*
X73097842Y-12293575D01*
X73054217Y-12238998D01*
X73047023Y-12169500D01*
X73078546Y-12107145D01*
X73097842Y-12090425D01*
X73122580Y-12073103D01*
X73283401Y-11960495D01*
X73450495Y-11793401D01*
X73586035Y-11599830D01*
X73685903Y-11385663D01*
X73747063Y-11157408D01*
X73767659Y-10922000D01*
X73747063Y-10686592D01*
X73685903Y-10458337D01*
X73586035Y-10244171D01*
X73585474Y-10243369D01*
X73450494Y-10050597D01*
X73283402Y-9883506D01*
X73283396Y-9883501D01*
X73097842Y-9753575D01*
X73054217Y-9698998D01*
X73047023Y-9629500D01*
X73078546Y-9567145D01*
X73097842Y-9550425D01*
X73120026Y-9534891D01*
X73283401Y-9420495D01*
X73450495Y-9253401D01*
X73586035Y-9059830D01*
X73685903Y-8845663D01*
X73747063Y-8617408D01*
X73767659Y-8382000D01*
X73747063Y-8146592D01*
X73695593Y-7954500D01*
X73685905Y-7918344D01*
X73685904Y-7918343D01*
X73685903Y-7918337D01*
X73586035Y-7704171D01*
X73585474Y-7703369D01*
X73450494Y-7510597D01*
X73283402Y-7343506D01*
X73283396Y-7343501D01*
X73097842Y-7213575D01*
X73054217Y-7158998D01*
X73047023Y-7089500D01*
X73078546Y-7027145D01*
X73097842Y-7010425D01*
X73186083Y-6948638D01*
X73283401Y-6880495D01*
X73450495Y-6713401D01*
X73586035Y-6519830D01*
X73685903Y-6305663D01*
X73747063Y-6077408D01*
X73767659Y-5842000D01*
X73747063Y-5606592D01*
X73685903Y-5378337D01*
X73586035Y-5164171D01*
X73582311Y-5158853D01*
X73450496Y-4970600D01*
X73414974Y-4935078D01*
X73328567Y-4848671D01*
X73295084Y-4787351D01*
X73300068Y-4717659D01*
X73341939Y-4661725D01*
X73372915Y-4644810D01*
X73504331Y-4595796D01*
X73619546Y-4509546D01*
X73705796Y-4394331D01*
X73756091Y-4259483D01*
X73762500Y-4199873D01*
X73762499Y-2404128D01*
X73756091Y-2344517D01*
X73705796Y-2209669D01*
X73705795Y-2209668D01*
X73705793Y-2209664D01*
X73619547Y-2094455D01*
X73619544Y-2094452D01*
X73504335Y-2008206D01*
X73504328Y-2008202D01*
X73369482Y-1957908D01*
X73369483Y-1957908D01*
X73309883Y-1951501D01*
X73309881Y-1951500D01*
X73309873Y-1951500D01*
X73309864Y-1951500D01*
X71514129Y-1951500D01*
X71514123Y-1951501D01*
X71454516Y-1957908D01*
X71319671Y-2008202D01*
X71319669Y-2008203D01*
X71216311Y-2085578D01*
X71150847Y-2109995D01*
X71082574Y-2095144D01*
X71067689Y-2085578D01*
X70964330Y-2008203D01*
X70964328Y-2008202D01*
X70829482Y-1957908D01*
X70829483Y-1957908D01*
X70769883Y-1951501D01*
X70769881Y-1951500D01*
X70769873Y-1951500D01*
X70769864Y-1951500D01*
X68974129Y-1951500D01*
X68974123Y-1951501D01*
X68914516Y-1957908D01*
X68779671Y-2008202D01*
X68779664Y-2008206D01*
X68664455Y-2094452D01*
X68664452Y-2094455D01*
X68578206Y-2209664D01*
X68578202Y-2209671D01*
X68527908Y-2344517D01*
X68524484Y-2376369D01*
X68521501Y-2404123D01*
X68521500Y-2404135D01*
X68521500Y-4199870D01*
X68521501Y-4199876D01*
X68527908Y-4259483D01*
X68578202Y-4394328D01*
X68578206Y-4394335D01*
X68664452Y-4509544D01*
X68664455Y-4509547D01*
X68779664Y-4595793D01*
X68779671Y-4595797D01*
X68911081Y-4644810D01*
X68967015Y-4686681D01*
X68991432Y-4752145D01*
X68976580Y-4820418D01*
X68955430Y-4848673D01*
X68833503Y-4970600D01*
X68697965Y-5164169D01*
X68697964Y-5164171D01*
X68598098Y-5378335D01*
X68598094Y-5378344D01*
X68536938Y-5606586D01*
X68536936Y-5606596D01*
X68516341Y-5841999D01*
X68516341Y-5842000D01*
X68536936Y-6077403D01*
X68536938Y-6077413D01*
X68598094Y-6305655D01*
X68598096Y-6305659D01*
X68598097Y-6305663D01*
X68629770Y-6373586D01*
X68697965Y-6519830D01*
X68697967Y-6519834D01*
X68806281Y-6674521D01*
X68833501Y-6713396D01*
X68833506Y-6713402D01*
X69000597Y-6880493D01*
X69000603Y-6880498D01*
X69186158Y-7010425D01*
X69229783Y-7065002D01*
X69236977Y-7134500D01*
X69205454Y-7196855D01*
X69186158Y-7213575D01*
X69000597Y-7343505D01*
X68833505Y-7510597D01*
X68697965Y-7704169D01*
X68697964Y-7704171D01*
X68598098Y-7918335D01*
X68598094Y-7918344D01*
X68536938Y-8146586D01*
X68536936Y-8146596D01*
X68516341Y-8381999D01*
X68516341Y-8382000D01*
X68536936Y-8617403D01*
X68536938Y-8617413D01*
X68598094Y-8845655D01*
X68598096Y-8845659D01*
X68598097Y-8845663D01*
X68670066Y-9000000D01*
X68697965Y-9059830D01*
X68697967Y-9059834D01*
X68806281Y-9214521D01*
X68833504Y-9253400D01*
X68833506Y-9253402D01*
X69000597Y-9420493D01*
X69000603Y-9420498D01*
X69186158Y-9550425D01*
X69229783Y-9605002D01*
X69236977Y-9674500D01*
X69205454Y-9736855D01*
X69186158Y-9753575D01*
X69000597Y-9883505D01*
X68833505Y-10050597D01*
X68697965Y-10244169D01*
X68697964Y-10244171D01*
X68598098Y-10458335D01*
X68598094Y-10458344D01*
X68536938Y-10686586D01*
X68536936Y-10686596D01*
X68516341Y-10921999D01*
X68516341Y-10922000D01*
X68536936Y-11157403D01*
X68536938Y-11157413D01*
X68598094Y-11385655D01*
X68598096Y-11385659D01*
X68598097Y-11385663D01*
X68677817Y-11556623D01*
X68697965Y-11599830D01*
X68697967Y-11599834D01*
X68723243Y-11635931D01*
X68833504Y-11793400D01*
X68833506Y-11793402D01*
X69000597Y-11960493D01*
X69000603Y-11960498D01*
X69186158Y-12090425D01*
X69229783Y-12145002D01*
X69236977Y-12214500D01*
X69205454Y-12276855D01*
X69186158Y-12293575D01*
X69000597Y-12423505D01*
X68833505Y-12590597D01*
X68697965Y-12784169D01*
X68697964Y-12784171D01*
X68598098Y-12998335D01*
X68598094Y-12998344D01*
X68536938Y-13226586D01*
X68536936Y-13226596D01*
X68516341Y-13461999D01*
X68516341Y-13462000D01*
X68536936Y-13697403D01*
X68536938Y-13697413D01*
X68598094Y-13925655D01*
X68598096Y-13925659D01*
X68598097Y-13925663D01*
X68602000Y-13934032D01*
X68697965Y-14139830D01*
X68697967Y-14139834D01*
X68806281Y-14294521D01*
X68833504Y-14333400D01*
X68833506Y-14333402D01*
X69000597Y-14500493D01*
X69000603Y-14500498D01*
X69186158Y-14630425D01*
X69229783Y-14685002D01*
X69236977Y-14754500D01*
X69205454Y-14816855D01*
X69186158Y-14833575D01*
X69000597Y-14963505D01*
X68833505Y-15130597D01*
X68697965Y-15324169D01*
X68697964Y-15324171D01*
X68598098Y-15538335D01*
X68598094Y-15538344D01*
X68536938Y-15766586D01*
X68536936Y-15766596D01*
X68516341Y-16001999D01*
X68516341Y-16002000D01*
X68536936Y-16237403D01*
X68536938Y-16237413D01*
X68598094Y-16465655D01*
X68598096Y-16465659D01*
X68598097Y-16465663D01*
X68602000Y-16474032D01*
X68697965Y-16679830D01*
X68697967Y-16679834D01*
X68806281Y-16834521D01*
X68833504Y-16873400D01*
X68833506Y-16873402D01*
X69000597Y-17040493D01*
X69000603Y-17040498D01*
X69186158Y-17170425D01*
X69229783Y-17225002D01*
X69236977Y-17294500D01*
X69205454Y-17356855D01*
X69186158Y-17373575D01*
X69000597Y-17503505D01*
X68833505Y-17670597D01*
X68697965Y-17864169D01*
X68697964Y-17864171D01*
X68598098Y-18078335D01*
X68598094Y-18078344D01*
X68536938Y-18306586D01*
X68536936Y-18306596D01*
X68516341Y-18541999D01*
X68516341Y-18542000D01*
X68536936Y-18777403D01*
X68536938Y-18777413D01*
X68598094Y-19005655D01*
X68598096Y-19005659D01*
X68598097Y-19005663D01*
X68677817Y-19176623D01*
X68697965Y-19219830D01*
X68697967Y-19219834D01*
X68798962Y-19364069D01*
X68833505Y-19413401D01*
X69000599Y-19580495D01*
X69080487Y-19636433D01*
X69194165Y-19716032D01*
X69194167Y-19716033D01*
X69194170Y-19716035D01*
X69295022Y-19763063D01*
X69296212Y-19763618D01*
X69348651Y-19809790D01*
X69367803Y-19876984D01*
X69347587Y-19943865D01*
X69294422Y-19989200D01*
X69243807Y-20000000D01*
X68999999Y-20000000D01*
X67000000Y-21999999D01*
X67000000Y-28000000D01*
X69015446Y-30015446D01*
X69048931Y-30076769D01*
X69043947Y-30146461D01*
X69004270Y-30199461D01*
X69004744Y-30200026D01*
X69002333Y-30202048D01*
X69002075Y-30202394D01*
X69000954Y-30203205D01*
X69000599Y-30203503D01*
X68833505Y-30370597D01*
X68697965Y-30564169D01*
X68697964Y-30564171D01*
X68598098Y-30778335D01*
X68598094Y-30778344D01*
X68536938Y-31006586D01*
X68536936Y-31006596D01*
X68516341Y-31241999D01*
X68516341Y-31242000D01*
X68536936Y-31477403D01*
X68536938Y-31477413D01*
X68598094Y-31705655D01*
X68598096Y-31705659D01*
X68598097Y-31705663D01*
X68678004Y-31877023D01*
X68697965Y-31919830D01*
X68697967Y-31919834D01*
X68790065Y-32051362D01*
X68833501Y-32113396D01*
X68833506Y-32113402D01*
X69000597Y-32280493D01*
X69000603Y-32280498D01*
X69186158Y-32410425D01*
X69229783Y-32465002D01*
X69236977Y-32534500D01*
X69205454Y-32596855D01*
X69186158Y-32613575D01*
X69000597Y-32743505D01*
X68833505Y-32910597D01*
X68697965Y-33104169D01*
X68697964Y-33104171D01*
X68598098Y-33318335D01*
X68598094Y-33318344D01*
X68536938Y-33546586D01*
X68536936Y-33546596D01*
X68516341Y-33781999D01*
X68516341Y-33782000D01*
X68536936Y-34017403D01*
X68536938Y-34017413D01*
X68598094Y-34245655D01*
X68598096Y-34245659D01*
X68598097Y-34245663D01*
X68678004Y-34417023D01*
X68697965Y-34459830D01*
X68697967Y-34459834D01*
X68727033Y-34501344D01*
X68833501Y-34653396D01*
X68833506Y-34653402D01*
X69000597Y-34820493D01*
X69000603Y-34820498D01*
X69186158Y-34950425D01*
X69229783Y-35005002D01*
X69236977Y-35074500D01*
X69205454Y-35136855D01*
X69186158Y-35153575D01*
X69000597Y-35283505D01*
X68833505Y-35450597D01*
X68697965Y-35644169D01*
X68697964Y-35644171D01*
X68598098Y-35858335D01*
X68598094Y-35858344D01*
X68536938Y-36086586D01*
X68536936Y-36086596D01*
X68516341Y-36321999D01*
X68516341Y-36322000D01*
X68536936Y-36557403D01*
X68536938Y-36557413D01*
X68598094Y-36785655D01*
X68598096Y-36785659D01*
X68598097Y-36785663D01*
X68678004Y-36957023D01*
X68697965Y-36999830D01*
X68697967Y-36999834D01*
X68801229Y-37147306D01*
X68833501Y-37193396D01*
X68833506Y-37193402D01*
X69000597Y-37360493D01*
X69000603Y-37360498D01*
X69186158Y-37490425D01*
X69229783Y-37545002D01*
X69236977Y-37614500D01*
X69205454Y-37676855D01*
X69186158Y-37693575D01*
X69000597Y-37823505D01*
X68833505Y-37990597D01*
X68697965Y-38184169D01*
X68697964Y-38184171D01*
X68598098Y-38398335D01*
X68598094Y-38398344D01*
X68536938Y-38626586D01*
X68536936Y-38626596D01*
X68516341Y-38861999D01*
X68516341Y-38862000D01*
X68536936Y-39097403D01*
X68536938Y-39097413D01*
X68598094Y-39325655D01*
X68598096Y-39325659D01*
X68598097Y-39325663D01*
X68602000Y-39334032D01*
X68697965Y-39539830D01*
X68697967Y-39539834D01*
X68800641Y-39686467D01*
X68833501Y-39733396D01*
X68833506Y-39733402D01*
X69000597Y-39900493D01*
X69000603Y-39900498D01*
X69186158Y-40030425D01*
X69229783Y-40085002D01*
X69236977Y-40154500D01*
X69205454Y-40216855D01*
X69186158Y-40233575D01*
X69000597Y-40363505D01*
X68833505Y-40530597D01*
X68697965Y-40724169D01*
X68697964Y-40724171D01*
X68598098Y-40938335D01*
X68598094Y-40938344D01*
X68536938Y-41166586D01*
X68536936Y-41166596D01*
X68516341Y-41401999D01*
X68516341Y-41402000D01*
X68536936Y-41637403D01*
X68536938Y-41637413D01*
X68598094Y-41865655D01*
X68598096Y-41865659D01*
X68598097Y-41865663D01*
X68602000Y-41874032D01*
X68697965Y-42079830D01*
X68697967Y-42079834D01*
X68806281Y-42234521D01*
X68833501Y-42273396D01*
X68833506Y-42273402D01*
X69000597Y-42440493D01*
X69000603Y-42440498D01*
X69186158Y-42570425D01*
X69229783Y-42625002D01*
X69236977Y-42694500D01*
X69205454Y-42756855D01*
X69186158Y-42773575D01*
X69000597Y-42903505D01*
X68833505Y-43070597D01*
X68697965Y-43264169D01*
X68697964Y-43264171D01*
X68598098Y-43478335D01*
X68598094Y-43478344D01*
X68536938Y-43706586D01*
X68536936Y-43706596D01*
X68516341Y-43941999D01*
X68516341Y-43942000D01*
X68536936Y-44177403D01*
X68536938Y-44177413D01*
X68598094Y-44405655D01*
X68598096Y-44405659D01*
X68598097Y-44405663D01*
X68602000Y-44414032D01*
X68697965Y-44619830D01*
X68697967Y-44619834D01*
X68806281Y-44774521D01*
X68833501Y-44813396D01*
X68833506Y-44813402D01*
X69000597Y-44980493D01*
X69000603Y-44980498D01*
X69186158Y-45110425D01*
X69229783Y-45165002D01*
X69236977Y-45234500D01*
X69205454Y-45296855D01*
X69186158Y-45313575D01*
X69000597Y-45443505D01*
X68833505Y-45610597D01*
X68697965Y-45804169D01*
X68697964Y-45804171D01*
X68598098Y-46018335D01*
X68598094Y-46018344D01*
X68536938Y-46246586D01*
X68536936Y-46246596D01*
X68516341Y-46481999D01*
X68516341Y-46482000D01*
X68536936Y-46717403D01*
X68536938Y-46717413D01*
X68598094Y-46945655D01*
X68598096Y-46945659D01*
X68598097Y-46945663D01*
X68602000Y-46954032D01*
X68697965Y-47159830D01*
X68697967Y-47159834D01*
X68806281Y-47314521D01*
X68833501Y-47353396D01*
X68833506Y-47353402D01*
X68955430Y-47475326D01*
X68988915Y-47536649D01*
X68983931Y-47606341D01*
X68942059Y-47662274D01*
X68911083Y-47679189D01*
X68779669Y-47728203D01*
X68779664Y-47728206D01*
X68664455Y-47814452D01*
X68664452Y-47814455D01*
X68578206Y-47929664D01*
X68578202Y-47929671D01*
X68527908Y-48064517D01*
X68521501Y-48124116D01*
X68521501Y-48124123D01*
X68521500Y-48124135D01*
X68521500Y-49919870D01*
X68521501Y-49919876D01*
X68527908Y-49979483D01*
X68578202Y-50114328D01*
X68578206Y-50114335D01*
X68664452Y-50229544D01*
X68664455Y-50229547D01*
X68779664Y-50315793D01*
X68779671Y-50315797D01*
X68914517Y-50366091D01*
X68914516Y-50366091D01*
X68921444Y-50366835D01*
X68974127Y-50372500D01*
X70769872Y-50372499D01*
X70829483Y-50366091D01*
X70964331Y-50315796D01*
X71067690Y-50238421D01*
X71133152Y-50214004D01*
X71201425Y-50228855D01*
X71216303Y-50238416D01*
X71319665Y-50315793D01*
X71319668Y-50315795D01*
X71319671Y-50315797D01*
X71454517Y-50366091D01*
X71454516Y-50366091D01*
X71461444Y-50366835D01*
X71514127Y-50372500D01*
X73309872Y-50372499D01*
X73369483Y-50366091D01*
X73504331Y-50315796D01*
X73619546Y-50229546D01*
X73705796Y-50114331D01*
X73756091Y-49979483D01*
X73762500Y-49919873D01*
X73762499Y-48124128D01*
X73756091Y-48064517D01*
X73718265Y-47963101D01*
X73705797Y-47929671D01*
X73705793Y-47929664D01*
X73619547Y-47814455D01*
X73619544Y-47814452D01*
X73504335Y-47728206D01*
X73504328Y-47728202D01*
X73372917Y-47679189D01*
X73316983Y-47637318D01*
X73292566Y-47571853D01*
X73307418Y-47503580D01*
X73328563Y-47475332D01*
X73450495Y-47353401D01*
X73586035Y-47159830D01*
X73685903Y-46945663D01*
X73747063Y-46717408D01*
X73767659Y-46482000D01*
X73747063Y-46246592D01*
X73685903Y-46018337D01*
X73586035Y-45804171D01*
X73580425Y-45796158D01*
X73450494Y-45610597D01*
X73283402Y-45443506D01*
X73283396Y-45443501D01*
X73097842Y-45313575D01*
X73054217Y-45258998D01*
X73047023Y-45189500D01*
X73078546Y-45127145D01*
X73097842Y-45110425D01*
X73135259Y-45084225D01*
X73283401Y-44980495D01*
X73450495Y-44813401D01*
X73586035Y-44619830D01*
X73685903Y-44405663D01*
X73747063Y-44177408D01*
X73767659Y-43942000D01*
X73747063Y-43706592D01*
X73685903Y-43478337D01*
X73586035Y-43264171D01*
X73580425Y-43256158D01*
X73450494Y-43070597D01*
X73283402Y-42903506D01*
X73283396Y-42903501D01*
X73097842Y-42773575D01*
X73054217Y-42718998D01*
X73047023Y-42649500D01*
X73078546Y-42587145D01*
X73097842Y-42570425D01*
X73135259Y-42544225D01*
X73283401Y-42440495D01*
X73450495Y-42273401D01*
X73586035Y-42079830D01*
X73685903Y-41865663D01*
X73747063Y-41637408D01*
X73767659Y-41402000D01*
X73747063Y-41166592D01*
X73685903Y-40938337D01*
X73586035Y-40724171D01*
X73580425Y-40716158D01*
X73450494Y-40530597D01*
X73283402Y-40363506D01*
X73283396Y-40363501D01*
X73097842Y-40233575D01*
X73054217Y-40178998D01*
X73047023Y-40109500D01*
X73078546Y-40047145D01*
X73097842Y-40030425D01*
X73193162Y-39963681D01*
X73283401Y-39900495D01*
X73450495Y-39733401D01*
X73586035Y-39539830D01*
X73685903Y-39325663D01*
X73747063Y-39097408D01*
X73767659Y-38862000D01*
X73747063Y-38626592D01*
X73685903Y-38398337D01*
X73586035Y-38184171D01*
X73580425Y-38176158D01*
X73450494Y-37990597D01*
X73283402Y-37823506D01*
X73283396Y-37823501D01*
X73097842Y-37693575D01*
X73054217Y-37638998D01*
X73047023Y-37569500D01*
X73078546Y-37507145D01*
X73097842Y-37490425D01*
X73120026Y-37474891D01*
X73283401Y-37360495D01*
X73450495Y-37193401D01*
X73586035Y-36999830D01*
X73685903Y-36785663D01*
X73747063Y-36557408D01*
X73767659Y-36322000D01*
X73747063Y-36086592D01*
X73689024Y-35869984D01*
X73685905Y-35858344D01*
X73685904Y-35858343D01*
X73685903Y-35858337D01*
X73586035Y-35644171D01*
X73580617Y-35636432D01*
X73450494Y-35450597D01*
X73283402Y-35283506D01*
X73283396Y-35283501D01*
X73097842Y-35153575D01*
X73054217Y-35098998D01*
X73047023Y-35029500D01*
X73078546Y-34967145D01*
X73097842Y-34950425D01*
X73131445Y-34926896D01*
X73283401Y-34820495D01*
X73450495Y-34653401D01*
X73586035Y-34459830D01*
X73685903Y-34245663D01*
X73747063Y-34017408D01*
X73767659Y-33782000D01*
X73747063Y-33546592D01*
X73685903Y-33318337D01*
X73586035Y-33104171D01*
X73580425Y-33096158D01*
X73450494Y-32910597D01*
X73283402Y-32743506D01*
X73283396Y-32743501D01*
X73097842Y-32613575D01*
X73054217Y-32558998D01*
X73047023Y-32489500D01*
X73078546Y-32427145D01*
X73097842Y-32410425D01*
X73120026Y-32394891D01*
X73283401Y-32280495D01*
X73450495Y-32113401D01*
X73586035Y-31919830D01*
X73685903Y-31705663D01*
X73747063Y-31477408D01*
X73767659Y-31242000D01*
X73747063Y-31006592D01*
X73685903Y-30778337D01*
X73586035Y-30564171D01*
X73580424Y-30556158D01*
X73450496Y-30370600D01*
X73443463Y-30363567D01*
X73291575Y-30211679D01*
X73258092Y-30150358D01*
X73263076Y-30080667D01*
X73304947Y-30024733D01*
X73370412Y-30000316D01*
X73379258Y-30000000D01*
X74948638Y-30000000D01*
X75015677Y-30019685D01*
X75036319Y-30036319D01*
X76963681Y-31963681D01*
X76997166Y-32025004D01*
X77000000Y-32051362D01*
X77000000Y-51948638D01*
X76980315Y-52015677D01*
X76963681Y-52036319D01*
X75036319Y-53963681D01*
X74974996Y-53997166D01*
X74948638Y-54000000D01*
X43051362Y-54000000D01*
X42984323Y-53980315D01*
X42963681Y-53963681D01*
X41036319Y-52036319D01*
X41002834Y-51974996D01*
X41000000Y-51948638D01*
X41000000Y-40051362D01*
X41019685Y-39984323D01*
X41036319Y-39963681D01*
X42963681Y-38036319D01*
X43025004Y-38002834D01*
X43051362Y-38000000D01*
X43505500Y-38000000D01*
X43572539Y-38019685D01*
X43618294Y-38072489D01*
X43629500Y-38124000D01*
X43629500Y-39733670D01*
X43629501Y-39733676D01*
X43635908Y-39793283D01*
X43686202Y-39928128D01*
X43686206Y-39928135D01*
X43772452Y-40043344D01*
X43772455Y-40043347D01*
X43887664Y-40129593D01*
X43887671Y-40129597D01*
X44019081Y-40178610D01*
X44075015Y-40220481D01*
X44099432Y-40285945D01*
X44084580Y-40354218D01*
X44063430Y-40382473D01*
X43941503Y-40504400D01*
X43805965Y-40697969D01*
X43805964Y-40697971D01*
X43706098Y-40912135D01*
X43706094Y-40912144D01*
X43644938Y-41140386D01*
X43644936Y-41140396D01*
X43624341Y-41375799D01*
X43624341Y-41375800D01*
X43644936Y-41611203D01*
X43644938Y-41611213D01*
X43706094Y-41839455D01*
X43706096Y-41839459D01*
X43706097Y-41839463D01*
X43718315Y-41865664D01*
X43805965Y-42053630D01*
X43805967Y-42053634D01*
X43914281Y-42208321D01*
X43941501Y-42247196D01*
X43941506Y-42247202D01*
X44108597Y-42414293D01*
X44108603Y-42414298D01*
X44294158Y-42544225D01*
X44337783Y-42598802D01*
X44344977Y-42668300D01*
X44313454Y-42730655D01*
X44294158Y-42747375D01*
X44108597Y-42877305D01*
X43941505Y-43044397D01*
X43805965Y-43237969D01*
X43805964Y-43237971D01*
X43706098Y-43452135D01*
X43706094Y-43452144D01*
X43644938Y-43680386D01*
X43644936Y-43680396D01*
X43624341Y-43915799D01*
X43624341Y-43915800D01*
X43644936Y-44151203D01*
X43644938Y-44151213D01*
X43706094Y-44379455D01*
X43706096Y-44379459D01*
X43706097Y-44379463D01*
X43718315Y-44405664D01*
X43805965Y-44593630D01*
X43805967Y-44593634D01*
X43914281Y-44748321D01*
X43941501Y-44787196D01*
X43941506Y-44787202D01*
X44108597Y-44954293D01*
X44108603Y-44954298D01*
X44294158Y-45084225D01*
X44337783Y-45138802D01*
X44344977Y-45208300D01*
X44313454Y-45270655D01*
X44294158Y-45287375D01*
X44108597Y-45417305D01*
X43941505Y-45584397D01*
X43805965Y-45777969D01*
X43805964Y-45777971D01*
X43706098Y-45992135D01*
X43706094Y-45992144D01*
X43644938Y-46220386D01*
X43644936Y-46220396D01*
X43624341Y-46455799D01*
X43624341Y-46455800D01*
X43644936Y-46691203D01*
X43644938Y-46691213D01*
X43706094Y-46919455D01*
X43706096Y-46919459D01*
X43706097Y-46919463D01*
X43718315Y-46945664D01*
X43805965Y-47133630D01*
X43805967Y-47133634D01*
X43914281Y-47288321D01*
X43941501Y-47327196D01*
X43941506Y-47327202D01*
X44108597Y-47494293D01*
X44108603Y-47494298D01*
X44294158Y-47624225D01*
X44337783Y-47678802D01*
X44344977Y-47748300D01*
X44313454Y-47810655D01*
X44294158Y-47827375D01*
X44108597Y-47957305D01*
X43941505Y-48124397D01*
X43805965Y-48317969D01*
X43805964Y-48317971D01*
X43706098Y-48532135D01*
X43706094Y-48532144D01*
X43644938Y-48760386D01*
X43644936Y-48760396D01*
X43624341Y-48995799D01*
X43624341Y-48995800D01*
X43644936Y-49231203D01*
X43644938Y-49231213D01*
X43706094Y-49459455D01*
X43706096Y-49459459D01*
X43706097Y-49459463D01*
X43711352Y-49470732D01*
X43805965Y-49673630D01*
X43805967Y-49673634D01*
X43914281Y-49828321D01*
X43941501Y-49867196D01*
X43941506Y-49867202D01*
X44108597Y-50034293D01*
X44108603Y-50034298D01*
X44294158Y-50164225D01*
X44337783Y-50218802D01*
X44344977Y-50288300D01*
X44313454Y-50350655D01*
X44294158Y-50367375D01*
X44108597Y-50497305D01*
X43941505Y-50664397D01*
X43805965Y-50857969D01*
X43805964Y-50857971D01*
X43706098Y-51072135D01*
X43706094Y-51072144D01*
X43644938Y-51300386D01*
X43644936Y-51300396D01*
X43624341Y-51535799D01*
X43624341Y-51535800D01*
X43644936Y-51771203D01*
X43644938Y-51771213D01*
X43706094Y-51999455D01*
X43706096Y-51999459D01*
X43706097Y-51999463D01*
X43779675Y-52157251D01*
X43805965Y-52213630D01*
X43805967Y-52213634D01*
X43914281Y-52368321D01*
X43941505Y-52407201D01*
X44108599Y-52574295D01*
X44205384Y-52642065D01*
X44302165Y-52709832D01*
X44302167Y-52709833D01*
X44302170Y-52709835D01*
X44516337Y-52809703D01*
X44516343Y-52809704D01*
X44516344Y-52809705D01*
X44571285Y-52824426D01*
X44744592Y-52870863D01*
X44932918Y-52887339D01*
X44979999Y-52891459D01*
X44980000Y-52891459D01*
X44980001Y-52891459D01*
X45019234Y-52888026D01*
X45215408Y-52870863D01*
X45443663Y-52809703D01*
X45657830Y-52709835D01*
X45851401Y-52574295D01*
X46018495Y-52407201D01*
X46146394Y-52224541D01*
X46200971Y-52180917D01*
X46270469Y-52173723D01*
X46332824Y-52205246D01*
X46349542Y-52224539D01*
X46481505Y-52413001D01*
X46648599Y-52580095D01*
X46710776Y-52623632D01*
X46842165Y-52715632D01*
X46842167Y-52715633D01*
X46842170Y-52715635D01*
X47056337Y-52815503D01*
X47284592Y-52876663D01*
X47472918Y-52893139D01*
X47519999Y-52897259D01*
X47520000Y-52897259D01*
X47520001Y-52897259D01*
X47559234Y-52893826D01*
X47755408Y-52876663D01*
X47983663Y-52815503D01*
X48197830Y-52715635D01*
X48391401Y-52580095D01*
X48558495Y-52413001D01*
X48694035Y-52219430D01*
X48793903Y-52005263D01*
X48855063Y-51777008D01*
X48875659Y-51541600D01*
X48875151Y-51535799D01*
X48855063Y-51306196D01*
X48855063Y-51306192D01*
X48793903Y-51077937D01*
X48694035Y-50863771D01*
X48689973Y-50857969D01*
X48558494Y-50670197D01*
X48391402Y-50503106D01*
X48391396Y-50503101D01*
X48205842Y-50373175D01*
X48162217Y-50318598D01*
X48155023Y-50249100D01*
X48186546Y-50186745D01*
X48205842Y-50170025D01*
X48285385Y-50114328D01*
X48391401Y-50040095D01*
X48558495Y-49873001D01*
X48694035Y-49679430D01*
X48793903Y-49465263D01*
X48855063Y-49237008D01*
X48875659Y-49001600D01*
X48875151Y-48995799D01*
X48855063Y-48766196D01*
X48855063Y-48766192D01*
X48793903Y-48537937D01*
X48694035Y-48323771D01*
X48689973Y-48317969D01*
X48558494Y-48130197D01*
X48391402Y-47963106D01*
X48391396Y-47963101D01*
X48205842Y-47833175D01*
X48162217Y-47778598D01*
X48155023Y-47709100D01*
X48186546Y-47646745D01*
X48205842Y-47630025D01*
X48288920Y-47571853D01*
X48391401Y-47500095D01*
X48558495Y-47333001D01*
X48694035Y-47139430D01*
X48793903Y-46925263D01*
X48855063Y-46697008D01*
X48875659Y-46461600D01*
X48875151Y-46455799D01*
X48856848Y-46246596D01*
X48855063Y-46226192D01*
X48793903Y-45997937D01*
X48694035Y-45783771D01*
X48689973Y-45777969D01*
X48558494Y-45590197D01*
X48391402Y-45423106D01*
X48391396Y-45423101D01*
X48205842Y-45293175D01*
X48162217Y-45238598D01*
X48155023Y-45169100D01*
X48186546Y-45106745D01*
X48205842Y-45090025D01*
X48228026Y-45074491D01*
X48391401Y-44960095D01*
X48558495Y-44793001D01*
X48694035Y-44599430D01*
X48793903Y-44385263D01*
X48855063Y-44157008D01*
X48875659Y-43921600D01*
X48875151Y-43915799D01*
X48856848Y-43706596D01*
X48855063Y-43686192D01*
X48793903Y-43457937D01*
X48694035Y-43243771D01*
X48689973Y-43237969D01*
X48558494Y-43050197D01*
X48391402Y-42883106D01*
X48391396Y-42883101D01*
X48205842Y-42753175D01*
X48162217Y-42698598D01*
X48155023Y-42629100D01*
X48186546Y-42566745D01*
X48205842Y-42550025D01*
X48228026Y-42534491D01*
X48391401Y-42420095D01*
X48558495Y-42253001D01*
X48694035Y-42059430D01*
X48793903Y-41845263D01*
X48855063Y-41617008D01*
X48875659Y-41381600D01*
X48875151Y-41375799D01*
X48856848Y-41166596D01*
X48855063Y-41146192D01*
X48793903Y-40917937D01*
X48694035Y-40703771D01*
X48689972Y-40697969D01*
X48558496Y-40510200D01*
X48552695Y-40504399D01*
X48436567Y-40388271D01*
X48403084Y-40326951D01*
X48408068Y-40257259D01*
X48449939Y-40201325D01*
X48480915Y-40184410D01*
X48612331Y-40135396D01*
X48727546Y-40049146D01*
X48813796Y-39933931D01*
X48864091Y-39799083D01*
X48870500Y-39739473D01*
X48870499Y-38123999D01*
X48890184Y-38056961D01*
X48942987Y-38011206D01*
X48994499Y-38000000D01*
X49000000Y-38000000D01*
X50998179Y-36001820D01*
X51059500Y-35968337D01*
X51129192Y-35973321D01*
X51185125Y-36015193D01*
X51202038Y-36046166D01*
X51206199Y-36057323D01*
X51206206Y-36057335D01*
X51292452Y-36172544D01*
X51292455Y-36172547D01*
X51407664Y-36258793D01*
X51407671Y-36258797D01*
X51542517Y-36309091D01*
X51542516Y-36309091D01*
X51549444Y-36309835D01*
X51602127Y-36315500D01*
X53397872Y-36315499D01*
X53457483Y-36309091D01*
X53592331Y-36258796D01*
X53707546Y-36172546D01*
X53793796Y-36057331D01*
X53842810Y-35925916D01*
X53884681Y-35869984D01*
X53950145Y-35845566D01*
X54018418Y-35860417D01*
X54046673Y-35881569D01*
X54168599Y-36003495D01*
X54265384Y-36071265D01*
X54362165Y-36139032D01*
X54362167Y-36139033D01*
X54362170Y-36139035D01*
X54576337Y-36238903D01*
X54804592Y-36300063D01*
X54981034Y-36315500D01*
X55039999Y-36320659D01*
X55040000Y-36320659D01*
X55040001Y-36320659D01*
X55098966Y-36315500D01*
X55275408Y-36300063D01*
X55503663Y-36238903D01*
X55717830Y-36139035D01*
X55911401Y-36003495D01*
X56078495Y-35836401D01*
X56208425Y-35650842D01*
X56263002Y-35607217D01*
X56332500Y-35600023D01*
X56394855Y-35631546D01*
X56411575Y-35650842D01*
X56541500Y-35836395D01*
X56541505Y-35836401D01*
X56708599Y-36003495D01*
X56805384Y-36071265D01*
X56902165Y-36139032D01*
X56902167Y-36139033D01*
X56902170Y-36139035D01*
X57116337Y-36238903D01*
X57344592Y-36300063D01*
X57521034Y-36315500D01*
X57579999Y-36320659D01*
X57580000Y-36320659D01*
X57580001Y-36320659D01*
X57638966Y-36315500D01*
X57815408Y-36300063D01*
X58043663Y-36238903D01*
X58257830Y-36139035D01*
X58451401Y-36003495D01*
X58618495Y-35836401D01*
X58748425Y-35650842D01*
X58803002Y-35607217D01*
X58872500Y-35600023D01*
X58934855Y-35631546D01*
X58951575Y-35650842D01*
X59081500Y-35836395D01*
X59081505Y-35836401D01*
X59248599Y-36003495D01*
X59345384Y-36071265D01*
X59442165Y-36139032D01*
X59442167Y-36139033D01*
X59442170Y-36139035D01*
X59656337Y-36238903D01*
X59884592Y-36300063D01*
X60061034Y-36315500D01*
X60119999Y-36320659D01*
X60120000Y-36320659D01*
X60120001Y-36320659D01*
X60178966Y-36315500D01*
X60355408Y-36300063D01*
X60583663Y-36238903D01*
X60797830Y-36139035D01*
X60991401Y-36003495D01*
X61158495Y-35836401D01*
X61288730Y-35650405D01*
X61343307Y-35606781D01*
X61412805Y-35599587D01*
X61475160Y-35631110D01*
X61491879Y-35650405D01*
X61621890Y-35836078D01*
X61788917Y-36003105D01*
X61982421Y-36138600D01*
X62196507Y-36238429D01*
X62196516Y-36238433D01*
X62410000Y-36295634D01*
X62410000Y-35400501D01*
X62517685Y-35449680D01*
X62624237Y-35465000D01*
X62695763Y-35465000D01*
X62802315Y-35449680D01*
X62910000Y-35400501D01*
X62910000Y-36295633D01*
X63123483Y-36238433D01*
X63123492Y-36238429D01*
X63337578Y-36138600D01*
X63531082Y-36003105D01*
X63698105Y-35836082D01*
X63828119Y-35650405D01*
X63882696Y-35606781D01*
X63952195Y-35599588D01*
X64014549Y-35631110D01*
X64031269Y-35650405D01*
X64161505Y-35836401D01*
X64328599Y-36003495D01*
X64425384Y-36071265D01*
X64522165Y-36139032D01*
X64522167Y-36139033D01*
X64522170Y-36139035D01*
X64736337Y-36238903D01*
X64964592Y-36300063D01*
X65141034Y-36315500D01*
X65199999Y-36320659D01*
X65200000Y-36320659D01*
X65200001Y-36320659D01*
X65258966Y-36315500D01*
X65435408Y-36300063D01*
X65663663Y-36238903D01*
X65877830Y-36139035D01*
X66071401Y-36003495D01*
X66238495Y-35836401D01*
X66374035Y-35642830D01*
X66473903Y-35428663D01*
X66535063Y-35200408D01*
X66555659Y-34965000D01*
X66535063Y-34729592D01*
X66473903Y-34501337D01*
X66374035Y-34287171D01*
X66368731Y-34279595D01*
X66238494Y-34093597D01*
X66071402Y-33926506D01*
X66071395Y-33926501D01*
X65877834Y-33790967D01*
X65877830Y-33790965D01*
X65877828Y-33790964D01*
X65663663Y-33691097D01*
X65663659Y-33691096D01*
X65663655Y-33691094D01*
X65435413Y-33629938D01*
X65435403Y-33629936D01*
X65200001Y-33609341D01*
X65199999Y-33609341D01*
X64964596Y-33629936D01*
X64964586Y-33629938D01*
X64736344Y-33691094D01*
X64736335Y-33691098D01*
X64522171Y-33790964D01*
X64522169Y-33790965D01*
X64328597Y-33926505D01*
X64161508Y-34093594D01*
X64031269Y-34279595D01*
X63976692Y-34323219D01*
X63907193Y-34330412D01*
X63844839Y-34298890D01*
X63828119Y-34279594D01*
X63698113Y-34093926D01*
X63698108Y-34093920D01*
X63531082Y-33926894D01*
X63337578Y-33791399D01*
X63123492Y-33691570D01*
X63123486Y-33691567D01*
X62910000Y-33634364D01*
X62910000Y-34529498D01*
X62802315Y-34480320D01*
X62695763Y-34465000D01*
X62624237Y-34465000D01*
X62517685Y-34480320D01*
X62410000Y-34529498D01*
X62410000Y-33634364D01*
X62409999Y-33634364D01*
X62196513Y-33691567D01*
X62196507Y-33691570D01*
X61982422Y-33791399D01*
X61982420Y-33791400D01*
X61788926Y-33926886D01*
X61788920Y-33926891D01*
X61621891Y-34093920D01*
X61621890Y-34093922D01*
X61491880Y-34279595D01*
X61437303Y-34323219D01*
X61367804Y-34330412D01*
X61305450Y-34298890D01*
X61288730Y-34279594D01*
X61158494Y-34093597D01*
X60991402Y-33926506D01*
X60991395Y-33926501D01*
X60797834Y-33790967D01*
X60797830Y-33790965D01*
X60797828Y-33790964D01*
X60583663Y-33691097D01*
X60583659Y-33691096D01*
X60583655Y-33691094D01*
X60355413Y-33629938D01*
X60355403Y-33629936D01*
X60120001Y-33609341D01*
X60119999Y-33609341D01*
X59884596Y-33629936D01*
X59884586Y-33629938D01*
X59656344Y-33691094D01*
X59656335Y-33691098D01*
X59442171Y-33790964D01*
X59442169Y-33790965D01*
X59248597Y-33926505D01*
X59081505Y-34093597D01*
X58951575Y-34279158D01*
X58896998Y-34322783D01*
X58827500Y-34329977D01*
X58765145Y-34298454D01*
X58748425Y-34279158D01*
X58618494Y-34093597D01*
X58451402Y-33926506D01*
X58451395Y-33926501D01*
X58257834Y-33790967D01*
X58257830Y-33790965D01*
X58257828Y-33790964D01*
X58043663Y-33691097D01*
X58043659Y-33691096D01*
X58043655Y-33691094D01*
X57815413Y-33629938D01*
X57815403Y-33629936D01*
X57580001Y-33609341D01*
X57579999Y-33609341D01*
X57344596Y-33629936D01*
X57344586Y-33629938D01*
X57116344Y-33691094D01*
X57116335Y-33691098D01*
X56902171Y-33790964D01*
X56902169Y-33790965D01*
X56708597Y-33926505D01*
X56541505Y-34093597D01*
X56411575Y-34279158D01*
X56356998Y-34322783D01*
X56287500Y-34329977D01*
X56225145Y-34298454D01*
X56208425Y-34279158D01*
X56078494Y-34093597D01*
X55911402Y-33926506D01*
X55911395Y-33926501D01*
X55717834Y-33790967D01*
X55717830Y-33790965D01*
X55717828Y-33790964D01*
X55503663Y-33691097D01*
X55503659Y-33691096D01*
X55503655Y-33691094D01*
X55275413Y-33629938D01*
X55275403Y-33629936D01*
X55040001Y-33609341D01*
X55039999Y-33609341D01*
X54804596Y-33629936D01*
X54804586Y-33629938D01*
X54576344Y-33691094D01*
X54576335Y-33691098D01*
X54362171Y-33790964D01*
X54362169Y-33790965D01*
X54168600Y-33926503D01*
X54046673Y-34048430D01*
X53985350Y-34081914D01*
X53915658Y-34076930D01*
X53859725Y-34035058D01*
X53842810Y-34004081D01*
X53793797Y-33872671D01*
X53793793Y-33872664D01*
X53707547Y-33757455D01*
X53707544Y-33757452D01*
X53592335Y-33671206D01*
X53592328Y-33671202D01*
X53457482Y-33620908D01*
X53457483Y-33620908D01*
X53397883Y-33614501D01*
X53397881Y-33614500D01*
X53397873Y-33614500D01*
X53397864Y-33614500D01*
X51602129Y-33614500D01*
X51602123Y-33614501D01*
X51542516Y-33620908D01*
X51407671Y-33671202D01*
X51407664Y-33671206D01*
X51292455Y-33757452D01*
X51292452Y-33757455D01*
X51223266Y-33849876D01*
X51167332Y-33891747D01*
X51097641Y-33896731D01*
X51036318Y-33863245D01*
X51002834Y-33801922D01*
X51000000Y-33775565D01*
X51000000Y-24000000D01*
X49000000Y-22000000D01*
X48764068Y-22000000D01*
X48697029Y-21980315D01*
X48651274Y-21927511D01*
X48641330Y-21858353D01*
X48662493Y-21804876D01*
X48694035Y-21759830D01*
X48793903Y-21545663D01*
X48855063Y-21317408D01*
X48875659Y-21082000D01*
X48855063Y-20846592D01*
X48793903Y-20618337D01*
X48694035Y-20404171D01*
X48693474Y-20403369D01*
X48558494Y-20210597D01*
X48391402Y-20043506D01*
X48391396Y-20043501D01*
X48205842Y-19913575D01*
X48162217Y-19858998D01*
X48155023Y-19789500D01*
X48186546Y-19727145D01*
X48205842Y-19710425D01*
X48311513Y-19636433D01*
X48391401Y-19580495D01*
X48558495Y-19413401D01*
X48694035Y-19219830D01*
X48793903Y-19005663D01*
X48855063Y-18777408D01*
X48875659Y-18542000D01*
X48855063Y-18306592D01*
X48793903Y-18078337D01*
X48694035Y-17864171D01*
X48693474Y-17863369D01*
X48558494Y-17670597D01*
X48391402Y-17503506D01*
X48391396Y-17503501D01*
X48205842Y-17373575D01*
X48162217Y-17318998D01*
X48155023Y-17249500D01*
X48186546Y-17187145D01*
X48205842Y-17170425D01*
X48228026Y-17154891D01*
X48391401Y-17040495D01*
X48558495Y-16873401D01*
X48694035Y-16679830D01*
X48793903Y-16465663D01*
X48855063Y-16237408D01*
X48875659Y-16002000D01*
X48855063Y-15766592D01*
X48793903Y-15538337D01*
X48694035Y-15324171D01*
X48693474Y-15323369D01*
X48558494Y-15130597D01*
X48391402Y-14963506D01*
X48391396Y-14963501D01*
X48205842Y-14833575D01*
X48162217Y-14778998D01*
X48155023Y-14709500D01*
X48186546Y-14647145D01*
X48205842Y-14630425D01*
X48228026Y-14614891D01*
X48391401Y-14500495D01*
X48558495Y-14333401D01*
X48694035Y-14139830D01*
X48793903Y-13925663D01*
X48855063Y-13697408D01*
X48875659Y-13462000D01*
X48855063Y-13226592D01*
X48793903Y-12998337D01*
X48694035Y-12784171D01*
X48693474Y-12783369D01*
X48558494Y-12590597D01*
X48391402Y-12423506D01*
X48391396Y-12423501D01*
X48205842Y-12293575D01*
X48162217Y-12238998D01*
X48155023Y-12169500D01*
X48186546Y-12107145D01*
X48205842Y-12090425D01*
X48230580Y-12073103D01*
X48391401Y-11960495D01*
X48558495Y-11793401D01*
X48694035Y-11599830D01*
X48793903Y-11385663D01*
X48855063Y-11157408D01*
X48875659Y-10922000D01*
X48855063Y-10686592D01*
X48793903Y-10458337D01*
X48694035Y-10244171D01*
X48693474Y-10243369D01*
X48558494Y-10050597D01*
X48391402Y-9883506D01*
X48391396Y-9883501D01*
X48205842Y-9753575D01*
X48162217Y-9698998D01*
X48155023Y-9629500D01*
X48186546Y-9567145D01*
X48205842Y-9550425D01*
X48228026Y-9534891D01*
X48391401Y-9420495D01*
X48558495Y-9253401D01*
X48694035Y-9059830D01*
X48793903Y-8845663D01*
X48855063Y-8617408D01*
X48875659Y-8382000D01*
X48855063Y-8146592D01*
X48803593Y-7954500D01*
X48793905Y-7918344D01*
X48793904Y-7918343D01*
X48793903Y-7918337D01*
X48694035Y-7704171D01*
X48693473Y-7703369D01*
X48558496Y-7510600D01*
X48517923Y-7470027D01*
X48436567Y-7388671D01*
X48403084Y-7327351D01*
X48408068Y-7257659D01*
X48449939Y-7201725D01*
X48480915Y-7184810D01*
X48612331Y-7135796D01*
X48727546Y-7049546D01*
X48813796Y-6934331D01*
X48864091Y-6799483D01*
X48870500Y-6739873D01*
X48870499Y-4944128D01*
X48864091Y-4884517D01*
X48850722Y-4848674D01*
X48813797Y-4749671D01*
X48813793Y-4749664D01*
X48727547Y-4634455D01*
X48727544Y-4634452D01*
X48612335Y-4548206D01*
X48612328Y-4548202D01*
X48477482Y-4497908D01*
X48477483Y-4497908D01*
X48417883Y-4491501D01*
X48417881Y-4491500D01*
X48417873Y-4491500D01*
X48417864Y-4491500D01*
X46622129Y-4491500D01*
X46622123Y-4491501D01*
X46562516Y-4497908D01*
X46427671Y-4548202D01*
X46427669Y-4548204D01*
X46324845Y-4625178D01*
X46259381Y-4649595D01*
X46191108Y-4634744D01*
X46176226Y-4625180D01*
X46101180Y-4569000D01*
X46072330Y-4547403D01*
X46072328Y-4547402D01*
X45937482Y-4497108D01*
X45937483Y-4497108D01*
X45877883Y-4490701D01*
X45877881Y-4490700D01*
X45877873Y-4490700D01*
X45877864Y-4490700D01*
X44082129Y-4490700D01*
X44082123Y-4490701D01*
X44022516Y-4497108D01*
X43887671Y-4547402D01*
X43887664Y-4547406D01*
X43772455Y-4633652D01*
X43772452Y-4633655D01*
X43686206Y-4748864D01*
X43686202Y-4748871D01*
X43635908Y-4883717D01*
X43629501Y-4943316D01*
X43629500Y-4943335D01*
X43629500Y-6739070D01*
X43629501Y-6739076D01*
X43635908Y-6798683D01*
X43686202Y-6933528D01*
X43686206Y-6933535D01*
X43772452Y-7048744D01*
X43772455Y-7048747D01*
X43887664Y-7134993D01*
X43887671Y-7134997D01*
X44019081Y-7184010D01*
X44075015Y-7225881D01*
X44099432Y-7291345D01*
X44084580Y-7359618D01*
X44063430Y-7387873D01*
X43941503Y-7509800D01*
X43805965Y-7703369D01*
X43805964Y-7703371D01*
X43706098Y-7917535D01*
X43706094Y-7917544D01*
X43644938Y-8145786D01*
X43644936Y-8145796D01*
X43624341Y-8381199D01*
X43624341Y-8381200D01*
X43644936Y-8616603D01*
X43644938Y-8616613D01*
X43706094Y-8844855D01*
X43706096Y-8844859D01*
X43706097Y-8844863D01*
X43778439Y-9000000D01*
X43805965Y-9059030D01*
X43805967Y-9059034D01*
X43914281Y-9213721D01*
X43941501Y-9252596D01*
X43941506Y-9252602D01*
X44108597Y-9419693D01*
X44108603Y-9419698D01*
X44294158Y-9549625D01*
X44337783Y-9604202D01*
X44344977Y-9673700D01*
X44313454Y-9736055D01*
X44294158Y-9752775D01*
X44108597Y-9882705D01*
X43941505Y-10049797D01*
X43805965Y-10243369D01*
X43805964Y-10243371D01*
X43706098Y-10457535D01*
X43706094Y-10457544D01*
X43644938Y-10685786D01*
X43644936Y-10685796D01*
X43624341Y-10921199D01*
X43624341Y-10921200D01*
X43644936Y-11156603D01*
X43644938Y-11156613D01*
X43706094Y-11384855D01*
X43706096Y-11384859D01*
X43706097Y-11384863D01*
X43710373Y-11394032D01*
X43805965Y-11599030D01*
X43805967Y-11599034D01*
X43831803Y-11635931D01*
X43941501Y-11792596D01*
X43941506Y-11792602D01*
X44108597Y-11959693D01*
X44108603Y-11959698D01*
X44294158Y-12089625D01*
X44337783Y-12144202D01*
X44344977Y-12213700D01*
X44313454Y-12276055D01*
X44294158Y-12292775D01*
X44108597Y-12422705D01*
X43941505Y-12589797D01*
X43805965Y-12783369D01*
X43805964Y-12783371D01*
X43706098Y-12997535D01*
X43706094Y-12997544D01*
X43644938Y-13225786D01*
X43644936Y-13225796D01*
X43624341Y-13461199D01*
X43624341Y-13461200D01*
X43644936Y-13696603D01*
X43644938Y-13696613D01*
X43706094Y-13924855D01*
X43706096Y-13924859D01*
X43706097Y-13924863D01*
X43710373Y-13934032D01*
X43805965Y-14139030D01*
X43805967Y-14139034D01*
X43914281Y-14293721D01*
X43941501Y-14332596D01*
X43941506Y-14332602D01*
X44108597Y-14499693D01*
X44108603Y-14499698D01*
X44294158Y-14629625D01*
X44337783Y-14684202D01*
X44344977Y-14753700D01*
X44313454Y-14816055D01*
X44294158Y-14832775D01*
X44108597Y-14962705D01*
X43941505Y-15129797D01*
X43805965Y-15323369D01*
X43805964Y-15323371D01*
X43706098Y-15537535D01*
X43706094Y-15537544D01*
X43644938Y-15765786D01*
X43644936Y-15765796D01*
X43624341Y-16001199D01*
X43624341Y-16001200D01*
X43644936Y-16236603D01*
X43644938Y-16236613D01*
X43706094Y-16464855D01*
X43706096Y-16464859D01*
X43706097Y-16464863D01*
X43710373Y-16474032D01*
X43805965Y-16679030D01*
X43805967Y-16679034D01*
X43914281Y-16833721D01*
X43941501Y-16872596D01*
X43941506Y-16872602D01*
X44108597Y-17039693D01*
X44108603Y-17039698D01*
X44294158Y-17169625D01*
X44337783Y-17224202D01*
X44344977Y-17293700D01*
X44313454Y-17356055D01*
X44294158Y-17372775D01*
X44108597Y-17502705D01*
X43941505Y-17669797D01*
X43805965Y-17863369D01*
X43805964Y-17863371D01*
X43706098Y-18077535D01*
X43706094Y-18077544D01*
X43644938Y-18305786D01*
X43644936Y-18305796D01*
X43624341Y-18541199D01*
X43624341Y-18541200D01*
X43644936Y-18776603D01*
X43644938Y-18776613D01*
X43706094Y-19004855D01*
X43706096Y-19004859D01*
X43706097Y-19004863D01*
X43786190Y-19176623D01*
X43805965Y-19219030D01*
X43805967Y-19219034D01*
X43907522Y-19364069D01*
X43941501Y-19412596D01*
X43941506Y-19412602D01*
X44108597Y-19579693D01*
X44108603Y-19579698D01*
X44294158Y-19709625D01*
X44337783Y-19764202D01*
X44344977Y-19833700D01*
X44313454Y-19896055D01*
X44294158Y-19912775D01*
X44108597Y-20042705D01*
X43941505Y-20209797D01*
X43805965Y-20403369D01*
X43805964Y-20403371D01*
X43706098Y-20617535D01*
X43706094Y-20617544D01*
X43644938Y-20845786D01*
X43644936Y-20845796D01*
X43624341Y-21081199D01*
X43624341Y-21081200D01*
X43644936Y-21316603D01*
X43644938Y-21316613D01*
X43706094Y-21544855D01*
X43706096Y-21544859D01*
X43706097Y-21544863D01*
X43805965Y-21759030D01*
X43805967Y-21759034D01*
X43838067Y-21804877D01*
X43860394Y-21871083D01*
X43843384Y-21938850D01*
X43792436Y-21986663D01*
X43736492Y-22000000D01*
X43051362Y-22000000D01*
X42984323Y-21980315D01*
X42963681Y-21963681D01*
X41036319Y-20036319D01*
X41002834Y-19974996D01*
X41000000Y-19948638D01*
X41000000Y-11000000D01*
X39000000Y-9000000D01*
X3051362Y-9000000D01*
X2984323Y-8980315D01*
X2963681Y-8963681D01*
X1501870Y-7501870D01*
X2237500Y-7501870D01*
X2237501Y-7501876D01*
X2243908Y-7561483D01*
X2294202Y-7696328D01*
X2294206Y-7696335D01*
X2380452Y-7811544D01*
X2380455Y-7811547D01*
X2495664Y-7897793D01*
X2495671Y-7897797D01*
X2630517Y-7948091D01*
X2630516Y-7948091D01*
X2637444Y-7948835D01*
X2690127Y-7954500D01*
X4485872Y-7954499D01*
X4545483Y-7948091D01*
X4680331Y-7897796D01*
X4795546Y-7811546D01*
X4881796Y-7696331D01*
X4930810Y-7564916D01*
X4972681Y-7508984D01*
X5038145Y-7484566D01*
X5106418Y-7499417D01*
X5134673Y-7520569D01*
X5256599Y-7642495D01*
X5340631Y-7701335D01*
X5450165Y-7778032D01*
X5450167Y-7778033D01*
X5450170Y-7778035D01*
X5664337Y-7877903D01*
X5892592Y-7939063D01*
X6069034Y-7954500D01*
X6127999Y-7959659D01*
X6128000Y-7959659D01*
X6128001Y-7959659D01*
X6186966Y-7954500D01*
X6363408Y-7939063D01*
X6591663Y-7877903D01*
X6805830Y-7778035D01*
X6999401Y-7642495D01*
X7166495Y-7475401D01*
X7296425Y-7289842D01*
X7351002Y-7246217D01*
X7420500Y-7239023D01*
X7482855Y-7270546D01*
X7499575Y-7289842D01*
X7629500Y-7475395D01*
X7629505Y-7475401D01*
X7796599Y-7642495D01*
X7880631Y-7701335D01*
X7990165Y-7778032D01*
X7990167Y-7778033D01*
X7990170Y-7778035D01*
X8204337Y-7877903D01*
X8432592Y-7939063D01*
X8609034Y-7954500D01*
X8667999Y-7959659D01*
X8668000Y-7959659D01*
X8668001Y-7959659D01*
X8726966Y-7954500D01*
X8903408Y-7939063D01*
X9131663Y-7877903D01*
X9345830Y-7778035D01*
X9539401Y-7642495D01*
X9706495Y-7475401D01*
X9836425Y-7289842D01*
X9891002Y-7246217D01*
X9960500Y-7239023D01*
X10022855Y-7270546D01*
X10039575Y-7289842D01*
X10169500Y-7475395D01*
X10169505Y-7475401D01*
X10336599Y-7642495D01*
X10420631Y-7701335D01*
X10530165Y-7778032D01*
X10530167Y-7778033D01*
X10530170Y-7778035D01*
X10744337Y-7877903D01*
X10972592Y-7939063D01*
X11149034Y-7954500D01*
X11207999Y-7959659D01*
X11208000Y-7959659D01*
X11208001Y-7959659D01*
X11266966Y-7954500D01*
X11443408Y-7939063D01*
X11671663Y-7877903D01*
X11885830Y-7778035D01*
X12079401Y-7642495D01*
X12246495Y-7475401D01*
X12382035Y-7281830D01*
X12481903Y-7067663D01*
X12543063Y-6839408D01*
X12563659Y-6604000D01*
X12543063Y-6368592D01*
X12481903Y-6140337D01*
X12382035Y-5926171D01*
X12379926Y-5923158D01*
X12246494Y-5732597D01*
X12079402Y-5565506D01*
X12079401Y-5565505D01*
X11893405Y-5435269D01*
X11849781Y-5380692D01*
X11842588Y-5311193D01*
X11874110Y-5248839D01*
X11893405Y-5232119D01*
X12079082Y-5102105D01*
X12246105Y-4935082D01*
X12381600Y-4741578D01*
X12481429Y-4527492D01*
X12481432Y-4527486D01*
X12538636Y-4314000D01*
X11641686Y-4314000D01*
X11667493Y-4273844D01*
X11708000Y-4135889D01*
X11708000Y-4069000D01*
X15562341Y-4069000D01*
X15582936Y-4304403D01*
X15582938Y-4304413D01*
X15644094Y-4532655D01*
X15644096Y-4532659D01*
X15644097Y-4532663D01*
X15724620Y-4705344D01*
X15743965Y-4746830D01*
X15743967Y-4746834D01*
X15852281Y-4901521D01*
X15879501Y-4940396D01*
X15879506Y-4940402D01*
X16001430Y-5062326D01*
X16034915Y-5123649D01*
X16029931Y-5193341D01*
X15988059Y-5249274D01*
X15957083Y-5266189D01*
X15825669Y-5315203D01*
X15825664Y-5315206D01*
X15710455Y-5401452D01*
X15710452Y-5401455D01*
X15624206Y-5516664D01*
X15624202Y-5516671D01*
X15573908Y-5651517D01*
X15567501Y-5711116D01*
X15567500Y-5711135D01*
X15567500Y-7506870D01*
X15567501Y-7506876D01*
X15573908Y-7566483D01*
X15624202Y-7701328D01*
X15624206Y-7701335D01*
X15710452Y-7816544D01*
X15710455Y-7816547D01*
X15825664Y-7902793D01*
X15825671Y-7902797D01*
X15960517Y-7953091D01*
X15960516Y-7953091D01*
X15967444Y-7953835D01*
X16020127Y-7959500D01*
X17815872Y-7959499D01*
X17875483Y-7953091D01*
X18010331Y-7902796D01*
X18125546Y-7816546D01*
X18211796Y-7701331D01*
X18260810Y-7569916D01*
X18302681Y-7513984D01*
X18368145Y-7489566D01*
X18436418Y-7504417D01*
X18464673Y-7525569D01*
X18586599Y-7647495D01*
X18666395Y-7703369D01*
X18780165Y-7783032D01*
X18780167Y-7783033D01*
X18780170Y-7783035D01*
X18994337Y-7882903D01*
X19222592Y-7944063D01*
X19399034Y-7959500D01*
X19457999Y-7964659D01*
X19458000Y-7964659D01*
X19458001Y-7964659D01*
X19516966Y-7959500D01*
X19693408Y-7944063D01*
X19921663Y-7882903D01*
X20135830Y-7783035D01*
X20329401Y-7647495D01*
X20496495Y-7480401D01*
X20626425Y-7294842D01*
X20681002Y-7251217D01*
X20750500Y-7244023D01*
X20812855Y-7275546D01*
X20829575Y-7294842D01*
X20959500Y-7480395D01*
X20959505Y-7480401D01*
X21126599Y-7647495D01*
X21206395Y-7703369D01*
X21320165Y-7783032D01*
X21320167Y-7783033D01*
X21320170Y-7783035D01*
X21534337Y-7882903D01*
X21762592Y-7944063D01*
X21939034Y-7959500D01*
X21997999Y-7964659D01*
X21998000Y-7964659D01*
X21998001Y-7964659D01*
X22056966Y-7959500D01*
X22233408Y-7944063D01*
X22461663Y-7882903D01*
X22675830Y-7783035D01*
X22869401Y-7647495D01*
X23036495Y-7480401D01*
X23166425Y-7294842D01*
X23221002Y-7251217D01*
X23290500Y-7244023D01*
X23352855Y-7275546D01*
X23369575Y-7294842D01*
X23499500Y-7480395D01*
X23499505Y-7480401D01*
X23666599Y-7647495D01*
X23746395Y-7703369D01*
X23860165Y-7783032D01*
X23860167Y-7783033D01*
X23860170Y-7783035D01*
X24074337Y-7882903D01*
X24302592Y-7944063D01*
X24479034Y-7959500D01*
X24537999Y-7964659D01*
X24538000Y-7964659D01*
X24538001Y-7964659D01*
X24596966Y-7959500D01*
X24773408Y-7944063D01*
X25001663Y-7882903D01*
X25215830Y-7783035D01*
X25409401Y-7647495D01*
X25576495Y-7480401D01*
X25706425Y-7294842D01*
X25761002Y-7251217D01*
X25830500Y-7244023D01*
X25892855Y-7275546D01*
X25909575Y-7294842D01*
X26039500Y-7480395D01*
X26039505Y-7480401D01*
X26206599Y-7647495D01*
X26286395Y-7703369D01*
X26400165Y-7783032D01*
X26400167Y-7783033D01*
X26400170Y-7783035D01*
X26614337Y-7882903D01*
X26842592Y-7944063D01*
X27019034Y-7959500D01*
X27077999Y-7964659D01*
X27078000Y-7964659D01*
X27078001Y-7964659D01*
X27136966Y-7959500D01*
X27313408Y-7944063D01*
X27541663Y-7882903D01*
X27755830Y-7783035D01*
X27949401Y-7647495D01*
X28116495Y-7480401D01*
X28252035Y-7286830D01*
X28351903Y-7072663D01*
X28413063Y-6844408D01*
X28433659Y-6609000D01*
X28433221Y-6603999D01*
X28413063Y-6373596D01*
X28413063Y-6373592D01*
X28351903Y-6145337D01*
X28252035Y-5931171D01*
X28246425Y-5923158D01*
X28116494Y-5737597D01*
X27949402Y-5570506D01*
X27949401Y-5570505D01*
X27763405Y-5440269D01*
X27719781Y-5385692D01*
X27712588Y-5316193D01*
X27744110Y-5253839D01*
X27763405Y-5237119D01*
X27949082Y-5107105D01*
X28116105Y-4940082D01*
X28251600Y-4746578D01*
X28351429Y-4532492D01*
X28351432Y-4532486D01*
X28408636Y-4319000D01*
X27511686Y-4319000D01*
X27537493Y-4278844D01*
X27578000Y-4140889D01*
X27578000Y-3997111D01*
X27537493Y-3859156D01*
X27511686Y-3819000D01*
X28408636Y-3819000D01*
X28408635Y-3818999D01*
X28351432Y-3605513D01*
X28351429Y-3605507D01*
X28251600Y-3391422D01*
X28251599Y-3391420D01*
X28116113Y-3197926D01*
X28116108Y-3197920D01*
X27949082Y-3030894D01*
X27755578Y-2895399D01*
X27541492Y-2795570D01*
X27541486Y-2795567D01*
X27328000Y-2738364D01*
X27328000Y-3633498D01*
X27220315Y-3584320D01*
X27113763Y-3569000D01*
X27042237Y-3569000D01*
X26935685Y-3584320D01*
X26828000Y-3633498D01*
X26828000Y-2738364D01*
X26827999Y-2738364D01*
X26614513Y-2795567D01*
X26614507Y-2795570D01*
X26400422Y-2895399D01*
X26400420Y-2895400D01*
X26206926Y-3030886D01*
X26206920Y-3030891D01*
X26039891Y-3197920D01*
X26039890Y-3197922D01*
X25909575Y-3384031D01*
X25854998Y-3427655D01*
X25785499Y-3434848D01*
X25723145Y-3403326D01*
X25706425Y-3384031D01*
X25576109Y-3197922D01*
X25576108Y-3197920D01*
X25409082Y-3030894D01*
X25215578Y-2895399D01*
X25001492Y-2795570D01*
X25001486Y-2795567D01*
X24788000Y-2738364D01*
X24788000Y-3633498D01*
X24680315Y-3584320D01*
X24573763Y-3569000D01*
X24502237Y-3569000D01*
X24395685Y-3584320D01*
X24288000Y-3633498D01*
X24288000Y-2738364D01*
X24287999Y-2738364D01*
X24074513Y-2795567D01*
X24074507Y-2795570D01*
X23860422Y-2895399D01*
X23860420Y-2895400D01*
X23666926Y-3030886D01*
X23666920Y-3030891D01*
X23499891Y-3197920D01*
X23499890Y-3197922D01*
X23369575Y-3384031D01*
X23314998Y-3427655D01*
X23245499Y-3434848D01*
X23183145Y-3403326D01*
X23166425Y-3384031D01*
X23036109Y-3197922D01*
X23036108Y-3197920D01*
X22869082Y-3030894D01*
X22675578Y-2895399D01*
X22461492Y-2795570D01*
X22461486Y-2795567D01*
X22248000Y-2738364D01*
X22248000Y-3633498D01*
X22140315Y-3584320D01*
X22033763Y-3569000D01*
X21962237Y-3569000D01*
X21855685Y-3584320D01*
X21748000Y-3633498D01*
X21748000Y-2738364D01*
X21747999Y-2738364D01*
X21534513Y-2795567D01*
X21534507Y-2795570D01*
X21320422Y-2895399D01*
X21320420Y-2895400D01*
X21126926Y-3030886D01*
X21126920Y-3030891D01*
X20959891Y-3197920D01*
X20959890Y-3197922D01*
X20829575Y-3384031D01*
X20774998Y-3427655D01*
X20705499Y-3434848D01*
X20643145Y-3403326D01*
X20626425Y-3384031D01*
X20496109Y-3197922D01*
X20496108Y-3197920D01*
X20329082Y-3030894D01*
X20135578Y-2895399D01*
X19921492Y-2795570D01*
X19921486Y-2795567D01*
X19708000Y-2738364D01*
X19708000Y-3633498D01*
X19600315Y-3584320D01*
X19493763Y-3569000D01*
X19422237Y-3569000D01*
X19315685Y-3584320D01*
X19208000Y-3633498D01*
X19208000Y-2738364D01*
X19207999Y-2738364D01*
X18994513Y-2795567D01*
X18994507Y-2795570D01*
X18780422Y-2895399D01*
X18780420Y-2895400D01*
X18586926Y-3030886D01*
X18586920Y-3030891D01*
X18419891Y-3197920D01*
X18419890Y-3197922D01*
X18289880Y-3383595D01*
X18235303Y-3427219D01*
X18165804Y-3434412D01*
X18103450Y-3402890D01*
X18086730Y-3383594D01*
X17956494Y-3197597D01*
X17789402Y-3030506D01*
X17789395Y-3030501D01*
X17782811Y-3025891D01*
X17745834Y-2999999D01*
X17595834Y-2894967D01*
X17595830Y-2894965D01*
X17586038Y-2890399D01*
X17381663Y-2795097D01*
X17381659Y-2795096D01*
X17381655Y-2795094D01*
X17153413Y-2733938D01*
X17153403Y-2733936D01*
X16918001Y-2713341D01*
X16917999Y-2713341D01*
X16682596Y-2733936D01*
X16682586Y-2733938D01*
X16454344Y-2795094D01*
X16454335Y-2795098D01*
X16240171Y-2894964D01*
X16240169Y-2894965D01*
X16046597Y-3030505D01*
X15879505Y-3197597D01*
X15743965Y-3391169D01*
X15743964Y-3391171D01*
X15663373Y-3564000D01*
X15646347Y-3600513D01*
X15644098Y-3605335D01*
X15644094Y-3605344D01*
X15582938Y-3833586D01*
X15582936Y-3833596D01*
X15562341Y-4068999D01*
X15562341Y-4069000D01*
X11708000Y-4069000D01*
X11708000Y-3992111D01*
X11667493Y-3854156D01*
X11641686Y-3814000D01*
X12538636Y-3814000D01*
X12538635Y-3813999D01*
X12481432Y-3600513D01*
X12481429Y-3600507D01*
X12381600Y-3386422D01*
X12381599Y-3386420D01*
X12246113Y-3192926D01*
X12246108Y-3192920D01*
X12079082Y-3025894D01*
X11885578Y-2890399D01*
X11671492Y-2790570D01*
X11671486Y-2790567D01*
X11458000Y-2733364D01*
X11458000Y-3628498D01*
X11350315Y-3579320D01*
X11243763Y-3564000D01*
X11172237Y-3564000D01*
X11065685Y-3579320D01*
X10958000Y-3628498D01*
X10958000Y-2733364D01*
X10957999Y-2733364D01*
X10744513Y-2790567D01*
X10744507Y-2790570D01*
X10530422Y-2890399D01*
X10530420Y-2890400D01*
X10336926Y-3025886D01*
X10336920Y-3025891D01*
X10169891Y-3192920D01*
X10169890Y-3192922D01*
X10039575Y-3379031D01*
X9984998Y-3422655D01*
X9915499Y-3429848D01*
X9853145Y-3398326D01*
X9836425Y-3379031D01*
X9706109Y-3192922D01*
X9706108Y-3192920D01*
X9539082Y-3025894D01*
X9345578Y-2890399D01*
X9131492Y-2790570D01*
X9131486Y-2790567D01*
X8918000Y-2733364D01*
X8918000Y-3628498D01*
X8810315Y-3579320D01*
X8703763Y-3564000D01*
X8632237Y-3564000D01*
X8525685Y-3579320D01*
X8418000Y-3628498D01*
X8418000Y-2733364D01*
X8417999Y-2733364D01*
X8204513Y-2790567D01*
X8204507Y-2790570D01*
X7990422Y-2890399D01*
X7990420Y-2890400D01*
X7796926Y-3025886D01*
X7796920Y-3025891D01*
X7629891Y-3192920D01*
X7629890Y-3192922D01*
X7499575Y-3379031D01*
X7444998Y-3422655D01*
X7375499Y-3429848D01*
X7313145Y-3398326D01*
X7296425Y-3379031D01*
X7166109Y-3192922D01*
X7166108Y-3192920D01*
X6999082Y-3025894D01*
X6805578Y-2890399D01*
X6591492Y-2790570D01*
X6591486Y-2790567D01*
X6378000Y-2733364D01*
X6378000Y-3628498D01*
X6270315Y-3579320D01*
X6163763Y-3564000D01*
X6092237Y-3564000D01*
X5985685Y-3579320D01*
X5878000Y-3628498D01*
X5878000Y-2733364D01*
X5877999Y-2733364D01*
X5664513Y-2790567D01*
X5664507Y-2790570D01*
X5450422Y-2890399D01*
X5450420Y-2890400D01*
X5256926Y-3025886D01*
X5256920Y-3025891D01*
X5089891Y-3192920D01*
X5089890Y-3192922D01*
X4959575Y-3379031D01*
X4904998Y-3422655D01*
X4835499Y-3429848D01*
X4773145Y-3398326D01*
X4756425Y-3379031D01*
X4626109Y-3192922D01*
X4626108Y-3192920D01*
X4459082Y-3025894D01*
X4265578Y-2890399D01*
X4051492Y-2790570D01*
X4051486Y-2790567D01*
X3838000Y-2733364D01*
X3838000Y-3628498D01*
X3730315Y-3579320D01*
X3623763Y-3564000D01*
X3552237Y-3564000D01*
X3445685Y-3579320D01*
X3338000Y-3628498D01*
X3338000Y-2733364D01*
X3337999Y-2733364D01*
X3124513Y-2790567D01*
X3124507Y-2790570D01*
X2910422Y-2890399D01*
X2910420Y-2890400D01*
X2716926Y-3025886D01*
X2716920Y-3025891D01*
X2549891Y-3192920D01*
X2549886Y-3192926D01*
X2414400Y-3386420D01*
X2414399Y-3386422D01*
X2314570Y-3600507D01*
X2314567Y-3600513D01*
X2257364Y-3813999D01*
X2257364Y-3814000D01*
X3154314Y-3814000D01*
X3128507Y-3854156D01*
X3088000Y-3992111D01*
X3088000Y-4135889D01*
X3128507Y-4273844D01*
X3154314Y-4314000D01*
X2257364Y-4314000D01*
X2314567Y-4527486D01*
X2314570Y-4527492D01*
X2414399Y-4741578D01*
X2549894Y-4935082D01*
X2671946Y-5057134D01*
X2705431Y-5118457D01*
X2700447Y-5188149D01*
X2658575Y-5244082D01*
X2627598Y-5260997D01*
X2495671Y-5310202D01*
X2495664Y-5310206D01*
X2380455Y-5396452D01*
X2380452Y-5396455D01*
X2294206Y-5511664D01*
X2294202Y-5511671D01*
X2243908Y-5646517D01*
X2237501Y-5706116D01*
X2237500Y-5706135D01*
X2237500Y-7501870D01*
X1501870Y-7501870D01*
X1036319Y-7036319D01*
X1002834Y-6974996D01*
X1000000Y-6948638D01*
X1000000Y-3051362D01*
X1019685Y-2984323D01*
X1036319Y-2963681D01*
X2963681Y-1036319D01*
X3025004Y-1002834D01*
X3051362Y-1000000D01*
X74948638Y-1000000D01*
X75015677Y-1019685D01*
G37*
%TD.AperFunction*%
%TD*%
M02*
