%TF.GenerationSoftware,KiCad,Pcbnew,7.0.10*%
%TF.CreationDate,2024-04-05T15:08:29+02:00*%
%TF.ProjectId,serial-boomerang-shield,73657269-616c-42d6-926f-6f6d6572616e,v0.1*%
%TF.SameCoordinates,Original*%
%TF.FileFunction,Soldermask,Bot*%
%TF.FilePolarity,Negative*%
%FSLAX46Y46*%
G04 Gerber Fmt 4.6, Leading zero omitted, Abs format (unit mm)*
G04 Created by KiCad (PCBNEW 7.0.10) date 2024-04-05 15:08:29*
%MOMM*%
%LPD*%
G01*
G04 APERTURE LIST*
%ADD10R,1.700000X1.700000*%
%ADD11O,1.700000X1.700000*%
G04 APERTURE END LIST*
D10*
%TO.C,J9*%
X85852000Y-3302000D03*
D11*
X85852000Y-5842000D03*
X85852000Y-8382000D03*
X85852000Y-10922000D03*
X85852000Y-13462000D03*
X85852000Y-16002000D03*
X85852000Y-18542000D03*
%TD*%
D10*
%TO.C,J11*%
X85852000Y-49022000D03*
D11*
X85852000Y-46482000D03*
X85852000Y-43942000D03*
X85852000Y-41402000D03*
X85852000Y-38862000D03*
X85852000Y-36322000D03*
X85852000Y-33782000D03*
X85852000Y-31242000D03*
%TD*%
D10*
%TO.C,J7*%
X63500000Y-38862000D03*
D11*
X63500000Y-41402000D03*
X63500000Y-43942000D03*
X63500000Y-46482000D03*
X63500000Y-49022000D03*
X63500000Y-51562000D03*
%TD*%
D10*
%TO.C,J5*%
X63500000Y-5842000D03*
D11*
X63500000Y-8382000D03*
X63500000Y-10922000D03*
X63500000Y-13462000D03*
X63500000Y-16002000D03*
X63500000Y-18542000D03*
X63500000Y-21082000D03*
%TD*%
D10*
%TO.C,J2*%
X33020000Y-6604000D03*
D11*
X33020000Y-4064000D03*
X35560000Y-6604000D03*
X35560000Y-4064000D03*
X38100000Y-6604000D03*
X38100000Y-4064000D03*
X40640000Y-6604000D03*
X40640000Y-4064000D03*
X43180000Y-6604000D03*
X43180000Y-4064000D03*
%TD*%
D10*
%TO.C,J1*%
X19558000Y-6604000D03*
D11*
X19558000Y-4064000D03*
X22098000Y-6604000D03*
X22098000Y-4064000D03*
X24638000Y-6604000D03*
X24638000Y-4064000D03*
X27178000Y-6604000D03*
X27178000Y-4064000D03*
%TD*%
D10*
%TO.C,J8*%
X88392000Y-3302000D03*
D11*
X88392000Y-5842000D03*
X88392000Y-8382000D03*
X88392000Y-10922000D03*
X88392000Y-13462000D03*
X88392000Y-16002000D03*
X88392000Y-18542000D03*
%TD*%
D10*
%TO.C,J4*%
X60960000Y-5842000D03*
D11*
X60960000Y-8382000D03*
X60960000Y-10922000D03*
X60960000Y-13462000D03*
X60960000Y-16002000D03*
X60960000Y-18542000D03*
X60960000Y-21082000D03*
%TD*%
D10*
%TO.C,J6*%
X60960000Y-38862000D03*
D11*
X60960000Y-41402000D03*
X60960000Y-43942000D03*
X60960000Y-46482000D03*
X60960000Y-49022000D03*
X60960000Y-51562000D03*
%TD*%
D10*
%TO.C,J10*%
X88392000Y-49022000D03*
D11*
X88392000Y-46482000D03*
X88392000Y-43942000D03*
X88392000Y-41402000D03*
X88392000Y-38862000D03*
X88392000Y-36322000D03*
X88392000Y-33782000D03*
X88392000Y-31242000D03*
%TD*%
%TO.C,U1*%
X81032000Y-35000000D03*
X78492000Y-35000000D03*
X75952000Y-35000000D03*
X73412000Y-35000000D03*
X70872000Y-35000000D03*
D10*
X68332000Y-35000000D03*
%TD*%
%TO.C,J3*%
X52070000Y-6604000D03*
D11*
X54610000Y-6604000D03*
X52070000Y-4064000D03*
X54610000Y-4064000D03*
%TD*%
M02*
