%TF.GenerationSoftware,KiCad,Pcbnew,7.0.10*%
%TF.CreationDate,2024-04-05T15:08:29+02:00*%
%TF.ProjectId,serial-boomerang-shield,73657269-616c-42d6-926f-6f6d6572616e,v0.1*%
%TF.SameCoordinates,Original*%
%TF.FileFunction,Copper,L1,Top*%
%TF.FilePolarity,Positive*%
%FSLAX46Y46*%
G04 Gerber Fmt 4.6, Leading zero omitted, Abs format (unit mm)*
G04 Created by KiCad (PCBNEW 7.0.10) date 2024-04-05 15:08:29*
%MOMM*%
%LPD*%
G01*
G04 APERTURE LIST*
%TA.AperFunction,ComponentPad*%
%ADD10R,1.700000X1.700000*%
%TD*%
%TA.AperFunction,ComponentPad*%
%ADD11O,1.700000X1.700000*%
%TD*%
%TA.AperFunction,Conductor*%
%ADD12C,0.250000*%
%TD*%
%TA.AperFunction,Conductor*%
%ADD13C,0.500000*%
%TD*%
G04 APERTURE END LIST*
D10*
%TO.P,J9,1,Pin_1*%
%TO.N,Net-(J8-Pin_1)*%
X85852000Y-3302000D03*
D11*
%TO.P,J9,2,Pin_2*%
%TO.N,Net-(J8-Pin_2)*%
X85852000Y-5842000D03*
%TO.P,J9,3,Pin_3*%
%TO.N,Net-(J8-Pin_3)*%
X85852000Y-8382000D03*
%TO.P,J9,4,Pin_4*%
%TO.N,Net-(J8-Pin_4)*%
X85852000Y-10922000D03*
%TO.P,J9,5,Pin_5*%
%TO.N,Net-(J8-Pin_5)*%
X85852000Y-13462000D03*
%TO.P,J9,6,Pin_6*%
%TO.N,Net-(J8-Pin_6)*%
X85852000Y-16002000D03*
%TO.P,J9,7,Pin_7*%
%TO.N,Net-(J8-Pin_7)*%
X85852000Y-18542000D03*
%TD*%
D10*
%TO.P,J11,1,Pin_1*%
%TO.N,Net-(J10-Pin_1)*%
X85852000Y-49022000D03*
D11*
%TO.P,J11,2,Pin_2*%
%TO.N,Net-(J10-Pin_2)*%
X85852000Y-46482000D03*
%TO.P,J11,3,Pin_3*%
%TO.N,Net-(J10-Pin_3)*%
X85852000Y-43942000D03*
%TO.P,J11,4,Pin_4*%
%TO.N,Net-(J10-Pin_4)*%
X85852000Y-41402000D03*
%TO.P,J11,5,Pin_5*%
%TO.N,Net-(J10-Pin_5)*%
X85852000Y-38862000D03*
%TO.P,J11,6,Pin_6*%
%TO.N,Net-(J10-Pin_6)*%
X85852000Y-36322000D03*
%TO.P,J11,7,Pin_7*%
%TO.N,Net-(J10-Pin_7)*%
X85852000Y-33782000D03*
%TO.P,J11,8,Pin_8*%
%TO.N,Net-(J10-Pin_8)*%
X85852000Y-31242000D03*
%TD*%
D10*
%TO.P,J7,1,Pin_1*%
%TO.N,Net-(J6-Pin_1)*%
X63500000Y-38862000D03*
D11*
%TO.P,J7,2,Pin_2*%
%TO.N,Net-(J6-Pin_2)*%
X63500000Y-41402000D03*
%TO.P,J7,3,Pin_3*%
%TO.N,Net-(J6-Pin_3)*%
X63500000Y-43942000D03*
%TO.P,J7,4,Pin_4*%
%TO.N,Net-(J6-Pin_4)*%
X63500000Y-46482000D03*
%TO.P,J7,5,Pin_5*%
%TO.N,Net-(J6-Pin_5)*%
X63500000Y-49022000D03*
%TO.P,J7,6,Pin_6*%
%TO.N,Net-(J6-Pin_6)*%
X63500000Y-51562000D03*
%TD*%
D10*
%TO.P,J5,1,Pin_1*%
%TO.N,Net-(J4-Pin_1)*%
X63500000Y-5842000D03*
D11*
%TO.P,J5,2,Pin_2*%
%TO.N,Net-(J4-Pin_2)*%
X63500000Y-8382000D03*
%TO.P,J5,3,Pin_3*%
%TO.N,Net-(J4-Pin_3)*%
X63500000Y-10922000D03*
%TO.P,J5,4,Pin_4*%
%TO.N,Net-(J4-Pin_4)*%
X63500000Y-13462000D03*
%TO.P,J5,5,Pin_5*%
%TO.N,Net-(J4-Pin_5)*%
X63500000Y-16002000D03*
%TO.P,J5,6,Pin_6*%
%TO.N,Net-(J4-Pin_6)*%
X63500000Y-18542000D03*
%TO.P,J5,7,Pin_7*%
%TO.N,Net-(J4-Pin_7)*%
X63500000Y-21082000D03*
%TD*%
D10*
%TO.P,J2,1,Pin_1*%
%TO.N,unconnected-(J2-Pin_1-Pad1)*%
X33020000Y-6604000D03*
D11*
%TO.P,J2,2,Pin_2*%
%TO.N,unconnected-(J2-Pin_2-Pad2)*%
X33020000Y-4064000D03*
%TO.P,J2,3,Pin_3*%
%TO.N,unconnected-(J2-Pin_3-Pad3)*%
X35560000Y-6604000D03*
%TO.P,J2,4,Pin_4*%
%TO.N,GND*%
X35560000Y-4064000D03*
%TO.P,J2,5,Pin_5*%
%TO.N,unconnected-(J2-Pin_5-Pad5)*%
X38100000Y-6604000D03*
%TO.P,J2,6,Pin_6*%
%TO.N,GND*%
X38100000Y-4064000D03*
%TO.P,J2,7,Pin_7*%
%TO.N,unconnected-(J2-Pin_7-Pad7)*%
X40640000Y-6604000D03*
%TO.P,J2,8,Pin_8*%
%TO.N,GND*%
X40640000Y-4064000D03*
%TO.P,J2,9,Pin_9*%
%TO.N,unconnected-(J2-Pin_9-Pad9)*%
X43180000Y-6604000D03*
%TO.P,J2,10,Pin_10*%
%TO.N,GND*%
X43180000Y-4064000D03*
%TD*%
D10*
%TO.P,J1,1,Pin_1*%
%TO.N,+5V*%
X19558000Y-6604000D03*
D11*
%TO.P,J1,2,Pin_2*%
%TO.N,GND*%
X19558000Y-4064000D03*
%TO.P,J1,3,Pin_3*%
%TO.N,+5V*%
X22098000Y-6604000D03*
%TO.P,J1,4,Pin_4*%
%TO.N,GND*%
X22098000Y-4064000D03*
%TO.P,J1,5,Pin_5*%
%TO.N,+5V*%
X24638000Y-6604000D03*
%TO.P,J1,6,Pin_6*%
%TO.N,GND*%
X24638000Y-4064000D03*
%TO.P,J1,7,Pin_7*%
%TO.N,+5V*%
X27178000Y-6604000D03*
%TO.P,J1,8,Pin_8*%
%TO.N,GND*%
X27178000Y-4064000D03*
%TD*%
D10*
%TO.P,J8,1,Pin_1*%
%TO.N,Net-(J8-Pin_1)*%
X88392000Y-3302000D03*
D11*
%TO.P,J8,2,Pin_2*%
%TO.N,Net-(J8-Pin_2)*%
X88392000Y-5842000D03*
%TO.P,J8,3,Pin_3*%
%TO.N,Net-(J8-Pin_3)*%
X88392000Y-8382000D03*
%TO.P,J8,4,Pin_4*%
%TO.N,Net-(J8-Pin_4)*%
X88392000Y-10922000D03*
%TO.P,J8,5,Pin_5*%
%TO.N,Net-(J8-Pin_5)*%
X88392000Y-13462000D03*
%TO.P,J8,6,Pin_6*%
%TO.N,Net-(J8-Pin_6)*%
X88392000Y-16002000D03*
%TO.P,J8,7,Pin_7*%
%TO.N,Net-(J8-Pin_7)*%
X88392000Y-18542000D03*
%TD*%
D10*
%TO.P,J4,1,Pin_1*%
%TO.N,Net-(J4-Pin_1)*%
X60960000Y-5842000D03*
D11*
%TO.P,J4,2,Pin_2*%
%TO.N,Net-(J4-Pin_2)*%
X60960000Y-8382000D03*
%TO.P,J4,3,Pin_3*%
%TO.N,Net-(J4-Pin_3)*%
X60960000Y-10922000D03*
%TO.P,J4,4,Pin_4*%
%TO.N,Net-(J4-Pin_4)*%
X60960000Y-13462000D03*
%TO.P,J4,5,Pin_5*%
%TO.N,Net-(J4-Pin_5)*%
X60960000Y-16002000D03*
%TO.P,J4,6,Pin_6*%
%TO.N,Net-(J4-Pin_6)*%
X60960000Y-18542000D03*
%TO.P,J4,7,Pin_7*%
%TO.N,Net-(J4-Pin_7)*%
X60960000Y-21082000D03*
%TD*%
D10*
%TO.P,J6,1,Pin_1*%
%TO.N,Net-(J6-Pin_1)*%
X60960000Y-38862000D03*
D11*
%TO.P,J6,2,Pin_2*%
%TO.N,Net-(J6-Pin_2)*%
X60960000Y-41402000D03*
%TO.P,J6,3,Pin_3*%
%TO.N,Net-(J6-Pin_3)*%
X60960000Y-43942000D03*
%TO.P,J6,4,Pin_4*%
%TO.N,Net-(J6-Pin_4)*%
X60960000Y-46482000D03*
%TO.P,J6,5,Pin_5*%
%TO.N,Net-(J6-Pin_5)*%
X60960000Y-49022000D03*
%TO.P,J6,6,Pin_6*%
%TO.N,Net-(J6-Pin_6)*%
X60960000Y-51562000D03*
%TD*%
D10*
%TO.P,J10,1,Pin_1*%
%TO.N,Net-(J10-Pin_1)*%
X88392000Y-49022000D03*
D11*
%TO.P,J10,2,Pin_2*%
%TO.N,Net-(J10-Pin_2)*%
X88392000Y-46482000D03*
%TO.P,J10,3,Pin_3*%
%TO.N,Net-(J10-Pin_3)*%
X88392000Y-43942000D03*
%TO.P,J10,4,Pin_4*%
%TO.N,Net-(J10-Pin_4)*%
X88392000Y-41402000D03*
%TO.P,J10,5,Pin_5*%
%TO.N,Net-(J10-Pin_5)*%
X88392000Y-38862000D03*
%TO.P,J10,6,Pin_6*%
%TO.N,Net-(J10-Pin_6)*%
X88392000Y-36322000D03*
%TO.P,J10,7,Pin_7*%
%TO.N,Net-(J10-Pin_7)*%
X88392000Y-33782000D03*
%TO.P,J10,8,Pin_8*%
%TO.N,Net-(J10-Pin_8)*%
X88392000Y-31242000D03*
%TD*%
%TO.P,U1,6,+5V*%
%TO.N,unconnected-(U1-+5V-Pad6)*%
X81032000Y-35000000D03*
%TO.P,U1,5,GND*%
%TO.N,GND*%
X78492000Y-35000000D03*
%TO.P,U1,4,TXD*%
%TO.N,Net-(J6-Pin_2)*%
X75952000Y-35000000D03*
%TO.P,U1,3,RXI*%
%TO.N,Net-(J6-Pin_3)*%
X73412000Y-35000000D03*
%TO.P,U1,2,DTR*%
%TO.N,unconnected-(U1-DTR-Pad2)*%
X70872000Y-35000000D03*
D10*
%TO.P,U1,1,3V3*%
%TO.N,unconnected-(U1-3V3-Pad1)*%
X68332000Y-35000000D03*
%TD*%
%TO.P,J3,1,Pin_1*%
%TO.N,+5V*%
X52070000Y-6604000D03*
D11*
%TO.P,J3,2,Pin_2*%
X54610000Y-6604000D03*
%TO.P,J3,3,Pin_3*%
%TO.N,GND*%
X52070000Y-4064000D03*
%TO.P,J3,4,Pin_4*%
X54610000Y-4064000D03*
%TD*%
D12*
%TO.N,Net-(J6-Pin_2)*%
X63505800Y-41396200D02*
X60980000Y-41396200D01*
X66802000Y-38100000D02*
X63505800Y-41396200D01*
X74675500Y-31496000D02*
X68071000Y-31496000D01*
X66800000Y-32767000D02*
X66800000Y-38098000D01*
X75946000Y-32766500D02*
X74675500Y-31496000D01*
X75946000Y-34791000D02*
X75946000Y-32766500D01*
X68071000Y-31496000D02*
X66800000Y-32767000D01*
X76120000Y-34965000D02*
X75946000Y-34791000D01*
X66800000Y-38098000D02*
X66802000Y-38100000D01*
%TO.N,Net-(J6-Pin_3)*%
X73406000Y-34791000D02*
X73580000Y-34965000D01*
X73406000Y-32767000D02*
X73406000Y-34791000D01*
X72643000Y-32004000D02*
X73406000Y-32767000D01*
X69596000Y-32766000D02*
X70358000Y-32004000D01*
X63520000Y-43942000D02*
X69596000Y-37866000D01*
X70358000Y-32004000D02*
X72643000Y-32004000D01*
X63514200Y-43936200D02*
X63520000Y-43942000D01*
X69596000Y-37866000D02*
X69596000Y-32766000D01*
X60980000Y-43936200D02*
X63514200Y-43936200D01*
%TO.N,Net-(J6-Pin_6)*%
X63514200Y-51556200D02*
X60980000Y-51556200D01*
X63520000Y-51562000D02*
X63514200Y-51556200D01*
%TO.N,Net-(J6-Pin_5)*%
X63520000Y-49022000D02*
X63514200Y-49016200D01*
X63514200Y-49016200D02*
X60980000Y-49016200D01*
%TO.N,Net-(J6-Pin_4)*%
X63520000Y-46482000D02*
X63514200Y-46476200D01*
X63514200Y-46476200D02*
X60980000Y-46476200D01*
%TO.N,Net-(J6-Pin_1)*%
X63520000Y-38862000D02*
X60980000Y-38862000D01*
D13*
%TO.N,+5V*%
X52070000Y-6604000D02*
X54610000Y-6604000D01*
X27178000Y-8280000D02*
X27898000Y-9000000D01*
X27178000Y-6604000D02*
X27178000Y-8280000D01*
X19588000Y-6604000D02*
X27178000Y-6604000D01*
X27898000Y-9000000D02*
X51000000Y-9000000D01*
X51070000Y-8995000D02*
X52070000Y-7995000D01*
X52070000Y-7995000D02*
X52070000Y-6604000D01*
D12*
%TO.N,Net-(J4-Pin_1)*%
X60960000Y-5841200D02*
X62136900Y-5841200D01*
X63500000Y-5842000D02*
X62137700Y-5842000D01*
X62137700Y-5842000D02*
X62136900Y-5841200D01*
%TO.N,Net-(J4-Pin_2)*%
X60960000Y-8381200D02*
X62136900Y-8381200D01*
X62137700Y-8382000D02*
X62136900Y-8381200D01*
X63500000Y-8382000D02*
X62137700Y-8382000D01*
%TO.N,Net-(J4-Pin_3)*%
X63500000Y-10922000D02*
X62137700Y-10922000D01*
X60960000Y-10921200D02*
X62136900Y-10921200D01*
X62137700Y-10922000D02*
X62136900Y-10921200D01*
%TO.N,Net-(J8-Pin_1)*%
X85852000Y-3302000D02*
X88392000Y-3302000D01*
%TO.N,Net-(J8-Pin_2)*%
X85852000Y-5842000D02*
X88392000Y-5842000D01*
%TO.N,Net-(J8-Pin_3)*%
X85852000Y-8382000D02*
X88392000Y-8382000D01*
%TO.N,Net-(J8-Pin_4)*%
X85852000Y-10922000D02*
X88392000Y-10922000D01*
%TO.N,Net-(J8-Pin_5)*%
X85852000Y-13462000D02*
X88392000Y-13462000D01*
%TO.N,Net-(J8-Pin_6)*%
X85852000Y-16002000D02*
X88392000Y-16002000D01*
%TO.N,Net-(J8-Pin_7)*%
X85852000Y-18542000D02*
X88392000Y-18542000D01*
%TO.N,Net-(J10-Pin_7)*%
X88392000Y-33782000D02*
X85852000Y-33782000D01*
%TO.N,Net-(J10-Pin_8)*%
X88392000Y-31242000D02*
X85852000Y-31242000D01*
%TO.N,Net-(J4-Pin_4)*%
X62137700Y-13462000D02*
X62136900Y-13461200D01*
X60960000Y-13461200D02*
X62136900Y-13461200D01*
X63500000Y-13462000D02*
X62137700Y-13462000D01*
%TO.N,Net-(J4-Pin_5)*%
X63500000Y-16002000D02*
X62137700Y-16002000D01*
X62137700Y-16002000D02*
X62136900Y-16001200D01*
X60960000Y-16001200D02*
X62136900Y-16001200D01*
%TO.N,Net-(J4-Pin_6)*%
X62137700Y-18542000D02*
X62136900Y-18541200D01*
X60960000Y-18541200D02*
X62136900Y-18541200D01*
X63500000Y-18542000D02*
X62137700Y-18542000D01*
%TO.N,Net-(J4-Pin_7)*%
X60960000Y-21081200D02*
X62136900Y-21081200D01*
X63500000Y-21082000D02*
X62137700Y-21082000D01*
X62137700Y-21082000D02*
X62136900Y-21081200D01*
%TO.N,Net-(J10-Pin_1)*%
X88392000Y-49022000D02*
X85852000Y-49022000D01*
%TO.N,Net-(J10-Pin_2)*%
X88392000Y-46482000D02*
X85852000Y-46482000D01*
%TO.N,Net-(J10-Pin_3)*%
X88392000Y-43942000D02*
X85852000Y-43942000D01*
%TO.N,Net-(J10-Pin_4)*%
X88392000Y-41402000D02*
X85852000Y-41402000D01*
%TO.N,Net-(J10-Pin_5)*%
X88392000Y-38862000D02*
X85852000Y-38862000D01*
%TO.N,Net-(J10-Pin_6)*%
X88392000Y-36322000D02*
X85852000Y-36322000D01*
%TD*%
%TA.AperFunction,Conductor*%
%TO.N,GND*%
G36*
X37640507Y-3854156D02*
G01*
X37600000Y-3992111D01*
X37600000Y-4135889D01*
X37640507Y-4273844D01*
X37666314Y-4314000D01*
X35993686Y-4314000D01*
X36019493Y-4273844D01*
X36060000Y-4135889D01*
X36060000Y-3992111D01*
X36019493Y-3854156D01*
X35993686Y-3814000D01*
X37666314Y-3814000D01*
X37640507Y-3854156D01*
G37*
%TD.AperFunction*%
%TA.AperFunction,Conductor*%
G36*
X40180507Y-3854156D02*
G01*
X40140000Y-3992111D01*
X40140000Y-4135889D01*
X40180507Y-4273844D01*
X40206314Y-4314000D01*
X38533686Y-4314000D01*
X38559493Y-4273844D01*
X38600000Y-4135889D01*
X38600000Y-3992111D01*
X38559493Y-3854156D01*
X38533686Y-3814000D01*
X40206314Y-3814000D01*
X40180507Y-3854156D01*
G37*
%TD.AperFunction*%
%TA.AperFunction,Conductor*%
G36*
X42720507Y-3854156D02*
G01*
X42680000Y-3992111D01*
X42680000Y-4135889D01*
X42720507Y-4273844D01*
X42746314Y-4314000D01*
X41073686Y-4314000D01*
X41099493Y-4273844D01*
X41140000Y-4135889D01*
X41140000Y-3992111D01*
X41099493Y-3854156D01*
X41073686Y-3814000D01*
X42746314Y-3814000D01*
X42720507Y-3854156D01*
G37*
%TD.AperFunction*%
%TA.AperFunction,Conductor*%
G36*
X91015677Y-1019685D02*
G01*
X91036319Y-1036319D01*
X92963681Y-2963681D01*
X92997166Y-3025004D01*
X93000000Y-3051362D01*
X93000000Y-17948638D01*
X92980315Y-18015677D01*
X92963681Y-18036319D01*
X91036319Y-19963681D01*
X90974996Y-19997166D01*
X90948638Y-20000000D01*
X89020193Y-20000000D01*
X88953154Y-19980315D01*
X88907399Y-19927511D01*
X88897455Y-19858353D01*
X88926480Y-19794797D01*
X88967788Y-19763618D01*
X88968978Y-19763063D01*
X89069830Y-19716035D01*
X89263401Y-19580495D01*
X89430495Y-19413401D01*
X89566035Y-19219830D01*
X89665903Y-19005663D01*
X89727063Y-18777408D01*
X89747659Y-18542000D01*
X89727063Y-18306592D01*
X89665903Y-18078337D01*
X89566035Y-17864171D01*
X89560425Y-17856158D01*
X89430494Y-17670597D01*
X89263402Y-17503506D01*
X89263396Y-17503501D01*
X89077842Y-17373575D01*
X89034217Y-17318998D01*
X89027023Y-17249500D01*
X89058546Y-17187145D01*
X89077842Y-17170425D01*
X89100026Y-17154891D01*
X89263401Y-17040495D01*
X89430495Y-16873401D01*
X89566035Y-16679830D01*
X89665903Y-16465663D01*
X89727063Y-16237408D01*
X89747659Y-16002000D01*
X89727063Y-15766592D01*
X89665903Y-15538337D01*
X89566035Y-15324171D01*
X89560425Y-15316158D01*
X89430494Y-15130597D01*
X89263402Y-14963506D01*
X89263396Y-14963501D01*
X89077842Y-14833575D01*
X89034217Y-14778998D01*
X89027023Y-14709500D01*
X89058546Y-14647145D01*
X89077842Y-14630425D01*
X89100026Y-14614891D01*
X89263401Y-14500495D01*
X89430495Y-14333401D01*
X89566035Y-14139830D01*
X89665903Y-13925663D01*
X89727063Y-13697408D01*
X89747659Y-13462000D01*
X89727063Y-13226592D01*
X89665903Y-12998337D01*
X89566035Y-12784171D01*
X89560425Y-12776158D01*
X89430494Y-12590597D01*
X89263402Y-12423506D01*
X89263396Y-12423501D01*
X89077842Y-12293575D01*
X89034217Y-12238998D01*
X89027023Y-12169500D01*
X89058546Y-12107145D01*
X89077842Y-12090425D01*
X89102580Y-12073103D01*
X89263401Y-11960495D01*
X89430495Y-11793401D01*
X89566035Y-11599830D01*
X89665903Y-11385663D01*
X89727063Y-11157408D01*
X89747659Y-10922000D01*
X89727063Y-10686592D01*
X89665903Y-10458337D01*
X89566035Y-10244171D01*
X89560425Y-10236158D01*
X89430494Y-10050597D01*
X89263402Y-9883506D01*
X89263396Y-9883501D01*
X89077842Y-9753575D01*
X89034217Y-9698998D01*
X89027023Y-9629500D01*
X89058546Y-9567145D01*
X89077842Y-9550425D01*
X89100026Y-9534891D01*
X89263401Y-9420495D01*
X89430495Y-9253401D01*
X89566035Y-9059830D01*
X89665903Y-8845663D01*
X89727063Y-8617408D01*
X89747659Y-8382000D01*
X89745566Y-8358083D01*
X89736411Y-8253437D01*
X89727063Y-8146592D01*
X89675593Y-7954500D01*
X89665905Y-7918344D01*
X89665904Y-7918343D01*
X89665903Y-7918337D01*
X89566035Y-7704171D01*
X89560549Y-7696335D01*
X89430494Y-7510597D01*
X89263402Y-7343506D01*
X89263396Y-7343501D01*
X89077842Y-7213575D01*
X89034217Y-7158998D01*
X89027023Y-7089500D01*
X89058546Y-7027145D01*
X89077842Y-7010425D01*
X89166083Y-6948638D01*
X89263401Y-6880495D01*
X89430495Y-6713401D01*
X89566035Y-6519830D01*
X89665903Y-6305663D01*
X89727063Y-6077408D01*
X89747659Y-5842000D01*
X89727063Y-5606592D01*
X89665903Y-5378337D01*
X89566035Y-5164171D01*
X89560424Y-5156158D01*
X89430496Y-4970600D01*
X89394974Y-4935078D01*
X89308567Y-4848671D01*
X89275084Y-4787351D01*
X89280068Y-4717659D01*
X89321939Y-4661725D01*
X89352915Y-4644810D01*
X89484331Y-4595796D01*
X89599546Y-4509546D01*
X89685796Y-4394331D01*
X89736091Y-4259483D01*
X89742500Y-4199873D01*
X89742499Y-2404128D01*
X89736091Y-2344517D01*
X89685796Y-2209669D01*
X89685795Y-2209668D01*
X89685793Y-2209664D01*
X89599547Y-2094455D01*
X89599544Y-2094452D01*
X89484335Y-2008206D01*
X89484328Y-2008202D01*
X89349482Y-1957908D01*
X89349483Y-1957908D01*
X89289883Y-1951501D01*
X89289881Y-1951500D01*
X89289873Y-1951500D01*
X89289864Y-1951500D01*
X87494129Y-1951500D01*
X87494123Y-1951501D01*
X87434516Y-1957908D01*
X87299671Y-2008202D01*
X87299669Y-2008203D01*
X87196311Y-2085578D01*
X87130847Y-2109995D01*
X87062574Y-2095144D01*
X87047689Y-2085578D01*
X86944330Y-2008203D01*
X86944328Y-2008202D01*
X86809482Y-1957908D01*
X86809483Y-1957908D01*
X86749883Y-1951501D01*
X86749881Y-1951500D01*
X86749873Y-1951500D01*
X86749864Y-1951500D01*
X84954129Y-1951500D01*
X84954123Y-1951501D01*
X84894516Y-1957908D01*
X84759671Y-2008202D01*
X84759664Y-2008206D01*
X84644455Y-2094452D01*
X84644452Y-2094455D01*
X84558206Y-2209664D01*
X84558202Y-2209671D01*
X84507908Y-2344517D01*
X84504484Y-2376369D01*
X84501501Y-2404123D01*
X84501500Y-2404135D01*
X84501500Y-4199870D01*
X84501501Y-4199876D01*
X84507908Y-4259483D01*
X84558202Y-4394328D01*
X84558206Y-4394335D01*
X84644452Y-4509544D01*
X84644455Y-4509547D01*
X84759664Y-4595793D01*
X84759671Y-4595797D01*
X84891081Y-4644810D01*
X84947015Y-4686681D01*
X84971432Y-4752145D01*
X84956580Y-4820418D01*
X84935430Y-4848673D01*
X84813503Y-4970600D01*
X84677965Y-5164169D01*
X84677964Y-5164171D01*
X84578098Y-5378335D01*
X84578094Y-5378344D01*
X84516938Y-5606586D01*
X84516936Y-5606596D01*
X84496341Y-5841999D01*
X84496341Y-5842000D01*
X84516936Y-6077403D01*
X84516938Y-6077413D01*
X84578094Y-6305655D01*
X84578096Y-6305659D01*
X84578097Y-6305663D01*
X84653563Y-6467500D01*
X84677965Y-6519830D01*
X84677967Y-6519834D01*
X84786281Y-6674521D01*
X84813501Y-6713396D01*
X84813506Y-6713402D01*
X84980597Y-6880493D01*
X84980603Y-6880498D01*
X85166158Y-7010425D01*
X85209783Y-7065002D01*
X85216977Y-7134500D01*
X85185454Y-7196855D01*
X85166158Y-7213575D01*
X84980597Y-7343505D01*
X84813505Y-7510597D01*
X84677965Y-7704169D01*
X84677964Y-7704171D01*
X84578098Y-7918335D01*
X84578094Y-7918344D01*
X84516938Y-8146586D01*
X84516936Y-8146596D01*
X84496341Y-8381999D01*
X84496341Y-8382000D01*
X84516936Y-8617403D01*
X84516938Y-8617413D01*
X84578094Y-8845655D01*
X84578096Y-8845659D01*
X84578097Y-8845663D01*
X84658003Y-9017022D01*
X84677965Y-9059830D01*
X84677967Y-9059834D01*
X84786281Y-9214521D01*
X84813501Y-9253396D01*
X84813506Y-9253402D01*
X84980597Y-9420493D01*
X84980603Y-9420498D01*
X85166158Y-9550425D01*
X85209783Y-9605002D01*
X85216977Y-9674500D01*
X85185454Y-9736855D01*
X85166158Y-9753575D01*
X84980597Y-9883505D01*
X84813505Y-10050597D01*
X84677965Y-10244169D01*
X84677964Y-10244171D01*
X84578098Y-10458335D01*
X84578094Y-10458344D01*
X84516938Y-10686586D01*
X84516936Y-10686596D01*
X84496341Y-10921999D01*
X84496341Y-10922000D01*
X84516936Y-11157403D01*
X84516938Y-11157413D01*
X84578094Y-11385655D01*
X84578096Y-11385659D01*
X84578097Y-11385663D01*
X84658003Y-11557022D01*
X84677965Y-11599830D01*
X84677967Y-11599834D01*
X84703243Y-11635931D01*
X84813501Y-11793396D01*
X84813506Y-11793402D01*
X84980597Y-11960493D01*
X84980603Y-11960498D01*
X85166158Y-12090425D01*
X85209783Y-12145002D01*
X85216977Y-12214500D01*
X85185454Y-12276855D01*
X85166158Y-12293575D01*
X84980597Y-12423505D01*
X84813505Y-12590597D01*
X84677965Y-12784169D01*
X84677964Y-12784171D01*
X84578098Y-12998335D01*
X84578094Y-12998344D01*
X84516938Y-13226586D01*
X84516936Y-13226596D01*
X84496341Y-13461999D01*
X84496341Y-13462000D01*
X84516936Y-13697403D01*
X84516938Y-13697413D01*
X84578094Y-13925655D01*
X84578096Y-13925659D01*
X84578097Y-13925663D01*
X84658003Y-14097022D01*
X84677965Y-14139830D01*
X84677967Y-14139834D01*
X84786281Y-14294521D01*
X84813501Y-14333396D01*
X84813506Y-14333402D01*
X84980597Y-14500493D01*
X84980603Y-14500498D01*
X85166158Y-14630425D01*
X85209783Y-14685002D01*
X85216977Y-14754500D01*
X85185454Y-14816855D01*
X85166158Y-14833575D01*
X84980597Y-14963505D01*
X84813505Y-15130597D01*
X84677965Y-15324169D01*
X84677964Y-15324171D01*
X84578098Y-15538335D01*
X84578094Y-15538344D01*
X84516938Y-15766586D01*
X84516936Y-15766596D01*
X84496341Y-16001999D01*
X84496341Y-16002000D01*
X84516936Y-16237403D01*
X84516938Y-16237413D01*
X84578094Y-16465655D01*
X84578096Y-16465659D01*
X84578097Y-16465663D01*
X84658003Y-16637022D01*
X84677965Y-16679830D01*
X84677967Y-16679834D01*
X84786281Y-16834521D01*
X84813501Y-16873396D01*
X84813506Y-16873402D01*
X84980597Y-17040493D01*
X84980603Y-17040498D01*
X85166158Y-17170425D01*
X85209783Y-17225002D01*
X85216977Y-17294500D01*
X85185454Y-17356855D01*
X85166158Y-17373575D01*
X84980597Y-17503505D01*
X84813505Y-17670597D01*
X84677965Y-17864169D01*
X84677964Y-17864171D01*
X84578098Y-18078335D01*
X84578094Y-18078344D01*
X84516938Y-18306586D01*
X84516936Y-18306596D01*
X84496341Y-18541999D01*
X84496341Y-18542000D01*
X84516936Y-18777403D01*
X84516938Y-18777413D01*
X84578094Y-19005655D01*
X84578096Y-19005659D01*
X84578097Y-19005663D01*
X84658003Y-19177022D01*
X84677965Y-19219830D01*
X84677967Y-19219834D01*
X84778962Y-19364069D01*
X84813505Y-19413401D01*
X84980599Y-19580495D01*
X85060487Y-19636433D01*
X85174165Y-19716032D01*
X85174167Y-19716033D01*
X85174170Y-19716035D01*
X85275022Y-19763063D01*
X85276212Y-19763618D01*
X85328651Y-19809790D01*
X85347803Y-19876984D01*
X85327587Y-19943865D01*
X85274422Y-19989200D01*
X85223807Y-20000000D01*
X84999999Y-20000000D01*
X83000000Y-21999999D01*
X83000000Y-28000000D01*
X85007209Y-30007209D01*
X85040694Y-30068532D01*
X85035710Y-30138224D01*
X84993838Y-30194157D01*
X84990657Y-30196461D01*
X84980597Y-30203505D01*
X84813505Y-30370597D01*
X84677965Y-30564169D01*
X84677964Y-30564171D01*
X84578098Y-30778335D01*
X84578094Y-30778344D01*
X84516938Y-31006586D01*
X84516936Y-31006596D01*
X84496341Y-31241999D01*
X84496341Y-31242000D01*
X84516936Y-31477403D01*
X84516938Y-31477413D01*
X84578094Y-31705655D01*
X84578096Y-31705659D01*
X84578097Y-31705663D01*
X84653563Y-31867500D01*
X84677965Y-31919830D01*
X84677967Y-31919834D01*
X84770065Y-32051362D01*
X84813501Y-32113396D01*
X84813506Y-32113402D01*
X84980597Y-32280493D01*
X84980603Y-32280498D01*
X85166158Y-32410425D01*
X85209783Y-32465002D01*
X85216977Y-32534500D01*
X85185454Y-32596855D01*
X85166158Y-32613575D01*
X84980597Y-32743505D01*
X84813505Y-32910597D01*
X84677965Y-33104169D01*
X84677964Y-33104171D01*
X84578098Y-33318335D01*
X84578094Y-33318344D01*
X84516938Y-33546586D01*
X84516936Y-33546596D01*
X84496341Y-33781999D01*
X84496341Y-33782000D01*
X84516936Y-34017403D01*
X84516938Y-34017413D01*
X84578094Y-34245655D01*
X84578096Y-34245659D01*
X84578097Y-34245663D01*
X84619035Y-34333454D01*
X84677965Y-34459830D01*
X84677967Y-34459834D01*
X84786281Y-34614521D01*
X84813501Y-34653396D01*
X84813506Y-34653402D01*
X84980597Y-34820493D01*
X84980603Y-34820498D01*
X85166158Y-34950425D01*
X85209783Y-35005002D01*
X85216977Y-35074500D01*
X85185454Y-35136855D01*
X85166158Y-35153575D01*
X84980597Y-35283505D01*
X84813505Y-35450597D01*
X84677965Y-35644169D01*
X84677964Y-35644171D01*
X84578098Y-35858335D01*
X84578094Y-35858344D01*
X84516938Y-36086586D01*
X84516936Y-36086596D01*
X84496341Y-36321999D01*
X84496341Y-36322000D01*
X84516936Y-36557403D01*
X84516938Y-36557413D01*
X84578094Y-36785655D01*
X84578096Y-36785659D01*
X84578097Y-36785663D01*
X84653563Y-36947500D01*
X84677965Y-36999830D01*
X84677967Y-36999834D01*
X84759319Y-37116016D01*
X84813501Y-37193396D01*
X84813506Y-37193402D01*
X84980597Y-37360493D01*
X84980603Y-37360498D01*
X85166158Y-37490425D01*
X85209783Y-37545002D01*
X85216977Y-37614500D01*
X85185454Y-37676855D01*
X85166158Y-37693575D01*
X84980597Y-37823505D01*
X84813505Y-37990597D01*
X84677965Y-38184169D01*
X84677964Y-38184171D01*
X84578098Y-38398335D01*
X84578094Y-38398344D01*
X84516938Y-38626586D01*
X84516936Y-38626596D01*
X84496341Y-38861999D01*
X84496341Y-38862000D01*
X84516936Y-39097403D01*
X84516938Y-39097413D01*
X84578094Y-39325655D01*
X84578096Y-39325659D01*
X84578097Y-39325663D01*
X84601742Y-39376369D01*
X84677965Y-39539830D01*
X84677967Y-39539834D01*
X84780641Y-39686467D01*
X84813501Y-39733396D01*
X84813506Y-39733402D01*
X84980597Y-39900493D01*
X84980603Y-39900498D01*
X85166158Y-40030425D01*
X85209783Y-40085002D01*
X85216977Y-40154500D01*
X85185454Y-40216855D01*
X85166158Y-40233575D01*
X84980597Y-40363505D01*
X84813505Y-40530597D01*
X84677965Y-40724169D01*
X84677964Y-40724171D01*
X84578098Y-40938335D01*
X84578094Y-40938344D01*
X84516938Y-41166586D01*
X84516936Y-41166596D01*
X84496341Y-41401999D01*
X84496341Y-41402000D01*
X84516936Y-41637403D01*
X84516938Y-41637413D01*
X84578094Y-41865655D01*
X84578096Y-41865659D01*
X84578097Y-41865663D01*
X84653563Y-42027500D01*
X84677965Y-42079830D01*
X84677967Y-42079834D01*
X84786281Y-42234521D01*
X84813501Y-42273396D01*
X84813506Y-42273402D01*
X84980597Y-42440493D01*
X84980603Y-42440498D01*
X85166158Y-42570425D01*
X85209783Y-42625002D01*
X85216977Y-42694500D01*
X85185454Y-42756855D01*
X85166158Y-42773575D01*
X84980597Y-42903505D01*
X84813505Y-43070597D01*
X84677965Y-43264169D01*
X84677964Y-43264171D01*
X84578098Y-43478335D01*
X84578094Y-43478344D01*
X84516938Y-43706586D01*
X84516936Y-43706596D01*
X84496341Y-43941999D01*
X84496341Y-43942000D01*
X84516936Y-44177403D01*
X84516938Y-44177413D01*
X84578094Y-44405655D01*
X84578096Y-44405659D01*
X84578097Y-44405663D01*
X84653563Y-44567500D01*
X84677965Y-44619830D01*
X84677967Y-44619834D01*
X84786281Y-44774521D01*
X84813501Y-44813396D01*
X84813506Y-44813402D01*
X84980597Y-44980493D01*
X84980603Y-44980498D01*
X85166158Y-45110425D01*
X85209783Y-45165002D01*
X85216977Y-45234500D01*
X85185454Y-45296855D01*
X85166158Y-45313575D01*
X84980597Y-45443505D01*
X84813505Y-45610597D01*
X84677965Y-45804169D01*
X84677964Y-45804171D01*
X84578098Y-46018335D01*
X84578094Y-46018344D01*
X84516938Y-46246586D01*
X84516936Y-46246596D01*
X84496341Y-46481999D01*
X84496341Y-46482000D01*
X84516936Y-46717403D01*
X84516938Y-46717413D01*
X84578094Y-46945655D01*
X84578096Y-46945659D01*
X84578097Y-46945663D01*
X84653563Y-47107500D01*
X84677965Y-47159830D01*
X84677967Y-47159834D01*
X84786281Y-47314521D01*
X84813501Y-47353396D01*
X84813506Y-47353402D01*
X84935430Y-47475326D01*
X84968915Y-47536649D01*
X84963931Y-47606341D01*
X84922059Y-47662274D01*
X84891083Y-47679189D01*
X84759669Y-47728203D01*
X84759664Y-47728206D01*
X84644455Y-47814452D01*
X84644452Y-47814455D01*
X84558206Y-47929664D01*
X84558202Y-47929671D01*
X84507908Y-48064517D01*
X84501501Y-48124116D01*
X84501501Y-48124123D01*
X84501500Y-48124135D01*
X84501500Y-49919870D01*
X84501501Y-49919876D01*
X84507908Y-49979483D01*
X84558202Y-50114328D01*
X84558206Y-50114335D01*
X84644452Y-50229544D01*
X84644455Y-50229547D01*
X84759664Y-50315793D01*
X84759671Y-50315797D01*
X84894517Y-50366091D01*
X84894516Y-50366091D01*
X84901444Y-50366835D01*
X84954127Y-50372500D01*
X86749872Y-50372499D01*
X86809483Y-50366091D01*
X86944331Y-50315796D01*
X87047690Y-50238421D01*
X87113152Y-50214004D01*
X87181425Y-50228855D01*
X87196303Y-50238416D01*
X87237826Y-50269500D01*
X87299668Y-50315795D01*
X87299671Y-50315797D01*
X87434517Y-50366091D01*
X87434516Y-50366091D01*
X87441444Y-50366835D01*
X87494127Y-50372500D01*
X89289872Y-50372499D01*
X89349483Y-50366091D01*
X89484331Y-50315796D01*
X89599546Y-50229546D01*
X89685796Y-50114331D01*
X89736091Y-49979483D01*
X89742500Y-49919873D01*
X89742499Y-48124128D01*
X89736091Y-48064517D01*
X89685796Y-47929669D01*
X89685795Y-47929668D01*
X89685793Y-47929664D01*
X89599547Y-47814455D01*
X89599544Y-47814452D01*
X89484335Y-47728206D01*
X89484328Y-47728202D01*
X89352917Y-47679189D01*
X89296983Y-47637318D01*
X89272566Y-47571853D01*
X89287418Y-47503580D01*
X89308563Y-47475332D01*
X89430495Y-47353401D01*
X89566035Y-47159830D01*
X89665903Y-46945663D01*
X89727063Y-46717408D01*
X89747659Y-46482000D01*
X89727063Y-46246592D01*
X89665903Y-46018337D01*
X89566035Y-45804171D01*
X89560425Y-45796158D01*
X89430494Y-45610597D01*
X89263402Y-45443506D01*
X89263396Y-45443501D01*
X89077842Y-45313575D01*
X89034217Y-45258998D01*
X89027023Y-45189500D01*
X89058546Y-45127145D01*
X89077842Y-45110425D01*
X89100026Y-45094891D01*
X89263401Y-44980495D01*
X89430495Y-44813401D01*
X89566035Y-44619830D01*
X89665903Y-44405663D01*
X89727063Y-44177408D01*
X89747659Y-43942000D01*
X89727063Y-43706592D01*
X89665903Y-43478337D01*
X89566035Y-43264171D01*
X89560425Y-43256158D01*
X89430494Y-43070597D01*
X89263402Y-42903506D01*
X89263396Y-42903501D01*
X89077842Y-42773575D01*
X89034217Y-42718998D01*
X89027023Y-42649500D01*
X89058546Y-42587145D01*
X89077842Y-42570425D01*
X89100026Y-42554891D01*
X89263401Y-42440495D01*
X89430495Y-42273401D01*
X89566035Y-42079830D01*
X89665903Y-41865663D01*
X89727063Y-41637408D01*
X89747659Y-41402000D01*
X89727063Y-41166592D01*
X89665903Y-40938337D01*
X89566035Y-40724171D01*
X89560425Y-40716158D01*
X89430494Y-40530597D01*
X89263402Y-40363506D01*
X89263396Y-40363501D01*
X89077842Y-40233575D01*
X89034217Y-40178998D01*
X89027023Y-40109500D01*
X89058546Y-40047145D01*
X89077842Y-40030425D01*
X89173162Y-39963681D01*
X89263401Y-39900495D01*
X89430495Y-39733401D01*
X89566035Y-39539830D01*
X89665903Y-39325663D01*
X89727063Y-39097408D01*
X89747659Y-38862000D01*
X89727063Y-38626592D01*
X89676171Y-38436657D01*
X89665905Y-38398344D01*
X89665904Y-38398343D01*
X89665903Y-38398337D01*
X89566035Y-38184171D01*
X89560425Y-38176158D01*
X89430494Y-37990597D01*
X89263402Y-37823506D01*
X89263396Y-37823501D01*
X89077842Y-37693575D01*
X89034217Y-37638998D01*
X89027023Y-37569500D01*
X89058546Y-37507145D01*
X89077842Y-37490425D01*
X89100026Y-37474891D01*
X89263401Y-37360495D01*
X89430495Y-37193401D01*
X89566035Y-36999830D01*
X89665903Y-36785663D01*
X89727063Y-36557408D01*
X89747659Y-36322000D01*
X89727063Y-36086592D01*
X89669404Y-35871402D01*
X89665905Y-35858344D01*
X89665904Y-35858343D01*
X89665903Y-35858337D01*
X89566035Y-35644171D01*
X89560617Y-35636432D01*
X89430494Y-35450597D01*
X89263402Y-35283506D01*
X89263396Y-35283501D01*
X89077842Y-35153575D01*
X89034217Y-35098998D01*
X89027023Y-35029500D01*
X89058546Y-34967145D01*
X89077842Y-34950425D01*
X89111445Y-34926896D01*
X89263401Y-34820495D01*
X89430495Y-34653401D01*
X89566035Y-34459830D01*
X89665903Y-34245663D01*
X89727063Y-34017408D01*
X89747659Y-33782000D01*
X89727063Y-33546592D01*
X89665903Y-33318337D01*
X89566035Y-33104171D01*
X89560425Y-33096158D01*
X89430494Y-32910597D01*
X89263402Y-32743506D01*
X89263396Y-32743501D01*
X89077842Y-32613575D01*
X89034217Y-32558998D01*
X89027023Y-32489500D01*
X89058546Y-32427145D01*
X89077842Y-32410425D01*
X89120465Y-32380580D01*
X89263401Y-32280495D01*
X89430495Y-32113401D01*
X89566035Y-31919830D01*
X89665903Y-31705663D01*
X89727063Y-31477408D01*
X89747659Y-31242000D01*
X89727063Y-31006592D01*
X89665903Y-30778337D01*
X89566035Y-30564171D01*
X89560424Y-30556158D01*
X89430496Y-30370600D01*
X89423463Y-30363567D01*
X89271575Y-30211679D01*
X89238092Y-30150358D01*
X89243076Y-30080667D01*
X89284947Y-30024733D01*
X89350412Y-30000316D01*
X89359258Y-30000000D01*
X90948638Y-30000000D01*
X91015677Y-30019685D01*
X91036319Y-30036319D01*
X92963681Y-31963681D01*
X92997166Y-32025004D01*
X93000000Y-32051362D01*
X93000000Y-51948638D01*
X92980315Y-52015677D01*
X92963681Y-52036319D01*
X91036319Y-53963681D01*
X90974996Y-53997166D01*
X90948638Y-54000000D01*
X59051362Y-54000000D01*
X58984323Y-53980315D01*
X58963681Y-53963681D01*
X57036319Y-52036319D01*
X57002834Y-51974996D01*
X57000000Y-51948638D01*
X57000000Y-40051362D01*
X57019685Y-39984323D01*
X57036319Y-39963681D01*
X58963681Y-38036319D01*
X59025004Y-38002834D01*
X59051362Y-38000000D01*
X59485500Y-38000000D01*
X59552539Y-38019685D01*
X59598294Y-38072489D01*
X59609500Y-38124000D01*
X59609500Y-39759870D01*
X59609501Y-39759876D01*
X59615908Y-39819483D01*
X59666202Y-39954328D01*
X59666206Y-39954335D01*
X59752452Y-40069544D01*
X59752455Y-40069547D01*
X59867664Y-40155793D01*
X59867671Y-40155797D01*
X59999081Y-40204810D01*
X60055015Y-40246681D01*
X60079432Y-40312145D01*
X60064580Y-40380418D01*
X60043430Y-40408673D01*
X59921503Y-40530600D01*
X59785965Y-40724169D01*
X59785964Y-40724171D01*
X59686098Y-40938335D01*
X59686094Y-40938344D01*
X59624938Y-41166586D01*
X59624936Y-41166596D01*
X59604341Y-41401999D01*
X59604341Y-41402000D01*
X59624936Y-41637403D01*
X59624938Y-41637413D01*
X59686094Y-41865655D01*
X59686096Y-41865659D01*
X59686097Y-41865663D01*
X59761563Y-42027500D01*
X59785965Y-42079830D01*
X59785967Y-42079834D01*
X59894281Y-42234521D01*
X59921501Y-42273396D01*
X59921506Y-42273402D01*
X60088597Y-42440493D01*
X60088603Y-42440498D01*
X60274158Y-42570425D01*
X60317783Y-42625002D01*
X60324977Y-42694500D01*
X60293454Y-42756855D01*
X60274158Y-42773575D01*
X60088597Y-42903505D01*
X59921505Y-43070597D01*
X59785965Y-43264169D01*
X59785964Y-43264171D01*
X59686098Y-43478335D01*
X59686094Y-43478344D01*
X59624938Y-43706586D01*
X59624936Y-43706596D01*
X59604341Y-43941999D01*
X59604341Y-43942000D01*
X59624936Y-44177403D01*
X59624938Y-44177413D01*
X59686094Y-44405655D01*
X59686096Y-44405659D01*
X59686097Y-44405663D01*
X59761563Y-44567500D01*
X59785965Y-44619830D01*
X59785967Y-44619834D01*
X59894281Y-44774521D01*
X59921501Y-44813396D01*
X59921506Y-44813402D01*
X60088597Y-44980493D01*
X60088603Y-44980498D01*
X60274158Y-45110425D01*
X60317783Y-45165002D01*
X60324977Y-45234500D01*
X60293454Y-45296855D01*
X60274158Y-45313575D01*
X60088597Y-45443505D01*
X59921505Y-45610597D01*
X59785965Y-45804169D01*
X59785964Y-45804171D01*
X59686098Y-46018335D01*
X59686094Y-46018344D01*
X59624938Y-46246586D01*
X59624936Y-46246596D01*
X59604341Y-46481999D01*
X59604341Y-46482000D01*
X59624936Y-46717403D01*
X59624938Y-46717413D01*
X59686094Y-46945655D01*
X59686096Y-46945659D01*
X59686097Y-46945663D01*
X59761563Y-47107500D01*
X59785965Y-47159830D01*
X59785967Y-47159834D01*
X59894281Y-47314521D01*
X59921501Y-47353396D01*
X59921506Y-47353402D01*
X60088597Y-47520493D01*
X60088603Y-47520498D01*
X60274158Y-47650425D01*
X60317783Y-47705002D01*
X60324977Y-47774500D01*
X60293454Y-47836855D01*
X60274158Y-47853575D01*
X60088597Y-47983505D01*
X59921505Y-48150597D01*
X59785965Y-48344169D01*
X59785964Y-48344171D01*
X59686098Y-48558335D01*
X59686094Y-48558344D01*
X59624938Y-48786586D01*
X59624936Y-48786596D01*
X59604341Y-49021999D01*
X59604341Y-49022000D01*
X59624936Y-49257403D01*
X59624938Y-49257413D01*
X59686094Y-49485655D01*
X59686096Y-49485659D01*
X59686097Y-49485663D01*
X59766004Y-49657023D01*
X59785965Y-49699830D01*
X59785967Y-49699834D01*
X59894281Y-49854521D01*
X59921501Y-49893396D01*
X59921506Y-49893402D01*
X60088597Y-50060493D01*
X60088603Y-50060498D01*
X60274158Y-50190425D01*
X60317783Y-50245002D01*
X60324977Y-50314500D01*
X60293454Y-50376855D01*
X60274158Y-50393575D01*
X60088597Y-50523505D01*
X59921505Y-50690597D01*
X59785965Y-50884169D01*
X59785964Y-50884171D01*
X59686098Y-51098335D01*
X59686094Y-51098344D01*
X59624938Y-51326586D01*
X59624936Y-51326596D01*
X59604341Y-51561999D01*
X59604341Y-51562000D01*
X59624936Y-51797403D01*
X59624938Y-51797413D01*
X59686094Y-52025655D01*
X59686096Y-52025659D01*
X59686097Y-52025663D01*
X59766004Y-52197023D01*
X59785965Y-52239830D01*
X59785967Y-52239834D01*
X59837573Y-52313534D01*
X59921505Y-52433401D01*
X60088599Y-52600495D01*
X60185384Y-52668265D01*
X60282165Y-52736032D01*
X60282167Y-52736033D01*
X60282170Y-52736035D01*
X60496337Y-52835903D01*
X60724592Y-52897063D01*
X60912918Y-52913539D01*
X60959999Y-52917659D01*
X60960000Y-52917659D01*
X60960001Y-52917659D01*
X60999234Y-52914226D01*
X61195408Y-52897063D01*
X61423663Y-52835903D01*
X61637830Y-52736035D01*
X61831401Y-52600495D01*
X61998495Y-52433401D01*
X62128425Y-52247842D01*
X62183002Y-52204217D01*
X62252500Y-52197023D01*
X62314855Y-52228546D01*
X62331575Y-52247842D01*
X62461500Y-52433395D01*
X62461505Y-52433401D01*
X62628599Y-52600495D01*
X62725384Y-52668265D01*
X62822165Y-52736032D01*
X62822167Y-52736033D01*
X62822170Y-52736035D01*
X63036337Y-52835903D01*
X63264592Y-52897063D01*
X63452918Y-52913539D01*
X63499999Y-52917659D01*
X63500000Y-52917659D01*
X63500001Y-52917659D01*
X63539234Y-52914226D01*
X63735408Y-52897063D01*
X63963663Y-52835903D01*
X64177830Y-52736035D01*
X64371401Y-52600495D01*
X64538495Y-52433401D01*
X64674035Y-52239830D01*
X64773903Y-52025663D01*
X64835063Y-51797408D01*
X64855659Y-51562000D01*
X64835063Y-51326592D01*
X64773903Y-51098337D01*
X64674035Y-50884171D01*
X64668425Y-50876158D01*
X64538494Y-50690597D01*
X64371402Y-50523506D01*
X64371396Y-50523501D01*
X64185842Y-50393575D01*
X64142217Y-50338998D01*
X64135023Y-50269500D01*
X64166546Y-50207145D01*
X64185842Y-50190425D01*
X64249119Y-50146118D01*
X64371401Y-50060495D01*
X64538495Y-49893401D01*
X64674035Y-49699830D01*
X64773903Y-49485663D01*
X64835063Y-49257408D01*
X64855659Y-49022000D01*
X64835063Y-48786592D01*
X64773903Y-48558337D01*
X64674035Y-48344171D01*
X64668425Y-48336158D01*
X64538494Y-48150597D01*
X64371402Y-47983506D01*
X64371396Y-47983501D01*
X64185842Y-47853575D01*
X64142217Y-47798998D01*
X64135023Y-47729500D01*
X64166546Y-47667145D01*
X64185842Y-47650425D01*
X64298054Y-47571853D01*
X64371401Y-47520495D01*
X64538495Y-47353401D01*
X64674035Y-47159830D01*
X64773903Y-46945663D01*
X64835063Y-46717408D01*
X64855659Y-46482000D01*
X64835063Y-46246592D01*
X64773903Y-46018337D01*
X64674035Y-45804171D01*
X64668425Y-45796158D01*
X64538494Y-45610597D01*
X64371402Y-45443506D01*
X64371396Y-45443501D01*
X64185842Y-45313575D01*
X64142217Y-45258998D01*
X64135023Y-45189500D01*
X64166546Y-45127145D01*
X64185842Y-45110425D01*
X64208026Y-45094891D01*
X64371401Y-44980495D01*
X64538495Y-44813401D01*
X64674035Y-44619830D01*
X64773903Y-44405663D01*
X64835063Y-44177408D01*
X64855659Y-43942000D01*
X64835063Y-43706592D01*
X64812369Y-43621896D01*
X64814032Y-43552050D01*
X64844461Y-43502127D01*
X69979786Y-38366802D01*
X69992048Y-38356980D01*
X69991865Y-38356759D01*
X69997868Y-38351791D01*
X69997877Y-38351786D01*
X70043934Y-38302739D01*
X70046582Y-38300006D01*
X70066120Y-38280470D01*
X70068570Y-38277310D01*
X70076154Y-38268429D01*
X70106062Y-38236582D01*
X70115714Y-38219023D01*
X70126389Y-38202772D01*
X70138674Y-38186936D01*
X70156030Y-38146825D01*
X70161161Y-38136354D01*
X70182194Y-38098098D01*
X70182194Y-38098097D01*
X70182197Y-38098092D01*
X70187180Y-38078680D01*
X70193477Y-38060291D01*
X70201438Y-38041895D01*
X70208270Y-37998748D01*
X70210639Y-37987316D01*
X70221499Y-37945022D01*
X70221500Y-37945017D01*
X70221500Y-37924983D01*
X70223027Y-37905582D01*
X70223196Y-37904517D01*
X70226160Y-37885804D01*
X70222050Y-37842324D01*
X70221500Y-37830655D01*
X70221500Y-36381420D01*
X70241185Y-36314381D01*
X70293989Y-36268626D01*
X70363147Y-36258682D01*
X70397904Y-36269038D01*
X70408337Y-36273903D01*
X70636592Y-36335063D01*
X70813034Y-36350500D01*
X70871999Y-36355659D01*
X70872000Y-36355659D01*
X70872001Y-36355659D01*
X70930966Y-36350500D01*
X71107408Y-36335063D01*
X71335663Y-36273903D01*
X71549830Y-36174035D01*
X71743401Y-36038495D01*
X71910495Y-35871401D01*
X72040425Y-35685842D01*
X72095002Y-35642217D01*
X72164500Y-35635023D01*
X72226855Y-35666546D01*
X72243575Y-35685842D01*
X72373500Y-35871395D01*
X72373505Y-35871401D01*
X72540599Y-36038495D01*
X72609280Y-36086586D01*
X72734165Y-36174032D01*
X72734167Y-36174033D01*
X72734170Y-36174035D01*
X72948337Y-36273903D01*
X73176592Y-36335063D01*
X73353034Y-36350500D01*
X73411999Y-36355659D01*
X73412000Y-36355659D01*
X73412001Y-36355659D01*
X73470966Y-36350500D01*
X73647408Y-36335063D01*
X73875663Y-36273903D01*
X74089830Y-36174035D01*
X74283401Y-36038495D01*
X74450495Y-35871401D01*
X74580425Y-35685842D01*
X74635002Y-35642217D01*
X74704500Y-35635023D01*
X74766855Y-35666546D01*
X74783575Y-35685842D01*
X74913500Y-35871395D01*
X74913505Y-35871401D01*
X75080599Y-36038495D01*
X75149280Y-36086586D01*
X75274165Y-36174032D01*
X75274167Y-36174033D01*
X75274170Y-36174035D01*
X75488337Y-36273903D01*
X75716592Y-36335063D01*
X75893034Y-36350500D01*
X75951999Y-36355659D01*
X75952000Y-36355659D01*
X75952001Y-36355659D01*
X76010966Y-36350500D01*
X76187408Y-36335063D01*
X76415663Y-36273903D01*
X76629830Y-36174035D01*
X76823401Y-36038495D01*
X76990495Y-35871401D01*
X77120730Y-35685405D01*
X77175307Y-35641781D01*
X77244805Y-35634587D01*
X77307160Y-35666110D01*
X77323879Y-35685405D01*
X77453890Y-35871078D01*
X77620917Y-36038105D01*
X77814421Y-36173600D01*
X78028507Y-36273429D01*
X78028516Y-36273433D01*
X78242000Y-36330634D01*
X78242000Y-35435501D01*
X78349685Y-35484680D01*
X78456237Y-35500000D01*
X78527763Y-35500000D01*
X78634315Y-35484680D01*
X78742000Y-35435501D01*
X78742000Y-36330633D01*
X78955483Y-36273433D01*
X78955492Y-36273429D01*
X79169578Y-36173600D01*
X79363082Y-36038105D01*
X79530105Y-35871082D01*
X79660119Y-35685405D01*
X79714696Y-35641781D01*
X79784195Y-35634588D01*
X79846549Y-35666110D01*
X79863269Y-35685405D01*
X79993505Y-35871401D01*
X80160599Y-36038495D01*
X80229280Y-36086586D01*
X80354165Y-36174032D01*
X80354167Y-36174033D01*
X80354170Y-36174035D01*
X80568337Y-36273903D01*
X80796592Y-36335063D01*
X80973034Y-36350500D01*
X81031999Y-36355659D01*
X81032000Y-36355659D01*
X81032001Y-36355659D01*
X81090966Y-36350500D01*
X81267408Y-36335063D01*
X81495663Y-36273903D01*
X81709830Y-36174035D01*
X81903401Y-36038495D01*
X82070495Y-35871401D01*
X82206035Y-35677830D01*
X82305903Y-35463663D01*
X82367063Y-35235408D01*
X82387659Y-35000000D01*
X82384784Y-34967145D01*
X82371954Y-34820493D01*
X82367063Y-34764592D01*
X82305903Y-34536337D01*
X82206035Y-34322171D01*
X82200731Y-34314595D01*
X82070494Y-34128597D01*
X81903402Y-33961506D01*
X81903395Y-33961501D01*
X81709834Y-33825967D01*
X81709830Y-33825965D01*
X81663500Y-33804361D01*
X81495663Y-33726097D01*
X81495659Y-33726096D01*
X81495655Y-33726094D01*
X81267413Y-33664938D01*
X81267403Y-33664936D01*
X81032001Y-33644341D01*
X81031999Y-33644341D01*
X80796596Y-33664936D01*
X80796586Y-33664938D01*
X80568344Y-33726094D01*
X80568335Y-33726098D01*
X80354171Y-33825964D01*
X80354169Y-33825965D01*
X80160597Y-33961505D01*
X79993508Y-34128594D01*
X79863269Y-34314595D01*
X79808692Y-34358219D01*
X79739193Y-34365412D01*
X79676839Y-34333890D01*
X79660119Y-34314594D01*
X79530113Y-34128926D01*
X79530108Y-34128920D01*
X79363082Y-33961894D01*
X79169578Y-33826399D01*
X78955492Y-33726570D01*
X78955486Y-33726567D01*
X78742000Y-33669364D01*
X78742000Y-34564498D01*
X78634315Y-34515320D01*
X78527763Y-34500000D01*
X78456237Y-34500000D01*
X78349685Y-34515320D01*
X78242000Y-34564498D01*
X78242000Y-33669364D01*
X78241999Y-33669364D01*
X78028513Y-33726567D01*
X78028507Y-33726570D01*
X77814422Y-33826399D01*
X77814420Y-33826400D01*
X77620926Y-33961886D01*
X77620920Y-33961891D01*
X77453891Y-34128920D01*
X77453890Y-34128922D01*
X77323880Y-34314595D01*
X77269303Y-34358219D01*
X77199804Y-34365412D01*
X77137450Y-34333890D01*
X77120730Y-34314594D01*
X76990494Y-34128597D01*
X76823402Y-33961506D01*
X76823395Y-33961501D01*
X76625396Y-33822860D01*
X76626711Y-33820981D01*
X76585256Y-33777461D01*
X76571500Y-33720696D01*
X76571500Y-32849237D01*
X76573224Y-32833623D01*
X76572938Y-32833596D01*
X76573672Y-32825833D01*
X76571561Y-32758644D01*
X76571500Y-32754750D01*
X76571500Y-32727151D01*
X76571500Y-32727150D01*
X76570997Y-32723170D01*
X76570080Y-32711521D01*
X76568709Y-32667873D01*
X76563121Y-32648639D01*
X76559174Y-32629581D01*
X76557152Y-32613575D01*
X76556664Y-32609708D01*
X76549298Y-32591104D01*
X76540583Y-32569092D01*
X76536799Y-32558039D01*
X76524618Y-32516115D01*
X76524617Y-32516110D01*
X76514420Y-32498868D01*
X76505863Y-32481402D01*
X76498486Y-32462768D01*
X76472809Y-32427426D01*
X76466412Y-32417690D01*
X76444170Y-32380079D01*
X76444167Y-32380076D01*
X76444165Y-32380073D01*
X76430005Y-32365913D01*
X76417370Y-32351120D01*
X76405593Y-32334912D01*
X76371945Y-32307076D01*
X76363304Y-32299213D01*
X75176303Y-31112212D01*
X75166480Y-31099950D01*
X75166259Y-31100134D01*
X75161286Y-31094122D01*
X75112276Y-31048099D01*
X75109477Y-31045386D01*
X75089977Y-31025885D01*
X75089971Y-31025880D01*
X75086786Y-31023409D01*
X75077934Y-31015848D01*
X75046082Y-30985938D01*
X75046080Y-30985936D01*
X75046077Y-30985935D01*
X75028529Y-30976288D01*
X75012263Y-30965604D01*
X74996432Y-30953324D01*
X74956349Y-30935978D01*
X74945863Y-30930841D01*
X74907594Y-30909803D01*
X74907592Y-30909802D01*
X74888193Y-30904822D01*
X74869781Y-30898518D01*
X74851398Y-30890562D01*
X74851392Y-30890560D01*
X74808260Y-30883729D01*
X74796822Y-30881361D01*
X74754520Y-30870500D01*
X74754519Y-30870500D01*
X74734484Y-30870500D01*
X74715086Y-30868973D01*
X74707662Y-30867797D01*
X74695305Y-30865840D01*
X74695304Y-30865840D01*
X74651825Y-30869950D01*
X74640156Y-30870500D01*
X68153737Y-30870500D01*
X68138120Y-30868776D01*
X68138093Y-30869062D01*
X68130331Y-30868327D01*
X68063144Y-30870439D01*
X68059250Y-30870500D01*
X68031650Y-30870500D01*
X68027962Y-30870965D01*
X68027649Y-30871005D01*
X68016031Y-30871918D01*
X67972372Y-30873290D01*
X67972369Y-30873291D01*
X67953126Y-30878881D01*
X67934083Y-30882825D01*
X67914204Y-30885336D01*
X67914203Y-30885337D01*
X67873593Y-30901415D01*
X67862548Y-30905197D01*
X67820608Y-30917383D01*
X67820604Y-30917385D01*
X67803365Y-30927580D01*
X67785898Y-30936137D01*
X67767269Y-30943512D01*
X67767267Y-30943514D01*
X67731926Y-30969189D01*
X67722168Y-30975599D01*
X67684580Y-30997828D01*
X67670408Y-31012000D01*
X67655623Y-31024628D01*
X67639412Y-31036407D01*
X67611571Y-31070059D01*
X67603711Y-31078696D01*
X67211681Y-31470727D01*
X67150358Y-31504212D01*
X67080667Y-31499228D01*
X67024733Y-31457357D01*
X67000316Y-31391892D01*
X67000000Y-31383046D01*
X67000000Y-24000000D01*
X65000000Y-22000000D01*
X64744068Y-22000000D01*
X64677029Y-21980315D01*
X64631274Y-21927511D01*
X64621330Y-21858353D01*
X64642493Y-21804876D01*
X64674035Y-21759830D01*
X64773903Y-21545663D01*
X64835063Y-21317408D01*
X64855659Y-21082000D01*
X64835063Y-20846592D01*
X64773903Y-20618337D01*
X64674035Y-20404171D01*
X64551425Y-20229064D01*
X64538494Y-20210597D01*
X64371402Y-20043506D01*
X64371396Y-20043501D01*
X64185842Y-19913575D01*
X64142217Y-19858998D01*
X64135023Y-19789500D01*
X64166546Y-19727145D01*
X64185842Y-19710425D01*
X64291513Y-19636433D01*
X64371401Y-19580495D01*
X64538495Y-19413401D01*
X64674035Y-19219830D01*
X64773903Y-19005663D01*
X64835063Y-18777408D01*
X64855659Y-18542000D01*
X64835063Y-18306592D01*
X64773903Y-18078337D01*
X64674035Y-17864171D01*
X64668425Y-17856158D01*
X64538494Y-17670597D01*
X64371402Y-17503506D01*
X64371396Y-17503501D01*
X64185842Y-17373575D01*
X64142217Y-17318998D01*
X64135023Y-17249500D01*
X64166546Y-17187145D01*
X64185842Y-17170425D01*
X64208026Y-17154891D01*
X64371401Y-17040495D01*
X64538495Y-16873401D01*
X64674035Y-16679830D01*
X64773903Y-16465663D01*
X64835063Y-16237408D01*
X64855659Y-16002000D01*
X64835063Y-15766592D01*
X64773903Y-15538337D01*
X64674035Y-15324171D01*
X64668425Y-15316158D01*
X64538494Y-15130597D01*
X64371402Y-14963506D01*
X64371396Y-14963501D01*
X64185842Y-14833575D01*
X64142217Y-14778998D01*
X64135023Y-14709500D01*
X64166546Y-14647145D01*
X64185842Y-14630425D01*
X64208026Y-14614891D01*
X64371401Y-14500495D01*
X64538495Y-14333401D01*
X64674035Y-14139830D01*
X64773903Y-13925663D01*
X64835063Y-13697408D01*
X64855659Y-13462000D01*
X64835063Y-13226592D01*
X64773903Y-12998337D01*
X64674035Y-12784171D01*
X64668425Y-12776158D01*
X64538494Y-12590597D01*
X64371402Y-12423506D01*
X64371396Y-12423501D01*
X64185842Y-12293575D01*
X64142217Y-12238998D01*
X64135023Y-12169500D01*
X64166546Y-12107145D01*
X64185842Y-12090425D01*
X64210580Y-12073103D01*
X64371401Y-11960495D01*
X64538495Y-11793401D01*
X64674035Y-11599830D01*
X64773903Y-11385663D01*
X64835063Y-11157408D01*
X64855659Y-10922000D01*
X64835063Y-10686592D01*
X64773903Y-10458337D01*
X64674035Y-10244171D01*
X64668425Y-10236158D01*
X64538494Y-10050597D01*
X64371402Y-9883506D01*
X64371396Y-9883501D01*
X64185842Y-9753575D01*
X64142217Y-9698998D01*
X64135023Y-9629500D01*
X64166546Y-9567145D01*
X64185842Y-9550425D01*
X64208026Y-9534891D01*
X64371401Y-9420495D01*
X64538495Y-9253401D01*
X64674035Y-9059830D01*
X64773903Y-8845663D01*
X64835063Y-8617408D01*
X64855659Y-8382000D01*
X64853566Y-8358083D01*
X64844411Y-8253437D01*
X64835063Y-8146592D01*
X64783593Y-7954500D01*
X64773905Y-7918344D01*
X64773904Y-7918343D01*
X64773903Y-7918337D01*
X64674035Y-7704171D01*
X64668548Y-7696335D01*
X64538496Y-7510600D01*
X64497923Y-7470027D01*
X64416567Y-7388671D01*
X64383084Y-7327351D01*
X64388068Y-7257659D01*
X64429939Y-7201725D01*
X64460915Y-7184810D01*
X64592331Y-7135796D01*
X64707546Y-7049546D01*
X64793796Y-6934331D01*
X64844091Y-6799483D01*
X64850500Y-6739873D01*
X64850499Y-4944128D01*
X64844091Y-4884517D01*
X64830722Y-4848674D01*
X64793797Y-4749671D01*
X64793793Y-4749664D01*
X64707547Y-4634455D01*
X64707544Y-4634452D01*
X64592335Y-4548206D01*
X64592328Y-4548202D01*
X64457482Y-4497908D01*
X64457483Y-4497908D01*
X64397883Y-4491501D01*
X64397881Y-4491500D01*
X64397873Y-4491500D01*
X64397864Y-4491500D01*
X62602129Y-4491500D01*
X62602123Y-4491501D01*
X62542516Y-4497908D01*
X62407671Y-4548202D01*
X62407669Y-4548203D01*
X62304311Y-4625578D01*
X62238847Y-4649995D01*
X62170574Y-4635144D01*
X62155689Y-4625578D01*
X62052330Y-4548203D01*
X62052328Y-4548202D01*
X61917482Y-4497908D01*
X61917483Y-4497908D01*
X61857883Y-4491501D01*
X61857881Y-4491500D01*
X61857873Y-4491500D01*
X61857864Y-4491500D01*
X60062129Y-4491500D01*
X60062123Y-4491501D01*
X60002516Y-4497908D01*
X59867671Y-4548202D01*
X59867664Y-4548206D01*
X59752455Y-4634452D01*
X59752452Y-4634455D01*
X59666206Y-4749664D01*
X59666202Y-4749671D01*
X59615908Y-4884517D01*
X59610438Y-4935401D01*
X59609501Y-4944123D01*
X59609500Y-4944135D01*
X59609500Y-6739870D01*
X59609501Y-6739876D01*
X59615908Y-6799483D01*
X59666202Y-6934328D01*
X59666206Y-6934335D01*
X59752452Y-7049544D01*
X59752455Y-7049547D01*
X59867664Y-7135793D01*
X59867671Y-7135797D01*
X59999081Y-7184810D01*
X60055015Y-7226681D01*
X60079432Y-7292145D01*
X60064580Y-7360418D01*
X60043430Y-7388673D01*
X59921503Y-7510600D01*
X59785965Y-7704169D01*
X59785964Y-7704171D01*
X59686098Y-7918335D01*
X59686094Y-7918344D01*
X59624938Y-8146586D01*
X59624936Y-8146596D01*
X59604341Y-8381999D01*
X59604341Y-8382000D01*
X59624936Y-8617403D01*
X59624938Y-8617413D01*
X59686094Y-8845655D01*
X59686096Y-8845659D01*
X59686097Y-8845663D01*
X59766003Y-9017022D01*
X59785965Y-9059830D01*
X59785967Y-9059834D01*
X59894281Y-9214521D01*
X59921501Y-9253396D01*
X59921506Y-9253402D01*
X60088597Y-9420493D01*
X60088603Y-9420498D01*
X60274158Y-9550425D01*
X60317783Y-9605002D01*
X60324977Y-9674500D01*
X60293454Y-9736855D01*
X60274158Y-9753575D01*
X60088597Y-9883505D01*
X59921505Y-10050597D01*
X59785965Y-10244169D01*
X59785964Y-10244171D01*
X59686098Y-10458335D01*
X59686094Y-10458344D01*
X59624938Y-10686586D01*
X59624936Y-10686596D01*
X59604341Y-10921999D01*
X59604341Y-10922000D01*
X59624936Y-11157403D01*
X59624938Y-11157413D01*
X59686094Y-11385655D01*
X59686096Y-11385659D01*
X59686097Y-11385663D01*
X59766003Y-11557022D01*
X59785965Y-11599830D01*
X59785967Y-11599834D01*
X59811243Y-11635931D01*
X59921501Y-11793396D01*
X59921506Y-11793402D01*
X60088597Y-11960493D01*
X60088603Y-11960498D01*
X60274158Y-12090425D01*
X60317783Y-12145002D01*
X60324977Y-12214500D01*
X60293454Y-12276855D01*
X60274158Y-12293575D01*
X60088597Y-12423505D01*
X59921505Y-12590597D01*
X59785965Y-12784169D01*
X59785964Y-12784171D01*
X59686098Y-12998335D01*
X59686094Y-12998344D01*
X59624938Y-13226586D01*
X59624936Y-13226596D01*
X59604341Y-13461999D01*
X59604341Y-13462000D01*
X59624936Y-13697403D01*
X59624938Y-13697413D01*
X59686094Y-13925655D01*
X59686096Y-13925659D01*
X59686097Y-13925663D01*
X59766003Y-14097022D01*
X59785965Y-14139830D01*
X59785967Y-14139834D01*
X59894281Y-14294521D01*
X59921501Y-14333396D01*
X59921506Y-14333402D01*
X60088597Y-14500493D01*
X60088603Y-14500498D01*
X60274158Y-14630425D01*
X60317783Y-14685002D01*
X60324977Y-14754500D01*
X60293454Y-14816855D01*
X60274158Y-14833575D01*
X60088597Y-14963505D01*
X59921505Y-15130597D01*
X59785965Y-15324169D01*
X59785964Y-15324171D01*
X59686098Y-15538335D01*
X59686094Y-15538344D01*
X59624938Y-15766586D01*
X59624936Y-15766596D01*
X59604341Y-16001999D01*
X59604341Y-16002000D01*
X59624936Y-16237403D01*
X59624938Y-16237413D01*
X59686094Y-16465655D01*
X59686096Y-16465659D01*
X59686097Y-16465663D01*
X59766003Y-16637022D01*
X59785965Y-16679830D01*
X59785967Y-16679834D01*
X59894281Y-16834521D01*
X59921501Y-16873396D01*
X59921506Y-16873402D01*
X60088597Y-17040493D01*
X60088603Y-17040498D01*
X60274158Y-17170425D01*
X60317783Y-17225002D01*
X60324977Y-17294500D01*
X60293454Y-17356855D01*
X60274158Y-17373575D01*
X60088597Y-17503505D01*
X59921505Y-17670597D01*
X59785965Y-17864169D01*
X59785964Y-17864171D01*
X59686098Y-18078335D01*
X59686094Y-18078344D01*
X59624938Y-18306586D01*
X59624936Y-18306596D01*
X59604341Y-18541999D01*
X59604341Y-18542000D01*
X59624936Y-18777403D01*
X59624938Y-18777413D01*
X59686094Y-19005655D01*
X59686096Y-19005659D01*
X59686097Y-19005663D01*
X59766003Y-19177022D01*
X59785965Y-19219830D01*
X59785967Y-19219834D01*
X59886962Y-19364069D01*
X59921501Y-19413396D01*
X59921506Y-19413402D01*
X60088597Y-19580493D01*
X60088603Y-19580498D01*
X60274158Y-19710425D01*
X60317783Y-19765002D01*
X60324977Y-19834500D01*
X60293454Y-19896855D01*
X60274158Y-19913575D01*
X60088597Y-20043505D01*
X59921505Y-20210597D01*
X59785965Y-20404169D01*
X59785964Y-20404171D01*
X59686098Y-20618335D01*
X59686094Y-20618344D01*
X59624938Y-20846586D01*
X59624936Y-20846596D01*
X59604341Y-21081999D01*
X59604341Y-21082000D01*
X59624936Y-21317403D01*
X59624938Y-21317413D01*
X59686094Y-21545655D01*
X59686096Y-21545659D01*
X59686097Y-21545663D01*
X59785965Y-21759830D01*
X59817507Y-21804876D01*
X59839834Y-21871083D01*
X59822824Y-21938850D01*
X59771876Y-21986663D01*
X59715932Y-22000000D01*
X59051362Y-22000000D01*
X58984323Y-21980315D01*
X58963681Y-21963681D01*
X57036319Y-20036319D01*
X57002834Y-19974996D01*
X57000000Y-19948638D01*
X57000000Y-11000000D01*
X55000000Y-9000000D01*
X52425729Y-9000000D01*
X52358690Y-8980315D01*
X52312935Y-8927511D01*
X52302991Y-8858353D01*
X52332016Y-8794797D01*
X52338048Y-8788319D01*
X52444583Y-8681784D01*
X52555642Y-8570724D01*
X52569257Y-8558958D01*
X52588530Y-8544610D01*
X52620383Y-8506648D01*
X52627671Y-8498694D01*
X52631591Y-8494776D01*
X52650853Y-8470413D01*
X52653076Y-8467686D01*
X52670246Y-8447224D01*
X52701302Y-8410214D01*
X52701304Y-8410209D01*
X52705274Y-8404175D01*
X52705325Y-8404208D01*
X52709369Y-8397860D01*
X52709317Y-8397828D01*
X52713106Y-8391682D01*
X52713111Y-8391677D01*
X52744832Y-8323647D01*
X52746358Y-8320496D01*
X52780040Y-8253433D01*
X52780041Y-8253428D01*
X52782508Y-8246650D01*
X52782566Y-8246671D01*
X52785043Y-8239544D01*
X52784986Y-8239526D01*
X52787256Y-8232676D01*
X52789872Y-8220007D01*
X52802439Y-8159139D01*
X52803187Y-8155762D01*
X52820500Y-8082721D01*
X52820500Y-8082717D01*
X52820501Y-8082713D01*
X52821339Y-8075548D01*
X52821398Y-8075554D01*
X52822153Y-8068165D01*
X52822095Y-8068160D01*
X52822126Y-8067802D01*
X52822213Y-8067578D01*
X52823063Y-8059263D01*
X52824196Y-8053777D01*
X52827344Y-8054427D01*
X52847521Y-8002710D01*
X52904075Y-7961681D01*
X52945664Y-7954499D01*
X52967871Y-7954499D01*
X52967872Y-7954499D01*
X53027483Y-7948091D01*
X53162331Y-7897796D01*
X53277546Y-7811546D01*
X53363796Y-7696331D01*
X53412810Y-7564916D01*
X53454681Y-7508984D01*
X53520145Y-7484566D01*
X53588418Y-7499417D01*
X53616673Y-7520569D01*
X53738599Y-7642495D01*
X53826679Y-7704169D01*
X53932165Y-7778032D01*
X53932167Y-7778033D01*
X53932170Y-7778035D01*
X54146337Y-7877903D01*
X54374592Y-7939063D01*
X54551034Y-7954500D01*
X54609999Y-7959659D01*
X54610000Y-7959659D01*
X54610001Y-7959659D01*
X54668966Y-7954500D01*
X54845408Y-7939063D01*
X55073663Y-7877903D01*
X55287830Y-7778035D01*
X55481401Y-7642495D01*
X55648495Y-7475401D01*
X55784035Y-7281830D01*
X55883903Y-7067663D01*
X55945063Y-6839408D01*
X55965659Y-6604000D01*
X55945063Y-6368592D01*
X55883903Y-6140337D01*
X55784035Y-5926171D01*
X55778425Y-5918158D01*
X55648494Y-5732597D01*
X55481402Y-5565506D01*
X55481401Y-5565505D01*
X55295405Y-5435269D01*
X55251781Y-5380692D01*
X55244588Y-5311193D01*
X55276110Y-5248839D01*
X55295405Y-5232119D01*
X55481082Y-5102105D01*
X55648105Y-4935082D01*
X55783600Y-4741578D01*
X55883429Y-4527492D01*
X55883432Y-4527486D01*
X55940636Y-4314000D01*
X55043686Y-4314000D01*
X55069493Y-4273844D01*
X55110000Y-4135889D01*
X55110000Y-3992111D01*
X55069493Y-3854156D01*
X55043686Y-3814000D01*
X55940636Y-3814000D01*
X55940635Y-3813999D01*
X55883432Y-3600513D01*
X55883429Y-3600507D01*
X55783600Y-3386422D01*
X55783599Y-3386420D01*
X55648113Y-3192926D01*
X55648108Y-3192920D01*
X55481082Y-3025894D01*
X55287578Y-2890399D01*
X55073492Y-2790570D01*
X55073486Y-2790567D01*
X54860000Y-2733364D01*
X54860000Y-3628498D01*
X54752315Y-3579320D01*
X54645763Y-3564000D01*
X54574237Y-3564000D01*
X54467685Y-3579320D01*
X54360000Y-3628498D01*
X54360000Y-2733364D01*
X54359999Y-2733364D01*
X54146513Y-2790567D01*
X54146507Y-2790570D01*
X53932422Y-2890399D01*
X53932420Y-2890400D01*
X53738926Y-3025886D01*
X53738920Y-3025891D01*
X53571891Y-3192920D01*
X53571890Y-3192922D01*
X53441575Y-3379031D01*
X53386998Y-3422655D01*
X53317499Y-3429848D01*
X53255145Y-3398326D01*
X53238425Y-3379031D01*
X53108109Y-3192922D01*
X53108108Y-3192920D01*
X52941082Y-3025894D01*
X52747578Y-2890399D01*
X52533492Y-2790570D01*
X52533486Y-2790567D01*
X52320000Y-2733364D01*
X52320000Y-3628498D01*
X52212315Y-3579320D01*
X52105763Y-3564000D01*
X52034237Y-3564000D01*
X51927685Y-3579320D01*
X51820000Y-3628498D01*
X51820000Y-2733364D01*
X51819999Y-2733364D01*
X51606513Y-2790567D01*
X51606507Y-2790570D01*
X51392422Y-2890399D01*
X51392420Y-2890400D01*
X51198926Y-3025886D01*
X51198920Y-3025891D01*
X51031891Y-3192920D01*
X51031886Y-3192926D01*
X50896400Y-3386420D01*
X50896399Y-3386422D01*
X50796570Y-3600507D01*
X50796567Y-3600513D01*
X50739364Y-3813999D01*
X50739364Y-3814000D01*
X51636314Y-3814000D01*
X51610507Y-3854156D01*
X51570000Y-3992111D01*
X51570000Y-4135889D01*
X51610507Y-4273844D01*
X51636314Y-4314000D01*
X50739364Y-4314000D01*
X50796567Y-4527486D01*
X50796570Y-4527492D01*
X50896399Y-4741578D01*
X51031894Y-4935082D01*
X51153946Y-5057134D01*
X51187431Y-5118457D01*
X51182447Y-5188149D01*
X51140575Y-5244082D01*
X51109598Y-5260997D01*
X50977671Y-5310202D01*
X50977664Y-5310206D01*
X50862455Y-5396452D01*
X50862452Y-5396455D01*
X50776206Y-5511664D01*
X50776202Y-5511671D01*
X50725908Y-5646517D01*
X50719501Y-5706116D01*
X50719500Y-5706135D01*
X50719500Y-7501870D01*
X50719501Y-7501876D01*
X50725908Y-7561483D01*
X50776202Y-7696328D01*
X50776206Y-7696335D01*
X50862451Y-7811543D01*
X50862452Y-7811544D01*
X50862454Y-7811546D01*
X50936409Y-7866908D01*
X50978278Y-7922840D01*
X50983262Y-7992531D01*
X50949778Y-8053854D01*
X50790449Y-8213182D01*
X50729128Y-8246666D01*
X50702770Y-8249500D01*
X28260229Y-8249500D01*
X28193190Y-8229815D01*
X28172548Y-8213181D01*
X27964819Y-8005451D01*
X27931334Y-7944128D01*
X27928500Y-7917770D01*
X27928500Y-7791700D01*
X27948185Y-7724661D01*
X27981375Y-7690126D01*
X28049401Y-7642495D01*
X28216495Y-7475401D01*
X28352035Y-7281830D01*
X28451903Y-7067663D01*
X28513063Y-6839408D01*
X28533659Y-6604000D01*
X28513063Y-6368592D01*
X28451903Y-6140337D01*
X28352035Y-5926171D01*
X28346425Y-5918158D01*
X28216494Y-5732597D01*
X28049402Y-5565506D01*
X28049401Y-5565505D01*
X27863405Y-5435269D01*
X27819781Y-5380692D01*
X27812588Y-5311193D01*
X27844110Y-5248839D01*
X27863405Y-5232119D01*
X28049082Y-5102105D01*
X28216105Y-4935082D01*
X28351600Y-4741578D01*
X28451429Y-4527492D01*
X28451432Y-4527486D01*
X28508636Y-4314000D01*
X27611686Y-4314000D01*
X27637493Y-4273844D01*
X27678000Y-4135889D01*
X27678000Y-4064000D01*
X31664341Y-4064000D01*
X31684936Y-4299403D01*
X31684938Y-4299413D01*
X31746094Y-4527655D01*
X31746096Y-4527659D01*
X31746097Y-4527663D01*
X31828951Y-4705344D01*
X31845965Y-4741830D01*
X31845967Y-4741834D01*
X31877839Y-4787351D01*
X31981501Y-4935396D01*
X31981506Y-4935402D01*
X32103430Y-5057326D01*
X32136915Y-5118649D01*
X32131931Y-5188341D01*
X32090059Y-5244274D01*
X32059083Y-5261189D01*
X31927669Y-5310203D01*
X31927664Y-5310206D01*
X31812455Y-5396452D01*
X31812452Y-5396455D01*
X31726206Y-5511664D01*
X31726202Y-5511671D01*
X31675908Y-5646517D01*
X31669501Y-5706116D01*
X31669500Y-5706135D01*
X31669500Y-7501870D01*
X31669501Y-7501876D01*
X31675908Y-7561483D01*
X31726202Y-7696328D01*
X31726206Y-7696335D01*
X31812452Y-7811544D01*
X31812455Y-7811547D01*
X31927664Y-7897793D01*
X31927671Y-7897797D01*
X32062517Y-7948091D01*
X32062516Y-7948091D01*
X32069444Y-7948835D01*
X32122127Y-7954500D01*
X33917872Y-7954499D01*
X33977483Y-7948091D01*
X34112331Y-7897796D01*
X34227546Y-7811546D01*
X34313796Y-7696331D01*
X34362810Y-7564916D01*
X34404681Y-7508984D01*
X34470145Y-7484566D01*
X34538418Y-7499417D01*
X34566673Y-7520569D01*
X34688599Y-7642495D01*
X34776679Y-7704169D01*
X34882165Y-7778032D01*
X34882167Y-7778033D01*
X34882170Y-7778035D01*
X35096337Y-7877903D01*
X35324592Y-7939063D01*
X35501034Y-7954500D01*
X35559999Y-7959659D01*
X35560000Y-7959659D01*
X35560001Y-7959659D01*
X35618966Y-7954500D01*
X35795408Y-7939063D01*
X36023663Y-7877903D01*
X36237830Y-7778035D01*
X36431401Y-7642495D01*
X36598495Y-7475401D01*
X36728425Y-7289842D01*
X36783002Y-7246217D01*
X36852500Y-7239023D01*
X36914855Y-7270546D01*
X36931575Y-7289842D01*
X37061500Y-7475395D01*
X37061505Y-7475401D01*
X37228599Y-7642495D01*
X37316679Y-7704169D01*
X37422165Y-7778032D01*
X37422167Y-7778033D01*
X37422170Y-7778035D01*
X37636337Y-7877903D01*
X37864592Y-7939063D01*
X38041034Y-7954500D01*
X38099999Y-7959659D01*
X38100000Y-7959659D01*
X38100001Y-7959659D01*
X38158966Y-7954500D01*
X38335408Y-7939063D01*
X38563663Y-7877903D01*
X38777830Y-7778035D01*
X38971401Y-7642495D01*
X39138495Y-7475401D01*
X39268425Y-7289842D01*
X39323002Y-7246217D01*
X39392500Y-7239023D01*
X39454855Y-7270546D01*
X39471575Y-7289842D01*
X39601500Y-7475395D01*
X39601505Y-7475401D01*
X39768599Y-7642495D01*
X39856679Y-7704169D01*
X39962165Y-7778032D01*
X39962167Y-7778033D01*
X39962170Y-7778035D01*
X40176337Y-7877903D01*
X40404592Y-7939063D01*
X40581034Y-7954500D01*
X40639999Y-7959659D01*
X40640000Y-7959659D01*
X40640001Y-7959659D01*
X40698966Y-7954500D01*
X40875408Y-7939063D01*
X41103663Y-7877903D01*
X41317830Y-7778035D01*
X41511401Y-7642495D01*
X41678495Y-7475401D01*
X41808425Y-7289842D01*
X41863002Y-7246217D01*
X41932500Y-7239023D01*
X41994855Y-7270546D01*
X42011575Y-7289842D01*
X42141500Y-7475395D01*
X42141505Y-7475401D01*
X42308599Y-7642495D01*
X42396679Y-7704169D01*
X42502165Y-7778032D01*
X42502167Y-7778033D01*
X42502170Y-7778035D01*
X42716337Y-7877903D01*
X42944592Y-7939063D01*
X43121034Y-7954500D01*
X43179999Y-7959659D01*
X43180000Y-7959659D01*
X43180001Y-7959659D01*
X43238966Y-7954500D01*
X43415408Y-7939063D01*
X43643663Y-7877903D01*
X43857830Y-7778035D01*
X44051401Y-7642495D01*
X44218495Y-7475401D01*
X44354035Y-7281830D01*
X44453903Y-7067663D01*
X44515063Y-6839408D01*
X44535659Y-6604000D01*
X44515063Y-6368592D01*
X44453903Y-6140337D01*
X44354035Y-5926171D01*
X44348425Y-5918158D01*
X44218494Y-5732597D01*
X44051402Y-5565506D01*
X44051401Y-5565505D01*
X43865405Y-5435269D01*
X43821781Y-5380692D01*
X43814588Y-5311193D01*
X43846110Y-5248839D01*
X43865405Y-5232119D01*
X44051082Y-5102105D01*
X44218105Y-4935082D01*
X44353600Y-4741578D01*
X44453429Y-4527492D01*
X44453432Y-4527486D01*
X44510636Y-4314000D01*
X43613686Y-4314000D01*
X43639493Y-4273844D01*
X43680000Y-4135889D01*
X43680000Y-3992111D01*
X43639493Y-3854156D01*
X43613686Y-3814000D01*
X44510636Y-3814000D01*
X44510635Y-3813999D01*
X44453432Y-3600513D01*
X44453429Y-3600507D01*
X44353600Y-3386422D01*
X44353599Y-3386420D01*
X44218113Y-3192926D01*
X44218108Y-3192920D01*
X44051082Y-3025894D01*
X43857578Y-2890399D01*
X43643492Y-2790570D01*
X43643486Y-2790567D01*
X43430000Y-2733364D01*
X43430000Y-3628498D01*
X43322315Y-3579320D01*
X43215763Y-3564000D01*
X43144237Y-3564000D01*
X43037685Y-3579320D01*
X42930000Y-3628498D01*
X42930000Y-2733364D01*
X42929999Y-2733364D01*
X42716513Y-2790567D01*
X42716507Y-2790570D01*
X42502422Y-2890399D01*
X42502420Y-2890400D01*
X42308926Y-3025886D01*
X42308920Y-3025891D01*
X42141891Y-3192920D01*
X42141890Y-3192922D01*
X42011575Y-3379031D01*
X41956998Y-3422655D01*
X41887499Y-3429848D01*
X41825145Y-3398326D01*
X41808425Y-3379031D01*
X41678109Y-3192922D01*
X41678108Y-3192920D01*
X41511082Y-3025894D01*
X41317578Y-2890399D01*
X41103492Y-2790570D01*
X41103486Y-2790567D01*
X40890000Y-2733364D01*
X40890000Y-3628498D01*
X40782315Y-3579320D01*
X40675763Y-3564000D01*
X40604237Y-3564000D01*
X40497685Y-3579320D01*
X40390000Y-3628498D01*
X40390000Y-2733364D01*
X40389999Y-2733364D01*
X40176513Y-2790567D01*
X40176507Y-2790570D01*
X39962422Y-2890399D01*
X39962420Y-2890400D01*
X39768926Y-3025886D01*
X39768920Y-3025891D01*
X39601891Y-3192920D01*
X39601890Y-3192922D01*
X39471575Y-3379031D01*
X39416998Y-3422655D01*
X39347499Y-3429848D01*
X39285145Y-3398326D01*
X39268425Y-3379031D01*
X39138109Y-3192922D01*
X39138108Y-3192920D01*
X38971082Y-3025894D01*
X38777578Y-2890399D01*
X38563492Y-2790570D01*
X38563486Y-2790567D01*
X38350000Y-2733364D01*
X38350000Y-3628498D01*
X38242315Y-3579320D01*
X38135763Y-3564000D01*
X38064237Y-3564000D01*
X37957685Y-3579320D01*
X37850000Y-3628498D01*
X37850000Y-2733364D01*
X37849999Y-2733364D01*
X37636513Y-2790567D01*
X37636507Y-2790570D01*
X37422422Y-2890399D01*
X37422420Y-2890400D01*
X37228926Y-3025886D01*
X37228920Y-3025891D01*
X37061891Y-3192920D01*
X37061890Y-3192922D01*
X36931575Y-3379031D01*
X36876998Y-3422655D01*
X36807499Y-3429848D01*
X36745145Y-3398326D01*
X36728425Y-3379031D01*
X36598109Y-3192922D01*
X36598108Y-3192920D01*
X36431082Y-3025894D01*
X36237578Y-2890399D01*
X36023492Y-2790570D01*
X36023486Y-2790567D01*
X35810000Y-2733364D01*
X35810000Y-3628498D01*
X35702315Y-3579320D01*
X35595763Y-3564000D01*
X35524237Y-3564000D01*
X35417685Y-3579320D01*
X35310000Y-3628498D01*
X35310000Y-2733364D01*
X35309999Y-2733364D01*
X35096513Y-2790567D01*
X35096507Y-2790570D01*
X34882422Y-2890399D01*
X34882420Y-2890400D01*
X34688926Y-3025886D01*
X34688920Y-3025891D01*
X34521891Y-3192920D01*
X34521890Y-3192922D01*
X34391880Y-3378595D01*
X34337303Y-3422219D01*
X34267804Y-3429412D01*
X34205450Y-3397890D01*
X34188730Y-3378594D01*
X34058494Y-3192597D01*
X33891402Y-3025506D01*
X33891395Y-3025501D01*
X33697834Y-2889967D01*
X33697830Y-2889965D01*
X33596575Y-2842749D01*
X33483663Y-2790097D01*
X33483659Y-2790096D01*
X33483655Y-2790094D01*
X33255413Y-2728938D01*
X33255403Y-2728936D01*
X33020001Y-2708341D01*
X33019999Y-2708341D01*
X32784596Y-2728936D01*
X32784586Y-2728938D01*
X32556344Y-2790094D01*
X32556335Y-2790098D01*
X32342171Y-2889964D01*
X32342169Y-2889965D01*
X32148597Y-3025505D01*
X31981505Y-3192597D01*
X31845965Y-3386169D01*
X31845964Y-3386171D01*
X31746098Y-3600335D01*
X31746094Y-3600344D01*
X31684938Y-3828586D01*
X31684936Y-3828596D01*
X31664341Y-4063999D01*
X31664341Y-4064000D01*
X27678000Y-4064000D01*
X27678000Y-3992111D01*
X27637493Y-3854156D01*
X27611686Y-3814000D01*
X28508636Y-3814000D01*
X28508635Y-3813999D01*
X28451432Y-3600513D01*
X28451429Y-3600507D01*
X28351600Y-3386422D01*
X28351599Y-3386420D01*
X28216113Y-3192926D01*
X28216108Y-3192920D01*
X28049082Y-3025894D01*
X27855578Y-2890399D01*
X27641492Y-2790570D01*
X27641486Y-2790567D01*
X27428000Y-2733364D01*
X27428000Y-3628498D01*
X27320315Y-3579320D01*
X27213763Y-3564000D01*
X27142237Y-3564000D01*
X27035685Y-3579320D01*
X26928000Y-3628498D01*
X26928000Y-2733364D01*
X26927999Y-2733364D01*
X26714513Y-2790567D01*
X26714507Y-2790570D01*
X26500422Y-2890399D01*
X26500420Y-2890400D01*
X26306926Y-3025886D01*
X26306920Y-3025891D01*
X26139891Y-3192920D01*
X26139890Y-3192922D01*
X26009575Y-3379031D01*
X25954998Y-3422655D01*
X25885499Y-3429848D01*
X25823145Y-3398326D01*
X25806425Y-3379031D01*
X25676109Y-3192922D01*
X25676108Y-3192920D01*
X25509082Y-3025894D01*
X25315578Y-2890399D01*
X25101492Y-2790570D01*
X25101486Y-2790567D01*
X24888000Y-2733364D01*
X24888000Y-3628498D01*
X24780315Y-3579320D01*
X24673763Y-3564000D01*
X24602237Y-3564000D01*
X24495685Y-3579320D01*
X24388000Y-3628498D01*
X24388000Y-2733364D01*
X24387999Y-2733364D01*
X24174513Y-2790567D01*
X24174507Y-2790570D01*
X23960422Y-2890399D01*
X23960420Y-2890400D01*
X23766926Y-3025886D01*
X23766920Y-3025891D01*
X23599891Y-3192920D01*
X23599890Y-3192922D01*
X23469575Y-3379031D01*
X23414998Y-3422655D01*
X23345499Y-3429848D01*
X23283145Y-3398326D01*
X23266425Y-3379031D01*
X23136109Y-3192922D01*
X23136108Y-3192920D01*
X22969082Y-3025894D01*
X22775578Y-2890399D01*
X22561492Y-2790570D01*
X22561486Y-2790567D01*
X22348000Y-2733364D01*
X22348000Y-3628498D01*
X22240315Y-3579320D01*
X22133763Y-3564000D01*
X22062237Y-3564000D01*
X21955685Y-3579320D01*
X21848000Y-3628498D01*
X21848000Y-2733364D01*
X21847999Y-2733364D01*
X21634513Y-2790567D01*
X21634507Y-2790570D01*
X21420422Y-2890399D01*
X21420420Y-2890400D01*
X21226926Y-3025886D01*
X21226920Y-3025891D01*
X21059891Y-3192920D01*
X21059890Y-3192922D01*
X20929575Y-3379031D01*
X20874998Y-3422655D01*
X20805499Y-3429848D01*
X20743145Y-3398326D01*
X20726425Y-3379031D01*
X20596109Y-3192922D01*
X20596108Y-3192920D01*
X20429082Y-3025894D01*
X20235578Y-2890399D01*
X20021492Y-2790570D01*
X20021486Y-2790567D01*
X19808000Y-2733364D01*
X19808000Y-3628498D01*
X19700315Y-3579320D01*
X19593763Y-3564000D01*
X19522237Y-3564000D01*
X19415685Y-3579320D01*
X19308000Y-3628498D01*
X19308000Y-2733364D01*
X19307999Y-2733364D01*
X19094513Y-2790567D01*
X19094507Y-2790570D01*
X18880422Y-2890399D01*
X18880420Y-2890400D01*
X18686926Y-3025886D01*
X18686920Y-3025891D01*
X18519891Y-3192920D01*
X18519886Y-3192926D01*
X18384400Y-3386420D01*
X18384399Y-3386422D01*
X18284570Y-3600507D01*
X18284567Y-3600513D01*
X18227364Y-3813999D01*
X18227364Y-3814000D01*
X19124314Y-3814000D01*
X19098507Y-3854156D01*
X19058000Y-3992111D01*
X19058000Y-4135889D01*
X19098507Y-4273844D01*
X19124314Y-4314000D01*
X18227364Y-4314000D01*
X18284567Y-4527486D01*
X18284570Y-4527492D01*
X18384399Y-4741578D01*
X18519894Y-4935082D01*
X18641946Y-5057134D01*
X18675431Y-5118457D01*
X18670447Y-5188149D01*
X18628575Y-5244082D01*
X18597598Y-5260997D01*
X18465671Y-5310202D01*
X18465664Y-5310206D01*
X18350455Y-5396452D01*
X18350452Y-5396455D01*
X18264206Y-5511664D01*
X18264202Y-5511671D01*
X18213908Y-5646517D01*
X18207501Y-5706116D01*
X18207500Y-5706135D01*
X18207500Y-7501870D01*
X18207501Y-7501876D01*
X18213908Y-7561483D01*
X18264202Y-7696328D01*
X18264206Y-7696335D01*
X18350452Y-7811544D01*
X18350455Y-7811547D01*
X18465664Y-7897793D01*
X18465671Y-7897797D01*
X18600517Y-7948091D01*
X18600516Y-7948091D01*
X18607444Y-7948835D01*
X18660127Y-7954500D01*
X20455872Y-7954499D01*
X20515483Y-7948091D01*
X20650331Y-7897796D01*
X20765546Y-7811546D01*
X20851796Y-7696331D01*
X20900810Y-7564916D01*
X20942681Y-7508984D01*
X21008145Y-7484566D01*
X21076418Y-7499417D01*
X21104673Y-7520569D01*
X21226599Y-7642495D01*
X21314679Y-7704169D01*
X21420165Y-7778032D01*
X21420167Y-7778033D01*
X21420170Y-7778035D01*
X21634337Y-7877903D01*
X21862592Y-7939063D01*
X22039034Y-7954500D01*
X22097999Y-7959659D01*
X22098000Y-7959659D01*
X22098001Y-7959659D01*
X22156966Y-7954500D01*
X22333408Y-7939063D01*
X22561663Y-7877903D01*
X22775830Y-7778035D01*
X22969401Y-7642495D01*
X23136495Y-7475401D01*
X23184127Y-7407376D01*
X23238704Y-7363751D01*
X23285701Y-7354500D01*
X23450299Y-7354500D01*
X23517338Y-7374185D01*
X23551873Y-7407376D01*
X23599505Y-7475401D01*
X23766599Y-7642495D01*
X23854679Y-7704169D01*
X23960165Y-7778032D01*
X23960167Y-7778033D01*
X23960170Y-7778035D01*
X24174337Y-7877903D01*
X24402592Y-7939063D01*
X24579034Y-7954500D01*
X24637999Y-7959659D01*
X24638000Y-7959659D01*
X24638001Y-7959659D01*
X24696966Y-7954500D01*
X24873408Y-7939063D01*
X25101663Y-7877903D01*
X25315830Y-7778035D01*
X25509401Y-7642495D01*
X25676495Y-7475401D01*
X25724127Y-7407376D01*
X25778704Y-7363751D01*
X25825701Y-7354500D01*
X25990299Y-7354500D01*
X26057338Y-7374185D01*
X26091873Y-7407376D01*
X26139505Y-7475401D01*
X26306595Y-7642492D01*
X26306598Y-7642494D01*
X26306599Y-7642495D01*
X26374623Y-7690125D01*
X26418248Y-7744701D01*
X26427500Y-7791700D01*
X26427500Y-8216294D01*
X26426191Y-8234263D01*
X26422710Y-8258025D01*
X26427028Y-8307368D01*
X26427500Y-8318176D01*
X26427500Y-8323711D01*
X26431098Y-8354495D01*
X26431464Y-8358083D01*
X26438000Y-8432791D01*
X26439461Y-8439867D01*
X26439403Y-8439878D01*
X26441034Y-8447237D01*
X26441092Y-8447224D01*
X26442757Y-8454249D01*
X26442758Y-8454254D01*
X26442759Y-8454255D01*
X26461835Y-8506669D01*
X26468400Y-8524705D01*
X26469582Y-8528107D01*
X26493182Y-8599326D01*
X26496236Y-8605874D01*
X26496182Y-8605898D01*
X26499470Y-8612688D01*
X26499521Y-8612663D01*
X26502761Y-8619114D01*
X26543979Y-8681784D01*
X26545889Y-8684782D01*
X26576972Y-8735174D01*
X26585289Y-8748658D01*
X26589766Y-8754319D01*
X26589719Y-8754356D01*
X26594482Y-8760202D01*
X26594528Y-8760164D01*
X26599173Y-8765699D01*
X26620484Y-8785805D01*
X26655739Y-8846127D01*
X26652784Y-8915935D01*
X26612558Y-8973063D01*
X26547832Y-8999374D01*
X26535391Y-9000000D01*
X19051362Y-9000000D01*
X18984323Y-8980315D01*
X18963681Y-8963681D01*
X17036319Y-7036319D01*
X17002834Y-6974996D01*
X17000000Y-6948638D01*
X17000000Y-3051362D01*
X17019685Y-2984323D01*
X17036319Y-2963681D01*
X18963681Y-1036319D01*
X19025004Y-1002834D01*
X19051362Y-1000000D01*
X90948638Y-1000000D01*
X91015677Y-1019685D01*
G37*
%TD.AperFunction*%
%TA.AperFunction,Conductor*%
G36*
X21638507Y-3854156D02*
G01*
X21598000Y-3992111D01*
X21598000Y-4135889D01*
X21638507Y-4273844D01*
X21664314Y-4314000D01*
X19991686Y-4314000D01*
X20017493Y-4273844D01*
X20058000Y-4135889D01*
X20058000Y-3992111D01*
X20017493Y-3854156D01*
X19991686Y-3814000D01*
X21664314Y-3814000D01*
X21638507Y-3854156D01*
G37*
%TD.AperFunction*%
%TA.AperFunction,Conductor*%
G36*
X24178507Y-3854156D02*
G01*
X24138000Y-3992111D01*
X24138000Y-4135889D01*
X24178507Y-4273844D01*
X24204314Y-4314000D01*
X22531686Y-4314000D01*
X22557493Y-4273844D01*
X22598000Y-4135889D01*
X22598000Y-3992111D01*
X22557493Y-3854156D01*
X22531686Y-3814000D01*
X24204314Y-3814000D01*
X24178507Y-3854156D01*
G37*
%TD.AperFunction*%
%TA.AperFunction,Conductor*%
G36*
X26718507Y-3854156D02*
G01*
X26678000Y-3992111D01*
X26678000Y-4135889D01*
X26718507Y-4273844D01*
X26744314Y-4314000D01*
X25071686Y-4314000D01*
X25097493Y-4273844D01*
X25138000Y-4135889D01*
X25138000Y-3992111D01*
X25097493Y-3854156D01*
X25071686Y-3814000D01*
X26744314Y-3814000D01*
X26718507Y-3854156D01*
G37*
%TD.AperFunction*%
%TA.AperFunction,Conductor*%
G36*
X54150507Y-3854156D02*
G01*
X54110000Y-3992111D01*
X54110000Y-4135889D01*
X54150507Y-4273844D01*
X54176314Y-4314000D01*
X52503686Y-4314000D01*
X52529493Y-4273844D01*
X52570000Y-4135889D01*
X52570000Y-3992111D01*
X52529493Y-3854156D01*
X52503686Y-3814000D01*
X54176314Y-3814000D01*
X54150507Y-3854156D01*
G37*
%TD.AperFunction*%
%TD*%
M02*
