%TF.GenerationSoftware,KiCad,Pcbnew,7.0.10*%
%TF.CreationDate,2024-04-04T23:26:05+02:00*%
%TF.ProjectId,serial-boomerang-shield,73657269-616c-42d6-926f-6f6d6572616e,v0.1*%
%TF.SameCoordinates,Original*%
%TF.FileFunction,Profile,NP*%
%FSLAX46Y46*%
G04 Gerber Fmt 4.6, Leading zero omitted, Abs format (unit mm)*
G04 Created by KiCad (PCBNEW 7.0.10) date 2024-04-04 23:26:05*
%MOMM*%
%LPD*%
G01*
G04 APERTURE LIST*
%TA.AperFunction,Profile*%
%ADD10C,0.100000*%
%TD*%
G04 APERTURE END LIST*
D10*
X37000001Y-9999999D02*
X2999999Y-10000001D01*
X47000000Y-37000000D02*
X43000000Y-37000000D01*
X78000001Y-31999999D02*
X78000001Y-52000001D01*
X40000001Y-12999999D02*
G75*
G03*
X37000001Y-9999999I-3000001J-1D01*
G01*
X-1Y-7000001D02*
G75*
G03*
X2999999Y-10000001I3000001J1D01*
G01*
X78000001Y-2999999D02*
G75*
G03*
X75000001Y1I-3000001J-1D01*
G01*
X47000000Y-37000000D02*
G75*
G03*
X50000000Y-34000000I0J3000000D01*
G01*
X71000000Y-21000000D02*
G75*
G03*
X68000000Y-24000000I0J-3000000D01*
G01*
X67999999Y-26000001D02*
G75*
G03*
X70999999Y-29000001I3000001J1D01*
G01*
X39999999Y-20000001D02*
G75*
G03*
X42999999Y-23000001I3000001J1D01*
G01*
X39999999Y-52000001D02*
G75*
G03*
X42999999Y-55000001I3000001J1D01*
G01*
X75000001Y-55000001D02*
G75*
G03*
X78000001Y-52000001I-1J3000001D01*
G01*
X40000000Y-20000000D02*
X40000001Y-12999999D01*
X-1Y-7000001D02*
X0Y-3000000D01*
X3000000Y0D02*
G75*
G03*
X0Y-3000000I0J-3000000D01*
G01*
X78000001Y-18000001D02*
X78000001Y-2999999D01*
X75000001Y1D02*
X3000000Y0D01*
X75000001Y-28999999D02*
X70999999Y-29000001D01*
X43000000Y-37000000D02*
G75*
G03*
X40000000Y-40000000I0J-3000000D01*
G01*
X47000001Y-22999999D02*
X42999999Y-23000001D01*
X78000001Y-31999999D02*
G75*
G03*
X75000001Y-28999999I-3000001J-1D01*
G01*
X75000001Y-21000001D02*
G75*
G03*
X78000001Y-18000001I-1J3000001D01*
G01*
X50000001Y-25999999D02*
G75*
G03*
X47000001Y-22999999I-3000001J-1D01*
G01*
X75000001Y-55000001D02*
X42999999Y-55000001D01*
X39999999Y-52000001D02*
X40000000Y-40000000D01*
X67999999Y-26000001D02*
X68000000Y-24000000D01*
X71000000Y-21000000D02*
X75000001Y-21000001D01*
X50000001Y-25999999D02*
X50000000Y-34000000D01*
M02*
